<svg id="Grupo_974381" data-name="Grupo 974381" xmlns="http://www.w3.org/2000/svg" xmlns:xlink="http://www.w3.org/1999/xlink" width="140.722" height="141.167" viewBox="0 0 140.722 141.167">
  <defs>
    <clipPath id="clip-path">
      <rect id="Rectángulo_340255" data-name="Rectángulo 340255" width="140.722" height="141.167" fill="none"/>
    </clipPath>
  </defs>
  <g id="Grupo_974378" data-name="Grupo 974378">
    <g id="Grupo_974377" data-name="Grupo 974377" clip-path="url(#clip-path)">
      <path id="Trazado_700741" data-name="Trazado 700741" d="M120.595,60.3A60.3,60.3,0,1,1,60.3,0a60.3,60.3,0,0,1,60.3,60.3" fill="#ffdeb8"/>
    </g>
  </g>
  <g id="Grupo_974380" data-name="Grupo 974380">
    <g id="Grupo_974379" data-name="Grupo 974379" clip-path="url(#clip-path)">
      <path id="Trazado_700742" data-name="Trazado 700742" d="M152.734,243.33a.9.9,0,0,1-.656.127q-1.727.007-3.453.009a1.725,1.725,0,0,0-.821-1.518,3.333,3.333,0,0,0-1.928-.52q-8.419-.01-16.838.01c-.549,0-.7-.116-.7-.686q.031-13.567,0-27.134c0-.589.176-.676.706-.675q33.868.018,67.736,0c.564,0,.732.121.73.714q-.034,13.472-.018,26.944c0,.828,0,.828-.844.828q-20.524,0-41.048.01c-1.983,0-2.36.524-2.867,1.9m-4.174-20.511a5.261,5.261,0,0,0-2.05-4.241,5.708,5.708,0,0,0-5.852-1.157,5.882,5.882,0,0,0-3.981,4.316,2.679,2.679,0,0,0,.275,2.584,2.228,2.228,0,0,0,1.887.8,2.058,2.058,0,0,0,1.6-1.679,5.632,5.632,0,0,1,.217-.908,1.9,1.9,0,0,1,2.121-1.324,2.283,2.283,0,0,1,1.709,1.469,2.026,2.026,0,0,1-1.157,2.144,12.631,12.631,0,0,1-1.395.53,1.924,1.924,0,0,0-.876,3.114,2.465,2.465,0,0,0,1.693.753,1.89,1.89,0,0,1,1.739,2.128,2.21,2.21,0,0,1-1.507,1.824c-.649.314-1.129-.083-1.615-.4-.671-.441-.748-1.187-.921-1.882a1.874,1.874,0,0,0-1.558-1.546,1.914,1.914,0,0,0-2.174,1.159,3.653,3.653,0,0,0,.479,3.54c1.784,2.9,3.6,3.557,6.583,3.113a5.4,5.4,0,0,0,4.488-3.928,5.756,5.756,0,0,0-.909-5.661.554.554,0,0,1-.009-.794,5.615,5.615,0,0,0,1.206-3.958m24.54,6.4q7.81,0,15.62,0a4.217,4.217,0,0,0,1.253-.159,1.785,1.785,0,0,0,1.293-1.625,1.814,1.814,0,0,0-1.2-2.057,3.92,3.92,0,0,0-1.224-.216q-15.747-.017-31.494-.008a3.452,3.452,0,0,0-1.241.222,1.934,1.934,0,0,0-1.024,2.74,2.271,2.271,0,0,0,2.2,1.1q7.905,0,15.811,0m-.065,8.134q7.842,0,15.683,0a4.253,4.253,0,0,0,1.13-.125,1.838,1.838,0,0,0,1.425-1.594,1.883,1.883,0,0,0-1.26-2.153,3.635,3.635,0,0,0-1.244-.2q-15.588.007-31.176,0a5.721,5.721,0,0,0-1.3.169,1.962,1.962,0,0,0-1.255,2.687,2.226,2.226,0,0,0,2.256,1.215q7.873.005,15.747,0m4.057-16.272q5.84,0,11.681,0a3.932,3.932,0,0,0,1.189-.154,1.98,1.98,0,0,0,.05-3.708,4.865,4.865,0,0,0-1.356-.207q-11.206.011-22.41.006a11.006,11.006,0,0,0-1.562.1,2.077,2.077,0,0,0-1.708,1.587,1.731,1.731,0,0,0,.62,1.762,2.425,2.425,0,0,0,1.814.612q5.84-.009,11.681,0" transform="translate(-62.882 -104.332)" fill="#b20d0d"/>
      <path id="Trazado_700743" data-name="Trazado 700743" d="M147.7,177.49c.235.293-.026.582-.016.879.034,1.048.013,2.1.013,3.147-.339.007-.677.02-1.015.02l-45.176,0a2.291,2.291,0,0,0-2.612,2.608c0,1.164-.013,2.329-.02,3.494l-4.027-.044a2.317,2.317,0,0,0-2.392-1.99c-5.081,0-10.163-.011-15.244.013-.566,0-.7-.147-.7-.7q.028-13.561,0-27.124c0-.525.134-.67.665-.67q33.919.019,67.837,0c.53,0,.666.139.664.666-.02,5.7-.015,11.392-.014,17.087a2.3,2.3,0,0,0,2.036,2.618m-59,4.046c1.291,0,2.583.016,3.874,0a2,2,0,0,0,2.129-1.684,1.968,1.968,0,0,0-1.708-2.331,3.017,3.017,0,0,0-.63-.045c-1.1,0-2.2,0-3.3,0-.141,0-.32.059-.412-.081-.116-.176.038-.312.131-.45l5.388-8.077a2.787,2.787,0,0,0,.545-1.267,5.974,5.974,0,0,0-6.036-6.349,6.126,6.126,0,0,0-6.018,5.626,2.208,2.208,0,0,0,1.108,2.189,1.834,1.834,0,0,0,2.18-.249,2.521,2.521,0,0,0,.759-1.626,2.038,2.038,0,0,1,1.412-1.722,1.907,1.907,0,0,1,1.992.486.89.89,0,0,1,.15,1.391q-2.434,3.64-4.871,7.279a41.562,41.562,0,0,0-2.575,4.222,1.482,1.482,0,0,0,.109,1.606,2.283,2.283,0,0,0,1.967,1.091c1.27.012,2.54,0,3.81,0m31.508-6.1h12.641c1.482,0,2.964.012,4.446-.005a2.039,2.039,0,0,0,1.729-3.323,2.373,2.373,0,0,0-2.07-.733q-16.548-.008-33.1-.015a7.653,7.653,0,0,0-1.372.145c-.946.17-2.155,1.72-1.2,2.937a2.544,2.544,0,0,0,2.153,1q8.385-.009,16.77,0m5.058-8.138c3.853,0,7.706-.011,11.559.009a2.906,2.906,0,0,0,2.117-.777,1.879,1.879,0,0,0-.187-2.767,3.248,3.248,0,0,0-1.772-.524q-11.718,0-23.436,0a2.484,2.484,0,0,0-1.172.237c-1.114.584-1.883,1.915-.649,3.152a2.465,2.465,0,0,0,1.853.675q5.843,0,11.686,0" transform="translate(-37.489 -76.983)" fill="#9cfdff"/>
      <path id="Trazado_700744" data-name="Trazado 700744" d="M115.984,80.16a.457.457,0,0,0-.057.113c-.346,1.752-1.413,1.969-2.868,1.969-9.891,0-19.782.018-29.673-.028a3.072,3.072,0,0,0-2.373.98c-1.254,1.262-2.521,2.51-3.776,3.771a1.713,1.713,0,0,1-2.518-.081c-.775-.726-1.516-1.488-2.3-2.2-.22-.2-.5-.4-.794-.213a.856.856,0,0,0-.422.775,27.308,27.308,0,0,1-.079,3.214,2.007,2.007,0,0,1-2.182,1.9c-4,.041-8.006.028-12.008.008a2.133,2.133,0,0,1-1.965-2.131q-.049-1.428-.007-2.859c.012-.433-.089-.746-.512-.9-.394-.146-.629.1-.872.35-.633.652-1.245,1.329-1.918,1.938-1.186,1.074-1.979,1.042-3.056-.02q-4.139-4.082-8.224-8.22c-1.156-1.166-1.146-2.042-.03-3.228.635-.675,1.261-1.36,1.913-2.019a.611.611,0,0,0,.182-.729.654.654,0,0,0-.655-.476c-1,.012-1.994-.049-2.985.013A2.2,2.2,0,0,1,36.643,69.9a2.026,2.026,0,0,1,2.065-1.863c1.668-.089,3.346-.073,5.016-.011a1.987,1.987,0,0,1,1.86,1.41c.369,1.035.834,2.03,1.252,3.045.428,1.037.4,1.417-.558,2.365A8.408,8.408,0,0,1,44.466,76.5c-.128.068-.158.14-.059.294a3.684,3.684,0,0,0,.517.639c1.659,1.634,3.325,3.261,4.972,4.907.282.282.417.266.675-.035.454-.528,1-.973,1.458-1.5a2.3,2.3,0,0,1,2.822-.5c.934.417,1.86.856,2.81,1.233A2.262,2.262,0,0,1,59.023,83.8c.042.675.025,1.356,0,2.033-.012.345.072.472.447.47q3.622-.025,7.244,0c.324,0,.442-.08.43-.421-.025-.72-.012-1.44-.007-2.161a2.254,2.254,0,0,1,1.585-2.342c.959-.385,1.929-.749,2.867-1.183a1.99,1.99,0,0,1,2.485.538c.546.562,1.121,1.1,1.663,1.661.233.242.385.222.613-.007q2.571-2.59,5.167-5.155c.326-.321.241-.5-.055-.758a9.6,9.6,0,0,1-2.2-2.428,1.228,1.228,0,0,1-.077-1.136c.455-1.107.938-2.2,1.351-3.327A2.336,2.336,0,0,1,83,68c.678,0,1.356-.019,2.033.007.339.013.425-.1.423-.427q-.02-3.654,0-7.307c0-.361-.137-.415-.445-.405-.614.019-1.232-.038-1.842.014a2.424,2.424,0,0,1-2.744-1.818,28.763,28.763,0,0,0-1.153-2.8,1.67,1.67,0,0,1,.257-1.87,17.589,17.589,0,0,1,1.959-1.988c.317-.289.311-.476.015-.768q-2.579-2.543-5.129-5.115c-.295-.3-.467-.3-.755.019-.536.6-1.107,1.17-1.7,1.713a1.933,1.933,0,0,1-2.468.376,16.59,16.59,0,0,0-2.67-1.11A2.348,2.348,0,0,1,67.143,44.1c.026-.7-.01-1.4.011-2.1.01-.319-.065-.438-.415-.436q-3.653.023-7.307,0c-.344,0-.428.106-.419.431.022.762.027,1.526,0,2.288a2.172,2.172,0,0,1-1.47,2.151c-1,.385-2,.79-2.975,1.249a1.842,1.842,0,0,1-2.24-.355,19.386,19.386,0,0,1-1.656-1.665c-.4-.478-.621-.422-1.027-.007-1.641,1.683-3.312,3.337-4.995,4.977-.264.257-.214.42-.015.623.489.5.987.989,1.479,1.486a2.342,2.342,0,0,1,.568,3.013c-.376.828-.706,1.672-1.034,2.519a2.242,2.242,0,0,1-2.383,1.615,9.639,9.639,0,0,1-1.974-.009c-.5-.09-.613.14-.572.593a9.591,9.591,0,0,1,0,1.27,2.233,2.233,0,0,1-1.9,2.2,2.181,2.181,0,0,1-2.141-1.981c-.069-1.416-.065-2.839-.012-4.256a2.2,2.2,0,0,1,2.322-1.9c.91-.025,1.821-.015,2.732,0,.32,0,.6-.028.723-.366a.767.767,0,0,0-.169-.876c-.412-.393-.822-.789-1.241-1.174-.3-.276-.536-.613-.81-.9-.929-.984-.964-2.155.249-3.357,2.649-2.623,5.273-5.27,7.915-7.9a3.456,3.456,0,0,1,.822-.643,2.021,2.021,0,0,1,2.31.41c.729.705,1.414,1.456,2.2,2.105a.692.692,0,0,0,.834.157.615.615,0,0,0,.4-.687c0-.869.028-1.738-.005-2.605a2.074,2.074,0,0,1,2.294-2.446c3.875-.054,7.753-.088,11.627.009,1.754.044,2.224.755,2.344,2.478.056.8.017,1.609.006,2.414a.826.826,0,0,0,.493.873c.38.164.643-.038.895-.289.63-.627,1.261-1.254,1.9-1.874a1.915,1.915,0,0,1,3.046-.027q2.01,1.942,3.948,3.959a1.755,1.755,0,0,0,1.385.583q23.319-.022,46.638-.008c1.607,0,2.447.6,2.718,2.029a2.272,2.272,0,0,1-2.6,2.034H92.824c-.253,0-.507.013-.76.02-1.779-.007-3.558-.007-5.337-.024-.413,0-.482.159-.324.5a1.907,1.907,0,0,1-.434,2.27c-.609.647-1.241,1.273-1.861,1.911-.246.254-.594.492-.4.912a.964.964,0,0,0,1.008.515c.8-.011,1.611-.023,2.414.006a2.216,2.216,0,0,1,2.386,2.317c.021,3.855.028,7.71,0,11.565a2.221,2.221,0,0,1-2.477,2.392,11.1,11.1,0,0,0-2.771.1c-.561.128-.765.456-.412.905.557.708,1.145,1.4,1.763,2.052.706.747,1.319,1.488.776,2.6-.142.29-.031.441.3.428.169-.007.339,0,.509,0q13.026,0,26.052,0c1.651,0,2.3.479,2.737,1.984" transform="translate(-17.946 -18.36)"/>
      <path id="Trazado_700745" data-name="Trazado 700745" d="M120.355,211.076c.007-1.164.017-2.329.02-3.494a2.291,2.291,0,0,1,2.612-2.608h45.176c.338,0,.677-.014,1.015-.021.233.007.465.02.7.02q12.551,0,25.1,0a3.215,3.215,0,0,1,1.957.627,2.232,2.232,0,0,1,.7,2q.034,15.728,0,31.457c-.005,1.662-.66,2.509-2.519,2.511q-21.86.028-43.72.01a2.242,2.242,0,0,1-2.572-2.161c.506-1.372.884-1.893,2.867-1.9q20.524-.027,41.048-.01c.844,0,.844,0,.844-.828q0-13.472.018-26.944c0-.593-.166-.715-.73-.714q-33.868.023-67.736,0c-.53,0-.708.087-.706.675q.034,13.567,0,27.134c0,.57.147.688.7.686q8.419-.033,16.839-.01a3.329,3.329,0,0,1,1.928.52,1.726,1.726,0,0,1,.821,1.518,2.029,2.029,0,0,1-2.281,2.011q-10.06.047-20.121,0a1.914,1.914,0,0,1-1.9-1.99c-.036-9.246-.026-18.493-.032-27.739,0-.253-.013-.507-.02-.76" transform="translate(-58.97 -100.42)"/>
      <path id="Trazado_700746" data-name="Trazado 700746" d="M199.742,73.737c.007-4.592.008-9.185.031-13.777,0-.437-.186-.464-.529-.463-2.582.01-5.164.005-7.745.005-2.54,0-5.079.007-7.619,0a2.149,2.149,0,0,1-2.432-2.031h-4.039a2.272,2.272,0,0,1-2.6,2.034L138,59.5c-.253,0-.507.013-.76.019-1.779-.007-3.557-.007-5.337-.024-.413,0-.482.159-.324.5a1.907,1.907,0,0,1-.434,2.27c-.609.647-1.241,1.273-1.861,1.911-.247.255-.594.492-.4.912a.965.965,0,0,0,1.008.515c.8-.011,1.61-.024,2.414.005a2.216,2.216,0,0,1,2.387,2.317c.021,3.855.028,7.71,0,11.565a2.221,2.221,0,0,1-2.477,2.392,11.048,11.048,0,0,0-2.771.1c-.561.127-.765.456-.412.9.557.708,1.145,1.4,1.763,2.053.706.747,1.319,1.487.776,2.6-.142.29-.031.441.3.428.169-.007.339,0,.509,0q13.026,0,26.052,0c1.651,0,2.3.479,2.737,1.984,1.342.094,2.686.046,4.03.028.348-1.468,1.072-2.012,2.7-2.012q15.521,0,31.042,0c.971,0,.834.125.833-.841q0-6.7-.019-13.394m-34.4-8.811a2.5,2.5,0,0,1,2.62-1.347q11.693-.027,23.385-.005A2.668,2.668,0,0,1,193.628,65a2.353,2.353,0,0,1-1.333,2.48,2.933,2.933,0,0,1-1.174.152H179.492c-3.9,0-7.8-.008-11.693.005a2.352,2.352,0,0,1-2.471-1.359,1.566,1.566,0,0,1,.012-1.357M152.864,82.233a1.94,1.94,0,0,1-1.813,1.651c-2.773.031-5.547.028-8.32.013a2.231,2.231,0,0,1-1.854-1.49,1.949,1.949,0,0,1,.7-2.122,3.155,3.155,0,0,1,1.737-.455c.5-.01,1.176.242,1.448-.112.249-.325.092-.971.093-1.475q.008-3.462,0-6.924v-.837c-.288.273-.463.438-.637.6a2.016,2.016,0,0,1-2.712.036,1.986,1.986,0,0,1-.183-2.692c.163-.217.422-.362.49-.65a8.258,8.258,0,0,0,1.532-1.408c.75-.716,1.46-1.473,2.215-2.182a1.948,1.948,0,0,1,2.926.269,2.409,2.409,0,0,1,.434,1.6q.015,3.332.022,6.664a1.033,1.033,0,0,1,.409.036,1.033,1.033,0,0,0-.409-.036c-.007,2.223-.006,4.445-.028,6.668,0,.371.124.466.474.458a7.63,7.63,0,0,1,1.958.109,1.929,1.929,0,0,1,1.513,2.279m40.538.461a1.906,1.906,0,0,1-1.8,1.2c-.887.042-1.777.014-2.666.014H176.368c-4.974,0-9.948-.014-14.923.012a2.517,2.517,0,0,1-2.133-1.152,1.972,1.972,0,0,1,.874-2.653,3.992,3.992,0,0,1,1.6-.275q14.541,0,29.083,0a2.675,2.675,0,0,1,2.255.768,1.964,1.964,0,0,1,.277,2.088M191.1,75.771q-16.828,0-33.656.008a2.283,2.283,0,0,1-2.293-1.315,2.865,2.865,0,0,1-.142-.728c.106-.294.164-.6.3-.888.478-1.012,1.418-1.049,2.33-1.136.357-.034.72-.007,1.08-.007h32.345a2.332,2.332,0,0,1,2.617,2.031,2.241,2.241,0,0,1-2.582,2.035" transform="translate(-63.118 -28.157)" fill="#ffc403"/>
      <path id="Trazado_700747" data-name="Trazado 700747" d="M143.811,173.595a2.3,2.3,0,0,1-2.036-2.617c0-5.7-.006-11.392.015-17.087,0-.527-.133-.667-.664-.666q-33.919.021-67.837,0c-.531,0-.666.144-.665.67q.024,13.561,0,27.124c0,.556.132.705.7.7,5.081-.023,10.163-.016,15.244-.012a2.318,2.318,0,0,1,2.393,1.989,2.5,2.5,0,0,1-2.595,2.094q-8.83-.065-17.661-.007a2.226,2.226,0,0,1-2.129-2.137q.014-16.137,0-32.275a2.175,2.175,0,0,1,2.219-2.2c.211-.016.423-.008.635-.008q35.831,0,71.661,0a4.372,4.372,0,0,1,1.47.237c1.091.389,1.261,1.368,1.265,2.318.028,6.481.012,12.961.017,19.442a2.69,2.69,0,0,1-1.145,2.074c-.24.206-.669.036-.888.355" transform="translate(-33.598 -73.087)"/>
      <path id="Trazado_700748" data-name="Trazado 700748" d="M234.675,71.768c.007-4.592.008-9.185.031-13.777,0-.437-.186-.465-.529-.463-2.582.01-5.164.005-7.746.005-2.539,0-5.079.007-7.619,0A2.149,2.149,0,0,1,216.38,55.5a2.1,2.1,0,0,1,2.377-2.024c5.865-.021,11.731-.05,17.6.016,1.677.019,2.378.755,2.4,2.553.042,3.98.013,7.962.013,11.942q0,9.688,0,19.376a4.145,4.145,0,0,1-.209,1.35,2.127,2.127,0,0,1-2.078,1.357c-.105.01-.212,0-.317,0h-33.54a2.248,2.248,0,0,1-2.5-2.054c.348-1.467,1.072-2.012,2.7-2.012q15.521,0,31.042,0c.971,0,.834.125.833-.841q0-6.7-.018-13.394" transform="translate(-98.051 -26.189)"/>
      <path id="Trazado_700749" data-name="Trazado 700749" d="M58.009,213.679H50.524l-11.753,0a2.164,2.164,0,0,1-2.1-2.1c-.018-2.393-.015-4.786-.015-7.179,0-8.217.026-16.433-.02-24.649a2.424,2.424,0,0,1,2.727-2.687c2.286.038,4.573,0,6.86.016a2.991,2.991,0,0,1,1.737.425,1.985,1.985,0,0,1,.767,2.136,1.965,1.965,0,0,1-1.513,1.374,38.569,38.569,0,0,1-4.862.128c-.524.023-1.2-.222-1.529.093s-.1,1-.1,1.524q-.01,13.087-.017,26.174c0,.543.105.7.678.694,5.378-.027,10.757-.015,16.136-.019a1.039,1.039,0,0,0,.662-.093,5.459,5.459,0,0,1-.912-1.046,1.849,1.849,0,0,1,.93-2.682,1.939,1.939,0,0,1,2.386.561c1.341,1.351,2.681,2.7,4,4.078a1.87,1.87,0,0,1-.074,2.517q-2.1,2.153-4.257,4.259a1.783,1.783,0,0,1-2.413.137,1.907,1.907,0,0,1-.3-3c.153-.185.41-.295.467-.656" transform="translate(-17.948 -86.755)"/>
      <path id="Trazado_700750" data-name="Trazado 700750" d="M65.207,82.059a12.369,12.369,0,0,1,2.9-13.313,11.767,11.767,0,0,1,10.091-3.4,12.237,12.237,0,0,1,10.036,16,2.327,2.327,0,0,1-1.655,1.823A2.009,2.009,0,0,1,84.2,81.546a3.5,3.5,0,0,1,.158-1.229c1.193-4.115-.043-8.273-4.519-10.305a8.922,8.922,0,0,0-2.933-.637,8.056,8.056,0,0,0-6.06,13.84,8.09,8.09,0,0,0,4.8,2.365A8.879,8.879,0,0,0,79.4,85.2a2.288,2.288,0,0,1,2.529.509,1.871,1.871,0,0,1-.714,3.03,11.054,11.054,0,0,1-5.062.971,13.822,13.822,0,0,1-4.845-1.18,1.383,1.383,0,0,0-.241-.192,12.388,12.388,0,0,1-5.866-6.278" transform="translate(-31.555 -31.962)"/>
      <path id="Trazado_700751" data-name="Trazado 700751" d="M234.812,155.689a2.493,2.493,0,0,1,1.225,2.012,1.959,1.959,0,0,1-1.152,1.8,1.694,1.694,0,0,1-2.154-.331q-2.11-2.06-4.114-4.228a1.777,1.777,0,0,1,.047-2.736c1.323-1.373,2.68-2.711,4.04-4.048a2.266,2.266,0,0,1,2.57-.171c1.017,1.039,1.078,2.065.2,2.993-.127.134-.425.22-.286.489.119.228.372.15.575.15,1.271,0,2.543-.024,3.812.015.515.016.667-.1.664-.644-.024-5.063-.013-10.125-.016-15.188a2.606,2.606,0,0,1,.228-1.216,1.988,1.988,0,0,1,2.248-1.14,1.934,1.934,0,0,1,1.484,1.676,8.047,8.047,0,0,1,.106,1.626c0,5.274,0,10.549.01,15.823a6.215,6.215,0,0,1-.147,1.554c-.241.937-.863,1.528-2.307,1.555-2.054.039-4.109.01-6.163.01h-.867" transform="translate(-111.71 -65.369)"/>
      <path id="Trazado_700752" data-name="Trazado 700752" d="M156.342,226.808a5.613,5.613,0,0,1-1.207,3.958.554.554,0,0,0,.009.794,5.756,5.756,0,0,1,.909,5.661,5.4,5.4,0,0,1-4.488,3.928c-2.979.445-4.8-.215-6.583-3.113a3.653,3.653,0,0,1-.479-3.54,1.914,1.914,0,0,1,2.174-1.159,1.874,1.874,0,0,1,1.558,1.546c.173.7.249,1.441.921,1.882.486.319.965.716,1.615.4a2.21,2.21,0,0,0,1.507-1.824,1.89,1.89,0,0,0-1.739-2.128,2.465,2.465,0,0,1-1.693-.753,1.924,1.924,0,0,1,.876-3.114,12.59,12.59,0,0,0,1.394-.53,2.026,2.026,0,0,0,1.157-2.144,2.283,2.283,0,0,0-1.709-1.469,1.9,1.9,0,0,0-2.121,1.324,5.68,5.68,0,0,0-.217.908,2.058,2.058,0,0,1-1.6,1.679,2.228,2.228,0,0,1-1.887-.8,2.679,2.679,0,0,1-.275-2.584,5.881,5.881,0,0,1,3.981-4.316,5.708,5.708,0,0,1,5.852,1.157,5.261,5.261,0,0,1,2.05,4.241" transform="translate(-70.664 -108.321)"/>
      <path id="Trazado_700753" data-name="Trazado 700753" d="M198.564,240.964q-7.905,0-15.811,0a2.269,2.269,0,0,1-2.2-1.1,1.933,1.933,0,0,1,1.023-2.74,3.443,3.443,0,0,1,1.241-.222q15.747,0,31.494.009a3.9,3.9,0,0,1,1.224.216,1.814,1.814,0,0,1,1.2,2.057,1.785,1.785,0,0,1-1.293,1.626,4.224,4.224,0,0,1-1.253.159q-7.81-.009-15.62,0" transform="translate(-88.345 -116.073)"/>
      <path id="Trazado_700754" data-name="Trazado 700754" d="M198.512,256.9q-7.873,0-15.747,0a2.227,2.227,0,0,1-2.256-1.215A1.962,1.962,0,0,1,181.764,253a5.75,5.75,0,0,1,1.305-.169q15.588.011,31.176,0a3.636,3.636,0,0,1,1.244.2,1.882,1.882,0,0,1,1.26,2.153,1.838,1.838,0,0,1-1.425,1.594,4.253,4.253,0,0,1-1.13.125q-7.842-.005-15.684,0" transform="translate(-88.358 -123.878)"/>
      <path id="Trazado_700755" data-name="Trazado 700755" d="M210.3,225.005q-5.84,0-11.681,0a2.425,2.425,0,0,1-1.814-.612,1.731,1.731,0,0,1-.62-1.762,2.076,2.076,0,0,1,1.708-1.587,11.007,11.007,0,0,1,1.562-.1q11.2,0,22.41-.006a4.864,4.864,0,0,1,1.356.207,1.98,1.98,0,0,1-.05,3.708,3.933,3.933,0,0,1-1.189.154q-5.84-.009-11.681,0" transform="translate(-96.09 -108.253)"/>
      <path id="Trazado_700756" data-name="Trazado 700756" d="M94.569,185.5c-1.27,0-2.54.009-3.81,0a2.283,2.283,0,0,1-1.967-1.091,1.481,1.481,0,0,1-.109-1.606,41.556,41.556,0,0,1,2.574-4.222q2.431-3.642,4.871-7.279a.889.889,0,0,0-.15-1.391,1.908,1.908,0,0,0-1.992-.486,2.038,2.038,0,0,0-1.412,1.722,2.521,2.521,0,0,1-.759,1.627,1.834,1.834,0,0,1-2.18.249,2.207,2.207,0,0,1-1.108-2.189,6.126,6.126,0,0,1,6.018-5.626,5.974,5.974,0,0,1,6.036,6.349,2.793,2.793,0,0,1-.545,1.267L94.649,180.9c-.092.138-.246.274-.131.45.092.14.271.081.412.081,1.1,0,2.2,0,3.3,0a3.018,3.018,0,0,1,.63.045,1.968,1.968,0,0,1,1.708,2.331,2,2,0,0,1-2.129,1.684c-1.291.021-2.582,0-3.874.005" transform="translate(-43.361 -80.943)"/>
      <path id="Trazado_700757" data-name="Trazado 700757" d="M143.665,189.117q-8.385,0-16.77,0a2.544,2.544,0,0,1-2.153-1c-.953-1.216.257-2.766,1.2-2.937a7.607,7.607,0,0,1,1.372-.145q16.548.018,33.1.015a2.372,2.372,0,0,1,2.07.733,2.039,2.039,0,0,1-1.729,3.323c-1.482.017-2.964.005-4.446.005H143.665" transform="translate(-60.949 -90.664)"/>
      <path id="Trazado_700758" data-name="Trazado 700758" d="M158.483,173.175q-5.843,0-11.686,0a2.465,2.465,0,0,1-1.853-.675c-1.233-1.237-.465-2.568.649-3.152a2.484,2.484,0,0,1,1.172-.237q11.718,0,23.436,0a3.248,3.248,0,0,1,1.772.524,1.879,1.879,0,0,1,.187,2.767,2.9,2.9,0,0,1-2.117.777c-3.853-.019-7.706-.009-11.559-.009" transform="translate(-70.708 -82.859)"/>
      <path id="Trazado_700759" data-name="Trazado 700759" d="M180.161,87.4a9.2,9.2,0,0,1,.3-.888c.478-1.012,1.418-1.049,2.33-1.136.357-.034.719-.007,1.079-.007h32.345a2.332,2.332,0,0,1,2.616,2.032,2.241,2.241,0,0,1-2.582,2.035q-16.828,0-33.656.008a2.282,2.282,0,0,1-2.293-1.315,2.842,2.842,0,0,1-.142-.728" transform="translate(-88.273 -41.823)"/>
      <path id="Trazado_700760" data-name="Trazado 700760" d="M205.429,105.393c-4.974,0-9.948-.014-14.922.012a2.515,2.515,0,0,1-2.133-1.152,1.971,1.971,0,0,1,.873-2.653,3.994,3.994,0,0,1,1.6-.276q14.541,0,29.082,0a2.672,2.672,0,0,1,2.255.768,1.964,1.964,0,0,1,.277,2.088,1.906,1.906,0,0,1-1.795,1.2c-.887.042-1.777.014-2.666.014H205.429" transform="translate(-92.179 -49.645)"/>
      <path id="Trazado_700761" data-name="Trazado 700761" d="M153.321,73.716a8.255,8.255,0,0,0,1.531-1.408c.75-.716,1.46-1.473,2.216-2.182a1.949,1.949,0,0,1,2.926.269,2.415,2.415,0,0,1,.434,1.6q.015,3.332.022,6.664c-.007,2.223-.006,4.445-.029,6.668,0,.371.124.466.474.458a7.627,7.627,0,0,1,1.958.109,1.994,1.994,0,0,1-.3,3.93c-2.773.031-5.547.028-8.32.013a2.231,2.231,0,0,1-1.854-1.489,1.95,1.95,0,0,1,.7-2.123,3.155,3.155,0,0,1,1.737-.455c.5-.01,1.177.242,1.449-.112.249-.325.092-.971.093-1.475q.007-3.462,0-6.924v-.837c-.289.273-.464.438-.637.6a2.016,2.016,0,0,1-2.712.036,1.986,1.986,0,0,1-.183-2.692c.163-.217.423-.362.491-.65" transform="translate(-74.621 -34.094)"/>
      <path id="Trazado_700762" data-name="Trazado 700762" d="M214.42,73.5c-3.9,0-7.8-.008-11.693.006a2.354,2.354,0,0,1-2.471-1.359,1.567,1.567,0,0,1,.012-1.357,2.5,2.5,0,0,1,2.621-1.347q11.692-.027,23.385-.005a2.669,2.669,0,0,1,2.282,1.43,2.354,2.354,0,0,1-1.333,2.48,2.936,2.936,0,0,1-1.175.152H214.42" transform="translate(-98.046 -34.016)"/>
    </g>
  </g>
</svg>
