<svg id="Grupo_974391" data-name="Grupo 974391" xmlns="http://www.w3.org/2000/svg" xmlns:xlink="http://www.w3.org/1999/xlink" width="158.689" height="160.978" viewBox="0 0 158.689 160.978">
  <defs>
    <clipPath id="clip-path">
      <rect id="Rectángulo_340259" data-name="Rectángulo 340259" width="158.689" height="160.978" fill="none"/>
    </clipPath>
  </defs>
  <g id="Grupo_974388" data-name="Grupo 974388">
    <g id="Grupo_974387" data-name="Grupo 974387" clip-path="url(#clip-path)">
      <path id="Trazado_700777" data-name="Trazado 700777" d="M154.477,77.5A77.239,77.239,0,1,1,77.238,0a77.369,77.369,0,0,1,77.239,77.5" transform="translate(0 0)" fill="#ffdeb8"/>
    </g>
  </g>
  <g id="Grupo_974390" data-name="Grupo 974390">
    <g id="Grupo_974389" data-name="Grupo 974389" clip-path="url(#clip-path)">
      <path id="Trazado_700778" data-name="Trazado 700778" d="M84.829,34.939v.974q0,20.389-.019,40.778a1.075,1.075,0,0,0,.877,1.224c6.039,1.969,7.51,9.045,5.005,13.206-2.755,4.577-7.955,5.955-12.747,3.357L47.693,124.695A49.4,49.4,0,0,0,64.31,135.023a52.59,52.59,0,0,0,26.336,2.732c-.326-1.109-.618-2.146-.951-3.17-.038-.116-.306-.195-.479-.222-1.632-.258-3.28-.436-4.9-.765a4.368,4.368,0,0,1-3.8-4.348,43.786,43.786,0,0,1,.045-5.4,4.427,4.427,0,0,1,3.933-4.242c1.557-.274,3.124-.5,4.69-.71.416-.056.557-.228.638-.63a28.118,28.118,0,0,1,3.682-8.845.911.911,0,0,0-.052-1.222c-.94-1.211-1.848-2.448-2.734-3.7a4.357,4.357,0,0,1,.418-5.913q1.714-1.8,3.466-3.561a4.358,4.358,0,0,1,5.848-.49c1.329.946,2.619,1.946,3.96,2.875a.989.989,0,0,0,.882.034,31.91,31.91,0,0,1,8.937-3.672c.534-.134.67-.357.743-.869.232-1.636.465-3.279.841-4.885a4.506,4.506,0,0,1,4.717-3.643c1.316-.005,2.631,0,3.947,0,3.186-.011,4.864,1.409,5.362,4.575.219,1.393.389,2.794.6,4.188.029.189.131.482.262.521,1.015.3,2.045.559,3.172.856.171-2.013.4-3.918.482-5.829A47.978,47.978,0,0,0,131,68.1c-1.314-3.178-3.048-6.183-4.6-9.263-.175-.347-.412-.662-.595-1a2.115,2.115,0,0,1,.623-2.956,2.086,2.086,0,0,1,2.932.7c.952,1.439,1.891,2.9,2.714,4.411a55.954,55.954,0,0,1,6.259,19.846,58.6,58.6,0,0,1-.155,14.934c-.2,1.557-.214,1.555,1.143,2.328a2.5,2.5,0,0,0,.7.373,1.324,1.324,0,0,0,.891-.069c1.219-.847,2.389-1.764,3.6-2.626a1.594,1.594,0,0,0,.738-1.242A62.078,62.078,0,0,0,142.134,65.7,58.832,58.832,0,0,0,134.9,51.266a67.5,67.5,0,0,0-13.96-14.739A61.61,61.61,0,0,0,93.358,24.446a64.555,64.555,0,0,0-19.068-.321A61.649,61.649,0,0,0,47.266,34.393c-1.69,1.146-3.255,2.476-4.876,3.722a2.494,2.494,0,0,1-2.062.709,2.123,2.123,0,0,1-1.736-1.575,1.83,1.83,0,0,1,.62-2.045c1.4-1.169,2.811-2.337,4.294-3.4a65.631,65.631,0,0,1,18.773-9.4,66.459,66.459,0,0,1,65.533,14.277A66.451,66.451,0,0,1,147.143,67.2a68.566,68.566,0,0,1,2.718,24.243c-.042.679-.156,1.354-.26,2.026a1.011,1.011,0,0,0,.39,1c1.5,1.388,3.023,2.762,4.4,4.266a4.467,4.467,0,0,1,.193,6.011c-.873,1.171-1.753,2.338-2.663,3.481a.811.811,0,0,0-.079,1.1,26.869,26.869,0,0,1,3.572,8.577c.2.9.674,1.006,1.363,1.1,1.3.175,2.6.361,3.9.574,2.53.414,3.9,1.691,4.161,4.252a32,32,0,0,1,.022,5.835c-.185,2.2-1.66,3.555-3.962,3.95q-2.05.352-4.117.6a1.37,1.37,0,0,0-1.381,1.178,26.286,26.286,0,0,1-3.6,8.559.787.787,0,0,0,.1,1.049c.945,1.269,1.9,2.533,2.812,3.825a4.117,4.117,0,0,1,.669,3.939,5.51,5.51,0,0,1-1.074,1.795c-1.152,1.255-2.362,2.46-3.6,3.627a4.409,4.409,0,0,1-6.037.345c-1.16-.848-2.323-1.693-3.442-2.593a1.007,1.007,0,0,0-1.385-.093,26.444,26.444,0,0,1-8.373,3.491,1.276,1.276,0,0,0-1.167,1.3c-.141,1.33-.358,2.652-.562,3.974-.394,2.554-1.676,3.933-4.214,4.168a29.57,29.57,0,0,1-5.544.008c-2.774-.267-4.075-1.784-4.447-4.726-.168-1.327-.38-2.649-.622-3.964a.851.851,0,0,0-.517-.556,32.535,32.535,0,0,1-9-3.714.771.771,0,0,0-1.019.036c-1.185.894-2.4,1.755-3.615,2.6-2.28,1.585-4.349,1.466-6.325-.459-1.392-1.357-2.673-2.826-4.027-4.223a.933.933,0,0,0-.688-.239A64.009,64.009,0,0,1,65.97,151.8a65.532,65.532,0,0,1-29.034-15.834A67.059,67.059,0,0,1,15.292,84.209a97.219,97.219,0,0,1,1.266-10.345,56.09,56.09,0,0,1,5-15.72A69.719,69.719,0,0,1,32.448,41.609a2.294,2.294,0,0,1,2.32-.9,1.888,1.888,0,0,1,1.587,1.612,3.043,3.043,0,0,1-.251,1.526,4.978,4.978,0,0,1-.924,1.213,62.3,62.3,0,0,0-9.965,15.555,57.9,57.9,0,0,0-4.742,15.576,69,69,0,0,0-.6,15.8A61.763,61.763,0,0,0,40.037,132.98a58.041,58.041,0,0,0,15.125,10.357c2.225,1.025,4.518,1.917,6.825,2.747a62.315,62.315,0,0,0,22.228,3.456c1.92-.029,3.839-.243,5.754-.423a1.342,1.342,0,0,0,.8-.517c.936-1.214,1.818-2.47,2.748-3.689a.749.749,0,0,0,.052-.985c-.416-.656-.654-1.613-1.24-1.918-.571-.3-1.489.04-2.248.145a54.134,54.134,0,0,1-12.388.274,55.377,55.377,0,0,1-27.516-10.2,57.6,57.6,0,0,1-15.526-16.678,53.565,53.565,0,0,1-7.521-20.689A56.148,56.148,0,0,1,55.659,37.457a54.18,54.18,0,0,1,6.034-2.917,57,57,0,0,1,16.978-3.954,56.072,56.072,0,0,1,32.2,7.526,52.923,52.923,0,0,1,12.338,9.734,2.749,2.749,0,0,1,1.057,2.226,2.163,2.163,0,0,1-3.655,1.293c-1-.967-1.958-1.97-2.967-2.923A48.883,48.883,0,0,0,99.973,37.76a50.588,50.588,0,0,0-14.338-2.819c-.238-.012-.477,0-.806,0M44.594,121.5c.188-.172.389-.342.574-.527Q59.722,106.433,74.278,91.9a.721.721,0,0,0,.2-1,9.207,9.207,0,0,1,5.457-13.153.676.676,0,0,0,.543-.788c-.025-.925,0-1.851,0-2.777q0-19.036,0-38.071V34.9C67.74,35.328,57,40.207,47.63,48.441c.473.485.862.886,1.253,1.284,1.449,1.479,2.919,2.937,4.339,4.442a1.956,1.956,0,0,1,.382,2.418,2.08,2.08,0,0,1-2.311,1.148,4.073,4.073,0,0,1-1.621-1.021c-1.758-1.647-3.469-3.344-5.27-5.092-8.045,9.368-13.037,20.055-13.411,32.764h1.1c2.168,0,4.336-.017,6.5,0a2.215,2.215,0,0,1,2.374,1.65,2.242,2.242,0,0,1-2.357,2.716c-2.265.02-4.531.005-6.8.005h-.76c-.937,8.862,6.57,26.981,13.538,32.741m49.32,30.04c1.14,1.1,2.279,2.158,3.366,3.268.432.442.723.361,1.162.03,1.594-1.2,3.227-2.35,4.823-3.547a2.247,2.247,0,0,1,2.833-.118,30.414,30.414,0,0,0,10.988,4.536,2.145,2.145,0,0,1,1.834,1.92c.32,2.091.677,4.178.961,6.275.067.5.257.6.687.592,1.388-.021,2.777-.038,4.165-.018.5.007.665-.2.737-.671.306-2.019.665-4.031.972-6.05a2.276,2.276,0,0,1,2.019-2.077,30.026,30.026,0,0,0,10.51-4.373,2.3,2.3,0,0,1,3.2.073c1.647,1.171,3.3,2.337,4.917,3.545.4.3.617.212.914-.093.952-.977,1.906-1.952,2.891-2.9.368-.352.423-.595.094-1.029-1.235-1.629-2.42-3.3-3.631-4.944a2.287,2.287,0,0,1-.085-2.84,31.87,31.87,0,0,0,4.5-10.85,2.188,2.188,0,0,1,1.95-1.889c2.092-.321,4.181-.66,6.275-.967.419-.061.585-.208.577-.647-.025-1.412-.019-2.825-.011-4.238,0-.413-.067-.649-.575-.72-2.12-.294-4.233-.635-6.345-.986A2.091,2.091,0,0,1,151.8,121.1a31.016,31.016,0,0,0-4.54-11.064,2.224,2.224,0,0,1,.14-2.824c1.232-1.6,2.411-3.243,3.618-4.865.265-.355.441-.64.006-1.048-1.031-.965-2.018-1.978-3.008-2.986a.62.62,0,0,0-.982-.064c-1.623,1.244-3.289,2.432-4.921,3.665a2.289,2.289,0,0,1-2.9.111,31.293,31.293,0,0,0-10.85-4.492,2.2,2.2,0,0,1-1.9-1.937c-.331-2.09-.679-4.177-.995-6.269-.063-.418-.215-.582-.649-.576q-2.156.031-4.312,0c-.449-.008-.567.172-.622.586-.262,1.953-.573,3.9-.839,5.852-.209,1.535-.681,2.135-2.178,2.415a29.563,29.563,0,0,0-10.533,4.307c-1.329.849-1.957.815-3.252-.13-1.494-1.091-3.007-2.158-4.476-3.282a.927.927,0,0,0-1.474.11c-.825.894-1.684,1.761-2.574,2.591a.765.765,0,0,0-.1,1.226c1.206,1.59,2.366,3.216,3.555,4.819a2.246,2.246,0,0,1,.131,2.834c-.284.424-.531.873-.793,1.312a28.069,28.069,0,0,0-3.442,8.242c-.646,2.878-.934,3.133-3.866,3.486-1.731.208-3.449.513-5.155.771v5.466c2.127.311,4.2.6,6.265.922,1.7.267,2.171.725,2.545,2.348a31.64,31.64,0,0,0,4.269,10.323c.9,1.373.859,1.921-.106,3.242-1.263,1.73-2.543,3.447-3.949,5.348M82.725,81.706a4.86,4.86,0,1,0,4.788,4.824,4.94,4.94,0,0,0-4.788-4.824" transform="translate(-6.295 -7.925)"/>
      <path id="Trazado_700779" data-name="Trazado 700779" d="M55.7,132.589c-6.969-5.761-14.475-23.879-13.538-32.741h.76c2.266,0,4.531.015,6.8-.005a2.242,2.242,0,0,0,2.357-2.716,2.214,2.214,0,0,0-2.374-1.65c-2.168-.018-4.336,0-6.5,0H42.1c.374-12.709,5.365-23.4,13.411-32.764,1.8,1.748,3.512,3.445,5.27,5.092A4.07,4.07,0,0,0,62.4,68.826a2.08,2.08,0,0,0,2.311-1.148,1.957,1.957,0,0,0-.382-2.418c-1.42-1.506-2.89-2.964-4.339-4.442-.391-.4-.779-.8-1.252-1.284C68.11,51.3,78.845,46.42,91.58,45.992V47.2q0,19.035,0,38.07c0,.926-.021,1.852,0,2.777a.676.676,0,0,1-.543.788,9.207,9.207,0,0,0-5.457,13.153.722.722,0,0,1-.2,1q-14.563,14.528-29.109,29.072c-.186.185-.387.355-.575.527" transform="translate(-17.4 -19.017)" fill="#9cfdff"/>
      <path id="Trazado_700780" data-name="Trazado 700780" d="M143.029,200.591c1.405-1.9,2.686-3.618,3.949-5.348.964-1.321,1-1.869.1-3.242a31.648,31.648,0,0,1-4.268-10.324c-.375-1.623-.849-2.081-2.545-2.348-2.066-.325-4.138-.611-6.265-.921v-5.466c1.7-.259,3.423-.564,5.154-.771,2.931-.353,3.22-.608,3.866-3.486a28.061,28.061,0,0,1,3.443-8.242c.262-.439.508-.888.792-1.312a2.246,2.246,0,0,0-.13-2.834c-1.19-1.6-2.349-3.229-3.556-4.819a.766.766,0,0,1,.1-1.227c.89-.829,1.749-1.7,2.575-2.591a.927.927,0,0,1,1.474-.11c1.469,1.124,2.981,2.191,4.475,3.282,1.3.945,1.923.979,3.253.13a29.56,29.56,0,0,1,10.533-4.307c1.5-.28,1.968-.879,2.178-2.415.266-1.953.577-3.9.839-5.852.055-.414.173-.594.622-.587,1.437.025,2.874.022,4.311,0,.435-.006.587.158.65.576.316,2.092.663,4.179.994,6.269a2.2,2.2,0,0,0,1.9,1.937,31.3,31.3,0,0,1,10.85,4.492,2.289,2.289,0,0,0,2.9-.111c1.632-1.232,3.3-2.421,4.921-3.665a.62.62,0,0,1,.982.065c.989,1.008,1.977,2.021,3.008,2.985.435.407.257.693-.006,1.048-1.207,1.621-2.386,3.263-3.618,4.865a2.225,2.225,0,0,0-.14,2.825,31.02,31.02,0,0,1,4.54,11.063,2.091,2.091,0,0,0,1.852,1.729c2.112.351,4.225.692,6.345.987.509.07.578.306.576.719-.008,1.413-.014,2.826.011,4.238.008.439-.158.586-.577.648-2.093.306-4.183.645-6.274.966a2.188,2.188,0,0,0-1.95,1.889,31.864,31.864,0,0,1-4.505,10.85,2.287,2.287,0,0,0,.085,2.84c1.211,1.647,2.4,3.314,3.631,4.944.328.433.274.676-.094,1.028-.985.943-1.939,1.919-2.89,2.9-.3.305-.516.39-.916.092-1.619-1.207-3.269-2.374-4.916-3.545a2.3,2.3,0,0,0-3.2-.073,30.034,30.034,0,0,1-10.51,4.374,2.276,2.276,0,0,0-2.019,2.077c-.307,2.019-.666,4.031-.972,6.05-.071.472-.232.678-.737.671-1.388-.019-2.777,0-4.165.018-.429.006-.619-.094-.686-.592-.284-2.1-.641-4.183-.962-6.275a2.144,2.144,0,0,0-1.833-1.92,30.4,30.4,0,0,1-10.988-4.536,2.248,2.248,0,0,0-2.833.118c-1.6,1.2-3.23,2.345-4.823,3.547-.439.331-.73.412-1.162-.029-1.087-1.11-2.226-2.169-3.366-3.269m51.243-24.221c-.072-7.038-2.042-11.7-6.272-16.225a22.451,22.451,0,1,0-11.017,37.338,19,19,0,0,0,3.416-1.215,1.9,1.9,0,0,0,.882-2.327,2.015,2.015,0,0,0-2.026-1.47,5.836,5.836,0,0,0-1.416.3,18.21,18.21,0,0,1-14.3-1.021c-7.092-3.638-10.625-10.814-9.672-18.774a17.055,17.055,0,0,1,5.126-10.1,17.4,17.4,0,0,1,16.069-4.968,17.794,17.794,0,0,1,14.787,16.385,17.387,17.387,0,0,1-3.548,12.263c-.475.616-1.013,1.184-1.484,1.8a2.068,2.068,0,0,0,.269,2.836,2.029,2.029,0,0,0,2.785.044,9,9,0,0,0,.825-.826,21.885,21.885,0,0,0,5.574-14.043m-24.831,6.573a3.2,3.2,0,0,0,1.992-1.133q4.127-4.233,8.245-8.475a13.347,13.347,0,0,0,1.3-1.477,2.087,2.087,0,0,0-3.035-2.815,8.037,8.037,0,0,0-.741.7c-2.406,2.445-4.821,4.882-7.2,7.35-.411.425-.66.417-1.055.026-.986-.975-2-1.923-3.009-2.873a2.141,2.141,0,1,0-3.126,2.923c1.718,1.788,3.54,3.477,5.357,5.167a4.721,4.721,0,0,0,1.276.606" transform="translate(-55.41 -56.979)" fill="#ffc403"/>
      <path id="Trazado_700781" data-name="Trazado 700781" d="M126.849,125.8a4.94,4.94,0,0,1,4.788,4.824,4.852,4.852,0,1,1-4.788-4.824" transform="translate(-50.419 -52.015)" fill="#b20d0d"/>
      <path id="Trazado_700782" data-name="Trazado 700782" d="M205.068,187.223a21.889,21.889,0,0,1-5.574,14.043,8.934,8.934,0,0,1-.826.826,2.029,2.029,0,0,1-2.784-.044,2.068,2.068,0,0,1-.269-2.836c.471-.619,1.009-1.187,1.484-1.8a17.391,17.391,0,0,0,3.548-12.263,17.794,17.794,0,0,0-14.787-16.385,17.4,17.4,0,0,0-16.069,4.968,17.055,17.055,0,0,0-5.126,10.1c-.954,7.96,2.579,15.136,9.672,18.773a18.208,18.208,0,0,0,14.3,1.022,5.831,5.831,0,0,1,1.416-.3,2.015,2.015,0,0,1,2.026,1.47,1.9,1.9,0,0,1-.882,2.327,19.013,19.013,0,0,1-3.416,1.215A22.429,22.429,0,1,1,198.8,171c4.231,4.525,6.2,9.187,6.273,16.225" transform="translate(-66.205 -67.831)"/>
      <path id="Trazado_700783" data-name="Trazado 700783" d="M189.3,204.614a4.721,4.721,0,0,1-1.276-.606c-1.817-1.69-3.639-3.379-5.357-5.167a2.141,2.141,0,1,1,3.126-2.923c1.011.95,2.023,1.9,3.009,2.873.4.391.645.4,1.055-.026,2.381-2.469,4.8-4.9,7.2-7.35a8.035,8.035,0,0,1,.741-.7,2.087,2.087,0,0,1,3.035,2.815,13.346,13.346,0,0,1-1.3,1.477q-4.115,4.246-8.245,8.475a3.2,3.2,0,0,1-1.992,1.133" transform="translate(-75.263 -78.649)"/>
    </g>
  </g>
</svg>
