<svg id="Grupo_974396" data-name="Grupo 974396" xmlns="http://www.w3.org/2000/svg" xmlns:xlink="http://www.w3.org/1999/xlink" width="150.095" height="151.1" viewBox="0 0 150.095 151.1">
  <defs>
    <clipPath id="clip-path">
      <rect id="Rectángulo_340261" data-name="Rectángulo 340261" width="150.095" height="151.099" fill="none"/>
    </clipPath>
  </defs>
  <g id="Grupo_974393" data-name="Grupo 974393">
    <g id="Grupo_974392" data-name="Grupo 974392" clip-path="url(#clip-path)">
      <path id="Trazado_700784" data-name="Trazado 700784" d="M136.76,68.61A68.38,68.38,0,1,1,68.38,0,68.5,68.5,0,0,1,136.76,68.61" transform="translate(0 0)" fill="#ffdeb8"/>
    </g>
  </g>
  <g id="Grupo_974395" data-name="Grupo 974395">
    <g id="Grupo_974394" data-name="Grupo 974394" clip-path="url(#clip-path)">
      <path id="Trazado_700785" data-name="Trazado 700785" d="M82.888,63.781c0-2.126-.02-4.13.006-6.134a5.579,5.579,0,0,1,2.536-4.829,5.405,5.405,0,0,1,2.246-.9,23.484,23.484,0,0,1,4.251-.117c2.908.183,5.209,2.441,5.3,6.019.044,1.724.008,3.451.008,5.176v.755h34.147v-.676c0-1.682.07-3.368-.016-5.047a5.846,5.846,0,0,1,5.487-6.239,20.8,20.8,0,0,1,3.421-.015,5.788,5.788,0,0,1,5.44,6.032q.036,2.652-.031,5.3c-.014.554.164.686.694.685q10.121-.032,20.243-.023a8.995,8.995,0,0,1,8.888,8.249c.052.687.066,1.379.066,2.069q.009,46.166.011,92.332c0,4.339-2.3,7.816-6.106,9.014a11.421,11.421,0,0,1-3.368.5q-51.87.038-103.74.017a8.878,8.878,0,0,1-8.993-6.641,12.362,12.362,0,0,1-.34-3.2q-.026-37.69-.011-75.38,0-8.8,0-17.6a8.969,8.969,0,0,1,6.189-8.9,9.859,9.859,0,0,1,2.918-.449c6.553-.035,13.107-.014,19.661-.01h1.089M56.6,91.308c-.014.259-.029.406-.029.552q0,37.171,0,74.344c0,.388-.009.778.028,1.164A5.313,5.313,0,0,0,59.913,172a8.768,8.768,0,0,0,3.689.464q49.218,0,98.436,0c1.466,0,2.932.013,4.4-.018a5.427,5.427,0,0,0,5.13-3.2,6.722,6.722,0,0,0,.481-3.035q-.006-35.49-.007-70.979c0-1.1-.022-2.2.024-3.3.021-.5-.132-.617-.611-.615-2.673.014-5.346-.01-8.019-.01q-31.011,0-62.022,0-20.535,0-41.068,0H56.6M97.235,67.27v.76c0,3.321.018,6.643-.006,9.964a5.827,5.827,0,0,1-4.81,6.013,25.715,25.715,0,0,1-4.193.07,4.25,4.25,0,0,1-1.38-.294,5.849,5.849,0,0,1-3.955-5.714c-.018-3.343,0-6.686,0-10.029,0-.248-.021-.5-.033-.786H81.745q-9.346,0-18.691,0c-.367,0-.734,0-1.1.026a5.4,5.4,0,0,0-5.264,4.405,12.18,12.18,0,0,0-.128,2.319c-.018,4.335-.016,8.67-.031,13,0,.829-.026.827.837.828q22.7.008,45.4.015,33.89,0,67.779-.011h1.5c0-.379,0-.655,0-.932q0-6.955-.007-13.911a5.2,5.2,0,0,0-3.3-5.222,8.174,8.174,0,0,0-3.025-.5c-6.424-.043-12.849-.014-19.273-.034-.591,0-.757.139-.75.754.038,3.429.057,6.859.013,10.287a5.921,5.921,0,0,1-4.8,5.722,24.939,24.939,0,0,1-4.064.087,5.086,5.086,0,0,1-3.232-1.293,5.965,5.965,0,0,1-2.224-4.816c-.011-3.343,0-6.686,0-10.029V67.27Zm-3.473.766h0c0-.582,0-1.164,0-1.746,0-2.824.018-5.648-.024-8.471a2.488,2.488,0,0,0-2.573-2.581c-.452-.02-.905-.012-1.357-.011-2.7.008-3.439.752-3.44,3.478q0,9.119,0,18.237c0,.41-.006.82.023,1.228a2.419,2.419,0,0,0,2.486,2.443c.71.037,1.422.026,2.133.037a2.38,2.38,0,0,0,2.745-2.655c.019-3.32.005-6.64.005-9.959m41.12.033h-.017c0,3.362-.011,6.723.005,10.085a2.236,2.236,0,0,0,2.275,2.445,24.507,24.507,0,0,0,2.9-.016,2.264,2.264,0,0,0,2.069-1.834,5.9,5.9,0,0,0,.114-1.154q.007-9.729-.006-19.458a4.746,4.746,0,0,0-.11-1.024,2.006,2.006,0,0,0-1.757-1.742,19.262,19.262,0,0,0-3.723.017,1.943,1.943,0,0,0-1.616,1.576,4.808,4.808,0,0,0-.132,1.215c-.01,3.3-.006,6.594-.006,9.891" transform="translate(-25.492 -24.861)"/>
      <path id="Trazado_700786" data-name="Trazado 700786" d="M59.876,127.966h3.745l41.068,0q31.011,0,62.022,0c2.673,0,5.346.024,8.019.01.479,0,.631.116.611.615-.046,1.1-.024,2.2-.024,3.3q0,35.49.006,70.979a6.706,6.706,0,0,1-.481,3.035,5.426,5.426,0,0,1-5.13,3.2c-1.465.032-2.932.018-4.4.019q-49.218,0-98.436,0a8.767,8.767,0,0,1-3.689-.464,5.316,5.316,0,0,1-3.321-4.633c-.037-.385-.027-.775-.027-1.164q0-37.171,0-74.344c0-.147.015-.293.029-.552m45.291,23.054c0,2.932-.016,5.863.015,8.795a4.294,4.294,0,0,0,.321,1.625,3.414,3.414,0,0,0,3.469,1.993c2.693.015,5.387.008,8.08.008,3.081,0,6.162.024,9.243-.013a3.436,3.436,0,0,0,3.71-3.78q0-8.7,0-17.4a4.363,4.363,0,0,0-.066-.9,3.343,3.343,0,0,0-3.666-2.76q-8.112-.009-16.224,0c-.474,0-.95-.016-1.421.022a3.35,3.35,0,0,0-3.457,3.74q0,4.333,0,8.665m0,30.623v8.6c0,2.507,1.331,3.83,3.825,3.826q8.016-.012,16.032-.01c.581,0,1.165.017,1.744-.03A3.262,3.262,0,0,0,130,190.5q.007-8.86,0-17.721a3.331,3.331,0,0,0-3.432-3.5q-8.953-.026-17.906,0a3.337,3.337,0,0,0-3.5,3.566q0,4.4,0,8.8m55.971-30.6h-.012c0-2.889-.006-5.778,0-8.667a3.426,3.426,0,0,0-3.7-3.782q-8.631-.025-17.263,0c-2.522.008-3.814,1.346-3.813,3.853q0,8.377,0,16.753c0,3.026,1.184,4.219,4.228,4.238h.388q7.92,0,15.841,0c.345,0,.692.006,1.034-.026a3.313,3.313,0,0,0,3.294-3.506q0-4.43,0-8.861m-.042,30.675h.023c0-2.953.016-5.907-.005-8.86a3.27,3.27,0,0,0-3.629-3.59c-.927,0-1.853.011-2.78.011q-7.208,0-14.416,0a3.79,3.79,0,0,0-3.079,1.2,4.149,4.149,0,0,0-.847,2.907q-.012,8.472-.007,16.944c0,2.445,1.325,3.739,3.773,3.734q6.045-.012,12.088-.018c1.767,0,3.535.04,5.3,0,2.324-.048,3.588-1.4,3.581-3.734-.009-2.867,0-5.734,0-8.6m-62.283-30.64h0q0-4.334,0-8.668c0-2.54-1.28-3.82-3.82-3.822q-3.782,0-7.565,0c-3.211,0-6.423-.015-9.634.005-2.426.016-3.75,1.284-3.758,3.624-.021,5.864-.015,11.729-.011,17.593a3.507,3.507,0,0,0,.955,2.6,3.786,3.786,0,0,0,2.839,1.022c5.755.009,11.509.023,17.263,0,2.426-.012,3.735-1.393,3.735-3.808v-8.538M86.375,194.04v.012h1.1c2.715-.005,5.431.051,8.143-.036a3.13,3.13,0,0,0,3.187-3.354q.024-8.892-.011-17.784c-.012-2.353-1.343-3.606-3.7-3.606-2.327,0-4.654.01-6.981.011-3.448,0-6.9-.011-10.342,0-1.822.006-3.052.766-3.485,2.22a7.357,7.357,0,0,0-.239,1.976c-.03,2.154-.012,4.311-.015,6.466q0,5.044-.009,10.087c0,2.67,1.335,4.013,3.949,4.009q4.2-.007,8.4,0" transform="translate(-28.769 -61.518)" fill="#fff"/>
      <path id="Trazado_700787" data-name="Trazado 700787" d="M100.482,81.65h34.146v.684c0,3.343-.008,6.686,0,10.029a5.963,5.963,0,0,0,2.224,4.815,5.083,5.083,0,0,0,3.233,1.293,24.818,24.818,0,0,0,4.064-.087,5.919,5.919,0,0,0,4.8-5.721c.045-3.429.026-6.859-.012-10.287-.006-.616.158-.757.75-.755,6.425.02,12.849-.008,19.273.034a8.174,8.174,0,0,1,3.025.5,5.2,5.2,0,0,1,3.3,5.222q0,6.956.008,13.912v.932h-1.5q-33.889.006-67.779.011-22.7,0-45.4-.015c-.864,0-.84,0-.838-.828.016-4.335.013-8.67.031-13a12.174,12.174,0,0,1,.128-2.318A5.4,5.4,0,0,1,65.2,81.661c.365-.023.732-.026,1.1-.026H86.1c.013.289.034.537.034.786,0,3.343-.013,6.686.005,10.029a5.848,5.848,0,0,0,3.955,5.713,4.226,4.226,0,0,0,1.38.294,25.78,25.78,0,0,0,4.194-.07,5.828,5.828,0,0,0,4.81-6.013c.023-3.321.006-6.643.006-9.964v-.76" transform="translate(-28.739 -39.24)" fill="#b20d0d"/>
      <path id="Trazado_700788" data-name="Trazado 700788" d="M124.634,71.288c0,3.32.013,6.64-.005,9.959a2.38,2.38,0,0,1-2.745,2.655c-.711-.011-1.423,0-2.133-.037a2.419,2.419,0,0,1-2.486-2.443c-.03-.408-.024-.818-.024-1.228q0-9.119,0-18.237c0-2.726.739-3.47,3.44-3.478.452,0,.906-.009,1.357.011a2.488,2.488,0,0,1,2.573,2.581c.042,2.824.02,5.648.024,8.471q0,.873,0,1.746Z" transform="translate(-56.364 -28.113)" fill="#fff"/>
      <path id="Trazado_700789" data-name="Trazado 700789" d="M210.653,71.38c0-3.3,0-6.594.006-9.891a4.808,4.808,0,0,1,.132-1.215,1.943,1.943,0,0,1,1.616-1.576,19.263,19.263,0,0,1,3.723-.017,2.006,2.006,0,0,1,1.757,1.742,4.748,4.748,0,0,1,.11,1.024q.012,9.729.006,19.458a5.9,5.9,0,0,1-.114,1.154,2.264,2.264,0,0,1-2.069,1.834,24.5,24.5,0,0,1-2.9.016,2.236,2.236,0,0,1-2.275-2.445c-.017-3.362-.005-6.723-.005-10.085h.017" transform="translate(-101.263 -28.172)" fill="#fff"/>
      <path id="Trazado_700790" data-name="Trazado 700790" d="M147.128,160.86q0-4.333,0-8.666a3.35,3.35,0,0,1,3.457-3.74c.471-.038.947-.022,1.421-.022q8.112,0,16.224,0a3.342,3.342,0,0,1,3.666,2.76,4.4,4.4,0,0,1,.067.9q.005,8.7,0,17.4a3.436,3.436,0,0,1-3.71,3.78c-3.081.037-6.162.012-9.243.012-2.693,0-5.387.007-8.08-.008a3.414,3.414,0,0,1-3.469-1.992,4.3,4.3,0,0,1-.321-1.625c-.03-2.932-.015-5.863-.015-8.795m21.216,8.779v-.7c0-5.389,0-10.779.03-16.168,0-.642-.116-.854-.794-.85-5.365.024-10.73.01-16.1.008h-.72v17.706Z" transform="translate(-70.731 -71.358)"/>
      <path id="Trazado_700791" data-name="Trazado 700791" d="M147.131,219.887q0-4.4,0-8.8a3.336,3.336,0,0,1,3.5-3.565q8.953-.029,17.907,0a3.33,3.33,0,0,1,3.431,3.5q.006,8.86,0,17.72a3.263,3.263,0,0,1-3.236,3.531c-.578.047-1.163.029-1.744.029q-8.015.006-16.031.01c-2.494,0-3.825-1.318-3.825-3.826v-8.6m21.214-8.84H150.719v.677c0,1.6.008,3.19.007,4.785q0,5.788-.014,11.575c0,.369-.068.708.531.705,5.537-.025,11.075-.021,16.612-.028.163,0,.325-.026.49-.041Z" transform="translate(-70.734 -99.762)"/>
      <path id="Trazado_700792" data-name="Trazado 700792" d="M231.979,160.883q0,4.43,0,8.861a3.313,3.313,0,0,1-3.294,3.506c-.342.033-.689.026-1.033.026H211.424c-3.044-.018-4.23-1.211-4.229-4.238q.005-8.376,0-16.753c0-2.507,1.291-3.845,3.813-3.853q8.631-.027,17.263,0a3.425,3.425,0,0,1,3.7,3.782c-.008,2.889,0,5.778,0,8.667h.012m-21.273,8.725a2.237,2.237,0,0,0,.262.04q8.5,0,17,.014c.461,0,.52-.193.519-.582q-.022-8.21-.009-16.421c0-.566-.155-.74-.724-.738-5.428.019-10.856.01-16.284.014-.25,0-.5.036-.758.056Z" transform="translate(-99.611 -71.355)"/>
      <path id="Trazado_700793" data-name="Trazado 700793" d="M231.937,219.97c0,2.867-.007,5.734,0,8.6.007,2.331-1.257,3.687-3.581,3.735-1.766.036-3.533-.006-5.3,0q-6.045,0-12.088.019c-2.449.005-3.771-1.289-3.773-3.734q-.007-8.472.007-16.945a4.152,4.152,0,0,1,.847-2.907,3.79,3.79,0,0,1,3.08-1.2q7.208,0,14.416,0c.926,0,1.853-.012,2.78-.011a3.27,3.27,0,0,1,3.629,3.59c.022,2.953.005,5.907.005,8.86h-.022m-3.532,8.807V211.052H210.728a.885.885,0,0,0-.043.165q0,8.571-.007,17.141c0,.386.156.456.506.454q7.985-.03,15.969-.035h1.251" transform="translate(-99.61 -99.767)"/>
      <path id="Trazado_700794" data-name="Trazado 700794" d="M111.938,160.919v8.538c0,2.415-1.309,3.8-3.735,3.808-5.754.028-11.508.014-17.263,0a3.782,3.782,0,0,1-2.839-1.022,3.506,3.506,0,0,1-.955-2.6c0-5.864-.009-11.729.011-17.593.008-2.34,1.332-3.608,3.758-3.623,3.211-.021,6.423-.006,9.634-.006q3.783,0,7.565,0c2.54,0,3.818,1.282,3.82,3.822q0,4.334,0,8.668Zm-3.5-8.925H90.7v17.617h17.732Z" transform="translate(-41.894 -71.356)"/>
      <path id="Trazado_700795" data-name="Trazado 700795" d="M99.5,232.288q-4.2,0-8.4,0c-2.615,0-3.947-1.338-3.949-4.009q0-5.043.009-10.087c0-2.155-.015-4.311.014-6.466a7.357,7.357,0,0,1,.24-1.976c.433-1.454,1.662-2.214,3.484-2.22,3.447-.012,6.9,0,10.342,0,2.327,0,4.654-.01,6.981-.011,2.355,0,3.687,1.252,3.7,3.606q.045,8.892.01,17.784a3.13,3.13,0,0,1-3.187,3.354c-2.711.088-5.428.032-8.142.037H99.5v-.012m8.946-21.237c-.186-.019-.271-.035-.356-.036q-8.467,0-16.934-.015c-.445,0-.534.178-.533.579q.019,8.341.008,16.681c0,.411.1.573.542.571q8.175-.04,16.351-.052c.919,0,.922,0,.922-.891q0-7.63,0-15.259v-1.577" transform="translate(-41.899 -99.767)"/>
      <path id="Trazado_700796" data-name="Trazado 700796" d="M171.714,172.876h-17.58V155.171h.72c5.365,0,10.731.017,16.1-.008.679,0,.8.208.794.851-.034,5.389-.025,10.778-.03,16.168v.7" transform="translate(-74.101 -74.596)" fill="#9cfdff"/>
      <path id="Trazado_700797" data-name="Trazado 700797" d="M171.659,214.32v17.674c-.166.015-.328.041-.49.041-5.538.007-11.075,0-16.613.028-.6,0-.531-.336-.531-.705q.008-5.788.013-11.575c0-1.6,0-3.19-.006-4.785,0-.211,0-.423,0-.677Zm-9.945,9.233c-.389-.343-.711-.656-1.062-.932a1.6,1.6,0,0,0-2.271.06,1.574,1.574,0,0,0-.079,2.27,17.512,17.512,0,0,0,2.014,2,2,2,0,0,0,2.777-.056c1.764-1.676,3.493-3.393,5.164-5.161a1.663,1.663,0,0,0-.748-2.683,1.624,1.624,0,0,0-1.856.536c-1.295,1.294-2.581,2.6-3.939,3.968" transform="translate(-74.048 -103.036)" fill="#ffc403"/>
      <path id="Trazado_700798" data-name="Trazado 700798" d="M213.957,172.848V155.232c.259-.02.508-.056.758-.056,5.428,0,10.856,0,16.284-.014.57,0,.726.172.724.738q-.023,8.21.009,16.421c0,.389-.058.584-.519.582q-8.5-.022-17-.014a2.233,2.233,0,0,1-.262-.04" transform="translate(-102.862 -74.595)" fill="#9cfdff"/>
      <path id="Trazado_700799" data-name="Trazado 700799" d="M231.631,232.047H230.38q-7.985.014-15.969.035c-.35,0-.507-.068-.506-.455q.012-8.57.007-17.141a.856.856,0,0,1,.043-.165h17.677Zm-9.944-8.537c-.417-.378-.722-.683-1.057-.95a1.7,1.7,0,0,0-2.285.082,1.641,1.641,0,0,0-.111,2.281,16.352,16.352,0,0,0,1.373,1.454c1.493,1.441,2.579,1.44,4.052-.007,1.382-1.358,2.75-2.73,4.12-4.1a4.2,4.2,0,0,0,.542-.638,1.677,1.677,0,0,0-.228-2.179,1.621,1.621,0,0,0-2.224-.145,5.726,5.726,0,0,0-.677.6q-1.757,1.8-3.5,3.607" transform="translate(-102.836 -103.037)" fill="#ffc403"/>
      <path id="Trazado_700800" data-name="Trazado 700800" d="M111.735,172.918H94V155.3h17.732Zm-10-8.339c-.491-.45-.776-.743-1.093-1a1.592,1.592,0,0,0-2.27.051,1.576,1.576,0,0,0-.091,2.266,18.138,18.138,0,0,0,2.019,1.99,1.931,1.931,0,0,0,2.706-.058q2.6-2.474,5.094-5.05a1.563,1.563,0,0,0-.012-2.4,1.647,1.647,0,0,0-2.425.046c-1.209,1.167-2.383,2.369-3.561,3.568a3.317,3.317,0,0,0-.367.586" transform="translate(-45.193 -74.662)" fill="#ffc403"/>
      <path id="Trazado_700801" data-name="Trazado 700801" d="M111.671,214.273v1.577q0,7.63,0,15.26c0,.9,0,.889-.923.891q-8.175.019-16.35.052c-.439,0-.543-.16-.542-.571q.012-8.34-.008-16.681c0-.4.088-.58.532-.579q8.467.02,16.934.016c.085,0,.17.016.356.035m-10.185,13.262a5.6,5.6,0,0,0,1.475-.717c1.745-1.663,3.443-3.377,5.131-5.1a1.462,1.462,0,0,0,.429-1.48,1.678,1.678,0,0,0-2.837-.828c-1.088,1.011-2.119,2.083-3.172,3.132-.906.9-.9.9-1.881.1A1.674,1.674,0,0,0,98.257,225a15.931,15.931,0,0,0,1.792,1.765,8.091,8.091,0,0,0,1.437.766" transform="translate(-45.119 -102.989)" fill="#ffc403"/>
      <path id="Trazado_700802" data-name="Trazado 700802" d="M165.265,227.826c1.358-1.369,2.645-2.673,3.94-3.968a1.624,1.624,0,0,1,1.856-.536,1.663,1.663,0,0,1,.748,2.683c-1.671,1.768-3.4,3.485-5.164,5.161a2,2,0,0,1-2.777.056,17.51,17.51,0,0,1-2.014-2,1.574,1.574,0,0,1,.079-2.27,1.6,1.6,0,0,1,2.271-.06c.35.276.673.589,1.062.932" transform="translate(-77.598 -107.309)"/>
      <path id="Trazado_700803" data-name="Trazado 700803" d="M225.317,227.779q1.752-1.806,3.5-3.607a5.726,5.726,0,0,1,.677-.6,1.621,1.621,0,0,1,2.224.145,1.677,1.677,0,0,1,.228,2.179,4.2,4.2,0,0,1-.542.638c-1.369,1.371-2.737,2.744-4.12,4.1-1.473,1.448-2.558,1.449-4.052.007a16.351,16.351,0,0,1-1.373-1.454,1.641,1.641,0,0,1,.111-2.281,1.7,1.7,0,0,1,2.285-.082c.335.266.64.572,1.057.95" transform="translate(-106.467 -107.306)"/>
      <path id="Trazado_700804" data-name="Trazado 700804" d="M105.3,168.809a3.318,3.318,0,0,1,.367-.586c1.178-1.2,2.353-2.4,3.561-3.568a1.647,1.647,0,0,1,2.425-.046,1.563,1.563,0,0,1,.012,2.4q-2.5,2.572-5.094,5.05a1.931,1.931,0,0,1-2.706.058,18.136,18.136,0,0,1-2.019-1.99,1.576,1.576,0,0,1,.091-2.266,1.592,1.592,0,0,1,2.27-.051c.317.252.6.545,1.093,1" transform="translate(-48.752 -78.892)"/>
      <path id="Trazado_700805" data-name="Trazado 700805" d="M105.116,231.877a8.092,8.092,0,0,1-1.437-.766,15.932,15.932,0,0,1-1.792-1.765,1.674,1.674,0,0,1,2.373-2.36c.977.8.975.8,1.881-.1,1.053-1.049,2.084-2.121,3.172-3.132a1.678,1.678,0,0,1,2.837.828,1.461,1.461,0,0,1-.429,1.48c-1.688,1.721-3.386,3.435-5.131,5.1a5.6,5.6,0,0,1-1.475.717" transform="translate(-48.749 -107.331)"/>
    </g>
  </g>
</svg>
