<svg id="Grupo_974028" data-name="Grupo 974028" xmlns="http://www.w3.org/2000/svg" xmlns:xlink="http://www.w3.org/1999/xlink" width="129" height="125.878" viewBox="0 0 129 125.878">
  <defs>
    <clipPath id="clip-path">
      <rect id="Rectángulo_340083" data-name="Rectángulo 340083" width="129" height="125.878" fill="none"/>
    </clipPath>
  </defs>
  <g id="Grupo_974027" data-name="Grupo 974027" clip-path="url(#clip-path)">
    <path id="Trazado_699745" data-name="Trazado 699745" d="M44.963,11.118c.2.251.463.1.7.117a9.034,9.034,0,0,1,1.546.109,1.713,1.713,0,0,1,1.446,1.691c.036,1.356.065,1.434,1.364.946A38.638,38.638,0,0,1,56.194,12.4a39.235,39.235,0,0,1,5.787-.819c2-.092,4-.281,5.995-.189,2.083.1,4.16.27,6.233.566A66.291,66.291,0,0,1,84.2,14.3c1.158.354,2.281.856,3.419,1.288,1.055.4,2.01.973,3.021,1.447.266.125.362.063.361-.23q-.011-3.74-.012-7.479c0-1.132.056-2.268-.021-3.394a13.432,13.432,0,0,1,.094-2.262,3.123,3.123,0,0,1,2.522-2.613A6.733,6.733,0,0,1,94.771.943C104.9.937,115.033.953,125.165.92a3.528,3.528,0,0,1,3,1.26,4.021,4.021,0,0,1,.809,2.527c.034,3.458.024,6.917.009,10.375a2.1,2.1,0,0,1-1.964,2.348,2.181,2.181,0,0,1-.424-.087,2.094,2.094,0,0,1-1.371-2.111c0-3.313-.014-6.625-.011-9.938,0-.394-.056-.606-.539-.6-2.476.024-4.951.02-7.427.008-.439,0-.562.136-.559.586q.033,4.937.008,9.875a3.213,3.213,0,0,1-3.412,3.453q-3.272.053-6.546.007a3.223,3.223,0,0,1-3.48-3.139l.017-.037-.024-.033c0-.44.009-.88.008-1.32q-.013-4.337-.028-8.675l.025-.036-.027-.034.024-.3c.035-.079.067-.158-.054-.194a2.193,2.193,0,0,0-.91-.149c-2.287.011-4.574.025-6.86,0-.529-.006-.707.088-.706.676q.033,14.371.017,28.742a2.535,2.535,0,0,0,.026.562c.089.386.245.672.752.6a13.39,13.39,0,0,1,1.737-.128c1.07-.019,2.14-.006,3.21-.005l23.854.012c.9,0,.9,0,.9-.879,0-3.019,0-6.038,0-9.057,0-1.446.406-1.959,1.784-2.311,1.669.333,1.938,1.049,1.961,2.585.049,3.186.027,6.373.01,9.559-.009,1.757-.616,3.147-2.433,3.76a1.6,1.6,0,0,1-.532.091q-4.5-.007-9-.021c-.881,0-1.762.009-2.642-.014-.447-.011-.376.136-.213.432a53.713,53.713,0,0,1,3.209,6.754q1.035,2.712,1.809,5.517c.547,1.98.98,3.986,1.333,6,.226,1.292.331,2.617.448,3.933a53.462,53.462,0,0,1,.184,5.942,49.236,49.236,0,0,1-.566,6.173,37.708,37.708,0,0,1-.777,4.169.5.5,0,0,0,.112.463,17.376,17.376,0,0,1,2.826,4.994,12.263,12.263,0,0,1,.561,2.442,28.484,28.484,0,0,1,.386,4.4,18.009,18.009,0,0,1-.751,4.863A13.079,13.079,0,0,1,119.6,100.8c-.145.144-.32.235.059.409a14.251,14.251,0,0,1,3.638,2.512,13.167,13.167,0,0,1,3.2,4.411,16.461,16.461,0,0,1,1.374,5.054c.309,3.051.106,6.1.159,9.152a3.207,3.207,0,0,1-3.525,3.483q-15.8.073-31.595.015a3.083,3.083,0,0,1-3.363-2.991c-.2-1.981-.031-3.98-.077-5.97,0-.216.108-.465-.114-.646.084.051.142.031.139-.07s-.06-.119-.142-.064c.139-.09.125-.223.1-.358.175-.114.038-.22-.039-.26-.123-.064-.186.008-.144.147a15.344,15.344,0,0,0-2.687,1.033c-1.911.7-3.845,1.327-5.8,1.887-1.817.52-3.676.857-5.525,1.232-1.121.228-2.283.248-3.418.412a40.98,40.98,0,0,1-7.928.2,15.82,15.82,0,0,1-3.881-.383,12.266,12.266,0,0,0-1.961-.192,33.427,33.427,0,0,1-3.446-.675c-1.052-.236-2.081-.569-3.126-.837-1.633-.419-3.205-1.023-4.8-1.549-.13-.043-.332-.075-.359-.295-.036-.285-.153-.264-.423-.192-.457.122-.786-.3-1.184-.457-.625-.243-.648-.242-.643.448.014,2.075.069,4.151.02,6.225a3.338,3.338,0,0,1-4.015,3.317,6.635,6.635,0,0,0-.82.046q-16.11,0-32.22,0c-1.131,0-2.268.067-3.393-.021a3.254,3.254,0,0,1-2.53-1.109,2.983,2.983,0,0,1-.7-1.841c.008-2.662.034-5.324.009-7.985-.013-1.391.37-2.175,1.88-2.509,1.587.554,1.883.979,1.883,2.71,0,2.118.008,4.236-.018,6.354-.005.4.158.69.473.763.149.034.419-.172.675-.171,1.931.007,3.862-.021,5.792.019.551.012.655-.156.653-.666-.019-4.781-.013-9.562-.009-14.342a5.475,5.475,0,0,1,.06-1,3.447,3.447,0,0,1,3.695-2.825c3.462-.01,6.925,0,10.387,0,1.07,0,2.14.016,3.21.006a3.606,3.606,0,0,1,3.694,3.833c-.07,4.759-.012,9.52-.035,14.279,0,.6.18.736.753.726,2.055-.037,4.112-.044,6.167,0,.55.011.655-.142.653-.652-.018-4.718-.011-9.436-.011-14.154q0-5.348,0-10.694a.878.878,0,0,0-.363-.868q-5.5-3.536-10.99-7.087c-2.087-1.353-4.223-2.633-6.245-4.084a.856.856,0,0,0-1.091.033c-.921.59-1.847,1.171-2.765,1.767q-7.117,4.622-14.236,9.242a.969.969,0,0,0-.461.943q.014,3.994,0,7.989a2.023,2.023,0,0,1-2.089,2.358,1.82,1.82,0,0,1-1.665-1.887c-.007-3.248.032-6.5-.006-9.744A2.375,2.375,0,0,1,1.6,93.06c3.182-2.094,6.345-4.218,9.562-6.258,1.185-.752,2.4-1.471,3.613-2.182a.6.6,0,0,0,.316-.865A47.107,47.107,0,0,1,13.2,77.26c-.283-1.4-.437-2.826-.682-4.235a40.785,40.785,0,0,1-.477-4.359c-.1-1.562.027-3.137.01-4.707a38.409,38.409,0,0,1,.24-4.058c.147-1.543.447-3.076.746-4.6a51.259,51.259,0,0,1,1.887-7.036,52.789,52.789,0,0,1,3.8-8.367c.051-.091.117-.174.163-.268.313-.638.267-.728-.443-.728q-7.93,0-15.86.009c-1.817,0-2.528-.7-2.528-2.506C.05,29.046.12,21.687,0,14.33a3.678,3.678,0,0,1,2.173-3.6C5.165,8.993,8.12,7.187,11.1,5.421A8.225,8.225,0,0,1,13.593,4.1c1.456-.266,2.455.279,2.56,2.062.067,1.149.013,2.305.013,3.568.592-.348,1.138-.667,1.68-.991,2.524-1.505,5.035-3.033,7.576-4.51A1.988,1.988,0,0,1,28.389,6.09c.026,1.551.009,3.1-.022,4.654-.008.406.085.542.512.528q1.7-.058,3.4-.026c.4.007.525-.086.521-.508-.021-2.515,0-5.031-.012-7.547A3.132,3.132,0,0,1,35.091.2a6.764,6.764,0,0,1,1.47-.167c1.3,0,2.611-.094,3.9.031.987.1,2.038-.1,2.963.472A3.284,3.284,0,0,1,44.939,3.6c0,2.452.011,4.9.018,7.356a.089.089,0,0,0,.007.157m67.782,3.71c.085.055.107.016.1-.067q.012-4.841.029-9.682c0-.288-.054-.384-.38-.38-1.657.017-3.315.006-4.972-.015-.388-.005-.542.068-.54.52.018,3.017.118,6.035-.037,9.051-.023.44.065.635.578.622,1.74-.045,3.481-.036,5.222-.048M15.615,107.065l-.011,0c-.179,1.539-.056,3.085-.094,4.627-.009.351.283.3.506.3,4.148-.019,8.3-.048,12.445-.048.447,0,.573-.109.563-.547-.024-1.235-.031-2.471.007-3.705.016-.521-.134-.669-.66-.666-3.583.022-7.166.006-10.75.012a12.154,12.154,0,0,0-2.006.035m99.779-14.815c-.074-.145-.213-.107-.331-.111a16.5,16.5,0,0,1-2.428-.368c-1.785-.341-3.537-.827-5.3-1.246A48.636,48.636,0,0,0,101.54,89.4a5.556,5.556,0,0,0-3.36.4.908.908,0,0,0-.549.883,10.83,10.83,0,0,0,.48,3.11,11.006,11.006,0,0,0,11.22,7.871,5.3,5.3,0,0,0,2.264-.3,11.022,11.022,0,0,0,8.176-8.775c.1-.422-.036-.525-.424-.474a28.708,28.708,0,0,1-3.953.128M35.439,38.931v-.007c-3.756,0-7.512.007-11.268-.01a.95.95,0,0,0-.944.54,71.881,71.881,0,0,0-3.689,7.284,47.44,47.44,0,0,0-3.107,10.52,41.934,41.934,0,0,0-.506,4.168q-.205,2.526-.174,5.067c.025,1.827.187,3.639.379,5.457.158,1.495.418,2.966.678,4.439.159.9.459,1.774.666,2.667a19.152,19.152,0,0,1,.722,2.621c.017.193.137.585.471.33.706-.538,1.538-.863,2.236-1.425a1.777,1.777,0,0,1,1.611-.452c1.276.3,2.2,1.211,3.292,1.807,1.128.617,2.181,1.433,3.274,2.15,1.9,1.249,3.829,2.468,5.731,3.721,1.718,1.132,3.463,2.219,5.123,3.446A25.636,25.636,0,0,0,42.5,92.791a3.053,3.053,0,0,1,1.622,3c-.054,5.031,0,10.064-.01,15.1a.768.768,0,0,0,.519.814c.771.338,1.521.729,2.294,1.061a42.754,42.754,0,0,0,6.157,2.162c2.022.524,4.06.938,6.124,1.278a40.538,40.538,0,0,0,5.036.438,47.826,47.826,0,0,0,9.987-.558c1.677-.288,3.368-.513,5.013-.942a37.391,37.391,0,0,0,7.864-2.811,8.8,8.8,0,0,1,1.584-.71c.631-.184,1.328-.426,1.486-1.305a10.141,10.141,0,0,1,.912-2.431,13.381,13.381,0,0,1,3.416-4.469,12.256,12.256,0,0,1,3.179-2.09c.313-.134.456-.282.124-.605a7.862,7.862,0,0,1-.881-1.108,15.322,15.322,0,0,1-2.208-4.1,13.011,13.011,0,0,1-.869-4.3A33.243,33.243,0,0,1,94,86.288a21.005,21.005,0,0,1,1.171-4.166,15.839,15.839,0,0,1,5.41-6.663,10.287,10.287,0,0,1,4.185-1.882,16.9,16.9,0,0,1,3.306-.571,17.593,17.593,0,0,1,2.372.116,13.929,13.929,0,0,1,5.465,1.742c.489.286.672.187.735-.39.117-1.056.3-2.1.4-3.164.146-1.519.309-3.037.346-4.562a59.143,59.143,0,0,0-.5-8.113,23.958,23.958,0,0,0-.575-3.268c-.346-1.349-.652-2.7-1.129-4.019-.446-1.234-.811-2.5-1.28-3.733a66.288,66.288,0,0,0-3.848-8.1,1.057,1.057,0,0,0-1.09-.616c-4.93.015-9.861.006-14.791,0a2.392,2.392,0,0,1-1.172-.257,3.654,3.654,0,0,1-2.05-3.381c0-.8.026-1.592.026-2.388,0-3.606-.017-7.213.012-10.819a1.021,1.021,0,0,0-.681-1.1,62.229,62.229,0,0,0-9.184-3.7c-1.153-.326-2.3-.644-3.48-.866-1.959-.369-3.928-.662-5.907-.914-1.439-.183-2.881-.2-4.32-.321a25.806,25.806,0,0,0-4.374.105,8.445,8.445,0,0,0-1.538.071c-1.235.356-2.52.242-3.771.516-1.158.253-2.351.436-3.491.736A47.877,47.877,0,0,0,49.2,18.139c-.369.142-.568.279-.565.738.034,5.43.041,10.861.055,16.291,0,.629.024,1.259-.011,1.886A1.839,1.839,0,0,1,47.2,38.876a4.721,4.721,0,0,1-1.064.054q-5.351.005-10.7,0M3.816,24.64h.011c0,3.292.014,6.584-.015,9.876,0,.5.1.649.611.639,1.489-.028,2.983-.066,4.467.032.7.046.747-.172.741-.746q-.037-3.616.005-7.234A3.258,3.258,0,0,1,12.9,23.85q5.035-.076,10.072.005a3.118,3.118,0,0,1,3.209,2.638,7.991,7.991,0,0,1,.055,1.453c.005,2.2.011,4.4,0,6.6,0,.431.061.618.576.614,3.651-.029,7.3-.022,10.953-.021,2.182,0,4.365-.018,6.546.037.493.012.575-.075.574-.537q-.023-9.436,0-18.871c0-.6-.14-.775-.755-.773-5.707.021-11.415.012-17.122,0-1.677,0-2.359-.695-2.37-2.378-.007-1.006-.013-2.013-.008-3.019,0-.364-.091-.462-.436-.254Q21.1,11.217,18,13.063c-.917.547-1.82,1.122-2.761,1.624a1.839,1.839,0,0,1-2.846-1.68c-.015-1.111-.016-2.223-.021-3.334,0-.276.015-.558-.4-.313q-3.889,2.308-7.78,4.614a.746.746,0,0,0-.379.727c.013,3.313.008,6.626.008,9.939m105.008,97.414v-.025q7.455,0,14.911.005c.4,0,.6-.06.591-.549-.034-1.991-.028-3.982-.017-5.973a13.346,13.346,0,0,0-.588-4.147,11.169,11.169,0,0,0-7.357-7.417,1.339,1.339,0,0,0-1.086.057,14.679,14.679,0,0,1-13.078-.023,1.349,1.349,0,0,0-.974-.09,11.216,11.216,0,0,0-7.889,9.611c-.178,2.618-.021,5.238-.1,7.855-.018.579.22.706.739.7q7.424-.018,14.849-.007m-86.611.012v-.037c2.1,0,4.195-.015,6.292.012.44.006.522-.139.519-.535q-.019-2.641.016-5.282c0-.37-.068-.5-.48-.5-3.985.022-7.971.016-11.956.025-.372,0-.806-.141-1.1.1s.079.616.023.938a1.115,1.115,0,0,0-.006.188c-.006,1.509.011,3.019-.028,4.527-.014.506.177.573.618.569,2.035-.023,4.069-.01,6.1-.01" transform="translate(0 0)"/>
    <path id="Trazado_699746" data-name="Trazado 699746" d="M4.171,189.581a2.023,2.023,0,0,0,2.089-2.358q.012-3.995,0-7.989a.969.969,0,0,1,.461-.944q7.127-4.606,14.236-9.241c.917-.6,1.843-1.177,2.765-1.767a.855.855,0,0,1,1.09-.033c2.022,1.452,4.158,2.731,6.245,4.084q5.487,3.556,10.99,7.088a.879.879,0,0,1,.363.867q-.011,5.348,0,10.694c0,4.718-.007,9.436.011,14.154,0,.51-.1.663-.653.652-2.055-.041-4.112-.034-6.168,0-.574.011-.756-.129-.753-.726.024-4.76-.035-9.521.035-14.279a3.606,3.606,0,0,0-3.694-3.833c-1.07.01-2.14-.006-3.211-.006-3.463,0-6.925-.013-10.387,0a3.446,3.446,0,0,0-3.694,2.825,5.467,5.467,0,0,0-.061,1c0,4.781-.01,9.562.01,14.342,0,.511-.1.679-.654.667-1.93-.04-3.861-.013-5.791-.02-.256,0-.526.205-.675.171-.314-.073-.478-.364-.473-.763.026-2.118.017-4.236.018-6.353,0-1.731-.3-2.155-1.882-2.71-.109-.951.088-1.9-.076-2.864A9.051,9.051,0,0,1,4.4,190.18a.6.6,0,0,0-.227-.6" transform="translate(-2.065 -82.716)" fill="#b20d0d"/>
    <path id="Trazado_699747" data-name="Trazado 699747" d="M196.114,10.019q.014,4.337.028,8.675c0,.44,0,.88-.007,1.32l-.038.038.045.033a3.223,3.223,0,0,0,3.48,3.138q3.272.046,6.546-.007a3.212,3.212,0,0,0,3.412-3.452q.03-4.938-.008-9.875c0-.45.121-.588.559-.586,2.475.012,4.951.016,7.427-.009.483,0,.539.207.539.6,0,3.313.015,6.625.011,9.938a2.092,2.092,0,0,0,1.37,2.111,2.15,2.15,0,0,0,.424.087,32.626,32.626,0,0,1-.008,5.477c-1.377.351-1.781.865-1.784,2.311-.006,3.019,0,6.038,0,9.057,0,.883-.006.879-.9.879l-23.854-.012c-1.07,0-2.14-.014-3.21.005a13.405,13.405,0,0,0-1.737.128c-.507.076-.663-.21-.752-.6a2.535,2.535,0,0,1-.026-.562q0-14.371-.017-28.742c0-.587.177-.682.706-.676,2.286.026,4.573.011,6.86,0a2.191,2.191,0,0,1,.91.149l.054.194-.024.3-.032.037Z" transform="translate(-92.886 -4.602)" fill="#b20d0d"/>
    <path id="Trazado_699748" data-name="Trazado 699748" d="M176.8,228.85c-.042-.139.021-.211.144-.147.077.04.214.147.039.261-.116.049-.141-.046-.183-.113" transform="translate(-87.53 -113.221)" fill="#eb5368"/>
    <path id="Trazado_699749" data-name="Trazado 699749" d="M176.952,229.92c.082-.055.139-.037.142.064s-.055.121-.139.07a.56.56,0,0,1-.033-.1c0-.01.02-.025.031-.038" transform="translate(-87.595 -113.82)" fill="#eb5368"/>
    <path id="Trazado_699750" data-name="Trazado 699750" d="M89.007,21.867A.089.089,0,0,1,89,21.71c0,.053,0,.1.007.157" transform="translate(-44.043 -10.749)" fill="#a6e8a5"/>
    <path id="Trazado_699751" data-name="Trazado 699751" d="M50.883,53.74q5.351,0,10.7,0a4.751,4.751,0,0,0,1.064-.054,1.84,1.84,0,0,0,1.471-1.822c.035-.627.012-1.257.011-1.886-.013-5.43-.021-10.861-.055-16.291,0-.459.2-.6.564-.738A47.925,47.925,0,0,1,69.7,31.393c1.14-.3,2.333-.482,3.49-.736,1.251-.274,2.536-.16,3.772-.516A8.443,8.443,0,0,1,78.5,30.07a25.8,25.8,0,0,1,4.374-.1c1.438.118,2.88.137,4.32.32,1.98.252,3.948.545,5.907.914,1.176.222,2.327.54,3.48.866a62.22,62.22,0,0,1,9.184,3.7,1.02,1.02,0,0,1,.681,1.1c-.029,3.606-.011,7.213-.012,10.819,0,.8-.025,1.592-.027,2.388a3.655,3.655,0,0,0,2.051,3.381,2.392,2.392,0,0,0,1.172.257c4.93,0,9.862.012,14.792,0a1.057,1.057,0,0,1,1.089.616,66.247,66.247,0,0,1,3.848,8.1c.469,1.236.835,2.5,1.28,3.733.477,1.321.783,2.67,1.129,4.019a23.88,23.88,0,0,1,.575,3.268,59.069,59.069,0,0,1,.5,8.113c-.037,1.525-.2,3.042-.346,4.562-.1,1.061-.282,2.108-.4,3.164-.064.578-.246.676-.735.39a13.929,13.929,0,0,0-5.465-1.742,17.593,17.593,0,0,0-2.372-.116,16.983,16.983,0,0,0-3.306.571,10.287,10.287,0,0,0-4.185,1.882,15.85,15.85,0,0,0-5.411,6.663,21,21,0,0,0-1.171,4.166,33.179,33.179,0,0,0-.152,4.921,13,13,0,0,0,.869,4.3,15.334,15.334,0,0,0,2.207,4.1,7.9,7.9,0,0,0,.881,1.108c.332.324.189.472-.124.605a12.266,12.266,0,0,0-3.178,2.09,13.381,13.381,0,0,0-3.416,4.469,10.139,10.139,0,0,0-.912,2.432c-.158.879-.855,1.121-1.486,1.3a8.78,8.78,0,0,0-1.584.71,37.363,37.363,0,0,1-7.864,2.811c-1.645.429-3.336.654-5.013.942a47.829,47.829,0,0,1-9.987.558,40.539,40.539,0,0,1-5.036-.438c-2.064-.34-4.1-.753-6.124-1.278a42.756,42.756,0,0,1-6.157-2.162c-.774-.333-1.523-.723-2.294-1.061a.768.768,0,0,1-.519-.814c.007-5.032-.044-10.065.01-15.1a3.053,3.053,0,0,0-1.622-3,25.727,25.727,0,0,1-2.568-1.535c-1.66-1.227-3.405-2.314-5.123-3.446-1.9-1.253-3.826-2.472-5.731-3.721-1.093-.717-2.145-1.533-3.273-2.15-1.092-.6-2.017-1.5-3.293-1.807a1.777,1.777,0,0,0-1.611.452c-.7.561-1.53.887-2.236,1.425-.335.254-.454-.137-.472-.33a19.08,19.08,0,0,0-.722-2.621c-.208-.893-.508-1.767-.666-2.666-.26-1.473-.52-2.945-.678-4.439-.192-1.818-.354-3.631-.379-5.457q-.034-2.538.174-5.067c.114-1.394.254-2.793.506-4.167a47.383,47.383,0,0,1,3.107-10.521,71.882,71.882,0,0,1,3.689-7.284.949.949,0,0,1,.943-.54c3.756.017,7.512.01,11.268.01Zm30.1-.46A27.517,27.517,0,0,0,54.77,84.237c1.362,12.054,12.817,25.094,29.3,23.826a27.382,27.382,0,0,0,25.085-31.19C107.486,64.266,96.812,53.352,80.986,53.28" transform="translate(-15.443 -14.809)" fill="#d4fffd"/>
    <path id="Trazado_699752" data-name="Trazado 699752" d="M7.552,33.706c0-3.313.005-6.626-.008-9.938a.748.748,0,0,1,.379-.728q3.891-2.306,7.781-4.614c.414-.245.4.037.4.313.006,1.111.007,2.223.022,3.334a1.839,1.839,0,0,0,2.846,1.68c.942-.5,1.844-1.077,2.761-1.624q3.1-1.851,6.2-3.71c.345-.208.438-.109.436.254,0,1.006,0,2.013.008,3.019.012,1.683.693,2.376,2.37,2.378,5.707.008,11.415.017,17.122,0,.614,0,.757.177.755.773q-.033,9.435,0,18.871c0,.462-.081.549-.574.537-2.181-.055-4.364-.036-6.546-.037-3.651,0-7.3-.008-10.953.021-.515,0-.58-.183-.577-.614.016-2.2.009-4.4,0-6.6a8.037,8.037,0,0,0-.054-1.453,3.119,3.119,0,0,0-3.209-2.638q-5.036-.076-10.072-.005a3.258,3.258,0,0,0-3.267,3.358q-.038,3.617-.005,7.234c.006.574-.044.792-.741.746-1.484-.1-2.978-.06-4.467-.032-.508.01-.615-.137-.611-.639.028-3.291.015-6.584.015-9.876h-.01" transform="translate(-3.735 -9.066)" fill="#b20d0d"/>
    <path id="Trazado_699753" data-name="Trazado 699753" d="M200.252,223.882q-7.424,0-14.849.008c-.52,0-.757-.125-.739-.7.081-2.617-.076-5.237.1-7.855a11.215,11.215,0,0,1,7.889-9.611,1.345,1.345,0,0,1,.974.09,14.676,14.676,0,0,0,13.078.023,1.339,1.339,0,0,1,1.086-.057,11.168,11.168,0,0,1,7.357,7.417,13.35,13.35,0,0,1,.589,4.147c-.012,1.991-.017,3.983.017,5.973.008.489-.192.55-.591.549q-7.456-.011-14.911-.005Z" transform="translate(-91.428 -101.828)" fill="#b20d0d"/>
    <path id="Trazado_699754" data-name="Trazado 699754" d="M205.069,189.26a11.005,11.005,0,0,1-11.22-7.871,10.843,10.843,0,0,1-.479-3.11.906.906,0,0,1,.549-.883,5.556,5.556,0,0,1,3.36-.4,48.665,48.665,0,0,1,5.791,1.122c1.767.42,3.518.905,5.3,1.247a16.479,16.479,0,0,0,2.428.368c.118,0,.257-.034.331.111a10.963,10.963,0,0,1-.889,2.851,11.764,11.764,0,0,1-4.453,5.508c-.363.23-.807.485-.723,1.058" transform="translate(-95.739 -87.592)" fill="#f8f9fb"/>
    <path id="Trazado_699755" data-name="Trazado 699755" d="M37.3,235.536c-2.035,0-4.069-.013-6.1.01-.441,0-.632-.063-.618-.568.039-1.508.023-3.018.028-4.527a1.116,1.116,0,0,1,.006-.188c.057-.321-.325-.688-.023-.938s.729-.1,1.1-.1c3.985-.009,7.971,0,11.956-.025.412,0,.485.126.48.5q-.033,2.641-.016,5.282c0,.4-.079.541-.519.535-2.1-.027-4.195-.012-6.292-.012v.037" transform="translate(-15.086 -113.47)" fill="#06d1d1"/>
    <path id="Trazado_699756" data-name="Trazado 699756" d="M30.818,212a12.159,12.159,0,0,1,2.006-.035c3.583-.006,7.166.01,10.749-.012.527,0,.677.145.66.666-.038,1.234-.031,2.47-.006,3.705.009.438-.117.547-.564.547-4.148,0-8.3.029-12.445.048-.223,0-.514.055-.506-.3.039-1.542-.085-3.088.093-4.627l.012,0" transform="translate(-15.203 -104.931)" fill="#06d1d1"/>
    <path id="Trazado_699757" data-name="Trazado 699757" d="M217.616,19.421c-1.741.012-3.482,0-5.222.048-.512.014-.6-.181-.578-.622.155-3.016.055-6.034.037-9.051,0-.452.152-.525.54-.52,1.657.021,3.315.032,4.972.015.326,0,.381.092.38.38q-.023,4.841-.029,9.682l-.1.067" transform="translate(-104.87 -4.593)" fill="#f8f9fb"/>
    <path id="Trazado_699758" data-name="Trazado 699758" d="M216.532,191.994c-.085-.573.359-.828.723-1.058a11.764,11.764,0,0,0,4.453-5.508,10.96,10.96,0,0,0,.889-2.851,28.635,28.635,0,0,0,3.954-.128c.388-.051.519.052.423.474A11.019,11.019,0,0,1,218.8,191.7a5.294,5.294,0,0,1-2.264.3" transform="translate(-107.201 -90.326)" fill="#fdc064"/>
    <path id="Trazado_699759" data-name="Trazado 699759" d="M204.448,9.795c-.018-.065-.036-.129-.054-.194.121.036.089.115.054.194" transform="translate(-101.197 -4.754)" fill="#eb5368"/>
    <path id="Trazado_699760" data-name="Trazado 699760" d="M204.423,10.659l-.034-.034.032-.037.027.035Z" transform="translate(-101.194 -5.242)" fill="#eb5368"/>
    <path id="Trazado_699761" data-name="Trazado 699761" d="M204.468,30.6l-.045-.032.038-.039.024.034Z" transform="translate(-101.211 -15.113)" fill="#eb5368"/>
    <path id="Trazado_699762" data-name="Trazado 699762" d="M223.306,29.3l.1-.067c.007.083-.015.122-.1.067" transform="translate(-110.56 -14.474)" fill="#a6e8a5"/>
    <path id="Trazado_699763" data-name="Trazado 699763" d="M30.916,212.053l-.012,0,.012,0" transform="translate(-15.301 -104.987)" fill="#eb5368"/>
    <path id="Trazado_699764" data-name="Trazado 699764" d="M103.9,76.2c15.826.072,26.5,10.986,28.172,23.593a27.381,27.381,0,0,1-25.085,31.19c-16.486,1.268-27.941-11.772-29.3-23.826A27.516,27.516,0,0,1,103.9,76.2m24.674,28.822a1.378,1.378,0,0,0,.038-.783,3.261,3.261,0,0,0-.01-1.092.236.236,0,0,0-.026-.29,22.623,22.623,0,0,0-2.363-9.641,23.369,23.369,0,0,0-17.191-12.863,22.94,22.94,0,0,0-9.431.22,23.667,23.667,0,0,0-18.277,21.763,22.517,22.517,0,0,0,1.18,8.88A23.536,23.536,0,0,0,96.33,125.7a22.134,22.134,0,0,0,7.368,1.558,24.065,24.065,0,0,0,16.587-5.543,24.026,24.026,0,0,0,6.246-8.406,23.376,23.376,0,0,0,2.046-8.285" transform="translate(-38.36 -37.726)"/>
    <path id="Trazado_699765" data-name="Trazado 699765" d="M132.331,106.839a3.258,3.258,0,0,1,.01,1.091,1.677,1.677,0,0,0-.038.783A23.387,23.387,0,0,1,130.258,117a24.026,24.026,0,0,1-6.246,8.406,24.065,24.065,0,0,1-16.587,5.543,22.134,22.134,0,0,1-7.368-1.558,23.535,23.535,0,0,1-13.833-14.482,22.514,22.514,0,0,1-1.18-8.88,23.668,23.668,0,0,1,18.277-21.763,22.94,22.94,0,0,1,9.431-.22,23.369,23.369,0,0,1,17.191,12.863,22.623,22.623,0,0,1,2.363,9.641l.026.29M110.41,123.358c.013-.011.039-.026.037-.033a.445.445,0,0,0-.036-.083c.012-.085.023-.17.035-.255a.181.181,0,0,0,.184-.129c.453-.154.908-.3,1.358-.463a9.8,9.8,0,0,0,6.1-8.814,8.232,8.232,0,0,0-2.94-6.507,11.3,11.3,0,0,0-4.186-2.087c-.378-.114-.6-.264-.592-.729.024-2.83.022-5.661.009-8.491,0-.434.141-.5.522-.391a8.2,8.2,0,0,1,2.325,1.219,1.651,1.651,0,0,0,1.892.1,1.828,1.828,0,0,0,.959-1.779,2.251,2.251,0,0,0-1.173-1.692,9.594,9.594,0,0,0-3.962-1.666c-.455-.078-.6-.266-.564-.705a11.931,11.931,0,0,0,0-1.508,1.85,1.85,0,0,0-3.546-.641,5.06,5.06,0,0,0-.214,2.341c0,.427-.119.639-.54.721-3.857.755-6.589,5.145-5.875,9.026a6.7,6.7,0,0,0,3.124,4.716,18.943,18.943,0,0,0,2.706,1.458.807.807,0,0,1,.581.882c-.021,3.585-.012,7.17-.012,10.756a1.385,1.385,0,0,0,0,.189c.049.361-.092.5-.456.417-.257-.061-.518-.031-.788-.1a11.061,11.061,0,0,1-3.01-1.387,2.293,2.293,0,0,0-1.044-.4,1.877,1.877,0,0,0-1.06,3.5,11.54,11.54,0,0,0,5.871,2.15c.444.02.509.177.492.549-.024.544-.023,1.091,0,1.635a1.956,1.956,0,0,0,1.462,1.9,1.789,1.789,0,0,0,1.848-.608,1.963,1.963,0,0,0,.484-1.072c.014-.011.041-.025.039-.033a.468.468,0,0,0-.034-.085q0-.948,0-1.9" transform="translate(-42.087 -41.42)" fill="#ffc403"/>
    <path id="Trazado_699766" data-name="Trazado 699766" d="M178.658,132.514a1.678,1.678,0,0,1,.038-.783,1.379,1.379,0,0,1-.038.783" transform="translate(-88.441 -65.221)" fill="#eb5368"/>
    <path id="Trazado_699767" data-name="Trazado 699767" d="M178.714,129.284c-.009-.1-.018-.194-.026-.29a.237.237,0,0,1,.026.29" transform="translate(-88.47 -63.866)" fill="#eb5368"/>
    <path id="Trazado_699768" data-name="Trazado 699768" d="M124.468,126.843c-.012.085-.024.17-.035.255a.1.1,0,0,0,0,.116q0,.948,0,1.9a.108.108,0,0,0-.006.119,1.966,1.966,0,0,1-.483,1.072,1.79,1.79,0,0,1-1.848.608,1.956,1.956,0,0,1-1.462-1.9c-.024-.544-.025-1.091,0-1.635.017-.373-.048-.529-.492-.549a11.536,11.536,0,0,1-5.87-2.15,1.877,1.877,0,0,1,1.06-3.5,2.293,2.293,0,0,1,1.044.4,11.069,11.069,0,0,0,3.01,1.387c.27.072.531.042.788.1.364.086.505-.056.456-.417a1.475,1.475,0,0,1,0-.189c0-3.585-.009-7.17.012-10.756a.807.807,0,0,0-.581-.882,19.015,19.015,0,0,1-2.706-1.458,6.7,6.7,0,0,1-3.124-4.716c-.714-3.881,2.018-8.271,5.874-9.026.422-.083.537-.294.54-.721a5.06,5.06,0,0,1,.214-2.341,1.849,1.849,0,0,1,3.546.641,11.836,11.836,0,0,1,0,1.508c-.031.44.109.627.564.705a9.594,9.594,0,0,1,3.962,1.666,2.25,2.25,0,0,1,1.173,1.692,1.828,1.828,0,0,1-.959,1.779,1.651,1.651,0,0,1-1.892-.1,8.2,8.2,0,0,0-2.325-1.219c-.381-.11-.524-.043-.522.39.014,2.83.016,5.661-.009,8.491,0,.466.214.615.592.729a11.3,11.3,0,0,1,4.186,2.087,8.233,8.233,0,0,1,2.939,6.507,9.8,9.8,0,0,1-6.1,8.814c-.45.162-.905.309-1.358.463-.094,0-.177.008-.184.129m-.039-13.838c0,.081,0,.161.005.242-.007,2.912-.009,5.825-.022,8.737,0,.86.065.908.85.5a5.788,5.788,0,0,0,3.024-5.816,4.6,4.6,0,0,0-3.4-3.881c-.154-.056-.492-.232-.46.22m-3.8-6.044c0-2.494,0-4.876,0-7.259,0-.4-.246-.342-.453-.21a8.144,8.144,0,0,0-.954.713,4.573,4.573,0,0,0-1.128,4.588,5.511,5.511,0,0,0,2.535,2.167" transform="translate(-56.108 -45.277)"/>
    <path id="Trazado_699769" data-name="Trazado 699769" d="M135.4,161.426c.008-.12.09-.132.184-.128a.18.18,0,0,1-.184.128" transform="translate(-67.035 -79.859)" fill="#f5a86b"/>
    <path id="Trazado_699770" data-name="Trazado 699770" d="M135.3,166.161a.107.107,0,0,1,.006-.118.507.507,0,0,1,.034.085c0,.008-.026.022-.039.033" transform="translate(-66.98 -82.209)" fill="#f5a86b"/>
    <path id="Trazado_699771" data-name="Trazado 699771" d="M135.305,162.175a.1.1,0,0,1,0-.116.446.446,0,0,1,.036.083c0,.007-.024.022-.037.033" transform="translate(-66.982 -80.237)" fill="#f5a86b"/>
    <path id="Trazado_699772" data-name="Trazado 699772" d="M135.3,133.85c-.032-.452.305-.276.46-.22a4.6,4.6,0,0,1,3.4,3.881,5.787,5.787,0,0,1-3.024,5.816c-.785.411-.853.363-.849-.5q.019-4.368.022-8.737c.107-.083.1-.163,0-.242" transform="translate(-66.98 -66.121)" fill="#fdc064"/>
    <path id="Trazado_699773" data-name="Trazado 699773" d="M125.057,114.753a5.511,5.511,0,0,1-2.535-2.167A4.573,4.573,0,0,1,123.65,108a8.147,8.147,0,0,1,.954-.713c.206-.132.453-.19.453.21,0,2.383,0,4.765,0,7.259" transform="translate(-60.539 -53.068)" fill="#fdc064"/>
    <path id="Trazado_699774" data-name="Trazado 699774" d="M135.318,134.145c.107.079.111.159,0,.242l0-.242" transform="translate(-66.997 -66.416)" fill="#f5a86b"/>
  </g>
</svg>
