<svg id="Grupo_974386" data-name="Grupo 974386" xmlns="http://www.w3.org/2000/svg" xmlns:xlink="http://www.w3.org/1999/xlink" width="140.333" height="149.359" viewBox="0 0 140.333 149.359">
  <defs>
    <clipPath id="clip-path">
      <rect id="Rectángulo_340257" data-name="Rectángulo 340257" width="140.333" height="149.359" fill="none"/>
    </clipPath>
  </defs>
  <g id="Grupo_974383" data-name="Grupo 974383">
    <g id="Grupo_974382" data-name="Grupo 974382" clip-path="url(#clip-path)">
      <path id="Trazado_700763" data-name="Trazado 700763" d="M141.588,87.713A69.278,69.278,0,1,1,72.31,18.435a69.278,69.278,0,0,1,69.278,69.278" transform="translate(-1.255 -7.632)" fill="#ffdeb8"/>
    </g>
  </g>
  <g id="Grupo_974385" data-name="Grupo 974385">
    <g id="Grupo_974384" data-name="Grupo 974384" clip-path="url(#clip-path)">
      <path id="Trazado_700764" data-name="Trazado 700764" d="M57.506,107.2c7.592,0,15.183-.008,22.774.015.6,0,.756-.132.75-.744-.034-3.43,0-6.861-.03-10.291,0-.541.118-.7.671-.676,1.141.049,2.287.039,3.429,0,.477-.015.6.119.6.6-.021,3.455.006,6.91-.028,10.365-.005.607.141.747.747.747q22.592-.029,45.184-.008c1.211,0,2.362.212,2.874,1.553a3.5,3.5,0,0,1,.274,1.252c0,5.109-.007,10.218.01,15.327,0,.448-.1.576-.558.562-1.167-.036-2.337-.04-3.5,0-.515.019-.638-.123-.635-.635.022-4.233,0-8.467.027-12.7,0-.57-.14-.709-.709-.708q-21.5.025-42.993,0c-.556,0-.72.118-.716.7.028,4.233.006,8.467.027,12.7,0,.5-.1.662-.628.642-1.142-.045-2.288-.042-3.43,0-.506.018-.643-.11-.641-.63.023-4.233,0-8.467.026-12.7,0-.558-.122-.715-.7-.714q-21.5.027-42.993,0c-.546,0-.726.1-.722.695.029,4.233.007,8.467.028,12.7,0,.493-.09.667-.622.648-1.191-.045-2.384-.027-3.576-.006-.364.006-.5-.073-.5-.473.018-5.3,0-10.608.028-15.911a2.322,2.322,0,0,1,2.543-2.3c2.457-.019,4.915-.011,7.372-.012h15.62" transform="translate(-13.224 -39.537)"/>
      <path id="Trazado_700765" data-name="Trazado 700765" d="M102.276,51.329a26.347,26.347,0,0,1-7.629-.911A25.372,25.372,0,0,1,83.535,44a23.766,23.766,0,0,1-3.9-5.109,25.728,25.728,0,0,1-2.123-3.928,25.745,25.745,0,0,1-1.52-5.9,30.333,30.333,0,0,1,.086-7.477,26.457,26.457,0,0,1,1.842-6.311,30.017,30.017,0,0,1,2.393-4.222,27.95,27.95,0,0,1,4.536-5.023,20.491,20.491,0,0,1,6.169-3.912A31.4,31.4,0,0,1,97.177.254,5.677,5.677,0,0,1,98.515.089c1.194.035,2.379-.108,3.579-.087a26.632,26.632,0,0,1,8.132,1.555,23.744,23.744,0,0,1,11.81,8.769,24.539,24.539,0,0,1,3.82,7.186,31.274,31.274,0,0,1,1.232,6.362,25.2,25.2,0,0,1-2.237,12.356,23.1,23.1,0,0,1-7.965,9.865,14.24,14.24,0,0,1-1.817,1.279,37.593,37.593,0,0,1-5.9,2.669,25.14,25.14,0,0,1-6.894,1.286M80.482,25.586A20.987,20.987,0,0,0,102.4,46.616a20.3,20.3,0,0,0,14.158-6.322,20.658,20.658,0,0,0,5.851-16.267,20.995,20.995,0,0,0-41.931,1.559" transform="translate(-31.382 0)"/>
      <path id="Trazado_700766" data-name="Trazado 700766" d="M41.944,182.2a3.909,3.909,0,0,1-2.2,3.747,1.013,1.013,0,0,0-.585,1.087c.043.9.025,1.8,0,2.7a.75.75,0,0,0,.438.81,4.586,4.586,0,0,1,2.439,3.221,3.34,3.34,0,0,1-.475,2.415c-1.086,1.874-2.186,3.745-3.387,5.545a4.064,4.064,0,0,1-5.035,1.187,1.888,1.888,0,0,0-2.383.069,12.982,12.982,0,0,1-2.044,1.106.773.773,0,0,0-.5.778,4.281,4.281,0,0,1-4.61,4.452q-2.846,0-5.692-.006a4.187,4.187,0,0,1-4-3.5c-.061-.413-.28-.8-.049-1.245.08-.154-.106-.28-.279-.357a19.527,19.527,0,0,1-2.973-1.587.96.96,0,0,0-1.071.021c-2.113,1.074-3.405.89-5.17-.5A5.408,5.408,0,0,1,3.3,200.687q-1.4-2.268-2.759-4.563a3.843,3.843,0,0,1,1.512-5.334,1.494,1.494,0,0,0,.885-1.733,12.249,12.249,0,0,1,.032-2.255.731.731,0,0,0-.458-.784,4.225,4.225,0,0,1-2.465-4.1,5.1,5.1,0,0,1,.917-2.168c.825-1.444,1.752-2.829,2.623-4.247a4.708,4.708,0,0,1,2.448-2.08,4.228,4.228,0,0,1,3.764.655.562.562,0,0,0,.681.033c1.029-.575,2.046-1.174,3.095-1.709.322-.164.326-.375.33-.64.04-2.884,1.609-3.979,3.732-4.452a8.609,8.609,0,0,1,1.818-.039c1.386,0,2.775-.04,4.159.013a5.377,5.377,0,0,1,2.566.554,3.522,3.522,0,0,1,1.9,2.878,7.006,7.006,0,0,1,.154,1.207c-.024.283.186.434.418.538a19.086,19.086,0,0,1,2.915,1.635.669.669,0,0,0,.847-.06,4.342,4.342,0,0,1,6.469,1.916c.706,1.5,1.779,2.788,2.536,4.265a3.522,3.522,0,0,1,.527,1.985M9.992,197.585a4.589,4.589,0,0,1,2.768.821,22.287,22.287,0,0,0,3.113,1.725,4.028,4.028,0,0,1,2.614,3.852c0,.473.186.631.657.62,1.241-.027,2.483-.038,3.722,0,.57.019.771-.149.774-.728a3.877,3.877,0,0,1,2.312-3.6,35.564,35.564,0,0,0,3.557-1.97,4.177,4.177,0,0,1,4.667-.056c.465.271.628.121.838-.238.565-.963,1.1-1.945,1.728-2.867.332-.49.36-.724-.2-1.048a4.109,4.109,0,0,1-2.121-3.872,19.422,19.422,0,0,0,.06-2.669c-.274-2.15.156-4.084,2.3-5.207.363-.19.323-.4.137-.7-.618-.987-1.257-1.965-1.806-2.99-.255-.477-.423-.576-.918-.3a4.427,4.427,0,0,1-5.112-.358,11.937,11.937,0,0,0-2.537-1.412,4.184,4.184,0,0,1-2.912-4.1c0-.366-.13-.517-.515-.512-1.386.017-2.774.021-4.161,0-.4-.007-.5.127-.479.5a3.951,3.951,0,0,1-2.66,4.017,18.54,18.54,0,0,0-2.924,1.615,4.348,4.348,0,0,1-4.986.206c-.41-.234-.574-.137-.78.226a26.018,26.018,0,0,1-1.694,2.8c-.461.614-.294.851.253,1.2a4.028,4.028,0,0,1,1.992,3.866c-.074,1.313-.04,2.626,0,3.939a3.96,3.96,0,0,1-2.26,3.844c-.357.192-.367.365-.179.674.656,1.078,1.309,2.157,1.937,3.251.208.362.39.417.735.17a4.188,4.188,0,0,1,2.079-.7" transform="translate(0 -69.236)"/>
      <path id="Trazado_700767" data-name="Trazado 700767" d="M115.779,179.618a11.2,11.2,0,0,1,3.671.64,5.92,5.92,0,0,1,3.759,4.081,19.837,19.837,0,0,1,.566,5.06q0,7.628,0,15.255a3.61,3.61,0,0,1-.461,1.912,1.8,1.8,0,0,1-1.324.859c-3.249.592-6.517.193-9.774.25-4.573.08-9.149.029-13.723.015a2.55,2.55,0,0,1-2.752-2.774c0-6.2-.049-12.41.037-18.613a6.777,6.777,0,0,1,5.968-6.517c.6-.066,1.193-.112,1.944-.141a9.368,9.368,0,0,1-3.28-7.654,8.909,8.909,0,0,1,4.063-7.076,9.482,9.482,0,0,1,12.489,1.75,9.251,9.251,0,0,1-1.183,12.952M109.786,203c2.847,0,5.694-.017,8.54.015.58.006.77-.095.766-.731-.031-5.012-.015-10.024-.018-15.036,0-1.84-.809-2.844-2.748-2.866-4.525-.052-9.051-.032-13.577-.006a2.307,2.307,0,0,0-2.328,2.273c.045,5.279.026,10.56,0,15.84,0,.514.219.52.6.518,2.92-.011,5.84-.006,8.76-.006m4.5-30.51c.15-2.29-1.8-4.66-5.3-4.4a4.766,4.766,0,0,0-3.929,4.5c-.019,2.444,2.156,4.909,4.694,4.741a4.473,4.473,0,0,0,4.538-4.834" transform="translate(-39.631 -67.615)"/>
      <path id="Trazado_700768" data-name="Trazado 700768" d="M165.494,181.024a14.823,14.823,0,0,1,3.174-9.714,14.042,14.042,0,0,1,8.93-5.579,14.95,14.95,0,0,1,3.028-.378,19.62,19.62,0,0,1,4.127.591,14.507,14.507,0,0,1,9.985,8.921,13.864,13.864,0,0,1,1.11,6.794,13.518,13.518,0,0,1-2.769,7.588c-.191.231-.138.333.05.518.71.7,1.415,1.406,2.087,2.142.293.319.473.291.737-.016a2.914,2.914,0,0,1,1.808-1.168,2.662,2.662,0,0,1,2.316.956q3.953,3.986,7.908,7.97a2.221,2.221,0,0,1,.052,3.106c-1.6,1.7-3.246,3.362-4.947,4.961-1.188,1.118-2.516.881-3.626-.231-2.544-2.549-5.069-5.118-7.652-7.627a3.27,3.27,0,0,1-.905-2.883c.043-.4.65-.763,1.041-1.1.322-.275.4-.527.1-.839q-.969-.992-1.947-1.974c-.25-.251-.488-.19-.762.008a14.459,14.459,0,0,1-6.476,2.469,14.783,14.783,0,0,1-10.181-2.1,15.264,15.264,0,0,1-6-7.166,11.347,11.347,0,0,1-1.183-5.249m14.777,10.049c4.76.4,10.525-3.28,10.913-9.383.4-6.336-3.42-10.971-9.508-11.523a10.417,10.417,0,0,0-11.45,9.694,10.542,10.542,0,0,0,10.045,11.212m22.565,10.164c.054-.227-.145-.318-.278-.451q-1.673-1.673-3.345-3.347c-.356-.356-.768-1.014-1.079-.972-.43.057-.769.67-1.18,1s-.35.586,0,.931c1.367,1.343,2.709,2.711,4.067,4.064.083.082.1.236.311.213.347-.037,1.5-1.078,1.5-1.441" transform="translate(-68.506 -68.454)"/>
      <path id="Trazado_700769" data-name="Trazado 700769" d="M83.785,28.837a20.995,20.995,0,0,1,41.931-1.559,20.658,20.658,0,0,1-5.851,16.267,20.3,20.3,0,0,1-14.159,6.322,20.987,20.987,0,0,1-21.921-21.03M104.4,31.186a11.229,11.229,0,0,1,3.45.3,2.274,2.274,0,0,1,1.492,1.86,2.342,2.342,0,0,1-2.522,2.524c-1.289.013-2.578.006-3.868,0a2.59,2.59,0,0,1-2.751-1.931c-.13-.391-.309-.408-.613-.406-.924.006-1.848,0-2.773,0-1.516,0-1.587.1-1.154,1.559.006.022.03.039.037.062a8.317,8.317,0,0,0,4.1,4.788,2.963,2.963,0,0,0,1.384.479c1.3.06,1.3.111,1.3,1.475a5.227,5.227,0,0,1,0,.583c-.037.329.1.414.415.406.776-.019,1.553,0,2.331-.007.607,0,1.4.219,1.774-.079.439-.35.136-1.179.144-1.8.005-.4.122-.555.523-.6a7.259,7.259,0,0,0,2.061-.507,6.816,6.816,0,0,0,2.963-10.429,7.4,7.4,0,0,0-6.027-2.932c-1.385-.05-2.773,0-4.159-.016a2.6,2.6,0,0,1-2.355-2.549,2.542,2.542,0,0,1,2.288-2.079c1.832.026,3.684-.336,5.5.331a1.918,1.918,0,0,1,1.406,1.538c.065.362.218.434.522.432.754-.005,1.508,0,2.263,0,2.091,0,2.091,0,1.6-2.057a6.9,6.9,0,0,0-5.373-4.661c-1.2-.1-1.2-.1-1.2-1.326a4.5,4.5,0,0,1,0-.583c.072-.539-.077-.783-.69-.733-.749.061-1.507.008-2.261.017-.553.007-1.279-.17-1.613.111-.353.3-.134,1.051-.1,1.6.038.577-.173.726-.725.789a7,7,0,0,0-6.254,6.936A7.125,7.125,0,0,0,99.89,30.6a9.292,9.292,0,0,0,4.508.588" transform="translate(-34.686 -3.251)" fill="#ffc403"/>
      <path id="Trazado_700770" data-name="Trazado 700770" d="M13.61,200.936a4.189,4.189,0,0,0-2.079.7c-.345.247-.527.192-.735-.17-.628-1.094-1.282-2.173-1.937-3.251-.188-.309-.178-.482.179-.674A3.959,3.959,0,0,0,11.3,193.7c-.039-1.313-.073-2.626,0-3.94a4.028,4.028,0,0,0-1.992-3.865c-.547-.345-.714-.582-.253-1.2a25.954,25.954,0,0,0,1.694-2.8c.206-.363.37-.461.78-.226a4.348,4.348,0,0,0,4.986-.206,18.569,18.569,0,0,1,2.924-1.615,3.952,3.952,0,0,0,2.66-4.018c-.021-.373.083-.507.479-.5,1.386.023,2.774.02,4.161,0,.386,0,.515.145.515.512a4.184,4.184,0,0,0,2.912,4.1,11.938,11.938,0,0,1,2.537,1.412,4.425,4.425,0,0,0,5.112.358c.5-.272.663-.172.918.3.549,1.025,1.188,2,1.806,2.989.186.3.227.509-.136.7-2.144,1.122-2.574,3.057-2.3,5.207a19.417,19.417,0,0,1-.06,2.669,4.111,4.111,0,0,0,2.121,3.872c.559.324.53.558.2,1.048-.625.923-1.163,1.905-1.728,2.868-.21.359-.373.509-.838.238a4.175,4.175,0,0,0-4.667.056,35.556,35.556,0,0,1-3.557,1.969,3.877,3.877,0,0,0-2.312,3.6c0,.579-.205.747-.775.728-1.239-.042-2.482-.031-3.722,0-.472.01-.66-.148-.657-.621a4.028,4.028,0,0,0-2.614-3.852,22.183,22.183,0,0,1-3.112-1.725,4.591,4.591,0,0,0-2.769-.821m11.125-18.25c-4.207-.447-9.116,3.469-9.123,8.872a9.053,9.053,0,1,0,18.049-.89c-.328-4.485-4.812-8.373-8.926-7.982" transform="translate(-3.617 -72.587)" fill="#9cfdff"/>
      <path id="Trazado_700771" data-name="Trazado 700771" d="M113.1,217.85c-2.92,0-5.84,0-8.76.006-.383,0-.6,0-.6-.518.022-5.28.041-10.56,0-15.84a2.309,2.309,0,0,1,2.328-2.274c4.526-.025,9.052-.046,13.578.006,1.938.022,2.747,1.026,2.748,2.866,0,5.013-.013,10.025.018,15.037,0,.636-.186.737-.766.731-2.847-.032-5.694-.015-8.541-.015" transform="translate(-42.947 -82.468)" fill="#b20d0d"/>
      <path id="Trazado_700772" data-name="Trazado 700772" d="M120.874,175.838a4.473,4.473,0,0,1-4.538,4.834c-2.538.168-4.714-2.3-4.694-4.741a4.766,4.766,0,0,1,3.929-4.5c3.507-.257,5.454,2.114,5.3,4.4" transform="translate(-46.22 -70.966)" fill="#ffdeb8"/>
      <path id="Trazado_700773" data-name="Trazado 700773" d="M183.6,194.441a10.542,10.542,0,0,1-10.045-11.212,10.417,10.417,0,0,1,11.45-9.694c6.088.552,9.91,5.187,9.507,11.523-.387,6.1-6.152,9.779-10.913,9.383" transform="translate(-71.84 -71.823)" fill="#9cfdff"/>
      <path id="Trazado_700774" data-name="Trazado 700774" d="M224.874,223.219c0,.363-1.156,1.4-1.5,1.441-.213.023-.227-.131-.311-.213-1.358-1.352-2.7-2.721-4.067-4.064-.351-.345-.415-.6,0-.931s.75-.946,1.18-1c.311-.042.723.616,1.079.972q1.676,1.67,3.345,3.347c.133.133.332.224.278.451" transform="translate(-90.544 -90.437)" fill="#b20d0d"/>
      <path id="Trazado_700775" data-name="Trazado 700775" d="M112.626,36.094a9.292,9.292,0,0,1-4.508-.588,7.125,7.125,0,0,1-4.379-6.316,7,7,0,0,1,6.254-6.936c.553-.063.763-.212.725-.789-.036-.547-.254-1.3.1-1.6.333-.281,1.059-.1,1.613-.111.754-.009,1.512.044,2.261-.017.612-.05.762.195.69.733a4.5,4.5,0,0,0,0,.583c0,1.228,0,1.228,1.2,1.326a6.9,6.9,0,0,1,5.373,4.661c.49,2.057.49,2.057-1.6,2.057-.754,0-1.508,0-2.263,0-.3,0-.456-.07-.522-.432a1.918,1.918,0,0,0-1.406-1.538c-1.82-.666-3.672-.3-5.5-.331a2.542,2.542,0,0,0-2.288,2.079,2.6,2.6,0,0,0,2.355,2.549c1.386.019,2.775-.035,4.159.016a7.4,7.4,0,0,1,6.027,2.932A6.816,6.816,0,0,1,117.947,44.8a7.259,7.259,0,0,1-2.061.507c-.4.043-.518.2-.523.6-.008.619.3,1.448-.144,1.8-.374.3-1.167.077-1.774.079-.777,0-1.554-.012-2.331.007-.311.008-.452-.077-.415-.406a5.229,5.229,0,0,0,0-.583c0-1.364,0-1.415-1.3-1.475a2.963,2.963,0,0,1-1.384-.479,8.317,8.317,0,0,1-4.1-4.788c-.007-.022-.03-.039-.037-.062-.432-1.462-.362-1.559,1.154-1.559.925,0,1.849,0,2.773,0,.3,0,.483.015.613.406a2.59,2.59,0,0,0,2.751,1.931c1.289,0,2.578.011,3.868,0a2.342,2.342,0,0,0,2.522-2.524,2.274,2.274,0,0,0-1.492-1.86,11.229,11.229,0,0,0-3.45-.3" transform="translate(-42.914 -8.159)"/>
      <path id="Trazado_700776" data-name="Trazado 700776" d="M29.59,187.858c4.113-.39,8.6,3.5,8.926,7.982a9.053,9.053,0,1,1-18.049.889c.008-5.4,4.917-9.319,9.123-8.871m-.26,13.187a4.068,4.068,0,0,0,4.561-4.059c.083-2.847-1.75-4.442-4.967-4.4a4.2,4.2,0,0,0-3.791,4.246c-.016,1.96,1.949,4.573,4.2,4.213" transform="translate(-8.473 -77.759)"/>
    </g>
  </g>
</svg>
