<svg xmlns="http://www.w3.org/2000/svg" xmlns:xlink="http://www.w3.org/1999/xlink" width="1030" height="622" viewBox="0 0 1030 622">
  <defs>
    <clipPath id="clip-path">
      <rect id="Rectángulo_340272" data-name="Rectángulo 340272" width="860.64" height="560.703" fill="none"/>
    </clipPath>
    <clipPath id="clip-path-2">
      <rect id="Rectángulo_340266" data-name="Rectángulo 340266" width="25.362" height="515.352" fill="none"/>
    </clipPath>
    <clipPath id="clip-path-3">
      <rect id="Rectángulo_340268" data-name="Rectángulo 340268" width="27" height="515.352" fill="none"/>
    </clipPath>
  </defs>
  <g id="Grupo_974664" data-name="Grupo 974664" transform="translate(-285 -6181)">
    <g id="Rectángulo_340118" data-name="Rectángulo 340118" transform="translate(285 6181)" fill="none" stroke="#707070" stroke-width="1">
      <rect width="1030" height="622" rx="25" stroke="none"/>
      <rect x="0.5" y="0.5" width="1029" height="621" rx="24.5" fill="none"/>
    </g>
    <g id="Grupo_974409" data-name="Grupo 974409" transform="translate(370 6210)">
      <g id="Grupo_974408" data-name="Grupo 974408" clip-path="url(#clip-path)">
        <g id="Grupo_974404" data-name="Grupo 974404" transform="translate(383.264 25.807)" opacity="0.5">
          <g id="Grupo_974403" data-name="Grupo 974403">
            <g id="Grupo_974402" data-name="Grupo 974402" clip-path="url(#clip-path-2)">
              <rect id="Rectángulo_340265" data-name="Rectángulo 340265" width="25.36" height="515.353" transform="translate(0.001 -0.001)" fill="#06d1d1"/>
            </g>
          </g>
        </g>
        <g id="Grupo_974407" data-name="Grupo 974407" transform="translate(581 25.807)" opacity="0.5">
          <g id="Grupo_974406" data-name="Grupo 974406">
            <g id="Grupo_974405" data-name="Grupo 974405" clip-path="url(#clip-path-3)">
              <rect id="Rectángulo_340267" data-name="Rectángulo 340267" width="26.998" height="515.353" transform="translate(0.002 -0.001)" fill="#06d1d1"/>
            </g>
          </g>
        </g>
        <path id="Rectángulo_340269" data-name="Rectángulo 340269" d="M15.556,0H843.725A15.555,15.555,0,0,1,859.28,15.555V543.788a15.555,15.555,0,0,1-15.555,15.555H15.556A15.556,15.556,0,0,1,0,543.787V15.556A15.556,15.556,0,0,1,15.556,0Z" transform="translate(0.68 0.681)" fill="none" stroke="#fff" stroke-miterlimit="10" stroke-width="1"/>
        <rect id="Rectángulo_340270" data-name="Rectángulo 340270" width="140.272" height="36.278" transform="translate(21.668 25.805)" fill="#06d1d1"/>
        <line id="Línea_597" data-name="Línea 597" x2="139.062" transform="translate(22.739 146.73)" fill="none" stroke="#706f6f" stroke-miterlimit="10" stroke-width="1"/>
        <line id="Línea_598" data-name="Línea 598" x2="139.062" transform="translate(22.739 62.368)" fill="none" stroke="#706f6f" stroke-miterlimit="10" stroke-width="1"/>
        <line id="Línea_599" data-name="Línea 599" x2="139.062" transform="translate(21.979 226.532)" fill="none" stroke="#706f6f" stroke-miterlimit="10" stroke-width="1"/>
        <line id="Línea_600" data-name="Línea 600" x2="139.062" transform="translate(21.979 307.093)" fill="none" stroke="#706f6f" stroke-miterlimit="10" stroke-width="1"/>
        <line id="Línea_601" data-name="Línea 601" x2="139.062" transform="translate(21.979 386.135)" fill="none" stroke="#706f6f" stroke-miterlimit="10" stroke-width="1"/>
        <line id="Línea_602" data-name="Línea 602" x2="139.062" transform="translate(21.979 465.936)" fill="none" stroke="#706f6f" stroke-miterlimit="10" stroke-width="1"/>
        <rect id="Rectángulo_340271" data-name="Rectángulo 340271" width="23.744" height="515.353" transform="translate(161.941 25.805)" fill="#ccc"/>
      </g>
    </g>
    <path id="Trazado_703824" data-name="Trazado 703824" d="M5.005.166A4.094,4.094,0,0,1,1.984-1.079,5.071,5.071,0,0,1,.7-4.3,9.207,9.207,0,0,1,.855-6.645,8.239,8.239,0,0,1,1.71-9.131a6.257,6.257,0,0,1,1.536-1.893A5.252,5.252,0,0,1,6.8-12.252a4.37,4.37,0,0,1,2.162.569,3.966,3.966,0,0,1,1.482,1.565,5.62,5.62,0,0,1,.647,2.324,9.526,9.526,0,0,1-.112,2.1,8.638,8.638,0,0,1-.656,2.241,6.85,6.85,0,0,1-1.233,1.88A5.67,5.67,0,0,1,7.309-.286,5.15,5.15,0,0,1,5.005.166ZM8.243-7.819Q8.16-9.895,6.632-9.978a2.223,2.223,0,0,0-1.951.934A6,6,0,0,0,3.661-6.118a10.214,10.214,0,0,0-.116,1.851Q3.627-2.158,5.171-2.1a2.156,2.156,0,0,0,1.743-.726A4.7,4.7,0,0,0,7.969-5.084,10.846,10.846,0,0,0,8.243-7.819Zm7.28,5.827a1.175,1.175,0,0,0,.921-.326,1.621,1.621,0,0,0,.423-.886l2.557-.008a3.361,3.361,0,0,1-.585,1.768A3.537,3.537,0,0,1,17.394-.237a4.27,4.27,0,0,1-1.947.4,3.372,3.372,0,0,1-2.764-1.291,4.464,4.464,0,0,1-.789-3.25l.025-.2a6.017,6.017,0,0,1,.764-2.411A4.369,4.369,0,0,1,14.3-8.608a4.187,4.187,0,0,1,2.237-.54,3.34,3.34,0,0,1,2.478,1,3.547,3.547,0,0,1,.876,2.611l-2.557-.008q.042-1.42-1.021-1.444-1.444-.05-1.66,2.424l-.075.844-.008.314Q14.568-2.017,15.522-1.992Zm9.612-9.222-.39,2.233h1.436l-.34,1.942H24.4l-.7,4.125a1.1,1.1,0,0,0,.054.639q.112.216.56.232a6.491,6.491,0,0,0,.714-.042l-.2,2.025a4.414,4.414,0,0,1-1.469.208,2.42,2.42,0,0,1-1.9-.747,2.551,2.551,0,0,1-.515-1.984l.73-4.458H20.569L20.9-8.981h1.112l.39-2.233ZM31.311-.979A2.973,2.973,0,0,1,28.887.174,2.353,2.353,0,0,1,26.9-.747a3.4,3.4,0,0,1-.519-2.424l.971-5.811h2.731l-.988,5.851a1.95,1.95,0,0,0,0,.44.723.723,0,0,0,.805.706,1.765,1.765,0,0,0,1.469-.681l1.112-6.316h2.748L33.668,0h-2.54ZM44-4.474a6.508,6.508,0,0,1-1.287,3.437A3.219,3.219,0,0,1,40.01.174,2.381,2.381,0,0,1,37.968-.938L37.627,0H35.154L37.37-12.75H40.1l-.888,4.507a2.711,2.711,0,0,1,2.017-.9,2.53,2.53,0,0,1,2.059.942,4.109,4.109,0,0,1,.78,2.519,9.136,9.136,0,0,1-.042,1.038Zm-2.714-.162a8.6,8.6,0,0,0,.075-.961q0-1.334-.955-1.392a1.636,1.636,0,0,0-1.419.721l-.647,3.58a1.1,1.1,0,0,0,1.129.7q1.336.042,1.685-1.74l.116-.737Zm9.7-1.814a7.813,7.813,0,0,0-.847-.083,2.109,2.109,0,0,0-1.876.847L47.248,0H44.517l1.561-8.981,2.548-.008-.208,1.179a2.493,2.493,0,0,1,2.075-1.361,3.914,3.914,0,0,1,.847.116ZM55.3.166A4.175,4.175,0,0,1,53.154-.4,3.583,3.583,0,0,1,51.73-1.963a4.193,4.193,0,0,1-.382-2.2l.025-.232a5.505,5.505,0,0,1,1.54-3.507,4.26,4.26,0,0,1,3.225-1.241,3.473,3.473,0,0,1,1.976.586,3.275,3.275,0,0,1,1.2,1.571,4.812,4.812,0,0,1,.249,2.249L59.409-3.6H54.063a1.751,1.751,0,0,0,.4,1.146,1.463,1.463,0,0,0,1.112.465,2.827,2.827,0,0,0,2.133-.913L58.853-1.39A3.379,3.379,0,0,1,57.437-.26a4.971,4.971,0,0,1-1.988.426Zm.664-7.155a1.4,1.4,0,0,0-1.009.363,3.049,3.049,0,0,0-.743,1.272h2.731l.05-.24a1.822,1.822,0,0,0,.017-.545A.961.961,0,0,0,55.964-6.989ZM72.325,0H64.132l.3-1.926,4.3-3.993.589-.589a3.428,3.428,0,0,0,1.27-2.631.949.949,0,0,0-1-.988,1.311,1.311,0,0,0-1.083.519,2.655,2.655,0,0,0-.552,1.4l-2.714.017a4.145,4.145,0,0,1,.689-2.079A4.292,4.292,0,0,1,67.6-11.746a4.744,4.744,0,0,1,2.22-.523,3.926,3.926,0,0,1,2.739.959,2.949,2.949,0,0,1,.847,2.5A4.084,4.084,0,0,1,72.794-7a9.327,9.327,0,0,1-1.556,1.851L69.976-3.984,68.1-2.175l4.565.017ZM77.9.166a3.6,3.6,0,0,1-1.8-.486,3,3,0,0,1-1.183-1.353,5.12,5.12,0,0,1-.448-2.03,7.735,7.735,0,0,1,.05-1.237l.315-2.108a7.147,7.147,0,0,1,1.635-3.9,4.044,4.044,0,0,1,3.2-1.307,3.191,3.191,0,0,1,2.469,1.063A4.4,4.4,0,0,1,83.1-8.384a8.451,8.451,0,0,1-.058,1.237L82.709-5A7.083,7.083,0,0,1,81.061-1.1,4.046,4.046,0,0,1,77.9.166Zm2.465-7.687a9.54,9.54,0,0,0,.083-1.021q0-1.519-.963-1.569-1.478-.075-1.834,2.532l-.44,2.988a9.453,9.453,0,0,0-.083,1.021q-.042,1.536.955,1.594,1.5.075,1.851-2.6ZM91.583,0H83.39l.3-1.926,4.3-3.993.589-.589a3.428,3.428,0,0,0,1.27-2.631.949.949,0,0,0-1-.988,1.311,1.311,0,0,0-1.083.519,2.655,2.655,0,0,0-.552,1.4L84.5-8.193a4.145,4.145,0,0,1,.689-2.079,4.292,4.292,0,0,1,1.664-1.473,4.744,4.744,0,0,1,2.22-.523,3.926,3.926,0,0,1,2.739.959,2.949,2.949,0,0,1,.847,2.5A4.084,4.084,0,0,1,92.052-7,9.327,9.327,0,0,1,90.5-5.146L89.233-3.984l-1.876,1.81,4.565.017Zm7.379,0H96.223l1.544-8.882-2.814.8.382-2.216,5.346-1.785.307-.008Z" transform="translate(406.838 6258.744)"/>
    <path id="Trazado_703825" data-name="Trazado 703825" d="M10.94-9.836H7.421L5.719,0H2.872l1.71-9.836H1.121l.4-2.25h9.812ZM12.643,0a2.435,2.435,0,0,1-.116-.813,2.771,2.771,0,0,1-2.2.979,2.707,2.707,0,0,1-1.942-.78,2.345,2.345,0,0,1-.722-1.851,2.635,2.635,0,0,1,1.22-2.245A5.753,5.753,0,0,1,12.1-5.5l.913.017.1-.506.033-.44a.713.713,0,0,0-.755-.78,1.05,1.05,0,0,0-1.1.988L8.55-6.209A2.6,2.6,0,0,1,9.14-7.782a3.493,3.493,0,0,1,1.49-1.029,5.206,5.206,0,0,1,2-.336,4.015,4.015,0,0,1,1.789.427A2.663,2.663,0,0,1,15.573-7.6a2.863,2.863,0,0,1,.291,1.656l-.672,4.225-.042.515a2.268,2.268,0,0,0,.158,1.046L15.3,0ZM11.082-1.81a1.761,1.761,0,0,0,1.469-.739l.274-1.444L12.12-4a1.86,1.86,0,0,0-1.129.386,1.464,1.464,0,0,0-.556,1.009.735.735,0,0,0,.129.56A.657.657,0,0,0,11.082-1.81ZM22.894-6.45a7.813,7.813,0,0,0-.847-.083,2.109,2.109,0,0,0-1.876.847L19.159,0H16.428l1.561-8.981,2.548-.008-.208,1.179A2.493,2.493,0,0,1,22.4-9.172a3.913,3.913,0,0,1,.847.116ZM27.21.166A4.175,4.175,0,0,1,25.065-.4a3.583,3.583,0,0,1-1.424-1.561,4.193,4.193,0,0,1-.382-2.2l.025-.232a5.505,5.505,0,0,1,1.54-3.507,4.26,4.26,0,0,1,3.225-1.241,3.473,3.473,0,0,1,1.976.586,3.275,3.275,0,0,1,1.2,1.571,4.812,4.812,0,0,1,.249,2.249L31.319-3.6H25.974a1.751,1.751,0,0,0,.4,1.146,1.463,1.463,0,0,0,1.112.465,2.827,2.827,0,0,0,2.133-.913L30.763-1.39A3.379,3.379,0,0,1,29.348-.26,4.971,4.971,0,0,1,27.36.166Zm.664-7.155a1.4,1.4,0,0,0-1.009.363,3.049,3.049,0,0,0-.743,1.272h2.731l.05-.24a1.822,1.822,0,0,0,.017-.545A.961.961,0,0,0,27.875-6.989Zm9,6.989a2.435,2.435,0,0,1-.116-.813,2.771,2.771,0,0,1-2.2.979,2.707,2.707,0,0,1-1.942-.78,2.345,2.345,0,0,1-.722-1.851,2.635,2.635,0,0,1,1.22-2.245A5.753,5.753,0,0,1,36.333-5.5l.913.017.1-.506.033-.44a.713.713,0,0,0-.755-.78,1.05,1.05,0,0,0-1.1.988l-2.739.008a2.6,2.6,0,0,1,.589-1.573,3.493,3.493,0,0,1,1.49-1.029,5.206,5.206,0,0,1,2-.336,4.015,4.015,0,0,1,1.789.427A2.663,2.663,0,0,1,39.8-7.6a2.863,2.863,0,0,1,.291,1.656l-.672,4.225-.042.515a2.268,2.268,0,0,0,.158,1.046L39.529,0ZM35.312-1.81a1.761,1.761,0,0,0,1.469-.739l.274-1.444L36.35-4a1.86,1.86,0,0,0-1.129.386,1.464,1.464,0,0,0-.556,1.009.735.735,0,0,0,.129.56A.657.657,0,0,0,35.312-1.81ZM50.818,0H48.079l1.544-8.882-2.814.8L47.19-10.3l5.346-1.785.307-.008Z" transform="translate(427.459 6315.337)"/>
    <path id="Trazado_703826" data-name="Trazado 703826" d="M10.94-9.836H7.421L5.719,0H2.872l1.71-9.836H1.121l.4-2.25h9.812ZM12.643,0a2.435,2.435,0,0,1-.116-.813,2.771,2.771,0,0,1-2.2.979,2.707,2.707,0,0,1-1.942-.78,2.345,2.345,0,0,1-.722-1.851,2.635,2.635,0,0,1,1.22-2.245A5.753,5.753,0,0,1,12.1-5.5l.913.017.1-.506.033-.44a.713.713,0,0,0-.755-.78,1.05,1.05,0,0,0-1.1.988L8.55-6.209A2.6,2.6,0,0,1,9.14-7.782a3.493,3.493,0,0,1,1.49-1.029,5.206,5.206,0,0,1,2-.336,4.015,4.015,0,0,1,1.789.427A2.663,2.663,0,0,1,15.573-7.6a2.863,2.863,0,0,1,.291,1.656l-.672,4.225-.042.515a2.268,2.268,0,0,0,.158,1.046L15.3,0ZM11.082-1.81a1.761,1.761,0,0,0,1.469-.739l.274-1.444L12.12-4a1.86,1.86,0,0,0-1.129.386,1.464,1.464,0,0,0-.556,1.009.735.735,0,0,0,.129.56A.657.657,0,0,0,11.082-1.81ZM22.894-6.45a7.813,7.813,0,0,0-.847-.083,2.109,2.109,0,0,0-1.876.847L19.159,0H16.428l1.561-8.981,2.548-.008-.208,1.179A2.493,2.493,0,0,1,22.4-9.172a3.913,3.913,0,0,1,.847.116ZM27.21.166A4.175,4.175,0,0,1,25.065-.4a3.583,3.583,0,0,1-1.424-1.561,4.193,4.193,0,0,1-.382-2.2l.025-.232a5.505,5.505,0,0,1,1.54-3.507,4.26,4.26,0,0,1,3.225-1.241,3.473,3.473,0,0,1,1.976.586,3.275,3.275,0,0,1,1.2,1.571,4.812,4.812,0,0,1,.249,2.249L31.319-3.6H25.974a1.751,1.751,0,0,0,.4,1.146,1.463,1.463,0,0,0,1.112.465,2.827,2.827,0,0,0,2.133-.913L30.763-1.39A3.379,3.379,0,0,1,29.348-.26,4.971,4.971,0,0,1,27.36.166Zm.664-7.155a1.4,1.4,0,0,0-1.009.363,3.049,3.049,0,0,0-.743,1.272h2.731l.05-.24a1.822,1.822,0,0,0,.017-.545A.961.961,0,0,0,27.875-6.989Zm9,6.989a2.435,2.435,0,0,1-.116-.813,2.771,2.771,0,0,1-2.2.979,2.707,2.707,0,0,1-1.942-.78,2.345,2.345,0,0,1-.722-1.851,2.635,2.635,0,0,1,1.22-2.245A5.753,5.753,0,0,1,36.333-5.5l.913.017.1-.506.033-.44a.713.713,0,0,0-.755-.78,1.05,1.05,0,0,0-1.1.988l-2.739.008a2.6,2.6,0,0,1,.589-1.573,3.493,3.493,0,0,1,1.49-1.029,5.206,5.206,0,0,1,2-.336,4.015,4.015,0,0,1,1.789.427A2.663,2.663,0,0,1,39.8-7.6a2.863,2.863,0,0,1,.291,1.656l-.672,4.225-.042.515a2.268,2.268,0,0,0,.158,1.046L39.529,0ZM35.312-1.81a1.761,1.761,0,0,0,1.469-.739l.274-1.444L36.35-4a1.86,1.86,0,0,0-1.129.386,1.464,1.464,0,0,0-.556,1.009.735.735,0,0,0,.129.56A.657.657,0,0,0,35.312-1.81ZM53.067,0H44.875l.3-1.926,4.3-3.993.589-.589a3.428,3.428,0,0,0,1.27-2.631.949.949,0,0,0-1-.988,1.311,1.311,0,0,0-1.083.519,2.655,2.655,0,0,0-.552,1.4l-2.714.017a4.145,4.145,0,0,1,.689-2.079,4.292,4.292,0,0,1,1.664-1.473,4.744,4.744,0,0,1,2.22-.523,3.926,3.926,0,0,1,2.739.959,2.949,2.949,0,0,1,.847,2.5A4.084,4.084,0,0,1,53.536-7,9.327,9.327,0,0,1,51.98-5.146L50.718-3.984l-1.876,1.81,4.565.017Z" transform="translate(427.459 6398.704)"/>
    <path id="Trazado_703828" data-name="Trazado 703828" d="M10.94-9.836H7.421L5.719,0H2.872l1.71-9.836H1.121l.4-2.25h9.812ZM12.643,0a2.435,2.435,0,0,1-.116-.813,2.771,2.771,0,0,1-2.2.979,2.707,2.707,0,0,1-1.942-.78,2.345,2.345,0,0,1-.722-1.851,2.635,2.635,0,0,1,1.22-2.245A5.753,5.753,0,0,1,12.1-5.5l.913.017.1-.506.033-.44a.713.713,0,0,0-.755-.78,1.05,1.05,0,0,0-1.1.988L8.55-6.209A2.6,2.6,0,0,1,9.14-7.782a3.493,3.493,0,0,1,1.49-1.029,5.206,5.206,0,0,1,2-.336,4.015,4.015,0,0,1,1.789.427A2.663,2.663,0,0,1,15.573-7.6a2.863,2.863,0,0,1,.291,1.656l-.672,4.225-.042.515a2.268,2.268,0,0,0,.158,1.046L15.3,0ZM11.082-1.81a1.761,1.761,0,0,0,1.469-.739l.274-1.444L12.12-4a1.86,1.86,0,0,0-1.129.386,1.464,1.464,0,0,0-.556,1.009.735.735,0,0,0,.129.56A.657.657,0,0,0,11.082-1.81ZM22.894-6.45a7.813,7.813,0,0,0-.847-.083,2.109,2.109,0,0,0-1.876.847L19.159,0H16.428l1.561-8.981,2.548-.008-.208,1.179A2.493,2.493,0,0,1,22.4-9.172a3.913,3.913,0,0,1,.847.116ZM27.21.166A4.175,4.175,0,0,1,25.065-.4a3.583,3.583,0,0,1-1.424-1.561,4.193,4.193,0,0,1-.382-2.2l.025-.232a5.505,5.505,0,0,1,1.54-3.507,4.26,4.26,0,0,1,3.225-1.241,3.473,3.473,0,0,1,1.976.586,3.275,3.275,0,0,1,1.2,1.571,4.812,4.812,0,0,1,.249,2.249L31.319-3.6H25.974a1.751,1.751,0,0,0,.4,1.146,1.463,1.463,0,0,0,1.112.465,2.827,2.827,0,0,0,2.133-.913L30.763-1.39A3.379,3.379,0,0,1,29.348-.26,4.971,4.971,0,0,1,27.36.166Zm.664-7.155a1.4,1.4,0,0,0-1.009.363,3.049,3.049,0,0,0-.743,1.272h2.731l.05-.24a1.822,1.822,0,0,0,.017-.545A.961.961,0,0,0,27.875-6.989Zm9,6.989a2.435,2.435,0,0,1-.116-.813,2.771,2.771,0,0,1-2.2.979,2.707,2.707,0,0,1-1.942-.78,2.345,2.345,0,0,1-.722-1.851,2.635,2.635,0,0,1,1.22-2.245A5.753,5.753,0,0,1,36.333-5.5l.913.017.1-.506.033-.44a.713.713,0,0,0-.755-.78,1.05,1.05,0,0,0-1.1.988l-2.739.008a2.6,2.6,0,0,1,.589-1.573,3.493,3.493,0,0,1,1.49-1.029,5.206,5.206,0,0,1,2-.336,4.015,4.015,0,0,1,1.789.427A2.663,2.663,0,0,1,39.8-7.6a2.863,2.863,0,0,1,.291,1.656l-.672,4.225-.042.515a2.268,2.268,0,0,0,.158,1.046L39.529,0ZM35.312-1.81a1.761,1.761,0,0,0,1.469-.739l.274-1.444L36.35-4a1.86,1.86,0,0,0-1.129.386,1.464,1.464,0,0,0-.556,1.009.735.735,0,0,0,.129.56A.657.657,0,0,0,35.312-1.81Zm13.165-5.4,1.22.008a1.873,1.873,0,0,0,1.229-.435A1.766,1.766,0,0,0,51.5-8.811a1.2,1.2,0,0,0-.224-.927,1.069,1.069,0,0,0-.872-.372,1.46,1.46,0,0,0-.955.3,1.4,1.4,0,0,0-.531.836l-2.739.017a3.038,3.038,0,0,1,.631-1.737,3.764,3.764,0,0,1,1.548-1.168,5.154,5.154,0,0,1,2.079-.4,4.365,4.365,0,0,1,2.872.959,2.846,2.846,0,0,1,.955,2.445A3.285,3.285,0,0,1,52.03-6.159a2.721,2.721,0,0,1,1.2,1.1,2.9,2.9,0,0,1,.357,1.594,3.345,3.345,0,0,1-.706,1.938A4.137,4.137,0,0,1,51.15-.253a5.8,5.8,0,0,1-2.333.419,4.343,4.343,0,0,1-1.971-.46,3.263,3.263,0,0,1-1.357-1.248,3.444,3.444,0,0,1-.465-1.824h2.723a1.443,1.443,0,0,0,.349.974,1.259,1.259,0,0,0,.955.4A1.826,1.826,0,0,0,50.27-2.4,1.683,1.683,0,0,0,50.9-3.515a1.526,1.526,0,0,0-.22-1.161,1.315,1.315,0,0,0-1.067-.445L48.153-5.13Z" transform="translate(427.459 6482.072)"/>
    <path id="Trazado_703829" data-name="Trazado 703829" d="M10.94-9.836H7.421L5.719,0H2.872l1.71-9.836H1.121l.4-2.25h9.812ZM12.643,0a2.435,2.435,0,0,1-.116-.813,2.771,2.771,0,0,1-2.2.979,2.707,2.707,0,0,1-1.942-.78,2.345,2.345,0,0,1-.722-1.851,2.635,2.635,0,0,1,1.22-2.245A5.753,5.753,0,0,1,12.1-5.5l.913.017.1-.506.033-.44a.713.713,0,0,0-.755-.78,1.05,1.05,0,0,0-1.1.988L8.55-6.209A2.6,2.6,0,0,1,9.14-7.782a3.493,3.493,0,0,1,1.49-1.029,5.206,5.206,0,0,1,2-.336,4.015,4.015,0,0,1,1.789.427A2.663,2.663,0,0,1,15.573-7.6a2.863,2.863,0,0,1,.291,1.656l-.672,4.225-.042.515a2.268,2.268,0,0,0,.158,1.046L15.3,0ZM11.082-1.81a1.761,1.761,0,0,0,1.469-.739l.274-1.444L12.12-4a1.86,1.86,0,0,0-1.129.386,1.464,1.464,0,0,0-.556,1.009.735.735,0,0,0,.129.56A.657.657,0,0,0,11.082-1.81ZM22.894-6.45a7.813,7.813,0,0,0-.847-.083,2.109,2.109,0,0,0-1.876.847L19.159,0H16.428l1.561-8.981,2.548-.008-.208,1.179A2.493,2.493,0,0,1,22.4-9.172a3.913,3.913,0,0,1,.847.116ZM27.21.166A4.175,4.175,0,0,1,25.065-.4a3.583,3.583,0,0,1-1.424-1.561,4.193,4.193,0,0,1-.382-2.2l.025-.232a5.505,5.505,0,0,1,1.54-3.507,4.26,4.26,0,0,1,3.225-1.241,3.473,3.473,0,0,1,1.976.586,3.275,3.275,0,0,1,1.2,1.571,4.812,4.812,0,0,1,.249,2.249L31.319-3.6H25.974a1.751,1.751,0,0,0,.4,1.146,1.463,1.463,0,0,0,1.112.465,2.827,2.827,0,0,0,2.133-.913L30.763-1.39A3.379,3.379,0,0,1,29.348-.26,4.971,4.971,0,0,1,27.36.166Zm.664-7.155a1.4,1.4,0,0,0-1.009.363,3.049,3.049,0,0,0-.743,1.272h2.731l.05-.24a1.822,1.822,0,0,0,.017-.545A.961.961,0,0,0,27.875-6.989Zm9,6.989a2.435,2.435,0,0,1-.116-.813,2.771,2.771,0,0,1-2.2.979,2.707,2.707,0,0,1-1.942-.78,2.345,2.345,0,0,1-.722-1.851,2.635,2.635,0,0,1,1.22-2.245A5.753,5.753,0,0,1,36.333-5.5l.913.017.1-.506.033-.44a.713.713,0,0,0-.755-.78,1.05,1.05,0,0,0-1.1.988l-2.739.008a2.6,2.6,0,0,1,.589-1.573,3.493,3.493,0,0,1,1.49-1.029,5.206,5.206,0,0,1,2-.336,4.015,4.015,0,0,1,1.789.427A2.663,2.663,0,0,1,39.8-7.6a2.863,2.863,0,0,1,.291,1.656l-.672,4.225-.042.515a2.268,2.268,0,0,0,.158,1.046L39.529,0ZM35.312-1.81a1.761,1.761,0,0,0,1.469-.739l.274-1.444L36.35-4a1.86,1.86,0,0,0-1.129.386,1.464,1.464,0,0,0-.556,1.009.735.735,0,0,0,.129.56A.657.657,0,0,0,35.312-1.81ZM52.793-4.723h1.187l-.374,2.158H52.42L51.972,0H49.241l.448-2.565H45.165l.149-1.843,5.935-7.653v-.058l2.822.042ZM48-4.74l2.059.017.73-3.752Z" transform="translate(427.459 6565.44)"/>
    <path id="Trazado_703830" data-name="Trazado 703830" d="M10.94-9.836H7.421L5.719,0H2.872l1.71-9.836H1.121l.4-2.25h9.812ZM12.643,0a2.435,2.435,0,0,1-.116-.813,2.771,2.771,0,0,1-2.2.979,2.707,2.707,0,0,1-1.942-.78,2.345,2.345,0,0,1-.722-1.851,2.635,2.635,0,0,1,1.22-2.245A5.753,5.753,0,0,1,12.1-5.5l.913.017.1-.506.033-.44a.713.713,0,0,0-.755-.78,1.05,1.05,0,0,0-1.1.988L8.55-6.209A2.6,2.6,0,0,1,9.14-7.782a3.493,3.493,0,0,1,1.49-1.029,5.206,5.206,0,0,1,2-.336,4.015,4.015,0,0,1,1.789.427A2.663,2.663,0,0,1,15.573-7.6a2.863,2.863,0,0,1,.291,1.656l-.672,4.225-.042.515a2.268,2.268,0,0,0,.158,1.046L15.3,0ZM11.082-1.81a1.761,1.761,0,0,0,1.469-.739l.274-1.444L12.12-4a1.86,1.86,0,0,0-1.129.386,1.464,1.464,0,0,0-.556,1.009.735.735,0,0,0,.129.56A.657.657,0,0,0,11.082-1.81ZM22.894-6.45a7.813,7.813,0,0,0-.847-.083,2.109,2.109,0,0,0-1.876.847L19.159,0H16.428l1.561-8.981,2.548-.008-.208,1.179A2.493,2.493,0,0,1,22.4-9.172a3.913,3.913,0,0,1,.847.116ZM27.21.166A4.175,4.175,0,0,1,25.065-.4a3.583,3.583,0,0,1-1.424-1.561,4.193,4.193,0,0,1-.382-2.2l.025-.232a5.505,5.505,0,0,1,1.54-3.507,4.26,4.26,0,0,1,3.225-1.241,3.473,3.473,0,0,1,1.976.586,3.275,3.275,0,0,1,1.2,1.571,4.812,4.812,0,0,1,.249,2.249L31.319-3.6H25.974a1.751,1.751,0,0,0,.4,1.146,1.463,1.463,0,0,0,1.112.465,2.827,2.827,0,0,0,2.133-.913L30.763-1.39A3.379,3.379,0,0,1,29.348-.26,4.971,4.971,0,0,1,27.36.166Zm.664-7.155a1.4,1.4,0,0,0-1.009.363,3.049,3.049,0,0,0-.743,1.272h2.731l.05-.24a1.822,1.822,0,0,0,.017-.545A.961.961,0,0,0,27.875-6.989Zm9,6.989a2.435,2.435,0,0,1-.116-.813,2.771,2.771,0,0,1-2.2.979,2.707,2.707,0,0,1-1.942-.78,2.345,2.345,0,0,1-.722-1.851,2.635,2.635,0,0,1,1.22-2.245A5.753,5.753,0,0,1,36.333-5.5l.913.017.1-.506.033-.44a.713.713,0,0,0-.755-.78,1.05,1.05,0,0,0-1.1.988l-2.739.008a2.6,2.6,0,0,1,.589-1.573,3.493,3.493,0,0,1,1.49-1.029,5.206,5.206,0,0,1,2-.336,4.015,4.015,0,0,1,1.789.427A2.663,2.663,0,0,1,39.8-7.6a2.863,2.863,0,0,1,.291,1.656l-.672,4.225-.042.515a2.268,2.268,0,0,0,.158,1.046L39.529,0ZM35.312-1.81a1.761,1.761,0,0,0,1.469-.739l.274-1.444L36.35-4a1.86,1.86,0,0,0-1.129.386,1.464,1.464,0,0,0-.556,1.009.735.735,0,0,0,.129.56A.657.657,0,0,0,35.312-1.81ZM45.945-5.943l1.677-6.143h6.89l-.349,2.175H49.54L48.8-7.5a3.128,3.128,0,0,1,1.668-.448,2.925,2.925,0,0,1,2.453,1.1,4,4,0,0,1,.71,2.889,4.351,4.351,0,0,1-1.436,3A4.364,4.364,0,0,1,49.083.174a4.241,4.241,0,0,1-1.947-.5,3.429,3.429,0,0,1-1.357-1.291,3.481,3.481,0,0,1-.473-1.83h2.723a1.7,1.7,0,0,0,.324,1.038A1.08,1.08,0,0,0,49.216-2a1.342,1.342,0,0,0,1.129-.51,3.061,3.061,0,0,0,.573-1.631,2.1,2.1,0,0,0-.249-1.4,1.176,1.176,0,0,0-1.038-.477,1.9,1.9,0,0,0-1.469.614Z" transform="translate(426.098 6648.807)"/>
    <path id="Trazado_703831" data-name="Trazado 703831" d="M10.94-9.836H7.421L5.719,0H2.872l1.71-9.836H1.121l.4-2.25h9.812ZM12.643,0a2.435,2.435,0,0,1-.116-.813,2.771,2.771,0,0,1-2.2.979,2.707,2.707,0,0,1-1.942-.78,2.345,2.345,0,0,1-.722-1.851,2.635,2.635,0,0,1,1.22-2.245A5.753,5.753,0,0,1,12.1-5.5l.913.017.1-.506.033-.44a.713.713,0,0,0-.755-.78,1.05,1.05,0,0,0-1.1.988L8.55-6.209A2.6,2.6,0,0,1,9.14-7.782a3.493,3.493,0,0,1,1.49-1.029,5.206,5.206,0,0,1,2-.336,4.015,4.015,0,0,1,1.789.427A2.663,2.663,0,0,1,15.573-7.6a2.863,2.863,0,0,1,.291,1.656l-.672,4.225-.042.515a2.268,2.268,0,0,0,.158,1.046L15.3,0ZM11.082-1.81a1.761,1.761,0,0,0,1.469-.739l.274-1.444L12.12-4a1.86,1.86,0,0,0-1.129.386,1.464,1.464,0,0,0-.556,1.009.735.735,0,0,0,.129.56A.657.657,0,0,0,11.082-1.81ZM22.894-6.45a7.813,7.813,0,0,0-.847-.083,2.109,2.109,0,0,0-1.876.847L19.159,0H16.428l1.561-8.981,2.548-.008-.208,1.179A2.493,2.493,0,0,1,22.4-9.172a3.913,3.913,0,0,1,.847.116ZM27.21.166A4.175,4.175,0,0,1,25.065-.4a3.583,3.583,0,0,1-1.424-1.561,4.193,4.193,0,0,1-.382-2.2l.025-.232a5.505,5.505,0,0,1,1.54-3.507,4.26,4.26,0,0,1,3.225-1.241,3.473,3.473,0,0,1,1.976.586,3.275,3.275,0,0,1,1.2,1.571,4.812,4.812,0,0,1,.249,2.249L31.319-3.6H25.974a1.751,1.751,0,0,0,.4,1.146,1.463,1.463,0,0,0,1.112.465,2.827,2.827,0,0,0,2.133-.913L30.763-1.39A3.379,3.379,0,0,1,29.348-.26,4.971,4.971,0,0,1,27.36.166Zm.664-7.155a1.4,1.4,0,0,0-1.009.363,3.049,3.049,0,0,0-.743,1.272h2.731l.05-.24a1.822,1.822,0,0,0,.017-.545A.961.961,0,0,0,27.875-6.989Zm9,6.989a2.435,2.435,0,0,1-.116-.813,2.771,2.771,0,0,1-2.2.979,2.707,2.707,0,0,1-1.942-.78,2.345,2.345,0,0,1-.722-1.851,2.635,2.635,0,0,1,1.22-2.245A5.753,5.753,0,0,1,36.333-5.5l.913.017.1-.506.033-.44a.713.713,0,0,0-.755-.78,1.05,1.05,0,0,0-1.1.988l-2.739.008a2.6,2.6,0,0,1,.589-1.573,3.493,3.493,0,0,1,1.49-1.029,5.206,5.206,0,0,1,2-.336,4.015,4.015,0,0,1,1.789.427A2.663,2.663,0,0,1,39.8-7.6a2.863,2.863,0,0,1,.291,1.656l-.672,4.225-.042.515a2.268,2.268,0,0,0,.158,1.046L39.529,0ZM35.312-1.81a1.761,1.761,0,0,0,1.469-.739l.274-1.444L36.35-4a1.86,1.86,0,0,0-1.129.386,1.464,1.464,0,0,0-.556,1.009.735.735,0,0,0,.129.56A.657.657,0,0,0,35.312-1.81ZM51.158-13.348l.423,1.411a7.886,7.886,0,0,0-2.507,3.312A17.985,17.985,0,0,0,47.9-3.08l-.042.813q-.125,3.4,1.461,4.624l-.6,1.378a4.533,4.533,0,0,1-1.693-1.5,6.646,6.646,0,0,1-1-2.42,12.21,12.21,0,0,1-.257-2.972,16.33,16.33,0,0,1,.764-4.458A11.36,11.36,0,0,1,48.4-11.256,6.467,6.467,0,0,1,51.158-13.348ZM60.663,0H57.915L55.026-7.628,53.7,0H50.859l2.092-12.086h2.772L58.6-4.458l1.32-7.628h2.839Zm2.158-1.262a1.314,1.314,0,0,1,.432-1.046,1.522,1.522,0,0,1,1.071-.415,1.533,1.533,0,0,1,1.046.378,1.3,1.3,0,0,1,.448.984A1.328,1.328,0,0,1,65.394-.32,1.505,1.505,0,0,1,64.315.1a1.515,1.515,0,0,1-1.054-.382A1.312,1.312,0,0,1,62.821-1.262Zm5.063,0a1.314,1.314,0,0,1,.432-1.046,1.522,1.522,0,0,1,1.071-.415,1.533,1.533,0,0,1,1.046.378,1.3,1.3,0,0,1,.448.984A1.328,1.328,0,0,1,70.458-.32,1.505,1.505,0,0,1,69.378.1a1.515,1.515,0,0,1-1.054-.382A1.312,1.312,0,0,1,67.884-1.262Zm5.063,0a1.314,1.314,0,0,1,.432-1.046,1.522,1.522,0,0,1,1.071-.415,1.533,1.533,0,0,1,1.046.378,1.3,1.3,0,0,1,.448.984A1.328,1.328,0,0,1,75.521-.32,1.505,1.505,0,0,1,74.442.1a1.515,1.515,0,0,1-1.054-.382A1.312,1.312,0,0,1,72.948-1.262ZM82.7-4.723A14.148,14.148,0,0,1,81.659-.942a10.33,10.33,0,0,1-1.9,2.988,6.525,6.525,0,0,1-2.486,1.706l-.423-1.411A8.17,8.17,0,0,0,79.36-1a17.692,17.692,0,0,0,1.175-5.52l.05-.813q.083-3.412-1.469-4.615l.606-1.378a4.855,4.855,0,0,1,2.241,2.353,9.765,9.765,0,0,1,.863,4l.008.523a14,14,0,0,1-.108,1.5Z" transform="translate(414.655 6726.817)"/>
    <path id="Trazado_703827" data-name="Trazado 703827" d="M4.49,0H2.675V-5.779L.892-5.258V-6.633L4.324-7.82H4.49Z" transform="translate(540.878 6256.664)"/>
    <path id="Trazado_703832" data-name="Trazado 703832" d="M5.935,0H.478V-1.182L2.992-3.824a3,3,0,0,0,.929-1.681,1.169,1.169,0,0,0-.22-.768.786.786,0,0,0-.639-.263.8.8,0,0,0-.671.352,1.446,1.446,0,0,0-.258.878H.317a2.568,2.568,0,0,1,.36-1.329,2.524,2.524,0,0,1,1-.953A2.968,2.968,0,0,1,3.1-7.933a2.919,2.919,0,0,1,1.952.585,2.09,2.09,0,0,1,.685,1.681,2.441,2.441,0,0,1-.172.9,3.945,3.945,0,0,1-.534.918A13.462,13.462,0,0,1,3.867-2.562L2.857-1.4H5.935Z" transform="translate(564.44 6256.664)"/>
    <path id="Trazado_703834" data-name="Trazado 703834" d="M5.258-3.056h.795v1.4H5.258V0H3.448V-1.66H.424L.317-2.766,3.448-7.8V-7.82h1.81Zm-3.217,0H3.448V-5.462l-.113.183Z" transform="translate(615.537 6256.664)"/>
    <path id="Trazado_703836" data-name="Trazado 703836" d="M4.85-7.933V-6.51H4.77A2.717,2.717,0,0,0,3.1-6.024a2.052,2.052,0,0,0-.8,1.351,2.117,2.117,0,0,1,1.547-.6,1.974,1.974,0,0,1,1.617.741,2.99,2.99,0,0,1,.6,1.944,2.738,2.738,0,0,1-.352,1.37,2.51,2.51,0,0,1-.983.975,2.824,2.824,0,0,1-1.4.352A2.919,2.919,0,0,1,1.842-.271,2.6,2.6,0,0,1,.822-1.354,3.564,3.564,0,0,1,.446-2.976V-3.7A4.515,4.515,0,0,1,.964-5.873a3.758,3.758,0,0,1,1.48-1.512,4.231,4.231,0,0,1,2.132-.548ZM3.217-3.889a1.036,1.036,0,0,0-.6.167,1.057,1.057,0,0,0-.36.408v.542q0,1.482,1.026,1.482a.832.832,0,0,0,.69-.371,1.51,1.51,0,0,0,.277-.929,1.483,1.483,0,0,0-.282-.937A.9.9,0,0,0,3.217-3.889Z" transform="translate(665.632 6256.664)"/>
    <path id="Trazado_703838" data-name="Trazado 703838" d="M5.752-5.731a1.805,1.805,0,0,1-.282,1,2.054,2.054,0,0,1-.776.7,2.26,2.26,0,0,1,.886.749,1.933,1.933,0,0,1,.328,1.125A2.047,2.047,0,0,1,5.186-.5,3,3,0,0,1,3.2.107,3.055,3.055,0,0,1,1.187-.5,2.032,2.032,0,0,1,.451-2.154,1.958,1.958,0,0,1,.773-3.266a2.191,2.191,0,0,1,.913-.763,2.065,2.065,0,0,1-.784-.7,1.793,1.793,0,0,1-.285-1,2.007,2.007,0,0,1,.693-1.611A2.785,2.785,0,0,1,3.18-7.933a2.8,2.8,0,0,1,1.88.591A2.007,2.007,0,0,1,5.752-5.731ZM4.093-2.3a1.032,1.032,0,0,0-.25-.744.87.87,0,0,0-.658-.26.878.878,0,0,0-.661.26,1.026,1.026,0,0,0-.252.744,1.035,1.035,0,0,0,.255.739.876.876,0,0,0,.669.271.841.841,0,0,0,.65-.269A1.053,1.053,0,0,0,4.093-2.3ZM3.18-6.537a.669.669,0,0,0-.556.239,1.037,1.037,0,0,0-.191.663,1.1,1.1,0,0,0,.193.677A.667.667,0,0,0,3.2-4.7a.64.64,0,0,0,.556-.258,1.134,1.134,0,0,0,.185-.677,1.04,1.04,0,0,0-.191-.661A.678.678,0,0,0,3.18-6.537Z" transform="translate(714.889 6256.664)"/>
    <path id="Trazado_703840" data-name="Trazado 703840" d="M4.082,0H2.432V-5.254L.811-4.78V-6.03l3.12-1.079h.151Zm7.08-2.905a3.4,3.4,0,0,1-.647,2.222A2.236,2.236,0,0,1,8.691.1,2.248,2.248,0,0,1,6.855-.688a3.389,3.389,0,0,1-.649-2.217V-4.2a3.4,3.4,0,0,1,.647-2.222,2.241,2.241,0,0,1,1.829-.781,2.242,2.242,0,0,1,1.831.786A3.4,3.4,0,0,1,11.162-4.2ZM9.517-4.414a2.536,2.536,0,0,0-.2-1.145.669.669,0,0,0-.635-.378.653.653,0,0,0-.618.352,2.389,2.389,0,0,0-.208,1.064v1.816a2.555,2.555,0,0,0,.2,1.165.672.672,0,0,0,.635.369.663.663,0,0,0,.62-.359,2.439,2.439,0,0,0,.205-1.125Z" transform="translate(759.858 6256.664)"/>
    <g id="Grupo_974411" data-name="Grupo 974411" transform="translate(370 6210)">
      <g id="Grupo_974410" data-name="Grupo 974410" clip-path="url(#clip-path)">
        <rect id="Rectángulo_340273" data-name="Rectángulo 340273" width="23.744" height="515.353" transform="translate(211.341 25.805)" fill="#ccc"/>
      </g>
    </g>
    <path id="Trazado_703833" data-name="Trazado 703833" d="M2.132-4.667h.854A.888.888,0,0,0,4-5.661a.859.859,0,0,0-.242-.631.917.917,0,0,0-.682-.244.981.981,0,0,0-.626.209.639.639,0,0,0-.266.521H.376a1.853,1.853,0,0,1,.344-1.1,2.27,2.27,0,0,1,.953-.755,3.26,3.26,0,0,1,1.34-.271,3.2,3.2,0,0,1,2.052.6A1.982,1.982,0,0,1,5.812-5.7a1.652,1.652,0,0,1-.309.953,2.2,2.2,0,0,1-.9.728,2.1,2.1,0,0,1,.978.685A1.8,1.8,0,0,1,5.935-2.2,2.018,2.018,0,0,1,5.129-.521,3.344,3.344,0,0,1,3.013.107,3.468,3.468,0,0,1,1.587-.185,2.234,2.234,0,0,1,.591-1,2.109,2.109,0,0,1,.252-2.175H2.073a.815.815,0,0,0,.29.623,1.024,1.024,0,0,0,.714.263,1.073,1.073,0,0,0,.763-.266.889.889,0,0,0,.285-.679,1.039,1.039,0,0,0-.3-.838,1.235,1.235,0,0,0-.816-.247H2.132Z" transform="translate(590.28 6256.664)"/>
    <g id="Grupo_974413" data-name="Grupo 974413" transform="translate(370 6210)">
      <g id="Grupo_974412" data-name="Grupo 974412" clip-path="url(#clip-path)">
        <rect id="Rectángulo_340275" data-name="Rectángulo 340275" width="23.744" height="515.353" transform="translate(260.743 25.805)" fill="#ccc"/>
      </g>
    </g>
    <path id="Trazado_703835" data-name="Trazado 703835" d="M.585-3.82l.478-4H5.634v1.407h-3.1L2.358-4.86a2.135,2.135,0,0,1,.508-.2,2.316,2.316,0,0,1,.615-.086,2.294,2.294,0,0,1,1.791.69A2.78,2.78,0,0,1,5.9-2.519a2.775,2.775,0,0,1-.336,1.362,2.307,2.307,0,0,1-.943.937A2.976,2.976,0,0,1,3.185.107,3.2,3.2,0,0,1,1.8-.2a2.476,2.476,0,0,1-1.01-.832,2.021,2.021,0,0,1-.36-1.194H2.25a1.027,1.027,0,0,0,.274.681.869.869,0,0,0,.65.252q.913,0,.913-1.351,0-1.249-1.117-1.249a1.115,1.115,0,0,0-.945.407Z" transform="translate(639.681 6256.664)"/>
    <g id="Grupo_974415" data-name="Grupo 974415" transform="translate(370 6210)">
      <g id="Grupo_974414" data-name="Grupo 974414" clip-path="url(#clip-path)">
        <rect id="Rectángulo_340277" data-name="Rectángulo 340277" width="23.744" height="515.353" transform="translate(310.144 25.805)" fill="#ccc"/>
      </g>
    </g>
    <path id="Trazado_703837" data-name="Trazado 703837" d="M5.914-6.854,2.992,0H1.08L4.007-6.424H.279v-1.4H5.914Z" transform="translate(689.082 6256.664)"/>
    <g id="Grupo_974417" data-name="Grupo 974417" transform="translate(370 6210)">
      <g id="Grupo_974416" data-name="Grupo 974416" clip-path="url(#clip-path)">
        <rect id="Rectángulo_340279" data-name="Rectángulo 340279" width="23.744" height="515.353" transform="translate(359.544 25.805)" fill="#ccc"/>
      </g>
    </g>
    <path id="Trazado_703839" data-name="Trazado 703839" d="M4.044-3.024A1.912,1.912,0,0,1,2.734-2.5a2.116,2.116,0,0,1-1.687-.72A2.836,2.836,0,0,1,.424-5.14a2.886,2.886,0,0,1,.349-1.4,2.62,2.62,0,0,1,.98-1.021,2.672,2.672,0,0,1,1.394-.376,2.594,2.594,0,0,1,1.4.389,2.622,2.622,0,0,1,.975,1.1A3.782,3.782,0,0,1,5.881-4.8v.693a4.7,4.7,0,0,1-.508,2.245A3.5,3.5,0,0,1,3.926-.4a4.523,4.523,0,0,1-2.191.51H1.622v-1.45l.344-.005Q3.835-1.439,4.044-3.024ZM3.223-3.8a.881.881,0,0,0,.849-.51v-.752a1.955,1.955,0,0,0-.252-1.112.792.792,0,0,0-.682-.36.748.748,0,0,0-.639.408,1.813,1.813,0,0,0-.258.988,1.626,1.626,0,0,0,.263.975A.842.842,0,0,0,3.223-3.8Z" transform="translate(738.482 6256.664)"/>
    <g id="Grupo_974419" data-name="Grupo 974419" transform="translate(370 6210)">
      <g id="Grupo_974418" data-name="Grupo 974418" clip-path="url(#clip-path)">
        <rect id="Rectángulo_340281" data-name="Rectángulo 340281" width="23.744" height="515.353" transform="translate(408.945 25.805)" fill="#ccc"/>
      </g>
    </g>
    <path id="Trazado_703841" data-name="Trazado 703841" d="M4.082,0H2.432V-5.254L.811-4.78V-6.03l3.12-1.079h.151ZM9.873,0H8.223V-5.254L6.6-4.78V-6.03l3.12-1.079h.151Z" transform="translate(783.803 6256.664)"/>
    <path id="Trazado_703842" data-name="Trazado 703842" d="M4.082,0H2.432V-5.254L.811-4.78V-6.03l3.12-1.079h.151Zm7.1,0H6.226V-1.074l2.285-2.4A2.727,2.727,0,0,0,9.355-5a1.063,1.063,0,0,0-.2-.7.715.715,0,0,0-.581-.239.724.724,0,0,0-.61.32,1.314,1.314,0,0,0-.234.8H6.079a2.335,2.335,0,0,1,.327-1.208A2.294,2.294,0,0,1,7.314-6.9a2.7,2.7,0,0,1,1.3-.312,2.654,2.654,0,0,1,1.775.532,1.9,1.9,0,0,1,.623,1.528,2.219,2.219,0,0,1-.156.818,3.587,3.587,0,0,1-.486.835A12.238,12.238,0,0,1,9.307-2.329L8.389-1.27h2.8Z" transform="translate(808.726 6256.664)"/>
    <g id="Grupo_974421" data-name="Grupo 974421" transform="translate(370 6210)">
      <g id="Grupo_974420" data-name="Grupo 974420" clip-path="url(#clip-path)">
        <rect id="Rectángulo_340283" data-name="Rectángulo 340283" width="23.744" height="515.353" transform="translate(458.347 25.805)" fill="#ccc"/>
      </g>
    </g>
    <path id="Trazado_703843" data-name="Trazado 703843" d="M4.082,0H2.432V-5.254L.811-4.78V-6.03l3.12-1.079h.151ZM7.729-4.243h.776a.807.807,0,0,0,.923-.9.781.781,0,0,0-.22-.574.833.833,0,0,0-.62-.222.892.892,0,0,0-.569.19.581.581,0,0,0-.242.474H6.133a1.684,1.684,0,0,1,.313-1,2.064,2.064,0,0,1,.867-.686A2.963,2.963,0,0,1,8.53-7.212,2.912,2.912,0,0,1,10.4-6.67a1.8,1.8,0,0,1,.679,1.489,1.5,1.5,0,0,1-.281.867,2,2,0,0,1-.818.662,1.911,1.911,0,0,1,.889.623A1.64,1.64,0,0,1,11.187-2a1.834,1.834,0,0,1-.732,1.523A3.04,3.04,0,0,1,8.53.1a3.153,3.153,0,0,1-1.3-.266,2.031,2.031,0,0,1-.906-.737,1.917,1.917,0,0,1-.308-1.072H7.676a.741.741,0,0,0,.264.566.931.931,0,0,0,.649.239.975.975,0,0,0,.693-.242.808.808,0,0,0,.259-.618.944.944,0,0,0-.269-.762,1.123,1.123,0,0,0-.742-.225h-.8Z" transform="translate(834.564 6256.664)"/>
    <path id="Trazado_703844" data-name="Trazado 703844" d="M4.082,0H2.432V-5.254L.811-4.78V-6.03l3.12-1.079h.151Zm6.489-2.778h.723v1.27h-.723V0H8.926V-1.509H6.177l-.1-1.006,2.847-4.58v-.015h1.646Zm-2.925,0H8.926V-4.966l-.1.166Z" transform="translate(858.485 6256.664)"/>
    <g id="Grupo_974423" data-name="Grupo 974423" transform="translate(370 6210)">
      <g id="Grupo_974422" data-name="Grupo 974422" clip-path="url(#clip-path)">
        <rect id="Rectángulo_340285" data-name="Rectángulo 340285" width="23.744" height="515.353" transform="translate(507.748 25.805)" fill="#ccc"/>
      </g>
    </g>
    <path id="Trazado_703845" data-name="Trazado 703845" d="M4.082,0H2.432V-5.254L.811-4.78V-6.03l3.12-1.079h.151ZM6.323-3.473l.435-3.637h4.155V-5.83H8.1L7.935-4.418A1.941,1.941,0,0,1,8.4-4.6a2.105,2.105,0,0,1,.559-.078,2.086,2.086,0,0,1,1.628.627,2.527,2.527,0,0,1,.569,1.76,2.523,2.523,0,0,1-.305,1.238A2.1,2.1,0,0,1,9.99-.2a2.705,2.705,0,0,1-1.3.3A2.911,2.911,0,0,1,7.432-.178a2.251,2.251,0,0,1-.918-.756A1.838,1.838,0,0,1,6.187-2.02h1.65a.933.933,0,0,0,.249.619.79.79,0,0,0,.591.229q.83,0,.83-1.228,0-1.135-1.016-1.135a1.013,1.013,0,0,0-.859.37Z" transform="translate(883.965 6256.664)"/>
    <path id="Trazado_703846" data-name="Trazado 703846" d="M4.082,0H2.432V-5.254L.811-4.78V-6.03l3.12-1.079h.151ZM10.2-7.212v1.294h-.073a2.47,2.47,0,0,0-1.516.442,1.866,1.866,0,0,0-.73,1.228,1.924,1.924,0,0,1,1.406-.547,1.8,1.8,0,0,1,1.47.674A2.718,2.718,0,0,1,11.3-2.354a2.489,2.489,0,0,1-.32,1.245,2.282,2.282,0,0,1-.894.886A2.568,2.568,0,0,1,8.818.1,2.654,2.654,0,0,1,7.466-.247a2.367,2.367,0,0,1-.928-.984A3.24,3.24,0,0,1,6.2-2.705v-.659a4.1,4.1,0,0,1,.471-1.975A3.416,3.416,0,0,1,8.013-6.714a3.846,3.846,0,0,1,1.938-.5ZM8.716-3.535a.941.941,0,0,0-.547.151.961.961,0,0,0-.327.371v.493q0,1.348.933,1.348A.757.757,0,0,0,9.4-1.509a1.373,1.373,0,0,0,.251-.845A1.348,1.348,0,0,0,9.4-3.206.82.82,0,0,0,8.716-3.535Z" transform="translate(907.853 6256.664)"/>
    <g id="Grupo_974425" data-name="Grupo 974425" transform="translate(370 6210)">
      <g id="Grupo_974424" data-name="Grupo 974424" clip-path="url(#clip-path)">
        <rect id="Rectángulo_340287" data-name="Rectángulo 340287" width="23.744" height="515.353" transform="translate(557.148 25.805)" fill="#ccc"/>
      </g>
    </g>
    <path id="Trazado_703847" data-name="Trazado 703847" d="M4.082,0H2.432V-5.254L.811-4.78V-6.03l3.12-1.079h.151Zm7.085-6.23L8.511,0H6.772L9.434-5.84H6.045v-1.27h5.122Z" transform="translate(932.005 6256.664)"/>
    <path id="Trazado_703848" data-name="Trazado 703848" d="M4.082,0H2.432V-5.254L.811-4.78V-6.03l3.12-1.079h.151Zm6.938-5.21a1.641,1.641,0,0,1-.256.913,1.867,1.867,0,0,1-.706.635,2.055,2.055,0,0,1,.806.681,1.758,1.758,0,0,1,.3,1.023,1.861,1.861,0,0,1-.657,1.5A2.727,2.727,0,0,1,8.7.1,2.777,2.777,0,0,1,6.87-.457a1.847,1.847,0,0,1-.669-1.5,1.78,1.78,0,0,1,.293-1.011,1.992,1.992,0,0,1,.83-.693A1.878,1.878,0,0,1,6.611-4.3a1.63,1.63,0,0,1-.259-.913,1.824,1.824,0,0,1,.63-1.465,2.532,2.532,0,0,1,1.7-.537,2.548,2.548,0,0,1,1.709.537A1.824,1.824,0,0,1,11.021-5.21ZM9.512-2.09a.939.939,0,0,0-.227-.676A.791.791,0,0,0,8.687-3a.8.8,0,0,0-.6.237.932.932,0,0,0-.229.676.94.94,0,0,0,.232.671.8.8,0,0,0,.608.247.765.765,0,0,0,.591-.244A.957.957,0,0,0,9.512-2.09Zm-.83-3.853a.608.608,0,0,0-.505.217.943.943,0,0,0-.173.6,1,1,0,0,0,.176.615.606.606,0,0,0,.518.234A.582.582,0,0,0,9.2-4.507a1.031,1.031,0,0,0,.168-.615.945.945,0,0,0-.173-.6A.616.616,0,0,0,8.682-5.942Z" transform="translate(956.481 6256.664)"/>
    <g id="Grupo_974427" data-name="Grupo 974427" transform="translate(370 6210)">
      <g id="Grupo_974426" data-name="Grupo 974426" clip-path="url(#clip-path)">
        <rect id="Rectángulo_340289" data-name="Rectángulo 340289" width="23.744" height="515.353" transform="translate(606.55 25.805)" fill="#ccc"/>
      </g>
    </g>
    <path id="Trazado_703849" data-name="Trazado 703849" d="M4.082,0H2.432V-5.254L.811-4.78V-6.03l3.12-1.079h.151ZM9.468-2.749a1.738,1.738,0,0,1-1.191.479,1.924,1.924,0,0,1-1.533-.654,2.578,2.578,0,0,1-.566-1.748,2.623,2.623,0,0,1,.317-1.27,2.381,2.381,0,0,1,.891-.928,2.429,2.429,0,0,1,1.267-.342,2.358,2.358,0,0,1,1.272.354,2.383,2.383,0,0,1,.886,1,3.438,3.438,0,0,1,.327,1.492v.63a4.274,4.274,0,0,1-.461,2.041A3.185,3.185,0,0,1,9.36-.366,4.112,4.112,0,0,1,7.368.1h-.1V-1.221l.313,0Q9.277-1.309,9.468-2.749Zm-.747-.708a.8.8,0,0,0,.771-.464V-4.6a1.777,1.777,0,0,0-.229-1.011.72.72,0,0,0-.62-.327.68.68,0,0,0-.581.371,1.649,1.649,0,0,0-.234.9,1.478,1.478,0,0,0,.239.886A.765.765,0,0,0,8.721-3.457Z" transform="translate(981.407 6256.664)"/>
    <path id="Trazado_703850" data-name="Trazado 703850" d="M5.4,0H.435V-1.074l2.285-2.4A2.727,2.727,0,0,0,3.564-5a1.063,1.063,0,0,0-.2-.7.715.715,0,0,0-.581-.239.724.724,0,0,0-.61.32,1.314,1.314,0,0,0-.234.8H.288A2.335,2.335,0,0,1,.615-6.033,2.294,2.294,0,0,1,1.523-6.9a2.7,2.7,0,0,1,1.3-.312A2.654,2.654,0,0,1,4.6-6.68,1.9,1.9,0,0,1,5.22-5.151a2.219,2.219,0,0,1-.156.818,3.587,3.587,0,0,1-.486.835A12.238,12.238,0,0,1,3.516-2.329L2.6-1.27H5.4Zm5.767-2.905a3.4,3.4,0,0,1-.647,2.222A2.236,2.236,0,0,1,8.691.1,2.248,2.248,0,0,1,6.855-.688a3.389,3.389,0,0,1-.649-2.217V-4.2a3.4,3.4,0,0,1,.647-2.222,2.241,2.241,0,0,1,1.829-.781,2.242,2.242,0,0,1,1.831.786A3.4,3.4,0,0,1,11.162-4.2ZM9.517-4.414a2.536,2.536,0,0,0-.2-1.145.669.669,0,0,0-.635-.378.653.653,0,0,0-.618.352,2.389,2.389,0,0,0-.208,1.064v1.816a2.555,2.555,0,0,0,.2,1.165.672.672,0,0,0,.635.369.663.663,0,0,0,.62-.359,2.439,2.439,0,0,0,.205-1.125Z" transform="translate(1006.493 6256.664)"/>
    <g id="Grupo_974429" data-name="Grupo 974429" transform="translate(370 6210)">
      <g id="Grupo_974428" data-name="Grupo 974428" clip-path="url(#clip-path)">
        <rect id="Rectángulo_340291" data-name="Rectángulo 340291" width="23.744" height="515.353" transform="translate(655.951 25.805)" fill="#ccc"/>
      </g>
    </g>
    <path id="Trazado_703851" data-name="Trazado 703851" d="M5.4,0H.435V-1.074l2.285-2.4A2.727,2.727,0,0,0,3.564-5a1.063,1.063,0,0,0-.2-.7.715.715,0,0,0-.581-.239.724.724,0,0,0-.61.32,1.314,1.314,0,0,0-.234.8H.288A2.335,2.335,0,0,1,.615-6.033,2.294,2.294,0,0,1,1.523-6.9a2.7,2.7,0,0,1,1.3-.312A2.654,2.654,0,0,1,4.6-6.68,1.9,1.9,0,0,1,5.22-5.151a2.219,2.219,0,0,1-.156.818,3.587,3.587,0,0,1-.486.835A12.238,12.238,0,0,1,3.516-2.329L2.6-1.27H5.4ZM9.873,0H8.223V-5.254L6.6-4.78V-6.03l3.12-1.079h.151Z" transform="translate(1032.168 6256.664)"/>
    <path id="Trazado_703852" data-name="Trazado 703852" d="M5.4,0H.435V-1.074l2.285-2.4A2.727,2.727,0,0,0,3.564-5a1.063,1.063,0,0,0-.2-.7.715.715,0,0,0-.581-.239.724.724,0,0,0-.61.32,1.314,1.314,0,0,0-.234.8H.288A2.335,2.335,0,0,1,.615-6.033,2.294,2.294,0,0,1,1.523-6.9a2.7,2.7,0,0,1,1.3-.312A2.654,2.654,0,0,1,4.6-6.68,1.9,1.9,0,0,1,5.22-5.151a2.219,2.219,0,0,1-.156.818,3.587,3.587,0,0,1-.486.835A12.238,12.238,0,0,1,3.516-2.329L2.6-1.27H5.4Zm5.791,0H6.226V-1.074l2.285-2.4A2.727,2.727,0,0,0,9.355-5a1.063,1.063,0,0,0-.2-.7.715.715,0,0,0-.581-.239.724.724,0,0,0-.61.32,1.314,1.314,0,0,0-.234.8H6.079a2.335,2.335,0,0,1,.327-1.208A2.294,2.294,0,0,1,7.314-6.9a2.7,2.7,0,0,1,1.3-.312,2.654,2.654,0,0,1,1.775.532,1.9,1.9,0,0,1,.623,1.528,2.219,2.219,0,0,1-.156.818,3.587,3.587,0,0,1-.486.835A12.238,12.238,0,0,1,9.307-2.329L8.389-1.27h2.8Z" transform="translate(1057.188 6256.664)"/>
    <g id="Grupo_974431" data-name="Grupo 974431" transform="translate(370 6210)">
      <g id="Grupo_974430" data-name="Grupo 974430" clip-path="url(#clip-path)">
        <rect id="Rectángulo_340293" data-name="Rectángulo 340293" width="23.744" height="515.353" transform="translate(705.351 25.805)" fill="#ccc"/>
      </g>
    </g>
    <path id="Trazado_703853" data-name="Trazado 703853" d="M5.4,0H.435V-1.074l2.285-2.4A2.727,2.727,0,0,0,3.564-5a1.063,1.063,0,0,0-.2-.7.715.715,0,0,0-.581-.239.724.724,0,0,0-.61.32,1.314,1.314,0,0,0-.234.8H.288A2.335,2.335,0,0,1,.615-6.033,2.294,2.294,0,0,1,1.523-6.9a2.7,2.7,0,0,1,1.3-.312A2.654,2.654,0,0,1,4.6-6.68,1.9,1.9,0,0,1,5.22-5.151a2.219,2.219,0,0,1-.156.818,3.587,3.587,0,0,1-.486.835A12.238,12.238,0,0,1,3.516-2.329L2.6-1.27H5.4ZM7.729-4.243h.776a.807.807,0,0,0,.923-.9.781.781,0,0,0-.22-.574.833.833,0,0,0-.62-.222.892.892,0,0,0-.569.19.581.581,0,0,0-.242.474H6.133a1.684,1.684,0,0,1,.313-1,2.064,2.064,0,0,1,.867-.686A2.963,2.963,0,0,1,8.53-7.212,2.912,2.912,0,0,1,10.4-6.67a1.8,1.8,0,0,1,.679,1.489,1.5,1.5,0,0,1-.281.867,2,2,0,0,1-.818.662,1.911,1.911,0,0,1,.889.623A1.64,1.64,0,0,1,11.187-2a1.834,1.834,0,0,1-.732,1.523A3.04,3.04,0,0,1,8.53.1a3.153,3.153,0,0,1-1.3-.266,2.031,2.031,0,0,1-.906-.737,1.917,1.917,0,0,1-.308-1.072H7.676a.741.741,0,0,0,.264.566.931.931,0,0,0,.649.239.975.975,0,0,0,.693-.242.808.808,0,0,0,.259-.618.944.944,0,0,0-.269-.762,1.123,1.123,0,0,0-.742-.225h-.8Z" transform="translate(1081.569 6256.664)"/>
    <path id="Trazado_703854" data-name="Trazado 703854" d="M5.4,0H.435V-1.074l2.285-2.4A2.727,2.727,0,0,0,3.564-5a1.063,1.063,0,0,0-.2-.7.715.715,0,0,0-.581-.239.724.724,0,0,0-.61.32,1.314,1.314,0,0,0-.234.8H.288A2.335,2.335,0,0,1,.615-6.033,2.294,2.294,0,0,1,1.523-6.9a2.7,2.7,0,0,1,1.3-.312A2.654,2.654,0,0,1,4.6-6.68,1.9,1.9,0,0,1,5.22-5.151a2.219,2.219,0,0,1-.156.818,3.587,3.587,0,0,1-.486.835A12.238,12.238,0,0,1,3.516-2.329L2.6-1.27H5.4Zm5.176-2.778h.723v1.27h-.723V0H8.926V-1.509H6.177l-.1-1.006,2.847-4.58v-.015h1.646Zm-2.925,0H8.926V-4.966l-.1.166Z" transform="translate(1105.882 6256.664)"/>
    <g id="Grupo_974433" data-name="Grupo 974433" transform="translate(370 6210)">
      <g id="Grupo_974432" data-name="Grupo 974432" clip-path="url(#clip-path)">
        <rect id="Rectángulo_340295" data-name="Rectángulo 340295" width="23.744" height="515.353" transform="translate(754.752 25.805)" fill="#ccc"/>
      </g>
    </g>
    <path id="Trazado_703855" data-name="Trazado 703855" d="M5.4,0H.435V-1.074l2.285-2.4A2.727,2.727,0,0,0,3.564-5a1.063,1.063,0,0,0-.2-.7.715.715,0,0,0-.581-.239.724.724,0,0,0-.61.32,1.314,1.314,0,0,0-.234.8H.288A2.335,2.335,0,0,1,.615-6.033,2.294,2.294,0,0,1,1.523-6.9a2.7,2.7,0,0,1,1.3-.312A2.654,2.654,0,0,1,4.6-6.68,1.9,1.9,0,0,1,5.22-5.151a2.219,2.219,0,0,1-.156.818,3.587,3.587,0,0,1-.486.835A12.238,12.238,0,0,1,3.516-2.329L2.6-1.27H5.4Zm.928-3.473.435-3.637h4.155V-5.83H8.1L7.935-4.418A1.941,1.941,0,0,1,8.4-4.6a2.105,2.105,0,0,1,.559-.078,2.086,2.086,0,0,1,1.628.627,2.527,2.527,0,0,1,.569,1.76,2.523,2.523,0,0,1-.305,1.238A2.1,2.1,0,0,1,9.99-.2a2.705,2.705,0,0,1-1.3.3A2.911,2.911,0,0,1,7.432-.178a2.251,2.251,0,0,1-.918-.756A1.838,1.838,0,0,1,6.187-2.02h1.65a.933.933,0,0,0,.249.619.79.79,0,0,0,.591.229q.83,0,.83-1.228,0-1.135-1.016-1.135a1.013,1.013,0,0,0-.859.37Z" transform="translate(1130.969 6256.664)"/>
    <path id="Trazado_703856" data-name="Trazado 703856" d="M5.4,0H.435V-1.074l2.285-2.4A2.727,2.727,0,0,0,3.564-5a1.063,1.063,0,0,0-.2-.7.715.715,0,0,0-.581-.239.724.724,0,0,0-.61.32,1.314,1.314,0,0,0-.234.8H.288A2.335,2.335,0,0,1,.615-6.033,2.294,2.294,0,0,1,1.523-6.9a2.7,2.7,0,0,1,1.3-.312A2.654,2.654,0,0,1,4.6-6.68,1.9,1.9,0,0,1,5.22-5.151a2.219,2.219,0,0,1-.156.818,3.587,3.587,0,0,1-.486.835A12.238,12.238,0,0,1,3.516-2.329L2.6-1.27H5.4Zm4.8-7.212v1.294h-.073a2.47,2.47,0,0,0-1.516.442,1.866,1.866,0,0,0-.73,1.228,1.924,1.924,0,0,1,1.406-.547,1.8,1.8,0,0,1,1.47.674A2.718,2.718,0,0,1,11.3-2.354a2.489,2.489,0,0,1-.32,1.245,2.282,2.282,0,0,1-.894.886A2.568,2.568,0,0,1,8.818.1,2.654,2.654,0,0,1,7.466-.247a2.367,2.367,0,0,1-.928-.984A3.24,3.24,0,0,1,6.2-2.705v-.659a4.1,4.1,0,0,1,.471-1.975A3.416,3.416,0,0,1,8.013-6.714a3.846,3.846,0,0,1,1.938-.5ZM8.716-3.535a.941.941,0,0,0-.547.151.961.961,0,0,0-.327.371v.493q0,1.348.933,1.348A.757.757,0,0,0,9.4-1.509a1.373,1.373,0,0,0,.251-.845A1.348,1.348,0,0,0,9.4-3.206.82.82,0,0,0,8.716-3.535Z" transform="translate(1155.772 6256.664)"/>
    <text id="_26" data-name="26" transform="translate(1181.761 6256.664)" font-size="10" font-family="Roboto-Black, Roboto" font-weight="800"><tspan x="0" y="0">26</tspan></text>
    <g id="Grupo_974435" data-name="Grupo 974435" transform="translate(370 6210)">
      <g id="Grupo_974434" data-name="Grupo 974434" clip-path="url(#clip-path)">
        <rect id="Rectángulo_340297" data-name="Rectángulo 340297" width="23.744" height="515.353" transform="translate(804.154 25.805)" fill="#ccc"/>
      </g>
    </g>
    <path id="Trazado_703857" data-name="Trazado 703857" d="M5.4,0H.435V-1.074l2.285-2.4A2.727,2.727,0,0,0,3.564-5a1.063,1.063,0,0,0-.2-.7.715.715,0,0,0-.581-.239.724.724,0,0,0-.61.32,1.314,1.314,0,0,0-.234.8H.288A2.335,2.335,0,0,1,.615-6.033,2.294,2.294,0,0,1,1.523-6.9a2.7,2.7,0,0,1,1.3-.312A2.654,2.654,0,0,1,4.6-6.68,1.9,1.9,0,0,1,5.22-5.151a2.219,2.219,0,0,1-.156.818,3.587,3.587,0,0,1-.486.835A12.238,12.238,0,0,1,3.516-2.329L2.6-1.27H5.4Zm5.771-6.23L8.511,0H6.772L9.434-5.84H6.045v-1.27h5.122Z" transform="translate(1180.371 6256.664)"/>
    <g id="Grupo_974437" data-name="Grupo 974437" transform="translate(370 6210)">
      <g id="Grupo_974436" data-name="Grupo 974436" clip-path="url(#clip-path)">
        <path id="Trazado_700825" data-name="Trazado 700825" d="M630.866,89.66H128.116a9.5,9.5,0,0,1-9.5-9.5V77.12a9.5,9.5,0,0,1,9.5-9.5h502.75a9.5,9.5,0,0,1,9.5,9.5v3.042a9.5,9.5,0,0,1-9.5,9.5" transform="translate(42.749 24.37)" fill="#06d1d1"/>
        <path id="Trazado_700826" data-name="Trazado 700826" d="M504.659,89.772H126a9.5,9.5,0,0,1-9.5-9.5v-3.04a9.5,9.5,0,0,1,9.5-9.5H504.659a9.5,9.5,0,0,1,9.5,9.5v3.04a9.5,9.5,0,0,1-9.5,9.5" transform="translate(41.986 24.41)" fill="#00a5a0"/>
        <path id="Trazado_700827" data-name="Trazado 700827" d="M574.571,152.614H201.492a11.218,11.218,0,0,1,0-22.422H574.571a11.218,11.218,0,0,1,0,22.422" transform="translate(68.722 46.114)" fill="#8a3d02"/>
        <path id="Trazado_700828" data-name="Trazado 700828" d="M504.838,151.214H201.492a10.808,10.808,0,0,1,0-21.615H504.838a10.808,10.808,0,1,1,0,21.615" transform="translate(68.722 46.707)" fill="#702f03"/>
        <path id="Trazado_700829" data-name="Trazado 700829" d="M580.632,211.451H274.89a11.021,11.021,0,0,1,0-22.041H580.632a11.021,11.021,0,0,1,0,22.041" transform="translate(95.098 68.262)" fill="#ffd255"/>
        <path id="Trazado_700830" data-name="Trazado 700830" d="M478.25,211.451H274.892a11.021,11.021,0,0,1,0-22.041H478.25a11.021,11.021,0,1,1,0,22.041" transform="translate(95.098 68.262)" fill="#ffc403"/>
        <path id="Trazado_700831" data-name="Trazado 700831" d="M646.9,269.614H347.183c-5.725,0-10.366-4.974-10.366-11.11s4.642-11.109,10.366-11.109H646.9c5.726,0,10.366,4.974,10.366,11.109s-4.64,11.11-10.366,11.11" transform="translate(121.387 87.674)" fill="#ff7697"/>
        <path id="Trazado_700832" data-name="Trazado 700832" d="M597.924,268.371H346.579a9.762,9.762,0,0,1-9.762-9.762v-2.544a9.763,9.763,0,0,1,9.762-9.762H597.924a9.762,9.762,0,0,1,9.762,9.762v2.544a9.762,9.762,0,0,1-9.762,9.762" transform="translate(121.387 88.766)" fill="#f90635"/>
        <path id="Trazado_700833" data-name="Trazado 700833" d="M298.654,327.381H146.485c-5.518,0-9.991-4.872-9.991-10.883s4.473-10.883,9.991-10.883h152.17c5.518,0,9.991,4.873,9.991,10.883s-4.473,10.883-9.991,10.883" transform="translate(49.192 108.357)" fill="#047e9b"/>
        <path id="Trazado_700834" data-name="Trazado 700834" d="M250.374,325.388H145.258a10.542,10.542,0,0,1,0-21.085H250.374a10.542,10.542,0,0,1,0,21.085" transform="translate(48.551 109.669)" fill="#046b7c"/>
        <path id="Trazado_700835" data-name="Trazado 700835" d="M608.876,327.382H456.707c-5.518,0-9.991-4.873-9.991-10.883s4.473-10.883,9.991-10.883h152.17c5.518,0,9.991,4.873,9.991,10.883s-4.473,10.883-9.991,10.883" transform="translate(160.994 108.357)" fill="#047e9b"/>
        <path id="Trazado_700836" data-name="Trazado 700836" d="M560.6,325.388H455.48a10.542,10.542,0,0,1,0-21.085H560.6a10.542,10.542,0,0,1,0,21.085" transform="translate(160.353 109.669)" fill="#046b7c"/>
        <path id="Trazado_700837" data-name="Trazado 700837" d="M645.321,385.366H493.152a10.557,10.557,0,0,1,0-21.084h152.17a10.557,10.557,0,0,1,0,21.084" transform="translate(174.129 130.86)" fill="#ff9750"/>
        <path id="Trazado_700838" data-name="Trazado 700838" d="M597.041,385.054H491.925a10.542,10.542,0,0,1,0-21.085H597.041a10.542,10.542,0,0,1,0,21.085" transform="translate(173.488 131.172)" fill="#fc6600"/>
        <line id="Línea_603" data-name="Línea 603" x1="2.041" transform="translate(258.126 188.512)" fill="none" stroke="#000" stroke-miterlimit="10" stroke-width="2"/>
        <line id="Línea_604" data-name="Línea 604" x1="7.459" transform="translate(245.694 188.512)" fill="none" stroke="#000" stroke-miterlimit="10" stroke-width="2" stroke-dasharray="3.656 3.656"/>
        <path id="Trazado_700839" data-name="Trazado 700839" d="M179.317,138.571h-2.041v2.041" transform="translate(63.89 49.94)" fill="none" stroke="#000" stroke-miterlimit="10" stroke-width="2"/>
        <line id="Línea_605" data-name="Línea 605" y2="152.464" transform="translate(241.166 194.618)" fill="none" stroke="#000" stroke-miterlimit="10" stroke-width="2" stroke-dasharray="2.989 2.989"/>
        <path id="Trazado_700840" data-name="Trazado 700840" d="M177.277,256.627v2.041l2.041-.015" transform="translate(63.89 92.487)" fill="none" stroke="#000" stroke-miterlimit="10" stroke-width="2"/>
        <line id="Línea_606" data-name="Línea 606" y1="1.443" x2="193.543" transform="translate(247.281 349.666)" fill="none" stroke="#000" stroke-miterlimit="10" stroke-width="2" stroke-dasharray="2.995 2.995"/>
        <line id="Línea_607" data-name="Línea 607" y1="0.015" x2="2.041" transform="translate(442.862 349.635)" fill="none" stroke="#000" stroke-miterlimit="10" stroke-width="2"/>
        <path id="Trazado_700841" data-name="Trazado 700841" d="M509.261,197.636h99.158v78.6h-13.3" transform="translate(183.535 71.227)" fill="none" stroke="#000" stroke-miterlimit="10" stroke-width="2" stroke-dasharray="3 3"/>
        <path id="Trazado_700842" data-name="Trazado 700842" d="M173.261,139.807a4.837,4.837,0,1,1,4.838,4.838,4.837,4.837,0,0,1-4.838-4.838" transform="translate(62.442 48.642)"/>
        <path id="Trazado_700843" data-name="Trazado 700843" d="M173.261,259.363A4.837,4.837,0,1,1,178.1,264.2a4.837,4.837,0,0,1-4.838-4.838" transform="translate(62.442 91.729)"/>
        <path id="Trazado_700844" data-name="Trazado 700844" d="M578.595,198.918a4.837,4.837,0,1,1,4.838,4.838,4.837,4.837,0,0,1-4.838-4.838" transform="translate(208.522 69.945)"/>
        <path id="Trazado_700845" data-name="Trazado 700845" d="M578.595,255.807a4.837,4.837,0,1,1,4.838,4.838,4.837,4.837,0,0,1-4.838-4.838" transform="translate(208.522 90.448)"/>
      </g>
    </g>
    <rect id="Rectángulo_340300" data-name="Rectángulo 340300" width="860.64" height="560.703" transform="translate(370 6210)" fill="none"/>
  </g>
</svg>
