<svg xmlns="http://www.w3.org/2000/svg" xmlns:xlink="http://www.w3.org/1999/xlink" width="1030" height="588.265" viewBox="0 0 1030 588.265">
  <defs>
    <clipPath id="clip-path">
      <rect id="Rectángulo_340320" data-name="Rectángulo 340320" width="1030" height="588.264" fill="none"/>
    </clipPath>
  </defs>
  <g id="Grupo_974667" data-name="Grupo 974667" transform="translate(-285 -8075.498)">
    <rect id="Rectángulo_340308" data-name="Rectángulo 340308" width="4.952" height="513.828" transform="translate(501.602 8123.803)" fill="#ccc"/>
    <line id="Línea_608" data-name="Línea 608" y2="513.613" transform="translate(521.234 8123.802)" fill="none" stroke="#ccc" stroke-miterlimit="10" stroke-width="1"/>
    <line id="Línea_609" data-name="Línea 609" y2="513.613" transform="translate(535.915 8123.802)" fill="none" stroke="#ccc" stroke-miterlimit="10" stroke-width="1"/>
    <line id="Línea_610" data-name="Línea 610" y2="513.613" transform="translate(550.595 8123.802)" fill="none" stroke="#ccc" stroke-miterlimit="10" stroke-width="1"/>
    <line id="Línea_611" data-name="Línea 611" y2="513.613" transform="translate(565.275 8123.802)" fill="none" stroke="#ccc" stroke-miterlimit="10" stroke-width="1"/>
    <rect id="Rectángulo_340309" data-name="Rectángulo 340309" width="4.952" height="513.828" transform="translate(580.509 8123.803)" fill="#ccc"/>
    <line id="Línea_612" data-name="Línea 612" y2="513.613" transform="translate(600.142 8123.802)" fill="none" stroke="#ccc" stroke-miterlimit="10" stroke-width="1"/>
    <line id="Línea_613" data-name="Línea 613" y2="513.613" transform="translate(614.822 8123.802)" fill="none" stroke="#ccc" stroke-miterlimit="10" stroke-width="1"/>
    <line id="Línea_614" data-name="Línea 614" y2="513.613" transform="translate(629.502 8123.802)" fill="none" stroke="#ccc" stroke-miterlimit="10" stroke-width="1"/>
    <line id="Línea_615" data-name="Línea 615" y2="513.613" transform="translate(644.183 8123.802)" fill="none" stroke="#ccc" stroke-miterlimit="10" stroke-width="1"/>
    <rect id="Rectángulo_340310" data-name="Rectángulo 340310" width="4.952" height="513.828" transform="translate(659.417 8123.803)" fill="#ccc"/>
    <line id="Línea_616" data-name="Línea 616" y2="513.613" transform="translate(679.049 8123.802)" fill="none" stroke="#ccc" stroke-miterlimit="10" stroke-width="1"/>
    <line id="Línea_617" data-name="Línea 617" y2="513.613" transform="translate(693.729 8123.802)" fill="none" stroke="#ccc" stroke-miterlimit="10" stroke-width="1"/>
    <line id="Línea_618" data-name="Línea 618" y2="513.613" transform="translate(708.41 8123.802)" fill="none" stroke="#ccc" stroke-miterlimit="10" stroke-width="1"/>
    <line id="Línea_619" data-name="Línea 619" y2="513.613" transform="translate(723.09 8123.802)" fill="none" stroke="#ccc" stroke-miterlimit="10" stroke-width="1"/>
    <rect id="Rectángulo_340311" data-name="Rectángulo 340311" width="4.952" height="513.828" transform="translate(738.324 8123.803)" fill="#ccc"/>
    <line id="Línea_620" data-name="Línea 620" y2="513.613" transform="translate(757.956 8123.802)" fill="none" stroke="#ccc" stroke-miterlimit="10" stroke-width="1"/>
    <line id="Línea_621" data-name="Línea 621" y2="513.613" transform="translate(772.636 8123.802)" fill="none" stroke="#ccc" stroke-miterlimit="10" stroke-width="1"/>
    <line id="Línea_622" data-name="Línea 622" y2="513.613" transform="translate(787.316 8123.802)" fill="none" stroke="#ccc" stroke-miterlimit="10" stroke-width="1"/>
    <line id="Línea_623" data-name="Línea 623" y2="513.613" transform="translate(801.997 8123.802)" fill="none" stroke="#ccc" stroke-miterlimit="10" stroke-width="1"/>
    <rect id="Rectángulo_340312" data-name="Rectángulo 340312" width="4.952" height="513.828" transform="translate(817.231 8123.803)" fill="#ccc"/>
    <line id="Línea_624" data-name="Línea 624" y2="513.613" transform="translate(836.863 8123.802)" fill="none" stroke="#ccc" stroke-miterlimit="10" stroke-width="1"/>
    <line id="Línea_625" data-name="Línea 625" y2="513.613" transform="translate(851.543 8123.802)" fill="none" stroke="#ccc" stroke-miterlimit="10" stroke-width="1"/>
    <line id="Línea_626" data-name="Línea 626" y2="513.613" transform="translate(866.224 8123.802)" fill="none" stroke="#ccc" stroke-miterlimit="10" stroke-width="1"/>
    <line id="Línea_627" data-name="Línea 627" y2="513.613" transform="translate(880.904 8123.802)" fill="none" stroke="#ccc" stroke-miterlimit="10" stroke-width="1"/>
    <rect id="Rectángulo_340313" data-name="Rectángulo 340313" width="4.952" height="513.828" transform="translate(896.138 8123.803)" fill="#ccc"/>
    <line id="Línea_628" data-name="Línea 628" y2="513.613" transform="translate(915.771 8123.802)" fill="none" stroke="#ccc" stroke-miterlimit="10" stroke-width="1"/>
    <line id="Línea_629" data-name="Línea 629" y2="513.613" transform="translate(930.451 8123.802)" fill="none" stroke="#ccc" stroke-miterlimit="10" stroke-width="1"/>
    <line id="Línea_630" data-name="Línea 630" y2="513.613" transform="translate(945.131 8123.802)" fill="none" stroke="#ccc" stroke-miterlimit="10" stroke-width="1"/>
    <line id="Línea_631" data-name="Línea 631" y2="513.613" transform="translate(959.812 8123.802)" fill="none" stroke="#ccc" stroke-miterlimit="10" stroke-width="1"/>
    <rect id="Rectángulo_340314" data-name="Rectángulo 340314" width="4.952" height="513.828" transform="translate(975.045 8123.803)" fill="#ccc"/>
    <line id="Línea_632" data-name="Línea 632" y2="513.613" transform="translate(994.677 8123.802)" fill="none" stroke="#ccc" stroke-miterlimit="10" stroke-width="1"/>
    <line id="Línea_633" data-name="Línea 633" y2="513.613" transform="translate(1009.358 8123.802)" fill="none" stroke="#ccc" stroke-miterlimit="10" stroke-width="1"/>
    <line id="Línea_634" data-name="Línea 634" y2="513.613" transform="translate(1024.038 8123.802)" fill="none" stroke="#ccc" stroke-miterlimit="10" stroke-width="1"/>
    <line id="Línea_635" data-name="Línea 635" y2="513.613" transform="translate(1038.719 8123.802)" fill="none" stroke="#ccc" stroke-miterlimit="10" stroke-width="1"/>
    <rect id="Rectángulo_340315" data-name="Rectángulo 340315" width="4.952" height="513.828" transform="translate(1053.952 8123.803)" fill="#ccc"/>
    <line id="Línea_636" data-name="Línea 636" y2="513.613" transform="translate(1073.584 8123.802)" fill="none" stroke="#ccc" stroke-miterlimit="10" stroke-width="1"/>
    <line id="Línea_637" data-name="Línea 637" y2="513.613" transform="translate(1088.265 8123.802)" fill="none" stroke="#ccc" stroke-miterlimit="10" stroke-width="1"/>
    <line id="Línea_638" data-name="Línea 638" y2="513.613" transform="translate(1102.945 8123.802)" fill="none" stroke="#ccc" stroke-miterlimit="10" stroke-width="1"/>
    <line id="Línea_639" data-name="Línea 639" y2="513.613" transform="translate(1117.626 8123.802)" fill="none" stroke="#ccc" stroke-miterlimit="10" stroke-width="1"/>
    <rect id="Rectángulo_340316" data-name="Rectángulo 340316" width="4.952" height="513.828" transform="translate(1132.86 8123.803)" fill="#ccc"/>
    <line id="Línea_640" data-name="Línea 640" y2="513.613" transform="translate(1152.492 8123.802)" fill="none" stroke="#ccc" stroke-miterlimit="10" stroke-width="1"/>
    <line id="Línea_641" data-name="Línea 641" y2="513.613" transform="translate(1167.172 8123.802)" fill="none" stroke="#ccc" stroke-miterlimit="10" stroke-width="1"/>
    <line id="Línea_642" data-name="Línea 642" y2="513.613" transform="translate(1181.853 8123.802)" fill="none" stroke="#ccc" stroke-miterlimit="10" stroke-width="1"/>
    <line id="Línea_643" data-name="Línea 643" y2="513.613" transform="translate(1196.533 8123.802)" fill="none" stroke="#ccc" stroke-miterlimit="10" stroke-width="1"/>
    <rect id="Rectángulo_340317" data-name="Rectángulo 340317" width="4.952" height="513.828" transform="translate(1211.767 8123.803)" fill="#ccc"/>
    <line id="Línea_644" data-name="Línea 644" y2="513.613" transform="translate(1231.399 8123.802)" fill="none" stroke="#ccc" stroke-miterlimit="10" stroke-width="1"/>
    <line id="Línea_645" data-name="Línea 645" y2="513.613" transform="translate(1246.079 8123.802)" fill="none" stroke="#ccc" stroke-miterlimit="10" stroke-width="1"/>
    <line id="Línea_646" data-name="Línea 646" y2="513.613" transform="translate(1260.76 8123.802)" fill="none" stroke="#ccc" stroke-miterlimit="10" stroke-width="1"/>
    <line id="Línea_647" data-name="Línea 647" y2="513.613" transform="translate(1275.44 8123.802)" fill="none" stroke="#ccc" stroke-miterlimit="10" stroke-width="1"/>
    <g id="Grupo_974447" data-name="Grupo 974447" transform="translate(285 8075.498)">
      <g id="Grupo_974446" data-name="Grupo 974446" clip-path="url(#clip-path)">
        <rect id="Rectángulo_340318" data-name="Rectángulo 340318" width="1028.418" height="586.681" rx="15.556" transform="translate(0.792 0.791)" fill="none" stroke="#f9000d" stroke-miterlimit="10" stroke-width="1"/>
        <rect id="Rectángulo_340319" data-name="Rectángulo 340319" width="1027.658" height="36.601" transform="translate(0.792 48.305)" fill="#06d1d1"/>
        <line id="Línea_648" data-name="Línea 648" x2="203.277" transform="translate(13.165 189.079)" fill="none" stroke="#706f6f" stroke-miterlimit="10" stroke-width="1"/>
        <path id="Trazado_700848" data-name="Trazado 700848" d="M161.891,0" transform="translate(54.549 90.869)" fill="none" stroke="#706f6f" stroke-width="1"/>
        <line id="Línea_650" data-name="Línea 650" x2="203.277" transform="translate(12.054 281.981)" fill="none" stroke="#706f6f" stroke-miterlimit="10" stroke-width="1"/>
        <line id="Línea_651" data-name="Línea 651" x2="203.277" transform="translate(12.054 375.768)" fill="none" stroke="#706f6f" stroke-miterlimit="10" stroke-width="1"/>
        <line id="Línea_652" data-name="Línea 652" x2="203.277" transform="translate(12.054 467.785)" fill="none" stroke="#706f6f" stroke-miterlimit="10" stroke-width="1"/>
        <line id="Línea_653" data-name="Línea 653" x2="203.277" transform="translate(12.054 560.687)" fill="none" stroke="#706f6f" stroke-miterlimit="10" stroke-width="1"/>
      </g>
    </g>
    <path id="Trazado_703895" data-name="Trazado 703895" d="M11.934-4.844a5.127,5.127,0,0,1-.981,2.656A5.551,5.551,0,0,1,8.706-.4,6.954,6.954,0,0,1,5.693.2,4.683,4.683,0,0,1,2.188-1.24,5.77,5.77,0,0,1,.791-5a12.245,12.245,0,0,1,.347-3.447,9.112,9.112,0,0,1,1.416-3.247,6.506,6.506,0,0,1,2.314-2.07,6.008,6.008,0,0,1,2.915-.659,5.086,5.086,0,0,1,3.677,1.4,5.467,5.467,0,0,1,1.47,3.74L9.6-9.3a2.739,2.739,0,0,0-.469-1.855,2.058,2.058,0,0,0-1.543-.6q-2.637-.088-3.213,4.1a22.537,22.537,0,0,0-.264,2.705q-.049,2.4,1.777,2.471a2.609,2.609,0,0,0,1.885-.581,2.906,2.906,0,0,0,.9-1.753Zm8.4-2.744a9.192,9.192,0,0,0-1-.1,2.481,2.481,0,0,0-2.207,1L15.938,0H12.725l1.836-10.566,3-.01-.244,1.387a2.933,2.933,0,0,1,2.441-1.6,4.6,4.6,0,0,1,1,.137Zm5.295-3.174a4.438,4.438,0,0,1,2.451.708A3.989,3.989,0,0,1,29.6-8.135,5.922,5.922,0,0,1,29.943-5.4l-.02.215A6.262,6.262,0,0,1,28.117-1.26,5.083,5.083,0,0,1,24.328.2,4.419,4.419,0,0,1,21.9-.5a4.014,4.014,0,0,1-1.519-1.9,5.755,5.755,0,0,1-.356-2.715A6.514,6.514,0,0,1,21.8-9.258,5.052,5.052,0,0,1,25.627-10.762ZM23.234-5.113l-.029.575q-.137,2.174,1.328,2.213,1.895.059,2.2-3.071l.039-.887a2.394,2.394,0,0,0-.327-1.4,1.192,1.192,0,0,0-1.021-.541,1.68,1.68,0,0,0-1.46.726A4.753,4.753,0,0,0,23.234-5.113Zm11.992-5.464L35-9.307a3.756,3.756,0,0,1,3.057-1.465,2.523,2.523,0,0,1,2.183,1.089,4.557,4.557,0,0,1,.522,3.032L39.65,0H36.428l1.123-6.678a3.454,3.454,0,0,0,.02-.626q-.068-.929-1.094-.929a2.008,2.008,0,0,0-1.553.753L33.605,0H30.392l1.836-10.566Zm12.432-.186a4.438,4.438,0,0,1,2.451.708,3.989,3.989,0,0,1,1.519,1.919A5.922,5.922,0,0,1,51.974-5.4l-.02.215A6.262,6.262,0,0,1,50.148-1.26,5.083,5.083,0,0,1,46.359.2a4.419,4.419,0,0,1-2.432-.7,4.014,4.014,0,0,1-1.519-1.9,5.755,5.755,0,0,1-.356-2.715,6.514,6.514,0,0,1,1.782-4.141A5.052,5.052,0,0,1,47.658-10.762ZM45.265-5.113l-.029.575Q45.1-2.363,46.564-2.324q1.895.059,2.2-3.071l.039-.887a2.394,2.394,0,0,0-.327-1.4,1.192,1.192,0,0,0-1.021-.541,1.68,1.68,0,0,0-1.46.726A4.753,4.753,0,0,0,45.265-5.113Zm7.773-.19a8.029,8.029,0,0,1,.874-2.881,5.071,5.071,0,0,1,1.724-1.948,4.15,4.15,0,0,1,2.344-.64,2.885,2.885,0,0,1,2.4,1.143l.342-.947,2.969.01L61.965-.41A4.964,4.964,0,0,1,60.08,2.979,6,6,0,0,1,56.115,4.16a5.661,5.661,0,0,1-2.041-.42,4.4,4.4,0,0,1-1.689-1.211L53.908.635a2.766,2.766,0,0,0,2.207,1.1A2.582,2.582,0,0,0,58.83-.537l.078-.322A3.3,3.3,0,0,1,56.5.2a3.258,3.258,0,0,1-1.787-.513A3.371,3.371,0,0,1,53.5-1.768,5.64,5.64,0,0,1,53-3.877,9.17,9.17,0,0,1,53.039-5.3Zm3.174,1.045a2.562,2.562,0,0,0,.322,1.4,1.093,1.093,0,0,0,.938.518,2.147,2.147,0,0,0,1.65-.7l.83-4.482a1.424,1.424,0,0,0-1.309-.7,1.87,1.87,0,0,0-1.572.8,4.291,4.291,0,0,0-.8,2.144Q56.213-4.678,56.213-4.258Zm15.166-3.33a9.192,9.192,0,0,0-1-.1,2.481,2.481,0,0,0-2.207,1L66.984,0H63.771l1.836-10.566,3-.01-.244,1.387a2.933,2.933,0,0,1,2.441-1.6,4.6,4.6,0,0,1,1,.137ZM76.587,0a2.865,2.865,0,0,1-.137-.957A3.259,3.259,0,0,1,73.862.2a3.184,3.184,0,0,1-2.285-.918,2.759,2.759,0,0,1-.85-2.178,3.1,3.1,0,0,1,1.436-2.642,6.768,6.768,0,0,1,3.789-.923l1.074.02.117-.6.039-.518a.839.839,0,0,0-.889-.918A1.235,1.235,0,0,0,75-7.314l-3.223.01a3.061,3.061,0,0,1,.693-1.851,4.109,4.109,0,0,1,1.753-1.211,6.125,6.125,0,0,1,2.358-.4,4.723,4.723,0,0,1,2.1.5A3.133,3.133,0,0,1,80.034-8.94a3.368,3.368,0,0,1,.342,1.948l-.791,4.971-.049.605a2.669,2.669,0,0,0,.186,1.23L79.712,0ZM74.751-2.129A2.072,2.072,0,0,0,76.48-3L76.8-4.7l-.83-.01a2.188,2.188,0,0,0-1.328.454,1.722,1.722,0,0,0-.654,1.187.865.865,0,0,0,.151.659A.773.773,0,0,0,74.751-2.129Zm11.113-8.447-.215,1.27a3.793,3.793,0,0,1,3.086-1.455,2.788,2.788,0,0,1,1.572.449,2.047,2.047,0,0,1,.82,1.143,4.022,4.022,0,0,1,3.213-1.592,2.49,2.49,0,0,1,2.173,1.1,4.575,4.575,0,0,1,.513,3.013L95.923,0H92.7l1.123-6.652.039-.576q0-.966-.908-.995a2.08,2.08,0,0,0-1.582.868L90.093,0H86.87l1.113-6.633.039-.585q0-1-.908-1a2.066,2.066,0,0,0-1.562.868L84.253,0H81.04l1.836-10.566ZM103.784,0a2.865,2.865,0,0,1-.137-.957A3.259,3.259,0,0,1,101.06.2a3.184,3.184,0,0,1-2.285-.918,2.759,2.759,0,0,1-.85-2.178A3.1,3.1,0,0,1,99.36-5.542a6.768,6.768,0,0,1,3.789-.923l1.074.02.117-.6.039-.518a.839.839,0,0,0-.889-.918,1.235,1.235,0,0,0-1.3,1.162L98.97-7.3a3.061,3.061,0,0,1,.693-1.851,4.109,4.109,0,0,1,1.753-1.211,6.125,6.125,0,0,1,2.358-.4,4.723,4.723,0,0,1,2.1.5,3.133,3.133,0,0,1,1.353,1.318,3.368,3.368,0,0,1,.342,1.948l-.791,4.971-.049.605a2.669,2.669,0,0,0,.186,1.23l-.01.186Zm-1.836-2.129A2.072,2.072,0,0,0,103.677-3L104-4.7l-.83-.01a2.188,2.188,0,0,0-1.328.454,1.722,1.722,0,0,0-.654,1.187.865.865,0,0,0,.151.659A.773.773,0,0,0,101.948-2.129ZM113.677-5.3a7.685,7.685,0,0,1,1.523-4,3.775,3.775,0,0,1,3.184-1.455,2.88,2.88,0,0,1,2.236,1.133L121.646-15h3.223l-2.6,15h-2.861l.137-1.143A3.3,3.3,0,0,1,116.919.205a2.911,2.911,0,0,1-2.388-1.128,4.974,4.974,0,0,1-.923-2.974,9.146,9.146,0,0,1,.039-1.2Zm3.2.225a7.669,7.669,0,0,0-.068,1.094q0,1.621,1.094,1.65a2.049,2.049,0,0,0,1.689-.908l.723-4.053a1.3,1.3,0,0,0-1.289-.928,1.643,1.643,0,0,0-1.45.776A5.008,5.008,0,0,0,116.88-5.078ZM129.409.2a4.912,4.912,0,0,1-2.524-.669A4.215,4.215,0,0,1,125.21-2.31a4.933,4.933,0,0,1-.449-2.593l.029-.273A6.477,6.477,0,0,1,126.6-9.3a5.011,5.011,0,0,1,3.794-1.46,4.086,4.086,0,0,1,2.324.689,3.853,3.853,0,0,1,1.416,1.848,5.661,5.661,0,0,1,.293,2.646l-.186,1.34h-6.289a2.06,2.06,0,0,0,.469,1.348,1.722,1.722,0,0,0,1.309.547,3.325,3.325,0,0,0,2.51-1.074l1.348,1.782a3.976,3.976,0,0,1-1.665,1.329,5.848,5.848,0,0,1-2.339.5Zm.781-8.418A1.653,1.653,0,0,0,129-7.8a3.587,3.587,0,0,0-.874,1.5h3.213l.059-.282a2.143,2.143,0,0,0,.02-.641A1.131,1.131,0,0,0,130.191-8.223ZM145.708,0a2.865,2.865,0,0,1-.137-.957A3.259,3.259,0,0,1,142.984.2,3.184,3.184,0,0,1,140.7-.723a2.759,2.759,0,0,1-.85-2.178,3.1,3.1,0,0,1,1.436-2.642,6.768,6.768,0,0,1,3.789-.923l1.074.02.117-.6.039-.518a.839.839,0,0,0-.889-.918,1.235,1.235,0,0,0-1.3,1.162l-3.223.01a3.06,3.06,0,0,1,.693-1.851,4.109,4.109,0,0,1,1.753-1.211,6.125,6.125,0,0,1,2.358-.4,4.723,4.723,0,0,1,2.1.5,3.133,3.133,0,0,1,1.353,1.318,3.368,3.368,0,0,1,.342,1.948l-.791,4.971-.049.605a2.669,2.669,0,0,0,.186,1.23l-.01.186Zm-1.836-2.129A2.072,2.072,0,0,0,145.6-3l.322-1.7-.83-.01a2.188,2.188,0,0,0-1.328.454,1.722,1.722,0,0,0-.654,1.187.865.865,0,0,0,.151.659A.773.773,0,0,0,143.872-2.129Zm11.162-.215a1.382,1.382,0,0,0,1.084-.383,1.907,1.907,0,0,0,.5-1.043l3.008-.01a3.954,3.954,0,0,1-.688,2.08,4.161,4.161,0,0,1-1.7,1.421,5.023,5.023,0,0,1-2.29.474,3.967,3.967,0,0,1-3.252-1.519,5.251,5.251,0,0,1-.928-3.823l.029-.234a7.079,7.079,0,0,1,.9-2.837,5.14,5.14,0,0,1,1.9-1.909,4.926,4.926,0,0,1,2.632-.635,3.929,3.929,0,0,1,2.915,1.177,4.173,4.173,0,0,1,1.03,3.071l-3.008-.01q.049-1.67-1.2-1.7-1.7-.059-1.953,2.852l-.088.993-.01.37Q153.911-2.373,155.034-2.344Zm11.309-10.85-.459,2.627h1.689l-.4,2.285h-1.689l-.82,4.854a1.294,1.294,0,0,0,.063.752q.132.254.659.273a7.637,7.637,0,0,0,.84-.049l-.234,2.383a5.192,5.192,0,0,1-1.729.244A2.847,2.847,0,0,1,162.026-.7a3,3,0,0,1-.605-2.334l.859-5.244h-1.309l.391-2.285h1.309l.459-2.627ZM170.464,0h-3.223l1.836-10.566H172.3Zm-1.1-13.232a1.49,1.49,0,0,1,.5-1.191,1.806,1.806,0,0,1,1.265-.479,1.864,1.864,0,0,1,1.255.43,1.464,1.464,0,0,1,.522,1.123,1.493,1.493,0,0,1-.5,1.2,1.811,1.811,0,0,1-1.27.474,1.887,1.887,0,0,1-1.245-.425A1.447,1.447,0,0,1,169.36-13.232Zm7.92,9.277,2.646-6.611h3.467L178.394,0h-3.271l-1.689-10.566h3.3ZM186.011,0h-3.223l1.836-10.566h3.223Zm-1.1-13.232a1.49,1.49,0,0,1,.5-1.191,1.806,1.806,0,0,1,1.265-.479,1.864,1.864,0,0,1,1.255.43,1.464,1.464,0,0,1,.522,1.123,1.493,1.493,0,0,1-.5,1.2,1.811,1.811,0,0,1-1.27.474,1.887,1.887,0,0,1-1.245-.425A1.447,1.447,0,0,1,184.907-13.232Zm3.672,7.93a7.685,7.685,0,0,1,1.523-4,3.775,3.775,0,0,1,3.184-1.455,2.88,2.88,0,0,1,2.236,1.133L196.548-15h3.223l-2.6,15h-2.861l.137-1.143A3.3,3.3,0,0,1,191.821.205a2.911,2.911,0,0,1-2.388-1.128,4.974,4.974,0,0,1-.923-2.974,9.147,9.147,0,0,1,.039-1.2Zm3.2.225a7.669,7.669,0,0,0-.068,1.094q0,1.621,1.094,1.65a2.049,2.049,0,0,0,1.689-.908l.723-4.053a1.3,1.3,0,0,0-1.289-.928,1.643,1.643,0,0,0-1.45.776A5.007,5.007,0,0,0,191.782-5.078ZM205.015,0a2.865,2.865,0,0,1-.137-.957A3.259,3.259,0,0,1,202.29.2a3.184,3.184,0,0,1-2.285-.918,2.759,2.759,0,0,1-.85-2.178,3.1,3.1,0,0,1,1.436-2.642,6.768,6.768,0,0,1,3.789-.923l1.074.02.117-.6.039-.518a.839.839,0,0,0-.889-.918,1.235,1.235,0,0,0-1.3,1.162L200.2-7.3a3.06,3.06,0,0,1,.693-1.851,4.109,4.109,0,0,1,1.753-1.211,6.125,6.125,0,0,1,2.358-.4,4.723,4.723,0,0,1,2.1.5,3.133,3.133,0,0,1,1.353,1.318,3.368,3.368,0,0,1,.342,1.948l-.791,4.971-.049.605a2.669,2.669,0,0,0,.186,1.23L208.14,0Zm-1.836-2.129A2.072,2.072,0,0,0,204.907-3l.322-1.7-.83-.01a2.188,2.188,0,0,0-1.328.454,1.722,1.722,0,0,0-.654,1.187.865.865,0,0,0,.151.659A.773.773,0,0,0,203.179-2.129Zm6.8-3.174a7.685,7.685,0,0,1,1.523-4,3.775,3.775,0,0,1,3.184-1.455,2.88,2.88,0,0,1,2.236,1.133L217.944-15h3.223l-2.6,15h-2.861l.137-1.143A3.3,3.3,0,0,1,213.218.205,2.911,2.911,0,0,1,210.83-.923a4.974,4.974,0,0,1-.923-2.974,9.147,9.147,0,0,1,.039-1.2Zm3.2.225a7.669,7.669,0,0,0-.068,1.094q0,1.621,1.094,1.65a2.049,2.049,0,0,0,1.689-.908l.723-4.053a1.3,1.3,0,0,0-1.289-.928,1.643,1.643,0,0,0-1.45.776A5.007,5.007,0,0,0,213.179-5.078ZM225.708.2a4.912,4.912,0,0,1-2.524-.669,4.215,4.215,0,0,1-1.675-1.836A4.933,4.933,0,0,1,221.06-4.9l.029-.273A6.477,6.477,0,0,1,222.9-9.3a5.011,5.011,0,0,1,3.794-1.46,4.086,4.086,0,0,1,2.324.689,3.853,3.853,0,0,1,1.416,1.848,5.661,5.661,0,0,1,.293,2.646l-.186,1.34h-6.289a2.06,2.06,0,0,0,.469,1.348,1.722,1.722,0,0,0,1.309.547,3.325,3.325,0,0,0,2.51-1.074l1.348,1.782a3.976,3.976,0,0,1-1.665,1.329,5.848,5.848,0,0,1-2.339.5Zm.781-8.418A1.653,1.653,0,0,0,225.3-7.8a3.588,3.588,0,0,0-.874,1.5h3.213l.059-.282a2.143,2.143,0,0,0,.02-.641A1.131,1.131,0,0,0,226.489-8.223Zm10.586,5.2q.127-.645-1-.967l-.693-.176a5.34,5.34,0,0,1-2.49-1.26,2.494,2.494,0,0,1-.742-1.924,3.065,3.065,0,0,1,1.353-2.476,5.148,5.148,0,0,1,3.179-.933,4.769,4.769,0,0,1,3.022.947,3.09,3.09,0,0,1,1.177,2.5l-3.2-.01q.039-1.25-1.1-1.25a1.574,1.574,0,0,0-.908.288,1.119,1.119,0,0,0-.5.767q-.166.791,1.4,1.084a8.116,8.116,0,0,1,2.1.747,3.135,3.135,0,0,1,1.133,1.05,2.611,2.611,0,0,1,.361,1.5,2.824,2.824,0,0,1-.625,1.709,4.047,4.047,0,0,1-1.724,1.2,6.174,6.174,0,0,1-2.446.42,4.965,4.965,0,0,1-2.124-.479,3.787,3.787,0,0,1-1.533-1.274,3.31,3.31,0,0,1-.571-1.851l2.988.02A1.234,1.234,0,0,0,235.532-2a1.846,1.846,0,0,0,1.016-.269A1.161,1.161,0,0,0,237.075-3.027Zm16.113-1.836h-5.713l.439-2.539h5.713Zm10.977.029L263.325,0h-3.34l2.461-14.219,5.107.01a5.148,5.148,0,0,1,3.735,1.317,4.058,4.058,0,0,1,1.2,3.414,4.642,4.642,0,0,1-.918,2.488,5.084,5.084,0,0,1-2.114,1.61,7.484,7.484,0,0,1-2.944.556Zm.459-2.637,2.012.02a2.482,2.482,0,0,0,1.943-.827,2.463,2.463,0,0,0,.537-1.963,1.5,1.5,0,0,0-.454-.945,1.556,1.556,0,0,0-.991-.387l-2.334-.01Zm15.566-.117a9.193,9.193,0,0,0-1-.1,2.481,2.481,0,0,0-2.207,1L275.8,0h-3.213l1.836-10.566,3-.01-.244,1.387a2.933,2.933,0,0,1,2.441-1.6,4.6,4.6,0,0,1,1,.137Zm5.295-3.174a4.438,4.438,0,0,1,2.451.708,3.989,3.989,0,0,1,1.519,1.919A5.922,5.922,0,0,1,289.8-5.4l-.02.215a6.262,6.262,0,0,1-1.807,3.926A5.083,5.083,0,0,1,284.186.2a4.419,4.419,0,0,1-2.432-.7,4.014,4.014,0,0,1-1.519-1.9,5.755,5.755,0,0,1-.356-2.715,6.514,6.514,0,0,1,1.782-4.141A5.052,5.052,0,0,1,285.485-10.762Zm-2.393,5.649-.029.575q-.137,2.174,1.328,2.213,1.895.059,2.2-3.071l.039-.887a2.394,2.394,0,0,0-.327-1.4,1.192,1.192,0,0,0-1.021-.541,1.68,1.68,0,0,0-1.46.726A4.753,4.753,0,0,0,283.093-5.113Zm7.754-.19a7.685,7.685,0,0,1,1.523-4,3.775,3.775,0,0,1,3.184-1.455,2.88,2.88,0,0,1,2.236,1.133L298.815-15h3.223l-2.6,15h-2.861l.137-1.143A3.3,3.3,0,0,1,294.089.205,2.911,2.911,0,0,1,291.7-.923a4.974,4.974,0,0,1-.923-2.974,9.144,9.144,0,0,1,.039-1.2Zm3.2.225a7.669,7.669,0,0,0-.068,1.094q0,1.621,1.094,1.65a2.049,2.049,0,0,0,1.689-.908l.723-4.053a1.3,1.3,0,0,0-1.289-.928,1.643,1.643,0,0,0-1.45.776A5.008,5.008,0,0,0,294.05-5.078Zm13.809,3.926A3.5,3.5,0,0,1,305.007.205a2.769,2.769,0,0,1-2.339-1.084,4,4,0,0,1-.61-2.852l1.143-6.836h3.213l-1.162,6.883a2.294,2.294,0,0,0,0,.518.851.851,0,0,0,.947.831,2.076,2.076,0,0,0,1.729-.8l1.309-7.431h3.232L310.632,0h-2.988Zm9.395-1.191a1.382,1.382,0,0,0,1.084-.383,1.907,1.907,0,0,0,.5-1.043l3.008-.01a3.954,3.954,0,0,1-.688,2.08,4.161,4.161,0,0,1-1.7,1.421,5.023,5.023,0,0,1-2.29.474,3.967,3.967,0,0,1-3.252-1.519,5.251,5.251,0,0,1-.928-3.823l.029-.234a7.079,7.079,0,0,1,.9-2.837,5.14,5.14,0,0,1,1.9-1.909,4.926,4.926,0,0,1,2.632-.635,3.929,3.929,0,0,1,2.915,1.177,4.173,4.173,0,0,1,1.03,3.071l-3.008-.01q.049-1.67-1.2-1.7-1.7-.059-1.953,2.852l-.088.993-.01.37Q316.13-2.373,317.253-2.344Zm10.176,0a1.382,1.382,0,0,0,1.084-.383,1.907,1.907,0,0,0,.5-1.043l3.008-.01a3.954,3.954,0,0,1-.688,2.08,4.161,4.161,0,0,1-1.7,1.421,5.023,5.023,0,0,1-2.29.474,3.967,3.967,0,0,1-3.252-1.519,5.251,5.251,0,0,1-.928-3.823l.029-.234a7.079,7.079,0,0,1,.9-2.837,5.14,5.14,0,0,1,1.9-1.909,4.926,4.926,0,0,1,2.632-.635,3.929,3.929,0,0,1,2.915,1.177,4.173,4.173,0,0,1,1.03,3.071l-3.008-.01q.049-1.67-1.2-1.7-1.7-.059-1.953,2.852l-.088.993-.01.37Q326.306-2.373,327.429-2.344ZM336.1,0h-3.223l1.836-10.566h3.223ZM335-13.232a1.49,1.49,0,0,1,.5-1.191,1.806,1.806,0,0,1,1.265-.479,1.864,1.864,0,0,1,1.255.43,1.464,1.464,0,0,1,.522,1.123,1.493,1.493,0,0,1-.5,1.2,1.811,1.811,0,0,1-1.27.474,1.887,1.887,0,0,1-1.245-.425A1.447,1.447,0,0,1,335-13.232Zm9.307,2.471a4.438,4.438,0,0,1,2.451.708,3.989,3.989,0,0,1,1.519,1.919A5.922,5.922,0,0,1,348.62-5.4l-.02.215a6.262,6.262,0,0,1-1.807,3.926A5.083,5.083,0,0,1,343,.2a4.419,4.419,0,0,1-2.432-.7,4.014,4.014,0,0,1-1.519-1.9,5.755,5.755,0,0,1-.356-2.715,6.514,6.514,0,0,1,1.782-4.141A5.052,5.052,0,0,1,344.3-10.762Zm-2.393,5.649-.029.575q-.137,2.174,1.328,2.213,1.895.059,2.2-3.071l.039-.887a2.394,2.394,0,0,0-.327-1.4,1.192,1.192,0,0,0-1.021-.541,1.68,1.68,0,0,0-1.46.726A4.753,4.753,0,0,0,341.911-5.113ZM345.466-15h3.584l-3.115,3.066-2.812,0Zm8.438,4.424-.225,1.27a3.756,3.756,0,0,1,3.057-1.465,2.523,2.523,0,0,1,2.183,1.089,4.557,4.557,0,0,1,.522,3.032L358.327,0H355.1l1.123-6.678a3.454,3.454,0,0,0,.02-.626q-.068-.929-1.094-.929a2.008,2.008,0,0,0-1.553.753L352.282,0h-3.213l1.836-10.566ZM365.632-5.3a7.685,7.685,0,0,1,1.523-4,3.775,3.775,0,0,1,3.184-1.455,2.88,2.88,0,0,1,2.236,1.133L373.6-15h3.223l-2.6,15h-2.861l.137-1.143A3.3,3.3,0,0,1,368.874.205a2.911,2.911,0,0,1-2.388-1.128,4.974,4.974,0,0,1-.923-2.974,9.144,9.144,0,0,1,.039-1.2Zm3.2.225a7.669,7.669,0,0,0-.068,1.094q0,1.621,1.094,1.65a2.049,2.049,0,0,0,1.689-.908l.723-4.053a1.3,1.3,0,0,0-1.289-.928,1.643,1.643,0,0,0-1.45.776A5.008,5.008,0,0,0,368.835-5.078ZM381.364.2a4.912,4.912,0,0,1-2.524-.669,4.215,4.215,0,0,1-1.675-1.836,4.933,4.933,0,0,1-.449-2.593l.029-.273A6.477,6.477,0,0,1,378.557-9.3a5.011,5.011,0,0,1,3.794-1.46,4.086,4.086,0,0,1,2.324.689,3.853,3.853,0,0,1,1.416,1.848,5.662,5.662,0,0,1,.293,2.646l-.186,1.34h-6.289a2.06,2.06,0,0,0,.469,1.348,1.722,1.722,0,0,0,1.309.547,3.325,3.325,0,0,0,2.51-1.074l1.348,1.782a3.976,3.976,0,0,1-1.665,1.329,5.848,5.848,0,0,1-2.339.5Zm.781-8.418a1.653,1.653,0,0,0-1.187.427,3.588,3.588,0,0,0-.874,1.5H383.3l.059-.282a2.144,2.144,0,0,0,.02-.641A1.131,1.131,0,0,0,382.145-8.223Zm14.209-1.191a3.453,3.453,0,0,1,2.725-1.357,2.746,2.746,0,0,1,2.358,1.162,4.424,4.424,0,0,1,.552,3.047L400.9,0h-3.213l1.1-6.609a3.421,3.421,0,0,0,.02-.626.976.976,0,0,0-1.074-1,2.081,2.081,0,0,0-1.543.636L394.841,0h-3.213l2.607-15h3.213Zm12.93,8.262A3.5,3.5,0,0,1,406.433.205a2.769,2.769,0,0,1-2.339-1.084,4,4,0,0,1-.61-2.852l1.143-6.836h3.213l-1.162,6.883a2.294,2.294,0,0,0,0,.518.851.851,0,0,0,.947.831,2.076,2.076,0,0,0,1.729-.8l1.309-7.431h3.232L412.058,0h-2.988ZM419.04.2a4.912,4.912,0,0,1-2.524-.669,4.215,4.215,0,0,1-1.675-1.836,4.933,4.933,0,0,1-.449-2.593l.029-.273A6.477,6.477,0,0,1,416.232-9.3a5.011,5.011,0,0,1,3.794-1.46,4.086,4.086,0,0,1,2.324.689,3.853,3.853,0,0,1,1.416,1.848,5.662,5.662,0,0,1,.293,2.646l-.186,1.34h-6.289a2.06,2.06,0,0,0,.469,1.348,1.722,1.722,0,0,0,1.309.547,3.325,3.325,0,0,0,2.51-1.074l1.348,1.782a3.976,3.976,0,0,1-1.665,1.329,5.848,5.848,0,0,1-2.339.5Zm.781-8.418a1.653,1.653,0,0,0-1.187.427,3.588,3.588,0,0,0-.874,1.5h3.213l.059-.282a2.144,2.144,0,0,0,.02-.641A1.131,1.131,0,0,0,419.821-8.223Zm9.157,4.268,2.646-6.611h3.467L430.092,0H426.82l-1.689-10.566h3.3ZM440.2-10.762a4.438,4.438,0,0,1,2.451.708,3.989,3.989,0,0,1,1.519,1.919,5.922,5.922,0,0,1,.347,2.734l-.02.215a6.262,6.262,0,0,1-1.807,3.926A5.083,5.083,0,0,1,438.9.2a4.419,4.419,0,0,1-2.432-.7,4.014,4.014,0,0,1-1.519-1.9,5.755,5.755,0,0,1-.356-2.715,6.514,6.514,0,0,1,1.782-4.141A5.052,5.052,0,0,1,440.2-10.762ZM437.8-5.113l-.029.575q-.137,2.174,1.328,2.213Q441-2.266,441.3-5.4l.039-.887a2.394,2.394,0,0,0-.327-1.4,1.192,1.192,0,0,0-1.021-.541,1.68,1.68,0,0,0-1.46.726A4.753,4.753,0,0,0,437.8-5.113Zm13.184,2.085q.127-.645-1-.967L449.3-4.17a5.34,5.34,0,0,1-2.49-1.26,2.493,2.493,0,0,1-.742-1.924,3.065,3.065,0,0,1,1.353-2.476,5.148,5.148,0,0,1,3.179-.933,4.769,4.769,0,0,1,3.022.947,3.09,3.09,0,0,1,1.177,2.5l-3.2-.01q.039-1.25-1.1-1.25a1.574,1.574,0,0,0-.908.288,1.119,1.119,0,0,0-.5.767q-.166.791,1.4,1.084a8.116,8.116,0,0,1,2.1.747,3.135,3.135,0,0,1,1.133,1.05,2.611,2.611,0,0,1,.361,1.5,2.824,2.824,0,0,1-.625,1.709,4.047,4.047,0,0,1-1.724,1.2,6.174,6.174,0,0,1-2.446.42,4.965,4.965,0,0,1-2.124-.479,3.787,3.787,0,0,1-1.533-1.274,3.31,3.31,0,0,1-.571-1.851l2.988.02A1.234,1.234,0,0,0,449.444-2a1.846,1.846,0,0,0,1.016-.269A1.162,1.162,0,0,0,450.987-3.027Z" transform="translate(558.263 8103.404)"/>
    <path id="Trazado_703906" data-name="Trazado 703906" d="M6.973-2.2H3.12L2.388,0H.051l3.97-10.664H6.057L10.049,0H7.712ZM3.713-3.977H6.379L5.039-7.969ZM13.14,0H11.016V-11.25H13.14Zm3.977,0H14.993V-7.925h2.124ZM14.868-9.976a1.042,1.042,0,0,1,.319-.784,1.2,1.2,0,0,1,.868-.308,1.2,1.2,0,0,1,.864.308,1.036,1.036,0,0,1,.322.784,1.039,1.039,0,0,1-.326.791,1.2,1.2,0,0,1-.861.308,1.2,1.2,0,0,1-.861-.308A1.039,1.039,0,0,1,14.868-9.976ZM23.152-2.19a.682.682,0,0,0-.385-.612,4.368,4.368,0,0,0-1.234-.4q-2.827-.593-2.827-2.4a2.178,2.178,0,0,1,.875-1.761,3.531,3.531,0,0,1,2.289-.707,3.8,3.8,0,0,1,2.413.71,2.239,2.239,0,0,1,.9,1.846H23.071a1.024,1.024,0,0,0-.293-.751,1.24,1.24,0,0,0-.916-.3,1.267,1.267,0,0,0-.828.242.763.763,0,0,0-.293.615.652.652,0,0,0,.333.568,3.428,3.428,0,0,0,1.124.374,9.183,9.183,0,0,1,1.333.355A2.19,2.19,0,0,1,25.21-2.278a2.067,2.067,0,0,1-.93,1.754,4.013,4.013,0,0,1-2.4.67,4.191,4.191,0,0,1-1.769-.355A2.968,2.968,0,0,1,18.9-1.183a2.263,2.263,0,0,1-.439-1.337h2.007a1.105,1.105,0,0,0,.417.864,1.656,1.656,0,0,0,1.04.3,1.533,1.533,0,0,0,.919-.231A.718.718,0,0,0,23.152-2.19Zm5.955-7.683v1.948h1.355v1.553H29.106v3.955a.944.944,0,0,0,.168.63.846.846,0,0,0,.645.19,3.376,3.376,0,0,0,.623-.051v1.6a4.358,4.358,0,0,1-1.282.19A2.021,2.021,0,0,1,26.99-2.1v-4.27H25.833V-7.925H26.99V-9.873ZM36.233,0a2.351,2.351,0,0,1-.212-.71,2.561,2.561,0,0,1-2,.857,2.814,2.814,0,0,1-1.93-.674,2.167,2.167,0,0,1-.765-1.7A2.24,2.24,0,0,1,32.26-4.16a4.608,4.608,0,0,1,2.7-.681h.974V-5.3a1.306,1.306,0,0,0-.282-.879,1.109,1.109,0,0,0-.89-.33,1.261,1.261,0,0,0-.839.256.871.871,0,0,0-.3.7H31.5a2.126,2.126,0,0,1,.425-1.274,2.808,2.808,0,0,1,1.2-.919,4.378,4.378,0,0,1,1.743-.333,3.459,3.459,0,0,1,2.325.736,2.575,2.575,0,0,1,.861,2.069v3.435a3.789,3.789,0,0,0,.315,1.707V0Zm-1.75-1.472a1.823,1.823,0,0,0,.864-.209,1.371,1.371,0,0,0,.586-.56V-3.6h-.791q-1.589,0-1.692,1.1l-.007.125a.847.847,0,0,0,.278.652A1.081,1.081,0,0,0,34.482-1.472Zm7.185-6.453.066.886a2.785,2.785,0,0,1,2.278-1.033,2.114,2.114,0,0,1,2.1,1.208,2.721,2.721,0,0,1,2.38-1.208,2.364,2.364,0,0,1,1.919.751,3.451,3.451,0,0,1,.63,2.26V0H48.918V-5.054a1.509,1.509,0,0,0-.264-.985,1.169,1.169,0,0,0-.93-.311,1.321,1.321,0,0,0-1.318.908L46.414,0H44.3V-5.046a1.491,1.491,0,0,0-.271-1A1.18,1.18,0,0,0,43.1-6.35a1.372,1.372,0,0,0-1.3.747V0H39.683V-7.925ZM54.9,0H52.778V-7.925H54.9ZM52.654-9.976a1.042,1.042,0,0,1,.319-.784,1.2,1.2,0,0,1,.868-.308,1.2,1.2,0,0,1,.864.308,1.036,1.036,0,0,1,.322.784,1.039,1.039,0,0,1-.326.791,1.2,1.2,0,0,1-.861.308,1.2,1.2,0,0,1-.861-.308A1.039,1.039,0,0,1,52.654-9.976ZM60.293.146A3.89,3.89,0,0,1,57.455-.923,3.8,3.8,0,0,1,56.36-3.772v-.205a4.787,4.787,0,0,1,.461-2.135,3.386,3.386,0,0,1,1.307-1.45,3.669,3.669,0,0,1,1.93-.509,3.289,3.289,0,0,1,2.56,1.025,4.167,4.167,0,0,1,.934,2.908v.864H58.506a1.966,1.966,0,0,0,.619,1.245,1.871,1.871,0,0,0,1.307.469,2.285,2.285,0,0,0,1.912-.886l1.04,1.165A3.178,3.178,0,0,1,62.095-.231,4.229,4.229,0,0,1,60.293.146Zm-.242-6.511a1.323,1.323,0,0,0-1.022.427,2.209,2.209,0,0,0-.5,1.221h2.944v-.169a1.576,1.576,0,0,0-.381-1.092A1.365,1.365,0,0,0,60.051-6.365Zm6.65-1.56.066.916a2.767,2.767,0,0,1,2.278-1.062,2.3,2.3,0,0,1,1.875.74,3.451,3.451,0,0,1,.63,2.212V0H69.434V-5.068a1.373,1.373,0,0,0-.293-.978,1.312,1.312,0,0,0-.974-.3,1.456,1.456,0,0,0-1.34.762V0H64.709V-7.925Zm8.987-1.948v1.948h1.355v1.553H75.688v3.955a.944.944,0,0,0,.168.63.846.846,0,0,0,.645.19,3.376,3.376,0,0,0,.623-.051v1.6a4.358,4.358,0,0,1-1.282.19A2.021,2.021,0,0,1,73.572-2.1v-4.27H72.415V-7.925h1.157V-9.873Zm1.775,5.837a4.7,4.7,0,0,1,.454-2.1,3.324,3.324,0,0,1,1.307-1.428,3.814,3.814,0,0,1,1.981-.505,3.609,3.609,0,0,1,2.618.981,3.939,3.939,0,0,1,1.132,2.666l.015.542A4.142,4.142,0,0,1,83.953-.956a3.539,3.539,0,0,1-2.732,1.1,3.556,3.556,0,0,1-2.736-1.1A4.215,4.215,0,0,1,77.463-3.94Zm2.117.15A2.962,2.962,0,0,0,80-2.158a1.4,1.4,0,0,0,1.216.6,1.4,1.4,0,0,0,1.2-.591,3.241,3.241,0,0,0,.432-1.889,2.933,2.933,0,0,0-.432-1.716,1.4,1.4,0,0,0-1.216-.609A1.382,1.382,0,0,0,80-5.76,3.3,3.3,0,0,0,79.58-3.885Zm10.1-.136a4.776,4.776,0,0,1,.831-2.952,2.7,2.7,0,0,1,2.274-1.1,2.427,2.427,0,0,1,1.912.864V-11.25h2.124V0H94.91l-.1-.842a2.491,2.491,0,0,1-2.036.989,2.69,2.69,0,0,1-2.245-1.1A4.93,4.93,0,0,1,89.68-4.021Zm2.117.158a3.128,3.128,0,0,0,.388,1.709,1.265,1.265,0,0,0,1.128.594A1.416,1.416,0,0,0,94.7-2.389V-5.521a1.4,1.4,0,0,0-1.37-.829Q91.8-6.35,91.8-3.863ZM102.109.146A3.89,3.89,0,0,1,99.271-.923a3.8,3.8,0,0,1-1.095-2.849v-.205a4.787,4.787,0,0,1,.461-2.135,3.386,3.386,0,0,1,1.307-1.45,3.669,3.669,0,0,1,1.93-.509,3.289,3.289,0,0,1,2.56,1.025,4.167,4.167,0,0,1,.934,2.908v.864h-5.046a1.966,1.966,0,0,0,.619,1.245,1.871,1.871,0,0,0,1.307.469,2.285,2.285,0,0,0,1.912-.886l1.04,1.165a3.178,3.178,0,0,1-1.289,1.051A4.229,4.229,0,0,1,102.109.146Zm-.242-6.511a1.323,1.323,0,0,0-1.022.427,2.209,2.209,0,0,0-.5,1.221h2.944v-.169a1.576,1.576,0,0,0-.381-1.092A1.365,1.365,0,0,0,101.868-6.365ZM108.8,0H106.68V-11.25H108.8Zm5.171-4.021a4.644,4.644,0,0,1,.868-2.937,2.812,2.812,0,0,1,2.34-1.113,2.466,2.466,0,0,1,2.029.894l.088-.747h1.919V-.264a3.387,3.387,0,0,1-.472,1.809,3.034,3.034,0,0,1-1.329,1.172,4.673,4.673,0,0,1-2.007.4,4.346,4.346,0,0,1-1.7-.348,3.016,3.016,0,0,1-1.252-.9L115.4.586a2.48,2.48,0,0,0,1.919.886,1.815,1.815,0,0,0,1.311-.45,1.69,1.69,0,0,0,.469-1.278V-.681a2.448,2.448,0,0,1-1.926.828A2.8,2.8,0,0,1,114.857-.97a4.643,4.643,0,0,1-.883-2.963Zm2.117.158a2.892,2.892,0,0,0,.432,1.691,1.375,1.375,0,0,0,1.187.612,1.47,1.47,0,0,0,1.384-.726V-5.624a1.466,1.466,0,0,0-1.37-.726,1.383,1.383,0,0,0-1.2.624A3.26,3.26,0,0,0,116.091-3.863ZM127.436,0a2.351,2.351,0,0,1-.212-.71,2.561,2.561,0,0,1-2,.857,2.814,2.814,0,0,1-1.93-.674,2.167,2.167,0,0,1-.765-1.7,2.24,2.24,0,0,1,.934-1.934,4.608,4.608,0,0,1,2.7-.681h.974V-5.3a1.306,1.306,0,0,0-.282-.879,1.109,1.109,0,0,0-.89-.33,1.261,1.261,0,0,0-.839.256.871.871,0,0,0-.3.7h-2.117a2.126,2.126,0,0,1,.425-1.274,2.808,2.808,0,0,1,1.2-.919,4.378,4.378,0,0,1,1.743-.333,3.459,3.459,0,0,1,2.325.736,2.575,2.575,0,0,1,.861,2.069v3.435a3.788,3.788,0,0,0,.315,1.707V0Zm-1.75-1.472a1.823,1.823,0,0,0,.864-.209,1.371,1.371,0,0,0,.586-.56V-3.6h-.791q-1.589,0-1.692,1.1l-.007.125a.847.847,0,0,0,.278.652A1.081,1.081,0,0,0,125.686-1.472ZM133.12,0H131V-11.25h2.124ZM142-3.889a4.753,4.753,0,0,1-.831,2.933,2.665,2.665,0,0,1-2.245,1.1,2.469,2.469,0,0,1-1.941-.835V3.047h-2.117V-7.925h1.963l.073.776a2.488,2.488,0,0,1,2.007-.923,2.683,2.683,0,0,1,2.278,1.084A4.882,4.882,0,0,1,142-4Zm-2.117-.154a3.119,3.119,0,0,0-.392-1.707,1.276,1.276,0,0,0-1.139-.6,1.386,1.386,0,0,0-1.37.762v3.245a1.41,1.41,0,0,0,1.384.784Q139.88-1.56,139.88-4.043Zm3.1.007a4.7,4.7,0,0,1,.454-2.1,3.324,3.324,0,0,1,1.307-1.428,3.814,3.814,0,0,1,1.981-.505,3.609,3.609,0,0,1,2.618.981,3.939,3.939,0,0,1,1.132,2.666l.015.542a4.142,4.142,0,0,1-1.018,2.926,3.539,3.539,0,0,1-2.732,1.1A3.556,3.556,0,0,1,144-.952a4.215,4.215,0,0,1-1.022-2.988Zm2.117.15a2.962,2.962,0,0,0,.425,1.727,1.4,1.4,0,0,0,1.216.6,1.4,1.4,0,0,0,1.2-.591,3.241,3.241,0,0,0,.432-1.889,2.933,2.933,0,0,0-.432-1.716,1.4,1.4,0,0,0-1.216-.609,1.382,1.382,0,0,0-1.2.605A3.3,3.3,0,0,0,145.1-3.885Zm2.043-7.365h2.307l-2.029,2.271H145.7Zm6.6,3.325.066.916a2.767,2.767,0,0,1,2.278-1.062,2.3,2.3,0,0,1,1.875.74,3.451,3.451,0,0,1,.63,2.212V0H156.47V-5.068a1.373,1.373,0,0,0-.293-.978,1.312,1.312,0,0,0-.974-.3,1.456,1.456,0,0,0-1.34.762V0h-2.117V-7.925Z" transform="translate(305.185 8218.774)"/>
    <path id="Trazado_703907" data-name="Trazado 703907" d="M6.482-2.8a1.128,1.128,0,0,0-.439-.956,5.764,5.764,0,0,0-1.582-.7,11.215,11.215,0,0,1-1.809-.729A2.956,2.956,0,0,1,.835-7.83a2.575,2.575,0,0,1,.487-1.542,3.177,3.177,0,0,1,1.4-1.058,5.265,5.265,0,0,1,2.047-.381A4.793,4.793,0,0,1,6.8-10.4,3.242,3.242,0,0,1,8.192-9.229a3.057,3.057,0,0,1,.494,1.714h-2.2a1.438,1.438,0,0,0-.461-1.139,1.9,1.9,0,0,0-1.3-.406,2.026,2.026,0,0,0-1.252.341,1.074,1.074,0,0,0-.447.9,1.029,1.029,0,0,0,.524.872A5.916,5.916,0,0,0,5.1-6.292a6.661,6.661,0,0,1,2.732,1.4,2.786,2.786,0,0,1,.857,2.08A2.566,2.566,0,0,1,7.639-.641a4.585,4.585,0,0,1-2.82.787A5.445,5.445,0,0,1,2.578-.3,3.546,3.546,0,0,1,1.036-1.538,3.161,3.161,0,0,1,.505-3.354h2.2q0,1.765,2.109,1.765a2.052,2.052,0,0,0,1.223-.319A1.037,1.037,0,0,0,6.482-2.8ZM14.626,0a2.351,2.351,0,0,1-.212-.71,2.561,2.561,0,0,1-2,.857,2.814,2.814,0,0,1-1.93-.674,2.167,2.167,0,0,1-.765-1.7,2.24,2.24,0,0,1,.934-1.934,4.608,4.608,0,0,1,2.7-.681h.974V-5.3a1.306,1.306,0,0,0-.282-.879,1.109,1.109,0,0,0-.89-.33,1.261,1.261,0,0,0-.839.256.871.871,0,0,0-.3.7H9.9a2.126,2.126,0,0,1,.425-1.274,2.808,2.808,0,0,1,1.2-.919,4.378,4.378,0,0,1,1.743-.333,3.459,3.459,0,0,1,2.325.736,2.575,2.575,0,0,1,.861,2.069v3.435a3.789,3.789,0,0,0,.315,1.707V0Zm-1.75-1.472a1.823,1.823,0,0,0,.864-.209,1.371,1.371,0,0,0,.586-.56V-3.6h-.791q-1.589,0-1.692,1.1l-.007.125a.847.847,0,0,0,.278.652A1.081,1.081,0,0,0,12.876-1.472Zm7.148-6.453.066.916a2.767,2.767,0,0,1,2.278-1.062,2.3,2.3,0,0,1,1.875.74,3.451,3.451,0,0,1,.63,2.212V0H22.756V-5.068a1.373,1.373,0,0,0-.293-.978,1.312,1.312,0,0,0-.974-.3,1.456,1.456,0,0,0-1.34.762V0H18.032V-7.925ZM28.711,0H26.587V-7.925h2.124ZM26.462-9.976a1.042,1.042,0,0,1,.319-.784,1.2,1.2,0,0,1,.868-.308,1.2,1.2,0,0,1,.864.308,1.036,1.036,0,0,1,.322.784,1.039,1.039,0,0,1-.326.791,1.2,1.2,0,0,1-.861.308,1.2,1.2,0,0,1-.861-.308A1.039,1.039,0,0,1,26.462-9.976Zm6.526.1v1.948h1.355v1.553H32.988v3.955a.944.944,0,0,0,.168.63.846.846,0,0,0,.645.19,3.376,3.376,0,0,0,.623-.051v1.6a4.358,4.358,0,0,1-1.282.19A2.021,2.021,0,0,1,30.872-2.1v-4.27H29.714V-7.925h1.157V-9.873ZM37.756,0H35.632V-7.925h2.124ZM35.508-9.976a1.042,1.042,0,0,1,.319-.784,1.2,1.2,0,0,1,.868-.308,1.2,1.2,0,0,1,.864.308,1.036,1.036,0,0,1,.322.784,1.039,1.039,0,0,1-.326.791,1.2,1.2,0,0,1-.861.308,1.2,1.2,0,0,1-.861-.308A1.039,1.039,0,0,1,35.508-9.976Zm6.423,8.269h3.875V0H39.229V-1.289l3.728-4.929H39.338V-7.925h6.35v1.247ZM51.724,0a2.351,2.351,0,0,1-.212-.71,2.561,2.561,0,0,1-2,.857,2.814,2.814,0,0,1-1.93-.674,2.167,2.167,0,0,1-.765-1.7A2.24,2.24,0,0,1,47.75-4.16a4.608,4.608,0,0,1,2.7-.681h.974V-5.3a1.306,1.306,0,0,0-.282-.879,1.109,1.109,0,0,0-.89-.33,1.261,1.261,0,0,0-.839.256.871.871,0,0,0-.3.7H46.992a2.126,2.126,0,0,1,.425-1.274,2.808,2.808,0,0,1,1.2-.919,4.378,4.378,0,0,1,1.743-.333,3.459,3.459,0,0,1,2.325.736,2.575,2.575,0,0,1,.861,2.069v3.435a3.789,3.789,0,0,0,.315,1.707V0Zm-1.75-1.472a1.823,1.823,0,0,0,.864-.209,1.371,1.371,0,0,0,.586-.56V-3.6h-.791q-1.589,0-1.692,1.1l-.007.125a.847.847,0,0,0,.278.652A1.081,1.081,0,0,0,49.973-1.472Zm8.5-.088a1.388,1.388,0,0,0,.952-.322,1.129,1.129,0,0,0,.381-.857h1.985a2.715,2.715,0,0,1-.439,1.476,2.9,2.9,0,0,1-1.183,1.04,3.7,3.7,0,0,1-1.659.37,3.44,3.44,0,0,1-2.681-1.08,4.275,4.275,0,0,1-.981-2.985v-.139a4.226,4.226,0,0,1,.974-2.922,3.4,3.4,0,0,1,2.673-1.091,3.333,3.333,0,0,1,2.384.846,3,3,0,0,1,.912,2.252H59.8a1.455,1.455,0,0,0-.381-1.005,1.27,1.27,0,0,0-.967-.387,1.275,1.275,0,0,0-1.117.539,3.125,3.125,0,0,0-.377,1.749v.22A3.164,3.164,0,0,0,57.334-2.1,1.291,1.291,0,0,0,58.469-1.56ZM65.229,0H63.105V-7.925h2.124ZM62.981-9.976a1.042,1.042,0,0,1,.319-.784,1.2,1.2,0,0,1,.868-.308,1.2,1.2,0,0,1,.864.308,1.036,1.036,0,0,1,.322.784,1.039,1.039,0,0,1-.326.791,1.2,1.2,0,0,1-.861.308,1.2,1.2,0,0,1-.861-.308A1.039,1.039,0,0,1,62.981-9.976Zm3.662,5.94a4.7,4.7,0,0,1,.454-2.1A3.324,3.324,0,0,1,68.4-7.566a3.814,3.814,0,0,1,1.981-.505A3.609,3.609,0,0,1,73-7.09a3.939,3.939,0,0,1,1.132,2.666l.015.542A4.142,4.142,0,0,1,73.132-.956,3.539,3.539,0,0,1,70.4.146a3.556,3.556,0,0,1-2.736-1.1A4.215,4.215,0,0,1,66.643-3.94Zm2.117.15a2.962,2.962,0,0,0,.425,1.727,1.4,1.4,0,0,0,1.216.6,1.4,1.4,0,0,0,1.2-.591,3.241,3.241,0,0,0,.432-1.889A2.933,2.933,0,0,0,71.6-5.756a1.4,1.4,0,0,0-1.216-.609,1.382,1.382,0,0,0-1.2.605A3.3,3.3,0,0,0,68.76-3.885ZM70.8-11.25H73.11L71.082-8.979H69.36Zm6.6,3.325.066.916a2.767,2.767,0,0,1,2.278-1.062,2.3,2.3,0,0,1,1.875.74,3.451,3.451,0,0,1,.63,2.212V0H80.134V-5.068a1.373,1.373,0,0,0-.293-.978,1.312,1.312,0,0,0-.974-.3,1.456,1.456,0,0,0-1.34.762V0H75.41V-7.925Zm9.858,3.9a4.776,4.776,0,0,1,.831-2.952,2.7,2.7,0,0,1,2.274-1.1,2.427,2.427,0,0,1,1.912.864V-11.25H94.4V0H92.49l-.1-.842a2.491,2.491,0,0,1-2.036.989,2.69,2.69,0,0,1-2.245-1.1A4.93,4.93,0,0,1,87.261-4.021Zm2.117.158a3.128,3.128,0,0,0,.388,1.709,1.265,1.265,0,0,0,1.128.594,1.416,1.416,0,0,0,1.384-.829V-5.521a1.4,1.4,0,0,0-1.37-.829Q89.377-6.35,89.377-3.863ZM99.69.146A3.89,3.89,0,0,1,96.852-.923a3.8,3.8,0,0,1-1.095-2.849v-.205a4.787,4.787,0,0,1,.461-2.135,3.386,3.386,0,0,1,1.307-1.45,3.669,3.669,0,0,1,1.93-.509,3.289,3.289,0,0,1,2.56,1.025,4.167,4.167,0,0,1,.934,2.908v.864H97.9a1.966,1.966,0,0,0,.619,1.245,1.871,1.871,0,0,0,1.307.469,2.285,2.285,0,0,0,1.912-.886l1.04,1.165a3.178,3.178,0,0,1-1.289,1.051A4.229,4.229,0,0,1,99.69.146Zm-.242-6.511a1.323,1.323,0,0,0-1.022.427,2.209,2.209,0,0,0-.5,1.221h2.944v-.169a1.576,1.576,0,0,0-.381-1.092A1.365,1.365,0,0,0,99.448-6.365ZM110.12,0H108V-11.25h2.124Zm6.335,0a2.351,2.351,0,0,1-.212-.71,2.561,2.561,0,0,1-2,.857,2.814,2.814,0,0,1-1.93-.674,2.167,2.167,0,0,1-.765-1.7,2.24,2.24,0,0,1,.934-1.934,4.608,4.608,0,0,1,2.7-.681h.974V-5.3a1.306,1.306,0,0,0-.282-.879,1.109,1.109,0,0,0-.89-.33,1.261,1.261,0,0,0-.839.256.871.871,0,0,0-.3.7h-2.117a2.126,2.126,0,0,1,.425-1.274,2.808,2.808,0,0,1,1.2-.919,4.378,4.378,0,0,1,1.743-.333,3.459,3.459,0,0,1,2.325.736,2.575,2.575,0,0,1,.861,2.069v3.435a3.789,3.789,0,0,0,.315,1.707V0ZM114.7-1.472a1.823,1.823,0,0,0,.864-.209,1.371,1.371,0,0,0,.586-.56V-3.6h-.791q-1.589,0-1.692,1.1l-.007.125a.847.847,0,0,0,.278.652A1.081,1.081,0,0,0,114.7-1.472Zm12.231-.088a1.388,1.388,0,0,0,.952-.322,1.129,1.129,0,0,0,.381-.857h1.985a2.715,2.715,0,0,1-.439,1.476,2.9,2.9,0,0,1-1.183,1.04,3.7,3.7,0,0,1-1.659.37,3.44,3.44,0,0,1-2.681-1.08,4.275,4.275,0,0,1-.981-2.985v-.139a4.226,4.226,0,0,1,.974-2.922,3.4,3.4,0,0,1,2.673-1.091,3.333,3.333,0,0,1,2.384.846,3,3,0,0,1,.912,2.252h-1.985a1.455,1.455,0,0,0-.381-1.005,1.27,1.27,0,0,0-.967-.387,1.275,1.275,0,0,0-1.117.539,3.125,3.125,0,0,0-.377,1.749v.22A3.164,3.164,0,0,0,125.8-2.1,1.291,1.291,0,0,0,126.936-1.56ZM136.055,0a2.351,2.351,0,0,1-.212-.71,2.561,2.561,0,0,1-2,.857,2.814,2.814,0,0,1-1.93-.674,2.167,2.167,0,0,1-.765-1.7,2.24,2.24,0,0,1,.934-1.934,4.608,4.608,0,0,1,2.7-.681h.974V-5.3a1.306,1.306,0,0,0-.282-.879,1.109,1.109,0,0,0-.89-.33,1.261,1.261,0,0,0-.839.256.871.871,0,0,0-.3.7h-2.117a2.126,2.126,0,0,1,.425-1.274,2.808,2.808,0,0,1,1.2-.919,4.378,4.378,0,0,1,1.743-.333,3.459,3.459,0,0,1,2.325.736,2.575,2.575,0,0,1,.861,2.069v3.435a3.789,3.789,0,0,0,.315,1.707V0ZM134.3-1.472a1.823,1.823,0,0,0,.864-.209,1.371,1.371,0,0,0,.586-.56V-3.6h-.791q-1.589,0-1.692,1.1l-.007.125a.847.847,0,0,0,.278.652A1.081,1.081,0,0,0,134.3-1.472Zm7.185-6.453.066.886a2.785,2.785,0,0,1,2.278-1.033,2.114,2.114,0,0,1,2.1,1.208,2.721,2.721,0,0,1,2.38-1.208,2.364,2.364,0,0,1,1.919.751,3.451,3.451,0,0,1,.63,2.26V0H148.74V-5.054a1.509,1.509,0,0,0-.264-.985,1.169,1.169,0,0,0-.93-.311,1.321,1.321,0,0,0-1.318.908L146.235,0h-2.117V-5.046a1.491,1.491,0,0,0-.271-1,1.18,1.18,0,0,0-.923-.308,1.372,1.372,0,0,0-1.3.747V0H139.5V-7.925ZM157.083,0a2.351,2.351,0,0,1-.212-.71,2.561,2.561,0,0,1-2,.857,2.814,2.814,0,0,1-1.93-.674,2.167,2.167,0,0,1-.765-1.7,2.24,2.24,0,0,1,.934-1.934,4.608,4.608,0,0,1,2.7-.681h.974V-5.3a1.306,1.306,0,0,0-.282-.879,1.109,1.109,0,0,0-.89-.33,1.261,1.261,0,0,0-.839.256.871.871,0,0,0-.3.7h-2.117a2.126,2.126,0,0,1,.425-1.274,2.808,2.808,0,0,1,1.2-.919,4.378,4.378,0,0,1,1.743-.333,3.459,3.459,0,0,1,2.325.736,2.575,2.575,0,0,1,.861,2.069v3.435a3.789,3.789,0,0,0,.315,1.707V0Zm-1.75-1.472a1.823,1.823,0,0,0,.864-.209,1.371,1.371,0,0,0,.586-.56V-3.6h-.791q-1.589,0-1.692,1.1l-.007.125a.847.847,0,0,0,.278.652A1.081,1.081,0,0,0,155.332-1.472Z" transform="translate(305.185 8317.726)"/>
    <path id="Trazado_703908" data-name="Trazado 703908" d="M4.9-3.9H3.149V0H.952V-10.664H4.915a4.479,4.479,0,0,1,2.915.842,2.907,2.907,0,0,1,1.025,2.38,3.281,3.281,0,0,1-.472,1.82A3.222,3.222,0,0,1,6.951-4.46L9.258-.1V0H6.9Zm-1.75-1.78H4.922A1.815,1.815,0,0,0,6.2-6.1a1.505,1.505,0,0,0,.454-1.161,1.611,1.611,0,0,0-.428-1.187,1.781,1.781,0,0,0-1.315-.432H3.149ZM14.033.146A3.89,3.89,0,0,1,11.2-.923,3.8,3.8,0,0,1,10.1-3.772v-.205a4.787,4.787,0,0,1,.461-2.135,3.386,3.386,0,0,1,1.307-1.45,3.669,3.669,0,0,1,1.93-.509,3.289,3.289,0,0,1,2.56,1.025,4.167,4.167,0,0,1,.934,2.908v.864H12.246a1.966,1.966,0,0,0,.619,1.245,1.871,1.871,0,0,0,1.307.469,2.285,2.285,0,0,0,1.912-.886l1.04,1.165A3.178,3.178,0,0,1,15.835-.231,4.229,4.229,0,0,1,14.033.146Zm-.242-6.511a1.323,1.323,0,0,0-1.022.427,2.209,2.209,0,0,0-.5,1.221h2.944v-.169a1.576,1.576,0,0,0-.381-1.092A1.365,1.365,0,0,0,13.792-6.365Zm8,4.8a1.388,1.388,0,0,0,.952-.322,1.129,1.129,0,0,0,.381-.857h1.985a2.715,2.715,0,0,1-.439,1.476,2.9,2.9,0,0,1-1.183,1.04,3.7,3.7,0,0,1-1.659.37,3.44,3.44,0,0,1-2.681-1.08,4.275,4.275,0,0,1-.981-2.985v-.139a4.226,4.226,0,0,1,.974-2.922,3.4,3.4,0,0,1,2.673-1.091,3.333,3.333,0,0,1,2.384.846,3,3,0,0,1,.912,2.252H23.123a1.455,1.455,0,0,0-.381-1.005,1.27,1.27,0,0,0-.967-.387,1.275,1.275,0,0,0-1.117.539,3.125,3.125,0,0,0-.377,1.749v.22A3.164,3.164,0,0,0,20.654-2.1,1.291,1.291,0,0,0,21.79-1.56ZM29.963.146A3.89,3.89,0,0,1,27.125-.923,3.8,3.8,0,0,1,26.03-3.772v-.205a4.787,4.787,0,0,1,.461-2.135A3.386,3.386,0,0,1,27.8-7.562a3.669,3.669,0,0,1,1.93-.509,3.289,3.289,0,0,1,2.56,1.025,4.167,4.167,0,0,1,.934,2.908v.864H28.176A1.966,1.966,0,0,0,28.8-2.029,1.871,1.871,0,0,0,30.1-1.56a2.285,2.285,0,0,0,1.912-.886l1.04,1.165A3.178,3.178,0,0,1,31.765-.231,4.229,4.229,0,0,1,29.963.146Zm-.242-6.511a1.323,1.323,0,0,0-1.022.427,2.209,2.209,0,0,0-.5,1.221h2.944v-.169a1.576,1.576,0,0,0-.381-1.092A1.365,1.365,0,0,0,29.722-6.365ZM41.558-3.889a4.753,4.753,0,0,1-.831,2.933,2.665,2.665,0,0,1-2.245,1.1,2.469,2.469,0,0,1-1.941-.835V3.047H34.424V-7.925h1.963l.073.776a2.488,2.488,0,0,1,2.007-.923,2.683,2.683,0,0,1,2.278,1.084A4.882,4.882,0,0,1,41.558-4Zm-2.117-.154a3.119,3.119,0,0,0-.392-1.707,1.276,1.276,0,0,0-1.139-.6,1.386,1.386,0,0,0-1.37.762v3.245a1.41,1.41,0,0,0,1.384.784Q39.441-1.56,39.441-4.043ZM46.165-1.56a1.388,1.388,0,0,0,.952-.322,1.129,1.129,0,0,0,.381-.857h1.985a2.715,2.715,0,0,1-.439,1.476A2.9,2.9,0,0,1,47.86-.223,3.7,3.7,0,0,1,46.2.146a3.44,3.44,0,0,1-2.681-1.08,4.275,4.275,0,0,1-.981-2.985v-.139a4.226,4.226,0,0,1,.974-2.922,3.4,3.4,0,0,1,2.673-1.091,3.333,3.333,0,0,1,2.384.846,3,3,0,0,1,.912,2.252H47.5a1.455,1.455,0,0,0-.381-1.005,1.27,1.27,0,0,0-.967-.387,1.275,1.275,0,0,0-1.117.539,3.125,3.125,0,0,0-.377,1.749v.22A3.164,3.164,0,0,0,45.029-2.1,1.291,1.291,0,0,0,46.165-1.56ZM52.925,0H50.8V-7.925h2.124ZM50.676-9.976a1.042,1.042,0,0,1,.319-.784,1.2,1.2,0,0,1,.868-.308,1.2,1.2,0,0,1,.864.308,1.036,1.036,0,0,1,.322.784,1.039,1.039,0,0,1-.326.791,1.2,1.2,0,0,1-.861.308A1.2,1.2,0,0,1,51-9.185,1.039,1.039,0,0,1,50.676-9.976Zm3.662,5.94a4.7,4.7,0,0,1,.454-2.1A3.324,3.324,0,0,1,56.1-7.566a3.814,3.814,0,0,1,1.981-.505A3.609,3.609,0,0,1,60.7-7.09a3.939,3.939,0,0,1,1.132,2.666l.015.542A4.142,4.142,0,0,1,60.828-.956,3.539,3.539,0,0,1,58.1.146a3.556,3.556,0,0,1-2.736-1.1A4.215,4.215,0,0,1,54.338-3.94Zm2.117.15a2.962,2.962,0,0,0,.425,1.727,1.4,1.4,0,0,0,1.216.6,1.4,1.4,0,0,0,1.2-.591,3.241,3.241,0,0,0,.432-1.889A2.933,2.933,0,0,0,59.3-5.756a1.4,1.4,0,0,0-1.216-.609,1.382,1.382,0,0,0-1.2.605A3.3,3.3,0,0,0,56.455-3.885ZM58.5-11.25h2.307L58.777-8.979H57.056Zm6.6,3.325.066.916a2.767,2.767,0,0,1,2.278-1.062,2.3,2.3,0,0,1,1.875.74,3.451,3.451,0,0,1,.63,2.212V0H67.83V-5.068a1.373,1.373,0,0,0-.293-.978,1.312,1.312,0,0,0-.974-.3,1.456,1.456,0,0,0-1.34.762V0H63.105V-7.925Zm9.858,3.9a4.776,4.776,0,0,1,.831-2.952,2.7,2.7,0,0,1,2.274-1.1,2.427,2.427,0,0,1,1.912.864V-11.25H82.1V0H80.186l-.1-.842a2.491,2.491,0,0,1-2.036.989A2.69,2.69,0,0,1,75.8-.956,4.93,4.93,0,0,1,74.956-4.021Zm2.117.158a3.128,3.128,0,0,0,.388,1.709,1.265,1.265,0,0,0,1.128.594,1.416,1.416,0,0,0,1.384-.829V-5.521A1.4,1.4,0,0,0,78.6-6.35Q77.073-6.35,77.073-3.863ZM87.385.146A3.89,3.89,0,0,1,84.547-.923a3.8,3.8,0,0,1-1.095-2.849v-.205a4.787,4.787,0,0,1,.461-2.135,3.386,3.386,0,0,1,1.307-1.45,3.669,3.669,0,0,1,1.93-.509,3.289,3.289,0,0,1,2.56,1.025,4.167,4.167,0,0,1,.934,2.908v.864H85.6a1.966,1.966,0,0,0,.619,1.245,1.871,1.871,0,0,0,1.307.469,2.285,2.285,0,0,0,1.912-.886l1.04,1.165A3.178,3.178,0,0,1,89.187-.231,4.229,4.229,0,0,1,87.385.146Zm-.242-6.511a1.323,1.323,0,0,0-1.022.427,2.209,2.209,0,0,0-.5,1.221h2.944v-.169a1.576,1.576,0,0,0-.381-1.092A1.365,1.365,0,0,0,87.144-6.365Zm8.13,2.344a4.644,4.644,0,0,1,.868-2.937,2.812,2.812,0,0,1,2.34-1.113,2.466,2.466,0,0,1,2.029.894l.088-.747h1.919V-.264a3.387,3.387,0,0,1-.472,1.809,3.034,3.034,0,0,1-1.329,1.172,4.673,4.673,0,0,1-2.007.4,4.346,4.346,0,0,1-1.7-.348,3.016,3.016,0,0,1-1.252-.9L96.694.586a2.48,2.48,0,0,0,1.919.886,1.815,1.815,0,0,0,1.311-.45,1.69,1.69,0,0,0,.469-1.278V-.681a2.448,2.448,0,0,1-1.926.828A2.8,2.8,0,0,1,96.156-.97a4.643,4.643,0,0,1-.883-2.963Zm2.117.158a2.892,2.892,0,0,0,.432,1.691,1.375,1.375,0,0,0,1.187.612,1.47,1.47,0,0,0,1.384-.726V-5.624a1.466,1.466,0,0,0-1.37-.726,1.383,1.383,0,0,0-1.2.624A3.26,3.26,0,0,0,97.39-3.863ZM108.735,0a2.351,2.351,0,0,1-.212-.71,2.561,2.561,0,0,1-2,.857,2.814,2.814,0,0,1-1.93-.674,2.167,2.167,0,0,1-.765-1.7,2.24,2.24,0,0,1,.934-1.934,4.608,4.608,0,0,1,2.7-.681h.974V-5.3a1.306,1.306,0,0,0-.282-.879,1.109,1.109,0,0,0-.89-.33,1.261,1.261,0,0,0-.839.256.871.871,0,0,0-.3.7H104a2.126,2.126,0,0,1,.425-1.274,2.808,2.808,0,0,1,1.2-.919,4.378,4.378,0,0,1,1.743-.333,3.459,3.459,0,0,1,2.325.736,2.575,2.575,0,0,1,.861,2.069v3.435a3.789,3.789,0,0,0,.315,1.707V0Zm-1.75-1.472a1.823,1.823,0,0,0,.864-.209,1.371,1.371,0,0,0,.586-.56V-3.6h-.791q-1.589,0-1.692,1.1l-.007.125a.847.847,0,0,0,.278.652A1.081,1.081,0,0,0,106.985-1.472ZM114.419,0h-2.124V-11.25h2.124ZM118.4,0h-2.124V-11.25H118.4Zm3.977,0h-2.124V-7.925h2.124Zm-2.249-9.976a1.042,1.042,0,0,1,.319-.784,1.2,1.2,0,0,1,.868-.308,1.2,1.2,0,0,1,.864.308,1.036,1.036,0,0,1,.322.784,1.039,1.039,0,0,1-.326.791,1.2,1.2,0,0,1-.861.308,1.2,1.2,0,0,1-.861-.308A1.039,1.039,0,0,1,120.125-9.976Zm5.94,2.051.066.916a2.767,2.767,0,0,1,2.278-1.062,2.3,2.3,0,0,1,1.875.74,3.451,3.451,0,0,1,.63,2.212V0H128.8V-5.068a1.373,1.373,0,0,0-.293-.978,1.312,1.312,0,0,0-.974-.3,1.456,1.456,0,0,0-1.34.762V0h-2.117V-7.925ZM137.109,0a2.351,2.351,0,0,1-.212-.71,2.561,2.561,0,0,1-2,.857,2.814,2.814,0,0,1-1.93-.674,2.167,2.167,0,0,1-.765-1.7,2.24,2.24,0,0,1,.934-1.934,4.608,4.608,0,0,1,2.7-.681h.974V-5.3a1.306,1.306,0,0,0-.282-.879,1.109,1.109,0,0,0-.89-.33,1.261,1.261,0,0,0-.839.256.871.871,0,0,0-.3.7h-2.117a2.126,2.126,0,0,1,.425-1.274,2.808,2.808,0,0,1,1.2-.919,4.378,4.378,0,0,1,1.743-.333,3.459,3.459,0,0,1,2.325.736,2.575,2.575,0,0,1,.861,2.069v3.435a3.789,3.789,0,0,0,.315,1.707V0Zm-1.75-1.472a1.823,1.823,0,0,0,.864-.209,1.371,1.371,0,0,0,.586-.56V-3.6h-.791q-1.589,0-1.692,1.1l-.007.125a.847.847,0,0,0,.278.652A1.081,1.081,0,0,0,135.359-1.472Zm9.492-.718a.682.682,0,0,0-.385-.612,4.368,4.368,0,0,0-1.234-.4q-2.827-.593-2.827-2.4a2.178,2.178,0,0,1,.875-1.761,3.531,3.531,0,0,1,2.289-.707,3.8,3.8,0,0,1,2.413.71,2.239,2.239,0,0,1,.9,1.846h-2.117a1.024,1.024,0,0,0-.293-.751,1.24,1.24,0,0,0-.916-.3,1.267,1.267,0,0,0-.828.242.763.763,0,0,0-.293.615.652.652,0,0,0,.333.568,3.428,3.428,0,0,0,1.124.374,9.183,9.183,0,0,1,1.333.355,2.19,2.19,0,0,1,1.677,2.131,2.067,2.067,0,0,1-.93,1.754,4.013,4.013,0,0,1-2.4.67,4.191,4.191,0,0,1-1.769-.355,2.968,2.968,0,0,1-1.212-.974,2.263,2.263,0,0,1-.439-1.337h2.007a1.105,1.105,0,0,0,.417.864,1.656,1.656,0,0,0,1.04.3,1.533,1.533,0,0,0,.919-.231A.718.718,0,0,0,144.851-2.19Z" transform="translate(305.185 8409.203)"/>
    <path id="Trazado_703909" data-name="Trazado 703909" d="M6.973-2.2H3.12L2.388,0H.051l3.97-10.664H6.057L10.049,0H7.712ZM3.713-3.977H6.379L5.039-7.969ZM13.14,0H11.016V-11.25H13.14Zm3.977,0H14.993V-7.925h2.124ZM14.868-9.976a1.042,1.042,0,0,1,.319-.784,1.2,1.2,0,0,1,.868-.308,1.2,1.2,0,0,1,.864.308,1.036,1.036,0,0,1,.322.784,1.039,1.039,0,0,1-.326.791,1.2,1.2,0,0,1-.861.308,1.2,1.2,0,0,1-.861-.308A1.039,1.039,0,0,1,14.868-9.976Zm5.977,2.051.066.886a2.785,2.785,0,0,1,2.278-1.033,2.114,2.114,0,0,1,2.1,1.208,2.721,2.721,0,0,1,2.38-1.208,2.364,2.364,0,0,1,1.919.751,3.451,3.451,0,0,1,.63,2.26V0H28.1V-5.054a1.509,1.509,0,0,0-.264-.985,1.169,1.169,0,0,0-.93-.311,1.321,1.321,0,0,0-1.318.908L25.591,0H23.474V-5.046a1.491,1.491,0,0,0-.271-1,1.18,1.18,0,0,0-.923-.308,1.372,1.372,0,0,0-1.3.747V0H18.86V-7.925ZM35.493.146A3.89,3.89,0,0,1,32.655-.923,3.8,3.8,0,0,1,31.56-3.772v-.205a4.787,4.787,0,0,1,.461-2.135,3.386,3.386,0,0,1,1.307-1.45,3.669,3.669,0,0,1,1.93-.509,3.289,3.289,0,0,1,2.56,1.025,4.167,4.167,0,0,1,.934,2.908v.864H33.706a1.966,1.966,0,0,0,.619,1.245,1.871,1.871,0,0,0,1.307.469,2.285,2.285,0,0,0,1.912-.886l1.04,1.165A3.178,3.178,0,0,1,37.295-.231,4.229,4.229,0,0,1,35.493.146Zm-.242-6.511a1.323,1.323,0,0,0-1.022.427,2.209,2.209,0,0,0-.5,1.221h2.944v-.169a1.576,1.576,0,0,0-.381-1.092A1.365,1.365,0,0,0,35.251-6.365Zm6.65-1.56.066.916a2.767,2.767,0,0,1,2.278-1.062,2.3,2.3,0,0,1,1.875.74,3.451,3.451,0,0,1,.63,2.212V0H44.634V-5.068a1.373,1.373,0,0,0-.293-.978,1.312,1.312,0,0,0-.974-.3,1.456,1.456,0,0,0-1.34.762V0H39.91V-7.925Zm8.987-1.948v1.948h1.355v1.553H50.889v3.955a.944.944,0,0,0,.168.63.846.846,0,0,0,.645.19,3.376,3.376,0,0,0,.623-.051v1.6a4.358,4.358,0,0,1-1.282.19A2.021,2.021,0,0,1,48.772-2.1v-4.27H47.615V-7.925h1.157V-9.873ZM58.015,0A2.351,2.351,0,0,1,57.8-.71a2.561,2.561,0,0,1-2,.857,2.814,2.814,0,0,1-1.93-.674,2.167,2.167,0,0,1-.765-1.7,2.24,2.24,0,0,1,.934-1.934,4.608,4.608,0,0,1,2.7-.681h.974V-5.3a1.306,1.306,0,0,0-.282-.879,1.109,1.109,0,0,0-.89-.33,1.261,1.261,0,0,0-.839.256.871.871,0,0,0-.3.7H53.284a2.126,2.126,0,0,1,.425-1.274,2.808,2.808,0,0,1,1.2-.919,4.378,4.378,0,0,1,1.743-.333,3.459,3.459,0,0,1,2.325.736,2.575,2.575,0,0,1,.861,2.069v3.435a3.789,3.789,0,0,0,.315,1.707V0Zm-1.75-1.472a1.823,1.823,0,0,0,.864-.209,1.371,1.371,0,0,0,.586-.56V-3.6h-.791q-1.589,0-1.692,1.1l-.007.125a.847.847,0,0,0,.278.652A1.081,1.081,0,0,0,56.265-1.472Zm8.5-.088a1.388,1.388,0,0,0,.952-.322,1.129,1.129,0,0,0,.381-.857h1.985a2.715,2.715,0,0,1-.439,1.476,2.9,2.9,0,0,1-1.183,1.04A3.7,3.7,0,0,1,64.8.146a3.44,3.44,0,0,1-2.681-1.08,4.275,4.275,0,0,1-.981-2.985v-.139a4.226,4.226,0,0,1,.974-2.922,3.4,3.4,0,0,1,2.673-1.091,3.333,3.333,0,0,1,2.384.846,3,3,0,0,1,.912,2.252H66.094a1.455,1.455,0,0,0-.381-1.005,1.27,1.27,0,0,0-.967-.387,1.275,1.275,0,0,0-1.117.539,3.125,3.125,0,0,0-.377,1.749v.22A3.164,3.164,0,0,0,63.625-2.1,1.291,1.291,0,0,0,64.761-1.56ZM71.521,0H69.4V-7.925h2.124ZM69.272-9.976a1.042,1.042,0,0,1,.319-.784,1.2,1.2,0,0,1,.868-.308,1.2,1.2,0,0,1,.864.308,1.036,1.036,0,0,1,.322.784,1.039,1.039,0,0,1-.326.791,1.2,1.2,0,0,1-.861.308,1.2,1.2,0,0,1-.861-.308A1.039,1.039,0,0,1,69.272-9.976Zm3.662,5.94a4.7,4.7,0,0,1,.454-2.1A3.324,3.324,0,0,1,74.7-7.566a3.814,3.814,0,0,1,1.981-.505A3.609,3.609,0,0,1,79.3-7.09a3.939,3.939,0,0,1,1.132,2.666l.015.542A4.142,4.142,0,0,1,79.424-.956a3.539,3.539,0,0,1-2.732,1.1,3.556,3.556,0,0,1-2.736-1.1A4.215,4.215,0,0,1,72.935-3.94Zm2.117.15a2.962,2.962,0,0,0,.425,1.727,1.4,1.4,0,0,0,1.216.6,1.4,1.4,0,0,0,1.2-.591,3.241,3.241,0,0,0,.432-1.889,2.933,2.933,0,0,0-.432-1.716,1.4,1.4,0,0,0-1.216-.609,1.382,1.382,0,0,0-1.2.605A3.3,3.3,0,0,0,75.051-3.885Zm2.043-7.365H79.4L77.373-8.979H75.652Zm6.6,3.325.066.916a2.767,2.767,0,0,1,2.278-1.062,2.3,2.3,0,0,1,1.875.74,3.451,3.451,0,0,1,.63,2.212V0H86.426V-5.068a1.373,1.373,0,0,0-.293-.978,1.312,1.312,0,0,0-.974-.3,1.456,1.456,0,0,0-1.34.762V0H81.7V-7.925Zm9.858,3.9a4.776,4.776,0,0,1,.831-2.952,2.7,2.7,0,0,1,2.274-1.1,2.427,2.427,0,0,1,1.912.864V-11.25h2.124V0H98.782l-.1-.842a2.491,2.491,0,0,1-2.036.989A2.69,2.69,0,0,1,94.4-.956,4.93,4.93,0,0,1,93.552-4.021Zm2.117.158a3.128,3.128,0,0,0,.388,1.709,1.265,1.265,0,0,0,1.128.594,1.416,1.416,0,0,0,1.384-.829V-5.521A1.4,1.4,0,0,0,97.2-6.35Q95.669-6.35,95.669-3.863ZM105.981.146a3.89,3.89,0,0,1-2.838-1.069,3.8,3.8,0,0,1-1.095-2.849v-.205a4.787,4.787,0,0,1,.461-2.135,3.386,3.386,0,0,1,1.307-1.45,3.669,3.669,0,0,1,1.93-.509,3.289,3.289,0,0,1,2.56,1.025,4.167,4.167,0,0,1,.934,2.908v.864h-5.046a1.966,1.966,0,0,0,.619,1.245,1.871,1.871,0,0,0,1.307.469,2.285,2.285,0,0,0,1.912-.886l1.04,1.165a3.178,3.178,0,0,1-1.289,1.051A4.229,4.229,0,0,1,105.981.146Zm-.242-6.511a1.323,1.323,0,0,0-1.022.427,2.209,2.209,0,0,0-.5,1.221h2.944v-.169a1.576,1.576,0,0,0-.381-1.092A1.365,1.365,0,0,0,105.74-6.365Zm8.13,2.344a4.644,4.644,0,0,1,.868-2.937,2.812,2.812,0,0,1,2.34-1.113,2.466,2.466,0,0,1,2.029.894l.088-.747h1.919V-.264a3.387,3.387,0,0,1-.472,1.809,3.034,3.034,0,0,1-1.329,1.172,4.673,4.673,0,0,1-2.007.4,4.346,4.346,0,0,1-1.7-.348,3.016,3.016,0,0,1-1.252-.9l.938-1.289a2.48,2.48,0,0,0,1.919.886,1.815,1.815,0,0,0,1.311-.45,1.69,1.69,0,0,0,.469-1.278V-.681a2.448,2.448,0,0,1-1.926.828A2.8,2.8,0,0,1,114.752-.97a4.643,4.643,0,0,1-.883-2.963Zm2.117.158a2.892,2.892,0,0,0,.432,1.691,1.375,1.375,0,0,0,1.187.612,1.47,1.47,0,0,0,1.384-.726V-5.624a1.466,1.466,0,0,0-1.37-.726,1.383,1.383,0,0,0-1.2.624A3.26,3.26,0,0,0,115.986-3.863ZM127.332,0a2.351,2.351,0,0,1-.212-.71,2.561,2.561,0,0,1-2,.857,2.814,2.814,0,0,1-1.93-.674,2.167,2.167,0,0,1-.765-1.7,2.24,2.24,0,0,1,.934-1.934,4.608,4.608,0,0,1,2.7-.681h.974V-5.3a1.306,1.306,0,0,0-.282-.879,1.109,1.109,0,0,0-.89-.33,1.261,1.261,0,0,0-.839.256.871.871,0,0,0-.3.7H122.6a2.126,2.126,0,0,1,.425-1.274,2.808,2.808,0,0,1,1.2-.919,4.378,4.378,0,0,1,1.743-.333,3.459,3.459,0,0,1,2.325.736,2.575,2.575,0,0,1,.861,2.069v3.435a3.789,3.789,0,0,0,.315,1.707V0Zm-1.75-1.472a1.823,1.823,0,0,0,.864-.209,1.371,1.371,0,0,0,.586-.56V-3.6h-.791q-1.589,0-1.692,1.1l-.007.125a.847.847,0,0,0,.278.652A1.081,1.081,0,0,0,125.581-1.472ZM133.015,0h-2.124V-11.25h2.124Zm3.977,0h-2.124V-11.25h2.124Zm3.977,0h-2.124V-7.925h2.124Zm-2.249-9.976a1.042,1.042,0,0,1,.319-.784,1.2,1.2,0,0,1,.868-.308,1.2,1.2,0,0,1,.864.308,1.036,1.036,0,0,1,.322.784,1.039,1.039,0,0,1-.326.791,1.2,1.2,0,0,1-.861.308,1.2,1.2,0,0,1-.861-.308A1.039,1.039,0,0,1,138.721-9.976Zm5.94,2.051.066.916A2.767,2.767,0,0,1,147-8.071a2.3,2.3,0,0,1,1.875.74,3.451,3.451,0,0,1,.63,2.212V0h-2.117V-5.068a1.373,1.373,0,0,0-.293-.978,1.312,1.312,0,0,0-.974-.3,1.456,1.456,0,0,0-1.34.762V0h-2.117V-7.925ZM155.706,0a2.351,2.351,0,0,1-.212-.71,2.561,2.561,0,0,1-2,.857,2.814,2.814,0,0,1-1.93-.674,2.167,2.167,0,0,1-.765-1.7,2.24,2.24,0,0,1,.934-1.934,4.608,4.608,0,0,1,2.7-.681h.974V-5.3a1.306,1.306,0,0,0-.282-.879,1.109,1.109,0,0,0-.89-.33,1.261,1.261,0,0,0-.839.256.871.871,0,0,0-.3.7h-2.117a2.126,2.126,0,0,1,.425-1.274,2.808,2.808,0,0,1,1.2-.919,4.378,4.378,0,0,1,1.743-.333,3.459,3.459,0,0,1,2.325.736,2.575,2.575,0,0,1,.861,2.069v3.435a3.789,3.789,0,0,0,.315,1.707V0Zm-1.75-1.472a1.823,1.823,0,0,0,.864-.209,1.371,1.371,0,0,0,.586-.56V-3.6h-.791q-1.589,0-1.692,1.1l-.007.125a.847.847,0,0,0,.278.652A1.081,1.081,0,0,0,153.955-1.472Zm9.492-.718a.682.682,0,0,0-.385-.612,4.368,4.368,0,0,0-1.234-.4Q159-3.794,159-5.6a2.178,2.178,0,0,1,.875-1.761,3.531,3.531,0,0,1,2.289-.707,3.8,3.8,0,0,1,2.413.71,2.239,2.239,0,0,1,.9,1.846h-2.117a1.024,1.024,0,0,0-.293-.751,1.24,1.24,0,0,0-.916-.3,1.267,1.267,0,0,0-.828.242.763.763,0,0,0-.293.615.652.652,0,0,0,.333.568,3.428,3.428,0,0,0,1.124.374,9.183,9.183,0,0,1,1.333.355,2.19,2.19,0,0,1,1.677,2.131,2.067,2.067,0,0,1-.93,1.754,4.013,4.013,0,0,1-2.4.67A4.191,4.191,0,0,1,160.4-.209a2.968,2.968,0,0,1-1.212-.974,2.263,2.263,0,0,1-.439-1.337h2.007a1.105,1.105,0,0,0,.417.864,1.656,1.656,0,0,0,1.04.3,1.533,1.533,0,0,0,.919-.231A.718.718,0,0,0,163.447-2.19Z" transform="translate(298.844 8501.411)"/>
    <path id="Trazado_703910" data-name="Trazado 703910" d="M4.9-3.9H3.149V0H.952V-10.664H4.915a4.479,4.479,0,0,1,2.915.842,2.907,2.907,0,0,1,1.025,2.38,3.281,3.281,0,0,1-.472,1.82A3.222,3.222,0,0,1,6.951-4.46L9.258-.1V0H6.9Zm-1.75-1.78H4.922A1.815,1.815,0,0,0,6.2-6.1a1.505,1.505,0,0,0,.454-1.161,1.611,1.611,0,0,0-.428-1.187,1.781,1.781,0,0,0-1.315-.432H3.149ZM14.033.146A3.89,3.89,0,0,1,11.2-.923,3.8,3.8,0,0,1,10.1-3.772v-.205a4.787,4.787,0,0,1,.461-2.135,3.386,3.386,0,0,1,1.307-1.45,3.669,3.669,0,0,1,1.93-.509,3.289,3.289,0,0,1,2.56,1.025,4.167,4.167,0,0,1,.934,2.908v.864H12.246a1.966,1.966,0,0,0,.619,1.245,1.871,1.871,0,0,0,1.307.469,2.285,2.285,0,0,0,1.912-.886l1.04,1.165A3.178,3.178,0,0,1,15.835-.231,4.229,4.229,0,0,1,14.033.146Zm-.242-6.511a1.323,1.323,0,0,0-1.022.427,2.209,2.209,0,0,0-.5,1.221h2.944v-.169a1.576,1.576,0,0,0-.381-1.092A1.365,1.365,0,0,0,13.792-6.365Zm8,4.8a1.388,1.388,0,0,0,.952-.322,1.129,1.129,0,0,0,.381-.857h1.985a2.715,2.715,0,0,1-.439,1.476,2.9,2.9,0,0,1-1.183,1.04,3.7,3.7,0,0,1-1.659.37,3.44,3.44,0,0,1-2.681-1.08,4.275,4.275,0,0,1-.981-2.985v-.139a4.226,4.226,0,0,1,.974-2.922,3.4,3.4,0,0,1,2.673-1.091,3.333,3.333,0,0,1,2.384.846,3,3,0,0,1,.912,2.252H23.123a1.455,1.455,0,0,0-.381-1.005,1.27,1.27,0,0,0-.967-.387,1.275,1.275,0,0,0-1.117.539,3.125,3.125,0,0,0-.377,1.749v.22A3.164,3.164,0,0,0,20.654-2.1,1.291,1.291,0,0,0,21.79-1.56Zm4.2-2.476a4.7,4.7,0,0,1,.454-2.1,3.324,3.324,0,0,1,1.307-1.428,3.814,3.814,0,0,1,1.981-.505,3.609,3.609,0,0,1,2.618.981,3.939,3.939,0,0,1,1.132,2.666l.015.542A4.142,4.142,0,0,1,32.476-.956a3.539,3.539,0,0,1-2.732,1.1,3.556,3.556,0,0,1-2.736-1.1A4.215,4.215,0,0,1,25.986-3.94Zm2.117.15a2.962,2.962,0,0,0,.425,1.727,1.4,1.4,0,0,0,1.216.6,1.4,1.4,0,0,0,1.2-.591,3.241,3.241,0,0,0,.432-1.889,2.933,2.933,0,0,0-.432-1.716,1.4,1.4,0,0,0-1.216-.609,1.382,1.382,0,0,0-1.2.605A3.3,3.3,0,0,0,28.1-3.885ZM37.031,0H34.907V-11.25h2.124Zm5.391.146A3.89,3.89,0,0,1,39.584-.923a3.8,3.8,0,0,1-1.095-2.849v-.205a4.787,4.787,0,0,1,.461-2.135,3.386,3.386,0,0,1,1.307-1.45,3.669,3.669,0,0,1,1.93-.509,3.289,3.289,0,0,1,2.56,1.025,4.167,4.167,0,0,1,.934,2.908v.864H40.635a1.966,1.966,0,0,0,.619,1.245,1.871,1.871,0,0,0,1.307.469,2.285,2.285,0,0,0,1.912-.886l1.04,1.165A3.178,3.178,0,0,1,44.224-.231,4.229,4.229,0,0,1,42.422.146ZM42.18-6.365a1.323,1.323,0,0,0-1.022.427,2.209,2.209,0,0,0-.5,1.221H43.6v-.169a1.576,1.576,0,0,0-.381-1.092A1.365,1.365,0,0,0,42.18-6.365Zm8,4.8a1.388,1.388,0,0,0,.952-.322,1.129,1.129,0,0,0,.381-.857H53.5a2.715,2.715,0,0,1-.439,1.476,2.9,2.9,0,0,1-1.183,1.04,3.7,3.7,0,0,1-1.659.37,3.44,3.44,0,0,1-2.681-1.08,4.275,4.275,0,0,1-.981-2.985v-.139a4.226,4.226,0,0,1,.974-2.922A3.4,3.4,0,0,1,50.2-8.071a3.333,3.333,0,0,1,2.384.846A3,3,0,0,1,53.5-4.973H51.511a1.455,1.455,0,0,0-.381-1.005,1.27,1.27,0,0,0-.967-.387,1.275,1.275,0,0,0-1.117.539,3.125,3.125,0,0,0-.377,1.749v.22A3.164,3.164,0,0,0,49.043-2.1,1.291,1.291,0,0,0,50.178-1.56ZM58-1.56a1.388,1.388,0,0,0,.952-.322,1.129,1.129,0,0,0,.381-.857h1.985a2.715,2.715,0,0,1-.439,1.476A2.9,2.9,0,0,1,59.7-.223a3.7,3.7,0,0,1-1.659.37,3.44,3.44,0,0,1-2.681-1.08,4.275,4.275,0,0,1-.981-2.985v-.139a4.226,4.226,0,0,1,.974-2.922,3.4,3.4,0,0,1,2.673-1.091,3.333,3.333,0,0,1,2.384.846,3,3,0,0,1,.912,2.252H59.333a1.455,1.455,0,0,0-.381-1.005,1.27,1.27,0,0,0-.967-.387,1.275,1.275,0,0,0-1.117.539,3.125,3.125,0,0,0-.377,1.749v.22A3.164,3.164,0,0,0,56.865-2.1,1.291,1.291,0,0,0,58-1.56ZM64.761,0H62.637V-7.925h2.124ZM62.512-9.976a1.042,1.042,0,0,1,.319-.784,1.2,1.2,0,0,1,.868-.308,1.2,1.2,0,0,1,.864.308,1.036,1.036,0,0,1,.322.784,1.039,1.039,0,0,1-.326.791,1.2,1.2,0,0,1-.861.308,1.2,1.2,0,0,1-.861-.308A1.039,1.039,0,0,1,62.512-9.976Zm3.662,5.94a4.7,4.7,0,0,1,.454-2.1,3.324,3.324,0,0,1,1.307-1.428,3.814,3.814,0,0,1,1.981-.505,3.609,3.609,0,0,1,2.618.981,3.939,3.939,0,0,1,1.132,2.666l.015.542A4.142,4.142,0,0,1,72.664-.956a3.539,3.539,0,0,1-2.732,1.1A3.556,3.556,0,0,1,67.2-.952,4.215,4.215,0,0,1,66.174-3.94Zm2.117.15a2.962,2.962,0,0,0,.425,1.727,1.4,1.4,0,0,0,1.216.6,1.4,1.4,0,0,0,1.2-.591,3.241,3.241,0,0,0,.432-1.889,2.933,2.933,0,0,0-.432-1.716,1.4,1.4,0,0,0-1.216-.609,1.382,1.382,0,0,0-1.2.605A3.3,3.3,0,0,0,68.291-3.885Zm2.043-7.365h2.307L70.613-8.979H68.892Zm6.6,3.325L77-7.009a2.767,2.767,0,0,1,2.278-1.062,2.3,2.3,0,0,1,1.875.74,3.451,3.451,0,0,1,.63,2.212V0H79.666V-5.068a1.373,1.373,0,0,0-.293-.978,1.312,1.312,0,0,0-.974-.3,1.456,1.456,0,0,0-1.34.762V0H74.941V-7.925Zm9.858,3.9a4.776,4.776,0,0,1,.831-2.952,2.7,2.7,0,0,1,2.274-1.1,2.427,2.427,0,0,1,1.912.864V-11.25h2.124V0H92.021l-.1-.842a2.491,2.491,0,0,1-2.036.989,2.69,2.69,0,0,1-2.245-1.1A4.93,4.93,0,0,1,86.792-4.021Zm2.117.158A3.128,3.128,0,0,0,89.3-2.154a1.265,1.265,0,0,0,1.128.594,1.416,1.416,0,0,0,1.384-.829V-5.521a1.4,1.4,0,0,0-1.37-.829Q88.909-6.35,88.909-3.863ZM99.221.146A3.89,3.89,0,0,1,96.383-.923a3.8,3.8,0,0,1-1.095-2.849v-.205a4.787,4.787,0,0,1,.461-2.135,3.386,3.386,0,0,1,1.307-1.45,3.669,3.669,0,0,1,1.93-.509,3.289,3.289,0,0,1,2.56,1.025,4.167,4.167,0,0,1,.934,2.908v.864H97.434a1.966,1.966,0,0,0,.619,1.245,1.871,1.871,0,0,0,1.307.469,2.285,2.285,0,0,0,1.912-.886l1.04,1.165a3.178,3.178,0,0,1-1.289,1.051A4.229,4.229,0,0,1,99.221.146Zm-.242-6.511a1.323,1.323,0,0,0-1.022.427,2.209,2.209,0,0,0-.5,1.221H100.4v-.169a1.576,1.576,0,0,0-.381-1.092A1.365,1.365,0,0,0,98.979-6.365Zm10.5-.7A2.642,2.642,0,0,1,111.6-8.071q2.578,0,2.615,3V0H112.1V-5.017a1.472,1.472,0,0,0-.293-1.007,1.256,1.256,0,0,0-.974-.326,1.441,1.441,0,0,0-1.348.718V0h-2.117V-11.25h2.117ZM120.557-.806a2.654,2.654,0,0,1-2.168.952,2.5,2.5,0,0,1-1.945-.732,3.127,3.127,0,0,1-.685-2.146V-7.925h2.117V-2.8q0,1.239,1.128,1.239a1.528,1.528,0,0,0,1.479-.748V-7.925h2.124V0h-1.992Zm7.295.952a3.89,3.89,0,0,1-2.838-1.069,3.8,3.8,0,0,1-1.095-2.849v-.205a4.787,4.787,0,0,1,.461-2.135,3.386,3.386,0,0,1,1.307-1.45,3.669,3.669,0,0,1,1.93-.509,3.289,3.289,0,0,1,2.56,1.025,4.167,4.167,0,0,1,.934,2.908v.864h-5.046a1.966,1.966,0,0,0,.619,1.245,1.871,1.871,0,0,0,1.307.469,2.285,2.285,0,0,0,1.912-.886l1.04,1.165a3.178,3.178,0,0,1-1.289,1.051A4.229,4.229,0,0,1,127.852.146Zm-.242-6.511a1.323,1.323,0,0,0-1.022.427,2.209,2.209,0,0,0-.5,1.221h2.944v-.169a1.576,1.576,0,0,0-.381-1.092A1.365,1.365,0,0,0,127.61-6.365Zm7.483,3.779,1.472-5.339h2.212L136.1,0h-2.021l-2.673-7.925h2.212Zm4.07-1.45a4.7,4.7,0,0,1,.454-2.1,3.324,3.324,0,0,1,1.307-1.428,3.814,3.814,0,0,1,1.981-.505,3.609,3.609,0,0,1,2.618.981,3.939,3.939,0,0,1,1.132,2.666l.015.542a4.142,4.142,0,0,1-1.018,2.926,3.539,3.539,0,0,1-2.732,1.1,3.556,3.556,0,0,1-2.736-1.1,4.215,4.215,0,0,1-1.022-2.988Zm2.117.15a2.962,2.962,0,0,0,.425,1.727,1.4,1.4,0,0,0,1.216.6,1.4,1.4,0,0,0,1.2-.591,3.241,3.241,0,0,0,.432-1.889,2.933,2.933,0,0,0-.432-1.716,1.4,1.4,0,0,0-1.216-.609,1.382,1.382,0,0,0-1.2.605A3.3,3.3,0,0,0,141.28-3.885Zm10.986,1.7a.682.682,0,0,0-.385-.612,4.368,4.368,0,0,0-1.234-.4q-2.827-.593-2.827-2.4a2.178,2.178,0,0,1,.875-1.761,3.531,3.531,0,0,1,2.289-.707,3.8,3.8,0,0,1,2.413.71,2.239,2.239,0,0,1,.9,1.846h-2.117a1.024,1.024,0,0,0-.293-.751,1.24,1.24,0,0,0-.916-.3,1.267,1.267,0,0,0-.828.242.763.763,0,0,0-.293.615.652.652,0,0,0,.333.568,3.428,3.428,0,0,0,1.124.374,9.183,9.183,0,0,1,1.333.355,2.19,2.19,0,0,1,1.677,2.131,2.067,2.067,0,0,1-.93,1.754,4.013,4.013,0,0,1-2.4.67,4.191,4.191,0,0,1-1.769-.355,2.968,2.968,0,0,1-1.212-.974,2.263,2.263,0,0,1-.439-1.337h2.007a1.105,1.105,0,0,0,.417.864,1.656,1.656,0,0,0,1.04.3,1.533,1.533,0,0,0,.919-.231A.718.718,0,0,0,152.266-2.19Z" transform="translate(305.185 8591.094)"/>
    <path id="Trazado_703896" data-name="Trazado 703896" d="M5.715,0H3.4V-7.355l-2.27.663v-1.75L5.5-9.953h.212ZM8.853-4.862l.608-5.091h5.817v1.791H11.334l-.226,1.977a2.717,2.717,0,0,1,.646-.254,2.947,2.947,0,0,1,.783-.11,2.92,2.92,0,0,1,2.28.878,3.538,3.538,0,0,1,.8,2.464,3.532,3.532,0,0,1-.427,1.733,2.937,2.937,0,0,1-1.2,1.193,3.788,3.788,0,0,1-1.825.417A4.076,4.076,0,0,1,10.4-.249,3.152,3.152,0,0,1,9.119-1.308a2.573,2.573,0,0,1-.458-1.52h2.311a1.307,1.307,0,0,0,.349.866,1.107,1.107,0,0,0,.827.321q1.162,0,1.162-1.719,0-1.589-1.422-1.589a1.419,1.419,0,0,0-1.2.518ZM21.362-3.4H17.254V-5.182h4.108Zm7.554,1.545H25.628L25.054,0H22.49l3.65-9.953H28.4L32.074,0H29.5ZM26.2-3.712h2.14L27.269-7.164Zm13.357.075a4.508,4.508,0,0,1-.752,2.8,2.519,2.519,0,0,1-2.119.978,2.186,2.186,0,0,1-1.818-.9l-.1.759H32.71V-10.5h2.3v3.7a2.109,2.109,0,0,1,1.661-.731,2.519,2.519,0,0,1,2.133.991,4.531,4.531,0,0,1,.752,2.789Zm-2.311-.147A3.007,3.007,0,0,0,36.965-5.3a.956.956,0,0,0-.872-.454,1.1,1.1,0,0,0-1.08.594v2.935a1.109,1.109,0,0,0,1.094.587.978.978,0,0,0,1.032-.792A5.685,5.685,0,0,0,37.249-3.784Zm7.8-1.528-.759-.055a1.363,1.363,0,0,0-1.395.684V0h-2.3V-7.4h2.16l.075.95a1.784,1.784,0,0,1,1.62-1.087,2.247,2.247,0,0,1,.643.082Z" transform="translate(476.322 8144.765)"/>
    <path id="Trazado_703897" data-name="Trazado 703897" d="M7.554,0H.608V-1.5l3.2-3.363A3.818,3.818,0,0,0,4.99-7.007a1.488,1.488,0,0,0-.28-.978A1,1,0,0,0,3.9-8.319a1.013,1.013,0,0,0-.854.448,1.84,1.84,0,0,0-.328,1.118H.4A3.269,3.269,0,0,1,.861-8.446,3.212,3.212,0,0,1,2.133-9.659,3.777,3.777,0,0,1,3.951-10.1a3.715,3.715,0,0,1,2.485.745,2.66,2.66,0,0,1,.872,2.14,3.107,3.107,0,0,1-.219,1.145A5.021,5.021,0,0,1,6.409-4.9,17.134,17.134,0,0,1,4.922-3.261L3.637-1.777H7.554Zm8.073-4.067a4.752,4.752,0,0,1-.906,3.11A3.13,3.13,0,0,1,12.168.137,3.147,3.147,0,0,1,9.6-.964a4.745,4.745,0,0,1-.909-3.1V-5.886A4.752,4.752,0,0,1,9.594-9a3.138,3.138,0,0,1,2.56-1.094,3.139,3.139,0,0,1,2.563,1.1,4.757,4.757,0,0,1,.909,3.11Zm-2.3-2.112a3.55,3.55,0,0,0-.28-1.6.937.937,0,0,0-.889-.53.915.915,0,0,0-.865.492A3.344,3.344,0,0,0,11-6.33v2.543a3.577,3.577,0,0,0,.28,1.63.94.94,0,0,0,.889.516.928.928,0,0,0,.868-.5,3.414,3.414,0,0,0,.287-1.576ZM21.362-3.4H17.254V-5.182h4.108Zm7.554,1.545H25.628L25.054,0H22.49l3.65-9.953H28.4L32.074,0H29.5ZM26.2-3.712h2.14L27.269-7.164Zm13.357.075a4.508,4.508,0,0,1-.752,2.8,2.519,2.519,0,0,1-2.119.978,2.186,2.186,0,0,1-1.818-.9l-.1.759H32.71V-10.5h2.3v3.7a2.109,2.109,0,0,1,1.661-.731,2.519,2.519,0,0,1,2.133.991,4.531,4.531,0,0,1,.752,2.789Zm-2.311-.147A3.007,3.007,0,0,0,36.965-5.3a.956.956,0,0,0-.872-.454,1.1,1.1,0,0,0-1.08.594v2.935a1.109,1.109,0,0,0,1.094.587.978.978,0,0,0,1.032-.792A5.685,5.685,0,0,0,37.249-3.784Zm7.8-1.528-.759-.055a1.363,1.363,0,0,0-1.395.684V0h-2.3V-7.4h2.16l.075.95a1.784,1.784,0,0,1,1.62-1.087,2.247,2.247,0,0,1,.643.082Z" transform="translate(563.684 8144.765)"/>
    <path id="Trazado_703898" data-name="Trazado 703898" d="M7.554,0H.608V-1.5l3.2-3.363A3.818,3.818,0,0,0,4.99-7.007a1.488,1.488,0,0,0-.28-.978A1,1,0,0,0,3.9-8.319a1.013,1.013,0,0,0-.854.448,1.84,1.84,0,0,0-.328,1.118H.4A3.269,3.269,0,0,1,.861-8.446,3.212,3.212,0,0,1,2.133-9.659,3.777,3.777,0,0,1,3.951-10.1a3.715,3.715,0,0,1,2.485.745,2.66,2.66,0,0,1,.872,2.14,3.107,3.107,0,0,1-.219,1.145A5.021,5.021,0,0,1,6.409-4.9,17.134,17.134,0,0,1,4.922-3.261L3.637-1.777H7.554Zm1.3-4.862.608-5.091h5.817v1.791H11.334l-.226,1.977a2.717,2.717,0,0,1,.646-.254,2.947,2.947,0,0,1,.783-.11,2.92,2.92,0,0,1,2.28.878,3.538,3.538,0,0,1,.8,2.464,3.532,3.532,0,0,1-.427,1.733,2.937,2.937,0,0,1-1.2,1.193,3.788,3.788,0,0,1-1.825.417A4.076,4.076,0,0,1,10.4-.249,3.152,3.152,0,0,1,9.119-1.308a2.573,2.573,0,0,1-.458-1.52h2.311a1.307,1.307,0,0,0,.349.866,1.107,1.107,0,0,0,.827.321q1.162,0,1.162-1.719,0-1.589-1.422-1.589a1.419,1.419,0,0,0-1.2.518ZM21.362-3.4H17.254V-5.182h4.108Zm7.554,1.545H25.628L25.054,0H22.49l3.65-9.953H28.4L32.074,0H29.5ZM26.2-3.712h2.14L27.269-7.164Zm13.357.075a4.508,4.508,0,0,1-.752,2.8,2.519,2.519,0,0,1-2.119.978,2.186,2.186,0,0,1-1.818-.9l-.1.759H32.71V-10.5h2.3v3.7a2.109,2.109,0,0,1,1.661-.731,2.519,2.519,0,0,1,2.133.991,4.531,4.531,0,0,1,.752,2.789Zm-2.311-.147A3.007,3.007,0,0,0,36.965-5.3a.956.956,0,0,0-.872-.454,1.1,1.1,0,0,0-1.08.594v2.935a1.109,1.109,0,0,0,1.094.587.978.978,0,0,0,1.032-.792A5.685,5.685,0,0,0,37.249-3.784Zm7.8-1.528-.759-.055a1.363,1.363,0,0,0-1.395.684V0h-2.3V-7.4h2.16l.075.95a1.784,1.784,0,0,1,1.62-1.087,2.247,2.247,0,0,1,.643.082Z" transform="translate(641.541 8144.765)"/>
    <path id="Trazado_703899" data-name="Trazado 703899" d="M2.714-5.94H3.8A1.13,1.13,0,0,0,5.093-7.205a1.094,1.094,0,0,0-.308-.8,1.166,1.166,0,0,0-.868-.311,1.249,1.249,0,0,0-.8.267.813.813,0,0,0-.338.663H.479a2.358,2.358,0,0,1,.438-1.4,2.889,2.889,0,0,1,1.213-.96A4.149,4.149,0,0,1,3.835-10.1a4.076,4.076,0,0,1,2.611.759A2.522,2.522,0,0,1,7.4-7.253,2.1,2.1,0,0,1,7-6.04a2.8,2.8,0,0,1-1.145.926A2.676,2.676,0,0,1,7.1-4.242,2.3,2.3,0,0,1,7.554-2.8,2.568,2.568,0,0,1,6.528-.663a4.256,4.256,0,0,1-2.693.8A4.414,4.414,0,0,1,2.02-.236,2.844,2.844,0,0,1,.752-1.268a2.684,2.684,0,0,1-.431-1.5H2.639a1.037,1.037,0,0,0,.369.793,1.3,1.3,0,0,0,.909.335,1.365,1.365,0,0,0,.971-.338,1.131,1.131,0,0,0,.362-.865A1.322,1.322,0,0,0,4.874-3.91a1.572,1.572,0,0,0-1.039-.314H2.714ZM15.627-4.067a4.752,4.752,0,0,1-.906,3.11A3.13,3.13,0,0,1,12.168.137,3.147,3.147,0,0,1,9.6-.964a4.745,4.745,0,0,1-.909-3.1V-5.886A4.752,4.752,0,0,1,9.594-9a3.138,3.138,0,0,1,2.56-1.094,3.139,3.139,0,0,1,2.563,1.1,4.757,4.757,0,0,1,.909,3.11Zm-2.3-2.112a3.55,3.55,0,0,0-.28-1.6.937.937,0,0,0-.889-.53.915.915,0,0,0-.865.492A3.344,3.344,0,0,0,11-6.33v2.543a3.577,3.577,0,0,0,.28,1.63.94.94,0,0,0,.889.516.928.928,0,0,0,.868-.5,3.414,3.414,0,0,0,.287-1.576ZM21.362-3.4H17.254V-5.182h4.108Zm7.554,1.545H25.628L25.054,0H22.49l3.65-9.953H28.4L32.074,0H29.5ZM26.2-3.712h2.14L27.269-7.164Zm13.357.075a4.508,4.508,0,0,1-.752,2.8,2.519,2.519,0,0,1-2.119.978,2.186,2.186,0,0,1-1.818-.9l-.1.759H32.71V-10.5h2.3v3.7a2.109,2.109,0,0,1,1.661-.731,2.519,2.519,0,0,1,2.133.991,4.531,4.531,0,0,1,.752,2.789Zm-2.311-.147A3.007,3.007,0,0,0,36.965-5.3a.956.956,0,0,0-.872-.454,1.1,1.1,0,0,0-1.08.594v2.935a1.109,1.109,0,0,0,1.094.587.978.978,0,0,0,1.032-.792A5.685,5.685,0,0,0,37.249-3.784Zm7.8-1.528-.759-.055a1.363,1.363,0,0,0-1.395.684V0h-2.3V-7.4h2.16l.075.95a1.784,1.784,0,0,1,1.62-1.087,2.247,2.247,0,0,1,.643.082Z" transform="translate(719.623 8144.765)"/>
    <path id="Trazado_703900" data-name="Trazado 703900" d="M.8-5.209l.652-5.455H7.683v1.919H3.457L3.215-6.627A2.911,2.911,0,0,1,3.907-6.9a3.158,3.158,0,0,1,.839-.118,3.129,3.129,0,0,1,2.443.941,3.791,3.791,0,0,1,.853,2.64,3.784,3.784,0,0,1-.458,1.857A3.146,3.146,0,0,1,6.3-.3,4.058,4.058,0,0,1,4.343.146,4.367,4.367,0,0,1,2.461-.267,3.377,3.377,0,0,1,1.084-1.4,2.756,2.756,0,0,1,.593-3.03H3.069a1.4,1.4,0,0,0,.374.928,1.186,1.186,0,0,0,.886.344q1.245,0,1.245-1.842,0-1.7-1.523-1.7a1.52,1.52,0,0,0-1.289.555ZM14.2-3.647H9.8v-1.9h4.4Zm5.413-7.017,2.38,7.419,2.373-7.419h3.384V0H25.173V-2.49l.249-5.1L22.844,0h-1.7L18.56-7.6l.249,5.1V0H16.238V-10.664ZM33.735,0A2.787,2.787,0,0,1,33.5-.71a2.3,2.3,0,0,1-1.9.857,2.812,2.812,0,0,1-1.9-.677,2.156,2.156,0,0,1-.784-1.7,2.216,2.216,0,0,1,.952-1.948,4.851,4.851,0,0,1,2.769-.659h.762v-.42q0-1.1-.945-1.1a.772.772,0,0,0-.879.868H29.1a2.213,2.213,0,0,1,.978-1.865,4.109,4.109,0,0,1,2.494-.717,3.6,3.6,0,0,1,2.4.74,2.572,2.572,0,0,1,.9,2.029v3.508A3.593,3.593,0,0,0,36.2-.125V0ZM32.19-1.611a1.377,1.377,0,0,0,.765-.2,1.239,1.239,0,0,0,.436-.447V-3.523h-.718q-1.289,0-1.289,1.157a.707.707,0,0,0,.227.546A.822.822,0,0,0,32.19-1.611Zm8-1.846L41.5-7.925h2.644l-3.23,9.25-.139.337A2.454,2.454,0,0,1,38.347,3.2a3.868,3.868,0,0,1-1.018-.146V1.3h.322a1.688,1.688,0,0,0,.795-.15.912.912,0,0,0,.406-.539l.2-.528-2.754-8h2.637Z" transform="translate(808.506 8145.765)"/>
    <path id="Trazado_703901" data-name="Trazado 703901" d="M5.715,0H3.4V-7.355l-2.27.663v-1.75L5.5-9.953h.212Zm9.912-4.067a4.752,4.752,0,0,1-.906,3.11A3.13,3.13,0,0,1,12.168.137,3.147,3.147,0,0,1,9.6-.964a4.745,4.745,0,0,1-.909-3.1V-5.886A4.752,4.752,0,0,1,9.594-9a3.138,3.138,0,0,1,2.56-1.094,3.139,3.139,0,0,1,2.563,1.1,4.757,4.757,0,0,1,.909,3.11Zm-2.3-2.112a3.55,3.55,0,0,0-.28-1.6.937.937,0,0,0-.889-.53.915.915,0,0,0-.865.492A3.344,3.344,0,0,0,11-6.33v2.543a3.577,3.577,0,0,0,.28,1.63.94.94,0,0,0,.889.516.928.928,0,0,0,.868-.5,3.414,3.414,0,0,0,.287-1.576ZM21.362-3.4H17.254V-5.182h4.108Zm5.052-6.549,2.222,6.925,2.215-6.925h3.158V0H31.6V-2.324l.232-4.758L29.429,0H27.843L25.43-7.089l.232,4.765V0h-2.4V-9.953ZM39.594,0a2.6,2.6,0,0,1-.219-.663,2.142,2.142,0,0,1-1.777.8A2.624,2.624,0,0,1,35.82-.5a2.013,2.013,0,0,1-.731-1.589A2.069,2.069,0,0,1,35.978-3.9a4.527,4.527,0,0,1,2.584-.615h.711V-4.91q0-1.023-.882-1.023a.721.721,0,0,0-.82.811h-2.3a2.065,2.065,0,0,1,.913-1.741,3.835,3.835,0,0,1,2.328-.669,3.363,3.363,0,0,1,2.235.69,2.4,2.4,0,0,1,.841,1.894v3.274A3.353,3.353,0,0,0,41.9-.116V0ZM38.151-1.5a1.285,1.285,0,0,0,.714-.185,1.157,1.157,0,0,0,.407-.417V-3.288H38.6q-1.2,0-1.2,1.08a.659.659,0,0,0,.212.509A.767.767,0,0,0,38.151-1.5Zm7.463-1.723,1.23-4.17h2.468L46.3,1.237l-.13.314A2.29,2.29,0,0,1,43.9,2.987a3.61,3.61,0,0,1-.95-.136V1.21h.3a1.576,1.576,0,0,0,.742-.14.851.851,0,0,0,.379-.5l.185-.493L41.984-7.4h2.461Z" transform="translate(875.201 8144.765)"/>
    <path id="Trazado_703902" data-name="Trazado 703902" d="M5.715,0H3.4V-7.355l-2.27.663v-1.75L5.5-9.953h.212ZM8.853-4.862l.608-5.091h5.817v1.791H11.334l-.226,1.977a2.717,2.717,0,0,1,.646-.254,2.947,2.947,0,0,1,.783-.11,2.92,2.92,0,0,1,2.28.878,3.538,3.538,0,0,1,.8,2.464,3.532,3.532,0,0,1-.427,1.733,2.937,2.937,0,0,1-1.2,1.193,3.788,3.788,0,0,1-1.825.417A4.076,4.076,0,0,1,10.4-.249,3.152,3.152,0,0,1,9.119-1.308a2.573,2.573,0,0,1-.458-1.52h2.311a1.307,1.307,0,0,0,.349.866,1.107,1.107,0,0,0,.827.321q1.162,0,1.162-1.719,0-1.589-1.422-1.589a1.419,1.419,0,0,0-1.2.518ZM21.362-3.4H17.254V-5.182h4.108Zm5.052-6.549,2.222,6.925,2.215-6.925h3.158V0H31.6V-2.324l.232-4.758L29.429,0H27.843L25.43-7.089l.232,4.765V0h-2.4V-9.953ZM39.594,0a2.6,2.6,0,0,1-.219-.663,2.142,2.142,0,0,1-1.777.8A2.624,2.624,0,0,1,35.82-.5a2.013,2.013,0,0,1-.731-1.589A2.069,2.069,0,0,1,35.978-3.9a4.527,4.527,0,0,1,2.584-.615h.711V-4.91q0-1.023-.882-1.023a.721.721,0,0,0-.82.811h-2.3a2.065,2.065,0,0,1,.913-1.741,3.835,3.835,0,0,1,2.328-.669,3.363,3.363,0,0,1,2.235.69,2.4,2.4,0,0,1,.841,1.894v3.274A3.353,3.353,0,0,0,41.9-.116V0ZM38.151-1.5a1.285,1.285,0,0,0,.714-.185,1.157,1.157,0,0,0,.407-.417V-3.288H38.6q-1.2,0-1.2,1.08a.659.659,0,0,0,.212.509A.767.767,0,0,0,38.151-1.5Zm7.463-1.723,1.23-4.17h2.468L46.3,1.237l-.13.314A2.29,2.29,0,0,1,43.9,2.987a3.61,3.61,0,0,1-.95-.136V1.21h.3a1.576,1.576,0,0,0,.742-.14.851.851,0,0,0,.379-.5l.185-.493L41.984-7.4h2.461Z" transform="translate(955.097 8144.765)"/>
    <path id="Trazado_703903" data-name="Trazado 703903" d="M7.554,0H.608V-1.5l3.2-3.363A3.818,3.818,0,0,0,4.99-7.007a1.488,1.488,0,0,0-.28-.978A1,1,0,0,0,3.9-8.319a1.013,1.013,0,0,0-.854.448,1.84,1.84,0,0,0-.328,1.118H.4A3.269,3.269,0,0,1,.861-8.446,3.212,3.212,0,0,1,2.133-9.659,3.777,3.777,0,0,1,3.951-10.1a3.715,3.715,0,0,1,2.485.745,2.66,2.66,0,0,1,.872,2.14,3.107,3.107,0,0,1-.219,1.145A5.021,5.021,0,0,1,6.409-4.9,17.134,17.134,0,0,1,4.922-3.261L3.637-1.777H7.554Zm8.073-4.067a4.752,4.752,0,0,1-.906,3.11A3.13,3.13,0,0,1,12.168.137,3.147,3.147,0,0,1,9.6-.964a4.745,4.745,0,0,1-.909-3.1V-5.886A4.752,4.752,0,0,1,9.594-9a3.138,3.138,0,0,1,2.56-1.094,3.139,3.139,0,0,1,2.563,1.1,4.757,4.757,0,0,1,.909,3.11Zm-2.3-2.112a3.55,3.55,0,0,0-.28-1.6.937.937,0,0,0-.889-.53.915.915,0,0,0-.865.492A3.344,3.344,0,0,0,11-6.33v2.543a3.577,3.577,0,0,0,.28,1.63.94.94,0,0,0,.889.516.928.928,0,0,0,.868-.5,3.414,3.414,0,0,0,.287-1.576ZM21.362-3.4H17.254V-5.182h4.108Zm5.052-6.549,2.222,6.925,2.215-6.925h3.158V0H31.6V-2.324l.232-4.758L29.429,0H27.843L25.43-7.089l.232,4.765V0h-2.4V-9.953ZM39.594,0a2.6,2.6,0,0,1-.219-.663,2.142,2.142,0,0,1-1.777.8A2.624,2.624,0,0,1,35.82-.5a2.013,2.013,0,0,1-.731-1.589A2.069,2.069,0,0,1,35.978-3.9a4.527,4.527,0,0,1,2.584-.615h.711V-4.91q0-1.023-.882-1.023a.721.721,0,0,0-.82.811h-2.3a2.065,2.065,0,0,1,.913-1.741,3.835,3.835,0,0,1,2.328-.669,3.363,3.363,0,0,1,2.235.69,2.4,2.4,0,0,1,.841,1.894v3.274A3.353,3.353,0,0,0,41.9-.116V0ZM38.151-1.5a1.285,1.285,0,0,0,.714-.185,1.157,1.157,0,0,0,.407-.417V-3.288H38.6q-1.2,0-1.2,1.08a.659.659,0,0,0,.212.509A.767.767,0,0,0,38.151-1.5Zm7.463-1.723,1.23-4.17h2.468L46.3,1.237l-.13.314A2.29,2.29,0,0,1,43.9,2.987a3.61,3.61,0,0,1-.95-.136V1.21h.3a1.576,1.576,0,0,0,.742-.14.851.851,0,0,0,.379-.5l.185-.493L41.984-7.4h2.461Z" transform="translate(1034.994 8144.765)"/>
    <path id="Trazado_703904" data-name="Trazado 703904" d="M7.554,0H.608V-1.5l3.2-3.363A3.818,3.818,0,0,0,4.99-7.007a1.488,1.488,0,0,0-.28-.978A1,1,0,0,0,3.9-8.319a1.013,1.013,0,0,0-.854.448,1.84,1.84,0,0,0-.328,1.118H.4A3.269,3.269,0,0,1,.861-8.446,3.212,3.212,0,0,1,2.133-9.659,3.777,3.777,0,0,1,3.951-10.1a3.715,3.715,0,0,1,2.485.745,2.66,2.66,0,0,1,.872,2.14,3.107,3.107,0,0,1-.219,1.145A5.021,5.021,0,0,1,6.409-4.9,17.134,17.134,0,0,1,4.922-3.261L3.637-1.777H7.554Zm1.3-4.862.608-5.091h5.817v1.791H11.334l-.226,1.977a2.717,2.717,0,0,1,.646-.254,2.947,2.947,0,0,1,.783-.11,2.92,2.92,0,0,1,2.28.878,3.538,3.538,0,0,1,.8,2.464,3.532,3.532,0,0,1-.427,1.733,2.937,2.937,0,0,1-1.2,1.193,3.788,3.788,0,0,1-1.825.417A4.076,4.076,0,0,1,10.4-.249,3.152,3.152,0,0,1,9.119-1.308a2.573,2.573,0,0,1-.458-1.52h2.311a1.307,1.307,0,0,0,.349.866,1.107,1.107,0,0,0,.827.321q1.162,0,1.162-1.719,0-1.589-1.422-1.589a1.419,1.419,0,0,0-1.2.518ZM21.362-3.4H17.254V-5.182h4.108Zm5.052-6.549,2.222,6.925,2.215-6.925h3.158V0H31.6V-2.324l.232-4.758L29.429,0H27.843L25.43-7.089l.232,4.765V0h-2.4V-9.953ZM39.594,0a2.6,2.6,0,0,1-.219-.663,2.142,2.142,0,0,1-1.777.8A2.624,2.624,0,0,1,35.82-.5a2.013,2.013,0,0,1-.731-1.589A2.069,2.069,0,0,1,35.978-3.9a4.527,4.527,0,0,1,2.584-.615h.711V-4.91q0-1.023-.882-1.023a.721.721,0,0,0-.82.811h-2.3a2.065,2.065,0,0,1,.913-1.741,3.835,3.835,0,0,1,2.328-.669,3.363,3.363,0,0,1,2.235.69,2.4,2.4,0,0,1,.841,1.894v3.274A3.353,3.353,0,0,0,41.9-.116V0ZM38.151-1.5a1.285,1.285,0,0,0,.714-.185,1.157,1.157,0,0,0,.407-.417V-3.288H38.6q-1.2,0-1.2,1.08a.659.659,0,0,0,.212.509A.767.767,0,0,0,38.151-1.5Zm7.463-1.723,1.23-4.17h2.468L46.3,1.237l-.13.314A2.29,2.29,0,0,1,43.9,2.987a3.61,3.61,0,0,1-.95-.136V1.21h.3a1.576,1.576,0,0,0,.742-.14.851.851,0,0,0,.379-.5l.185-.493L41.984-7.4h2.461Z" transform="translate(1113.3 8144.765)"/>
    <path id="Trazado_703905" data-name="Trazado 703905" d="M2.714-5.94H3.8A1.13,1.13,0,0,0,5.093-7.205a1.094,1.094,0,0,0-.308-.8,1.166,1.166,0,0,0-.868-.311,1.249,1.249,0,0,0-.8.267.813.813,0,0,0-.338.663H.479a2.358,2.358,0,0,1,.438-1.4,2.889,2.889,0,0,1,1.213-.96A4.149,4.149,0,0,1,3.835-10.1a4.076,4.076,0,0,1,2.611.759A2.522,2.522,0,0,1,7.4-7.253,2.1,2.1,0,0,1,7-6.04a2.8,2.8,0,0,1-1.145.926A2.676,2.676,0,0,1,7.1-4.242,2.3,2.3,0,0,1,7.554-2.8,2.568,2.568,0,0,1,6.528-.663a4.256,4.256,0,0,1-2.693.8A4.414,4.414,0,0,1,2.02-.236,2.844,2.844,0,0,1,.752-1.268a2.684,2.684,0,0,1-.431-1.5H2.639a1.037,1.037,0,0,0,.369.793,1.3,1.3,0,0,0,.909.335,1.365,1.365,0,0,0,.971-.338,1.131,1.131,0,0,0,.362-.865A1.322,1.322,0,0,0,4.874-3.91a1.572,1.572,0,0,0-1.039-.314H2.714ZM15.627-4.067a4.752,4.752,0,0,1-.906,3.11A3.13,3.13,0,0,1,12.168.137,3.147,3.147,0,0,1,9.6-.964a4.745,4.745,0,0,1-.909-3.1V-5.886A4.752,4.752,0,0,1,9.594-9a3.138,3.138,0,0,1,2.56-1.094,3.139,3.139,0,0,1,2.563,1.1,4.757,4.757,0,0,1,.909,3.11Zm-2.3-2.112a3.55,3.55,0,0,0-.28-1.6.937.937,0,0,0-.889-.53.915.915,0,0,0-.865.492A3.344,3.344,0,0,0,11-6.33v2.543a3.577,3.577,0,0,0,.28,1.63.94.94,0,0,0,.889.516.928.928,0,0,0,.868-.5,3.414,3.414,0,0,0,.287-1.576ZM21.362-3.4H17.254V-5.182h4.108Zm5.052-6.549,2.222,6.925,2.215-6.925h3.158V0H31.6V-2.324l.232-4.758L29.429,0H27.843L25.43-7.089l.232,4.765V0h-2.4V-9.953ZM39.594,0a2.6,2.6,0,0,1-.219-.663,2.142,2.142,0,0,1-1.777.8A2.624,2.624,0,0,1,35.82-.5a2.013,2.013,0,0,1-.731-1.589A2.069,2.069,0,0,1,35.978-3.9a4.527,4.527,0,0,1,2.584-.615h.711V-4.91q0-1.023-.882-1.023a.721.721,0,0,0-.82.811h-2.3a2.065,2.065,0,0,1,.913-1.741,3.835,3.835,0,0,1,2.328-.669,3.363,3.363,0,0,1,2.235.69,2.4,2.4,0,0,1,.841,1.894v3.274A3.353,3.353,0,0,0,41.9-.116V0ZM38.151-1.5a1.285,1.285,0,0,0,.714-.185,1.157,1.157,0,0,0,.407-.417V-3.288H38.6q-1.2,0-1.2,1.08a.659.659,0,0,0,.212.509A.767.767,0,0,0,38.151-1.5Zm7.463-1.723,1.23-4.17h2.468L46.3,1.237l-.13.314A2.29,2.29,0,0,1,43.9,2.987a3.61,3.61,0,0,1-.95-.136V1.21h.3a1.576,1.576,0,0,0,.742-.14.851.851,0,0,0,.379-.5l.185-.493L41.984-7.4h2.461Z" transform="translate(1191.608 8144.765)"/>
    <g id="Grupo_974449" data-name="Grupo 974449" transform="translate(285 8075.498)">
      <g id="Grupo_974448" data-name="Grupo 974448" clip-path="url(#clip-path)">
        <rect id="Rectángulo_340321" data-name="Rectángulo 340321" width="204.124" height="22.726" transform="translate(218.993 125.529)" fill="#b20d0d"/>
        <path id="Trazado_700846" data-name="Trazado 700846" d="M376.053,166.294H268.42a.451.451,0,0,1-.451-.45V141.58a.451.451,0,0,1,.451-.45H376.053a.45.45,0,0,1,.45.45v24.264a.45.45,0,0,1-.45.45" transform="translate(156.419 82.38)" fill="#b20d0d"/>
        <rect id="Rectángulo_340322" data-name="Rectángulo 340322" width="25.659" height="25.659" transform="translate(531.513 318.234)" fill="#b20d0d"/>
        <path id="Trazado_700847" data-name="Trazado 700847" d="M663.881,283.525h-314a.668.668,0,0,1-.668-.667V258.5a.668.668,0,0,1,.668-.668h314a.667.667,0,0,1,.667.668v24.356a.667.667,0,0,1-.667.667" transform="translate(203.842 150.503)" fill="#b20d0d"/>
        <rect id="Rectángulo_340323" data-name="Rectángulo 340323" width="68.556" height="23.932" transform="translate(879.653 500.192)" fill="#b20d0d"/>
      </g>
    </g>
  </g>
</svg>
