<svg xmlns="http://www.w3.org/2000/svg" xmlns:xlink="http://www.w3.org/1999/xlink" width="505" height="286" viewBox="0 0 505 286">
  <defs>
    <clipPath id="clip-path">
      <rect id="Rectángulo_340117" data-name="Rectángulo 340117" width="505" height="286" rx="25" transform="translate(180 4625)" fill="#fff" stroke="#707070" stroke-width="1"/>
    </clipPath>
    <clipPath id="clip-path-2">
      <rect id="Rectángulo_340116" data-name="Rectángulo 340116" width="420" height="327.58" fill="none"/>
    </clipPath>
  </defs>
  <g id="Enmascarar_grupo_87" data-name="Enmascarar grupo 87" transform="translate(-180 -4625)" clip-path="url(#clip-path)">
    <g id="Grupo_974051" data-name="Grupo 974051" transform="translate(219 4588.42)">
      <rect id="Rectángulo_340100" data-name="Rectángulo 340100" width="525" height="327.58" transform="translate(-39)" fill="#ffddbf"/>
      <g id="Grupo_974052" data-name="Grupo 974052">
        <g id="Grupo_974051-2" data-name="Grupo 974051" clip-path="url(#clip-path-2)">
          <path id="Trazado_699797" data-name="Trazado 699797" d="M373.158,350.553c-3.41.4-21.048,7.238-23.909,8.233l0-.005c-.042.016-.083.029-.124.045l-.336.121c-17.043,6.323-24.87,5.137-31.572,3-18.1-5.779-39.455-52.116-68.763-47.3-12.432,2.042-11.8,26.277-19.6,31.929l.01-.025c-.054.048-.109.087-.163.135-1.118.816-2.208,1.645-3.238,2.5-15.244,10.346-30.43-3.141-34.79-6.2-.32-.242-.654-2.16-.979-2.4-.174-.135-.271-.214-.271-.214v.016c-19.1-14-62.886-28.709-92.173-25.228-50.322,5.981-57.169,65.855-57.169,65.855H416.12c-5.874-14.032-14.851-33.8-42.961-30.463" transform="translate(-13.823 -108.381)" fill="#f2c8aa"/>
          <path id="Trazado_699798" data-name="Trazado 699798" d="M459.9,265.834l-26.519.037a2.064,2.064,0,1,1-.005-4.128l26.518-.037a2.064,2.064,0,1,1,.006,4.128" transform="translate(-148.734 -90.247)" fill="#fff8f3"/>
          <path id="Trazado_699799" data-name="Trazado 699799" d="M163.7,120.429l-51.436.037a2.064,2.064,0,1,1-.006-4.128L163.7,116.3a2.064,2.064,0,1,1,.006,4.128" transform="translate(-38.001 -40.105)" fill="#fff8f3"/>
          <path id="Trazado_699800" data-name="Trazado 699800" d="M475.874,198.083l-3.273,0a1.557,1.557,0,0,1-1.559-1.555l0-3.072a1.557,1.557,0,0,1,1.555-1.559l3.273,0a1.557,1.557,0,0,1,1.559,1.555l0,3.072a1.557,1.557,0,0,1-1.555,1.559" transform="translate(-162.433 -66.174)" fill="#fff8f3"/>
          <path id="Trazado_699801" data-name="Trazado 699801" d="M12.289,297.26l-3.273,0a1.557,1.557,0,0,1-1.559-1.555l0-3.072a1.557,1.557,0,0,1,1.555-1.559l3.273,0a1.557,1.557,0,0,1,1.559,1.555l0,3.072a1.557,1.557,0,0,1-1.554,1.559" transform="translate(-2.57 -100.374)" fill="#fff8f3"/>
          <path id="Trazado_699802" data-name="Trazado 699802" d="M448.985,123.879a23.411,23.411,0,1,1-23.411-23.411,23.412,23.412,0,0,1,23.411,23.411" transform="translate(-138.682 -34.645)" fill="#f2c8aa"/>
          <path id="Trazado_699803" data-name="Trazado 699803" d="M86.983,201.965H49.437a3.83,3.83,0,0,1-3.831-3.831V165.242a3.83,3.83,0,0,1,3.831-3.831H86.983a3.831,3.831,0,0,1,3.831,3.831v32.893a3.831,3.831,0,0,1-3.831,3.831" transform="translate(-15.727 -55.661)" fill="#fff"/>
          <path id="Trazado_699804" data-name="Trazado 699804" d="M80.107,214.151l11.62,10.961a.908.908,0,0,0,1.531-.66V210.843Z" transform="translate(-27.624 -72.707)" fill="#fff"/>
          <path id="Trazado_699805" data-name="Trazado 699805" d="M51.2,155.827a10.609,10.609,0,1,1-10.608-10.609A10.608,10.608,0,0,1,51.2,155.827" transform="translate(-10.338 -50.077)" fill="#ff9c39"/>
          <path id="Trazado_699806" data-name="Trazado 699806" d="M38.969,160.59l3.971,2.9,4.725-6" transform="translate(-13.438 -54.309)" fill="none" stroke="#fff" stroke-linecap="round" stroke-linejoin="round" stroke-width="2.793"/>
          <path id="Trazado_699807" data-name="Trazado 699807" d="M84.068,183.951l-1.571-.275a8.18,8.18,0,0,0-.81-1.957l.915-1.306a1.206,1.206,0,0,0-.135-1.546l-.941-.941a1.206,1.206,0,0,0-1.546-.11l-1.306.915a8.127,8.127,0,0,0-1.957-.81l-.27-1.606a1.206,1.206,0,0,0-1.166-1H73.925a1.206,1.206,0,0,0-1.191,1l-.275,1.566a8.138,8.138,0,0,0-1.956.81l-1.3-.875a1.206,1.206,0,0,0-1.546.135l-.941.941a1.206,1.206,0,0,0-.135,1.546l.915,1.306a8.111,8.111,0,0,0-.81,1.956l-1.566.275a1.206,1.206,0,0,0-1,1.191V186.5a1.2,1.2,0,0,0,1,1.19l1.566.275a8.1,8.1,0,0,0,.81,1.957l-.915,1.306a1.206,1.206,0,0,0,.135,1.546l.941.941a1.206,1.206,0,0,0,1.546.135l1.306-.916a8.126,8.126,0,0,0,1.957.81l.275,1.566a1.206,1.206,0,0,0,1.191,1h1.351a1.207,1.207,0,0,0,1.191-1l.275-1.566a8.111,8.111,0,0,0,1.956-.81l1.276.9a1.206,1.206,0,0,0,1.546-.135l.941-.941a1.206,1.206,0,0,0,.135-1.546l-.915-1.316a8.164,8.164,0,0,0,.81-1.956l1.571-.275a1.207,1.207,0,0,0,1-1.191v-1.331a1.206,1.206,0,0,0-1-1.186M74.59,189.4a3.593,3.593,0,1,1,3.593-3.593v.02A3.593,3.593,0,0,1,74.59,189.4" transform="translate(-22.11 -60.455)" fill="#100c25"/>
          <path id="Trazado_699808" data-name="Trazado 699808" d="M199.574,335.588a7.361,7.361,0,0,0,7.361,7.361h145.9a7.361,7.361,0,0,0,7.361-7.361V203.9H199.574Z" transform="translate(-68.821 -70.313)" fill="#100c25"/>
          <path id="Trazado_699809" data-name="Trazado 699809" d="M352.87,140.222h-145.9a7.361,7.361,0,0,0-7.361,7.361v34.4H360.231v-34.4a7.361,7.361,0,0,0-7.361-7.361" transform="translate(-68.832 -48.354)" fill="#100c25"/>
          <path id="Trazado_699810" data-name="Trazado 699810" d="M181.941,335.588a7.361,7.361,0,0,0,7.361,7.361h145.9a7.361,7.361,0,0,0,7.361-7.361V203.9H181.941Z" transform="translate(-62.741 -70.313)" fill="#fff"/>
          <path id="Trazado_699811" data-name="Trazado 699811" d="M335.205,140.16H189.3a7.361,7.361,0,0,0-7.361,7.361v34.4H342.566v-34.4a7.361,7.361,0,0,0-7.361-7.361" transform="translate(-62.741 -48.333)" fill="#ff9c39"/>
          <path id="Trazado_699812" data-name="Trazado 699812" d="M254.046,169.13a8.452,8.452,0,1,1-8.452-8.452,8.452,8.452,0,0,1,8.452,8.452" transform="translate(-81.776 -55.408)" fill="#100c25"/>
          <path id="Trazado_699813" data-name="Trazado 699813" d="M241.088,148.364h0a4.4,4.4,0,0,1-4.395-4.4V125.591a4.513,4.513,0,0,1,3.52-4.484,4.4,4.4,0,0,1,5.271,4.311V131h7.441v-5.159A12.116,12.116,0,0,0,241.9,113.609a11.848,11.848,0,0,0-12.646,11.809v18.167a11.835,11.835,0,0,0,12.656,12.191c4.685-.322,4.3-7.412-.4-7.412Z" transform="translate(-79.055 -39.167)" fill="#fff"/>
          <path id="Trazado_699814" data-name="Trazado 699814" d="M356.909,169.13a8.452,8.452,0,1,1-8.452-8.452,8.452,8.452,0,0,1,8.452,8.452" transform="translate(-117.248 -55.408)" fill="#100c25"/>
          <path id="Trazado_699815" data-name="Trazado 699815" d="M343.951,148.364h0a4.4,4.4,0,0,1-4.395-4.4V125.591a4.513,4.513,0,0,1,3.52-4.484,4.4,4.4,0,0,1,5.271,4.311V131h7.441v-5.159a12.116,12.116,0,0,0-11.026-12.228,11.848,11.848,0,0,0-12.646,11.809v18.167a11.835,11.835,0,0,0,12.656,12.191c4.685-.322,4.3-7.412-.4-7.412Z" transform="translate(-114.527 -39.167)" fill="#fff"/>
          <rect id="Rectángulo_340101" data-name="Rectángulo 340101" width="24.027" height="24.027" transform="translate(143.331 153.507)" fill="#ffdec2"/>
          <rect id="Rectángulo_340102" data-name="Rectángulo 340102" width="24.027" height="24.027" transform="translate(143.331 188.879)" fill="#ffdec2"/>
          <rect id="Rectángulo_340103" data-name="Rectángulo 340103" width="24.027" height="24.027" transform="translate(143.331 224.25)" fill="#ffdec2"/>
          <rect id="Rectángulo_340104" data-name="Rectángulo 340104" width="24.027" height="24.027" transform="translate(184.095 153.507)" fill="#ff9c39"/>
          <rect id="Rectángulo_340105" data-name="Rectángulo 340105" width="24.027" height="24.027" transform="translate(184.095 188.879)" fill="#ffdec2"/>
          <rect id="Rectángulo_340106" data-name="Rectángulo 340106" width="24.027" height="24.027" transform="translate(184.095 224.25)" fill="#ffdec2"/>
          <rect id="Rectángulo_340107" data-name="Rectángulo 340107" width="24.027" height="24.027" transform="translate(224.859 153.507)" fill="#ff9c39"/>
          <rect id="Rectángulo_340108" data-name="Rectángulo 340108" width="24.027" height="24.027" transform="translate(224.859 188.879)" fill="#ff9c39"/>
          <rect id="Rectángulo_340109" data-name="Rectángulo 340109" width="24.027" height="24.027" transform="translate(224.859 224.25)" fill="#ffdec2"/>
          <rect id="Rectángulo_340110" data-name="Rectángulo 340110" width="16.217" height="10.68" transform="translate(96.092 157.726)" fill="#ff9c39"/>
          <rect id="Rectángulo_340111" data-name="Rectángulo 340111" width="29.96" height="6.513" transform="translate(89.22 153.982)" fill="#100c25"/>
          <path id="Trazado_699816" data-name="Trazado 699816" d="M184.339,305.251a54.019,54.019,0,1,1-54.019-54.019,54.019,54.019,0,0,1,54.019,54.019" transform="translate(-26.312 -86.635)" fill="#100c25"/>
          <path id="Trazado_699817" data-name="Trazado 699817" d="M179.768,310.332A44.366,44.366,0,1,1,135.4,265.966a44.366,44.366,0,0,1,44.366,44.366" transform="translate(-31.393 -91.716)" fill="#fff"/>
          <path id="Trazado_699818" data-name="Trazado 699818" d="M118.94,295.059a1.113,1.113,0,0,1-.789-.327l-1.853-1.853a1.116,1.116,0,0,1,1.578-1.578l1.853,1.853a1.116,1.116,0,0,1-.789,1.905" transform="translate(-39.992 -100.339)" fill="#f2c8aa"/>
          <path id="Trazado_699819" data-name="Trazado 699819" d="M198.944,375.064a1.112,1.112,0,0,1-.789-.327l-1.853-1.853a1.116,1.116,0,0,1,1.578-1.578l1.853,1.853a1.116,1.116,0,0,1-.789,1.905" transform="translate(-67.58 -127.928)" fill="#f2c8aa"/>
          <path id="Trazado_699820" data-name="Trazado 699820" d="M117.086,375.064a1.116,1.116,0,0,1-.789-1.905l1.853-1.853a1.116,1.116,0,0,1,1.578,1.578l-1.853,1.853a1.112,1.112,0,0,1-.789.327" transform="translate(-39.991 -127.928)" fill="#f2c8aa"/>
          <path id="Trazado_699821" data-name="Trazado 699821" d="M197.091,295.059a1.116,1.116,0,0,1-.789-1.905l1.853-1.853a1.116,1.116,0,1,1,1.578,1.578l-1.853,1.853a1.113,1.113,0,0,1-.789.327" transform="translate(-67.58 -100.339)" fill="#f2c8aa"/>
          <path id="Trazado_699822" data-name="Trazado 699822" d="M160.244,275.646a2.554,2.554,0,1,1-2.554-2.554,2.554,2.554,0,0,1,2.554,2.554" transform="translate(-53.497 -94.173)" fill="#100c25"/>
          <path id="Trazado_699823" data-name="Trazado 699823" d="M160.244,389.071a2.554,2.554,0,1,1-2.554-2.554,2.554,2.554,0,0,1,2.554,2.554" transform="translate(-53.497 -133.287)" fill="#100c25"/>
          <path id="Trazado_699824" data-name="Trazado 699824" d="M100.978,329.8a2.554,2.554,0,1,1-2.554,2.554,2.554,2.554,0,0,1,2.554-2.554" transform="translate(-33.941 -113.73)" fill="#100c25"/>
          <path id="Trazado_699825" data-name="Trazado 699825" d="M214.4,329.8a2.554,2.554,0,1,1-2.554,2.554A2.554,2.554,0,0,1,214.4,329.8" transform="translate(-73.054 -113.73)" fill="#100c25"/>
          <path id="Trazado_699826" data-name="Trazado 699826" d="M173.228,298.484l-18.234,21.371a2.866,2.866,0,1,0,4.775,2.879l14.094-23.8a.392.392,0,0,0-.636-.454" transform="translate(-53.163 -102.88)" fill="#ff9c39"/>
          <line id="Línea_596" data-name="Línea 596" x1="415.757" transform="translate(2.848 272.636)" fill="none" stroke="#100c25" stroke-linecap="round" stroke-linejoin="round" stroke-width="1.55"/>
          <path id="Trazado_699827" data-name="Trazado 699827" d="M403.967,363.177,495.142,416,526.9,397.415l-91.175-52.822Z" transform="translate(-139.304 -118.83)" fill="#7c5757"/>
          <path id="Trazado_699828" data-name="Trazado 699828" d="M403.967,372.958v2.41l91.175,52.822v-2.41Z" transform="translate(-139.304 -128.611)" fill="#6d4a4a"/>
          <path id="Trazado_699829" data-name="Trazado 699829" d="M574.889,425.218v2.41l-31.758,18.582V443.8Z" transform="translate(-187.294 -146.632)" fill="#5e3d3d"/>
          <path id="Trazado_699830" data-name="Trazado 699830" d="M418.865,400.05l5.921-13.749L404.92,374.847l-6.551,3.782V387.1a1.659,1.659,0,0,0,.667,1.53.04.04,0,0,1,.02,0Z" transform="translate(-137.374 -129.262)" fill="#ceb5b3"/>
          <path id="Trazado_699831" data-name="Trazado 699831" d="M435.243,392.33V400.8a4.493,4.493,0,0,1-1.869,3.571L430.562,406c-1.029.594-1.869-.043-1.869-1.413v-8.473Z" transform="translate(-147.831 -135.291)" fill="#ddc6c3"/>
          <path id="Trazado_699832" data-name="Trazado 699832" d="M424.786,386.3,404.92,374.847l-6.55,3.782,19.866,11.455Z" transform="translate(-137.374 -129.262)" fill="#ead8d6"/>
          <path id="Trazado_699833" data-name="Trazado 699833" d="M402.488,378.844c.544-.681,1.531-1.273,2.23-.8a1.476,1.476,0,0,1,1.477-.478,1.579,1.579,0,0,1,1.045,1.007.686.686,0,0,1,.741-.05.777.777,0,0,1,.368.852.846.846,0,0,1,.808.208.867.867,0,0,1,.263.66,1.6,1.6,0,0,1,1.458-.109,1.393,1.393,0,0,1,.67.873.78.78,0,0,1,.664-.1.889.889,0,0,1,.6.757.911.911,0,0,1,1.234-.03,1.356,1.356,0,0,1,.366,1.2,1.156,1.156,0,0,1,1.376-.013,1.058,1.058,0,0,1,.244.643,1.4,1.4,0,0,1,1.325.227,1.78,1.78,0,0,1,.491.692.9.9,0,0,1,1.087.556,1.383,1.383,0,0,1,1.548.507,1.738,1.738,0,0,1,.185.828,1.016,1.016,0,0,1,.778.09c.207.084.142.145.347.168.264.028.572-.15.872-.113a1.565,1.565,0,0,1,.99.508l.853-.492-19.188-11.072-6.044,3.489,1.212.7a1.841,1.841,0,0,1,.425-.518,1.326,1.326,0,0,1,1.578-.189" transform="translate(-137.686 -129.44)" fill="#ceb5b3"/>
          <path id="Trazado_699834" data-name="Trazado 699834" d="M423.3,387.552c-.3-.038-.608.14-.872.113-.206-.022-.14-.084-.347-.168a1.015,1.015,0,0,0-.778-.09,1.743,1.743,0,0,0-.185-.829,1.384,1.384,0,0,0-1.547-.506.9.9,0,0,0-1.087-.556,1.79,1.79,0,0,0-.491-.692,1.4,1.4,0,0,0-1.325-.226,1.062,1.062,0,0,0-.244-.643,1.155,1.155,0,0,0-1.376.014,1.356,1.356,0,0,0-.366-1.2.911.911,0,0,0-1.234.03.891.891,0,0,0-.6-.758.782.782,0,0,0-.664.1,1.391,1.391,0,0,0-.67-.873,1.594,1.594,0,0,0-1.458.109.867.867,0,0,0-.263-.66.846.846,0,0,0-.808-.208.777.777,0,0,0-.368-.852.686.686,0,0,0-.741.05,1.581,1.581,0,0,0-1.045-1.008,1.476,1.476,0,0,0-1.477.479c-.7-.468-1.686.124-2.23.8a1.327,1.327,0,0,0-1.578.189,1.854,1.854,0,0,0-.425.518L419.1,391.057l5.191-3a1.565,1.565,0,0,0-.99-.508" transform="translate(-138.324 -130.574)" fill="#f7c169"/>
          <path id="Trazado_699835" data-name="Trazado 699835" d="M408.978,380.317a.358.358,0,0,0-.444.042.31.31,0,0,0-.149.238c-.013.289.3.335.5.224s.32-.344.094-.5" transform="translate(-140.828 -131.128)" fill="#e8ac54"/>
          <path id="Trazado_699836" data-name="Trazado 699836" d="M418.306,386.885a.357.357,0,0,0-.444.042.309.309,0,0,0-.149.238c-.013.288.3.335.5.224s.32-.344.094-.5" transform="translate(-144.044 -133.393)" fill="#e8ac54"/>
          <path id="Trazado_699837" data-name="Trazado 699837" d="M428.74,394.7a.357.357,0,0,0-.444.042.31.31,0,0,0-.149.238c-.013.289.3.335.5.224s.32-.344.094-.5" transform="translate(-147.642 -136.088)" fill="#e8ac54"/>
          <path id="Trazado_699838" data-name="Trazado 699838" d="M406.506,381.942c-.05-.16-.277-.311-.436-.211-.007,0-.008.011-.013.015a.08.08,0,0,0-.065.051.385.385,0,0,0,.255.432.219.219,0,0,0,.259-.287" transform="translate(-139.998 -131.625)" fill="#e8ac54"/>
          <path id="Trazado_699839" data-name="Trazado 699839" d="M413.525,386.718c-.05-.16-.277-.311-.436-.211-.007,0-.008.01-.013.015a.08.08,0,0,0-.065.051.385.385,0,0,0,.255.432.219.219,0,0,0,.259-.287" transform="translate(-142.418 -133.272)" fill="#e8ac54"/>
          <path id="Trazado_699840" data-name="Trazado 699840" d="M421.26,391.367c-.05-.16-.277-.311-.436-.211-.007,0-.008.01-.013.015a.08.08,0,0,0-.065.051.385.385,0,0,0,.255.432.219.219,0,0,0,.259-.287" transform="translate(-145.086 -134.875)" fill="#e8ac54"/>
          <path id="Trazado_699841" data-name="Trazado 699841" d="M427.238,390.117c-.05-.16-.277-.311-.436-.211-.007,0-.008.01-.013.015a.081.081,0,0,0-.065.051.385.385,0,0,0,.255.432.219.219,0,0,0,.259-.287" transform="translate(-147.147 -134.444)" fill="#e8ac54"/>
          <path id="Trazado_699842" data-name="Trazado 699842" d="M408.1,383c-.053-.229-.362-.18-.516-.1-.01.006-.014.016-.022.024a.189.189,0,0,0-.111.12c-.069.209.14.267.3.259s.4-.083.349-.3" transform="translate(-140.5 -132.018)" fill="#e8ac54"/>
          <path id="Trazado_699843" data-name="Trazado 699843" d="M411.889,385.922c-.053-.229-.362-.18-.516-.1-.01.006-.014.016-.022.023a.189.189,0,0,0-.111.12c-.069.209.14.267.3.259s.4-.083.349-.3" transform="translate(-141.807 -133.024)" fill="#e8ac54"/>
          <path id="Trazado_699844" data-name="Trazado 699844" d="M419.7,386.632c-.053-.229-.362-.18-.516-.1-.01.005-.014.015-.022.023a.189.189,0,0,0-.111.12c-.069.209.14.267.3.259s.4-.083.349-.3" transform="translate(-144.502 -133.269)" fill="#e8ac54"/>
          <path id="Trazado_699845" data-name="Trazado 699845" d="M422.988,389.063c-.053-.229-.362-.18-.516-.1-.01.005-.014.015-.022.023a.189.189,0,0,0-.111.12c-.069.209.14.267.3.259s.4-.083.349-.3" transform="translate(-145.635 -134.107)" fill="#e8ac54"/>
          <path id="Trazado_699846" data-name="Trazado 699846" d="M428.844,390.5c-.053-.229-.362-.18-.516-.1-.01.006-.014.016-.022.024a.189.189,0,0,0-.111.12c-.069.209.14.267.3.259s.4-.083.349-.3" transform="translate(-147.654 -134.604)" fill="#e8ac54"/>
          <path id="Trazado_699847" data-name="Trazado 699847" d="M412.6,382.245a.315.315,0,0,0-.466.016.2.2,0,0,0-.118.135c-.042.22.206.328.385.273s.352-.248.2-.424" transform="translate(-142.077 -131.78)" fill="#e8ac54"/>
          <path id="Trazado_699848" data-name="Trazado 699848" d="M416.5,388.536a.315.315,0,0,0-.466.016.2.2,0,0,0-.118.136c-.042.22.206.328.385.273s.352-.248.2-.425" transform="translate(-143.424 -133.95)" fill="#e8ac54"/>
          <path id="Trazado_699849" data-name="Trazado 699849" d="M424.07,393.109a.315.315,0,0,0-.466.016.2.2,0,0,0-.118.136c-.042.219.206.328.385.273s.352-.248.2-.425" transform="translate(-146.033 -135.527)" fill="#e8ac54"/>
          <path id="Trazado_699850" data-name="Trazado 699850" d="M431.728,393.109a.315.315,0,0,0-.466.016.2.2,0,0,0-.118.136c-.042.219.206.328.385.273s.352-.248.2-.425" transform="translate(-148.674 -135.527)" fill="#e8ac54"/>
          <path id="Trazado_699851" data-name="Trazado 699851" d="M416.7,383.875a.315.315,0,0,0-.466.016.2.2,0,0,0-.118.136c-.042.219.206.328.385.273s.352-.248.2-.424" transform="translate(-143.491 -132.343)" fill="#e8ac54"/>
          <path id="Trazado_699852" data-name="Trazado 699852" d="M451.168,419.176l5.921-13.749-19.866-11.454-6.551,3.782v8.473a1.658,1.658,0,0,0,.667,1.53.041.041,0,0,1,.02,0Z" transform="translate(-148.513 -135.858)" fill="#ceb5b3"/>
          <path id="Trazado_699853" data-name="Trazado 699853" d="M467.546,411.457v8.473a4.494,4.494,0,0,1-1.869,3.572l-2.812,1.623c-1.028.594-1.869-.043-1.869-1.413v-8.473Z" transform="translate(-158.97 -141.887)" fill="#ddc6c3"/>
          <path id="Trazado_699854" data-name="Trazado 699854" d="M457.09,405.428l-19.866-11.454-6.55,3.782,19.866,11.455Z" transform="translate(-148.513 -135.858)" fill="#ead8d6"/>
          <path id="Trazado_699855" data-name="Trazado 699855" d="M434.791,397.97c.544-.681,1.531-1.273,2.229-.8a1.474,1.474,0,0,1,1.477-.478,1.578,1.578,0,0,1,1.045,1.007.686.686,0,0,1,.741-.05.777.777,0,0,1,.368.852.846.846,0,0,1,.808.208.867.867,0,0,1,.263.66,1.6,1.6,0,0,1,1.458-.109,1.4,1.4,0,0,1,.67.873.78.78,0,0,1,.663-.1.89.89,0,0,1,.6.758.911.911,0,0,1,1.234-.03,1.356,1.356,0,0,1,.366,1.2,1.156,1.156,0,0,1,1.376-.013,1.057,1.057,0,0,1,.244.643,1.4,1.4,0,0,1,1.325.227,1.773,1.773,0,0,1,.491.692.9.9,0,0,1,1.087.556,1.384,1.384,0,0,1,1.548.507,1.747,1.747,0,0,1,.185.828,1.014,1.014,0,0,1,.777.09c.207.084.142.145.347.168.264.028.572-.15.872-.113a1.565,1.565,0,0,1,.99.508l.853-.492-19.188-11.072-6.044,3.489,1.212.7a1.852,1.852,0,0,1,.425-.518,1.326,1.326,0,0,1,1.578-.189" transform="translate(-148.825 -136.035)" fill="#ceb5b3"/>
          <path id="Trazado_699856" data-name="Trazado 699856" d="M455.6,406.678c-.3-.038-.608.14-.872.112-.206-.022-.14-.083-.347-.167a1.013,1.013,0,0,0-.778-.09,1.743,1.743,0,0,0-.185-.829,1.384,1.384,0,0,0-1.547-.506.9.9,0,0,0-1.087-.556,1.784,1.784,0,0,0-.491-.692,1.4,1.4,0,0,0-1.325-.226,1.065,1.065,0,0,0-.244-.643,1.155,1.155,0,0,0-1.376.014,1.356,1.356,0,0,0-.366-1.2.911.911,0,0,0-1.234.03.892.892,0,0,0-.6-.758.782.782,0,0,0-.664.1,1.392,1.392,0,0,0-.67-.873,1.59,1.59,0,0,0-1.457.109.866.866,0,0,0-.263-.66.846.846,0,0,0-.808-.208.777.777,0,0,0-.368-.852.686.686,0,0,0-.741.05,1.581,1.581,0,0,0-1.045-1.008,1.476,1.476,0,0,0-1.477.479c-.7-.468-1.686.124-2.229.8a1.327,1.327,0,0,0-1.578.189,1.845,1.845,0,0,0-.425.518L451.4,410.183l5.191-3a1.565,1.565,0,0,0-.99-.508" transform="translate(-149.463 -137.169)" fill="#f7c169"/>
          <path id="Trazado_699857" data-name="Trazado 699857" d="M441.282,399.443a.358.358,0,0,0-.444.042.31.31,0,0,0-.149.238c-.013.288.3.335.5.224s.32-.344.094-.5" transform="translate(-151.967 -137.724)" fill="#e8ac54"/>
          <path id="Trazado_699858" data-name="Trazado 699858" d="M450.609,406.011a.358.358,0,0,0-.444.042.31.31,0,0,0-.149.238c-.013.289.3.335.5.224s.32-.344.094-.5" transform="translate(-155.184 -139.988)" fill="#e8ac54"/>
          <path id="Trazado_699859" data-name="Trazado 699859" d="M461.043,413.826a.358.358,0,0,0-.444.042.31.31,0,0,0-.149.238c-.013.289.3.335.5.224s.32-.344.094-.5" transform="translate(-158.782 -142.683)" fill="#e8ac54"/>
          <path id="Trazado_699860" data-name="Trazado 699860" d="M438.81,401.068c-.05-.161-.277-.311-.436-.212-.006,0-.008.011-.013.016a.08.08,0,0,0-.065.051.386.386,0,0,0,.255.432.219.219,0,0,0,.259-.287" transform="translate(-151.137 -138.22)" fill="#e8ac54"/>
          <path id="Trazado_699861" data-name="Trazado 699861" d="M445.828,405.844c-.05-.161-.277-.311-.436-.212-.007,0-.008.011-.013.016a.081.081,0,0,0-.065.05.386.386,0,0,0,.255.432.219.219,0,0,0,.259-.287" transform="translate(-153.557 -139.867)" fill="#e8ac54"/>
          <path id="Trazado_699862" data-name="Trazado 699862" d="M453.563,410.494c-.05-.16-.277-.311-.436-.211-.006,0-.008.01-.013.015a.081.081,0,0,0-.065.051.385.385,0,0,0,.255.432.219.219,0,0,0,.259-.287" transform="translate(-156.225 -141.471)" fill="#e8ac54"/>
          <path id="Trazado_699863" data-name="Trazado 699863" d="M459.542,409.244c-.05-.16-.277-.311-.436-.212-.007,0-.008.011-.013.016a.08.08,0,0,0-.065.051.386.386,0,0,0,.255.432.219.219,0,0,0,.259-.287" transform="translate(-158.287 -141.04)" fill="#e8ac54"/>
          <path id="Trazado_699864" data-name="Trazado 699864" d="M440.4,402.13c-.053-.229-.362-.18-.516-.1-.011.005-.014.015-.022.023a.189.189,0,0,0-.111.12c-.069.209.14.267.3.259s.4-.083.349-.3" transform="translate(-151.64 -138.613)" fill="#e8ac54"/>
          <path id="Trazado_699865" data-name="Trazado 699865" d="M444.192,405.05c-.052-.229-.362-.179-.516-.1-.01.005-.014.015-.022.023a.19.19,0,0,0-.111.12c-.069.21.14.267.3.259s.4-.083.349-.3" transform="translate(-152.947 -139.62)" fill="#e8ac54"/>
          <path id="Trazado_699866" data-name="Trazado 699866" d="M452.006,405.759c-.053-.229-.362-.18-.516-.1-.01.006-.014.016-.022.024a.189.189,0,0,0-.111.12c-.069.209.14.267.3.259s.4-.083.349-.3" transform="translate(-155.642 -139.865)" fill="#e8ac54"/>
          <path id="Trazado_699867" data-name="Trazado 699867" d="M455.293,408.189c-.052-.229-.362-.18-.516-.1-.01.006-.014.016-.022.024a.189.189,0,0,0-.111.12c-.069.209.14.267.3.259s.4-.083.349-.3" transform="translate(-156.775 -140.703)" fill="#e8ac54"/>
          <path id="Trazado_699868" data-name="Trazado 699868" d="M461.147,409.631c-.054-.229-.362-.179-.516-.1-.01,0-.014.014-.021.023a.19.19,0,0,0-.112.119c-.068.21.141.268.3.259s.4-.083.35-.3" transform="translate(-158.794 -141.2)" fill="#e8ac54"/>
          <path id="Trazado_699869" data-name="Trazado 699869" d="M444.9,401.372a.315.315,0,0,0-.466.016.2.2,0,0,0-.118.136c-.042.219.206.328.385.273s.352-.248.2-.425" transform="translate(-153.216 -138.376)" fill="#e8ac54"/>
          <path id="Trazado_699870" data-name="Trazado 699870" d="M448.807,407.663a.315.315,0,0,0-.466.016.2.2,0,0,0-.118.135c-.042.22.206.328.385.273s.352-.248.2-.424" transform="translate(-154.564 -140.546)" fill="#e8ac54"/>
          <path id="Trazado_699871" data-name="Trazado 699871" d="M456.373,412.235a.315.315,0,0,0-.466.016.2.2,0,0,0-.118.136c-.042.219.206.328.385.273s.352-.248.2-.425" transform="translate(-157.173 -142.122)" fill="#e8ac54"/>
          <path id="Trazado_699872" data-name="Trazado 699872" d="M464.031,412.235a.315.315,0,0,0-.466.016.2.2,0,0,0-.118.136c-.042.219.206.328.385.273s.352-.248.2-.425" transform="translate(-159.813 -142.122)" fill="#e8ac54"/>
          <path id="Trazado_699873" data-name="Trazado 699873" d="M449,403a.315.315,0,0,0-.466.016.2.2,0,0,0-.118.135c-.042.22.206.328.385.273s.352-.248.2-.424" transform="translate(-154.631 -138.938)" fill="#e8ac54"/>
          <path id="Trazado_699874" data-name="Trazado 699874" d="M484.045,438.158l5.921-13.749L470.1,412.955l-6.551,3.782v8.473a1.658,1.658,0,0,0,.667,1.53.05.05,0,0,1,.02,0Z" transform="translate(-159.85 -142.403)" fill="#ceb5b3"/>
          <path id="Trazado_699875" data-name="Trazado 699875" d="M500.423,430.439v8.473a4.494,4.494,0,0,1-1.869,3.572l-2.812,1.624c-1.029.594-1.869-.043-1.869-1.413v-8.473Z" transform="translate(-170.307 -148.433)" fill="#ddc6c3"/>
          <path id="Trazado_699876" data-name="Trazado 699876" d="M489.967,424.41,470.1,412.956l-6.55,3.782,19.866,11.455Z" transform="translate(-159.851 -142.404)" fill="#ead8d6"/>
          <path id="Trazado_699877" data-name="Trazado 699877" d="M467.668,416.952c.544-.681,1.531-1.273,2.23-.8a1.474,1.474,0,0,1,1.477-.478,1.579,1.579,0,0,1,1.045,1.007.686.686,0,0,1,.741-.05.777.777,0,0,1,.368.852.846.846,0,0,1,.808.208.867.867,0,0,1,.263.66,1.594,1.594,0,0,1,1.458-.109,1.4,1.4,0,0,1,.67.873.78.78,0,0,1,.663-.1.89.89,0,0,1,.6.758.911.911,0,0,1,1.234-.03,1.356,1.356,0,0,1,.366,1.2,1.156,1.156,0,0,1,1.376-.013,1.058,1.058,0,0,1,.244.643,1.4,1.4,0,0,1,1.325.226,1.783,1.783,0,0,1,.491.692.9.9,0,0,1,1.087.556,1.383,1.383,0,0,1,1.548.507,1.746,1.746,0,0,1,.185.828,1.014,1.014,0,0,1,.777.09c.207.084.141.145.347.168.264.028.572-.15.872-.113a1.565,1.565,0,0,1,.99.508l.853-.492L470.5,413.47l-6.044,3.489,1.212.7a1.865,1.865,0,0,1,.425-.518,1.327,1.327,0,0,1,1.578-.189" transform="translate(-160.162 -142.581)" fill="#ceb5b3"/>
          <path id="Trazado_699878" data-name="Trazado 699878" d="M488.481,425.66c-.3-.037-.608.141-.872.113-.206-.022-.14-.084-.347-.168a1.014,1.014,0,0,0-.777-.09,1.751,1.751,0,0,0-.185-.829,1.384,1.384,0,0,0-1.548-.506.9.9,0,0,0-1.087-.556,1.79,1.79,0,0,0-.491-.692,1.4,1.4,0,0,0-1.325-.226,1.061,1.061,0,0,0-.244-.643,1.156,1.156,0,0,0-1.376.013,1.356,1.356,0,0,0-.366-1.2.911.911,0,0,0-1.234.03.892.892,0,0,0-.6-.758.782.782,0,0,0-.664.1,1.392,1.392,0,0,0-.67-.873,1.593,1.593,0,0,0-1.457.109.867.867,0,0,0-.263-.66.846.846,0,0,0-.808-.208.777.777,0,0,0-.368-.852.686.686,0,0,0-.741.05,1.581,1.581,0,0,0-1.045-1.008,1.476,1.476,0,0,0-1.477.479c-.7-.468-1.686.124-2.229.8a1.327,1.327,0,0,0-1.578.189,1.853,1.853,0,0,0-.424.518l17.975,10.372,5.192-3a1.565,1.565,0,0,0-.99-.508" transform="translate(-160.8 -143.715)" fill="#f7c169"/>
          <path id="Trazado_699879" data-name="Trazado 699879" d="M474.159,418.425a.356.356,0,0,0-.444.043.31.31,0,0,0-.149.238c-.013.29.3.335.5.225s.32-.345.094-.505" transform="translate(-163.305 -144.269)" fill="#e8ac54"/>
          <path id="Trazado_699880" data-name="Trazado 699880" d="M483.486,424.993a.358.358,0,0,0-.444.042.309.309,0,0,0-.149.238c-.013.288.3.335.5.224s.32-.344.094-.5" transform="translate(-166.521 -146.534)" fill="#e8ac54"/>
          <path id="Trazado_699881" data-name="Trazado 699881" d="M493.92,432.808a.358.358,0,0,0-.444.042.309.309,0,0,0-.149.238c-.013.288.3.335.5.224s.32-.344.094-.5" transform="translate(-170.119 -149.229)" fill="#e8ac54"/>
          <path id="Trazado_699882" data-name="Trazado 699882" d="M471.686,420.05c-.05-.161-.277-.311-.436-.211-.006,0-.008.01-.013.015a.08.08,0,0,0-.065.051.385.385,0,0,0,.255.432.219.219,0,0,0,.259-.287" transform="translate(-162.475 -144.766)" fill="#e8ac54"/>
          <path id="Trazado_699883" data-name="Trazado 699883" d="M478.7,424.826c-.05-.16-.277-.311-.436-.211-.007,0-.008.01-.013.015a.081.081,0,0,0-.065.051.385.385,0,0,0,.255.432.219.219,0,0,0,.259-.287" transform="translate(-164.895 -146.413)" fill="#e8ac54"/>
          <path id="Trazado_699884" data-name="Trazado 699884" d="M486.441,429.476c-.05-.16-.277-.311-.437-.212-.006,0-.008.011-.012.016a.079.079,0,0,0-.065.051.385.385,0,0,0,.254.432.219.219,0,0,0,.26-.287" transform="translate(-167.563 -148.017)" fill="#e8ac54"/>
          <path id="Trazado_699885" data-name="Trazado 699885" d="M492.419,428.226c-.05-.16-.277-.31-.436-.211-.007,0-.008.01-.013.015a.08.08,0,0,0-.065.051.385.385,0,0,0,.255.432.219.219,0,0,0,.259-.287" transform="translate(-169.624 -147.586)" fill="#e8ac54"/>
          <path id="Trazado_699886" data-name="Trazado 699886" d="M473.279,421.112c-.052-.229-.362-.18-.516-.1-.01.006-.014.016-.022.024a.189.189,0,0,0-.111.12c-.069.209.14.267.3.259s.4-.083.349-.3" transform="translate(-162.977 -145.159)" fill="#e8ac54"/>
          <path id="Trazado_699887" data-name="Trazado 699887" d="M477.068,424.031c-.052-.229-.362-.18-.516-.1-.01.005-.014.015-.022.023a.189.189,0,0,0-.111.12c-.069.209.14.267.3.259s.4-.083.349-.3" transform="translate(-164.284 -146.166)" fill="#e8ac54"/>
          <path id="Trazado_699888" data-name="Trazado 699888" d="M484.883,424.741c-.052-.229-.362-.18-.516-.1-.01.006-.014.016-.022.024a.188.188,0,0,0-.111.12c-.069.209.14.267.3.259s.4-.083.349-.3" transform="translate(-166.979 -146.411)" fill="#e8ac54"/>
          <path id="Trazado_699889" data-name="Trazado 699889" d="M488.17,427.172c-.052-.229-.362-.18-.516-.1-.01.006-.014.016-.022.024a.189.189,0,0,0-.111.12c-.069.209.14.267.3.259s.4-.083.349-.3" transform="translate(-168.112 -147.249)" fill="#e8ac54"/>
          <path id="Trazado_699890" data-name="Trazado 699890" d="M494.024,428.613c-.053-.229-.362-.18-.516-.1-.01.005-.014.015-.022.023a.189.189,0,0,0-.111.12c-.069.209.14.267.3.259s.4-.083.349-.3" transform="translate(-170.131 -147.746)" fill="#e8ac54"/>
          <path id="Trazado_699891" data-name="Trazado 699891" d="M477.777,420.354a.315.315,0,0,0-.466.016.2.2,0,0,0-.118.135c-.042.22.206.328.385.273s.352-.248.2-.424" transform="translate(-164.554 -144.922)" fill="#e8ac54"/>
          <path id="Trazado_699892" data-name="Trazado 699892" d="M481.684,426.645a.315.315,0,0,0-.466.016.2.2,0,0,0-.118.135c-.042.22.206.328.385.273s.352-.248.2-.424" transform="translate(-165.901 -147.091)" fill="#e8ac54"/>
          <path id="Trazado_699893" data-name="Trazado 699893" d="M489.25,431.218a.315.315,0,0,0-.466.016.2.2,0,0,0-.118.135c-.042.22.206.328.385.273s.352-.248.2-.424" transform="translate(-168.51 -148.668)" fill="#e8ac54"/>
          <path id="Trazado_699894" data-name="Trazado 699894" d="M496.908,431.218a.315.315,0,0,0-.466.016.2.2,0,0,0-.118.135c-.042.22.206.328.385.273s.352-.248.2-.424" transform="translate(-171.151 -148.668)" fill="#e8ac54"/>
          <path id="Trazado_699895" data-name="Trazado 699895" d="M481.88,421.984a.315.315,0,0,0-.466.016.2.2,0,0,0-.118.136c-.042.22.206.328.385.273s.352-.248.2-.425" transform="translate(-165.968 -145.484)" fill="#e8ac54"/>
          <path id="Trazado_699896" data-name="Trazado 699896" d="M516.349,457.285l5.921-13.749L502.4,432.082l-6.551,3.782v8.473a1.658,1.658,0,0,0,.668,1.53.038.038,0,0,1,.02,0Z" transform="translate(-170.99 -148.999)" fill="#ceb5b3"/>
          <path id="Trazado_699897" data-name="Trazado 699897" d="M532.726,449.565v8.473a4.5,4.5,0,0,1-1.869,3.572l-2.812,1.623c-1.028.594-1.869-.043-1.869-1.413v-8.472Z" transform="translate(-181.447 -155.028)" fill="#ddc6c3"/>
          <path id="Trazado_699898" data-name="Trazado 699898" d="M522.27,443.537,502.4,432.083l-6.55,3.782,19.866,11.455Z" transform="translate(-170.99 -148.999)" fill="#ead8d6"/>
          <path id="Trazado_699899" data-name="Trazado 699899" d="M499.972,436.079c.544-.681,1.531-1.273,2.229-.8a1.476,1.476,0,0,1,1.477-.478,1.578,1.578,0,0,1,1.045,1.007.687.687,0,0,1,.741-.05.777.777,0,0,1,.368.852.846.846,0,0,1,.809.208.867.867,0,0,1,.263.66,1.6,1.6,0,0,1,1.458-.109,1.393,1.393,0,0,1,.67.873.779.779,0,0,1,.664-.1.889.889,0,0,1,.6.757.912.912,0,0,1,1.234-.03,1.357,1.357,0,0,1,.366,1.2,1.156,1.156,0,0,1,1.376-.013,1.058,1.058,0,0,1,.244.643,1.4,1.4,0,0,1,1.325.227,1.781,1.781,0,0,1,.491.692.9.9,0,0,1,1.087.556,1.383,1.383,0,0,1,1.547.507,1.739,1.739,0,0,1,.185.828,1.016,1.016,0,0,1,.778.09c.207.084.142.145.347.168.264.028.572-.15.872-.113a1.565,1.565,0,0,1,.99.508l.853-.492L502.8,432.6l-6.044,3.489,1.212.7a1.843,1.843,0,0,1,.425-.518,1.326,1.326,0,0,1,1.578-.189" transform="translate(-171.302 -149.177)" fill="#ceb5b3"/>
          <path id="Trazado_699900" data-name="Trazado 699900" d="M520.784,444.787c-.3-.038-.608.14-.872.113-.206-.022-.14-.084-.347-.168a1.014,1.014,0,0,0-.777-.09,1.751,1.751,0,0,0-.185-.829,1.384,1.384,0,0,0-1.547-.506.9.9,0,0,0-1.087-.556,1.79,1.79,0,0,0-.491-.692,1.4,1.4,0,0,0-1.325-.226,1.061,1.061,0,0,0-.244-.643,1.155,1.155,0,0,0-1.376.014,1.356,1.356,0,0,0-.366-1.2.911.911,0,0,0-1.234.03.891.891,0,0,0-.6-.758.782.782,0,0,0-.664.1,1.391,1.391,0,0,0-.67-.873,1.594,1.594,0,0,0-1.458.109.867.867,0,0,0-.263-.66.846.846,0,0,0-.809-.208.777.777,0,0,0-.368-.852.686.686,0,0,0-.741.05,1.581,1.581,0,0,0-1.045-1.008,1.476,1.476,0,0,0-1.477.479c-.7-.468-1.686.124-2.229.8a1.327,1.327,0,0,0-1.578.189,1.853,1.853,0,0,0-.425.518l17.976,10.372,5.191-3a1.565,1.565,0,0,0-.99-.508" transform="translate(-171.94 -150.311)" fill="#f7c169"/>
          <path id="Trazado_699901" data-name="Trazado 699901" d="M506.462,437.552a.358.358,0,0,0-.444.042.31.31,0,0,0-.149.238c-.013.289.3.335.5.224s.32-.344.094-.5" transform="translate(-174.444 -150.865)" fill="#e8ac54"/>
          <path id="Trazado_699902" data-name="Trazado 699902" d="M515.79,444.12a.357.357,0,0,0-.444.042.309.309,0,0,0-.149.238c-.013.289.3.335.5.224s.32-.344.094-.5" transform="translate(-177.661 -153.13)" fill="#e8ac54"/>
          <path id="Trazado_699903" data-name="Trazado 699903" d="M526.223,451.935a.357.357,0,0,0-.444.042.31.31,0,0,0-.149.238c-.013.288.3.335.5.224s.32-.344.094-.5" transform="translate(-181.258 -155.825)" fill="#e8ac54"/>
          <path id="Trazado_699904" data-name="Trazado 699904" d="M503.99,439.177c-.05-.16-.277-.311-.436-.211-.007,0-.008.01-.013.015a.08.08,0,0,0-.065.051.385.385,0,0,0,.255.432.219.219,0,0,0,.259-.287" transform="translate(-173.614 -151.362)" fill="#e8ac54"/>
          <path id="Trazado_699905" data-name="Trazado 699905" d="M511.008,443.953c-.05-.16-.277-.311-.436-.211-.006,0-.008.01-.013.015a.08.08,0,0,0-.065.051.385.385,0,0,0,.255.432.219.219,0,0,0,.259-.287" transform="translate(-176.034 -153.009)" fill="#e8ac54"/>
          <path id="Trazado_699906" data-name="Trazado 699906" d="M518.744,448.6c-.05-.16-.277-.311-.436-.211-.007,0-.008.01-.013.015a.08.08,0,0,0-.065.051.385.385,0,0,0,.255.432.219.219,0,0,0,.259-.287" transform="translate(-178.702 -154.613)" fill="#e8ac54"/>
          <path id="Trazado_699907" data-name="Trazado 699907" d="M524.722,447.352c-.05-.161-.277-.311-.436-.211-.007,0-.008.01-.013.015a.08.08,0,0,0-.065.051.385.385,0,0,0,.255.432.219.219,0,0,0,.259-.287" transform="translate(-180.764 -154.181)" fill="#e8ac54"/>
          <path id="Trazado_699908" data-name="Trazado 699908" d="M505.583,440.239c-.053-.229-.362-.18-.516-.1-.01.006-.014.016-.022.024a.189.189,0,0,0-.111.12c-.069.209.14.267.3.259s.4-.083.349-.3" transform="translate(-174.117 -151.755)" fill="#e8ac54"/>
          <path id="Trazado_699909" data-name="Trazado 699909" d="M509.373,443.158c-.053-.229-.362-.18-.516-.1-.01.006-.014.016-.022.024a.189.189,0,0,0-.111.12c-.069.209.14.267.3.259s.4-.083.349-.3" transform="translate(-175.424 -152.761)" fill="#e8ac54"/>
          <path id="Trazado_699910" data-name="Trazado 699910" d="M517.187,443.868c-.053-.229-.362-.18-.516-.1-.01.005-.014.015-.022.023a.189.189,0,0,0-.111.12c-.069.209.14.267.3.259s.4-.083.349-.3" transform="translate(-178.118 -153.006)" fill="#e8ac54"/>
          <path id="Trazado_699911" data-name="Trazado 699911" d="M520.473,446.3c-.053-.229-.362-.18-.516-.1-.01.005-.014.015-.022.023a.189.189,0,0,0-.111.12c-.069.209.14.267.3.259s.4-.083.349-.3" transform="translate(-179.252 -153.844)" fill="#e8ac54"/>
          <path id="Trazado_699912" data-name="Trazado 699912" d="M526.328,447.74c-.053-.228-.362-.18-.516-.1-.01.006-.014.016-.022.024a.189.189,0,0,0-.111.12c-.069.209.14.267.3.259s.4-.083.349-.3" transform="translate(-181.271 -154.341)" fill="#e8ac54"/>
          <path id="Trazado_699913" data-name="Trazado 699913" d="M510.081,439.481a.315.315,0,0,0-.466.016.2.2,0,0,0-.118.135c-.042.22.206.328.385.273s.352-.248.2-.424" transform="translate(-175.693 -151.518)" fill="#e8ac54"/>
          <path id="Trazado_699914" data-name="Trazado 699914" d="M513.988,445.771a.315.315,0,0,0-.466.016.2.2,0,0,0-.118.136c-.042.219.206.328.385.273s.352-.248.2-.425" transform="translate(-177.041 -153.687)" fill="#e8ac54"/>
          <path id="Trazado_699915" data-name="Trazado 699915" d="M521.554,450.344a.316.316,0,0,0-.467.016.2.2,0,0,0-.118.135c-.042.22.206.328.385.273s.352-.248.2-.424" transform="translate(-179.649 -155.264)" fill="#e8ac54"/>
          <path id="Trazado_699916" data-name="Trazado 699916" d="M529.212,450.344a.315.315,0,0,0-.466.016.2.2,0,0,0-.118.135c-.042.22.206.328.385.273s.352-.248.2-.424" transform="translate(-182.29 -155.264)" fill="#e8ac54"/>
          <path id="Trazado_699917" data-name="Trazado 699917" d="M514.183,441.111a.315.315,0,0,0-.466.016.2.2,0,0,0-.118.136c-.042.219.206.328.385.273s.352-.248.2-.424" transform="translate(-177.108 -152.08)" fill="#e8ac54"/>
          <path id="Trazado_699918" data-name="Trazado 699918" d="M440.119,281.289a4.97,4.97,0,0,0-5.064.374l-13.716,7.918c-.06.035-.117.078-.176.114l.434.261.138.083,13.616-7.861a5.542,5.542,0,0,1,2.735-.826,3.437,3.437,0,0,1,1.736.451c1.515.876,2.384,2.929,2.384,5.637V325.05c.009,0,.017,0,.026,0a.288.288,0,0,0,.271.124c.164,0,.3-.071.3-.157V287.439c0-2.925-.977-5.167-2.68-6.15" transform="translate(-145.234 -96.816)" fill="#ffebeb"/>
          <path id="Trazado_699919" data-name="Trazado 699919" d="M480.65,304.916a4.972,4.972,0,0,0-5.065.374l-13.715,7.919c-.1.056-.191.124-.286.184.2.1.4.212.6.322l13.7-7.911a5.541,5.541,0,0,1,2.735-.826,3.436,3.436,0,0,1,1.736.45c1.515.876,2.384,2.929,2.384,5.637v37.611c.009,0,.017,0,.026,0a.288.288,0,0,0,.271.124c.164,0,.3-.071.3-.157V311.066c0-2.924-.977-5.167-2.68-6.15" transform="translate(-159.173 -104.964)" fill="#ffebeb"/>
          <path id="Trazado_699920" data-name="Trazado 699920" d="M521.5,328.866a4.971,4.971,0,0,0-5.065.374l-13.514,7.8q.247.2.471.414l13.34-7.7a5.542,5.542,0,0,1,2.735-.826,3.43,3.43,0,0,1,1.737.451c1.515.876,2.383,2.929,2.383,5.637v37.611c.009,0,.018,0,.026,0a.288.288,0,0,0,.271.124c.164,0,.3-.071.3-.158V335.016c0-2.925-.977-5.167-2.68-6.15" transform="translate(-173.426 -113.223)" fill="#ffebeb"/>
          <path id="Trazado_699921" data-name="Trazado 699921" d="M561.9,352.493a4.97,4.97,0,0,0-5.064.374l-13.716,7.918c-.053.031-.1.069-.157.1q.308.159.611.323l13.558-7.828a5.542,5.542,0,0,1,2.735-.826,3.43,3.43,0,0,1,1.736.451c1.515.876,2.384,2.929,2.384,5.637v37.611c.008,0,.017,0,.026,0a.288.288,0,0,0,.271.124c.164,0,.3-.071.3-.158V358.643c0-2.925-.977-5.167-2.68-6.15" transform="translate(-187.235 -121.37)" fill="#ffebeb"/>
          <path id="Trazado_699922" data-name="Trazado 699922" d="M471.173,340.2a3.187,3.187,0,0,0-.345-1.091c-.679,5.361-2.511,8.812-4.062,10.4,1.582,1.249.151,3.357-1.012,4.223a3.029,3.029,0,0,1,1.212,1.732c.025.717-.633.735-1.385.816a11.2,11.2,0,0,0-2.658.366c1.866,1.861.732,5.675-1.072,7.191a10.451,10.451,0,0,1-6.85,1.952,8.21,8.21,0,0,1-6.252-2.649c-1.842-2.205-.786-5.845-.263-7.423-.255-.2-1.528.651-1.733.96a7.811,7.811,0,0,1,.587-3.067c-3.267.449-4.217,3.866-4.24,6.7a14.093,14.093,0,0,0,.5,4.392,3.779,3.779,0,0,1-1.82-2.633c-1.255.763-.962,3.019-.122,4.169-1.441-.85-2.851-1.4-4.019-2.776-1.375-1.616-2.569-4.07-1.724-6.176-1.36-.339-2.986,3.433-2.919,5.5-1.5-2.382-3.092-4.756-1.719-7.7-1.272.158-1.962,1.593-2.269,3.1a4.792,4.792,0,0,0,.989,2.563,26.716,26.716,0,0,0,1.525,4.44,7.03,7.03,0,0,0,4.65,2.284,6.721,6.721,0,0,1-.4-.788,2.964,2.964,0,0,1-.206-1.822,5.859,5.859,0,0,0,5.419,2.858c.185.5,1.09.972,1.7,1.192a4.141,4.141,0,0,0,2.117.092c-.217-.259-.523-.8-.4-1a6.292,6.292,0,0,0,4.451,1.7,3.806,3.806,0,0,1-.482-2.049,4.032,4.032,0,0,1-2.446-1.374c-1.144-1.4-1.074-3.324-.522-5.119.685,1.745,1.071,4.966,3.771,5.642a9.716,9.716,0,0,1-.092-1.4,5.729,5.729,0,0,0,2.574,3.205,5.116,5.116,0,0,0,4.156.235,1.839,1.839,0,0,1-.618-.841,15.209,15.209,0,0,0,6.814.778c.2-.088.4-.18.6-.278a9.8,9.8,0,0,0,5.715-7.116,11.326,11.326,0,0,0-.159-4.058,31.366,31.366,0,0,0,2.626-7.677,27.7,27.7,0,0,0,.387-9.457" transform="translate(-147.938 -116.938)" fill="#ddc6c3"/>
          <path id="Trazado_699923" data-name="Trazado 699923" d="M456.511,379.617a1.84,1.84,0,0,0,.618.841,5.111,5.111,0,0,1-4.156-.235,5.726,5.726,0,0,1-2.574-3.205,9.736,9.736,0,0,0,.092,1.4c-2.7-.676-3.086-3.9-3.77-5.642-.552,1.8-.622,3.721.521,5.119a4.035,4.035,0,0,0,2.446,1.375,3.811,3.811,0,0,0,.482,2.049,6.291,6.291,0,0,1-4.451-1.7c-.12.2.186.736.4,1a4.145,4.145,0,0,1-2.117-.092c-.606-.219-1.511-.7-1.7-1.192a6.182,6.182,0,0,1-3.144-.68,6.248,6.248,0,0,1-2.276-2.178,2.959,2.959,0,0,0,.206,1.822,6.807,6.807,0,0,0,.4.788,7.029,7.029,0,0,1-4.65-2.284,16.2,16.2,0,0,0,3.764,5c1.61,1.521,4.616,1.713,6.595,1.85,2.412.168,3.714,1.348,6.136,1.584a14.269,14.269,0,0,0,11.246-3.4,8.007,8.007,0,0,0,.692-.725,15.5,15.5,0,0,0,2.052-.715,15.21,15.21,0,0,1-6.814-.778" transform="translate(-149.261 -128.547)" fill="#ceb5b3"/>
          <path id="Trazado_699924" data-name="Trazado 699924" d="M482.34,345.23a21.111,21.111,0,0,0,4.407-7.4,2.959,2.959,0,0,0-.469-1.494,1.513,1.513,0,0,0-.117-.117c-.382,1.087-1.131,3.085-1.575,4.1-1.243,2.849-1.853,3.9-2.245,4.909" transform="translate(-166.33 -115.941)" fill="#ddc6c3"/>
          <path id="Trazado_699925" data-name="Trazado 699925" d="M476.763,339.776a18.337,18.337,0,0,0-1.447,1.829s2.895-2.543,3.99-3.508a7.323,7.323,0,0,0,1.829-2.181,2.453,2.453,0,0,0-.085-1.277,12.374,12.374,0,0,1-1.132,1.732c-.89,1.131-2.617,2.876-3.155,3.4" transform="translate(-163.908 -115.397)" fill="#ddc6c3"/>
          <path id="Trazado_699926" data-name="Trazado 699926" d="M430.114,348.619c.661.121,1.447-.55,1.789-1.05a4.6,4.6,0,0,0,.787-2.459,3.481,3.481,0,0,0,1.073-4.791.2.2,0,0,0-.115-.166c-.022-.03-.04-.062-.063-.091s-.054,0-.047.027.009.028.012.041a.219.219,0,0,0-.193.094c-1.141,1.581-2.938,2.809-4.456,4.218-.071,1.6-.5,3.353-.6,4.269-.045.407-.076.815-.1,1.223a3.035,3.035,0,0,0,1.91-1.315" transform="translate(-147.662 -117.264)" fill="#ddc6c3"/>
          <path id="Trazado_699927" data-name="Trazado 699927" d="M465.126,346.187c1.551-1.588,3.383-5.039,4.062-10.4-.549-.979-1.562-.957-2.473-.282a21.121,21.121,0,0,1-4.407,7.4c.392-1.01,1-2.06,2.245-4.909.444-1.017,1.193-3.016,1.575-4.1-.7-.726-1.723-.409-2.6.243a7.33,7.33,0,0,1-1.829,2.18c-1.095.965-3.99,3.508-3.99,3.508A18.334,18.334,0,0,1,459.153,338c.539-.529,2.264-2.273,3.155-3.4a12.318,12.318,0,0,0,1.131-1.732,1.071,1.071,0,0,0-.239-.375c-.8-.768-2.949.382-3.94.886-2.5,1.945-4.744,4.589-4.78,5.545a6,6,0,0,0-5.349.909c-4.047-.49-7.583,1.076-8.478,1.918-.161-3.893-4.676-10.082-5.325-10.994a11.054,11.054,0,0,0-2.93-1.167,12.28,12.28,0,0,0-5,.428,4.9,4.9,0,0,0-2.276,2.038c-1.048,1.845-1.256,4.165-.086,5.134a.164.164,0,0,0,.185.166c.063,0,.121,0,.181,0a6.193,6.193,0,0,0,1.17.316c.833.562,1.019,1.794.961,3.128,1.517-1.408,3.315-2.636,4.456-4.217a.219.219,0,0,1,.193-.094l-.012-.041c-.008-.025.029-.05.047-.027s.041.061.062.091a.2.2,0,0,1,.115.166,3.48,3.48,0,0,1-1.073,4.791,4.6,4.6,0,0,1-.787,2.46c-.342.5-1.128,1.17-1.789,1.05a3.038,3.038,0,0,1-1.91,1.315,35.113,35.113,0,0,0,.3,6.666c.08.609.127,1.268.221,1.914.308-1.508,1-2.942,2.269-3.1-1.373,2.944.22,5.317,1.719,7.7-.067-2.068,1.559-5.84,2.919-5.5-.844,2.1.349,4.56,1.724,6.176,1.167,1.371,2.577,1.926,4.019,2.776-.84-1.15-1.133-3.406.122-4.169a3.779,3.779,0,0,0,1.82,2.633,14.114,14.114,0,0,1-.5-4.392c.024-2.834.973-6.251,4.24-6.7a7.81,7.81,0,0,0-.587,3.067c.205-.309,1.477-1.163,1.733-.96-.523,1.578-1.58,5.218.263,7.423a8.21,8.21,0,0,0,6.252,2.649,10.451,10.451,0,0,0,6.85-1.952c1.806-1.516,2.938-5.33,1.072-7.192a11.2,11.2,0,0,1,2.657-.366c.753-.081,1.411-.1,1.386-.816a3.037,3.037,0,0,0-1.213-1.732c1.163-.866,2.594-2.974,1.012-4.223" transform="translate(-146.298 -113.618)" fill="#ead9d6"/>
          <path id="Trazado_699928" data-name="Trazado 699928" d="M454.963,340.495a6,6,0,0,1,5.349-.909c.035-.955,2.281-3.6,4.779-5.545l-.2.1a17.807,17.807,0,0,0-5.628,4.341,23.046,23.046,0,0,0-11.943,1.257c-.345-.913-.685-1.829-1.1-2.714a12.2,12.2,0,0,0-4.412-5.214c-.211-.137-.432-.263-.654-.389.649.911,5.163,7.1,5.325,10.993.894-.842,4.43-2.408,8.478-1.918" transform="translate(-152.13 -114.287)" fill="#f4e8e6"/>
          <path id="Trazado_699929" data-name="Trazado 699929" d="M431.324,335.654a.743.743,0,0,0-.417.932.652.652,0,0,0,.212.318.72.72,0,1,0,.205-1.25" transform="translate(-148.575 -115.735)" fill="#824030"/>
          <path id="Trazado_699930" data-name="Trazado 699930" d="M431.382,341.74a2.9,2.9,0,0,1-3.4-.632c-.127-.154-2.544,1.109-2.627,2.689-.045.835.857,1.019,1.534.85a1.06,1.06,0,0,0,.893.919,2.825,2.825,0,0,0,2.479-.86c.335-.487,1.276-2.049,1.124-2.967" transform="translate(-146.678 -117.623)" fill="#ff6485"/>
          <path id="Trazado_699931" data-name="Trazado 699931" d="M423.038,342.1a4.9,4.9,0,0,1,1.526-.97,18.013,18.013,0,0,0,2.862-1.309,1.514,1.514,0,0,0-.554-.844c-.948-.742-2.024-1.3-2.666-.907a4.711,4.711,0,0,0-1.223,1.993,4.056,4.056,0,0,0-.161.556c.009.206.02.413.037.618a5.69,5.69,0,0,0,.178.863" transform="translate(-145.806 -116.535)" fill="#feb51c"/>
          <path id="Trazado_699932" data-name="Trazado 699932" d="M422.864,344a16.49,16.49,0,0,1,3.1-1.633c.478-.2,1.052-.334,1.3-.823a1.1,1.1,0,0,0,.1-.736,18.013,18.013,0,0,1-2.862,1.31,4.9,4.9,0,0,0-1.526.97,5.677,5.677,0,0,1-.178-.862c-.018-.206-.028-.412-.038-.618a4.781,4.781,0,0,0,.1,2.393" transform="translate(-145.749 -117.524)" fill="#f4a00b"/>
          <path id="Trazado_699933" data-name="Trazado 699933" d="M471.24,368.135c-.7.1-1.923.675-2.292-.351-.038-.106-.215-.131-.241,0a.772.772,0,0,0,.064.509,1.024,1.024,0,0,1-.828-.028,1.724,1.724,0,0,1-.55-.618.049.049,0,0,0-.089.011c-.246.892,1.09,1.449,1.728.978.007-.005.015-.014.022-.02.653.469,1.986.387,2.3-.338a.1.1,0,0,0-.11-.143" transform="translate(-161.134 -126.771)" fill="#ddc6c3"/>
          <path id="Trazado_699934" data-name="Trazado 699934" d="M443.6,370.983a1.106,1.106,0,0,1-.743-1.107,3.225,3.225,0,0,1,.345-1.2.1.1,0,0,0-.12-.12,1.109,1.109,0,0,0-.7.856,2.029,2.029,0,0,1-.383-.673,3.1,3.1,0,0,1,.117-1.359.054.054,0,0,0-.079-.06,1.586,1.586,0,0,0,.285,2.591c0,.808.425,1.628,1.23,1.417a.188.188,0,0,0,.045-.339" transform="translate(-152.246 -126.662)" fill="#ddc6c3"/>
          <path id="Trazado_699935" data-name="Trazado 699935" d="M448.593,362.795c-.48-.295-1.08-.259-1.448-.748a4.86,4.86,0,0,1-.524-1.7.038.038,0,0,0-.068-.009,1.638,1.638,0,0,0-.163,1.11,3.027,3.027,0,0,1-.729-.379,1.633,1.633,0,0,1-.422-1.3c.01-.167-.216-.168-.269-.037a1.574,1.574,0,0,0,.3,1.646c.263.3.816.67,1.218.477a2.042,2.042,0,0,0,.271.546,1.738,1.738,0,0,0,1.8.634.131.131,0,0,0,.031-.237" transform="translate(-153.404 -124.016)" fill="#ddc6c3"/>
          <path id="Trazado_699936" data-name="Trazado 699936" d="M463.551,370.467c-.48-.295-1.08-.259-1.448-.747a4.86,4.86,0,0,1-.524-1.7.038.038,0,0,0-.068-.009,1.64,1.64,0,0,0-.163,1.111,3,3,0,0,1-.729-.379,1.633,1.633,0,0,1-.422-1.3c.01-.167-.216-.168-.269-.037a1.574,1.574,0,0,0,.3,1.646c.263.3.816.67,1.218.477a2.04,2.04,0,0,0,.271.546,1.738,1.738,0,0,0,1.8.634.131.131,0,0,0,.031-.237" transform="translate(-158.563 -126.662)" fill="#ddc6c3"/>
          <path id="Trazado_699937" data-name="Trazado 699937" d="M471.849,373.158a1.984,1.984,0,0,1-1.258.566,1.325,1.325,0,0,1-1.164-.838.094.094,0,0,0-.17.022c-.189.655.572,1.124,1.122,1.223a1.462,1.462,0,0,0,1.66-.827.131.131,0,0,0-.191-.147" transform="translate(-161.809 -128.571)" fill="#ddc6c3"/>
          <path id="Trazado_699938" data-name="Trazado 699938" d="M464.391,365.364a.893.893,0,0,1-.863-.219,3.537,3.537,0,0,1-.529-.809c-.049-.077-.194-.077-.212.028a1.385,1.385,0,0,0,.661,1.254c.29.206.981.409,1.109-.088a.137.137,0,0,0-.166-.166" transform="translate(-159.583 -125.619)" fill="#ddc6c3"/>
          <path id="Trazado_699939" data-name="Trazado 699939" d="M442.084,363.491a2.058,2.058,0,0,1-.883-.531,1.489,1.489,0,0,1-.238-1.134c.011-.132-.176-.166-.238-.064-.526.862.32,2.265,1.359,1.966a.124.124,0,0,0,0-.237" transform="translate(-151.924 -124.73)" fill="#ddc6c3"/>
          <path id="Trazado_699940" data-name="Trazado 699940" d="M435.468,363.179a3.448,3.448,0,0,1-.936-.744,2,2,0,0,1-.356-1.35.064.064,0,0,0-.117-.032,1.639,1.639,0,0,0,.015,1.5c-.72.623.1,2.2,1.029,1.948a.127.127,0,0,0,.03-.229c-.28-.184-.6-.292-.778-.6a1.238,1.238,0,0,1-.093-.824,1.287,1.287,0,0,0,1.149.54.115.115,0,0,0,.058-.212" transform="translate(-149.591 -124.495)" fill="#ddc6c3"/>
          <path id="Trazado_699941" data-name="Trazado 699941" d="M438.109,359.467a.431.431,0,0,0-.332-.092,1.241,1.241,0,0,1-.535-.121c-.321-.155-.457-.44-.707-.662-.015-.013-.046-.015-.055.007-.156.368.2.789.478.983.249.171,1,.457,1.172.052a.144.144,0,0,0-.022-.168" transform="translate(-150.503 -123.654)" fill="#ddc6c3"/>
          <path id="Trazado_699942" data-name="Trazado 699942" d="M431.258,360.362c-.208-.233-.5-.322-.611-.641s.062-.6-.015-.889a.085.085,0,0,0-.1-.058c-.451.086-.45.828-.327,1.154.144.381.533.817.98.717a.171.171,0,0,0,.075-.283" transform="translate(-148.327 -123.719)" fill="#ddc6c3"/>
          <path id="Trazado_699943" data-name="Trazado 699943" d="M475.946,359.955a7.252,7.252,0,0,0-4.433-1.973c-2.54-1.646-6.665-1.956-9.214-.431a.145.145,0,0,0,.111.263,17.61,17.61,0,0,1,4.87-.63,12.613,12.613,0,0,1,3.212.745,8.544,8.544,0,0,0-1.9.214.072.072,0,0,0,.019.141,13.8,13.8,0,0,1,7.248,1.783.072.072,0,0,0,.087-.113" transform="translate(-159.395 -122.957)" fill="#ddc6c3"/>
          <path id="Trazado_699944" data-name="Trazado 699944" d="M481.972,354.424a.066.066,0,0,0-.1.039,3.23,3.23,0,0,0-.039.446.967.967,0,0,1-.288.546c-.24.236-.581.322-.839.531a.093.093,0,0,0,.041.155,1.2,1.2,0,0,0,1.22-.539c.2-.282.414-.974,0-1.179" transform="translate(-165.759 -122.217)" fill="#ddc6c3"/>
          <path id="Trazado_699945" data-name="Trazado 699945" d="M479.836,354.836a.066.066,0,0,0-.1.073,3.021,3.021,0,0,1,.045,1.027,1.158,1.158,0,0,1-.477.776.122.122,0,0,0,.053.2c.993.268,1.139-1.7.475-2.078" transform="translate(-165.272 -122.359)" fill="#ddc6c3"/>
          <path id="Trazado_699946" data-name="Trazado 699946" d="M465.924,347.893a.1.1,0,0,0-.15.086c.023.391.216.709.12,1.117a2.3,2.3,0,0,1-.487.78,1.646,1.646,0,0,0-.664-.918.052.052,0,0,0-.077.045c-.043.43.32.793.411,1.2.084.375-.234.635-.151,1a.166.166,0,0,0,.3.039,1.389,1.389,0,0,0,.29-1.012.125.125,0,0,0,.027,0c.877-.167,1.231-1.943.379-2.343" transform="translate(-160.234 -119.964)" fill="#ddc6c3"/>
          <path id="Trazado_699947" data-name="Trazado 699947" d="M471.476,350.86a.066.066,0,0,0-.119.016,2.33,2.33,0,0,1-.447.9,1.263,1.263,0,0,1-.435.284c-.147.056-.271.056-.387.172a.2.2,0,0,0,.039.307c.377.229.91-.208,1.132-.493a1.133,1.133,0,0,0,.216-1.185" transform="translate(-162.086 -120.98)" fill="#ddc6c3"/>
          <path id="Trazado_699948" data-name="Trazado 699948" d="M458.908,353.563a1.785,1.785,0,0,1-.529.885c-.252.214-.6.219-.839.425a.147.147,0,0,0,.029.229c.364.208.868-.147,1.119-.4a1.423,1.423,0,0,0,.421-1.137c-.016-.109-.172-.088-.2,0" transform="translate(-157.763 -121.897)" fill="#ddc6c3"/>
          <path id="Trazado_699949" data-name="Trazado 699949" d="M439.712,351.617c-.377-.1-.718-.007-1.022-.326a1.449,1.449,0,0,1-.3-1.081c0-.078-.111-.137-.166-.069a1.04,1.04,0,0,0-.156.945.874.874,0,0,1-.567-.2c-.22-.193-.25-.459-.423-.67a.051.051,0,0,0-.08.01c-.235.318.09.854.347,1.059a1.159,1.159,0,0,0,.944.248c.008.01.014.021.021.03.295.361,1.009.725,1.446.407a.2.2,0,0,0-.046-.352" transform="translate(-150.667 -120.732)" fill="#ddc6c3"/>
          <path id="Trazado_699950" data-name="Trazado 699950" d="M441.029,345.7a2.845,2.845,0,0,1-.8-.039,1.569,1.569,0,0,1-.7-.477.059.059,0,0,0-.1.041c.06.715,1.174,1.2,1.671.641a.1.1,0,0,0-.069-.166" transform="translate(-151.532 -119.029)" fill="#ddc6c3"/>
          <path id="Trazado_699951" data-name="Trazado 699951" d="M449.919,351.4a3.78,3.78,0,0,1-.75.512,1.187,1.187,0,0,1-1.016-.126.066.066,0,0,0-.089.088.965.965,0,0,0,1.046.438,1.21,1.21,0,0,0,.97-.789.11.11,0,0,0-.161-.123" transform="translate(-154.508 -121.171)" fill="#ddc6c3"/>
          <path id="Trazado_699952" data-name="Trazado 699952" d="M433.385,328.484c-.3-1.172-1.615-1.981-2.528-1.386-.78-.685-1.9-1.134-2.634.216-1.258-.155-2.395,2.389-.41,3.019a12.89,12.89,0,0,1,5.114-1.247.481.481,0,0,0,.458-.6" transform="translate(-147.156 -112.57)" fill="#ff6485"/>
          <path id="Trazado_699953" data-name="Trazado 699953" d="M463.289,403.785a3.283,3.283,0,0,0-1.365.318l-1.975.576a.241.241,0,0,0-.143.352,1.277,1.277,0,0,1,.2,1.166.239.239,0,0,0,.3.289c1.247.92,2.953-.069,3.43-1.422.163-.465.147-1.159-.449-1.279" transform="translate(-158.547 -139.236)" fill="#ff6485"/>
          <path id="Trazado_699954" data-name="Trazado 699954" d="M455.9,407.089a12.287,12.287,0,0,0,1.1,2.967.179.179,0,0,0,.172.1c.038-.078.073-.154.112-.234.5-1.05.717-2.53-1.386-2.828" transform="translate(-157.213 -140.381)" fill="#feb51c"/>
          <path id="Trazado_699955" data-name="Trazado 699955" d="M459.854,406.087a.229.229,0,0,0-.08-.306,13.232,13.232,0,0,0-4-1.036,4.308,4.308,0,0,0,.069,1.535c2.1.3,1.891,1.778,1.386,2.828-.038.08-.073.156-.111.234a.23.23,0,0,0,.151-.054,12.313,12.313,0,0,0,2.587-3.2" transform="translate(-157.155 -139.572)" fill="#f4a00b"/>
          <path id="Trazado_699956" data-name="Trazado 699956" d="M496.445,348.078a3.653,3.653,0,0,0-1.126-.043,1.808,1.808,0,0,0-.33-.763c-.871-1.137-2.281-.812-3.352-.119a1.232,1.232,0,0,0-.76-1.308c-.832-.367-1.889.172-2.632.509-.4.183-.807.379-1.206.586a20.247,20.247,0,0,0-9.552,1.4c-2.864,2.1-5.716,5.2-6.036,7.1-1.186.51-4.951,2.1-4.527,6.663a6.862,6.862,0,0,0-1.042,6.554,1.529,1.529,0,0,0-1.773,1.321c-.468.177-.974.22-1.447.414a5.741,5.741,0,0,0-2.915,3.245,7.7,7.7,0,0,0-5.14,3.855,13.842,13.842,0,0,0-.585,1.97c-.523,2.437-.022,5.334,2.7,6.121a4.505,4.505,0,0,0,2.279.018s0-.007.007-.009a5.129,5.129,0,0,0,1.673-1.226,5.062,5.062,0,0,0,1.1-1.881c0,.035,2.031,1.084,3.215.643,1.079-.4,2.353-2.374,2.4-2.466.1-.2.366-.047.337.142a2.524,2.524,0,0,1-.073.267,4.509,4.509,0,0,0,4.438-.717c.009-.008,2.546,1.749,4.2,1.426A4.477,4.477,0,0,0,479.5,379,2.269,2.269,0,0,1,478,378.53c-.031-.025,0-.068.036-.062a3.915,3.915,0,0,0,3.632-.867,5.963,5.963,0,0,0,1.1-1.308c-1.5-.691-4.093-1.99-3.528-4.131a4.739,4.739,0,0,0,3.352,1.62c1.506.122,3.744-.577,4.457-2.32a5.194,5.194,0,0,0,3.666-.7c1.139-.824,1.016-3.067,1.017-3.069a2.636,2.636,0,0,0,2.049-1.977,2.54,2.54,0,0,0-1.957-2.839,5.079,5.079,0,0,0-4.323,1.419c-.181.193-.436-.053-.341-.263a4.968,4.968,0,0,1,5.313-2.79c.65-.588,1.979-1.829.907-5.683a7.116,7.116,0,0,0,3.06-7.485" transform="translate(-156.501 -119.219)" fill="#e0cdca"/>
          <path id="Trazado_699957" data-name="Trazado 699957" d="M460.15,375.006a5.741,5.741,0,0,1,2.915-3.245c.472-.195.978-.238,1.447-.415a1.529,1.529,0,0,1,1.773-1.32,6.862,6.862,0,0,1,1.042-6.554c-.424-4.56,3.341-6.153,4.527-6.664.32-1.9,3.172-5,6.036-7.1-.469.186-.926.381-1.379.58a11.725,11.725,0,0,0-5.79,4.878,11.735,11.735,0,0,0-5.655,7.34,22.194,22.194,0,0,0-.412,3.923c-.056.974-.178,2.042-.134,3.059a10.064,10.064,0,0,0-4.977,4.319c-2.6,1.093-3.551,2.446-4.533,5.049a7.7,7.7,0,0,1,5.14-3.854" transform="translate(-156.906 -120.595)" fill="#eadcdc"/>
          <path id="Trazado_699958" data-name="Trazado 699958" d="M473.525,383.975c.626.719,2.689,1.6,3.961.927,1.243.989,4.879.09,5.362-1.479a5.961,5.961,0,0,0,2.617-.542c.855-.444,2.174-1.4,1.47-2.5a.21.21,0,0,1-.012-.031h0a2.426,2.426,0,0,0,2.37-2.522,2.68,2.68,0,0,1-1.9-.851,10.981,10.981,0,0,0,2.554-.2,3.792,3.792,0,0,0,2.1-1.957,4.793,4.793,0,0,0,3.281-1.142,4.7,4.7,0,0,0,1.466-3.557,3.012,3.012,0,0,0,1.237-2.548,4.246,4.246,0,0,0-.861-3,5.294,5.294,0,0,0,1.986-2.2c.09-1.756.111-4.547.3-6.394,1.547-2.666,2.1-4.962.958-5.982a2.659,2.659,0,0,0-1.253-.67,7.117,7.117,0,0,1-3.06,7.486c1.071,3.854-.257,5.1-.907,5.683a4.967,4.967,0,0,0-5.313,2.791c-.1.209.159.455.34.263a5.08,5.08,0,0,1,4.324-1.42,2.541,2.541,0,0,1,1.956,2.839,2.638,2.638,0,0,1-2.049,1.977s.122,2.245-1.017,3.069a5.193,5.193,0,0,1-3.667.7c-.713,1.743-2.951,2.442-4.457,2.321a4.742,4.742,0,0,1-3.352-1.621c-.565,2.141,2.026,3.44,3.528,4.131a5.946,5.946,0,0,1-1.1,1.308,3.911,3.911,0,0,1-3.632.867c-.032-.007-.068.037-.036.062a2.274,2.274,0,0,0,1.494.472A4.476,4.476,0,0,1,479,383.014c-1.651.323-4.188-1.433-4.2-1.426a4.507,4.507,0,0,1-4.438.717,2.478,2.478,0,0,0,.073-.267c.03-.189-.235-.345-.337-.142-.046.092-1.32,2.065-2.4,2.466-1.185.44-3.215-.609-3.216-.643a5.064,5.064,0,0,1-1.1,1.881,5.137,5.137,0,0,1-1.673,1.226s0,.006-.007.008a5.4,5.4,0,0,0,2.51-1.361c2.133,1.31,5.121.77,7.668-.194l.039.02a4.381,4.381,0,0,0,1.595-1.325" transform="translate(-159.218 -120.459)" fill="#d6bab9"/>
          <path id="Trazado_699959" data-name="Trazado 699959" d="M496.362,385.979c2.292.035,4.53-1.952,5.27-4.984,1.581-1.315,3.3-6.324,2.9-11.765a5.3,5.3,0,0,1-1.986,2.2,4.253,4.253,0,0,1,.861,3,3.011,3.011,0,0,1-1.237,2.547,4.7,4.7,0,0,1-1.466,3.558,4.79,4.79,0,0,1-3.28,1.141,3.79,3.79,0,0,1-2.1,1.957,10.977,10.977,0,0,1-2.553.2,2.68,2.68,0,0,0,1.9.852,2.426,2.426,0,0,1-2.37,2.522h0a.162.162,0,0,0,.012.032c.7,1.095-.615,2.055-1.47,2.5a5.985,5.985,0,0,1-2.617.542c-.483,1.569-4.12,2.467-5.363,1.478-1.272.676-3.335-.208-3.96-.927a4.388,4.388,0,0,1-1.595,1.325c4.61,2.518,14.94,1.454,19.054-6.187" transform="translate(-164.595 -127.325)" fill="#c9a9a9"/>
          <path id="Trazado_699960" data-name="Trazado 699960" d="M455.883,395.933c.2-.326.271-.806-.056-.946-1.414-.6-1.58,1.029-2.228,1.658-.421.408-.895.36-1.107,1.056-.305.993.564,1.658.516,2.6-.024.477-.371.63-.05,1.181.4.694,1.255.667,1.949.615a.25.25,0,0,0,.238-.312,7.618,7.618,0,0,1,.738-5.855" transform="translate(-156.015 -136.162)" fill="#ff6485"/>
          <path id="Trazado_699961" data-name="Trazado 699961" d="M460.24,403.62a.737.737,0,0,0-.414.925.64.64,0,0,0,.211.316.715.715,0,1,0,.2-1.241" transform="translate(-158.547 -139.172)" fill="#824030"/>
          <path id="Trazado_699962" data-name="Trazado 699962" d="M506.137,369.393c-2.554-2.325-7.4-1.92-9.722.672a4.936,4.936,0,0,0-5.062,3.188c-.015.058.066.116.107.063a7.407,7.407,0,0,1,2.079-2.064,5.811,5.811,0,0,1,2.475-.683,4.875,4.875,0,0,0-.317.5.067.067,0,0,0,.1.081c.263-.222,3.043-2.266,4.39-2.543,2.123-.437,3.792.271,5.663,1.148.223.1.491-.175.282-.365" transform="translate(-169.438 -126.854)" fill="#d6bab9"/>
          <path id="Trazado_699963" data-name="Trazado 699963" d="M488.868,391.56a.116.116,0,0,0-.2-.081c-.268.269-.4.593-.759.779a2.124,2.124,0,0,1-1.254.086c-.044,0-.061.055-.034.083a1.112,1.112,0,0,0,.8.3c-.155.406-.221.812-.711.979a1.3,1.3,0,0,1-.354.064,1.178,1.178,0,0,0-.28,0c-.037.012-.113.039-.1.091.034.193.31.221.473.225a1.224,1.224,0,0,0,.719-.22,1.057,1.057,0,0,0,.473-1.147c.641-.077,1.276-.516,1.23-1.156" transform="translate(-167.583 -134.986)" fill="#d6bab9"/>
          <path id="Trazado_699964" data-name="Trazado 699964" d="M497.341,382.446a2.536,2.536,0,0,1-1.416.654,1.573,1.573,0,0,1-.689-.167.1.1,0,0,0-.121-.057c-.214-.115-.417-.257-.626-.4a.044.044,0,0,0-.064.05,1.245,1.245,0,0,0,.336.55,1.183,1.183,0,0,1-.8.268,1.8,1.8,0,0,1-1.051-.658.04.04,0,0,0-.067.028,1.136,1.136,0,0,0,1.063,1.033,1.392,1.392,0,0,0,1.2-.429,1.744,1.744,0,0,0,2.368-.774.091.091,0,0,0-.132-.1" transform="translate(-169.951 -131.878)" fill="#d6bab9"/>
          <path id="Trazado_699965" data-name="Trazado 699965" d="M506.928,380.006a.082.082,0,0,0-.147.019,1.348,1.348,0,0,1-.5.977,2.332,2.332,0,0,1-.384.228.409.409,0,0,1-.523-.044c-.1-.075-.218.029-.225.129-.017.229.176.366.388.391a1.3,1.3,0,0,0,.81-.3c.4-.272.9-.9.584-1.4" transform="translate(-174.194 -131.028)" fill="#ddc6c3"/>
          <path id="Trazado_699966" data-name="Trazado 699966" d="M507.245,375.009a.116.116,0,0,0-.193.05.92.92,0,0,1-.569.833,1.833,1.833,0,0,1-1.049.007c-.048-.01-.109.033-.088.088.132.346.533.423.907.386a1.226,1.226,0,0,1-.521.461c-.328.142-.672.047-.995.159a.133.133,0,0,0-.058.219c.318.373.986.179,1.328-.065a1.358,1.358,0,0,0,.563-.833,1.455,1.455,0,0,0,.183-.063c.451-.193.894-.8.49-1.243" transform="translate(-174.022 -129.307)" fill="#ddc6c3"/>
          <path id="Trazado_699967" data-name="Trazado 699967" d="M500.532,374.129a.049.049,0,0,0-.022.081.751.751,0,0,1,.288.471,1.666,1.666,0,0,1,0,.51.961.961,0,0,1-.126.354c-.07.11-.161.157-.188.288a.125.125,0,0,0,.085.15c.449.138.606-.617.615-.919.009-.322-.146-1.146-.649-.936" transform="translate(-172.585 -129.003)" fill="#d6bab9"/>
          <path id="Trazado_699968" data-name="Trazado 699968" d="M497.574,375.979c-.087-.033-.153.063-.139.139.073.377.288.658.121,1.06-.156.375-.518.477-.824.688-.053.037-.072.136,0,.167.505.221,1.038-.229,1.224-.687.176-.432.119-1.177-.383-1.367" transform="translate(-171.277 -129.65)" fill="#d6bab9"/>
          <path id="Trazado_699969" data-name="Trazado 699969" d="M483.072,386.926a.063.063,0,0,0-.079.06,1.73,1.73,0,0,0,.058.4,1.042,1.042,0,0,1-.105.552,1.7,1.7,0,0,1-.524.694c-.01.005-.013.018-.022.025a1.907,1.907,0,0,0-.445-.8.051.051,0,0,0-.085.049,6.659,6.659,0,0,1,.2,1.091,1.556,1.556,0,0,1-.035.493c-.08.259-.247.274-.4.447a.1.1,0,0,0,0,.143l.061.062a.2.2,0,0,0,.189.05c.531-.141.658-.663.584-1.194.393.059.725-.6.839-.9.122-.326.208-1.047-.24-1.166" transform="translate(-166.079 -133.427)" fill="#d6bab9"/>
          <path id="Trazado_699970" data-name="Trazado 699970" d="M488.729,378.2c-.067-.168-.18-.409-.376-.454a.161.161,0,0,0-.219.147.054.054,0,0,0,.053.053c.165,0,.238.657.24.772,0,.247-.133.493-.072.733a.126.126,0,0,0,.182.075c.427-.2.332-.976.191-1.327" transform="translate(-168.328 -130.26)" fill="#d6bab9"/>
          <path id="Trazado_699971" data-name="Trazado 699971" d="M510.032,360.516a.04.04,0,0,0-.009.071c.087.063.112.326.132.43a1.466,1.466,0,0,1,0,.6c-.066.306-.316.531-.349.833-.014.124.125.193.227.173.869-.17.653-2.378,0-2.112" transform="translate(-175.8 -124.313)" fill="#d6bab9"/>
          <path id="Trazado_699972" data-name="Trazado 699972" d="M511.135,353.9c-.108-.132-.343.047-.238.184a.79.79,0,0,1-.061,1.008,6.651,6.651,0,0,1-.539.49c-.232-.322-.6-.742-.951-.706a.042.042,0,0,0-.04.052c.058.316.432.581.605.847a1.857,1.857,0,0,1,.345,1.178.177.177,0,0,0,.3.124.961.961,0,0,0-.035-1.152,1.424,1.424,0,0,0,.807-.828,1.2,1.2,0,0,0-.192-1.2" transform="translate(-175.629 -122.022)" fill="#d6bab9"/>
          <path id="Trazado_699973" data-name="Trazado 699973" d="M501.9,361.327a.112.112,0,0,0-.162.124,2.328,2.328,0,0,1-.007,1.281,1.411,1.411,0,0,1-.258.573c-.043.049-.08.085-.115.119a.974.974,0,0,0-.951-.484.042.042,0,0,0-.018.069,2.324,2.324,0,0,1,.629.736,2.5,2.5,0,0,1,.037,1.022.145.145,0,0,0,.244.1.948.948,0,0,0,.248-1.055c.735-.235.989-2.118.352-2.488" transform="translate(-172.55 -124.595)" fill="#d6bab9"/>
          <path id="Trazado_699974" data-name="Trazado 699974" d="M515.316,348.7a10.592,10.592,0,0,0-2.043,1,15.815,15.815,0,0,1-1.447.934,5.964,5.964,0,0,1,1.447-2.26,2.544,2.544,0,0,1,1.441-.72,1.564,1.564,0,0,1,.6,1.051" transform="translate(-176.498 -119.883)" fill="#d6bab9"/>
          <path id="Trazado_699975" data-name="Trazado 699975" d="M510.439,347.355a7.194,7.194,0,0,0-1.135.924,3.906,3.906,0,0,1-.776.67,1.476,1.476,0,0,1,.157-1.594c.62-.776,1.283-1.175,1.42-1.016a1.778,1.778,0,0,1,.333,1.016" transform="translate(-175.304 -119.42)" fill="#d6bab9"/>
          <path id="Trazado_699976" data-name="Trazado 699976" d="M504.886,354.182c-.092-.3-.446-.717-.782-.485a.07.07,0,0,0-.014.109c.109.1.248.159.324.29a.967.967,0,0,1,.094.46,3.474,3.474,0,0,1-.169.88.213.213,0,0,0,.387.163,1.844,1.844,0,0,0,.161-1.416" transform="translate(-173.823 -121.946)" fill="#d6bab9"/>
          <path id="Trazado_699977" data-name="Trazado 699977" d="M500.908,355.982a.049.049,0,0,0-.01.076c.182.2.451.3.634.511.217.249.217.523.354.8a.224.224,0,0,0,.4-.053c.186-.591-.746-1.708-1.383-1.333" transform="translate(-172.725 -122.731)" fill="#d6bab9"/>
          <path id="Trazado_699978" data-name="Trazado 699978" d="M490.867,366.465a.053.053,0,0,0-.065.065c.065.223.172.432.233.655a1.629,1.629,0,0,1-.02.778c-.039.21.275.386.375.158.236-.538.093-1.454-.523-1.656" transform="translate(-169.248 -126.371)" fill="#d6bab9"/>
          <path id="Trazado_699979" data-name="Trazado 699979" d="M488.881,369.276a1.413,1.413,0,0,0-.8-.586.157.157,0,0,0-.174.071.127.127,0,0,0-.012.027l0,.01a.16.16,0,0,0,.071.174,1.907,1.907,0,0,1,.567.607c.114.2.1.5.277.655a.176.176,0,0,0,.271-.035c.193-.254-.047-.7-.2-.923" transform="translate(-168.244 -127.137)" fill="#d6bab9"/>
          <path id="Trazado_699980" data-name="Trazado 699980" d="M494.956,359.009a1.044,1.044,0,0,0-.14-.318c.3-.683-.111-2-.986-1.842a.056.056,0,0,0-.025.092,2.064,2.064,0,0,1,.557.7,1.258,1.258,0,0,1,.048.639,1.627,1.627,0,0,0-.245-.138c-.284-.126-.777-.231-.992.066a.1.1,0,0,0,.034.129c.229.122.518.081.759.2a1.257,1.257,0,0,1,.556.656c.119.252.493.069.434-.183" transform="translate(-170.061 -123.052)" fill="#d6bab9"/>
          <path id="Trazado_699981" data-name="Trazado 699981" d="M480.562,377.558a1.206,1.206,0,0,0-1.079-.9.1.1,0,0,0-.068.165c.29.286.629.493.741.913a1.211,1.211,0,0,1-.008.595.855.855,0,0,0-.546-.2.135.135,0,0,0-.118.068.138.138,0,0,0-.018.05c-.009.17.265.284.372.38a1.015,1.015,0,0,1,.336.732.23.23,0,0,0,.46,0,1.337,1.337,0,0,0-.153-.618,1.556,1.556,0,0,0,.081-1.184" transform="translate(-165.312 -129.886)" fill="#d6bab9"/>
          <path id="Trazado_699982" data-name="Trazado 699982" d="M476.515,389.41a1.308,1.308,0,0,0-.113-1.379c-.039-.043-.1-.005-.106.045a4.485,4.485,0,0,1-.073.9,1.775,1.775,0,0,1-.505.806.243.243,0,0,0-.037.287.25.25,0,0,0,.085.085.238.238,0,0,0,.287-.037,1.924,1.924,0,0,0,.247-.309,2.194,2.194,0,0,1,.007.564c-.042.286-.256.561-.233.841.007.081.088.176.181.138.308-.128.4-.535.446-.843a1.609,1.609,0,0,0-.185-1.1" transform="translate(-164.023 -133.802)" fill="#d6bab9"/>
          <path id="Trazado_699983" data-name="Trazado 699983" d="M473.531,392.55a.065.065,0,0,0-.079.079,4.08,4.08,0,0,0,.345.694,3.5,3.5,0,0,1,.227.883c.046.242.4.168.409-.056.033-.54-.307-1.469-.9-1.6" transform="translate(-163.265 -135.366)" fill="#d6bab9"/>
          <path id="Trazado_699984" data-name="Trazado 699984" d="M468.928,396.721a.1.1,0,0,0-.185-.024,2.928,2.928,0,0,1-.483.869,1.442,1.442,0,0,1-.461.3.967.967,0,0,0-.358.187.132.132,0,0,0,.027.206c.36.183.833-.153,1.074-.414a1.258,1.258,0,0,0,.385-1.128" transform="translate(-161.18 -136.78)" fill="#d6bab9"/>
          <path id="Trazado_699985" data-name="Trazado 699985" d="M476.732,382.4c-.227-.218-.673-.431-.955-.2a.053.053,0,0,0,.01.083c.225.157.5.169.682.407s.143.5.2.778c.029.15.231.149.3.039a.942.942,0,0,0-.237-1.108" transform="translate(-164.061 -131.764)" fill="#d6bab9"/>
          <path id="Trazado_699986" data-name="Trazado 699986" d="M482.908,366.126a.827.827,0,0,0-.968-.138.109.109,0,0,0,.054.2,1.036,1.036,0,0,1,.809.473c.121.174.2.383.43.406a.123.123,0,0,0,.109-.063c.147-.3-.217-.694-.436-.88" transform="translate(-166.174 -126.172)" fill="#d6bab9"/>
          <path id="Trazado_699987" data-name="Trazado 699987" d="M496.8,352.9a.1.1,0,0,0-.09.156,1.938,1.938,0,0,1,.359.628c.052.229,0,.461.041.693a.143.143,0,0,0,.21.085c.559-.4.123-1.509-.52-1.563" transform="translate(-171.28 -121.694)" fill="#d6bab9"/>
          <path id="Trazado_699988" data-name="Trazado 699988" d="M545.878,383.156a3.187,3.187,0,0,0-.345-1.091c-.679,5.361-2.511,8.811-4.062,10.4,1.582,1.249.151,3.357-1.012,4.223a3.033,3.033,0,0,1,1.213,1.732c.024.717-.634.735-1.386.816a11.189,11.189,0,0,0-2.657.366c1.865,1.861.732,5.675-1.073,7.191a10.451,10.451,0,0,1-6.85,1.952,8.208,8.208,0,0,1-6.251-2.649c-1.843-2.205-.786-5.845-.263-7.423-.256-.2-1.528.651-1.733.96a7.809,7.809,0,0,1,.587-3.067c-3.267.449-4.217,3.866-4.24,6.7a14.111,14.111,0,0,0,.5,4.392,3.779,3.779,0,0,1-1.82-2.633c-1.255.763-.962,3.019-.122,4.169-1.441-.85-2.851-1.4-4.019-2.776-1.375-1.616-2.569-4.071-1.724-6.176-1.36-.339-2.986,3.433-2.919,5.5-1.5-2.383-3.092-4.756-1.719-7.7-1.272.158-1.962,1.593-2.27,3.1a4.788,4.788,0,0,0,.989,2.564,26.835,26.835,0,0,0,1.525,4.44,7.03,7.03,0,0,0,4.65,2.284,6.909,6.909,0,0,1-.394-.788,2.959,2.959,0,0,1-.206-1.822,5.858,5.858,0,0,0,5.42,2.858c.185.5,1.09.972,1.7,1.192a4.138,4.138,0,0,0,2.117.092c-.217-.259-.523-.8-.4-1a6.289,6.289,0,0,0,4.451,1.7,3.812,3.812,0,0,1-.482-2.049,4.034,4.034,0,0,1-2.446-1.374c-1.144-1.4-1.074-3.324-.521-5.119.685,1.745,1.07,4.966,3.77,5.642a9.7,9.7,0,0,1-.092-1.4,5.726,5.726,0,0,0,2.574,3.205,5.116,5.116,0,0,0,4.156.235,1.84,1.84,0,0,1-.618-.841,15.21,15.21,0,0,0,6.814.778c.2-.088.4-.18.6-.278a9.8,9.8,0,0,0,5.716-7.116,11.341,11.341,0,0,0-.16-4.058,31.361,31.361,0,0,0,2.626-7.677,27.678,27.678,0,0,0,.387-9.457" transform="translate(-173.699 -131.751)" fill="#ddc6c3"/>
          <path id="Trazado_699989" data-name="Trazado 699989" d="M531.216,422.574a1.84,1.84,0,0,0,.619.841,5.113,5.113,0,0,1-4.156-.234,5.728,5.728,0,0,1-2.574-3.206,9.721,9.721,0,0,0,.092,1.4c-2.7-.676-3.086-3.9-3.77-5.642-.552,1.794-.622,3.72.521,5.119a4.032,4.032,0,0,0,2.446,1.374,3.813,3.813,0,0,0,.482,2.049,6.292,6.292,0,0,1-4.451-1.7c-.121.2.185.736.4,1a4.145,4.145,0,0,1-2.117-.092c-.606-.219-1.511-.7-1.7-1.192a5.858,5.858,0,0,1-5.42-2.858,2.959,2.959,0,0,0,.206,1.822,6.859,6.859,0,0,0,.394.788,7.029,7.029,0,0,1-4.65-2.284,16.2,16.2,0,0,0,3.764,5c1.61,1.521,4.616,1.713,6.595,1.85,2.412.168,3.714,1.348,6.136,1.584a14.271,14.271,0,0,0,11.246-3.4,7.91,7.91,0,0,0,.691-.725,15.481,15.481,0,0,0,2.053-.715,15.209,15.209,0,0,1-6.814-.778" transform="translate(-175.022 -143.361)" fill="#ceb5b3"/>
          <path id="Trazado_699990" data-name="Trazado 699990" d="M557.045,388.188a21.11,21.11,0,0,0,4.407-7.4,2.951,2.951,0,0,0-.47-1.494,1.392,1.392,0,0,0-.117-.117c-.382,1.087-1.131,3.085-1.575,4.1-1.244,2.849-1.853,3.9-2.245,4.909" transform="translate(-192.092 -130.755)" fill="#ddc6c3"/>
          <path id="Trazado_699991" data-name="Trazado 699991" d="M551.468,382.734a18.348,18.348,0,0,0-1.447,1.828s2.895-2.542,3.99-3.507a7.322,7.322,0,0,0,1.829-2.181,2.446,2.446,0,0,0-.086-1.277,12.3,12.3,0,0,1-1.131,1.732c-.89,1.131-2.617,2.876-3.155,3.4" transform="translate(-189.669 -130.211)" fill="#ddc6c3"/>
          <path id="Trazado_699992" data-name="Trazado 699992" d="M504.819,391.577c.661.121,1.447-.55,1.789-1.05a4.6,4.6,0,0,0,.787-2.46,3.481,3.481,0,0,0,1.073-4.791.2.2,0,0,0-.115-.166c-.022-.03-.04-.062-.063-.091s-.054,0-.046.027.009.027.012.041a.219.219,0,0,0-.193.094c-1.141,1.581-2.938,2.809-4.456,4.217-.071,1.6-.5,3.354-.6,4.27-.045.407-.076.815-.1,1.223a3.035,3.035,0,0,0,1.91-1.315" transform="translate(-173.423 -132.077)" fill="#ddc6c3"/>
          <path id="Trazado_699993" data-name="Trazado 699993" d="M539.83,389.145c1.551-1.588,3.383-5.039,4.062-10.4-.549-.979-1.562-.957-2.473-.282a21.121,21.121,0,0,1-4.407,7.4c.392-1.01,1-2.06,2.245-4.909.444-1.017,1.193-3.016,1.575-4.1-.7-.726-1.723-.409-2.6.243a7.328,7.328,0,0,1-1.829,2.18c-1.095.965-3.99,3.508-3.99,3.508a18.333,18.333,0,0,1,1.447-1.829c.539-.529,2.264-2.273,3.155-3.4a12.317,12.317,0,0,0,1.131-1.732,1.071,1.071,0,0,0-.239-.375c-.8-.768-2.949.382-3.941.886-2.5,1.945-4.743,4.589-4.779,5.545a6,6,0,0,0-5.349.909c-4.048-.49-7.583,1.076-8.478,1.918-.161-3.893-4.676-10.082-5.325-10.993a11.055,11.055,0,0,0-2.93-1.167,12.278,12.278,0,0,0-5,.428,4.905,4.905,0,0,0-2.276,2.038c-1.048,1.845-1.256,4.164-.086,5.134a.164.164,0,0,0,.185.166c.064,0,.121,0,.181,0a6.189,6.189,0,0,0,1.17.316c.833.562,1.019,1.794.961,3.128,1.517-1.408,3.315-2.636,4.456-4.217a.219.219,0,0,1,.193-.094l-.012-.041c-.008-.025.029-.05.046-.027s.041.061.062.091a.2.2,0,0,1,.115.166,3.48,3.48,0,0,1-1.073,4.791,4.6,4.6,0,0,1-.787,2.46c-.342.5-1.128,1.17-1.789,1.05a3.038,3.038,0,0,1-1.91,1.315,35.119,35.119,0,0,0,.3,6.666c.08.609.127,1.268.221,1.914.308-1.507,1-2.942,2.269-3.1-1.373,2.944.22,5.317,1.719,7.7-.067-2.068,1.559-5.84,2.919-5.5-.845,2.1.349,4.56,1.724,6.176,1.168,1.371,2.577,1.926,4.019,2.776-.84-1.15-1.133-3.406.122-4.169a3.78,3.78,0,0,0,1.82,2.633,14.115,14.115,0,0,1-.5-4.392c.024-2.835.973-6.251,4.24-6.7a7.808,7.808,0,0,0-.587,3.067c.2-.309,1.477-1.163,1.733-.96-.524,1.578-1.58,5.218.263,7.423a8.21,8.21,0,0,0,6.252,2.649,10.454,10.454,0,0,0,6.85-1.952c1.8-1.516,2.938-5.33,1.073-7.192a11.2,11.2,0,0,1,2.657-.366c.753-.081,1.411-.1,1.386-.816a3.032,3.032,0,0,0-1.212-1.732c1.163-.866,2.594-2.974,1.012-4.223" transform="translate(-172.059 -128.432)" fill="#ead9d6"/>
          <path id="Trazado_699994" data-name="Trazado 699994" d="M529.668,383.452a6,6,0,0,1,5.349-.909c.035-.955,2.281-3.6,4.779-5.545l-.2.1a17.807,17.807,0,0,0-5.628,4.341,23.053,23.053,0,0,0-11.943,1.256c-.345-.913-.685-1.828-1.1-2.714a12.2,12.2,0,0,0-4.412-5.214c-.211-.137-.432-.263-.654-.39.649.911,5.163,7.1,5.325,10.994.895-.842,4.43-2.408,8.478-1.918" transform="translate(-177.891 -129.1)" fill="#f4e8e6"/>
          <path id="Trazado_699995" data-name="Trazado 699995" d="M506.028,378.612a.744.744,0,0,0-.417.932.657.657,0,0,0,.212.318.72.72,0,1,0,.205-1.251" transform="translate(-174.336 -130.549)" fill="#824030"/>
          <path id="Trazado_699996" data-name="Trazado 699996" d="M506.086,384.7a2.9,2.9,0,0,1-3.4-.632c-.126-.154-2.543,1.109-2.627,2.689-.045.835.857,1.019,1.534.85a1.06,1.06,0,0,0,.894.919,2.823,2.823,0,0,0,2.478-.86c.335-.487,1.276-2.049,1.124-2.967" transform="translate(-172.439 -132.437)" fill="#ff6485"/>
          <path id="Trazado_699997" data-name="Trazado 699997" d="M497.742,385.056a4.912,4.912,0,0,1,1.527-.97,18.031,18.031,0,0,0,2.862-1.309,1.511,1.511,0,0,0-.554-.844c-.948-.742-2.024-1.3-2.666-.907a4.719,4.719,0,0,0-1.225,1.993,4.333,4.333,0,0,0-.16.556c.01.206.02.413.038.618a5.61,5.61,0,0,0,.178.863" transform="translate(-171.567 -131.349)" fill="#feb51c"/>
          <path id="Trazado_699998" data-name="Trazado 699998" d="M497.569,386.957a16.488,16.488,0,0,1,3.1-1.632c.478-.2,1.052-.335,1.3-.823a1.1,1.1,0,0,0,.1-.736,18.071,18.071,0,0,1-2.862,1.31,4.9,4.9,0,0,0-1.526.969,5.668,5.668,0,0,1-.178-.862c-.018-.206-.028-.412-.038-.618a4.781,4.781,0,0,0,.1,2.393" transform="translate(-171.51 -132.338)" fill="#f4a00b"/>
          <path id="Trazado_699999" data-name="Trazado 699999" d="M545.944,411.093c-.7.1-1.923.675-2.292-.351-.039-.106-.216-.131-.242,0a.772.772,0,0,0,.064.509,1.022,1.022,0,0,1-.827-.028,1.725,1.725,0,0,1-.551-.618.049.049,0,0,0-.089.011c-.246.892,1.089,1.449,1.728.978a.293.293,0,0,0,.022-.02c.653.469,1.986.387,2.3-.337a.1.1,0,0,0-.11-.143" transform="translate(-186.895 -141.585)" fill="#ddc6c3"/>
          <path id="Trazado_700000" data-name="Trazado 700000" d="M518.31,413.941a1.107,1.107,0,0,1-.744-1.107,3.248,3.248,0,0,1,.345-1.2.1.1,0,0,0-.12-.12,1.106,1.106,0,0,0-.7.856,2.03,2.03,0,0,1-.384-.674,3.1,3.1,0,0,1,.117-1.359.053.053,0,0,0-.077-.06,1.585,1.585,0,0,0,.285,2.591c0,.808.424,1.628,1.229,1.417a.188.188,0,0,0,.045-.339" transform="translate(-178.007 -141.475)" fill="#ddc6c3"/>
          <path id="Trazado_700001" data-name="Trazado 700001" d="M523.3,405.753c-.48-.295-1.08-.259-1.448-.747a4.859,4.859,0,0,1-.524-1.7.038.038,0,0,0-.068-.009,1.637,1.637,0,0,0-.163,1.111,3.02,3.02,0,0,1-.729-.379,1.636,1.636,0,0,1-.423-1.3c.011-.167-.216-.168-.269-.037a1.574,1.574,0,0,0,.3,1.646c.263.3.816.67,1.218.477a2.045,2.045,0,0,0,.271.546,1.738,1.738,0,0,0,1.8.634.132.132,0,0,0,.031-.237" transform="translate(-179.166 -138.83)" fill="#ddc6c3"/>
          <path id="Trazado_700002" data-name="Trazado 700002" d="M538.256,413.424c-.48-.295-1.08-.259-1.448-.748a4.863,4.863,0,0,1-.524-1.7.038.038,0,0,0-.068-.009,1.637,1.637,0,0,0-.162,1.111,3.011,3.011,0,0,1-.729-.38,1.631,1.631,0,0,1-.422-1.3c.01-.167-.216-.168-.269-.037a1.574,1.574,0,0,0,.3,1.646c.263.3.816.67,1.218.477a2.043,2.043,0,0,0,.271.546,1.738,1.738,0,0,0,1.8.634.131.131,0,0,0,.031-.237" transform="translate(-184.324 -141.475)" fill="#ddc6c3"/>
          <path id="Trazado_700003" data-name="Trazado 700003" d="M546.554,416.116a1.984,1.984,0,0,1-1.258.566,1.326,1.326,0,0,1-1.164-.838.094.094,0,0,0-.17.022c-.189.655.572,1.124,1.122,1.223a1.462,1.462,0,0,0,1.66-.827.131.131,0,0,0-.191-.147" transform="translate(-187.57 -143.384)" fill="#ddc6c3"/>
          <path id="Trazado_700004" data-name="Trazado 700004" d="M539.1,408.322a.893.893,0,0,1-.863-.219,3.534,3.534,0,0,1-.529-.809c-.049-.077-.194-.077-.212.028a1.385,1.385,0,0,0,.661,1.254c.29.206.981.409,1.109-.089a.137.137,0,0,0-.166-.166" transform="translate(-185.344 -140.433)" fill="#ddc6c3"/>
          <path id="Trazado_700005" data-name="Trazado 700005" d="M516.789,406.449a2.063,2.063,0,0,1-.883-.531,1.486,1.486,0,0,1-.239-1.134c.011-.132-.176-.166-.238-.064-.526.862.32,2.265,1.359,1.966a.124.124,0,0,0,0-.237" transform="translate(-177.685 -139.543)" fill="#ddc6c3"/>
          <path id="Trazado_700006" data-name="Trazado 700006" d="M510.173,406.137a3.449,3.449,0,0,1-.936-.744,2,2,0,0,1-.356-1.35.064.064,0,0,0-.117-.032,1.639,1.639,0,0,0,.015,1.5c-.721.623.1,2.2,1.029,1.948a.126.126,0,0,0,.03-.229c-.28-.184-.6-.292-.778-.6a1.238,1.238,0,0,1-.093-.824,1.287,1.287,0,0,0,1.149.54.115.115,0,0,0,.058-.212" transform="translate(-175.353 -139.309)" fill="#ddc6c3"/>
          <path id="Trazado_700007" data-name="Trazado 700007" d="M512.813,402.424a.428.428,0,0,0-.332-.091,1.24,1.24,0,0,1-.535-.121c-.32-.155-.457-.44-.707-.662-.015-.013-.046-.015-.055.007-.156.368.2.789.478.983.25.171,1,.457,1.172.052a.144.144,0,0,0-.022-.168" transform="translate(-176.263 -138.467)" fill="#ddc6c3"/>
          <path id="Trazado_700008" data-name="Trazado 700008" d="M505.963,403.32c-.208-.233-.5-.322-.611-.642s.062-.6-.014-.888a.086.086,0,0,0-.1-.058c-.451.086-.45.828-.326,1.154.143.381.533.817.979.717a.171.171,0,0,0,.075-.283" transform="translate(-174.088 -138.532)" fill="#ddc6c3"/>
          <path id="Trazado_700009" data-name="Trazado 700009" d="M550.651,402.913a7.254,7.254,0,0,0-4.434-1.973c-2.539-1.646-6.664-1.956-9.214-.431a.144.144,0,0,0,.111.263,17.634,17.634,0,0,1,4.87-.629,12.612,12.612,0,0,1,3.212.745,8.545,8.545,0,0,0-1.9.214.072.072,0,0,0,.019.141,13.8,13.8,0,0,1,7.248,1.783.072.072,0,0,0,.087-.113" transform="translate(-185.156 -137.77)" fill="#ddc6c3"/>
          <path id="Trazado_700010" data-name="Trazado 700010" d="M556.677,397.381a.066.066,0,0,0-.1.039,3.234,3.234,0,0,0-.039.446.971.971,0,0,1-.288.547c-.24.235-.581.321-.839.531a.094.094,0,0,0,.041.155,1.2,1.2,0,0,0,1.22-.539c.2-.282.414-.974,0-1.179" transform="translate(-191.52 -137.03)" fill="#ddc6c3"/>
          <path id="Trazado_700011" data-name="Trazado 700011" d="M554.541,397.794a.066.066,0,0,0-.1.073,3.021,3.021,0,0,1,.045,1.027,1.158,1.158,0,0,1-.477.776.122.122,0,0,0,.053.2c.993.268,1.139-1.7.474-2.078" transform="translate(-191.034 -137.173)" fill="#ddc6c3"/>
          <path id="Trazado_700012" data-name="Trazado 700012" d="M540.629,390.851a.1.1,0,0,0-.15.086c.023.391.216.709.12,1.117a2.3,2.3,0,0,1-.487.78,1.649,1.649,0,0,0-.664-.918.052.052,0,0,0-.077.045c-.043.43.32.793.411,1.2.083.375-.235.635-.151,1a.166.166,0,0,0,.3.039,1.386,1.386,0,0,0,.29-1.012c.01,0,.018,0,.028,0,.877-.167,1.231-1.943.379-2.343" transform="translate(-185.996 -134.778)" fill="#ddc6c3"/>
          <path id="Trazado_700013" data-name="Trazado 700013" d="M546.181,393.818a.066.066,0,0,0-.119.016,2.34,2.34,0,0,1-.446.9,1.275,1.275,0,0,1-.436.284c-.147.056-.271.056-.386.172a.2.2,0,0,0,.04.307c.376.229.909-.208,1.131-.493a1.131,1.131,0,0,0,.216-1.185" transform="translate(-187.848 -135.793)" fill="#ddc6c3"/>
          <path id="Trazado_700014" data-name="Trazado 700014" d="M533.613,396.521a1.785,1.785,0,0,1-.529.885c-.252.214-.6.219-.839.425a.147.147,0,0,0,.029.229c.364.208.868-.147,1.119-.4a1.423,1.423,0,0,0,.421-1.137c-.017-.109-.172-.089-.2,0" transform="translate(-183.525 -136.711)" fill="#ddc6c3"/>
          <path id="Trazado_700015" data-name="Trazado 700015" d="M514.417,394.575c-.377-.1-.718-.007-1.022-.326a1.449,1.449,0,0,1-.3-1.081c0-.078-.111-.137-.166-.069a1.039,1.039,0,0,0-.156.944.869.869,0,0,1-.567-.2c-.22-.193-.25-.459-.423-.67a.051.051,0,0,0-.08.01c-.235.317.09.854.347,1.059a1.157,1.157,0,0,0,.944.249c.008.01.014.021.021.03.295.361,1.009.725,1.446.408a.2.2,0,0,0-.046-.352" transform="translate(-176.428 -135.546)" fill="#ddc6c3"/>
          <path id="Trazado_700016" data-name="Trazado 700016" d="M515.734,388.662a2.82,2.82,0,0,1-.8-.039,1.558,1.558,0,0,1-.7-.477.059.059,0,0,0-.1.041c.06.715,1.174,1.2,1.671.641a.1.1,0,0,0-.069-.166" transform="translate(-177.293 -133.843)" fill="#ddc6c3"/>
          <path id="Trazado_700017" data-name="Trazado 700017" d="M524.624,394.357a3.782,3.782,0,0,1-.75.512,1.187,1.187,0,0,1-1.016-.126.066.066,0,0,0-.089.088.966.966,0,0,0,1.046.438,1.209,1.209,0,0,0,.969-.789.11.11,0,0,0-.16-.123" transform="translate(-180.269 -135.984)" fill="#ddc6c3"/>
          <path id="Trazado_700018" data-name="Trazado 700018" d="M508.09,371.441c-.3-1.172-1.615-1.981-2.528-1.386-.78-.685-1.9-1.134-2.634.216-1.258-.155-2.395,2.389-.41,3.019a12.88,12.88,0,0,1,5.114-1.247.481.481,0,0,0,.458-.6" transform="translate(-172.917 -127.383)" fill="#ff6485"/>
          <path id="Trazado_700019" data-name="Trazado 700019" d="M429.5,283.661l-11.989,6.922c-4.107,2.372-7.448,8.745-7.448,14.206V342.6h.016c.022.076.132.138.281.138s.3-.071.3-.158V304.789c0-5.272,3.208-11.414,7.152-13.692l12-6.93q-.157-.253-.311-.506" transform="translate(-141.407 -97.818)" fill="#ffebeb"/>
          <path id="Trazado_700020" data-name="Trazado 700020" d="M470.834,306.633,458.1,313.985c-4.107,2.372-7.448,8.744-7.448,14.205V366h.016c.022.076.132.138.281.138.164,0,.3-.071.3-.158V328.19c0-5.272,3.208-11.414,7.152-13.691l12.685-7.324c-.085-.18-.165-.362-.248-.542" transform="translate(-155.403 -105.739)" fill="#ffebeb"/>
          <path id="Trazado_700021" data-name="Trazado 700021" d="M510.417,331.47l-11.726,6.77c-4.107,2.372-7.448,8.744-7.448,14.205v37.813h.016c.022.076.132.138.281.138.164,0,.3-.071.3-.158V352.445c0-5.272,3.208-11.414,7.152-13.691l11.7-6.757c-.094-.174-.185-.35-.275-.527" transform="translate(-169.4 -114.304)" fill="#ffebeb"/>
          <path id="Trazado_700022" data-name="Trazado 700022" d="M551.447,354.709l-12.166,7.025c-4.107,2.372-7.448,8.744-7.448,14.205v37.812h.016c.022.076.132.138.28.138.164,0,.3-.071.3-.158V375.939c0-5.272,3.208-11.414,7.151-13.692l12.044-6.953c-.057-.2-.117-.39-.174-.585" transform="translate(-183.397 -122.318)" fill="#ffebeb"/>
          <rect id="Rectángulo_340112" data-name="Rectángulo 340112" width="0.628" height="92.224" transform="matrix(0.501, -0.865, 0.865, 0.501, 268.628, 230.181)" fill="#ffebeb"/>
          <rect id="Rectángulo_340113" data-name="Rectángulo 340113" width="0.628" height="92.224" transform="matrix(0.501, -0.865, 0.865, 0.501, 268.628, 209.356)" fill="#ffebeb"/>
          <rect id="Rectángulo_340114" data-name="Rectángulo 340114" width="0.628" height="92.224" transform="translate(278.156 192.267) rotate(-59.916)" fill="#ffebeb"/>
          <rect id="Rectángulo_340115" data-name="Rectángulo 340115" width="0.627" height="92.225" transform="matrix(0.501, -0.865, 0.865, 0.501, 288.613, 186.351)" fill="#ffebeb"/>
        </g>
      </g>
    </g>
  </g>
</svg>
