<svg xmlns="http://www.w3.org/2000/svg" width="1030" height="508" viewBox="0 0 1030 508">
  <g id="Grupo_974681" data-name="Grupo 974681" transform="translate(-285 -1347)">
    <rect id="Rectángulo_340168" data-name="Rectángulo 340168" width="1030" height="508" rx="25" transform="translate(285 1347)" fill="#fff1e1"/>
    <path id="Trazado_704051" data-name="Trazado 704051" d="M57.812,12.658V17H54.727V4.2h5.106a5.948,5.948,0,0,1,2.6.541,4.074,4.074,0,0,1,1.749,1.538,4.2,4.2,0,0,1,.62,2.263,3.7,3.7,0,0,1-1.34,2.993,5.561,5.561,0,0,1-3.678,1.121Zm0-2.382h2.021A1.906,1.906,0,0,0,61.2,9.828a1.665,1.665,0,0,0,.47-1.266,2.059,2.059,0,0,0-.483-1.433,1.712,1.712,0,0,0-1.318-.545H57.812Zm14.247-.105-.976-.07a1.752,1.752,0,0,0-1.793.879V17H66.328V7.49h2.777l.1,1.222a2.294,2.294,0,0,1,2.083-1.4,2.888,2.888,0,0,1,.826.105Zm5.5,7a4.889,4.889,0,0,1-3.542-1.305,4.507,4.507,0,0,1-1.354-3.4v-.246a5.84,5.84,0,0,1,.541-2.575,3.955,3.955,0,0,1,1.578-1.727,4.763,4.763,0,0,1,2.461-.611,4.117,4.117,0,0,1,3.164,1.244,4.887,4.887,0,0,1,1.16,3.467v1.151H75.68a2.135,2.135,0,0,0,.694,1.257,2.066,2.066,0,0,0,1.389.457,2.662,2.662,0,0,0,2.2-.984l1.354,1.6a3.784,3.784,0,0,1-1.569,1.217A5.3,5.3,0,0,1,77.561,17.176ZM77.227,9.6q-1.3,0-1.547,1.723h2.988v-.229a1.467,1.467,0,0,0-.36-1.1A1.434,1.434,0,0,0,77.227,9.6Zm9.554,5.291a1.317,1.317,0,0,0,.967-.338,1.241,1.241,0,0,0,.334-.945h2.777a3.288,3.288,0,0,1-1.121,2.566,4.168,4.168,0,0,1-2.887,1,4.22,4.22,0,0,1-3.27-1.3,5.125,5.125,0,0,1-1.2-3.6v-.123A5.792,5.792,0,0,1,82.918,9.6a3.872,3.872,0,0,1,1.534-1.7,4.573,4.573,0,0,1,2.373-.593,4.116,4.116,0,0,1,2.944,1.028,3.647,3.647,0,0,1,1.09,2.786H88.081A1.626,1.626,0,0,0,87.721,10a1.244,1.244,0,0,0-.967-.4q-1.151,0-1.345,1.468a10.357,10.357,0,0,0-.062,1.283,4.068,4.068,0,0,0,.343,1.986A1.187,1.187,0,0,0,86.78,14.891ZM95.235,17H92.265V7.49h2.971ZM92.089,5.038A1.322,1.322,0,0,1,92.546,4a1.943,1.943,0,0,1,2.373,0,1.322,1.322,0,0,1,.457,1.037,1.322,1.322,0,0,1-.457,1.037,1.943,1.943,0,0,1-2.373,0A1.322,1.322,0,0,1,92.089,5.038Zm4.6,7.119a5.613,5.613,0,0,1,.554-2.536A3.96,3.96,0,0,1,98.83,7.912a4.791,4.791,0,0,1,2.435-.6,4.373,4.373,0,0,1,3.366,1.323,5.076,5.076,0,0,1,1.23,3.6v.105a4.925,4.925,0,0,1-1.235,3.529,4.384,4.384,0,0,1-3.344,1.305,4.434,4.434,0,0,1-3.261-1.217,4.761,4.761,0,0,1-1.327-3.3Zm2.962.185a3.538,3.538,0,0,0,.413,1.934,1.376,1.376,0,0,0,1.222.615q1.582,0,1.617-2.435v-.3q0-2.558-1.635-2.558-1.485,0-1.608,2.206ZM68.9,31.8a13.431,13.431,0,0,1,.571-3.99,9.629,9.629,0,0,1,1.578-3.129,5.6,5.6,0,0,1,2.237-1.793l.563,1.459a5.73,5.73,0,0,0-1.9,2.826,13.782,13.782,0,0,0-.681,4.5v.387a14.051,14.051,0,0,0,.672,4.588A5.706,5.706,0,0,0,73.847,39.5l-.562,1.459a5.547,5.547,0,0,1-2.237-1.8,9.484,9.484,0,0,1-1.578-3.116,13.5,13.5,0,0,1-.571-3.85Zm9.352.861V37H75.166V24.2h5.106a5.948,5.948,0,0,1,2.6.541,4.074,4.074,0,0,1,1.749,1.538,4.2,4.2,0,0,1,.62,2.263,3.7,3.7,0,0,1-1.34,2.993,5.561,5.561,0,0,1-3.678,1.121Zm0-2.382h2.021a1.906,1.906,0,0,0,1.367-.448,1.665,1.665,0,0,0,.47-1.266,2.059,2.059,0,0,0-.483-1.433,1.712,1.712,0,0,0-1.318-.545H78.251Zm13.166,1.767a12.532,12.532,0,0,1-.606,3.92,10.008,10.008,0,0,1-1.674,3.186,5.574,5.574,0,0,1-2.307,1.806L86.266,39.5a5.787,5.787,0,0,0,1.89-2.812,13.577,13.577,0,0,0,.694-4.368v-.536a14.051,14.051,0,0,0-.672-4.588,5.706,5.706,0,0,0-1.912-2.848l.563-1.459a5.676,5.676,0,0,1,2.29,1.789,9.885,9.885,0,0,1,1.67,3.138,12.426,12.426,0,0,1,.628,3.845Z" transform="translate(495 1361)"/>
    <path id="Trazado_704056" data-name="Trazado 704056" d="M40.343,12.667a4.673,4.673,0,0,1-.721,2.36,4.35,4.35,0,0,1-1.85,1.586,6.3,6.3,0,0,1-2.72.563,5.025,5.025,0,0,1-3.973-1.644,6.786,6.786,0,0,1-1.45-4.641v-.633a7.746,7.746,0,0,1,.655-3.292,4.961,4.961,0,0,1,1.885-2.18,5.26,5.26,0,0,1,2.848-.769,5.516,5.516,0,0,1,3.744,1.226A4.844,4.844,0,0,1,40.37,8.624H37.293A2.292,2.292,0,0,0,36.7,6.945a2.422,2.422,0,0,0-1.687-.51A1.843,1.843,0,0,0,33.33,7.3a5.536,5.536,0,0,0-.562,2.751v.905a6.126,6.126,0,0,0,.514,2.927,1.882,1.882,0,0,0,1.771.879,2.369,2.369,0,0,0,1.626-.5,2.126,2.126,0,0,0,.6-1.591ZM47.023,17a3.344,3.344,0,0,1-.281-.853,2.754,2.754,0,0,1-2.285,1.028,3.374,3.374,0,0,1-2.285-.813,2.588,2.588,0,0,1-.94-2.043,2.66,2.66,0,0,1,1.143-2.338A5.821,5.821,0,0,1,45.7,11.19h.914v-.5q0-1.316-1.134-1.316a.927.927,0,0,0-1.055,1.042H41.46a2.655,2.655,0,0,1,1.173-2.239,4.931,4.931,0,0,1,2.993-.86A4.323,4.323,0,0,1,48.5,8.2a3.086,3.086,0,0,1,1.081,2.435v4.21a4.311,4.311,0,0,0,.4,2V17Zm-1.854-1.934a1.652,1.652,0,0,0,.918-.237,1.487,1.487,0,0,0,.523-.536V12.772h-.861q-1.547,0-1.547,1.389a.848.848,0,0,0,.272.655A.986.986,0,0,0,45.168,15.066ZM53.94,7.49l.1,1.116a3.225,3.225,0,0,1,2.716-1.292,2.713,2.713,0,0,1,2.219.888,4.226,4.226,0,0,1,.76,2.672V17H56.761V11a1.6,1.6,0,0,0-.29-1.059A1.342,1.342,0,0,0,55.417,9.6a1.413,1.413,0,0,0-1.292.686V17H51.163V7.49ZM64.821,5.126V7.49h1.564V9.547H64.821V13.9a1.111,1.111,0,0,0,.193.747,1.037,1.037,0,0,0,.765.211,4.345,4.345,0,0,0,.738-.053v2.118a5.466,5.466,0,0,1-1.67.255,3.1,3.1,0,0,1-2.259-.721,2.954,2.954,0,0,1-.729-2.188V9.547H60.646V7.49h1.213V5.126ZM70.674,17H67.7V7.49h2.971ZM67.528,5.038A1.322,1.322,0,0,1,67.985,4a1.943,1.943,0,0,1,2.373,0,1.322,1.322,0,0,1,.457,1.037,1.322,1.322,0,0,1-.457,1.037,1.943,1.943,0,0,1-2.373,0A1.322,1.322,0,0,1,67.528,5.038Zm4.6,7.137a5.809,5.809,0,0,1,.976-3.56,3.211,3.211,0,0,1,2.725-1.3,2.731,2.731,0,0,1,2.145,1V3.5H80.94V17H78.277l-.149-1.02a2.8,2.8,0,0,1-2.32,1.2,3.205,3.205,0,0,1-2.689-1.3A5.993,5.993,0,0,1,72.125,12.175Zm2.962.185q0,2.531,1.477,2.531a1.458,1.458,0,0,0,1.406-.826V10.443A1.419,1.419,0,0,0,76.581,9.6q-1.371,0-1.485,2.215ZM87.98,17a3.344,3.344,0,0,1-.281-.853,2.754,2.754,0,0,1-2.285,1.028,3.374,3.374,0,0,1-2.285-.813,2.588,2.588,0,0,1-.94-2.043,2.66,2.66,0,0,1,1.143-2.338,5.821,5.821,0,0,1,3.322-.791h.914v-.5q0-1.316-1.134-1.316a.927.927,0,0,0-1.055,1.042H82.417A2.655,2.655,0,0,1,83.59,8.175a4.931,4.931,0,0,1,2.993-.86,4.323,4.323,0,0,1,2.874.888,3.086,3.086,0,0,1,1.081,2.435v4.21a4.311,4.311,0,0,0,.4,2V17Zm-1.854-1.934a1.652,1.652,0,0,0,.918-.237,1.487,1.487,0,0,0,.523-.536V12.772h-.861q-1.547,0-1.547,1.389a.848.848,0,0,0,.272.655A.986.986,0,0,0,86.126,15.066ZM91.8,12.175a5.809,5.809,0,0,1,.976-3.56,3.211,3.211,0,0,1,2.725-1.3,2.731,2.731,0,0,1,2.145,1V3.5h2.971V17H97.956l-.149-1.02a2.8,2.8,0,0,1-2.32,1.2,3.205,3.205,0,0,1-2.689-1.3A5.993,5.993,0,0,1,91.8,12.175Zm2.962.185q0,2.531,1.477,2.531a1.458,1.458,0,0,0,1.406-.826V10.443A1.419,1.419,0,0,0,96.259,9.6q-1.371,0-1.485,2.215Zm12.243-.562a13.431,13.431,0,0,1,.571-3.99,9.629,9.629,0,0,1,1.578-3.129,5.6,5.6,0,0,1,2.237-1.793l.563,1.459a5.73,5.73,0,0,0-1.9,2.826,13.782,13.782,0,0,0-.681,4.5v.387a14.051,14.051,0,0,0,.672,4.588,5.706,5.706,0,0,0,1.912,2.848l-.562,1.459a5.547,5.547,0,0,1-2.237-1.8,9.484,9.484,0,0,1-1.578-3.116,13.5,13.5,0,0,1-.571-3.85Zm17.121-.932a7.562,7.562,0,0,1-.589,3.1,5.385,5.385,0,0,1-1.626,2.123l2.065,1.635-1.907,1.617-2.751-2.215a5.718,5.718,0,0,1-.773.053,5.547,5.547,0,0,1-2.9-.756,5.141,5.141,0,0,1-1.973-2.162,7.343,7.343,0,0,1-.734-3.234v-.677a7.572,7.572,0,0,1,.69-3.322A5.142,5.142,0,0,1,115.6,4.81a5.854,5.854,0,0,1,5.832-.009A5.211,5.211,0,0,1,123.413,7a7.362,7.362,0,0,1,.716,3.274Zm-3.138-.536a5.381,5.381,0,0,0-.637-2.9,2.2,2.2,0,0,0-3.661-.013,5.451,5.451,0,0,0-.624,2.856v.589a5.531,5.531,0,0,0,.624,2.9,2.043,2.043,0,0,0,1.854,1.006,2.014,2.014,0,0,0,1.806-.993,5.414,5.414,0,0,0,.637-2.856Zm9.246,1.714a12.532,12.532,0,0,1-.606,3.92,10.008,10.008,0,0,1-1.674,3.186,5.574,5.574,0,0,1-2.307,1.806l-.562-1.459a5.787,5.787,0,0,0,1.89-2.812,13.577,13.577,0,0,0,.694-4.368v-.536A14.051,14.051,0,0,0,127,7.191a5.706,5.706,0,0,0-1.912-2.848l.563-1.459a5.676,5.676,0,0,1,2.29,1.789,9.885,9.885,0,0,1,1.67,3.138,12.426,12.426,0,0,1,.628,3.845Z" transform="translate(902.546 1776.029)"/>
    <path id="Trazado_700106" data-name="Trazado 700106" d="M-1436.963-10848.066v360.21h377.586" transform="translate(2061.944 12251.884)" fill="none" stroke="#000" stroke-width="4"/>
    <g id="Grupo_974119" data-name="Grupo 974119" transform="translate(624.982 1642.415)">
      <path id="Trazado_700107" data-name="Trazado 700107" d="M-1436.963-10742.687h13.9" transform="translate(1436.963 10742.687)" fill="none" stroke="#707070" stroke-linecap="square" stroke-width="2"/>
      <path id="Trazado_700120" data-name="Trazado 700120" d="M-1436.963-10742.687h13.9" transform="translate(1523.826 10742.687)" fill="none" stroke="#707070" stroke-linecap="square" stroke-width="2"/>
      <path id="Trazado_700112" data-name="Trazado 700112" d="M-1436.963-10742.687h13.9" transform="translate(1481.314 10742.687)" fill="none" stroke="#707070" stroke-linecap="square" stroke-width="2"/>
      <path id="Trazado_700115" data-name="Trazado 700115" d="M-1436.963-10742.687h13.9" transform="translate(1561.385 10742.687)" fill="none" stroke="#707070" stroke-linecap="square" stroke-width="2"/>
      <path id="Trazado_700110" data-name="Trazado 700110" d="M-1436.963-10742.687h13.9" transform="translate(1459.022 10742.687)" fill="none" stroke="#707070" stroke-linecap="square" stroke-width="2"/>
      <path id="Trazado_700119" data-name="Trazado 700119" d="M-1436.963-10742.687h13.9" transform="translate(1542.667 10742.687)" fill="none" stroke="#707070" stroke-linecap="square" stroke-width="2"/>
      <path id="Trazado_700116" data-name="Trazado 700116" d="M-1436.963-10742.687h13.9" transform="translate(1582.793 10742.687)" fill="none" stroke="#707070" stroke-linecap="square" stroke-width="2"/>
      <path id="Trazado_700111" data-name="Trazado 700111" d="M-1436.963-10742.687h4.545" transform="translate(1467.427 10742.687)" fill="none" stroke="#707070" stroke-linecap="square" stroke-width="2"/>
      <path id="Trazado_700114" data-name="Trazado 700114" d="M-1436.963-10742.687h13.9" transform="translate(1502.721 10742.687)" fill="none" stroke="#707070" stroke-linecap="square" stroke-width="2"/>
      <path id="Trazado_700117" data-name="Trazado 700117" d="M-1436.963-10742.687h13.9" transform="translate(1603.17 10742.687)" fill="none" stroke="#707070" stroke-linecap="square" stroke-width="2"/>
    </g>
    <g id="Grupo_974120" data-name="Grupo 974120" transform="translate(807.16 1764.03) rotate(-90)">
      <path id="Trazado_700107-2" data-name="Trazado 700107" d="M0,0H13.9" transform="translate(0 0)" fill="none" stroke="#707070" stroke-linecap="square" stroke-width="2"/>
      <path id="Trazado_700120-2" data-name="Trazado 700120" d="M0,0H13.9" transform="translate(59.174 0)" fill="none" stroke="#707070" stroke-linecap="square" stroke-width="2"/>
      <path id="Trazado_700112-2" data-name="Trazado 700112" d="M0,0H13.9" transform="translate(19.686 0)" fill="none" stroke="#707070" stroke-linecap="square" stroke-width="2"/>
      <path id="Trazado_700115-2" data-name="Trazado 700115" d="M0,0H13.9" transform="translate(94.764 0)" fill="none" stroke="#707070" stroke-linecap="square" stroke-width="2"/>
      <path id="Trazado_700113" data-name="Trazado 700113" d="M0,0H13.9" transform="translate(39.486 0)" fill="none" stroke="#707070" stroke-linecap="square" stroke-width="2"/>
      <path id="Trazado_700116-2" data-name="Trazado 700116" d="M0,0H8.748" transform="translate(78.86 0)" fill="none" stroke="#707070" stroke-linecap="square" stroke-width="2"/>
      <path id="Trazado_700117-2" data-name="Trazado 700117" d="M0,0H8.346" transform="translate(113.268 0)" fill="none" stroke="#707070" stroke-linecap="square" stroke-width="2"/>
    </g>
    <path id="Trazado_700108" data-name="Trazado 700108" d="M-1420.081-10833.744s103.083,268.711,330.1,304.617" transform="translate(2083.284 12269.991)" fill="none" stroke="#b20d0d" stroke-width="4"/>
    <path id="Trazado_700109" data-name="Trazado 700109" d="M-1423.662-10528.48s214.274-84.551,299.983-305.774" transform="translate(2078.758 12269.346)" fill="none" stroke="#06d1d1" stroke-width="4"/>
    <path id="Trazado_704052" data-name="Trazado 704052" d="M-2.509-6.03V0H-6.793V-17.773H.3a8.261,8.261,0,0,1,3.607.751,5.658,5.658,0,0,1,2.429,2.136A5.834,5.834,0,0,1,7.2-11.743,5.143,5.143,0,0,1,5.334-7.587,7.724,7.724,0,0,1,.226-6.03Zm0-3.308H.3a2.648,2.648,0,0,0,1.9-.623,2.313,2.313,0,0,0,.653-1.758,2.859,2.859,0,0,0-.671-1.99,2.377,2.377,0,0,0-1.831-.757H-2.509Z" transform="translate(605.726 1649.856)"/>
    <path id="Trazado_704055" data-name="Trazado 704055" d="M7.477-8.18a10.083,10.083,0,0,1-.785,4.131,7.18,7.18,0,0,1-2.168,2.83L7.277.961,4.734,3.117,1.066.164A7.624,7.624,0,0,1,.035.234,7.4,7.4,0,0,1-3.832-.773,6.854,6.854,0,0,1-6.463-3.656a9.791,9.791,0,0,1-.979-4.312v-.9a10.1,10.1,0,0,1,.92-4.43A6.856,6.856,0,0,1-3.9-16.254,7.338,7.338,0,0,1,.012-17.3a7.3,7.3,0,0,1,3.867,1.031A6.948,6.948,0,0,1,6.521-13.33a9.816,9.816,0,0,1,.955,4.365ZM3.293-8.895a7.175,7.175,0,0,0-.85-3.861A2.725,2.725,0,0,0,.012-14.074a2.707,2.707,0,0,0-2.449,1.3A7.268,7.268,0,0,0-3.27-8.965v.785a7.374,7.374,0,0,0,.832,3.861A2.724,2.724,0,0,0,.035-2.977,2.685,2.685,0,0,0,2.443-4.3a7.219,7.219,0,0,0,.85-3.809Z" transform="translate(811.763 1791.497)"/>
    <path id="Trazado_704053" data-name="Trazado 704053" d="M-6.738,0V-17.773h5.725a8.422,8.422,0,0,1,4.236,1.068A7.508,7.508,0,0,1,6.158-13.69,9.1,9.1,0,0,1,7.227-9.326v.818A9.156,9.156,0,0,1,6.2-4.132,7.54,7.54,0,0,1,3.29-1.1,8.236,8.236,0,0,1-.891,0Zm4.285-14.465V-3.3H-.964A3.333,3.333,0,0,0,1.868-4.608a6.431,6.431,0,0,0,.989-3.9v-.769a6.378,6.378,0,0,0-.989-3.882,3.391,3.391,0,0,0-2.881-1.306Z" transform="translate(662.33 1427.97)"/>
    <path id="Trazado_704054" data-name="Trazado 704054" d="M7.453-8.18a10.062,10.062,0,0,1-.926,4.418A6.842,6.842,0,0,1,3.9-.8,7.326,7.326,0,0,1,.012.234a7.429,7.429,0,0,1-3.867-1A6.831,6.831,0,0,1-6.486-3.633a9.772,9.772,0,0,1-.99-4.277v-.961a10.106,10.106,0,0,1,.92-4.424A6.825,6.825,0,0,1-3.92-16.254,7.377,7.377,0,0,1-.012-17.3a7.3,7.3,0,0,1,3.867,1.031A6.948,6.948,0,0,1,6.5-13.33a9.816,9.816,0,0,1,.955,4.365ZM3.27-8.895a7.175,7.175,0,0,0-.85-3.861A2.725,2.725,0,0,0-.012-14.074q-3.094,0-3.27,4.641L-3.293-8.18a7.379,7.379,0,0,0,.832,3.855A2.721,2.721,0,0,0,.012-2.977,2.688,2.688,0,0,0,2.414-4.3,7.178,7.178,0,0,0,3.27-8.109Z" transform="translate(963.461 1431.499)"/>
    <g id="Polígono_155" data-name="Polígono 155" transform="translate(614.641 1392.889)">
      <path d="M 21.13277816772461 18.5 L 0.8672215938568115 18.5 L 11 0.9979282021522522 L 21.13277816772461 18.5 Z" stroke="none"/>
      <path d="M 11 1.995874404907227 L 1.734453201293945 18 L 20.26554679870605 18 L 11 1.995874404907227 M 11 0 L 22 19 L 0 19 L 11 0 Z" stroke="none" fill="#707070"/>
    </g>
    <g id="Polígono_156" data-name="Polígono 156" transform="translate(1021.567 1753.027) rotate(90)">
      <path d="M 21.13277816772461 18.5 L 0.8672215938568115 18.5 L 11 0.9979282021522522 L 21.13277816772461 18.5 Z" stroke="none"/>
      <path d="M 11 1.995874404907227 L 1.734453201293945 18 L 20.26554679870605 18 L 11 1.995874404907227 M 11 0 L 22 19 L 0 19 L 11 0 Z" stroke="none" fill="#707070"/>
    </g>
    <path id="Trazado_704057" data-name="Trazado 704057" d="M7.274,0H6.119l-3.3-7.173L1.574,0H.375L1.98-9.242H3.136l3.307,7.2,1.25-7.2H8.88Zm5.789-7a2.476,2.476,0,0,1,1.479.47,2.669,2.669,0,0,1,.911,1.26,3.9,3.9,0,0,1,.2,1.755l-.013.14a4.619,4.619,0,0,1-.6,1.812A3.5,3.5,0,0,1,13.813-.3a3,3,0,0,1-1.657.425,2.48,2.48,0,0,1-1.476-.47,2.608,2.608,0,0,1-.9-1.244,4.006,4.006,0,0,1-.2-1.733,4.68,4.68,0,0,1,.578-1.917,3.582,3.582,0,0,1,1.241-1.317A2.967,2.967,0,0,1,13.063-7ZM10.728-3.313a3.9,3.9,0,0,0,0,.832,2.037,2.037,0,0,0,.448,1.193A1.343,1.343,0,0,0,12.2-.825a1.83,1.83,0,0,0,1.054-.282,2.372,2.372,0,0,0,.813-.911,3.836,3.836,0,0,0,.425-1.352,6.089,6.089,0,0,0,.019-.984,2.114,2.114,0,0,0-.463-1.212,1.373,1.373,0,0,0-1.028-.47,1.872,1.872,0,0,0-1.511.7,3.449,3.449,0,0,0-.768,1.879Zm8.811-5.218-.292,1.663H20.5l-.159.908H19.094l-.717,4.272a1.489,1.489,0,0,0-.006.3.484.484,0,0,0,.54.5,3.291,3.291,0,0,0,.559-.063l-.089.958a3.126,3.126,0,0,1-.838.114,1.2,1.2,0,0,1-1.028-.5,1.952,1.952,0,0,1-.267-1.323l.7-4.253H16.732l.159-.908H18.1L18.4-8.531ZM24.889,0a1.538,1.538,0,0,1-.044-.362l.019-.362a2.816,2.816,0,0,1-2.006.851,2.052,2.052,0,0,1-1.476-.574,1.739,1.739,0,0,1-.517-1.406,2.114,2.114,0,0,1,.955-1.7,4.067,4.067,0,0,1,2.345-.613l1.2.006.076-.546a1.255,1.255,0,0,0-.238-.974,1.149,1.149,0,0,0-.9-.371,1.772,1.772,0,0,0-1.044.289,1.229,1.229,0,0,0-.555.8l-1.155.006a1.841,1.841,0,0,1,.47-1.07,2.733,2.733,0,0,1,1.06-.724A3.424,3.424,0,0,1,24.413-7a2.277,2.277,0,0,1,1.669.651,2.018,2.018,0,0,1,.5,1.66l-.559,3.4L25.994-.8a2.4,2.4,0,0,0,.076.692L26.057,0Zm-1.8-.889a2,2,0,0,0,1.044-.263,2.644,2.644,0,0,0,.847-.765l.248-1.416-.87-.006A3.294,3.294,0,0,0,22.693-3a1.262,1.262,0,0,0-.654.971.983.983,0,0,0,.225.8A1.073,1.073,0,0,0,23.086-.889Zm5.37-.444a.687.687,0,0,1,.514.19.656.656,0,0,1,.2.508.686.686,0,0,1-.209.5.755.755,0,0,1-.508.206.656.656,0,0,1-.5-.175.656.656,0,0,1-.2-.5.72.72,0,0,1,.2-.517A.713.713,0,0,1,28.457-1.333ZM41.736-8.246H38.86L37.432,0H36.245l1.428-8.246H34.8l.178-1h6.938ZM44.7-7a2.476,2.476,0,0,1,1.479.47,2.669,2.669,0,0,1,.911,1.26,3.9,3.9,0,0,1,.2,1.755l-.013.14a4.619,4.619,0,0,1-.6,1.812A3.5,3.5,0,0,1,45.449-.3a3,3,0,0,1-1.657.425,2.48,2.48,0,0,1-1.476-.47,2.608,2.608,0,0,1-.9-1.244,4.006,4.006,0,0,1-.2-1.733,4.68,4.68,0,0,1,.578-1.917,3.582,3.582,0,0,1,1.241-1.317A2.967,2.967,0,0,1,44.7-7ZM42.364-3.313a3.9,3.9,0,0,0,0,.832,2.037,2.037,0,0,0,.448,1.193,1.343,1.343,0,0,0,1.025.463,1.83,1.83,0,0,0,1.054-.282,2.372,2.372,0,0,0,.813-.911,3.836,3.836,0,0,0,.425-1.352,6.089,6.089,0,0,0,.019-.984,2.114,2.114,0,0,0-.463-1.212,1.373,1.373,0,0,0-1.028-.47,1.872,1.872,0,0,0-1.511.7,3.449,3.449,0,0,0-.768,1.879Zm8.042-3.561-.146.768A2.686,2.686,0,0,1,52.349-7a2.119,2.119,0,0,1,1.108.3,1.463,1.463,0,0,1,.625.806A2.836,2.836,0,0,1,56.361-7a1.816,1.816,0,0,1,1.517.692,2.472,2.472,0,0,1,.362,1.79L57.484,0H56.342l.749-4.526a2.391,2.391,0,0,0,0-.6q-.121-.863-1.13-.882a1.735,1.735,0,0,0-1.139.39,1.806,1.806,0,0,0-.657,1.057L53.384,0H52.229l.762-4.52A1.451,1.451,0,0,0,52.778-5.6,1.119,1.119,0,0,0,51.86-6a1.881,1.881,0,0,0-1.708.978L49.283,0H48.134l1.193-6.868ZM63.458,0a1.539,1.539,0,0,1-.044-.362l.019-.362a2.816,2.816,0,0,1-2.006.851A2.052,2.052,0,0,1,59.95-.448a1.739,1.739,0,0,1-.517-1.406,2.114,2.114,0,0,1,.955-1.7,4.067,4.067,0,0,1,2.345-.613l1.2.006.076-.546a1.255,1.255,0,0,0-.238-.974,1.149,1.149,0,0,0-.9-.371,1.772,1.772,0,0,0-1.044.289,1.229,1.229,0,0,0-.555.8l-1.155.006a1.841,1.841,0,0,1,.47-1.07,2.733,2.733,0,0,1,1.06-.724A3.424,3.424,0,0,1,62.981-7a2.277,2.277,0,0,1,1.669.651,2.018,2.018,0,0,1,.5,1.66l-.559,3.4L64.562-.8a2.4,2.4,0,0,0,.076.692L64.625,0Zm-1.8-.889A2,2,0,0,0,62.7-1.152a2.644,2.644,0,0,0,.847-.765l.248-1.416-.87-.006A3.294,3.294,0,0,0,61.261-3a1.262,1.262,0,0,0-.654.971.983.983,0,0,0,.225.8A1.073,1.073,0,0,0,61.655-.889Zm4.856-2.558a5.344,5.344,0,0,1,.578-1.892A3.275,3.275,0,0,1,68.2-6.6,2.54,2.54,0,0,1,69.653-7a2.145,2.145,0,0,1,1.765.838l.66-3.586h1.149L71.538,0H70.491l.121-.736a2.532,2.532,0,0,1-2.006.863,1.9,1.9,0,0,1-1.517-.746,3.25,3.25,0,0,1-.609-1.933A6.173,6.173,0,0,1,66.511-3.447Zm1.1.656a2.38,2.38,0,0,0,.324,1.407,1.168,1.168,0,0,0,1,.514,2.075,2.075,0,0,0,1.771-1l.546-3.17A1.425,1.425,0,0,0,69.875-6a1.741,1.741,0,0,0-1.2.409,2.645,2.645,0,0,0-.787,1.2A4.942,4.942,0,0,0,67.615-2.791ZM77.556,0a1.538,1.538,0,0,1-.044-.362l.019-.362a2.816,2.816,0,0,1-2.006.851,2.052,2.052,0,0,1-1.476-.574,1.739,1.739,0,0,1-.517-1.406,2.114,2.114,0,0,1,.955-1.7,4.067,4.067,0,0,1,2.345-.613l1.2.006.076-.546a1.255,1.255,0,0,0-.238-.974,1.149,1.149,0,0,0-.9-.371,1.772,1.772,0,0,0-1.044.289,1.229,1.229,0,0,0-.555.8l-1.155.006a1.841,1.841,0,0,1,.47-1.07,2.733,2.733,0,0,1,1.06-.724A3.424,3.424,0,0,1,77.08-7a2.277,2.277,0,0,1,1.669.651,2.018,2.018,0,0,1,.5,1.66l-.559,3.4L78.66-.8a2.4,2.4,0,0,0,.076.692L78.724,0Zm-1.8-.889A2,2,0,0,0,76.8-1.152a2.644,2.644,0,0,0,.847-.765l.248-1.416-.87-.006A3.294,3.294,0,0,0,75.359-3a1.262,1.262,0,0,0-.654.971.983.983,0,0,0,.225.8A1.073,1.073,0,0,0,75.753-.889ZM83.8-3.447a5.344,5.344,0,0,1,.578-1.892A3.275,3.275,0,0,1,85.484-6.6,2.54,2.54,0,0,1,86.938-7a2.145,2.145,0,0,1,1.765.838l.66-3.586h1.149L88.823,0H87.775L87.9-.736A2.532,2.532,0,0,1,85.89.127a1.9,1.9,0,0,1-1.517-.746,3.25,3.25,0,0,1-.609-1.933A6.173,6.173,0,0,1,83.8-3.447Zm1.1.656a2.38,2.38,0,0,0,.324,1.407,1.168,1.168,0,0,0,1,.514,2.075,2.075,0,0,0,1.771-1l.546-3.17A1.425,1.425,0,0,0,87.16-6a1.741,1.741,0,0,0-1.2.409,2.645,2.645,0,0,0-.787,1.2A4.942,4.942,0,0,0,84.9-2.791ZM93.609.127A2.476,2.476,0,0,1,91.6-.819a3.255,3.255,0,0,1-.609-2.355l.032-.273a4.57,4.57,0,0,1,.606-1.866,3.526,3.526,0,0,1,1.216-1.273A2.836,2.836,0,0,1,94.4-7a2.184,2.184,0,0,1,1.663.7,2.9,2.9,0,0,1,.66,1.841,5.379,5.379,0,0,1-.025.825l-.07.527H92.136a2.32,2.32,0,0,0,.308,1.587,1.458,1.458,0,0,0,1.26.679,2.443,2.443,0,0,0,1.879-.914l.66.559a3.021,3.021,0,0,1-1.114.974A3.157,3.157,0,0,1,93.609.127Zm.73-6.164a1.678,1.678,0,0,0-1.241.482,3.429,3.429,0,0,0-.841,1.492l3.339.006.025-.1a1.879,1.879,0,0,0-.257-1.33A1.209,1.209,0,0,0,94.339-6.037Zm8.373.006a2.661,2.661,0,0,1,2.076-.958,1.672,1.672,0,0,1,1.431.663,2.614,2.614,0,0,1,.346,1.825L105.815,0h-1.149l.755-4.52a2.412,2.412,0,0,0,.006-.578A.949.949,0,0,0,104.381-6a2.113,2.113,0,0,0-1.815,1.1L101.715,0h-1.149l1.695-9.75h1.149Zm7.9-2.5-.292,1.663h1.25l-.159.908h-1.244l-.717,4.272a1.49,1.49,0,0,0-.006.3.484.484,0,0,0,.54.5,3.291,3.291,0,0,0,.559-.063l-.089.958a3.126,3.126,0,0,1-.838.114,1.2,1.2,0,0,1-1.028-.5,1.952,1.952,0,0,1-.267-1.323l.7-4.253H107.8l.159-.908h1.212l.292-1.663Zm4.183,0L114.5-6.868h1.25l-.159.908h-1.244l-.717,4.272a1.49,1.49,0,0,0-.006.3.484.484,0,0,0,.54.5,3.291,3.291,0,0,0,.559-.063l-.089.958a3.126,3.126,0,0,1-.838.114,1.2,1.2,0,0,1-1.028-.5,1.952,1.952,0,0,1-.267-1.323l.7-4.253h-1.212l.159-.908h1.212l.292-1.663Zm7.37,5.129a5.449,5.449,0,0,1-.565,1.885A3.208,3.208,0,0,1,120.51-.263a2.484,2.484,0,0,1-1.435.4,2.287,2.287,0,0,1-1.828-.806l-.616,3.313h-1.149l1.65-9.509,1.041-.006-.127.768A2.606,2.606,0,0,1,120.085-7a1.916,1.916,0,0,1,1.542.73,3.213,3.213,0,0,1,.584,1.942,6.835,6.835,0,0,1-.032.787Zm-1.13-.13.032-.533a2.412,2.412,0,0,0-.352-1.417A1.239,1.239,0,0,0,119.691-6a2.037,2.037,0,0,0-1.72.945l-.578,3.29a1.437,1.437,0,0,0,1.39.938,1.807,1.807,0,0,0,1.457-.669A3.882,3.882,0,0,0,121.031-3.532Zm6.3,1.673q.1-.711-.781-1l-1.193-.349q-1.511-.521-1.46-1.727a1.9,1.9,0,0,1,.828-1.489A2.95,2.95,0,0,1,126.572-7a2.46,2.46,0,0,1,1.692.606,1.92,1.92,0,0,1,.625,1.546l-1.143-.006a1.072,1.072,0,0,0-.324-.838,1.281,1.281,0,0,0-.9-.336,1.673,1.673,0,0,0-1.028.292,1.069,1.069,0,0,0-.463.749q-.083.6.73.87l.578.159a3.719,3.719,0,0,1,1.676.793,1.515,1.515,0,0,1,.457,1.212,1.926,1.926,0,0,1-.419,1.117,2.4,2.4,0,0,1-1.016.727,3.4,3.4,0,0,1-1.352.232,2.679,2.679,0,0,1-1.8-.638A1.972,1.972,0,0,1,123.2-2.12l1.149.006a1.217,1.217,0,0,0,.368.927,1.407,1.407,0,0,0,1.009.349,1.979,1.979,0,0,0,1.085-.263A1.014,1.014,0,0,0,127.334-1.86Zm3.091.527a.687.687,0,0,1,.514.19.656.656,0,0,1,.2.508.686.686,0,0,1-.209.5.755.755,0,0,1-.508.206.656.656,0,0,1-.5-.175.656.656,0,0,1-.2-.5.72.72,0,0,1,.2-.517A.713.713,0,0,1,130.425-1.333Zm.971-5.6a.687.687,0,0,1,.514.19.656.656,0,0,1,.2.508.686.686,0,0,1-.209.5.755.755,0,0,1-.508.206.656.656,0,0,1-.5-.175.656.656,0,0,1-.2-.5.72.72,0,0,1,.2-.517A.713.713,0,0,1,131.4-6.938ZM132.888.793h-1.041l5.484-10.036h1.035Zm3.84,0h-1.041l5.484-10.036h1.035Zm8.106-.667a2.476,2.476,0,0,1-2.006-.946,3.255,3.255,0,0,1-.609-2.355l.032-.273a4.57,4.57,0,0,1,.606-1.866,3.526,3.526,0,0,1,1.216-1.273A2.836,2.836,0,0,1,145.622-7a2.184,2.184,0,0,1,1.663.7,2.9,2.9,0,0,1,.66,1.841,5.38,5.38,0,0,1-.025.825l-.07.527h-4.488a2.32,2.32,0,0,0,.308,1.587,1.458,1.458,0,0,0,1.26.679,2.443,2.443,0,0,0,1.879-.914l.66.559a3.021,3.021,0,0,1-1.114.974A3.157,3.157,0,0,1,144.834.127Zm.73-6.164a1.678,1.678,0,0,0-1.241.482,3.429,3.429,0,0,0-.841,1.492l3.339.006.025-.1a1.879,1.879,0,0,0-.257-1.33A1.209,1.209,0,0,0,145.564-6.037Zm5.941,5.211a1.743,1.743,0,0,0,1.111-.359,1.706,1.706,0,0,0,.647-.974l1.085-.006a2.449,2.449,0,0,1-.517,1.181,2.887,2.887,0,0,1-1.063.832,2.885,2.885,0,0,1-1.314.279A2.451,2.451,0,0,1,150-.321a2.506,2.506,0,0,1-.873-1.212,4.039,4.039,0,0,1-.19-1.749l.032-.317a4.554,4.554,0,0,1,.578-1.771,3.339,3.339,0,0,1,1.193-1.216A2.964,2.964,0,0,1,152.369-7a2.321,2.321,0,0,1,1.727.724,2.5,2.5,0,0,1,.647,1.771l-1.073-.006A1.649,1.649,0,0,0,153.3-5.6a1.306,1.306,0,0,0-.978-.441,1.831,1.831,0,0,0-1.489.667,3.491,3.491,0,0,0-.74,1.917l-.019.165a5.506,5.506,0,0,0-.013.838,1.914,1.914,0,0,0,.419,1.174A1.346,1.346,0,0,0,151.506-.825ZM159.085-7a2.476,2.476,0,0,1,1.479.47,2.669,2.669,0,0,1,.911,1.26,3.9,3.9,0,0,1,.2,1.755l-.013.14a4.619,4.619,0,0,1-.6,1.812A3.5,3.5,0,0,1,159.834-.3a3,3,0,0,1-1.657.425,2.48,2.48,0,0,1-1.476-.47,2.608,2.608,0,0,1-.9-1.244,4.006,4.006,0,0,1-.2-1.733,4.68,4.68,0,0,1,.578-1.917,3.582,3.582,0,0,1,1.241-1.317A2.967,2.967,0,0,1,159.085-7Zm-2.336,3.682a3.9,3.9,0,0,0,0,.832,2.037,2.037,0,0,0,.448,1.193,1.343,1.343,0,0,0,1.025.463,1.83,1.83,0,0,0,1.054-.282,2.372,2.372,0,0,0,.813-.911,3.836,3.836,0,0,0,.425-1.352,6.088,6.088,0,0,0,.019-.984,2.114,2.114,0,0,0-.463-1.212,1.373,1.373,0,0,0-1.028-.47,1.872,1.872,0,0,0-1.511.7,3.449,3.449,0,0,0-.768,1.879ZM164.8-6.875l-.165.87A2.708,2.708,0,0,1,166.747-7a1.7,1.7,0,0,1,1.435.673,2.614,2.614,0,0,1,.343,1.822L167.775,0h-1.149l.755-4.515a2.406,2.406,0,0,0,.006-.577A.949.949,0,0,0,166.34-6a2.162,2.162,0,0,0-1.815,1.1L163.674,0h-1.149l1.193-6.868ZM173.361-7a2.476,2.476,0,0,1,1.479.47,2.669,2.669,0,0,1,.911,1.26,3.9,3.9,0,0,1,.2,1.755l-.013.14a4.619,4.619,0,0,1-.6,1.812A3.5,3.5,0,0,1,174.11-.3a3,3,0,0,1-1.657.425,2.48,2.48,0,0,1-1.476-.47,2.608,2.608,0,0,1-.9-1.244,4.006,4.006,0,0,1-.2-1.733,4.68,4.68,0,0,1,.578-1.917,3.582,3.582,0,0,1,1.241-1.317A2.967,2.967,0,0,1,173.361-7Zm-2.336,3.682a3.9,3.9,0,0,0,0,.832,2.037,2.037,0,0,0,.448,1.193,1.343,1.343,0,0,0,1.025.463,1.83,1.83,0,0,0,1.054-.282,2.372,2.372,0,0,0,.813-.911,3.836,3.836,0,0,0,.425-1.352,6.088,6.088,0,0,0,.019-.984,2.114,2.114,0,0,0-.463-1.212,1.373,1.373,0,0,0-1.028-.47,1.872,1.872,0,0,0-1.511.7,3.449,3.449,0,0,0-.768,1.879Zm8.042-3.561-.146.768A2.686,2.686,0,0,1,181.01-7a2.119,2.119,0,0,1,1.108.3,1.463,1.463,0,0,1,.625.806A2.836,2.836,0,0,1,185.021-7a1.816,1.816,0,0,1,1.517.692,2.472,2.472,0,0,1,.362,1.79L186.145,0H185l.749-4.526a2.391,2.391,0,0,0,0-.6q-.121-.863-1.13-.882a1.735,1.735,0,0,0-1.139.39,1.806,1.806,0,0,0-.657,1.057L182.044,0h-1.155l.762-4.52a1.451,1.451,0,0,0-.213-1.085A1.119,1.119,0,0,0,180.521-6a1.881,1.881,0,0,0-1.708.978L177.944,0h-1.149l1.193-6.868ZM189.16,0h-1.143l1.193-6.868h1.143Zm.946-9.375a.629.629,0,0,1,.486.175.653.653,0,0,1,.194.492.69.69,0,0,1-.194.489.7.7,0,0,1-.486.2.633.633,0,0,1-.489-.171.621.621,0,0,1-.184-.482.72.72,0,0,1,.19-.5A.671.671,0,0,1,190.106-9.375ZM197.26-3.4a5.449,5.449,0,0,1-.565,1.885,3.208,3.208,0,0,1-1.085,1.254,2.484,2.484,0,0,1-1.435.4,2.287,2.287,0,0,1-1.828-.806l-.616,3.313h-1.149l1.65-9.509,1.041-.006-.127.768A2.606,2.606,0,0,1,195.184-7a1.916,1.916,0,0,1,1.542.73,3.213,3.213,0,0,1,.584,1.942,6.836,6.836,0,0,1-.032.787Zm-1.13-.13.032-.533a2.412,2.412,0,0,0-.352-1.417A1.239,1.239,0,0,0,194.791-6a2.037,2.037,0,0,0-1.72.945l-.578,3.29a1.437,1.437,0,0,0,1.39.938,1.807,1.807,0,0,0,1.457-.669A3.882,3.882,0,0,0,196.13-3.532ZM201.151.127a2.476,2.476,0,0,1-2.006-.946,3.255,3.255,0,0,1-.609-2.355l.032-.273a4.57,4.57,0,0,1,.606-1.866,3.526,3.526,0,0,1,1.216-1.273A2.836,2.836,0,0,1,201.938-7a2.184,2.184,0,0,1,1.663.7,2.9,2.9,0,0,1,.66,1.841,5.38,5.38,0,0,1-.025.825l-.07.527h-4.488a2.32,2.32,0,0,0,.308,1.587,1.458,1.458,0,0,0,1.26.679,2.443,2.443,0,0,0,1.879-.914l.66.559a3.021,3.021,0,0,1-1.114.974A3.157,3.157,0,0,1,201.151.127Zm.73-6.164a1.678,1.678,0,0,0-1.241.482,3.429,3.429,0,0,0-.841,1.492l3.339.006.025-.1a1.879,1.879,0,0,0-.257-1.33A1.209,1.209,0,0,0,201.881-6.037Zm3.371,2.59a5.344,5.344,0,0,1,.578-1.892A3.275,3.275,0,0,1,206.94-6.6a2.54,2.54,0,0,1,1.454-.4,2.145,2.145,0,0,1,1.765.838l.66-3.586h1.149L210.279,0h-1.047l.121-.736a2.532,2.532,0,0,1-2.006.863,1.9,1.9,0,0,1-1.517-.746,3.25,3.25,0,0,1-.609-1.933A6.172,6.172,0,0,1,205.251-3.447Zm1.1.656a2.38,2.38,0,0,0,.324,1.407,1.168,1.168,0,0,0,1,.514,2.075,2.075,0,0,0,1.771-1L210-5.041A1.425,1.425,0,0,0,208.616-6a1.741,1.741,0,0,0-1.2.409,2.645,2.645,0,0,0-.787,1.2A4.941,4.941,0,0,0,206.356-2.791ZM213.338,0H212.2l1.193-6.868h1.143Zm.946-9.375a.629.629,0,0,1,.486.175.653.653,0,0,1,.194.492.69.69,0,0,1-.194.489.7.7,0,0,1-.486.2.633.633,0,0,1-.489-.171.621.621,0,0,1-.184-.482.72.72,0,0,1,.19-.5A.671.671,0,0,1,214.284-9.375ZM219.419,0a1.539,1.539,0,0,1-.044-.362l.019-.362a2.816,2.816,0,0,1-2.006.851,2.052,2.052,0,0,1-1.476-.574,1.739,1.739,0,0,1-.517-1.406,2.114,2.114,0,0,1,.955-1.7A4.067,4.067,0,0,1,218.7-4.17l1.2.006.076-.546a1.255,1.255,0,0,0-.238-.974,1.149,1.149,0,0,0-.9-.371,1.772,1.772,0,0,0-1.044.289,1.229,1.229,0,0,0-.555.8l-1.155.006a1.841,1.841,0,0,1,.47-1.07,2.733,2.733,0,0,1,1.06-.724A3.424,3.424,0,0,1,218.943-7a2.277,2.277,0,0,1,1.669.651,2.018,2.018,0,0,1,.5,1.66l-.559,3.4-.032.489a2.4,2.4,0,0,0,.076.692L220.587,0Zm-1.8-.889a2,2,0,0,0,1.044-.263,2.644,2.644,0,0,0,.847-.765l.248-1.416-.87-.006A3.294,3.294,0,0,0,217.223-3a1.262,1.262,0,0,0-.654.971.983.983,0,0,0,.225.8A1.073,1.073,0,0,0,217.617-.889Zm5.37-.444a.687.687,0,0,1,.514.19.656.656,0,0,1,.2.508.686.686,0,0,1-.209.5.755.755,0,0,1-.508.206.656.656,0,0,1-.5-.175.656.656,0,0,1-.2-.5.72.72,0,0,1,.2-.517A.713.713,0,0,1,222.987-1.333Zm5.44.508a1.743,1.743,0,0,0,1.111-.359,1.706,1.706,0,0,0,.647-.974l1.085-.006a2.449,2.449,0,0,1-.517,1.181,2.887,2.887,0,0,1-1.063.832,2.885,2.885,0,0,1-1.314.279,2.451,2.451,0,0,1-1.45-.448,2.506,2.506,0,0,1-.873-1.212,4.039,4.039,0,0,1-.19-1.749l.032-.317a4.554,4.554,0,0,1,.578-1.771,3.339,3.339,0,0,1,1.193-1.216A2.964,2.964,0,0,1,229.29-7a2.321,2.321,0,0,1,1.727.724,2.5,2.5,0,0,1,.647,1.771l-1.073-.006a1.649,1.649,0,0,0-.375-1.089,1.306,1.306,0,0,0-.978-.441,1.831,1.831,0,0,0-1.489.667,3.491,3.491,0,0,0-.74,1.917l-.019.165a5.506,5.506,0,0,0-.013.838,1.914,1.914,0,0,0,.419,1.174A1.346,1.346,0,0,0,228.427-.825ZM236.006-7a2.476,2.476,0,0,1,1.479.47,2.669,2.669,0,0,1,.911,1.26,3.9,3.9,0,0,1,.2,1.755l-.013.14a4.619,4.619,0,0,1-.6,1.812A3.5,3.5,0,0,1,236.755-.3,3,3,0,0,1,235.1.127a2.48,2.48,0,0,1-1.476-.47,2.608,2.608,0,0,1-.9-1.244,4.006,4.006,0,0,1-.2-1.733,4.68,4.68,0,0,1,.578-1.917,3.582,3.582,0,0,1,1.241-1.317A2.967,2.967,0,0,1,236.006-7ZM233.67-3.313a3.9,3.9,0,0,0,0,.832,2.037,2.037,0,0,0,.448,1.193,1.343,1.343,0,0,0,1.025.463,1.83,1.83,0,0,0,1.054-.282,2.372,2.372,0,0,0,.813-.911,3.836,3.836,0,0,0,.425-1.352,6.088,6.088,0,0,0,.019-.984,2.114,2.114,0,0,0-.463-1.212,1.373,1.373,0,0,0-1.028-.47,1.872,1.872,0,0,0-1.511.7,3.449,3.449,0,0,0-.768,1.879Zm8.042-3.561-.146.768A2.686,2.686,0,0,1,243.655-7a2.119,2.119,0,0,1,1.108.3,1.463,1.463,0,0,1,.625.806A2.836,2.836,0,0,1,247.667-7a1.816,1.816,0,0,1,1.517.692,2.472,2.472,0,0,1,.362,1.79L248.79,0h-1.143l.749-4.526a2.391,2.391,0,0,0,0-.6q-.121-.863-1.13-.882a1.735,1.735,0,0,0-1.139.39,1.806,1.806,0,0,0-.657,1.057L244.689,0h-1.155l.762-4.52a1.451,1.451,0,0,0-.213-1.085A1.119,1.119,0,0,0,243.166-6a1.881,1.881,0,0,0-1.708.978L240.589,0H239.44l1.193-6.868ZM250.688.793h-1.041l5.484-10.036h1.035Zm5.465-4.24a5.344,5.344,0,0,1,.578-1.892A3.275,3.275,0,0,1,257.842-6.6,2.54,2.54,0,0,1,259.3-7a2.145,2.145,0,0,1,1.765.838l.66-3.586h1.149L261.181,0h-1.047l.121-.736a2.532,2.532,0,0,1-2.006.863,1.9,1.9,0,0,1-1.517-.746,3.25,3.25,0,0,1-.609-1.933A6.174,6.174,0,0,1,256.153-3.447Zm1.1.656a2.38,2.38,0,0,0,.324,1.407,1.168,1.168,0,0,0,1,.514,2.075,2.075,0,0,0,1.771-1l.546-3.17A1.425,1.425,0,0,0,259.518-6a1.741,1.741,0,0,0-1.2.409,2.645,2.645,0,0,0-.787,1.2A4.942,4.942,0,0,0,257.258-2.791ZM265.967.127a2.476,2.476,0,0,1-2.006-.946,3.255,3.255,0,0,1-.609-2.355l.032-.273a4.57,4.57,0,0,1,.606-1.866,3.526,3.526,0,0,1,1.216-1.273A2.836,2.836,0,0,1,266.754-7a2.184,2.184,0,0,1,1.663.7,2.9,2.9,0,0,1,.66,1.841,5.378,5.378,0,0,1-.025.825l-.07.527h-4.488a2.32,2.32,0,0,0,.308,1.587,1.458,1.458,0,0,0,1.26.679,2.443,2.443,0,0,0,1.879-.914l.66.559a3.021,3.021,0,0,1-1.114.974A3.157,3.157,0,0,1,265.967.127Zm.73-6.164a1.678,1.678,0,0,0-1.241.482,3.429,3.429,0,0,0-.841,1.492l3.339.006.025-.1a1.879,1.879,0,0,0-.257-1.33A1.209,1.209,0,0,0,266.7-6.037ZM270.118,0l1.035-5.96H270.1l.159-.908,1.054-.006.089-.635a2.762,2.762,0,0,1,.933-1.8,2.742,2.742,0,0,1,1.841-.59,3.844,3.844,0,0,1,.873.124q.422.111.866.263l-.279,1a3.6,3.6,0,0,0-1.422-.336,1.49,1.49,0,0,0-1.669,1.422l-.083.552h1.365l-.159.908h-1.358L271.273,0Zm4.761,0h-1.155l1.193-6.868h1.155Zm4.183-6.875L278.9-6A2.708,2.708,0,0,1,281-7a1.7,1.7,0,0,1,1.435.673,2.614,2.614,0,0,1,.343,1.822L282.033,0h-1.149l.755-4.515a2.407,2.407,0,0,0,.006-.577A.949.949,0,0,0,280.6-6a2.162,2.162,0,0,0-1.815,1.1L277.932,0h-1.149l1.193-6.868ZM285.048,0h-1.143L285.1-6.868h1.143Zm.946-9.375a.629.629,0,0,1,.486.175.653.653,0,0,1,.194.492.69.69,0,0,1-.194.489.7.7,0,0,1-.486.2.633.633,0,0,1-.489-.171.621.621,0,0,1-.184-.482.72.72,0,0,1,.19-.5A.671.671,0,0,1,285.994-9.375Zm3.834,8.55a1.743,1.743,0,0,0,1.111-.359,1.706,1.706,0,0,0,.647-.974l1.085-.006a2.449,2.449,0,0,1-.517,1.181,2.887,2.887,0,0,1-1.063.832,2.885,2.885,0,0,1-1.314.279,2.451,2.451,0,0,1-1.45-.448,2.506,2.506,0,0,1-.873-1.212,4.04,4.04,0,0,1-.19-1.749l.032-.317a4.554,4.554,0,0,1,.578-1.771,3.34,3.34,0,0,1,1.193-1.216A2.964,2.964,0,0,1,290.691-7a2.321,2.321,0,0,1,1.727.724,2.5,2.5,0,0,1,.647,1.771l-1.073-.006a1.649,1.649,0,0,0-.375-1.089,1.306,1.306,0,0,0-.978-.441,1.831,1.831,0,0,0-1.489.667,3.491,3.491,0,0,0-.74,1.917l-.019.165a5.5,5.5,0,0,0-.013.838,1.914,1.914,0,0,0,.419,1.174A1.346,1.346,0,0,0,289.828-.825ZM294.836,0h-1.143l1.193-6.868h1.143Zm.946-9.375a.629.629,0,0,1,.486.175.653.653,0,0,1,.194.492.69.69,0,0,1-.194.489.7.7,0,0,1-.486.2.633.633,0,0,1-.489-.171.621.621,0,0,1-.184-.482.72.72,0,0,1,.19-.5A.671.671,0,0,1,295.782-9.375ZM300.53-7a2.476,2.476,0,0,1,1.479.47,2.669,2.669,0,0,1,.911,1.26,3.9,3.9,0,0,1,.2,1.755l-.013.14a4.619,4.619,0,0,1-.6,1.812A3.5,3.5,0,0,1,301.279-.3a3,3,0,0,1-1.657.425,2.48,2.48,0,0,1-1.476-.47,2.608,2.608,0,0,1-.9-1.244,4.006,4.006,0,0,1-.2-1.733,4.68,4.68,0,0,1,.578-1.917,3.582,3.582,0,0,1,1.241-1.317A2.967,2.967,0,0,1,300.53-7Zm-2.336,3.682a3.9,3.9,0,0,0,0,.832,2.037,2.037,0,0,0,.448,1.193,1.343,1.343,0,0,0,1.025.463,1.83,1.83,0,0,0,1.054-.282,2.372,2.372,0,0,0,.813-.911,3.836,3.836,0,0,0,.425-1.352,6.091,6.091,0,0,0,.019-.984,2.114,2.114,0,0,0-.463-1.212,1.373,1.373,0,0,0-1.028-.47,1.872,1.872,0,0,0-1.511.7,3.449,3.449,0,0,0-.768,1.879Zm8.055-3.561-.165.87A2.708,2.708,0,0,1,308.191-7a1.7,1.7,0,0,1,1.435.673,2.614,2.614,0,0,1,.343,1.822L309.22,0h-1.149l.755-4.515a2.407,2.407,0,0,0,.006-.577A.949.949,0,0,0,307.785-6a2.162,2.162,0,0,0-1.815,1.1L305.119,0H303.97l1.193-6.868Zm7.712,7a2.476,2.476,0,0,1-2.006-.946,3.255,3.255,0,0,1-.609-2.355l.032-.273a4.57,4.57,0,0,1,.606-1.866A3.526,3.526,0,0,1,313.2-6.586,2.836,2.836,0,0,1,314.749-7a2.184,2.184,0,0,1,1.663.7,2.9,2.9,0,0,1,.66,1.841,5.378,5.378,0,0,1-.025.825l-.07.527h-4.488a2.32,2.32,0,0,0,.308,1.587,1.458,1.458,0,0,0,1.26.679,2.443,2.443,0,0,0,1.879-.914l.66.559a3.021,3.021,0,0,1-1.114.974A3.157,3.157,0,0,1,313.961.127Zm.73-6.164a1.678,1.678,0,0,0-1.241.482,3.429,3.429,0,0,0-.841,1.492l3.339.006.025-.1a1.879,1.879,0,0,0-.257-1.33A1.209,1.209,0,0,0,314.691-6.037Zm7.293,4.177q.1-.711-.781-1l-1.193-.349q-1.511-.521-1.46-1.727a1.9,1.9,0,0,1,.828-1.489A2.95,2.95,0,0,1,321.223-7a2.46,2.46,0,0,1,1.692.606,1.92,1.92,0,0,1,.625,1.546L322.4-4.85a1.072,1.072,0,0,0-.324-.838,1.281,1.281,0,0,0-.9-.336,1.673,1.673,0,0,0-1.028.292,1.069,1.069,0,0,0-.463.749q-.083.6.73.87l.578.159a3.719,3.719,0,0,1,1.676.793,1.515,1.515,0,0,1,.457,1.212,1.926,1.926,0,0,1-.419,1.117,2.4,2.4,0,0,1-1.016.727,3.4,3.4,0,0,1-1.352.232,2.679,2.679,0,0,1-1.8-.638,1.972,1.972,0,0,1-.686-1.609L319-2.114a1.217,1.217,0,0,0,.368.927,1.407,1.407,0,0,0,1.009.349,1.979,1.979,0,0,0,1.085-.263A1.014,1.014,0,0,0,321.985-1.86ZM324.422.793h-1.041l5.484-10.036H329.9ZM330.8,0h-1.143l1.688-9.75H332.5Zm4.85.127a2.476,2.476,0,0,1-2.006-.946,3.255,3.255,0,0,1-.609-2.355l.032-.273a4.57,4.57,0,0,1,.606-1.866,3.526,3.526,0,0,1,1.216-1.273A2.836,2.836,0,0,1,336.438-7a2.184,2.184,0,0,1,1.663.7,2.9,2.9,0,0,1,.66,1.841,5.378,5.378,0,0,1-.025.825l-.07.527h-4.488a2.32,2.32,0,0,0,.308,1.587,1.458,1.458,0,0,0,1.26.679,2.443,2.443,0,0,0,1.879-.914l.66.559a3.021,3.021,0,0,1-1.114.974A3.157,3.157,0,0,1,335.651.127Zm.73-6.164a1.678,1.678,0,0,0-1.241.482,3.429,3.429,0,0,0-.841,1.492l3.339.006.025-.1a1.879,1.879,0,0,0-.257-1.33A1.209,1.209,0,0,0,336.381-6.037Zm5.5,4.3,2.444-5.135h1.27l-4.075,8.011a2.466,2.466,0,0,1-2.184,1.65,3.741,3.741,0,0,1-.692-.114l.1-.952.3.032a1.506,1.506,0,0,0,.943-.244,2.252,2.252,0,0,0,.7-.873l.413-.787-1.187-6.722h1.2Zm6.544-1.714h-3.015l.171-.958H348.6Zm.9,0a5.344,5.344,0,0,1,.578-1.892A3.275,3.275,0,0,1,351.013-6.6a2.54,2.54,0,0,1,1.454-.4,2.145,2.145,0,0,1,1.765.838l.66-3.586h1.149L354.352,0H353.3l.121-.736a2.532,2.532,0,0,1-2.006.863A1.9,1.9,0,0,1,349.9-.619a3.25,3.25,0,0,1-.609-1.933A6.174,6.174,0,0,1,349.324-3.447Zm1.1.656a2.38,2.38,0,0,0,.324,1.407,1.168,1.168,0,0,0,1,.514,2.075,2.075,0,0,0,1.771-1l.546-3.17A1.425,1.425,0,0,0,352.688-6a1.741,1.741,0,0,0-1.2.409,2.645,2.645,0,0,0-.787,1.2A4.942,4.942,0,0,0,350.429-2.791ZM359.138.127a2.476,2.476,0,0,1-2.006-.946,3.255,3.255,0,0,1-.609-2.355l.032-.273a4.57,4.57,0,0,1,.606-1.866,3.526,3.526,0,0,1,1.216-1.273A2.836,2.836,0,0,1,359.925-7a2.184,2.184,0,0,1,1.663.7,2.9,2.9,0,0,1,.66,1.841,5.378,5.378,0,0,1-.025.825l-.07.527h-4.488a2.32,2.32,0,0,0,.308,1.587,1.458,1.458,0,0,0,1.26.679,2.443,2.443,0,0,0,1.879-.914l.66.559a3.021,3.021,0,0,1-1.114.974A3.157,3.157,0,0,1,359.138.127Zm.73-6.164a1.678,1.678,0,0,0-1.241.482,3.429,3.429,0,0,0-.841,1.492l3.339.006.025-.1a1.879,1.879,0,0,0-.257-1.33A1.209,1.209,0,0,0,359.868-6.037Zm6.018,2.59H362.87l.171-.958h3.015ZM370.265-7a2.476,2.476,0,0,1,1.479.47,2.669,2.669,0,0,1,.911,1.26,3.9,3.9,0,0,1,.2,1.755l-.013.14a4.619,4.619,0,0,1-.6,1.812A3.5,3.5,0,0,1,371.014-.3a3,3,0,0,1-1.657.425,2.48,2.48,0,0,1-1.476-.47,2.608,2.608,0,0,1-.9-1.244,4.006,4.006,0,0,1-.2-1.733,4.68,4.68,0,0,1,.578-1.917,3.582,3.582,0,0,1,1.241-1.317A2.967,2.967,0,0,1,370.265-7Zm-2.336,3.682a3.9,3.9,0,0,0,0,.832,2.037,2.037,0,0,0,.448,1.193,1.343,1.343,0,0,0,1.025.463,1.83,1.83,0,0,0,1.054-.282,2.372,2.372,0,0,0,.813-.911,3.836,3.836,0,0,0,.425-1.352,6.091,6.091,0,0,0,.019-.984,2.114,2.114,0,0,0-.463-1.212,1.373,1.373,0,0,0-1.028-.47,1.872,1.872,0,0,0-1.511.7,3.449,3.449,0,0,0-.768,1.879ZM374.264,0l1.041-5.96h-1.06l.159-.908h1.054l.114-.812a2.7,2.7,0,0,1,.8-1.619,2.378,2.378,0,0,1,1.7-.6,3.969,3.969,0,0,1,.819.109l-.14.964a3.767,3.767,0,0,0-.616-.076,1.312,1.312,0,0,0-.968.37,1.685,1.685,0,0,0-.46.984l-.1.677h1.422l-.159.908h-1.422L375.413,0Zm6.855.127a2.476,2.476,0,0,1-2.006-.946,3.255,3.255,0,0,1-.609-2.355l.032-.273a4.57,4.57,0,0,1,.606-1.866,3.526,3.526,0,0,1,1.216-1.273A2.836,2.836,0,0,1,381.907-7a2.184,2.184,0,0,1,1.663.7,2.9,2.9,0,0,1,.66,1.841,5.378,5.378,0,0,1-.025.825l-.07.527h-4.488a2.32,2.32,0,0,0,.308,1.587,1.458,1.458,0,0,0,1.26.679,2.443,2.443,0,0,0,1.879-.914l.66.559a3.021,3.021,0,0,1-1.114.974A3.157,3.157,0,0,1,381.12.127Zm.73-6.164a1.678,1.678,0,0,0-1.241.482,3.429,3.429,0,0,0-.841,1.492l3.339.006.025-.1a1.879,1.879,0,0,0-.257-1.33A1.209,1.209,0,0,0,381.85-6.037Zm7.313.216-.54-.057a1.966,1.966,0,0,0-1.739,1L386.039,0H384.89l1.193-6.868,1.111-.006-.171.8a2.054,2.054,0,0,1,1.72-.933,2.107,2.107,0,0,1,.546.1Zm3.409-2.71-.292,1.663h1.25l-.159.908h-1.244l-.717,4.272a1.49,1.49,0,0,0-.006.3.484.484,0,0,0,.54.5,3.291,3.291,0,0,0,.559-.063l-.089.958a3.125,3.125,0,0,1-.838.114,1.2,1.2,0,0,1-1.028-.5,1.952,1.952,0,0,1-.267-1.323l.7-4.253h-1.212l.159-.908h1.212l.292-1.663ZM397.922,0a1.538,1.538,0,0,1-.044-.362l.019-.362a2.816,2.816,0,0,1-2.006.851,2.052,2.052,0,0,1-1.476-.574,1.739,1.739,0,0,1-.517-1.406,2.114,2.114,0,0,1,.955-1.7A4.067,4.067,0,0,1,397.2-4.17l1.2.006.076-.546a1.255,1.255,0,0,0-.238-.974,1.149,1.149,0,0,0-.9-.371,1.772,1.772,0,0,0-1.044.289,1.229,1.229,0,0,0-.555.8l-1.155.006a1.841,1.841,0,0,1,.47-1.07,2.733,2.733,0,0,1,1.06-.724A3.424,3.424,0,0,1,397.446-7a2.277,2.277,0,0,1,1.669.651,2.018,2.018,0,0,1,.5,1.66l-.559,3.4-.032.489a2.4,2.4,0,0,0,.076.692L399.09,0Zm-1.8-.889a2,2,0,0,0,1.044-.263,2.644,2.644,0,0,0,.847-.765l.248-1.416-.87-.006A3.294,3.294,0,0,0,395.726-3a1.262,1.262,0,0,0-.654.971.983.983,0,0,0,.225.8A1.073,1.073,0,0,0,396.119-.889Zm7.5-2.558h-3.015l.171-.958h3.015Zm3.028,1.714,2.444-5.135h1.27l-4.075,8.011a2.466,2.466,0,0,1-2.184,1.65,3.741,3.741,0,0,1-.692-.114l.1-.952.3.032a1.506,1.506,0,0,0,.943-.244,2.252,2.252,0,0,0,.7-.873l.413-.787-1.187-6.722h1.2Zm6.544-1.714h-3.015l.171-.958h3.015Zm.9,0a5.344,5.344,0,0,1,.578-1.892A3.275,3.275,0,0,1,415.778-6.6a2.54,2.54,0,0,1,1.454-.4A2.145,2.145,0,0,1,419-6.164l.66-3.586h1.149L419.117,0h-1.047l.121-.736a2.532,2.532,0,0,1-2.006.863,1.9,1.9,0,0,1-1.517-.746,3.25,3.25,0,0,1-.609-1.933A6.174,6.174,0,0,1,414.089-3.447Zm1.1.656a2.38,2.38,0,0,0,.324,1.407,1.168,1.168,0,0,0,1,.514,2.075,2.075,0,0,0,1.771-1l.546-3.17A1.425,1.425,0,0,0,417.454-6a1.741,1.741,0,0,0-1.2.409,2.645,2.645,0,0,0-.787,1.2A4.942,4.942,0,0,0,415.194-2.791ZM423.9.127A2.476,2.476,0,0,1,421.9-.819a3.255,3.255,0,0,1-.609-2.355l.032-.273a4.57,4.57,0,0,1,.606-1.866,3.526,3.526,0,0,1,1.216-1.273A2.836,2.836,0,0,1,424.69-7a2.184,2.184,0,0,1,1.663.7,2.9,2.9,0,0,1,.66,1.841,5.378,5.378,0,0,1-.025.825l-.07.527H422.43a2.32,2.32,0,0,0,.308,1.587A1.458,1.458,0,0,0,424-.832a2.443,2.443,0,0,0,1.879-.914l.66.559a3.021,3.021,0,0,1-1.114.974A3.157,3.157,0,0,1,423.9.127Zm.73-6.164a1.678,1.678,0,0,0-1.241.482,3.429,3.429,0,0,0-.841,1.492l3.339.006.025-.1a1.879,1.879,0,0,0-.257-1.33A1.209,1.209,0,0,0,424.633-6.037Zm5.307-.838-.146.768A2.686,2.686,0,0,1,431.882-7a2.119,2.119,0,0,1,1.108.3,1.463,1.463,0,0,1,.625.806A2.836,2.836,0,0,1,435.894-7a1.816,1.816,0,0,1,1.517.692,2.472,2.472,0,0,1,.362,1.79L437.017,0h-1.143l.749-4.526a2.391,2.391,0,0,0,0-.6q-.121-.863-1.13-.882a1.735,1.735,0,0,0-1.139.39,1.806,1.806,0,0,0-.657,1.057L432.917,0h-1.155l.762-4.52A1.451,1.451,0,0,0,432.31-5.6,1.119,1.119,0,0,0,431.393-6a1.881,1.881,0,0,0-1.708.978L428.816,0h-1.149l1.193-6.868ZM442.99,0a1.538,1.538,0,0,1-.044-.362l.019-.362a2.816,2.816,0,0,1-2.006.851,2.052,2.052,0,0,1-1.476-.574,1.739,1.739,0,0,1-.517-1.406,2.114,2.114,0,0,1,.955-1.7,4.067,4.067,0,0,1,2.345-.613l1.2.006.076-.546a1.255,1.255,0,0,0-.238-.974,1.149,1.149,0,0,0-.9-.371,1.772,1.772,0,0,0-1.044.289,1.229,1.229,0,0,0-.555.8l-1.155.006a1.841,1.841,0,0,1,.47-1.07,2.733,2.733,0,0,1,1.06-.724A3.424,3.424,0,0,1,442.514-7a2.277,2.277,0,0,1,1.669.651,2.018,2.018,0,0,1,.5,1.66l-.559,3.4-.032.489a2.4,2.4,0,0,0,.076.692L444.158,0Zm-1.8-.889a2,2,0,0,0,1.044-.263,2.644,2.644,0,0,0,.847-.765l.248-1.416-.87-.006A3.294,3.294,0,0,0,440.794-3a1.262,1.262,0,0,0-.654.971.983.983,0,0,0,.225.8A1.073,1.073,0,0,0,441.188-.889Zm6.8-5.986-.165.87A2.708,2.708,0,0,1,449.935-7a1.7,1.7,0,0,1,1.435.673,2.614,2.614,0,0,1,.343,1.822L450.963,0h-1.149l.755-4.515a2.407,2.407,0,0,0,.006-.577A.949.949,0,0,0,449.528-6a2.162,2.162,0,0,0-1.815,1.1L446.862,0h-1.149l1.193-6.868Zm5.072,3.428a5.344,5.344,0,0,1,.578-1.892A3.275,3.275,0,0,1,454.752-6.6a2.54,2.54,0,0,1,1.454-.4,2.145,2.145,0,0,1,1.765.838l.66-3.586h1.149L458.091,0h-1.047l.121-.736a2.532,2.532,0,0,1-2.006.863,1.9,1.9,0,0,1-1.517-.746,3.25,3.25,0,0,1-.609-1.933A6.174,6.174,0,0,1,453.064-3.447Zm1.1.656a2.38,2.38,0,0,0,.324,1.407,1.168,1.168,0,0,0,1,.514,2.075,2.075,0,0,0,1.771-1l.546-3.17A1.425,1.425,0,0,0,456.428-6a1.741,1.741,0,0,0-1.2.409,2.645,2.645,0,0,0-.787,1.2A4.942,4.942,0,0,0,454.168-2.791ZM464.109,0a1.538,1.538,0,0,1-.044-.362l.019-.362a2.816,2.816,0,0,1-2.006.851A2.052,2.052,0,0,1,460.6-.448a1.739,1.739,0,0,1-.517-1.406,2.114,2.114,0,0,1,.955-1.7,4.067,4.067,0,0,1,2.345-.613l1.2.006.076-.546a1.255,1.255,0,0,0-.238-.974,1.149,1.149,0,0,0-.9-.371,1.772,1.772,0,0,0-1.044.289,1.229,1.229,0,0,0-.555.8l-1.155.006a1.841,1.841,0,0,1,.47-1.07,2.733,2.733,0,0,1,1.06-.724A3.424,3.424,0,0,1,463.633-7a2.277,2.277,0,0,1,1.669.651,2.018,2.018,0,0,1,.5,1.66l-.559,3.4-.032.489a2.4,2.4,0,0,0,.076.692L465.277,0Zm-1.8-.889a2,2,0,0,0,1.044-.263,2.644,2.644,0,0,0,.847-.765l.248-1.416-.87-.006A3.294,3.294,0,0,0,461.913-3a1.262,1.262,0,0,0-.654.971.983.983,0,0,0,.225.8A1.073,1.073,0,0,0,462.306-.889Zm5.37-.444a.687.687,0,0,1,.514.19.656.656,0,0,1,.2.508.686.686,0,0,1-.209.5.755.755,0,0,1-.508.206.656.656,0,0,1-.5-.175.656.656,0,0,1-.2-.5.72.72,0,0,1,.2-.517A.713.713,0,0,1,467.676-1.333Zm4.685-4.7a2.661,2.661,0,0,1,2.076-.958,1.672,1.672,0,0,1,1.431.663,2.614,2.614,0,0,1,.346,1.825L475.465,0h-1.149l.755-4.52a2.412,2.412,0,0,0,.006-.578A.949.949,0,0,0,474.03-6a2.113,2.113,0,0,0-1.815,1.1L471.364,0h-1.149l1.695-9.75h1.149Zm7.9-2.5-.292,1.663h1.25l-.159.908h-1.244L479.1-1.688a1.49,1.49,0,0,0-.006.3.484.484,0,0,0,.54.5,3.291,3.291,0,0,0,.559-.063L480.1.006a3.125,3.125,0,0,1-.838.114,1.2,1.2,0,0,1-1.028-.5,1.952,1.952,0,0,1-.267-1.323l.7-4.253h-1.212l.159-.908h1.212l.292-1.663Zm3.415,1.657-.146.768A2.686,2.686,0,0,1,485.615-7a2.119,2.119,0,0,1,1.108.3,1.463,1.463,0,0,1,.625.806A2.836,2.836,0,0,1,489.626-7a1.816,1.816,0,0,1,1.517.692,2.472,2.472,0,0,1,.362,1.79L490.75,0h-1.143l.749-4.526a2.391,2.391,0,0,0,0-.6q-.121-.863-1.13-.882a1.735,1.735,0,0,0-1.139.39,1.806,1.806,0,0,0-.657,1.057L486.649,0h-1.155l.762-4.52a1.451,1.451,0,0,0-.213-1.085A1.119,1.119,0,0,0,485.126-6a1.881,1.881,0,0,0-1.708.978L482.549,0H481.4l1.193-6.868ZM493.765,0h-1.143l1.688-9.75h1.149Z" transform="translate(553 1839)" fill="#12263f"/>
  </g>
</svg>
