<svg id="Grupo_974256" data-name="Grupo 974256" xmlns="http://www.w3.org/2000/svg" xmlns:xlink="http://www.w3.org/1999/xlink" width="166" height="166" viewBox="0 0 166 166">
  <defs>
    <clipPath id="clip-path">
      <rect id="Rectángulo_340225" data-name="Rectángulo 340225" width="166" height="166" transform="translate(0 0)" fill="none"/>
    </clipPath>
  </defs>
  <g id="Grupo_974255" data-name="Grupo 974255" transform="translate(0 0)" clip-path="url(#clip-path)">
    <path id="Trazado_700357" data-name="Trazado 700357" d="M173.7,55.7A49.263,49.263,0,1,1,124.439,6.439,49.263,49.263,0,0,1,173.7,55.7" transform="translate(-28.874 -2.473)" fill="#ffdeb8"/>
    <path id="Trazado_700358" data-name="Trazado 700358" d="M167.928,48.758V61.406h12.643Z" transform="translate(-64.499 -18.727)" fill="#fff"/>
    <path id="Trazado_700359" data-name="Trazado 700359" d="M137.336,61.5V46.863H92.575v83.21H152.8V62.329H138.161a.825.825,0,0,1-.825-.825" transform="translate(-35.557 -18)" fill="#b0fffd"/>
    <path id="Trazado_700360" data-name="Trazado 700360" d="M152.616,61.3a.082.082,0,0,1-.025,0h-.825v67.745H91.545V45.834h44.761v-.825a.826.826,0,0,1,.509-.762.814.814,0,0,1,.373-.052c-.02,0-.038-.012-.057-.012H90.72a.825.825,0,0,0-.825.825v84.86a.825.825,0,0,0,.825.825h61.871a.825.825,0,0,0,.825-.825V60.6a.814.814,0,0,1-.8.7" transform="translate(-34.528 -16.971)" fill="#303030"/>
    <path id="Trazado_700361" data-name="Trazado 700361" d="M167.013,44.269a.8.8,0,0,1,.081.029.751.751,0,0,0-.081-.029" transform="translate(-64.148 -17.003)" fill="#303030"/>
    <path id="Trazado_700362" data-name="Trazado 700362" d="M182.895,59.94,167.536,44.576l15.351,15.358.008.006" transform="translate(-64.349 -17.121)" fill="#303030"/>
    <rect id="Rectángulo_340217" data-name="Rectángulo 340217" width="0.001" height="17.885" transform="translate(103.428 30.03) rotate(-44.989)" fill="#303030"/>
    <path id="Trazado_700363" data-name="Trazado 700363" d="M165.758,44.252a.827.827,0,0,0-.509.762V60.479a.825.825,0,0,0,.825.825h15.461a.082.082,0,0,0,.025,0,.824.824,0,0,0,.458-1.51l-.007-.006L166.658,44.431a.829.829,0,0,0-.241-.161c-.026-.012-.054-.019-.081-.028a.793.793,0,0,0-.2-.041.827.827,0,0,0-.373.052m1.141,2.754v0l12.645,12.65H166.9Z" transform="translate(-63.47 -16.976)" fill="#303030"/>
    <path id="Trazado_700364" data-name="Trazado 700364" d="M213.032,87.667v12.648h12.644Z" transform="translate(-81.823 -33.672)" fill="#fff"/>
    <path id="Trazado_700365" data-name="Trazado 700365" d="M182.44,100.412V85.772H137.679v83.21H197.9V101.238H183.265a.825.825,0,0,1-.825-.825" transform="translate(-52.881 -32.944)" fill="#d4fffd"/>
    <path id="Trazado_700366" data-name="Trazado 700366" d="M197.721,100.209a.082.082,0,0,1-.025,0h-.825v67.745H136.65V84.743h44.761v-.825a.8.8,0,0,1,.883-.814c-.02,0-.038-.012-.057-.012H135.825a.825.825,0,0,0-.825.825v84.86a.825.825,0,0,0,.825.825H197.7a.824.824,0,0,0,.825-.825V99.506a.814.814,0,0,1-.8.7" transform="translate(-51.852 -31.915)" fill="#303030"/>
    <path id="Trazado_700367" data-name="Trazado 700367" d="M212.117,83.178a.8.8,0,0,1,.081.029.75.75,0,0,0-.081-.029" transform="translate(-81.472 -31.948)" fill="#303030"/>
    <path id="Trazado_700368" data-name="Trazado 700368" d="M228,98.85,212.641,83.485l15.351,15.358.008.007" transform="translate(-81.673 -32.066)" fill="#303030"/>
    <rect id="Rectángulo_340218" data-name="Rectángulo 340218" width="0.001" height="17.885" transform="translate(131.209 53.995) rotate(-44.989)" fill="#303030"/>
    <path id="Trazado_700369" data-name="Trazado 700369" d="M210.862,83.161a.826.826,0,0,0-.509.762V99.388a.824.824,0,0,0,.825.825h15.46a.058.058,0,0,0,.025,0,.824.824,0,0,0,.457-1.51l-.007-.006L211.762,83.34a.82.82,0,0,0-.241-.161.844.844,0,0,0-.081-.028.8.8,0,0,0-.2-.041.829.829,0,0,0-.373.052M212,85.915v0l12.645,12.65H212Z" transform="translate(-80.794 -31.92)" fill="#303030"/>
    <path id="Trazado_700370" data-name="Trazado 700370" d="M46.851,243.925h.206a.825.825,0,0,1-.206-.042Z" transform="translate(-17.995 -93.673)" fill="#fff"/>
    <path id="Trazado_700371" data-name="Trazado 700371" d="M68.276,104.134V113.9H76.17v-4.616l-3.163,2.7-2.424-3.089a1.018,1.018,0,1,1,1.6-1.257l1.115,1.42,2.87-2.448v-2.475Z" transform="translate(-26.224 -39.997)" fill="#ffc403"/>
    <path id="Trazado_700372" data-name="Trazado 700372" d="M68.276,134.41v9.768H76.17v-4.616l-3.163,2.7-2.424-3.088a1.018,1.018,0,1,1,1.6-1.256l1.114,1.419,2.871-2.448V134.41Z" transform="translate(-26.224 -51.625)" fill="#ffc403"/>
    <path id="Trazado_700373" data-name="Trazado 700373" d="M68.276,198.047v9.768H76.17V203.2l-3.163,2.7-2.424-3.088a1.018,1.018,0,0,1,1.6-1.256L73.3,202.97l2.871-2.449v-2.474Z" transform="translate(-26.224 -76.068)" fill="#ffc403"/>
    <path id="Trazado_700374" data-name="Trazado 700374" d="M164.1,243.741h.679V243.4a.87.87,0,0,1-.679.338" transform="translate(-63.029 -93.488)" fill="#fff"/>
    <path id="Trazado_700375" data-name="Trazado 700375" d="M113.328,86.153a.868.868,0,0,1-.866-.87V81.789h-7.579v3.493a.866.866,0,1,1-1.733,0V81.789H95.575v3.493a.866.866,0,1,1-1.732,0V81.789H86.267v3.493a.866.866,0,1,1-1.732,0V81.789H76.959v3.493a.866.866,0,1,1-1.732,0V81.789H67.652v3.493a.867.867,0,1,1-1.733,0V81.789H58.34v3.493a.866.866,0,1,1-1.732,0V81.789H51.027V179.9h68.757V81.789h-5.59v3.493a.869.869,0,0,1-.867.87M76.739,153.611l-4.4,3.777v6.9a.868.868,0,0,1-.866.87H62.011a.868.868,0,0,1-.866-.87V152.931a.868.868,0,0,1,.866-.87H71.47a.868.868,0,0,1,.866.87v1.821l3.11-2.668a1,1,0,0,1,1.4.112,1.007,1.007,0,0,1-.111,1.414m0-19.864-4.4,3.777v6.9a.868.868,0,0,1-.866.87H62.011a.868.868,0,0,1-.866-.87V133.067a.868.868,0,0,1,.866-.87H71.47a.868.868,0,0,1,.866.87v1.821l3.11-2.667a.994.994,0,0,1,1.4.112,1.007,1.007,0,0,1-.111,1.414m0-18.728-4.4,3.777v6.9a.868.868,0,0,1-.866.87H62.011a.868.868,0,0,1-.866-.87V114.339a.868.868,0,0,1,.866-.87H71.47a.868.868,0,0,1,.866.87v1.821l3.11-2.667a1,1,0,0,1,1.4.112,1.007,1.007,0,0,1-.111,1.414m0-18.36-4.4,3.777v6.9a.868.868,0,0,1-.866.87H62.011a.868.868,0,0,1-.866-.87V95.979a.868.868,0,0,1,.866-.871H71.47a.868.868,0,0,1,.866.871V97.8l3.11-2.668a.994.994,0,0,1,1.4.113,1.007,1.007,0,0,1-.111,1.414m31.505,66.76H79.276c-.308,0-.557-.39-.557-.87s.249-.87.557-.87h28.968c.308,0,.557.389.557.87s-.249.87-.557.87m.133-5.209H86.342c-.234,0-.424-.39-.424-.87s.19-.87.424-.87h22.035c.234,0,.424.389.424.87s-.19.87-.424.87m-.133-4.491H79.276c-.308,0-.557-.39-.557-.871s.249-.87.557-.87h28.968c.308,0,.557.39.557.87s-.249.871-.557.871m0-10.164H79.276c-.308,0-.557-.39-.557-.871s.249-.87.557-.87h28.968c.308,0,.557.389.557.87s-.249.871-.557.871m.133-5.21H86.342c-.234,0-.424-.39-.424-.87s.19-.87.424-.87h22.035c.234,0,.424.39.424.87s-.19.87-.424.87m-.133-4.491H79.276c-.308,0-.557-.39-.557-.871s.249-.87.557-.87h28.968c.308,0,.557.39.557.87s-.249.871-.557.871m0-9.028H79.276c-.308,0-.557-.389-.557-.87s.249-.87.557-.87h28.968c.308,0,.557.39.557.87s-.249.87-.557.87m.133-5.209H86.342c-.234,0-.424-.39-.424-.87s.19-.87.424-.87h22.035c.234,0,.424.389.424.87s-.19.87-.424.87m-.133-4.491H79.276c-.308,0-.557-.389-.557-.87s.249-.87.557-.87h28.968c.308,0,.557.39.557.87s-.249.87-.557.87m0-8.659H79.276c-.308,0-.557-.39-.557-.87s.249-.871.557-.871h28.968c.308,0,.557.39.557.871s-.249.87-.557.87m.133-5.209H86.342c-.234,0-.424-.39-.424-.871s.19-.87.424-.87h22.035c.234,0,.424.39.424.87s-.19.871-.424.871m-.133-4.491H79.276c-.308,0-.557-.39-.557-.87s.249-.87.557-.87h28.968c.308,0,.557.389.557.87s-.249.87-.557.87" transform="translate(-19.599 -31.414)" fill="#d4fffd"/>
    <path id="Trazado_700376" data-name="Trazado 700376" d="M68.276,165.291v9.768H76.17v-4.616l-3.163,2.7-2.424-3.088a1.018,1.018,0,1,1,1.6-1.256l1.114,1.419,2.871-2.448v-2.475Z" transform="translate(-26.224 -63.486)" fill="#ffc403"/>
    <path id="Trazado_700377" data-name="Trazado 700377" d="M119.526,77.314a.884.884,0,0,0-.884-.884h-6.6V78.2h5.711V177.84H47.518V78.2h5.7V76.43H46.633a.884.884,0,0,0-.885.884v101.41a.872.872,0,0,0,.679.843.858.858,0,0,0,.206.042h72.009a.918.918,0,0,0,.884-.884Z" transform="translate(-17.571 -29.356)" fill="#303030"/>
    <rect id="Rectángulo_340219" data-name="Rectángulo 340219" width="7.739" height="1.768" transform="translate(65.946 47.073)" fill="#303030"/>
    <rect id="Rectángulo_340220" data-name="Rectángulo 340220" width="7.74" height="1.768" transform="translate(46.929 47.073)" fill="#303030"/>
    <rect id="Rectángulo_340221" data-name="Rectángulo 340221" width="7.738" height="1.768" transform="translate(75.455 47.073)" fill="#303030"/>
    <rect id="Rectángulo_340222" data-name="Rectángulo 340222" width="7.74" height="1.768" transform="translate(56.437 47.073)" fill="#303030"/>
    <rect id="Rectángulo_340223" data-name="Rectángulo 340223" width="7.742" height="1.768" transform="translate(37.418 47.073)" fill="#303030"/>
    <rect id="Rectángulo_340224" data-name="Rectángulo 340224" width="7.743" height="1.768" transform="translate(84.962 47.073)" fill="#303030"/>
    <path id="Trazado_700378" data-name="Trazado 700378" d="M75.066,112.8H67.173v-9.768h7.894v2.475L76.836,104v-1.85a.885.885,0,0,0-.885-.884H66.287a.885.885,0,0,0-.884.884v11.535a.885.885,0,0,0,.884.884H75.95a.885.885,0,0,0,.885-.884v-7.009l-1.77,1.509Z" transform="translate(-25.121 -38.894)" fill="#303030"/>
    <path id="Trazado_700379" data-name="Trazado 700379" d="M124.714,101.127H95.121c-.314,0-.568.4-.568.884s.254.884.568.884h29.593c.314,0,.569-.4.569-.884s-.255-.884-.569-.884" transform="translate(-36.317 -38.842)" fill="#303030"/>
    <path id="Trazado_700380" data-name="Trazado 700380" d="M124.714,117.122H95.121c-.314,0-.568.4-.568.884s.254.884.568.884h29.593c.314,0,.569-.4.569-.884s-.255-.884-.569-.884" transform="translate(-36.317 -44.985)" fill="#303030"/>
    <path id="Trazado_700381" data-name="Trazado 700381" d="M129.436,108.532h-22.51c-.239,0-.433.4-.433.884s.194.884.433.884h22.51c.239,0,.433-.4.433-.884s-.194-.884-.433-.884" transform="translate(-40.903 -41.686)" fill="#303030"/>
    <path id="Trazado_700382" data-name="Trazado 700382" d="M104.2,75.434v3.548a.885.885,0,0,0,1.77,0V70.117a.885.885,0,0,0-1.77,0v5.317Z" transform="translate(-40.021 -26.592)" fill="#303030"/>
    <path id="Trazado_700383" data-name="Trazado 700383" d="M150.518,75.434v3.548a.885.885,0,0,0,1.77,0V70.117a.885.885,0,0,0-1.77,0v5.317Z" transform="translate(-57.812 -26.592)" fill="#303030"/>
    <path id="Trazado_700384" data-name="Trazado 700384" d="M135.073,75.434v3.548a.885.885,0,0,0,1.77,0V70.117a.885.885,0,0,0-1.77,0v5.317Z" transform="translate(-51.88 -26.592)" fill="#303030"/>
    <path id="Trazado_700385" data-name="Trazado 700385" d="M119.636,75.434v3.548a.885.885,0,0,0,1.77,0V70.117a.885.885,0,0,0-1.77,0v5.317Z" transform="translate(-45.951 -26.592)" fill="#303030"/>
    <path id="Trazado_700386" data-name="Trazado 700386" d="M57.879,75.434v3.548a.885.885,0,0,0,1.77,0V70.117a.885.885,0,0,0-1.77,0v5.317Z" transform="translate(-22.231 -26.592)" fill="#303030"/>
    <path id="Trazado_700387" data-name="Trazado 700387" d="M88.76,75.434v3.548a.885.885,0,0,0,1.77,0V70.117a.885.885,0,0,0-1.77,0v5.317Z" transform="translate(-34.092 -26.592)" fill="#303030"/>
    <path id="Trazado_700388" data-name="Trazado 700388" d="M73.321,75.434v3.548a.885.885,0,0,0,1.77,0V70.117a.885.885,0,0,0-1.77,0v5.317Z" transform="translate(-28.162 -26.592)" fill="#303030"/>
    <path id="Trazado_700389" data-name="Trazado 700389" d="M82.419,101.153l-3.176,2.709-1.77,1.51L74.6,107.819l-1.115-1.42a1.018,1.018,0,1,0-1.6,1.257l2.424,3.089,3.163-2.7,1.77-1.509,4.5-3.836a1.018,1.018,0,1,0-1.322-1.55" transform="translate(-27.527 -38.758)" fill="#303030"/>
    <path id="Trazado_700390" data-name="Trazado 700390" d="M75.066,143.074H67.173v-9.768h7.894v2.475l1.77-1.509v-1.85a.885.885,0,0,0-.885-.884H66.287a.885.885,0,0,0-.884.884v11.535a.885.885,0,0,0,.884.884H75.95a.885.885,0,0,0,.885-.884v-7.008l-1.77,1.509Z" transform="translate(-25.121 -50.522)" fill="#303030"/>
    <path id="Trazado_700391" data-name="Trazado 700391" d="M124.714,131.4H95.121c-.314,0-.568.4-.568.884s.254.884.568.884h29.593c.314,0,.569-.4.569-.884s-.255-.884-.569-.884" transform="translate(-36.317 -50.47)" fill="#303030"/>
    <path id="Trazado_700392" data-name="Trazado 700392" d="M124.714,147.4H95.121c-.314,0-.568.4-.568.884s.254.884.568.884h29.593c.314,0,.569-.4.569-.884s-.255-.884-.569-.884" transform="translate(-36.317 -56.614)" fill="#303030"/>
    <path id="Trazado_700393" data-name="Trazado 700393" d="M129.436,138.807h-22.51c-.239,0-.433.4-.433.884s.194.884.433.884h22.51c.239,0,.433-.4.433-.884s-.194-.884-.433-.884" transform="translate(-40.903 -53.314)" fill="#303030"/>
    <path id="Trazado_700394" data-name="Trazado 700394" d="M82.419,131.428l-3.176,2.709-1.77,1.509L74.6,138.094l-1.114-1.419a1.018,1.018,0,1,0-1.6,1.257l2.424,3.088,3.163-2.7,1.77-1.509,4.5-3.837a1.018,1.018,0,0,0-1.322-1.55" transform="translate(-27.527 -50.387)" fill="#303030"/>
    <path id="Trazado_700395" data-name="Trazado 700395" d="M75.066,173.956H67.173v-9.767h7.894v2.475l1.77-1.51V163.3a.884.884,0,0,0-.885-.884H66.287a.884.884,0,0,0-.884.884v11.536a.884.884,0,0,0,.884.884H75.95a.884.884,0,0,0,.885-.884v-7.01l-1.77,1.51Z" transform="translate(-25.121 -62.384)" fill="#303030"/>
    <path id="Trazado_700396" data-name="Trazado 700396" d="M124.714,162.284H95.121c-.314,0-.568.4-.568.884s.254.884.568.884h29.593c.314,0,.569-.4.569-.884s-.255-.884-.569-.884" transform="translate(-36.317 -62.332)" fill="#303030"/>
    <path id="Trazado_700397" data-name="Trazado 700397" d="M124.714,178.28H95.121c-.314,0-.568.4-.568.884s.254.884.568.884h29.593c.314,0,.569-.4.569-.884s-.255-.884-.569-.884" transform="translate(-36.317 -68.475)" fill="#303030"/>
    <path id="Trazado_700398" data-name="Trazado 700398" d="M129.436,169.689h-22.51c-.239,0-.433.4-.433.884s.194.884.433.884h22.51c.239,0,.433-.4.433-.884s-.194-.884-.433-.884" transform="translate(-40.903 -65.176)" fill="#303030"/>
    <path id="Trazado_700399" data-name="Trazado 700399" d="M82.419,162.31l-3.176,2.709-1.77,1.509L74.6,168.976l-1.114-1.419a1.018,1.018,0,1,0-1.6,1.257l2.424,3.088,3.163-2.7,1.77-1.509,4.5-3.836a1.018,1.018,0,0,0-1.322-1.55" transform="translate(-27.527 -62.248)" fill="#303030"/>
    <path id="Trazado_700400" data-name="Trazado 700400" d="M75.066,206.712H67.173v-9.768h7.894v2.475l1.77-1.509v-1.85a.885.885,0,0,0-.885-.884H66.287a.885.885,0,0,0-.884.884V207.6a.885.885,0,0,0,.884.884H75.95a.885.885,0,0,0,.885-.884v-7.009l-1.77,1.509Z" transform="translate(-25.121 -74.965)" fill="#303030"/>
    <path id="Trazado_700401" data-name="Trazado 700401" d="M124.714,195.039H95.121c-.314,0-.568.4-.568.884s.254.884.568.884h29.593c.314,0,.569-.4.569-.884s-.255-.884-.569-.884" transform="translate(-36.317 -74.912)" fill="#303030"/>
    <path id="Trazado_700402" data-name="Trazado 700402" d="M124.714,211.035H95.121c-.314,0-.568.4-.568.884s.254.884.568.884h29.593c.314,0,.569-.4.569-.884s-.255-.884-.569-.884" transform="translate(-36.317 -81.056)" fill="#303030"/>
    <path id="Trazado_700403" data-name="Trazado 700403" d="M129.436,202.445h-22.51c-.239,0-.433.4-.433.884s.194.884.433.884h22.51c.239,0,.433-.4.433-.884s-.194-.884-.433-.884" transform="translate(-40.903 -77.757)" fill="#303030"/>
    <path id="Trazado_700404" data-name="Trazado 700404" d="M82.419,195.066l-3.176,2.709-1.77,1.509L74.6,201.732l-1.114-1.419a1.018,1.018,0,1,0-1.6,1.257l2.424,3.088,3.163-2.7,1.77-1.509,4.5-3.837a1.018,1.018,0,0,0-1.322-1.55" transform="translate(-27.527 -74.829)" fill="#303030"/>
    <path id="Trazado_700405" data-name="Trazado 700405" d="M200.649,239.265a2.116,2.116,0,0,0-1.829,3.184,2.177,2.177,0,0,0,2.894.77,2.119,2.119,0,0,0-1.064-3.954" transform="translate(-76.256 -91.899)" fill="#fff"/>
    <path id="Trazado_700406" data-name="Trazado 700406" d="M188.109,210.315l-11.032,6.405,13.912,23.665,10.939-6.346Zm6.052,22.977a3.5,3.5,0,1,1,1.281-4.773,3.5,3.5,0,0,1-1.281,4.773" transform="translate(-68.013 -80.78)" fill="#b20d0d"/>
    <path id="Trazado_700407" data-name="Trazado 700407" d="M202.826,238.779a3.5,3.5,0,1,0-1.281,4.773,3.513,3.513,0,0,0,1.281-4.773m-1.972,3.58a2.177,2.177,0,0,1-2.894-.771,2.12,2.12,0,1,1,2.894.771" transform="translate(-75.398 -91.039)" fill="#303030"/>
    <path id="Trazado_700408" data-name="Trazado 700408" d="M179.192,210.481a.691.691,0,0,1-.6-.345l-5.148-8.914a.689.689,0,0,1,.32-.977,21.132,21.132,0,0,0,2.058-1.035,20.552,20.552,0,0,0,1.922-1.269.7.7,0,0,1,.552-.123.683.683,0,0,1,.458.33l5.148,8.925a.689.689,0,0,1-.253.942l-4.117,2.374a.693.693,0,0,1-.344.092m-4.173-9.292,4.425,7.661,2.924-1.685-4.423-7.668c-.44.3-.912.6-1.426.9q-.732.419-1.5.787" transform="translate(-66.584 -75.975)" fill="#303030"/>
    <path id="Trazado_700409" data-name="Trazado 700409" d="M190.458,240.778a.7.7,0,0,1-.178-.023.691.691,0,0,1-.419-.321L176.03,216.472a.69.69,0,0,1,.253-.942l11.23-6.475a.691.691,0,0,1,.941.253l13.83,23.95a.69.69,0,0,1-.252.941L190.8,240.685a.692.692,0,0,1-.345.093m-12.89-24.4,13.142,22.768,10.035-5.8L187.6,210.593Z" transform="translate(-67.576 -80.26)" fill="#303030"/>
    <path id="Trazado_700410" data-name="Trazado 700410" d="M143.112,174.722a24.02,24.02,0,0,0,2.688-47.89c-.162-.017-.323-.034-.485-.049-.265-.024-.532-.045-.8-.06q-.518-.029-1.039-.035c-.1,0-.209-.007-.314-.008A24.152,24.152,0,0,0,119.1,150.248c0,.1-.007.192-.007.288,0,.159,0,.317,0,.475a24.018,24.018,0,0,0,24.014,23.711m-15.251-24.267a17.861,17.861,0,0,1,30.719,0,.689.689,0,0,1,0,.7,17.872,17.872,0,0,1-30.719,0,.689.689,0,0,1,0-.7" transform="translate(-45.743 -48.656)" fill="#ffdeb8"/>
    <path id="Trazado_700411" data-name="Trazado 700411" d="M163.994,154.339q.347.207.671.447l.156.116a8.272,8.272,0,0,1,.64.552c.023.023.049.044.073.067a7.927,7.927,0,0,1,.605.672c.065.081.124.166.186.249.116.155.227.314.331.478.071.111.141.224.207.339.089.156.169.317.248.479.044.091.1.175.138.267.007.015.008.032.014.048a7.94,7.94,0,0,1-4.621,10.605,16.587,16.587,0,0,0,11.262-7.475,16.584,16.584,0,0,0-11.268-7.485,7.807,7.807,0,0,1,1.237.567c.041.023.08.049.121.073" transform="translate(-62.467 -59.034)" fill="#fff"/>
    <path id="Trazado_700412" data-name="Trazado 700412" d="M155.782,160.29a2.22,2.22,0,1,1-.643-.49,4.187,4.187,0,0,1-1.088-4.628,6.612,6.612,0,1,0,6.478,4.927,4.216,4.216,0,0,1-4.747.19" transform="translate(-56.685 -59.6)" fill="#b0fffd"/>
    <path id="Trazado_700413" data-name="Trazado 700413" d="M162.925,156.649c-.055-.043-.111-.084-.168-.126q-.2-.148-.414-.28c-.057-.035-.113-.071-.172-.1-.143-.084-.292-.16-.442-.233-.063-.03-.125-.062-.189-.091-.144-.065-.293-.12-.442-.174-.075-.027-.149-.059-.225-.083-.124-.04-.253-.069-.38-.1-.1-.025-.189-.054-.286-.074a2.872,2.872,0,0,0,4.52,3.44c-.017-.034-.031-.069-.049-.1-.035-.066-.076-.128-.114-.193a6.628,6.628,0,0,0-.371-.566c-.082-.111-.161-.225-.25-.331-.054-.065-.113-.124-.169-.187-.1-.112-.2-.224-.312-.33-.054-.053-.112-.1-.168-.153-.119-.108-.241-.213-.367-.312" transform="translate(-61.399 -59.68)" fill="#d9eaef"/>
    <path id="Trazado_700414" data-name="Trazado 700414" d="M146.87,168.659a7.943,7.943,0,0,1,.006-14.96,16.585,16.585,0,0,0-11.274,7.486,16.586,16.586,0,0,0,11.267,7.475" transform="translate(-52.084 -59.034)" fill="#fff"/>
    <path id="Trazado_700415" data-name="Trazado 700415" d="M156.964,165.348a.806.806,0,1,0,.806-.81.805.805,0,0,0-.806.81" transform="translate(-60.288 -63.197)" fill="#d9eaef"/>
    <path id="Trazado_700416" data-name="Trazado 700416" d="M164.447,137.19a25.491,25.491,0,0,0-34.834-9.329,25.5,25.5,0,0,0-9.335,34.832,25.5,25.5,0,1,0,44.169-25.5m-10.023,33.648a24.133,24.133,0,0,1-36.188-20.687c0-.159-.006-.317,0-.475,0-.1,0-.192.007-.288a24.3,24.3,0,0,1,.822-5.689A24.137,24.137,0,0,1,142.3,125.82h.039c.092,0,.184.008.276.009.347,0,.694.015,1.038.034.267.015.533.038.8.061.162.014.324.031.485.049a24.113,24.113,0,0,1,9.486,44.866" transform="translate(-44.881 -47.796)" fill="#303030"/>
    <path id="Trazado_700417" data-name="Trazado 700417" d="M148.632,169.267a17.957,17.957,0,0,0,15.356-8.735.687.687,0,0,0,0-.7,17.862,17.862,0,0,0-30.719,0,.689.689,0,0,0,0,.7,17.961,17.961,0,0,0,15.363,8.735m-2.689-16.572a7.629,7.629,0,0,1,3.7-.406.741.741,0,0,1,.083,0c.079.011.153.035.232.048q.292.049.575.12c.1.026.207.05.309.08.163.047.321.1.479.158a16.586,16.586,0,0,1,11.268,7.486,16.592,16.592,0,0,1-11.262,7.475,7.826,7.826,0,0,1-5.389,0,16.586,16.586,0,0,1-11.267-7.475,16.583,16.583,0,0,1,11.274-7.486" transform="translate(-51.15 -58.03)" fill="#303030"/>
    <path id="Trazado_700418" data-name="Trazado 700418" d="M166.9,159.568a6.626,6.626,0,0,1,.371.566,6.675,6.675,0,0,0-.371-.566" transform="translate(-64.103 -61.288)" fill="#303030"/>
    <path id="Trazado_700419" data-name="Trazado 700419" d="M167.74,160.9c-.017-.033-.039-.063-.057-.1.018.033.032.069.049.1l.007-.006" transform="translate(-64.405 -61.762)" fill="#303030"/>
    <path id="Trazado_700420" data-name="Trazado 700420" d="M165.6,158.1c-.055-.053-.112-.1-.168-.153.056.05.114.1.168.153" transform="translate(-63.542 -60.665)" fill="#303030"/>
    <path id="Trazado_700421" data-name="Trazado 700421" d="M169.749,159.959c-.078-.163-.159-.323-.248-.479.089.156.169.317.248.479" transform="translate(-65.104 -61.255)" fill="#303030"/>
    <path id="Trazado_700422" data-name="Trazado 700422" d="M166.215,158.728c.056.063.116.122.17.187-.054-.065-.114-.124-.17-.187" transform="translate(-63.841 -60.966)" fill="#303030"/>
    <path id="Trazado_700423" data-name="Trazado 700423" d="M164.567,157.234c.057.041.113.083.168.126-.055-.043-.111-.084-.168-.126" transform="translate(-63.208 -60.392)" fill="#303030"/>
    <path id="Trazado_700424" data-name="Trazado 700424" d="M162.591,156.083c.064.028.126.06.188.091-.063-.031-.124-.063-.188-.091" transform="translate(-62.449 -59.95)" fill="#303030"/>
    <path id="Trazado_700425" data-name="Trazado 700425" d="M161.507,155.666c.076.025.15.055.225.083-.075-.028-.149-.059-.225-.083" transform="translate(-62.033 -59.79)" fill="#303030"/>
    <path id="Trazado_700426" data-name="Trazado 700426" d="M163.574,154.167a7.936,7.936,0,0,0-1.236-.567c-.158-.057-.317-.111-.479-.159a8,8,0,0,1,1.715.726" transform="translate(-62.168 -58.935)" fill="#303030"/>
    <path id="Trazado_700427" data-name="Trazado 700427" d="M163.616,156.61c.058.034.115.069.172.1-.057-.036-.114-.071-.172-.1" transform="translate(-62.843 -60.152)" fill="#303030"/>
    <path id="Trazado_700428" data-name="Trazado 700428" d="M160.425,155.376v0c.1.02.191.049.286.074-.1-.025-.188-.057-.285-.077" transform="translate(-61.617 -59.678)" fill="#303030"/>
    <path id="Trazado_700429" data-name="Trazado 700429" d="M167.342,156.657a8.153,8.153,0,0,1,.606.672,7.937,7.937,0,0,0-.606-.672" transform="translate(-64.274 -60.17)" fill="#303030"/>
    <path id="Trazado_700430" data-name="Trazado 700430" d="M166.823,156.2a8.029,8.029,0,0,0-.64-.552,7.906,7.906,0,0,1,.64.552" transform="translate(-63.829 -59.785)" fill="#303030"/>
    <path id="Trazado_700431" data-name="Trazado 700431" d="M168.958,158.63c-.1-.164-.216-.322-.331-.478q.174.233.331.478" transform="translate(-64.768 -60.744)" fill="#303030"/>
    <path id="Trazado_700432" data-name="Trazado 700432" d="M165.512,155.186a8.04,8.04,0,0,0-.671-.447c.231.137.455.287.671.447" transform="translate(-63.314 -59.434)" fill="#303030"/>
    <path id="Trazado_700433" data-name="Trazado 700433" d="M145.344,160.887a7.96,7.96,0,1,0,15.278-3.131.687.687,0,0,1-.1.647,4.265,4.265,0,0,1-.856.834,6.578,6.578,0,1,1-6.478-4.927,4.211,4.211,0,0,1,.562-1.046.684.684,0,0,1,.564-.268,7.969,7.969,0,0,0-8.973,7.892" transform="translate(-55.825 -58.736)" fill="#303030"/>
    <path id="Trazado_700434" data-name="Trazado 700434" d="M160.423,153.118c.194.033.386.072.575.119-.19-.047-.381-.087-.575-.119" transform="translate(-61.617 -58.811)" fill="#303030"/>
    <path id="Trazado_700435" data-name="Trazado 700435" d="M154.726,164.488a2.184,2.184,0,1,0,3.8-1.46,4.264,4.264,0,0,1-.644-.49,2.152,2.152,0,0,0-.971-.239,2.19,2.19,0,0,0-2.185,2.189m2.991,0a.806.806,0,1,1-.806-.81.8.8,0,0,1,.806.81" transform="translate(-59.429 -62.337)" fill="#303030"/>
    <path id="Trazado_700436" data-name="Trazado 700436" d="M158.468,153.307a4.2,4.2,0,0,0-.562,1.046,4.25,4.25,0,0,0,3.964,5.758,4.281,4.281,0,0,0,3.368-1.665.682.682,0,0,0,.1-.646c-.006-.015-.007-.032-.014-.047-.04-.092-.094-.177-.138-.267-.079-.163-.159-.323-.248-.479-.066-.116-.135-.228-.206-.34q-.158-.246-.332-.477c-.062-.083-.12-.169-.185-.249a8.15,8.15,0,0,0-.606-.672c-.024-.023-.05-.044-.073-.067a8.114,8.114,0,0,0-.64-.552c-.052-.04-.1-.078-.156-.116a7.889,7.889,0,0,0-.671-.447c-.041-.025-.08-.05-.121-.074a7.99,7.99,0,0,0-1.715-.725c-.1-.03-.206-.054-.309-.08-.19-.047-.382-.086-.575-.119-.078-.013-.153-.037-.232-.048a.737.737,0,0,0-.083,0,.684.684,0,0,0-.564.268m4.133,2.906c.108.105.21.217.312.33.057.063.116.122.17.187.088.107.168.22.249.331a6.678,6.678,0,0,1,.371.566c.038.065.079.127.114.193.018.033.04.063.057.1l-.008.006a2.836,2.836,0,0,1-2,.811,2.874,2.874,0,0,1-2.523-4.251v0c.1.02.19.052.285.076.128.033.256.062.38.1.076.025.15.055.225.083.15.054.3.11.442.174.064.028.126.06.189.091.15.073.3.149.443.233.058.034.115.07.172.1q.212.132.413.28c.057.041.113.083.168.126.127.1.248.2.367.312.056.051.113.1.168.153" transform="translate(-60.539 -58.78)" fill="#303030"/>
    <path id="Trazado_700437" data-name="Trazado 700437" d="M70.276,54.688a4.61,4.61,0,1,1,4.61-4.61,4.616,4.616,0,0,1-4.61,4.61m0-6.841a2.231,2.231,0,1,0,2.231,2.231,2.233,2.233,0,0,0-2.231-2.231" transform="translate(-25.222 -17.464)" fill="#303030"/>
    <path id="Trazado_700438" data-name="Trazado 700438" d="M32.525,248.135a4.109,4.109,0,1,1,4.109-4.109,4.114,4.114,0,0,1-4.109,4.109m0-5.839a1.73,1.73,0,1,0,1.729,1.73,1.732,1.732,0,0,0-1.729-1.73" transform="translate(-10.914 -92.15)" fill="#303030"/>
    <path id="Trazado_700439" data-name="Trazado 700439" d="M222.547,237.083a4.109,4.109,0,1,1,4.109-4.109,4.114,4.114,0,0,1-4.109,4.109m0-5.839a1.73,1.73,0,1,0,1.73,1.73,1.731,1.731,0,0,0-1.73-1.73" transform="translate(-83.9 -87.905)" fill="#303030"/>
    <path id="Trazado_700440" data-name="Trazado 700440" d="M24.551,131.636a1.927,1.927,0,1,1-1.927-1.927,1.927,1.927,0,0,1,1.927,1.927" transform="translate(-7.949 -49.82)" fill="#303030"/>
    <path id="Trazado_700441" data-name="Trazado 700441" d="M206.139,75.229a1.927,1.927,0,1,1-1.927-1.927,1.927,1.927,0,0,1,1.927,1.927" transform="translate(-77.696 -28.154)" fill="#303030"/>
  </g>
</svg>
