<svg id="Grupo_974796" data-name="Grupo 974796" xmlns="http://www.w3.org/2000/svg" xmlns:xlink="http://www.w3.org/1999/xlink" width="159" height="159.912" viewBox="0 0 159 159.912">
  <defs>
    <clipPath id="clip-path">
      <rect id="Rectángulo_349132" data-name="Rectángulo 349132" width="159" height="159.912" fill="none"/>
    </clipPath>
  </defs>
  <g id="Grupo_974795" data-name="Grupo 974795" clip-path="url(#clip-path)">
    <path id="Trazado_705059" data-name="Trazado 705059" d="M41.8,122.471c4.353-4.2,8.677-8.351,12.98-12.527.38-.369.615-.345,1-.049,1.27.968,2.524,1.965,3.861,2.833a36.611,36.611,0,0,0,13.79,5.221,37.155,37.155,0,0,0,25.026-4.439c2.032-1.131,3.9-2.565,5.892-3.9.153.135.378.318.587.52,4.068,3.922,8.125,7.856,12.213,11.757.485.462.54.732.149,1.306a22.787,22.787,0,0,0,4.368,30.979,21.966,21.966,0,0,0,19.739,4.374,22.715,22.715,0,0,0,16.758-27.5c-1.843-7.084-5.864-12.541-12.682-15.52-7.876-3.441-15.487-2.831-22.675,2.011-.545.367-1.054.786-1.592,1.19-.224-.2-.407-.352-.579-.516q-3.782-3.623-7.564-7.247c-1.543-1.471-3.11-2.917-4.657-4.384-.3-.285-.656-.539-.18-1.043A33.833,33.833,0,0,0,115.3,94.22a37.778,37.778,0,0,0,2.576-18.194,38.362,38.362,0,0,0-8.295-19.961c-.4-.493-.372-.811.082-1.277q5.192-5.325,10.332-10.7c.677-.7,1.34-1.424,1.99-2.116,12.007,8.54,25.76,4.306,32.291-4.361A23.038,23.038,0,0,0,122.044,5.275a22.682,22.682,0,0,0-8.656,14.143c-1.31,7.1.63,13.393,5.032,19.02-.136.158-.25.3-.377.436q-5.956,6.254-11.906,12.514c-.418.442-.659.294-1.052-.017a51.032,51.032,0,0,0-5.265-4.014c-8.528-5.084-17.67-7-27.5-4.971a36.281,36.281,0,0,0-17.469,8.595c-.964.874-.972.861-1.882-.1q-4.1-4.32-8.208-8.637c-1.207-1.266-2.432-2.516-3.643-3.768,8.4-9.766,6.864-24.479-2.469-32.7a23,23,0,0,0-30.525.034C-.647,13.647-2.655,26.164,4.275,36.647a21.9,21.9,0,0,0,13.869,9.4c7.078,1.631,13.48.019,19.312-4.127l12.953,13.5a38.185,38.185,0,0,0,1.275,50.593l-13.36,12.677c-9.343-8.271-25.292-7.189-33.534,3.791a23.163,23.163,0,0,0,1.844,30.331c7.663,8.172,20.344,9.6,30.319,2.633a23.474,23.474,0,0,0,4.843-32.98" transform="translate(0 0)" fill="#fff"/>
    <path id="Trazado_705060" data-name="Trazado 705060" d="M41.8,122.471a23.474,23.474,0,0,1-4.842,32.98c-9.975,6.964-22.656,5.538-30.319-2.633a23.163,23.163,0,0,1-1.843-30.331c8.242-10.98,24.19-12.063,33.533-3.791l13.36-12.678a38.185,38.185,0,0,1-1.275-50.593l-12.953-13.5c-5.833,4.145-12.233,5.757-19.312,4.127a21.9,21.9,0,0,1-13.869-9.4c-6.931-10.483-4.923-23,3.851-30.833a23,23,0,0,1,30.525-.034c9.332,8.22,10.866,22.934,2.469,32.7,1.212,1.252,2.437,2.5,3.644,3.768q4.111,4.311,8.208,8.637c.911.959.918.972,1.882.1a36.277,36.277,0,0,1,17.468-8.6c9.827-2.025,18.969-.113,27.5,4.971a50.963,50.963,0,0,1,5.265,4.014c.393.31.634.458,1.052.017q5.936-6.274,11.906-12.515c.126-.133.24-.278.377-.436-4.4-5.627-6.342-11.921-5.032-19.02a22.954,22.954,0,0,1,38.7-12.241,23.059,23.059,0,0,1,2.186,30.433c-6.532,8.668-20.284,12.9-32.292,4.361-.65.692-1.312,1.411-1.99,2.116q-5.157,5.359-10.331,10.7c-.454.466-.484.783-.082,1.277a38.367,38.367,0,0,1,8.295,19.961A37.78,37.78,0,0,1,115.3,94.22a33.829,33.829,0,0,1-7.068,11.317c-.475.5-.12.758.18,1.043,1.547,1.468,3.114,2.913,4.658,4.384q3.791,3.614,7.564,7.247c.172.165.354.317.578.517.538-.4,1.048-.824,1.592-1.191,7.189-4.842,14.8-5.452,22.675-2.01,6.819,2.979,10.84,8.435,12.682,15.52a22.715,22.715,0,0,1-16.758,27.5,21.967,21.967,0,0,1-19.74-4.374,22.788,22.788,0,0,1-4.368-30.979c.392-.574.335-.843-.149-1.305-4.087-3.9-8.145-7.835-12.213-11.758-.209-.2-.435-.385-.588-.52-2,1.331-3.86,2.765-5.892,3.9a37.155,37.155,0,0,1-25.026,4.439,36.594,36.594,0,0,1-13.79-5.221c-1.337-.867-2.591-1.864-3.861-2.833-.389-.3-.624-.32-1,.049-4.3,4.177-8.626,8.332-12.98,12.528m55.85-14.364a33.437,33.437,0,0,0,14.04-37.485A33.24,33.24,0,0,0,46.943,74.79c-2.369,15,5.533,27.631,14.924,33.243V84.705q0-10.974,0-21.949a2.867,2.867,0,0,1,3.193-3.227c.133,0,.266,0,.4,0h28.75c2.433,0,3.435,1.011,3.435,3.459q0,21.99,0,43.98v1.139m-10.222,4.472c1.521-.49,2.9-.954,4.291-1.374a1.039,1.039,0,0,0,.837-1.194q-.036-22.228-.018-44.457V64.72H66.98v.621q0,22.388,0,44.777a.788.788,0,0,0,.008.317c.094.193.186.476.347.533,1.539.553,3.093,1.067,4.755,1.631v-1.068q0-3.844,0-7.69c0-2.223,1.064-3.292,3.283-3.3q4.432-.009,8.864,0c2.1,0,3.183,1.1,3.186,3.227q.007,3.885,0,7.77v1.036M36.288,148.955c4.522-4.1,6.57-12.2,4.018-18.992a17.959,17.959,0,0,0-34.434,3.272c-1.061,5.359,1.58,13.906,4.9,15.617-.308-4.8,1.238-8.673,5.469-11.153-2.619-4.507-2.073-8.751,1.459-11.886a9.045,9.045,0,0,1,11.088-.484c3.9,2.991,4.61,7.178,2.051,12.393,4.264,2.471,5.732,6.39,5.447,11.235M148.776,36.113c4.423-4.073,6.516-11.64,4.093-18.626A17.945,17.945,0,0,0,118.6,19.171c-1.521,6.033.888,14.767,4.621,16.9-.3-4.8,1.236-8.683,5.471-11.161C126.04,20.3,126.645,16,130.32,12.868a9.089,9.089,0,0,1,11.1-.2,8.933,8.933,0,0,1,1.857,12.242,10.872,10.872,0,0,1,4.418,4.678,14.7,14.7,0,0,1,1.082,6.521m-112.495.119c5.011-4.837,6.555-13.215,3.765-19.694a17.948,17.948,0,0,0-33.913,2.7C4.434,26,7.145,32.972,10.773,36.128c-.3-4.842,1.219-8.733,5.464-11.215-3.031-4.921-1.432-9.379,1.493-11.927a9.063,9.063,0,0,1,10.964-.519,9.251,9.251,0,0,1,3.455,4.964,8.542,8.542,0,0,1-1.342,7.475c4.3,2.518,5.765,6.409,5.474,11.327M148.724,148.981c4.747-4.407,6.506-12.409,3.995-19.106a18.283,18.283,0,0,0-19.267-11.262c-6.818.795-13.553,6.857-15.012,13.983-1.205,5.888,1.239,14.349,4.78,16.264-.306-4.8,1.238-8.679,5.469-11.161-2.613-4.525-2.071-8.752,1.46-11.886a9.021,9.021,0,0,1,11.024-.524,9.273,9.273,0,0,1,3.536,5.367,8.446,8.446,0,0,1-1.478,7.028c4.3,2.512,5.793,6.393,5.494,11.3M23.611,141.562c-.957,0-1.916-.008-2.873,0a5.12,5.12,0,0,0-4.867,4.878c-.013,1.841.026,3.682-.019,5.522a.939.939,0,0,0,.783,1.091,47.535,47.535,0,0,0,5.173,1.215,16.479,16.479,0,0,0,8.808-1.3c.376-.163.6-.331.6-.8-.028-1.841.038-3.684-.028-5.522-.087-2.44-2.089-5.308-5.259-5.092-.768.052-1.542.008-2.314.008m0-112.794c-.984,0-1.969-.014-2.953,0a5.146,5.146,0,0,0-4.783,4.8c-.02,1.868.019,3.736-.018,5.6-.011.574.159.92.711,1.056a49.15,49.15,0,0,0,5.246,1.247,16.444,16.444,0,0,0,8.808-1.3c.377-.164.6-.336.592-.8-.028-1.841.03-3.683-.025-5.523-.068-2.293-1.989-5.31-5.264-5.088-.768.052-1.543.008-2.314.008M128.314,149.109c0,.961.038,1.923-.014,2.881a.875.875,0,0,0,.733,1.041,50.854,50.854,0,0,0,5.407,1.248,16.274,16.274,0,0,0,8.647-1.317.771.771,0,0,0,.57-.82c-.028-1.814.026-3.629-.023-5.442-.065-2.42-2.046-5.344-5.29-5.156-1.67.1-3.35.013-5.026.019a5.1,5.1,0,0,0-5,4.985c0,.854,0,1.707,0,2.562m7.722-120.341c-.984,0-1.969-.016-2.953,0a5.149,5.149,0,0,0-4.766,4.818c-.018,1.894.012,3.789-.014,5.683a.8.8,0,0,0,.653.93,52.152,52.152,0,0,0,5.479,1.282,15.778,15.778,0,0,0,8.636-1.339,1.033,1.033,0,0,0,.548-.713c.044-1.893.088-3.791,0-5.682-.1-2.307-2.038-5.214-5.273-4.989-.768.053-1.543.008-2.314.008M132.146,19.8a3.821,3.821,0,1,0,7.641.031,3.793,3.793,0,0,0-3.7-3.924,3.739,3.739,0,0,0-3.942,3.893M19.7,132.581a3.822,3.822,0,1,0,3.96-3.872,3.726,3.726,0,0,0-3.96,3.872m112.446.006a3.822,3.822,0,1,0,3.875-3.881,3.765,3.765,0,0,0-3.875,3.881M19.7,19.818a3.821,3.821,0,1,0,7.641,0,3.785,3.785,0,0,0-3.713-3.908,3.724,3.724,0,0,0-3.928,3.9m62.573,85.9H77.246V113.3h5.028Z" transform="translate(0 0)" fill="#161615"/>
    <path id="Trazado_705061" data-name="Trazado 705061" d="M123.714,134.283V89.165c0-2.449-1-3.459-3.436-3.459H91.529c-.133,0-.267,0-.4,0a2.868,2.868,0,0,0-3.193,3.227q0,10.975,0,21.95v23.327c-9.391-5.611-17.294-18.242-14.923-33.242a33.262,33.262,0,1,1,50.7,33.317" transform="translate(-26.067 -26.177)" fill="#abffff"/>
    <path id="Trazado_705062" data-name="Trazado 705062" d="M124.95,148.846v-1.036q0-3.886,0-7.77c0-2.123-1.088-3.223-3.186-3.227q-4.432-.008-8.864,0c-2.219,0-3.281,1.073-3.283,3.3q0,3.845,0,7.69v1.068c-1.662-.564-3.216-1.078-4.755-1.631-.161-.058-.254-.34-.347-.533a.788.788,0,0,1-.008-.317q0-22.389,0-44.777v-.621h25.554v.834q0,22.228.018,44.457a1.039,1.039,0,0,1-.837,1.194c-1.391.42-2.769.884-4.291,1.374m-.058-42.731h-5.01v5.028h5.01Zm-5.019,15.259h5.013v-5.027h-5.013Zm-10.2,10.246h5.009v-5.028h-5.009Zm10.2.018h5.017v-5.046h-5.017Zm-10.207-20.523h5.014v-5.028h-5.014Zm-.019,10.273h5.023v-5.024h-5.023Z" transform="translate(-37.525 -36.267)" fill="#ffe8ce"/>
    <path id="Trazado_705063" data-name="Trazado 705063" d="M39.446,215.332c.285-4.846-1.182-8.765-5.447-11.235,2.559-5.215,1.85-9.4-2.051-12.393a9.046,9.046,0,0,0-11.088.484c-3.533,3.136-4.078,7.38-1.459,11.887-4.231,2.48-5.776,6.357-5.469,11.153-3.323-1.711-5.963-10.258-4.9-15.617a17.959,17.959,0,0,1,34.434-3.271c2.552,6.788.5,14.888-4.018,18.992" transform="translate(-3.157 -66.377)" fill="#06d1d1"/>
    <path id="Trazado_705064" data-name="Trazado 705064" d="M214.974,39.272a14.7,14.7,0,0,0-1.082-6.521,10.883,10.883,0,0,0-4.418-4.678,8.932,8.932,0,0,0-1.857-12.241,9.089,9.089,0,0,0-11.1.2c-3.675,3.132-4.28,7.428-1.631,12.038-4.236,2.477-5.772,6.359-5.471,11.161-3.734-2.129-6.143-10.863-4.621-16.9a17.945,17.945,0,0,1,34.272-1.683c2.424,6.986.33,14.553-4.093,18.626" transform="translate(-66.198 -3.159)" fill="#06d1d1"/>
    <path id="Trazado_705065" data-name="Trazado 705065" d="M39.427,39.4c.292-4.917-1.175-8.808-5.474-11.327A8.544,8.544,0,0,0,35.3,20.6a9.251,9.251,0,0,0-3.456-4.964,9.06,9.06,0,0,0-10.963.519c-2.926,2.547-4.525,7.005-1.493,11.927-4.246,2.483-5.765,6.374-5.464,11.216C10.29,36.137,7.58,29.169,9.279,22.4a17.948,17.948,0,0,1,33.913-2.7c2.79,6.48,1.246,14.857-3.765,19.694" transform="translate(-3.146 -3.165)" fill="#06d1d1"/>
    <path id="Trazado_705066" data-name="Trazado 705066" d="M214.918,215.372c.3-4.9-1.193-8.785-5.494-11.3a8.446,8.446,0,0,0,1.478-7.028,9.27,9.27,0,0,0-3.536-5.367,9.02,9.02,0,0,0-11.023.524c-3.531,3.135-4.074,7.361-1.461,11.886-4.231,2.481-5.775,6.361-5.469,11.161-3.541-1.916-5.986-10.377-4.78-16.264,1.459-7.125,8.194-13.188,15.012-13.983a18.283,18.283,0,0,1,19.267,11.261c2.512,6.7.752,14.7-3.995,19.107" transform="translate(-66.195 -66.392)" fill="#06d1d1"/>
    <path id="Trazado_705067" data-name="Trazado 705067" d="M32.493,220.877c.772,0,1.546.044,2.314-.008,3.17-.215,5.172,2.652,5.259,5.092.065,1.839,0,3.682.028,5.522.008.472-.22.639-.6.8a16.478,16.478,0,0,1-8.808,1.3,47.535,47.535,0,0,1-5.173-1.215.94.94,0,0,1-.783-1.091c.046-1.84.006-3.682.019-5.522a5.12,5.12,0,0,1,4.867-4.878c.957-.01,1.916,0,2.873,0" transform="translate(-8.882 -79.316)" fill="#fff"/>
    <path id="Trazado_705068" data-name="Trazado 705068" d="M32.492,44.877c.772,0,1.546.044,2.314-.008,3.275-.222,5.2,2.795,5.264,5.088.054,1.84,0,3.682.025,5.523.007.468-.214.641-.592.8a16.446,16.446,0,0,1-8.808,1.3,49.1,49.1,0,0,1-5.246-1.247c-.552-.136-.723-.482-.711-1.056.036-1.867,0-3.736.018-5.6a5.145,5.145,0,0,1,4.783-4.8c.984-.017,1.968,0,2.953,0" transform="translate(-8.884 -16.11)" fill="#fff"/>
    <path id="Trazado_705069" data-name="Trazado 705069" d="M200.206,228.421c0-.854,0-1.708,0-2.562a5.1,5.1,0,0,1,5-4.985c1.676-.006,3.356.079,5.026-.018,3.244-.188,5.225,2.735,5.29,5.155.049,1.813,0,3.629.023,5.442a.772.772,0,0,1-.57.82,16.273,16.273,0,0,1-8.647,1.316,50.7,50.7,0,0,1-5.407-1.248.876.876,0,0,1-.733-1.041c.053-.957.014-1.92.014-2.881" transform="translate(-71.893 -79.312)" fill="#fff"/>
    <path id="Trazado_705070" data-name="Trazado 705070" d="M207.932,44.877c.772,0,1.546.046,2.314-.008,3.235-.224,5.169,2.682,5.273,4.989.086,1.891.042,3.789,0,5.682a1.034,1.034,0,0,1-.549.713,15.776,15.776,0,0,1-8.636,1.339,52.15,52.15,0,0,1-5.479-1.282.8.8,0,0,1-.653-.929c.026-1.894,0-3.789.015-5.684a5.148,5.148,0,0,1,4.765-4.818c.984-.019,1.968,0,2.953,0" transform="translate(-71.897 -16.109)" fill="#fff"/>
    <path id="Trazado_705071" data-name="Trazado 705071" d="M206.2,28.72a3.739,3.739,0,0,1,3.942-3.893,3.8,3.8,0,0,1,3.7,3.924,3.821,3.821,0,1,1-7.641-.031" transform="translate(-74.05 -8.916)" fill="#fff"/>
    <path id="Trazado_705072" data-name="Trazado 705072" d="M30.739,204.7a3.726,3.726,0,0,1,3.959-3.872,3.787,3.787,0,0,1,3.682,3.938,3.821,3.821,0,1,1-7.641-.067" transform="translate(-11.039 -72.124)" fill="#fff"/>
    <path id="Trazado_705073" data-name="Trazado 705073" d="M206.2,204.708a3.73,3.73,0,0,1,3.874-3.881,3.789,3.789,0,0,1,3.767,3.936,3.821,3.821,0,1,1-7.641-.055" transform="translate(-74.05 -72.122)" fill="#fff"/>
    <path id="Trazado_705074" data-name="Trazado 705074" d="M30.74,28.736a3.724,3.724,0,0,1,3.929-3.9,3.885,3.885,0,1,1-3.929,3.9" transform="translate(-11.039 -8.918)" fill="#fff"/>
    <rect id="Rectángulo_349125" data-name="Rectángulo 349125" width="5.028" height="7.582" transform="translate(77.246 105.72)" fill="#fff"/>
    <rect id="Rectángulo_349126" data-name="Rectángulo 349126" width="5.01" height="5.028" transform="translate(82.356 69.848)" fill="#161615"/>
    <rect id="Rectángulo_349127" data-name="Rectángulo 349127" width="5.013" height="5.027" transform="translate(82.347 80.08)" fill="#161615"/>
    <rect id="Rectángulo_349128" data-name="Rectángulo 349128" width="5.009" height="5.028" transform="translate(72.148 90.324)" fill="#161615"/>
    <rect id="Rectángulo_349129" data-name="Rectángulo 349129" width="5.017" height="5.046" transform="translate(82.353 90.324)" fill="#161615"/>
    <rect id="Rectángulo_349130" data-name="Rectángulo 349130" width="5.014" height="5.028" transform="translate(72.146 69.818)" fill="#161615"/>
    <rect id="Rectángulo_349131" data-name="Rectángulo 349131" width="5.023" height="5.024" transform="translate(72.127 80.095)" fill="#161615"/>
  </g>
</svg>
