<svg id="Grupo_974800" data-name="Grupo 974800" xmlns="http://www.w3.org/2000/svg" xmlns:xlink="http://www.w3.org/1999/xlink" width="152.696" height="137.255" viewBox="0 0 152.696 137.255">
  <defs>
    <clipPath id="clip-path">
      <rect id="Rectángulo_349138" data-name="Rectángulo 349138" width="152.696" height="137.255" fill="none"/>
    </clipPath>
  </defs>
  <g id="Grupo_974799" data-name="Grupo 974799" clip-path="url(#clip-path)">
    <path id="Trazado_705085" data-name="Trazado 705085" d="M13.136,131.7l.336-.011c.093.079.128.035.136-.065.012-.311.033-.623.033-.935q0-49.568.04-99.135a2.544,2.544,0,0,0-1.24-2.333,2.859,2.859,0,0,1-1.483-2.949,2.919,2.919,0,0,1,2.679-2.275,5.89,5.89,0,0,1,2.836,1.621c4.6,3.484,8.949,7.266,13.4,10.928,1.789,1.472,3.592,2.926,5.358,4.424,1.727,1.468,3.552,2.819,5.176,4.411.942.924,1.18.879,2.3.162.614-.394,1.2-.821,1.785-1.252,2.887-2.113,5.751-4.259,8.751-6.214,1.667-1.086,2.642-1.02,4.1.325,2.412,2.227,4.707,4.566,6.988,6.929,2.306,2.39,4.726,4.671,7.01,7.089,2.243,2.375,4.64,4.6,6.9,6.961,2.827,2.945,5.947,5.6,8.625,8.693a.7.7,0,0,0,.922.193,7.76,7.76,0,0,0,.939-.566c2.353-1.81,4.927-3.3,7.326-5.047,1.761-1.283,3.664-2.369,5.5-3.544a3.959,3.959,0,0,1,5.108.227q4.675,3.776,9.307,7.6,7.145,5.932,14.246,11.916c2.325,1.955,4.731,3.819,6.876,5.978a2.433,2.433,0,0,1,.137,3.639c-.507.583-.1.817.323.832,1.165.04,2.276.48,3.447.416.856.154,1.709.318,2.567.458.465.075.819-.126.836-.609.062-1.864.336-3.7.563-5.549.067-.542-.159-.783-.666-.609a3,3,0,0,1-2.213-.243,19.8,19.8,0,0,0-3.578-2.9,5.965,5.965,0,0,0-2.259-2c-3.392-3.271-6.855-6.467-10.338-9.641q-9.6-8.75-19.156-17.549-.471-.432-.935-.869a.642.642,0,0,0-.913-.054q-4.78,3.283-9.573,6.549c-1.5,1.025-2.988,2.071-4.512,3.061a3.058,3.058,0,0,1-3.063.368,7.592,7.592,0,0,1-2.14-1.472q-8.186-8.182-16.41-16.328c-1.465-1.455-2.958-2.883-4.437-4.323a.132.132,0,0,0-.15-.154l-.013-.007a1.489,1.489,0,0,0-.174-.284q-3.593-3.685-7.2-7.361c-.983-1-1.212-.961-2.043.245-.488.334-.987.655-1.465,1-2.792,2.025-5.473,4.2-8.35,6.114-.093-.02-.138.022-.142.113a.165.165,0,0,0-.076.094c-.433.132-.876.237-1.3.4a2.439,2.439,0,0,1-2.586-.589Q35.7,33,30.139,28.378C25.493,24.52,20.872,20.631,16.2,16.806a11.156,11.156,0,0,0-3.018-2.269,3.478,3.478,0,0,1-.7-2.573,2.1,2.1,0,0,1,1.481-1.9,2.972,2.972,0,0,1,3.121.553c2.905,2.519,5.9,4.933,8.865,7.383q4.861,4.02,9.73,8.032,3.56,2.945,7.1,5.914c.248.209.383.327.686.047a65.457,65.457,0,0,1,6.195-4.661c1.517-1.1,3.044-2.185,4.594-3.236,1.019-.692,2.079-1.276,3.4-.773a3.832,3.832,0,0,1,1.577,1.2c.905,1.082,1.964,2,2.964,2.983,4.762,4.683,9.473,9.418,14.182,14.154q5.936,5.971,11.815,12c.561.577.932.549,1.564.11q5.385-3.74,10.833-7.39a29.011,29.011,0,0,1,2.79-1.756,4.714,4.714,0,0,1,5.278.824c3.952,3.674,8,7.24,11.989,10.879,4.51,4.117,8.923,8.345,13.511,12.373,3.013,2.645,5.842,5.483,8.859,8.119a.848.848,0,0,0,1.278.027c.815-.617,1.62-1.249,2.461-1.826a2.823,2.823,0,0,1,3.207-.124,2.113,2.113,0,0,1,1.148,2.019,77.641,77.641,0,0,1-.813,7.933c-.2,1.55-.317,3.114-.557,4.659a33.976,33.976,0,0,1-.519,3.579,4.007,4.007,0,0,1-3.626,2.739,11.869,11.869,0,0,1-2.771-.3c-.724-.142-.963-.012-.961.806.031,9.492.02,18.985.02,28.478,0,2.018.022,4.036-.012,6.054-.011.625.159.829.811.827,2.443-.009,4.888.011,7.33.093a2.485,2.485,0,0,1,2.622,2.268,2.564,2.564,0,0,1-1.959,3.042,7.915,7.915,0,0,1-1.608.133q-71.2,0-142.392-.02a25.222,25.222,0,0,1-4.252-.073A2.852,2.852,0,0,1,.014,134.4C0,134.118,0,133.834,0,133.549Q0,68.62,0,3.691A3.637,3.637,0,0,1,.881.741a2.623,2.623,0,0,1,4.4,1.3A9.216,9.216,0,0,1,5.468,3.7q-.016,62.67-.01,125.34c0,.626.034,1.253-.01,1.875-.042.583.126.779.748.77,2.131-.031,4.262.009,6.393.021.193.493.367.132.546-.012M125.541,84.063c-.007.085-.02.17-.02.254q0,22.074,0,44.148c0,.085.014.169.022.254-.008.795.014,1.592-.035,2.384-.035.581.2.7.738.7,3.153-.024,6.306-.031,9.459,0,.634.007.738-.216.738-.779q-.02-17.81,0-35.621c0-.655-.207-.881-.843-.969-1.823-.251-3.635-.578-5.454-.861a4.737,4.737,0,0,1-2.4-1c-.053-.129-.1-.261-.161-.388a2.629,2.629,0,0,1,.832-3.638,8.935,8.935,0,0,0,.7-.719c.559.04.785-.5,1.21-.7.678-.311.541-.626.042-1.031-1.422-1.154-2.816-2.341-4.222-3.514-.166-.138-.3-.349-.607-.28ZM90.07,128.554c-.009.823.024,1.65-.039,2.47-.052.675.224.785.832.779,3.011-.031,6.024-.047,9.034.008.839.016,1.083-.161,1.083-1.049q-.043-31.878-.027-63.756a1.708,1.708,0,0,0-.107-.954,33.2,33.2,0,0,0-3.3,2.128,63.233,63.233,0,0,1-6.38,4.442,1.945,1.945,0,0,0-1.138,1.983q.036,26.507.018,53.013c0,.312.016.624.025.936M62.73,51.394c-2.344-2.31-4.608-4.7-7.044-6.918-.295-.267-.579-.723-.939-.6s-.166.648-.166.99q-.013,41.377-.007,82.755c0,.312.016.624.025.936a11.194,11.194,0,0,1-.063,2.377c-.208.887.2.867.817.864,3.04-.014,6.08-.036,9.119.014.807.013,1.038-.17,1.036-1.012q-.045-19.134-.021-38.269,0-18.708,0-37.417c0-.307.123-.673-.095-.912-.867-.952-1.769-1.873-2.658-2.806m-43.6,77.16a21.537,21.537,0,0,1-.049,2.468c-.087.681.13.787.746.781,3.067-.029,6.136-.048,9.2.008.849.016,1.007-.24,1.006-1.04Q30,100.561,30.015,70.35q0-12.741,0-25.481c0-.394.113-.872-.213-1.136a11.763,11.763,0,0,0-2.491-2.011,7.609,7.609,0,0,0-1.452-1.4c-1.1-.924-2.287-1.733-3.316-2.756-1.012-1.006-2.185-1.852-3.441-2.9v1.274q0,45.838,0,91.677c0,.312.016.624.025.936M119.362,131.7c.066.1.131.1.194,0l.331-.011c.093.079.128.035.137-.065.012-.311.033-.623.033-.935q0-8.737,0-17.474,0-17.218.01-34.437a2,2,0,0,0-.679-1.689c-1.822-1.511-3.658-3.006-5.458-4.543-2.254-1.925-4.48-3.883-6.714-5.833-.233-.2-.454-.381-.78-.278a.929.929,0,0,0-.017.113q0,32.178-.018,64.356c0,.688.27.777.858.776,4.034-.01,8.069.012,12.1.023m-35.472,0c.066.1.131.1.194,0l.33-.011c.093.079.128.035.137-.065.012-.311.033-.623.033-.935q0-27.746.017-55.492a3.43,3.43,0,0,0-.985-2.675c-2.216-2.319-4.5-4.57-6.73-6.874-1.126-1.163-2.32-2.259-3.408-3.464-.741-.821-1.592-1.543-2.391-2.307-.212.194-.141.375-.141.532q-.006,34.693,0,69.386c0,.322.161.67.082.961-.229.839-.205.91.672.912q6.094.018,12.188.033m-48.382-.083c0,.051.01.1.015.153l.137-.063,12.759-.006c.066.1.13.1.193,0l.332-.011c.093.079.128.035.137-.065.011-.283.033-.566.033-.849q0-40.883,0-81.766c0-.227.012-.456-.005-.682-.012-.154.088-.374-.113-.443-.15-.052-.29.047-.431.174A50.864,50.864,0,0,1,43.6,51.789a4.061,4.061,0,0,1-1.931.731c-1.2.121-1.881-.73-2.674-1.354-1.145-.9-2.248-1.856-3.527-2.918V120.98c0,3.012-.014,6.025.012,9.038,0,.532-.359,1.075.023,1.6" transform="translate(0 0)" fill="#173340"/>
    <path id="Trazado_705086" data-name="Trazado 705086" d="M51.357,46.022a.172.172,0,0,1,.076-.094l.142-.113c2.876-1.911,5.558-4.089,8.35-6.114.479-.347.976-.669,1.465-1a5.154,5.154,0,0,1,1.827,1.034c2,1.865,4.014,3.724,6.071,5.53A2.809,2.809,0,0,0,70.8,46.1l.012.007.15.154c1.48,1.44,2.971,2.87,4.437,4.324q8.216,8.152,16.41,16.327a7.571,7.571,0,0,0,2.14,1.473,3.059,3.059,0,0,0,3.063-.368c1.524-.989,3.011-2.035,4.512-3.061q4.788-3.271,9.573-6.549a.641.641,0,0,1,.912.054q.465.438.936.869,9.575,8.778,19.156,17.549c3.484,3.175,6.946,6.37,10.338,9.642.584.856,1.042,1.856,2.259,2a19.8,19.8,0,0,1,3.578,2.9c-.075.9-.037,1.8-.166,2.7a13.13,13.13,0,0,0-.121,2.861c.065.8-.082,1.015-.8.989-1.171.063-2.281-.377-3.447-.416-.424-.014-.83-.248-.323-.831a2.434,2.434,0,0,0-.137-3.64c-2.144-2.159-4.551-4.023-6.876-5.978q-7.107-5.977-14.246-11.916-4.623-3.839-9.307-7.6a3.959,3.959,0,0,0-5.108-.228c-1.839,1.176-3.743,2.262-5.5,3.545-2.4,1.747-4.973,3.237-7.327,5.047a7.93,7.93,0,0,1-.939.566.7.7,0,0,1-.922-.194c-2.679-3.093-5.8-5.747-8.625-8.693-2.262-2.357-4.659-4.586-6.9-6.96-2.284-2.419-4.7-4.7-7.01-7.089-2.281-2.363-4.577-4.7-6.988-6.929-1.455-1.344-2.43-1.412-4.1-.325-3,1.955-5.864,4.1-8.751,6.215-.588.43-1.171.858-1.785,1.252-1.117.716-1.355.761-2.3-.162-1.624-1.592-3.448-2.944-5.176-4.411-1.765-1.5-3.569-2.953-5.357-4.424-4.45-3.663-8.8-7.444-13.4-10.928a5.883,5.883,0,0,0-2.837-1.621c-.05-.1-.145-.2-.144-.3a57.074,57.074,0,0,1-.117-6,1.617,1.617,0,0,1,.914.408q1.738,1.358,3.488,2.7,3.8,2.92,7.605,5.835,5.039,3.883,10.069,7.778c1.9,1.47,3.829,2.907,5.689,4.427,1.292,1.056,1.7,1.133,3.049.179a2.713,2.713,0,0,0,.972-1.245" transform="translate(-6.195 -8.243)" fill="#e03c42"/>
    <path id="Trazado_705087" data-name="Trazado 705087" d="M51.3,44.549a2.713,2.713,0,0,1-.972,1.245c-1.346.954-1.757.877-3.049-.179-1.861-1.52-3.789-2.957-5.689-4.427Q36.557,37.3,31.521,33.41q-3.8-2.925-7.605-5.835-1.748-1.344-3.488-2.7a1.617,1.617,0,0,0-.914-.408l-.2-3.163a11.168,11.168,0,0,1,3.019,2.271c4.673,3.825,9.294,7.714,13.941,11.571q5.562,4.619,11.141,9.216a2.441,2.441,0,0,0,2.586.589c.42-.165.863-.27,1.3-.4" transform="translate(-6.138 -6.77)" fill="#9b3236"/>
    <path id="Trazado_705088" data-name="Trazado 705088" d="M19,193c-.179.144-.353.5-.546.012A.611.611,0,0,1,19,193" transform="translate(-5.863 -61.308)" fill="#5a79af"/>
    <path id="Trazado_705089" data-name="Trazado 705089" d="M19.883,192.922c-.009.1-.044.143-.136.065a.14.14,0,0,1,.136-.065" transform="translate(-6.274 -61.3)" fill="#5a79af"/>
    <path id="Trazado_705093" data-name="Trazado 705093" d="M28.022,144.7c-.009-.312-.025-.624-.025-.936q0-45.838,0-91.677V50.812c1.257,1.045,2.429,1.891,3.442,2.9,1.029,1.023,2.215,1.833,3.316,2.756a7.569,7.569,0,0,1,1.452,1.4c-.008.426-.023.852-.023,1.278q0,40.731.007,81.462c0,.757-.094,1.506-.029,2.271.095,1.12-.4,1.532-1.51,1.678-2.208.29-4.42.074-6.629.143" transform="translate(-8.896 -16.145)" fill="#8098ce"/>
    <path id="Trazado_705094" data-name="Trazado 705094" d="M79.991,148.978c-.009-.312-.025-.624-.025-.936q0-41.377.007-82.755c0-.342-.206-.866.166-.99s.645.334.939.6c2.436,2.217,4.7,4.608,7.044,6.918-.048.588-.137,1.176-.138,1.764q-.01,16.611,0,33.221,0,20.146,0,40.291c0,1.481-.4,1.884-1.856,1.887-2.044,0-4.089,0-6.133,0" transform="translate(-25.393 -20.424)" fill="#8098ce"/>
    <path id="Trazado_705095" data-name="Trazado 705095" d="M132,160.307c-.009-.312-.025-.624-.025-.936q0-26.507-.018-53.013a1.945,1.945,0,0,1,1.138-1.983,63.232,63.232,0,0,0,6.38-4.442,2.054,2.054,0,0,1,.529,1.372q-.027,28.648-.015,57.294c0,1.254-.428,1.7-1.68,1.709-2.1.013-4.206,0-6.309,0" transform="translate(-41.928 -31.753)" fill="#8098ce"/>
    <path id="Trazado_705096" data-name="Trazado 705096" d="M184,167.869c-.008-.085-.022-.17-.022-.254q0-22.073,0-44.148c0-.085.012-.169.019-.254a8.384,8.384,0,0,1,3.576,3.77,8.817,8.817,0,0,1-.7.718,2.63,2.63,0,0,0-.831,3.638c.058.127.108.259.161.388-.379.051-.678.25-.66.641.016.345.321.495.658.559a32.236,32.236,0,0,0,4.424.663c1.027.052,1.358.332,1.358,1.391q.007,15.516,0,31.032c0,1.254-.445,1.684-1.706,1.693-1.762.012-3.524,0-5.286,0a1.8,1.8,0,0,0-.994.161" transform="translate(-58.457 -39.15)" fill="#8098ce"/>
    <path id="Trazado_705097" data-name="Trazado 705097" d="M28,147.985c2.208-.07,4.421.147,6.629-.143,1.109-.146,1.6-.558,1.51-1.678-.065-.765.03-1.514.029-2.271q-.015-40.731-.007-81.462c0-.426.015-.851.023-1.278a11.746,11.746,0,0,1,2.491,2.011c.326.264.213.741.213,1.136q0,12.74,0,25.481,0,30.21.018,60.421c0,.8-.158,1.055-1.006,1.04-3.067-.057-6.136-.038-9.2-.008-.616.006-.833-.1-.746-.782A21.521,21.521,0,0,0,28,147.985" transform="translate(-8.876 -19.431)" fill="#5a79af"/>
    <path id="Trazado_705098" data-name="Trazado 705098" d="M79.971,152.489c2.044,0,4.089.007,6.133,0,1.458,0,1.855-.406,1.856-1.887q0-20.145,0-40.291,0-16.611,0-33.221c0-.588.09-1.176.138-1.764.889.933,1.791,1.854,2.658,2.806.217.239.095.605.095.912q.006,18.708,0,37.417,0,19.134.021,38.269c0,.842-.229,1.025-1.036,1.011-3.039-.05-6.08-.027-9.119-.014-.62,0-1.026.023-.818-.864a11.194,11.194,0,0,0,.063-2.377" transform="translate(-25.373 -23.935)" fill="#5a79af"/>
    <path id="Trazado_705099" data-name="Trazado 705099" d="M132,159.316c2.1,0,4.206.014,6.309,0,1.251-.007,1.68-.455,1.68-1.709q0-28.647.015-57.294a2.054,2.054,0,0,0-.529-1.372,33.087,33.087,0,0,1,3.3-2.128,1.708,1.708,0,0,1,.107.954q.007,31.878.027,63.756c0,.888-.244,1.064-1.083,1.049-3.011-.055-6.023-.038-9.034-.007-.608.006-.884-.1-.832-.779.063-.819.03-1.646.039-2.47" transform="translate(-41.927 -30.762)" fill="#5a79af"/>
    <path id="Trazado_705100" data-name="Trazado 705100" d="M183.99,171.835a1.8,1.8,0,0,1,.994-.161c1.762,0,3.524.009,5.286,0,1.261-.009,1.706-.439,1.706-1.693q.009-15.516,0-31.032c0-1.06-.331-1.339-1.358-1.391a32.234,32.234,0,0,1-4.424-.663c-.337-.064-.642-.214-.658-.559-.018-.39.28-.589.66-.641a4.729,4.729,0,0,0,2.4,1c1.819.282,3.631.609,5.454.861.635.087.844.315.843.969q-.029,17.81,0,35.62c0,.563-.1.787-.738.78-3.152-.035-6.305-.027-9.458,0-.539,0-.774-.116-.738-.7.048-.793.027-1.59.035-2.384" transform="translate(-58.45 -43.116)" fill="#5a79af"/>
    <path id="Trazado_705101" data-name="Trazado 705101" d="M206.664,128.454c.718.027.864-.186.8-.989a13.131,13.131,0,0,1,.121-2.861c.129-.9.091-1.8.166-2.7a2.994,2.994,0,0,0,2.213.243c.507-.174.732.066.666.609-.227,1.846-.5,3.686-.563,5.549-.016.483-.372.684-.836.609-.858-.14-1.711-.3-2.567-.458" transform="translate(-65.666 -38.734)" fill="#9b3236"/>
    <path id="Trazado_705102" data-name="Trazado 705102" d="M90.315,51.6a2.815,2.815,0,0,1-1.515-.837c-2.057-1.8-4.066-3.665-6.071-5.529A5.13,5.13,0,0,0,80.9,44.2c.83-1.206,1.06-1.244,2.043-.245q3.609,3.669,7.2,7.361a1.489,1.489,0,0,1,.174.285" transform="translate(-25.706 -13.74)" fill="#9b3236"/>
    <path id="Trazado_705103" data-name="Trazado 705103" d="M187.584,126.161a8.387,8.387,0,0,0-3.576-3.77v-1.749c.309-.07.441.142.607.28,1.407,1.172,2.8,2.359,4.222,3.513.5.405.636.72-.042,1.032-.426.2-.652.734-1.21.7" transform="translate(-58.468 -38.329)" fill="#5a79af"/>
    <path id="Trazado_705104" data-name="Trazado 705104" d="M201.961,116.727c-1.216-.141-1.675-1.14-2.259-2a5.965,5.965,0,0,1,2.259,2" transform="translate(-63.454 -36.455)" fill="#9b3236"/>
    <path id="Trazado_705105" data-name="Trazado 705105" d="M94.867,55.65l-.15-.154c.1,0,.154.05.15.154" transform="translate(-30.096 -17.634)" fill="#9b3236"/>
    <path id="Trazado_705106" data-name="Trazado 705106" d="M66.449,55.069c-.047.038-.1.075-.142.113,0-.092.048-.133.142-.113" transform="translate(-21.069 -17.496)" fill="#9b3236"/>
    <path id="Trazado_705107" data-name="Trazado 705107" d="M52.045,192.915,52.2,193l-.137.063c-.005-.051-.01-.1-.015-.153" transform="translate(-16.537 -61.298)" fill="#5a79af"/>
    <path id="Trazado_705108" data-name="Trazado 705108" d="M70.969,193.035l.193,0c-.063.1-.127.1-.193,0" transform="translate(-22.55 -61.335)" fill="#5a79af"/>
    <path id="Trazado_705109" data-name="Trazado 705109" d="M71.738,192.987a.142.142,0,0,1,.136-.065c-.009.1-.044.143-.136.065" transform="translate(-22.794 -61.3)" fill="#5a79af"/>
    <path id="Trazado_705110" data-name="Trazado 705110" d="M122.96,193.035l.194,0c-.063.1-.128.1-.194,0" transform="translate(-39.07 -61.335)" fill="#5a79af"/>
    <path id="Trazado_705111" data-name="Trazado 705111" d="M123.729,192.987a.143.143,0,0,1,.137-.065c-.009.1-.044.143-.137.065" transform="translate(-39.314 -61.3)" fill="#5a79af"/>
    <path id="Trazado_705112" data-name="Trazado 705112" d="M174.952,193.035l.194,0c-.063.1-.128.1-.194,0" transform="translate(-55.59 -61.335)" fill="#5a79af"/>
    <path id="Trazado_705113" data-name="Trazado 705113" d="M175.721,192.987a.143.143,0,0,1,.137-.065c-.009.1-.044.143-.137.065" transform="translate(-55.834 -61.3)" fill="#5a79af"/>
  </g>
</svg>
