<svg id="Grupo_974792" data-name="Grupo 974792" xmlns="http://www.w3.org/2000/svg" xmlns:xlink="http://www.w3.org/1999/xlink" width="176" height="164.857" viewBox="0 0 176 164.857">
  <defs>
    <clipPath id="clip-path">
      <rect id="Rectángulo_349113" data-name="Rectángulo 349113" width="176" height="164.858" fill="none"/>
    </clipPath>
  </defs>
  <g id="Grupo_974791" data-name="Grupo 974791" clip-path="url(#clip-path)">
    <path id="Trazado_705031" data-name="Trazado 705031" d="M140.8,85.328h5.866c0-.725,0-1.444,0-2.164.013-2.438,1.241-3.693,3.67-3.7q11.045-.013,22.091,0A3.249,3.249,0,0,1,176,83.072q.007,25.843,0,51.686a3.216,3.216,0,0,1-3.514,3.563q-11.183.023-22.366,0a3.215,3.215,0,0,1-3.447-3.453c-.019-1.745,0-3.489,0-5.312-.3-.021-.562-.054-.824-.055-2.78,0-5.562.018-8.341-.018a1.145,1.145,0,0,0-1.249.788c-.371.87-.865,1.688-1.246,2.555a2.363,2.363,0,0,0-.193,1.141c.587,5.619-2.8,9.825-8.407,10.181a22.433,22.433,0,0,1-4.311-.628,1.051,1.051,0,0,0-.824.193c-2.41,2.989-5.573,3.807-9.2,3.2-.827-.139-1.163-.037-1.5.817a8.74,8.74,0,0,1-8.316,5.255c-.943-.037-2.048-.545-2.772-.2-.684.33-.91,1.539-1.432,2.3-2.336,3.392-6.638,4.66-10.948,3.2a1.525,1.525,0,0,0-1.639.282c-2.164,1.648-4.321,3.315-6.589,4.811-3.748,2.472-10.656,2.19-13.346-3.516a28,28,0,0,1-1.221-4.048,28.945,28.945,0,0,1-3.976-.03,8.394,8.394,0,0,1-6.731-5.31c-.287-.638-.522-.721-1.137-.614-3.365.586-6.445.1-8.934-2.51a10.058,10.058,0,0,1-2.513-6.046,9.177,9.177,0,0,1-7.1-3.766,8.524,8.524,0,0,1-1.058-7.957H29.336c0,.742.008,1.525,0,2.308a3.187,3.187,0,0,1-3.407,3.483q-11.275.038-22.549,0a3.18,3.18,0,0,1-3.371-3.432q-.015-25.981,0-51.962a3.174,3.174,0,0,1,3.444-3.449q11.274-.033,22.549,0a3.173,3.173,0,0,1,3.33,3.377c.019.792,0,1.585,0,2.438H35.2V81.155q0-38.489,0-76.977c0-.337-.017-.676.01-1.012A3.164,3.164,0,0,1,38.3.02C38.638-.01,38.976,0,39.312,0h97.529C139.65,0,140.8,1.15,140.8,3.958V85.328ZM41.115,82.409c1.839,0,3.633-.021,5.427.006a11.549,11.549,0,0,0,4.614-.979A16.446,16.446,0,0,1,55.9,79.884c4.071-.306,8.167-.31,12.254-.352a21.283,21.283,0,0,1,3.636.4A25.781,25.781,0,0,1,84.668,86.11c.469.407.817.6,1.409.132q3.431-2.683,6.938-5.269a19.931,19.931,0,0,1,11.479-4.3c4.824-.111,9.654-.224,14.475-.088a21.483,21.483,0,0,1,13.592,4.968c.762.64,1.49,1.321,2.313,2.054V5.957H41.115Zm76,57.235c-.309-.285-.6-.557-.889-.821q-9.555-8.586-19.109-17.176c-1.748-1.577-3.463-3.193-5.154-4.832a2.664,2.664,0,0,1-.9-2.652c.579-2.328,3.135-3,5.055-1.3q9.88,8.776,19.724,17.591c2.474,2.227,4.844,4.572,7.238,6.886a3.915,3.915,0,0,0,3.915.884,2.651,2.651,0,0,0,2.017-2.16c.373-1.674-.4-2.83-1.611-3.911Q111.9,118.3,96.472,104.377a1.075,1.075,0,0,0-1.438-.169c-2.7,1.363-5.367,2.8-8.154,3.945A10.263,10.263,0,0,1,78,107.789c-5.657-2.928-6.29-10.366-1.284-14.522,1.218-1.01,2.507-1.934,3.831-2.949a4.256,4.256,0,0,0-.5-.544,19.106,19.106,0,0,0-10.192-4.2c-3.373-.252-6.773-.142-10.159-.234a12.424,12.424,0,0,0-5.857,1.2A19.1,19.1,0,0,1,45.315,88.3c-4.979-.014-9.959,0-14.938,0H29.4v35.32h8.032a1.4,1.4,0,0,0,.455-.012,3.645,3.645,0,0,0,.975-.434c1.366-1.032,2.725-2.075,4.055-3.153a10.372,10.372,0,0,1,5.426-2.232,8.873,8.873,0,0,1,9.051,4.44,33.708,33.708,0,0,1,1.554,4.311c.218.043.631.135,1.048.2a7.5,7.5,0,0,1,6.054,4.245c.773,1.758,1.7,1.744,3.262,1.577a8.566,8.566,0,0,1,9.583,6.785c.142.714.276,1.428.432,2.238a12.378,12.378,0,0,1,6.4.375,6.467,6.467,0,0,0-.979-.964c-2.223-1.87-4.454-3.732-6.668-5.612a7.592,7.592,0,0,1-1.152-1.174,2.8,2.8,0,0,1,.45-3.944,2.559,2.559,0,0,1,3.515-.067c1.986,1.529,3.954,3.087,5.849,4.728,3.974,3.441,7.893,6.946,11.839,10.418a13.672,13.672,0,0,0,1.641,1.319,4.044,4.044,0,0,0,3.858.193c1.724-.691,2.006-3.583.654-4.719-4.613-3.875-9.1-7.9-13.617-11.888-1.764-1.559-3.5-3.153-5.182-4.8a2.489,2.489,0,0,1-.625-2.874,2.807,2.807,0,0,1,2.429-1.835A3.38,3.38,0,0,1,90.3,121.75c2.095,1.786,4.219,3.538,6.276,5.366,4.569,4.062,9.1,8.166,13.657,12.244a14.164,14.164,0,0,0,1.776,1.441,3.685,3.685,0,0,0,5.1-1.158M146.6,123.61V91.238c-3.086,0-6.115-.146-9.124.044a6.573,6.573,0,0,1-6.12-2.766c-3.315-4.176-7.871-6.054-13.165-6.1-3.91-.035-7.82.023-11.729-.015a16.681,16.681,0,0,0-10.492,3.46q-7.431,5.607-14.868,11.2a7.755,7.755,0,0,0-1.237,1.086,2.943,2.943,0,0,0,1.625,4.82,6.939,6.939,0,0,0,4.525-.677c2.924-1.583,5.932-3.008,8.872-4.564a3.311,3.311,0,0,1,4.254.568c.22.213.457.407.682.614q15.228,14.009,30.457,28.016c.276.254.579.478.9.743.242-.487.469-.856.616-1.255.775-2.1,2.274-2.9,4.482-2.831,3.415.1,6.835.026,10.321.026M5.933,129.422H23.42V82.451H5.933Zm164.136-44H152.578v46.971h17.491Zm-120.675,38a7.164,7.164,0,0,0-2.128.67c-2.775,1.994-5.541,4.011-8.185,6.172a2.885,2.885,0,0,0,.714,4.866,4.068,4.068,0,0,0,4.031-.28q3.856-2.792,7.607-5.729a3.063,3.063,0,0,0,1.22-3.641c-.482-1.288-1.493-1.886-3.259-2.058m32.118,23.7a3.609,3.609,0,0,0-2.669.92c-2.262,1.713-4.537,3.411-6.795,5.129a5.936,5.936,0,0,0-1.065,1,2.921,2.921,0,0,0,1.469,4.653,4.4,4.4,0,0,0,4-.647c2.358-1.837,4.757-3.621,7.124-5.448a3.177,3.177,0,0,0,1.312-3.775c-.4-1.173-1.493-1.806-3.376-1.832m-31.081-2.843c1.739.131,2.891-1.021,4.078-2.15s2.412-2.24,3.667-3.3c.932-.788,1.949-1.474,2.906-2.235a1.393,1.393,0,0,0,.5-.712,2.753,2.753,0,0,0-1.778-3.241,4.219,4.219,0,0,0-3.874.332c-2.691,1.961-5.355,3.964-7.957,6.04a3.113,3.113,0,0,0-1.005,1.859c-.291,2.118.993,3.346,3.459,3.41m19.4-5.992a4.123,4.123,0,0,0-3.653,1.759,39.423,39.423,0,0,1-6.476,5.5,2.392,2.392,0,0,0,.114,4.02,4.393,4.393,0,0,0,4.429.061q3.927-2.847,7.764-5.82a3,3,0,0,0,1.188-3.566c-.464-1.306-1.447-1.91-3.366-1.955m20.508,14.667a2.851,2.851,0,0,0,3.552-2.533,2.6,2.6,0,0,0-1.04-2.473c-1.084-.839-2.1-1.763-3.148-2.65,1.144,2.516,1.711,4.981.636,7.656" transform="translate(0 0)" fill="#161615"/>
    <path id="Trazado_705032" data-name="Trazado 705032" d="M55.881,84.549V8.1h93.757V85.746c-.823-.733-1.551-1.414-2.313-2.055a21.486,21.486,0,0,0-13.592-4.967c-4.82-.137-9.65-.024-14.474.088a19.924,19.924,0,0,0-11.479,4.3q-3.505,2.585-6.938,5.269c-.592.463-.94.274-1.409-.132a25.775,25.775,0,0,0-12.879-6.175,21.208,21.208,0,0,0-3.636-.4c-4.087.041-8.183.046-12.254.352a16.446,16.446,0,0,0-4.743,1.551,11.562,11.562,0,0,1-4.614.979c-1.794-.027-3.588-.006-5.427-.006M132.1,43.43c.027-14.292-11.19-29.44-29.381-29.472A29.174,29.174,0,0,0,73.51,42.467a28.992,28.992,0,0,0,29.17,30.228c17.266,0,29.16-13.842,29.419-29.265" transform="translate(-14.766 -2.14)" fill="#fff"/>
    <path id="Trazado_705033" data-name="Trazado 705033" d="M127.67,170.291a3.686,3.686,0,0,1-5.1,1.158,14.163,14.163,0,0,1-1.776-1.441c-4.554-4.078-9.087-8.182-13.657-12.244-2.057-1.828-4.181-3.58-6.276-5.366a3.38,3.38,0,0,0-2.567-1.009,2.807,2.807,0,0,0-2.429,1.835,2.489,2.489,0,0,0,.625,2.874c1.682,1.645,3.418,3.239,5.182,4.8,4.514,3.992,9,8.013,13.617,11.888,1.352,1.136,1.069,4.028-.654,4.719a4.044,4.044,0,0,1-3.858-.193,13.673,13.673,0,0,1-1.641-1.319c-3.947-3.472-7.865-6.977-11.839-10.418-1.895-1.641-3.863-3.2-5.849-4.728a2.559,2.559,0,0,0-3.515.067,2.8,2.8,0,0,0-.45,3.944,7.591,7.591,0,0,0,1.152,1.174c2.215,1.88,4.445,3.742,6.668,5.612a6.464,6.464,0,0,1,.979.964,12.378,12.378,0,0,0-6.4-.375c-.156-.81-.29-1.524-.432-2.238a8.566,8.566,0,0,0-9.583-6.785c-1.561.167-2.488.182-3.262-1.577a7.5,7.5,0,0,0-6.054-4.245c-.417-.068-.83-.16-1.048-.2a33.708,33.708,0,0,0-1.554-4.311,8.873,8.873,0,0,0-9.051-4.44,10.372,10.372,0,0,0-5.426,2.232c-1.33,1.078-2.688,2.121-4.055,3.153a3.67,3.67,0,0,1-.975.434,1.4,1.4,0,0,1-.455.012H39.961v-35.32h.975c4.979,0,9.959-.01,14.938,0a19.1,19.1,0,0,0,8.531-1.753,12.424,12.424,0,0,1,5.857-1.2c3.387.092,6.786-.018,10.159.234a19.106,19.106,0,0,1,10.192,4.2,4.257,4.257,0,0,1,.5.544c-1.324,1.015-2.613,1.939-3.831,2.949-5.006,4.156-4.373,11.593,1.284,14.522a10.263,10.263,0,0,0,8.876.363c2.786-1.149,5.459-2.582,8.154-3.945a1.075,1.075,0,0,1,1.438.169q15.442,13.913,30.926,27.78c1.21,1.082,1.984,2.237,1.611,3.911a2.649,2.649,0,0,1-2.017,2.159,3.913,3.913,0,0,1-3.915-.884c-2.395-2.315-4.765-4.659-7.238-6.886q-9.82-8.842-19.724-17.591c-1.92-1.7-4.476-1.032-5.055,1.3a2.664,2.664,0,0,0,.9,2.652c1.691,1.639,3.406,3.255,5.154,4.832q9.541,8.6,19.109,17.176c.294.264.58.536.889.821" transform="translate(-10.559 -30.647)" fill="#ffe8ce"/>
    <path id="Trazado_705034" data-name="Trazado 705034" d="M175.023,153.2c-3.485,0-6.905.074-10.321-.026-2.208-.065-3.706.731-4.482,2.831-.147.4-.374.768-.615,1.255-.324-.265-.627-.489-.9-.743q-15.23-14.005-30.457-28.016c-.225-.207-.462-.4-.682-.614a3.311,3.311,0,0,0-4.254-.568c-2.939,1.556-5.948,2.981-8.872,4.564a6.939,6.939,0,0,1-4.525.677,2.943,2.943,0,0,1-1.625-4.82,7.756,7.756,0,0,1,1.237-1.086q7.429-5.608,14.868-11.2a16.681,16.681,0,0,1,10.491-3.46c3.91.038,7.82-.02,11.73.015,5.294.047,9.849,1.925,13.165,6.1a6.572,6.572,0,0,0,6.12,2.766c3.009-.19,6.038-.044,9.124-.044Z" transform="translate(-28.424 -29.592)" fill="#ffe8ce"/>
    <rect id="Rectángulo_349111" data-name="Rectángulo 349111" width="17.487" height="46.971" transform="translate(5.933 82.452)" fill="#abffff"/>
    <rect id="Rectángulo_349112" data-name="Rectángulo 349112" width="17.491" height="46.971" transform="translate(152.578 85.424)" fill="#abffff"/>
    <path id="Trazado_705035" data-name="Trazado 705035" d="M63.056,167.744c1.766.171,2.776.77,3.258,2.058a3.063,3.063,0,0,1-1.219,3.642q-3.752,2.931-7.607,5.728a4.066,4.066,0,0,1-4.031.28,2.885,2.885,0,0,1-.714-4.866c2.644-2.162,5.41-4.178,8.185-6.172a7.168,7.168,0,0,1,2.129-.67" transform="translate(-13.663 -44.323)" fill="#ffe8ce"/>
    <path id="Trazado_705036" data-name="Trazado 705036" d="M106.772,199.943c1.884.026,2.978.659,3.376,1.832a3.176,3.176,0,0,1-1.311,3.775c-2.368,1.826-4.766,3.61-7.125,5.448a4.4,4.4,0,0,1-4,.647,2.922,2.922,0,0,1-1.469-4.653,5.963,5.963,0,0,1,1.065-1c2.259-1.718,4.532-3.416,6.795-5.129a3.61,3.61,0,0,1,2.669-.92" transform="translate(-25.26 -52.824)" fill="#ffe8ce"/>
    <path id="Trazado_705037" data-name="Trazado 705037" d="M67.286,191.8c-2.467-.064-3.75-1.291-3.46-3.41a3.125,3.125,0,0,1,1.005-1.859c2.6-2.076,5.267-4.079,7.957-6.04a4.22,4.22,0,0,1,3.875-.332A2.752,2.752,0,0,1,78.44,183.4a1.4,1.4,0,0,1-.5.712c-.957.76-1.974,1.447-2.906,2.235-1.255,1.062-2.477,2.169-3.668,3.3s-2.339,2.281-4.078,2.15" transform="translate(-16.854 -47.522)" fill="#ffe8ce"/>
    <path id="Trazado_705038" data-name="Trazado 705038" d="M90.893,187.934c1.92.045,2.9.65,3.367,1.956a3,3,0,0,1-1.188,3.566q-3.829,2.98-7.765,5.82a4.394,4.394,0,0,1-4.429-.061,2.392,2.392,0,0,1-.114-4.021,39.447,39.447,0,0,0,6.476-5.5,4.124,4.124,0,0,1,3.652-1.76" transform="translate(-21.065 -49.65)" fill="#ffe8ce"/>
    <path id="Trazado_705039" data-name="Trazado 705039" d="M122.549,205.13c1.076-2.675.508-5.14-.636-7.656,1.046.887,2.064,1.811,3.148,2.65a2.6,2.6,0,0,1,1.04,2.473,2.851,2.851,0,0,1-3.552,2.533" transform="translate(-32.213 -52.179)" fill="#ffe8ce"/>
    <path id="Trazado_705040" data-name="Trazado 705040" d="M138.424,45.534C138.166,60.957,126.273,74.8,109.006,74.8a28.992,28.992,0,0,1-29.17-30.228,29.173,29.173,0,0,1,29.208-28.51c18.192.031,29.409,15.18,29.381,29.472m-29.643,23.42c12.373.377,23.252-9.891,23.783-22.157a23.467,23.467,0,0,0-22.757-24.874c-14.773-.583-23.656,11.9-24.2,22.044a23.489,23.489,0,0,0,23.179,24.987" transform="translate(-21.091 -4.244)" fill="#161615"/>
    <path id="Trazado_705041" data-name="Trazado 705041" d="M110.845,71.052A23.489,23.489,0,0,1,87.666,46.065c.549-10.145,9.431-22.627,24.2-22.044A23.467,23.467,0,0,1,134.628,48.9c-.531,12.266-11.41,22.534-23.783,22.157m12.923-34.3c-5.111,5.135-10.123,10.154-15.105,15.2-.491.5-.859.6-1.383.156-.258-.216-.536-.406-.8-.608q-3.765-2.849-7.526-5.7c-.391-.3-.71-.454-1.072.038-.976,1.327-1.97,2.641-2.943,3.942.06.1.077.171.122.205,3.9,2.941,7.8,5.892,11.723,8.808a2.414,2.414,0,0,0,3.059-.117,8.672,8.672,0,0,0,1.023-.917q8.064-8.09,16.121-16.188c.251-.252.485-.522.711-.767l-3.925-4.053" transform="translate(-23.155 -6.342)" fill="#06d1d1"/>
    <path id="Trazado_705042" data-name="Trazado 705042" d="M126.391,41.334l3.925,4.053c-.226.244-.46.514-.711.767q-8.058,8.1-16.121,16.188a8.673,8.673,0,0,1-1.023.917,2.414,2.414,0,0,1-3.059.117c-3.923-2.916-7.819-5.867-11.723-8.808-.045-.034-.063-.1-.122-.205.973-1.3,1.967-2.614,2.943-3.942.362-.491.681-.335,1.072-.038q3.755,2.862,7.526,5.7c.268.2.547.392.8.608.524.441.892.341,1.383-.156,4.982-5.05,9.995-10.069,15.105-15.2" transform="translate(-25.778 -10.922)" fill="#161615"/>
  </g>
</svg>
