<svg xmlns="http://www.w3.org/2000/svg" xmlns:xlink="http://www.w3.org/1999/xlink" width="190" height="147" viewBox="0 0 190 147">
  <defs>
    <clipPath id="clip-path">
      <rect id="Rectángulo_349098" data-name="Rectángulo 349098" width="190" height="147" rx="17" transform="translate(224 3170)" fill="#fff"/>
    </clipPath>
    <clipPath id="clip-path-2">
      <rect id="Rectángulo_349137" data-name="Rectángulo 349137" width="136.003" height="135.989" fill="none"/>
    </clipPath>
  </defs>
  <g id="Enmascarar_grupo_105" data-name="Enmascarar grupo 105" transform="translate(-224 -3170)" clip-path="url(#clip-path)">
    <g id="Grupo_974798" data-name="Grupo 974798" transform="translate(249.997 3174.936)">
      <g id="Grupo_974797" data-name="Grupo 974797" clip-path="url(#clip-path-2)">
        <path id="Trazado_705075" data-name="Trazado 705075" d="M108.431,96.508l5.776,5.878a5.139,5.139,0,0,1,.58-.793,1.955,1.955,0,0,1,2.879-.057c.414.358.79.76,1.177,1.147,4.666,4.672,9.388,9.288,13.98,14.031a11.345,11.345,0,0,1-2.7,17.77,11.182,11.182,0,0,1-13.524-1.754q-7.324-7.361-14.681-14.689c-1.2-1.2-1.51-2.247.288-3.925l-5.852-5.739a2.049,2.049,0,0,0-.251.133,36.289,36.289,0,0,1-20.59,5.5,53.189,53.189,0,0,1-6.967-.987,1.318,1.318,0,0,0-1.328.394c-2.536,2.568-5.143,5.069-7.621,7.692a4.938,4.938,0,0,1-4.147,1.753c-2.365-.127-4.741-.031-7.194-.031,0,.317,0,.584,0,.849-.04,2.214.025,4.435-.15,6.638a6.187,6.187,0,0,1-5.418,5.526,15.248,15.248,0,0,1-2.046.141q-12.44.014-24.881.006a6.369,6.369,0,0,1-6.32-3.847,7.981,7.981,0,0,1-.64-3.117q-.09-8.6-.017-17.2c.024-3.24,2.225-6.342,6.7-6.532.16-.007.32-.009.48-.009q12.612,0,25.224.007a6.8,6.8,0,0,1,5.824,2.771,7.015,7.015,0,0,1,1.242,4.2c.023,2.03.006,4.06.006,6.133.212.019.386.048.559.048,2.285,0,4.57.017,6.855-.015a1.516,1.516,0,0,0,.953-.377c2.043-1.995,4.057-4.02,6.076-6.039.153-.153.283-.331.484-.569-1-.452-1.912-.845-2.809-1.273a33.985,33.985,0,0,1-13.9-11.955,3.434,3.434,0,0,0-3.333-1.742c-12.04.075-24.081.04-36.122.043-2.918,0-5.16-1.177-6.366-3.884a7.9,7.9,0,0,1-.627-3.12Q-.022,48.04.011,6.576C.013,3.3,2.262.179,6.746.009,6.974,0,7.2,0,7.431,0q60.66,0,121.321,0a6.8,6.8,0,0,1,6.013,2.789A7.238,7.238,0,0,1,136,7.065q.014,7.471,0,14.941,0,33.617,0,67.234a7.14,7.14,0,0,1-1.366,4.7A6.968,6.968,0,0,1,128.9,96.5c-6.534.017-13.069.006-19.6.006Zm2.243-4.43c.3.019.474.04.65.04q9.014.006,18.027,0a2.679,2.679,0,0,0,.741-.09c1.066-.312,1.522-1.056,1.522-2.449q0-41.226,0-82.453c0-.206,0-.413-.015-.616a2.1,2.1,0,0,0-2.341-2.128H6.765A2.1,2.1,0,0,0,4.39,6.732q0,41.466,0,82.933a2.149,2.149,0,0,0,2.474,2.465q17.651,0,35.3-.01h.7c-.1-.277-.171-.484-.252-.687-.394-1-.837-1.976-1.168-2.992a.868.868,0,0,0-1-.721q-14.429.03-28.858.014a2.475,2.475,0,0,1-2.818-2.819q0-30.021,0-60.041v-.71h4.4V83.295H40.07a.837.837,0,0,0,.033-.185c-.026-.227-.048-.455-.091-.679a32.956,32.956,0,0,1,.23-12.922,37.235,37.235,0,0,1,5.407-13.145c.1-.155.174-.484.089-.581-.6-.682-1.237-1.324-1.921-2.039L21.364,78.213,18.116,75.3c1.167-1.25,2.265-2.406,3.342-3.581q5.834-6.363,11.66-12.736,4.448-4.844,8.928-9.659c1.287-1.381,2.354-1.375,3.66,0,.85.893,1.67,1.816,2.477,2.748.292.337.461.289.761,0,1.425-1.379,2.82-2.8,4.33-4.079a34.515,34.515,0,0,1,15.593-7.575c1.33-.274,2.67-.5,4.063-.759-.091-.183-.147-.325-.227-.452-2.3-3.7-4.673-7.363-6.872-11.125-.8-1.371-1.682-2.074-3.269-1.76a4.657,4.657,0,0,1-.889.008h-4.64c0,1.568.024,3.069-.008,4.57a21.928,21.928,0,0,1-.2,3.411,6.45,6.45,0,0,1-6.667,5.17q-12.921.037-25.842,0a6.506,6.506,0,0,1-4.825-1.932,6.953,6.953,0,0,1-1.936-5.109q-.025-8.5,0-17a7.478,7.478,0,0,1,.216-1.691c.72-3.026,3.244-4.94,6.711-4.955q12.852-.052,25.7,0a6.358,6.358,0,0,1,6.731,5.958,62.433,62.433,0,0,1,.112,6.366c0,.263,0,.527,0,.823,2.817,0,5.534,0,8.251,0a2.66,2.66,0,0,1,2.51,1.359c.309.533.658,1.042.985,1.565q4.394,7.024,8.784,14.051a1.178,1.178,0,0,0,1.059.716,32.377,32.377,0,0,1,8.151,1.33,1.125,1.125,0,0,0,1.26-.337q5.707-5.731,11.442-11.434c.167-.167.316-.351.594-.662h-5.7V24.127h10.248c1.982,0,2.868.9,2.869,2.9q0,4.729,0,9.459v.756h-4.422V31.692L91.954,42.727a36.731,36.731,0,0,1,19.607,20.746,36.181,36.181,0,0,1-.887,28.606m-34.7,17.564a32.907,32.907,0,1,0-32.106-34.6c-1.007,19.158,14.6,34.473,32.106,34.6M37.222,35.106v0q6.443,0,12.885,0c1.773,0,2.538-.753,2.539-2.542q0-8.326,0-16.653a5.782,5.782,0,0,0-.022-.684,2.091,2.091,0,0,0-2.33-2.062q-13.022,0-26.044,0A2.093,2.093,0,0,0,21.938,15.5q0,8.532,0,17.064c0,1.788.759,2.542,2.537,2.541q6.373,0,12.748,0m-8.774,96.507v0q6.443,0,12.885,0c1.773,0,2.538-.753,2.539-2.542q0-8.326,0-16.653c0-.205,0-.412-.015-.616a2.1,2.1,0,0,0-2.338-2.13q-13.022,0-26.044,0a2.092,2.092,0,0,0-2.31,2.339q0,8.532,0,17.064c0,1.787.759,2.542,2.538,2.541q6.373,0,12.748,0M106.161,116.3c.143.155.261.292.388.42q5.253,5.259,10.51,10.512c.97.966,1.925,1.957,2.975,2.832a7.038,7.038,0,0,0,11.37-3.728,6.953,6.953,0,0,0-1.757-6.79c-3.852-3.992-7.81-7.883-11.718-11.82-.542-.546-1.051-1.125-1.52-1.629l-10.249,10.2m-.253-16.139-5.7,5.71,5.048,5.074,5.688-5.723-5.036-5.061" transform="translate(0 0)" fill="#161615"/>
        <path id="Trazado_705076" data-name="Trazado 705076" d="M114.263,95.667a36.181,36.181,0,0,0,.887-28.606A36.73,36.73,0,0,0,95.543,46.316l11.109-11.035v5.553h4.422v-.756q0-4.729,0-9.458c0-2.005-.887-2.9-2.869-2.9H97.958v4.393h5.7c-.278.311-.427.5-.594.662Q97.341,38.485,91.622,44.2a1.125,1.125,0,0,1-1.259.337,32.382,32.382,0,0,0-8.151-1.33,1.18,1.18,0,0,1-1.059-.716q-4.387-7.028-8.784-14.051c-.327-.523-.675-1.033-.985-1.565a2.662,2.662,0,0,0-2.51-1.36c-2.717.007-5.434,0-8.25,0,0-.3,0-.561,0-.824a62.581,62.581,0,0,0-.112-6.366,6.358,6.358,0,0,0-6.731-5.958q-12.852-.056-25.7,0c-3.467.014-5.991,1.928-6.71,4.955a7.415,7.415,0,0,0-.216,1.691q-.023,8.5,0,17a6.951,6.951,0,0,0,1.935,5.109,6.509,6.509,0,0,0,4.825,1.932q12.921.036,25.842,0a6.451,6.451,0,0,0,6.668-5.171,21.984,21.984,0,0,0,.2-3.41c.031-1.5.007-3,.007-4.57h4.64a4.657,4.657,0,0,0,.889-.008c1.586-.315,2.468.389,3.269,1.76,2.2,3.762,4.571,7.423,6.872,11.125.079.128.136.269.227.452-1.394.259-2.734.485-4.064.759a34.516,34.516,0,0,0-15.593,7.576c-1.51,1.281-2.9,2.7-4.33,4.079-.3.29-.469.338-.761,0-.807-.932-1.627-1.855-2.477-2.748-1.305-1.372-2.374-1.378-3.66,0q-4.483,4.813-8.929,9.659Q30.868,68.927,25.047,75.3c-1.077,1.175-2.174,2.331-3.342,3.581L24.953,81.8,47.406,57.333c.684.715,1.326,1.357,1.921,2.039.085.1.013.427-.089.582A37.23,37.23,0,0,0,43.832,73.1,32.946,32.946,0,0,0,43.6,86.02c.042.224.064.452.091.679a.814.814,0,0,1-.033.185H16.769V27.753h-4.4v.71q0,30.02,0,60.041a2.476,2.476,0,0,0,2.819,2.819q14.429,0,28.858-.014a.868.868,0,0,1,1,.721c.331,1.016.774,2,1.168,2.992.08.2.151.41.252.687h-.7q-17.651.006-35.3.011a2.15,2.15,0,0,1-2.475-2.465V10.321a2.1,2.1,0,0,1,2.376-2.344H132.846a2.1,2.1,0,0,1,2.341,2.127c.02.2.015.411.015.616q0,41.227,0,82.454c0,1.393-.456,2.137-1.521,2.449a2.662,2.662,0,0,1-.742.089q-9.013,0-18.027,0c-.176,0-.353-.021-.65-.04" transform="translate(-3.59 -3.589)" fill="#ffe8ce"/>
        <path id="Trazado_705077" data-name="Trazado 705077" d="M111.825,145.5c-17.51-.122-33.113-15.437-32.106-34.6a32.931,32.931,0,1,1,32.106,34.6m29.313-32.838c-.2-14.7-11.289-28.348-28.384-28.5a28.461,28.461,0,1,0,28.384,28.5" transform="translate(-35.846 -35.858)" fill="#abffff"/>
        <path id="Trazado_705078" data-name="Trazado 705078" d="M55.165,45.87q-6.374,0-12.748,0c-1.778,0-2.537-.754-2.537-2.542q0-8.532,0-17.064a2.093,2.093,0,0,1,2.311-2.339q13.022,0,26.044,0a2.091,2.091,0,0,1,2.33,2.062,5.906,5.906,0,0,1,.022.684q0,8.326,0,16.653c0,1.789-.766,2.544-2.539,2.542q-6.443-.007-12.885,0v0M44.3,32.653H66.148V28.345H44.3Zm21.872,4.48H44.322v4.3H66.171Z" transform="translate(-17.943 -10.764)" fill="#06d1d1"/>
        <path id="Trazado_705079" data-name="Trazado 705079" d="M39.214,221.312q-6.373,0-12.748,0c-1.778,0-2.537-.754-2.537-2.541q0-8.532,0-17.064a2.092,2.092,0,0,1,2.31-2.339q13.022,0,26.044,0a2.1,2.1,0,0,1,2.338,2.13c.02.2.015.411.015.616q0,8.327,0,16.653c0,1.789-.765,2.544-2.538,2.542q-6.443-.007-12.885,0v0M50.22,203.8H28.371v4.305H50.22ZM28.348,216.867H50.2v-4.3H28.348Z" transform="translate(-10.766 -89.699)" fill="#06d1d1"/>
        <path id="Trazado_705080" data-name="Trazado 705080" d="M192.992,203.082l10.249-10.2c.469.5.977,1.083,1.519,1.628,3.909,3.938,7.867,7.828,11.718,11.82a6.952,6.952,0,0,1,1.757,6.79,7.037,7.037,0,0,1-11.37,3.728c-1.05-.875-2.005-1.865-2.975-2.831q-5.266-5.246-10.51-10.512c-.128-.128-.246-.266-.388-.42" transform="translate(-86.831 -86.78)" fill="#ffc403"/>
        <path id="Trazado_705081" data-name="Trazado 705081" d="M187.87,182.088l5.036,5.061-5.688,5.723L182.17,187.8l5.7-5.71" transform="translate(-81.962 -81.925)" fill="#fff"/>
        <path id="Trazado_705082" data-name="Trazado 705082" d="M144.807,116.313a28.49,28.49,0,1,1-28.384-28.5c17.1.151,28.183,13.8,28.384,28.5m-49.967,10.93a4.275,4.275,0,0,0,.193.526,24.126,24.126,0,0,0,30.932,10.576,22.956,22.956,0,0,0,11.947-11.276,23.757,23.757,0,0,0-.051-21.646c-3.11-6.326-8.293-10.293-14.953-12.394-1.8-.568-1.812-.526-3.16.825q-8.422,8.44-16.844,16.88c-1.506,1.508-2.481,1.512-3.911-.037-1.317-1.426-2.588-2.894-3.884-4.338-.169-.189-.373-.348-.588-.546a24.144,24.144,0,0,0-1.738,16.042c.215,1,.228,1,1.283,1h26.562v4.387Zm20.268-35.021c-5.111-.78-15.08,4.515-18.159,9.741l3.961,4.423,14.2-14.165" transform="translate(-39.515 -39.509)" fill="#161615"/>
        <rect id="Rectángulo_349133" data-name="Rectángulo 349133" width="21.849" height="4.308" transform="translate(26.357 17.581)" fill="#161615"/>
        <rect id="Rectángulo_349134" data-name="Rectángulo 349134" width="21.849" height="4.304" transform="translate(26.379 26.368)" fill="#161615"/>
        <rect id="Rectángulo_349135" data-name="Rectángulo 349135" width="21.849" height="4.305" transform="translate(17.604 114.101)" fill="#161615"/>
        <rect id="Rectángulo_349136" data-name="Rectángulo 349136" width="21.849" height="4.305" transform="translate(17.582 122.862)" fill="#161615"/>
        <path id="Trazado_705083" data-name="Trazado 705083" d="M98.374,131.227h25.788v-4.386H97.6c-1.055,0-1.069,0-1.284-1A24.151,24.151,0,0,1,98.055,109.8c.215.2.418.358.588.546,1.3,1.445,2.567,2.913,3.884,4.339,1.431,1.549,2.406,1.545,3.912.036q8.424-8.437,16.844-16.88c1.347-1.35,1.361-1.392,3.16-.825,6.661,2.1,11.844,6.067,14.954,12.393a23.76,23.76,0,0,1,.051,21.647A22.963,22.963,0,0,1,129.5,142.33a24.125,24.125,0,0,1-30.932-10.577,4.123,4.123,0,0,1-.193-.526" transform="translate(-43.05 -43.493)" fill="#ffe8ce"/>
        <path id="Trazado_705084" data-name="Trazado 705084" d="M122.567,95.765l-14.2,14.165-3.961-4.423c3.079-5.227,13.048-10.521,18.159-9.741" transform="translate(-46.975 -43.052)" fill="#ffe8ce"/>
      </g>
    </g>
  </g>
</svg>
