<svg id="Grupo_974807" data-name="Grupo 974807" xmlns="http://www.w3.org/2000/svg" xmlns:xlink="http://www.w3.org/1999/xlink" width="149.667" height="149.511" viewBox="0 0 149.667 149.511">
  <defs>
    <clipPath id="clip-path">
      <rect id="Rectángulo_349142" data-name="Rectángulo 349142" width="149.667" height="149.511" fill="none"/>
    </clipPath>
  </defs>
  <g id="Grupo_974806" data-name="Grupo 974806" clip-path="url(#clip-path)">
    <path id="Trazado_705135" data-name="Trazado 705135" d="M83.434,94.694c-.409.52-.753.988-1.126,1.431a9.887,9.887,0,0,1-4.492,3.008c-.4.134-.595.286-.592.754q.038,6.062.022,12.125c0,.528.33.632.719.754a9.392,9.392,0,0,1,6.053,5.714,9.72,9.72,0,0,1-5.55,12.843c-1.229.472-1.237.472-1.233,1.766q.018,6.757.047,13.515a2.594,2.594,0,0,1-1.62,2.752,2.38,2.38,0,0,1-3.171-1.793,7.464,7.464,0,0,1-.094-1.235c-.009-4.676-.005-9.351-.03-14.025a.82.82,0,0,0-.363-.646,9.836,9.836,0,0,1-5.55-4.268,1.639,1.639,0,0,0-.252-.239c-1.4,1.622-2.758,3.234-4.149,4.819-2.407,2.745-4.835,5.471-7.247,8.21-.37.42-.713.864-1.058,1.3a7.7,7.7,0,0,1-6.318,3.1q-19.871.022-39.743,0a7.512,7.512,0,0,1-7.253-5.2,10.472,10.472,0,0,1-.4-2.8C.008,126.943.055,117.3,0,107.656a7.771,7.771,0,0,1,7.927-7.991c8.814.1,17.631.033,26.446.033,4.14,0,8.28.041,12.419-.016A8.684,8.684,0,0,1,53.918,103c3.147,3.715,6.409,7.333,9.616,11,.881,1.006,1.741,2.03,2.655,3.1a4.559,4.559,0,0,0,.433-.5,9.433,9.433,0,0,1,5.107-3.809.88.88,0,0,0,.7-1c-.013-3.872-.022-7.743.011-11.615a.97.97,0,0,0-.759-1.084,9.829,9.829,0,0,1-6.672-8.139,9.456,9.456,0,0,1,4.606-9.6c.711-.411,1.507-.672,2.235-1.057a.971.971,0,0,0,.507-.636q.056-6.173.027-12.345a.688.688,0,0,0-.383-.5,10.6,10.6,0,0,1-5.607-4.339c-.035-.054-.11-.083-.218-.161-1.8,2.112-3.585,4.23-5.4,6.32-2.424,2.794-4.874,5.565-7.308,8.349a7.664,7.664,0,0,1-6.033,2.759q-19.944-.011-39.888-.014A7.318,7.318,0,0,1,.034,72.243q-.069-14.9,0-29.807a7.385,7.385,0,0,1,7.359-7.52c1.7-.065,3.409-.018,5.114-.019q17.351,0,34.7-.013a7.93,7.93,0,0,1,6.356,2.856c4.184,4.845,8.411,9.652,12.682,14.543.168-.21.351-.422.515-.648a10.008,10.008,0,0,1,5.023-3.712.8.8,0,0,0,.653-.883q-.022-5.954-.008-11.907a.765.765,0,0,0-.594-.837c-4.525-1.689-7.048-5.214-6.911-9.987a9.148,9.148,0,0,1,4.658-7.8A10.173,10.173,0,0,1,71.76,15.5a.763.763,0,0,0,.627-.876c0-2.873.02-5.747.03-8.62,0-1.193-.033-2.387,0-3.579A2.389,2.389,0,0,1,73.938.2,2.246,2.246,0,0,1,76.39.6a2.635,2.635,0,0,1,.873,2.229c0,2.484-.011,4.968-.008,7.451,0,1.486,0,2.971.053,4.455a.886.886,0,0,0,.439.677,9.522,9.522,0,0,1,5.337,4.077c.092.14.179.284.307.489,1.372-1.61,2.618-3.1,3.892-4.562,2.876-3.307,5.773-6.595,8.645-9.9a8.59,8.59,0,0,1,6.929-3.093q19.433.088,38.866,0a7.592,7.592,0,0,1,7.9,7.694q.093,14.72,0,29.441a7.548,7.548,0,0,1-7.933,7.736q-19.615,0-39.231.006a7.6,7.6,0,0,1-5.982-2.548c-3.528-3.965-7.022-7.96-10.522-11.949-.831-.948-1.634-1.921-2.493-2.932a5.639,5.639,0,0,0-.408.455A10.047,10.047,0,0,1,78,34.222a.946.946,0,0,0-.782,1.073c.039,3.92.036,7.841.022,11.761,0,.52.218.712.679.857a9.791,9.791,0,0,1,6.826,9.233,9.582,9.582,0,0,1-6.859,9.55c-.416.139-.659.269-.654.784.036,4.066.036,8.132.069,12.2a.69.69,0,0,0,.334.539,9.742,9.742,0,0,1,5.61,4.294c.037.056.113.086.254.189.945-1.1,1.886-2.2,2.836-3.293,3.323-3.821,6.636-7.65,9.98-11.453a7.692,7.692,0,0,1,6.07-2.686c13.2.018,26.4-.006,39.6.02,4.483.009,7.651,3.311,7.658,7.916q.022,13.442,0,26.885a24.9,24.9,0,0,1-.109,3.279,7.385,7.385,0,0,1-7.631,6.787q-19.835.051-39.671.006a7.4,7.4,0,0,1-5.708-2.511q-3.81-4.235-7.55-8.534c-1.842-2.1-3.652-4.235-5.537-6.423M64.092,122.157c-.2-.234-.369-.436-.544-.633-1.679-1.894-3.371-3.776-5.035-5.685q-4.46-5.114-8.889-10.254a2.58,2.58,0,0,0-1.832-.933c-.485-.036-.972-.05-1.458-.05q-18.989-.007-37.977,0a7.277,7.277,0,0,0-1.3.111,2.351,2.351,0,0,0-2.073,2.361c-.029.631-.012,1.265-.011,1.9q.012,13.8.034,27.607c.006,2.1.966,3.038,3.059,3.04,12.878.016,25.757,0,38.635.036a4.285,4.285,0,0,0,3.521-1.66c3.689-4.307,7.449-8.552,11.187-12.816.877-1,1.77-1.989,2.687-3.019m-.036-64.879c-.13-.159-.217-.274-.312-.382-2.191-2.482-4.4-4.952-6.572-7.447q-3.646-4.177-7.249-8.4a3.107,3.107,0,0,0-2.434-1.263c-.437,0-.875-.056-1.312-.056q-16.656,0-33.313,0c-1.559,0-3.117-.023-4.675,0-2.042.027-3.264.834-3.249,3.246.056,9.18.03,18.361.038,27.541,0,.584-.006,1.171.042,1.752a2.444,2.444,0,0,0,2.587,2.489q19.981,0,39.961.006a2.506,2.506,0,0,0,1.894-.781c.389-.4.766-.817,1.133-1.24q3.377-3.886,6.748-7.778c2.219-2.552,4.446-5.1,6.714-7.695m58.068,14.969v0c-6.478,0-12.955.026-19.433-.02a3.506,3.506,0,0,0-3.028,1.391c-.953,1.2-1.971,2.351-2.985,3.5q-5.191,5.891-10.4,11.767c-.731.827-.709.811-.005,1.617,4.437,5.078,8.882,10.15,13.282,15.262a3.7,3.7,0,0,0,3.075,1.469c3.36-.057,6.721-.027,10.082-.029q14.282,0,28.565-.006c2.6,0,3.386-.8,3.395-3.423.005-1.68.013-3.361.013-5.041q0-11.872.006-23.743a2.407,2.407,0,0,0-1.3-2.419,4.451,4.451,0,0,0-1.833-.316c-6.478-.022-12.955-.013-19.433-.013M85.619,24.906c.86.966,1.677,1.864,2.472,2.782q5.787,6.677,11.555,13.37a3.353,3.353,0,0,0,2.848,1.327c1.094-.049,2.191-.03,3.286-.03q17.822,0,35.644,0c2.426,0,3.232-.8,3.241-3.244q.02-5.258.02-10.518,0-9.24-.008-18.479a2.489,2.489,0,0,0-2.728-2.722c-.171,0-.341,0-.511,0-12.733.008-25.466.037-38.2,0A4.718,4.718,0,0,0,99.32,9.165c-4.285,4.982-8.643,9.9-12.972,14.847-.24.273-.46.563-.729.894m-5.769.026a5.022,5.022,0,1,0-5,4.971,4.906,4.906,0,0,0,5-4.971m0,64.847a5.021,5.021,0,0,0-10.04-.124,5.023,5.023,0,0,0,5.012,5.1,4.925,4.925,0,0,0,5.028-4.974m-.006-32.509a5.009,5.009,0,0,0-10.017-.051,5.051,5.051,0,0,0,5.049,5.066,4.9,4.9,0,0,0,4.968-5.015m0,64.885a5.012,5.012,0,0,0-10.024-.06,5.03,5.03,0,0,0,5,5.011,4.9,4.9,0,0,0,5.021-4.951" transform="translate(0 0)" fill="#161615"/>
    <path id="Trazado_705136" data-name="Trazado 705136" d="M67.62,196.52c-.918,1.03-1.81,2.018-2.687,3.019-3.738,4.264-7.5,8.51-11.187,12.817a4.286,4.286,0,0,1-3.521,1.659c-12.878-.033-25.757-.02-38.635-.036-2.093,0-3.053-.943-3.059-3.04q-.042-13.8-.034-27.607c0-.632-.018-1.267.011-1.9a2.352,2.352,0,0,1,2.073-2.361,7.278,7.278,0,0,1,1.3-.111q18.989-.005,37.977,0c.486,0,.974.014,1.458.05a2.584,2.584,0,0,1,1.832.933q4.436,5.135,8.889,10.255c1.663,1.907,3.356,3.789,5.035,5.683.175.2.344.4.544.633m-41.563,2.454c-3.042,0-6.083-.005-9.124.005a7.908,7.908,0,0,0-1.449.122,2.45,2.45,0,0,0-.049,4.8,7.9,7.9,0,0,0,1.594.14q9.014.012,18.028,0a6.9,6.9,0,0,0,1.448-.133,2.415,2.415,0,0,0,1.643-3.527,2.723,2.723,0,0,0-2.748-1.409q-4.672,0-9.343,0m12.333-4.966v0q4.378,0,8.757,0a12.572,12.572,0,0,0,1.385-.04,2.525,2.525,0,0,0,2.323-2.082,2.3,2.3,0,0,0-1.224-2.436,5.427,5.427,0,0,0-2.044-.4c-6.081-.027-12.162-.016-18.244-.007a7.035,7.035,0,0,0-1.376.123,2.423,2.423,0,0,0-1.906,2.288,2.377,2.377,0,0,0,1.767,2.387,7.162,7.162,0,0,0,1.66.162c2.967.015,5.935.007,8.9.007m-21.162-.016c.462,0,.925.024,1.385,0a2.469,2.469,0,0,0,.108-4.931,17.625,17.625,0,0,0-3.126.1,2.372,2.372,0,0,0-2.1,2.478,2.461,2.461,0,0,0,2.347,2.355c.46.031.923,0,1.385.006" transform="translate(-3.528 -74.363)" fill="#06d1d1"/>
    <path id="Trazado_705137" data-name="Trazado 705137" d="M67.569,85.522c-2.268,2.6-4.495,5.143-6.714,7.695q-3.379,3.885-6.748,7.778c-.367.422-.743.838-1.133,1.239a2.5,2.5,0,0,1-1.894.781Q31.1,103,11.119,103.009a2.444,2.444,0,0,1-2.587-2.488c-.047-.582-.041-1.168-.041-1.752-.008-9.181.018-18.362-.038-27.542-.015-2.412,1.207-3.218,3.248-3.246,1.558-.022,3.117,0,4.675,0q16.657,0,33.314,0c.437,0,.874.055,1.312.056A3.108,3.108,0,0,1,53.436,69.3q3.605,4.214,7.249,8.4c2.177,2.494,4.38,4.964,6.571,7.447.1.108.182.222.313.381M38.521,78.043v.007c-3.016,0-6.033,0-9.049,0a8.791,8.791,0,0,0-1.379.11,2.452,2.452,0,0,0-2.05,2.322,2.485,2.485,0,0,0,1.871,2.476,7.353,7.353,0,0,0,1.591.151q8.977.014,17.953,0a6.443,6.443,0,0,0,1.373-.144,2.527,2.527,0,0,0,2.043-2.428,2.483,2.483,0,0,0-2.142-2.4,6.944,6.944,0,0,0-1.233-.088q-4.488-.011-8.976,0M25.887,88.034v-.009q-4.384,0-8.766,0a11.544,11.544,0,0,0-1.458.07,2.454,2.454,0,0,0-1.786,3.751,2.674,2.674,0,0,0,2.493,1.223H35.509c.146,0,.292.006.438-.005a2.557,2.557,0,0,0,2.486-2.4,2.6,2.6,0,0,0-2.468-2.583c-.339-.029-.68-.043-1.02-.044q-4.529-.005-9.058,0M17.317,78c-.591.053-1.2.066-1.8.168a2.457,2.457,0,0,0-2.042,2.337,2.4,2.4,0,0,0,1.9,2.44,15.691,15.691,0,0,0,3.7,0A2.326,2.326,0,0,0,21,80.538a2.456,2.456,0,0,0-2-2.379A16.435,16.435,0,0,0,17.317,78" transform="translate(-3.512 -28.244)" fill="#03a4a4"/>
    <path id="Trazado_705138" data-name="Trazado 705138" d="M183.08,123.6c6.478,0,12.956-.008,19.434.013a4.445,4.445,0,0,1,1.833.316,2.406,2.406,0,0,1,1.3,2.419q-.02,11.871-.006,23.743c0,1.68-.008,3.361-.013,5.041-.008,2.622-.793,3.421-3.395,3.423q-14.282.007-28.565.005c-3.361,0-6.722-.027-10.081.029a3.7,3.7,0,0,1-3.075-1.469c-4.4-5.112-8.845-10.183-13.282-15.262-.7-.805-.726-.79.005-1.617q5.2-5.883,10.4-11.767c1.014-1.151,2.033-2.3,2.985-3.5a3.507,3.507,0,0,1,3.028-1.391c6.478.045,12.955.021,19.433.021Zm-7.36,19.977v.006c-2.654,0-5.308,0-7.962,0-.754,0-1.511,0-2.261.068a2.5,2.5,0,0,0-2.185,1.963,2.3,2.3,0,0,0,1.143,2.482,4.494,4.494,0,0,0,1.945.462c6.233.031,12.467.018,18.7.01a6.166,6.166,0,0,0,1.016-.089,2.341,2.341,0,0,0,2.006-2.182,2.37,2.37,0,0,0-1.689-2.51,6.424,6.424,0,0,0-1.655-.2c-3.019-.02-6.039-.009-9.058-.009m12.465-4.991v-.006q3.614,0,7.227,0c1,0,2,.042,2.991-.046a2.42,2.42,0,0,0,2.078-3.237,2.669,2.669,0,0,0-2.855-1.7q-9.381-.008-18.761,0a6.479,6.479,0,0,0-1.088.1,2.43,2.43,0,0,0-2.025,2.261,2.378,2.378,0,0,0,1.794,2.446,7.465,7.465,0,0,0,1.733.169c2.969.016,5.938.008,8.906.008M167,138.608c0-.019,0-.04,0-.06.485,0,.973.039,1.454-.008a2.434,2.434,0,0,0,2.244-2.284,2.377,2.377,0,0,0-2.043-2.529,15.6,15.6,0,0,0-3.258-.014,2.447,2.447,0,0,0-2.137,2.385,2.568,2.568,0,0,0,2.214,2.427c.5.064,1.016.057,1.525.082" transform="translate(-60.956 -51.353)" fill="#ffe8ce"/>
    <path id="Trazado_705139" data-name="Trazado 705139" d="M146.49,30.16c.269-.33.489-.62.729-.894,4.329-4.945,8.686-9.865,12.972-14.847a4.718,4.718,0,0,1,3.918-1.773c12.733.039,25.466.009,38.2,0,.17,0,.341,0,.511,0a2.49,2.49,0,0,1,2.728,2.722q.018,9.24.008,18.48,0,5.258-.02,10.518c-.009,2.447-.815,3.245-3.241,3.244q-17.823,0-35.645,0c-1.1,0-2.192-.018-3.286.03a3.351,3.351,0,0,1-2.848-1.327q-5.752-6.707-11.555-13.37c-.795-.917-1.612-1.815-2.472-2.782m41.677-2.5v0q4.6,0,9.194,0a6.527,6.527,0,0,0,1.16-.1,2.558,2.558,0,0,0,2.032-2.434,2.493,2.493,0,0,0-2.15-2.4,10.307,10.307,0,0,0-1.31-.07q-9.048-.005-18.1,0a9.205,9.205,0,0,0-1.237.078,2.4,2.4,0,0,0-2.091,2.344,2.487,2.487,0,0,0,2.068,2.462,10.573,10.573,0,0,0,1.526.106c2.967.009,5.935,0,8.9,0m-12.494,5.011c-3.287,0-6.574-.011-9.861.005a2.544,2.544,0,0,0-2.586,2.044,2.423,2.423,0,0,0,1.5,2.644,3.847,3.847,0,0,0,1.417.254q9.167.02,18.334,0a12.593,12.593,0,0,0,1.528-.1,2.374,2.374,0,0,0,2.024-2.245,2.509,2.509,0,0,0-2.711-2.6c-3.214-.013-6.428,0-9.642,0m-8.817-4.97c.569-.043,1.157-.04,1.727-.139a2.453,2.453,0,0,0,2.028-2.413,2.389,2.389,0,0,0-2.187-2.407,19.265,19.265,0,0,0-3.051.009,2.49,2.49,0,0,0-2.2,2.343,2.576,2.576,0,0,0,2.073,2.475c.523.09,1.061.089,1.608.131" transform="translate(-60.871 -5.255)" fill="#abffff"/>
    <path id="Trazado_705140" data-name="Trazado 705140" d="M129.479,39.048a4.906,4.906,0,0,1-5,4.971,5.023,5.023,0,1,1,5-4.971" transform="translate(-49.629 -14.117)" fill="#ffc403"/>
    <path id="Trazado_705141" data-name="Trazado 705141" d="M129.475,150.02a4.924,4.924,0,0,1-5.027,4.974,5.023,5.023,0,0,1-5.013-5.1,5.021,5.021,0,0,1,10.04.124" transform="translate(-49.629 -60.241)" fill="#ffc403"/>
    <path id="Trazado_705142" data-name="Trazado 705142" d="M129.482,94.441a4.9,4.9,0,0,1-4.968,5.015,5.052,5.052,0,0,1-5.049-5.066,5.009,5.009,0,0,1,10.017.051" transform="translate(-49.641 -37.172)" fill="#ffc403"/>
    <path id="Trazado_705143" data-name="Trazado 705143" d="M129.482,205.442a4.9,4.9,0,0,1-5.021,4.951,5.03,5.03,0,0,1-5-5.011,5.012,5.012,0,0,1,10.024.06" transform="translate(-49.638 -83.288)" fill="#ffc403"/>
    <path id="Trazado_705144" data-name="Trazado 705144" d="M29.611,213.2q4.671,0,9.343,0a2.724,2.724,0,0,1,2.749,1.409,2.416,2.416,0,0,1-1.644,3.527,6.893,6.893,0,0,1-1.448.133q-9.013.015-18.028,0a7.9,7.9,0,0,1-1.594-.14,2.45,2.45,0,0,1,.049-4.8,7.91,7.91,0,0,1,1.449-.122c3.041-.011,6.083-.005,9.124,0" transform="translate(-7.082 -88.592)" fill="#161615"/>
    <path id="Trazado_705145" data-name="Trazado 705145" d="M50.88,201.168c-2.967,0-5.935.008-8.9-.007A7.188,7.188,0,0,1,40.318,201a2.379,2.379,0,0,1-1.768-2.388,2.421,2.421,0,0,1,1.906-2.288,6.953,6.953,0,0,1,1.376-.123c6.081-.01,12.163-.021,18.244.006a5.443,5.443,0,0,1,2.044.4,2.3,2.3,0,0,1,1.224,2.437,2.524,2.524,0,0,1-2.323,2.082,12.568,12.568,0,0,1-1.385.04q-4.378,0-8.757,0Z" transform="translate(-16.018 -81.523)" fill="#161615"/>
    <path id="Trazado_705146" data-name="Trazado 705146" d="M20.786,201.147c-.462,0-.925.026-1.385,0a2.462,2.462,0,0,1-2.347-2.355,2.373,2.373,0,0,1,2.1-2.478,17.632,17.632,0,0,1,3.126-.1,2.469,2.469,0,0,1-.108,4.932c-.46.029-.923,0-1.385,0" transform="translate(-7.086 -81.52)" fill="#161615"/>
    <path id="Trazado_705147" data-name="Trazado 705147" d="M51.026,85.2q4.488,0,8.976,0a7,7,0,0,1,1.233.089,2.483,2.483,0,0,1,2.142,2.4,2.527,2.527,0,0,1-2.042,2.428,6.452,6.452,0,0,1-1.374.144q-8.977.015-17.952,0a7.319,7.319,0,0,1-1.592-.151,2.485,2.485,0,0,1-1.871-2.476,2.453,2.453,0,0,1,2.05-2.322,8.792,8.792,0,0,1,1.379-.11c3.016-.009,6.033,0,9.049,0Z" transform="translate(-16.016 -35.404)" fill="#161615"/>
    <path id="Trazado_705148" data-name="Trazado 705148" d="M29.474,102.292q4.529,0,9.058,0c.34,0,.681.015,1.021.044a2.6,2.6,0,0,1,2.467,2.583,2.557,2.557,0,0,1-2.486,2.4c-.145.011-.292.005-.438.005H19.958a2.673,2.673,0,0,1-2.493-1.223,2.455,2.455,0,0,1,1.786-3.751,11.657,11.657,0,0,1,1.458-.07q4.383-.01,8.766,0Z" transform="translate(-7.099 -42.501)" fill="#161615"/>
    <path id="Trazado_705149" data-name="Trazado 705149" d="M20.887,85.131a16.435,16.435,0,0,1,1.687.159,2.456,2.456,0,0,1,2,2.379,2.326,2.326,0,0,1-1.925,2.409,15.691,15.691,0,0,1-3.7,0,2.4,2.4,0,0,1-1.9-2.44A2.457,2.457,0,0,1,19.088,85.3c.6-.1,1.208-.116,1.8-.168" transform="translate(-7.082 -35.375)" fill="#161615"/>
    <path id="Trazado_705150" data-name="Trazado 705150" d="M187.5,157.79c3.019,0,6.039-.01,9.058.009a6.426,6.426,0,0,1,1.655.2,2.37,2.37,0,0,1,1.689,2.51,2.341,2.341,0,0,1-2.006,2.182,6.169,6.169,0,0,1-1.016.089c-6.233.007-12.467.022-18.7-.01a4.493,4.493,0,0,1-1.945-.462,2.3,2.3,0,0,1-1.143-2.483,2.5,2.5,0,0,1,2.185-1.961c.75-.067,1.507-.067,2.261-.069,2.654-.008,5.308,0,7.962,0Z" transform="translate(-72.734 -65.566)" fill="#161615"/>
    <path id="Trazado_705151" data-name="Trazado 705151" d="M208.842,145.7c-2.969,0-5.938.009-8.907-.008a7.405,7.405,0,0,1-1.733-.17,2.378,2.378,0,0,1-1.794-2.445,2.432,2.432,0,0,1,2.025-2.262,6.54,6.54,0,0,1,1.088-.1q9.381-.011,18.761,0a2.669,2.669,0,0,1,2.855,1.7,2.419,2.419,0,0,1-2.078,3.236c-.991.087-1.993.044-2.991.046q-3.613.007-7.226,0Z" transform="translate(-81.613 -58.468)" fill="#161615"/>
    <path id="Trazado_705152" data-name="Trazado 705152" d="M178.774,145.754c-.508-.025-1.021-.018-1.525-.082a2.568,2.568,0,0,1-2.214-2.427,2.447,2.447,0,0,1,2.137-2.385,15.6,15.6,0,0,1,3.258.014,2.377,2.377,0,0,1,2.043,2.529,2.434,2.434,0,0,1-2.244,2.284c-.48.047-.969.008-1.454.008,0,.02,0,.04,0,.06" transform="translate(-72.732 -58.499)" fill="#161615"/>
    <path id="Trazado_705153" data-name="Trazado 705153" d="M208.913,34.786c-2.967,0-5.935,0-8.9,0a10.574,10.574,0,0,1-1.526-.106,2.487,2.487,0,0,1-2.068-2.462,2.4,2.4,0,0,1,2.091-2.344,9.109,9.109,0,0,1,1.237-.078q9.048-.009,18.1,0a10.416,10.416,0,0,1,1.31.07,2.493,2.493,0,0,1,2.15,2.4,2.558,2.558,0,0,1-2.032,2.434,6.473,6.473,0,0,1-1.16.1q-4.6.011-9.194,0Z" transform="translate(-81.617 -12.377)" fill="#161615"/>
    <path id="Trazado_705154" data-name="Trazado 705154" d="M187.542,46.913c3.214,0,6.428-.009,9.642,0a2.508,2.508,0,0,1,2.711,2.6,2.373,2.373,0,0,1-2.024,2.244,12.6,12.6,0,0,1-1.528.1q-9.168.014-18.334,0a3.847,3.847,0,0,1-1.417-.253,2.424,2.424,0,0,1-1.5-2.645,2.544,2.544,0,0,1,2.585-2.043c3.287-.016,6.574-.005,9.861-.006" transform="translate(-72.739 -19.492)" fill="#161615"/>
    <path id="Trazado_705155" data-name="Trazado 705155" d="M178.719,34.847c-.547-.041-1.085-.041-1.608-.131a2.576,2.576,0,0,1-2.073-2.475,2.49,2.49,0,0,1,2.2-2.343,19.265,19.265,0,0,1,3.051-.009,2.389,2.389,0,0,1,2.187,2.407,2.453,2.453,0,0,1-2.028,2.413c-.57.1-1.157.1-1.727.139" transform="translate(-72.733 -12.396)" fill="#161615"/>
  </g>
</svg>
