<svg id="Grupo_974805" data-name="Grupo 974805" xmlns="http://www.w3.org/2000/svg" xmlns:xlink="http://www.w3.org/1999/xlink" width="119.21" height="158.35" viewBox="0 0 119.21 158.35">
  <defs>
    <clipPath id="clip-path">
      <rect id="Rectángulo_349141" data-name="Rectángulo 349141" width="119.21" height="158.35" fill="none"/>
    </clipPath>
  </defs>
  <rect id="Rectángulo_349139" data-name="Rectángulo 349139" width="103.603" height="142.687" transform="translate(11.805 4.731)" fill="#fff"/>
  <rect id="Rectángulo_349140" data-name="Rectángulo 349140" width="103.603" height="142.687" transform="translate(1.879 13.416)" fill="#fff"/>
  <g id="Grupo_974804" data-name="Grupo 974804">
    <g id="Grupo_974803" data-name="Grupo 974803" clip-path="url(#clip-path)">
      <path id="Trazado_705115" data-name="Trazado 705115" d="M108.441,147.595c0,.855,0,1.671,0,2.488a7.936,7.936,0,0,1-8.056,8.264c-.1,0-.206,0-.309,0q-45.936,0-91.873,0a7.738,7.738,0,0,1-7.829-5.758,9.623,9.623,0,0,1-.358-2.513c-.021-6.623,0-13.247.01-19.87,0-.54.023-1.083.076-1.621a2.225,2.225,0,0,1,2.324-2.1,2.174,2.174,0,0,1,2.163,2.251c.024,3.118.006,6.237.007,9.355q0,5.915.013,11.829c.009,2.567,1.207,3.768,3.787,3.808,1.262.019,2.524.009,3.786.009q43.7,0,87.391,0a9.493,9.493,0,0,0,2.067-.164,2.827,2.827,0,0,0,2.17-2.6c.06-1.26.04-2.524.04-3.787q0-62.82,0-125.64c0-.954.024-1.908-.01-2.861-.078-2.213-1.189-3.253-3.42-3.251q-8.808.011-17.617.017-36.74,0-73.481,0c-.541,0-1.082,0-1.622.018a2.975,2.975,0,0,0-2.986,2.671,9.927,9.927,0,0,0-.089,1.308Q4.608,68.3,4.6,117.169c0,.283.009.568-.016.85a2.3,2.3,0,0,1-2.1,2.12A2.269,2.269,0,0,1,.151,118.4,7.248,7.248,0,0,1,0,116.787Q0,68.889.01,20.991a22.041,22.041,0,0,1,.181-3.624,7.848,7.848,0,0,1,7.757-6.645c.9-.026,1.8,0,2.821,0,0-.98-.015-1.923,0-2.865A8.041,8.041,0,0,1,12.1,3.479,7.911,7.911,0,0,1,18.583.015C18.891-.006,19.2,0,19.51,0q45.473,0,90.945.01a16.212,16.212,0,0,1,2.606.246,7.606,7.606,0,0,1,6.037,7.1c.078,2.988.08,5.977.1,8.966.017,3.119.015,6.237.015,9.355a6.655,6.655,0,0,1-.064,1,2.311,2.311,0,0,1-2.34,2.027,2.288,2.288,0,0,1-2.179-2.2c-.04-.565-.03-1.133-.03-1.7q-.007-8.235-.011-16.469c0-2.441-1.187-3.688-3.64-3.694Q96.111,4.6,81.276,4.622q-31.022,0-62.046.011a7.283,7.283,0,0,0-1.607.138A2.808,2.808,0,0,0,15.4,7.328c-.072.975-.029,1.957-.055,2.935-.013.48.247.532.641.52,1.21-.038,2.42-.066,3.63-.066q40.18-.007,80.36,0c5.214,0,8.464,3.265,8.464,8.51V142.814a25.965,25.965,0,0,0,3.843-.042,2.661,2.661,0,0,0,2.171-2.343,10.855,10.855,0,0,0,.136-2q.007-49.869,0-99.737c0-.489,0-.98.021-1.468a2.244,2.244,0,0,1,4.483-.109c.087,1.258.1,2.524.1,3.786q.007,39.511,0,79.021,0,9.665.011,19.33c0,4.177-2.418,7.422-6.229,8.17a23.884,23.884,0,0,1-3.69.173c-.251.009-.5,0-.849,0" transform="translate(0 0)" fill="#161615"/>
      <path id="Trazado_705116" data-name="Trazado 705116" d="M40.629,81.013c-13.7-.45-22.647-11.287-22.161-23.2.458-11.247,8.947-21.578,22.588-21.463,14.093.119,22.07,11.7,21.987,22.277-.1,12.344-9.347,22.1-22.414,22.387M38.456,50.108c0-2.756-.019-5.513.014-8.268.007-.617-.193-.8-.755-.657a30.486,30.486,0,0,0-3.271.86A17.767,17.767,0,0,0,23.85,64.049a17.762,17.762,0,0,0,28.912,7.627,17.01,17.01,0,0,0,5.464-9.788c.074-.386.425-1.037-.494-1.034q-7.453.021-14.9.024c-.8,0-1.6,0-2.389-.054a1.893,1.893,0,0,1-1.784-1.468,6.838,6.838,0,0,1-.19-1.753c-.02-2.5-.009-5-.007-7.5m19.894,6.2c-.731-7.53-8.752-15.5-15.187-15.191V56.309Z" transform="translate(-7.004 -13.799)" fill="#161615"/>
      <path id="Trazado_705117" data-name="Trazado 705117" d="M107.941,144.231q-8.651,0-17.3,0c-2.813,0-4.315-1.467-4.319-4.262-.011-6.518,0-13.035-.01-19.552,0-1.44.287-2.8,1.554-3.583a5.367,5.367,0,0,1,2.657-.824q17.571-.078,35.143-.023c2.639,0,4.083,1.395,4.12,4.06.07,5.1.039,10.2.044,15.3,0,1.571.02,3.144-.034,4.714a3.943,3.943,0,0,1-4.322,4.167q-8.767.015-17.533,0M125.1,120.766H90.961v.823c0,5.694.008,11.389-.03,17.083,0,.754.2.955.937.953q15.489-.033,30.979-.015H125.1Z" transform="translate(-32.766 -44.025)" fill="#161615"/>
      <path id="Trazado_705118" data-name="Trazado 705118" d="M18.356,186.962q0-7.652,0-15.3a3.853,3.853,0,0,1,4.068-4.154c1.957-.022,3.914-.018,5.871,0a3.7,3.7,0,0,1,3.817,3.563c.065.821.079,1.647.079,2.471q.006,14.028-.007,28.057a9.537,9.537,0,0,1-.125,1.846,3.792,3.792,0,0,1-3.634,3.021c-2.085.033-4.172.045-6.257,0a3.883,3.883,0,0,1-3.812-3.959q-.007-7.767,0-15.535m9.126,14.928a2.293,2.293,0,0,0,.085-.323q.017-14.406.039-28.812c0-.5-.213-.609-.648-.6-1,.014-2.01.043-3.01-.016-.729-.043-.962.176-.96.932q.033,13.4.008,26.805c0,.515-.037,1.032,0,1.544.012.165.214.449.334.452,1.383.032,2.768.02,4.15.02" transform="translate(-6.968 -63.582)" fill="#161615"/>
      <path id="Trazado_705119" data-name="Trazado 705119" d="M59.769,196.222q0,5.6,0,11.2a3.851,3.851,0,0,1-4.105,4.11q-2.741.007-5.482,0a3.894,3.894,0,0,1-4.157-4.159q-.006-10.276.025-20.552a21.018,21.018,0,0,1,.119-2.921,3.357,3.357,0,0,1,3.3-3c2.21-.079,4.427-.094,6.637-.013a3.726,3.726,0,0,1,3.655,3.9c.013,3.812,0,7.623,0,11.435m-9.2-10.637V206.92c1.253,0,2.482-.049,3.7.018.729.04.9-.19.9-.9-.025-6.7-.013-13.4-.015-20.092a1.906,1.906,0,0,0-.075-.365Z" transform="translate(-17.472 -68.65)" fill="#161615"/>
      <path id="Trazado_705120" data-name="Trazado 705120" d="M73.575,207.661c0-2.034-.026-4.068.007-6.1.037-2.357,1.176-3.83,3.5-4.014a45.249,45.249,0,0,1,7.155.05,3.45,3.45,0,0,1,3.126,3.691q.014,6.333,0,12.666a3.706,3.706,0,0,1-3.895,3.879q-2.971.017-5.943,0a3.7,3.7,0,0,1-3.925-3.684c-.074-2.16-.016-4.324-.016-6.486h-.014m4.722,5.6c1.262,0,2.49-.028,3.714.011.659.021.867-.222.787-.859a11.111,11.111,0,0,1-.02-1.387c0-2.753.009-5.5,0-8.257,0-.3.144-.735-.4-.738-1.353-.009-2.705,0-4.082,0Z" transform="translate(-27.927 -74.947)" fill="#161615"/>
      <path id="Trazado_705121" data-name="Trazado 705121" d="M114.724,53.94q6.76,0,13.519,0a13.192,13.192,0,0,1,1.695.086,2.116,2.116,0,0,1-.036,4.2,11.376,11.376,0,0,1-1.308.08q-13.673,0-27.346,0a15.223,15.223,0,0,1-1.926-.107,2.028,2.028,0,0,1-1.761-2.028,2,2,0,0,1,1.718-2.132,10.191,10.191,0,0,1,1.539-.095q6.952-.01,13.905,0Z" transform="translate(-37.036 -20.476)" fill="#161615"/>
      <path id="Trazado_705122" data-name="Trazado 705122" d="M114.7,70.3q7.3,0,14.6,0a2.169,2.169,0,0,1,2.464,2.008,2.034,2.034,0,0,1-1.565,2.18,4.543,4.543,0,0,1-1.069.118q-14.449.01-28.9.01a2.369,2.369,0,0,1-2.425-1.149,2.073,2.073,0,0,1,1.517-3.116,5.328,5.328,0,0,1,.924-.048q7.224,0,14.449,0Z" transform="translate(-37.025 -26.688)" fill="#161615"/>
      <path id="Trazado_705123" data-name="Trazado 705123" d="M114.68,90.869q-7.03,0-14.061,0a11.073,11.073,0,0,1-1.158-.031,2.119,2.119,0,0,1-.249-4.167,6.226,6.226,0,0,1,1.3-.123q14.024-.012,28.047,0a9.036,9.036,0,0,1,1.46.1,2.07,2.07,0,0,1,1.772,2.178,2.1,2.1,0,0,1-1.894,2.01,10.277,10.277,0,0,1-1.158.038q-7.03,0-14.061,0" transform="translate(-37.044 -32.852)" fill="#161615"/>
      <path id="Trazado_705124" data-name="Trazado 705124" d="M39.339,147.686h-14.6a2.231,2.231,0,0,1-2.344-1.405,2.042,2.042,0,0,1,1.546-2.765,8.845,8.845,0,0,1,1.46-.11q13.793-.011,27.584,0a9.438,9.438,0,0,1,1.691.119,2.092,2.092,0,0,1,1.734,2.15,2.2,2.2,0,0,1-1.927,2,8.574,8.574,0,0,1-1,.03q-7.07,0-14.139,0v-.02" transform="translate(-8.446 -54.437)" fill="#161615"/>
      <path id="Trazado_705125" data-name="Trazado 705125" d="M39.276,131.45q-6.954,0-13.908-.006a7.548,7.548,0,0,1-1.534-.128,2.063,2.063,0,0,1,0-4,6.5,6.5,0,0,1,1.379-.134q14.063-.011,28.125,0a7.791,7.791,0,0,1,1.382.114,2.106,2.106,0,0,1,1.7,2.027,2.048,2.048,0,0,1-1.62,2,8.614,8.614,0,0,1-1.687.145q-6.915.017-13.831.006Z" transform="translate(-8.454 -48.278)" fill="#161615"/>
      <path id="Trazado_705126" data-name="Trazado 705126" d="M117.147,177.336q6.489,0,12.977,0a8.343,8.343,0,0,1,1.078.068,2.1,2.1,0,0,1,1.883,2.016,2.065,2.065,0,0,1-1.625,2.151,6,6,0,0,1-1.376.154q-12.86.012-25.722-.006a7.32,7.32,0,0,1-1.829-.226,2.076,2.076,0,0,1,.329-4.07,10.608,10.608,0,0,1,1.309-.077q6.489-.008,12.977,0Z" transform="translate(-38.341 -67.321)" fill="#161615"/>
      <path id="Trazado_705127" data-name="Trazado 705127" d="M117.039,215.8q-6.487,0-12.975,0a9.287,9.287,0,0,1-1.233-.065,2.1,2.1,0,0,1-.032-4.164,9.557,9.557,0,0,1,1.385-.089q12.705-.009,25.409,0a12.541,12.541,0,0,1,1.694.084,2.114,2.114,0,0,1-.118,4.2c-.793.061-1.594.051-2.391.053q-5.87.007-11.739,0Z" transform="translate(-38.347 -80.281)" fill="#161615"/>
      <path id="Trazado_705128" data-name="Trazado 705128" d="M116.976,198.757q-6.528,0-13.055-.007a5.385,5.385,0,0,1-1.372-.162,2.05,2.05,0,0,1-1.527-2.071,2.007,2.007,0,0,1,1.589-1.935,5.143,5.143,0,0,1,1.219-.15q13.21-.012,26.419,0a2.523,2.523,0,0,1,2.55,1.244,1.945,1.945,0,0,1-1.036,2.8,4.62,4.62,0,0,1-1.579.271c-4.4.02-8.806.012-13.21.012" transform="translate(-38.35 -73.808)" fill="#161615"/>
      <path id="Trazado_705129" data-name="Trazado 705129" d="M41.242,53.038c0,2.5-.011,5,.008,7.5a6.864,6.864,0,0,0,.191,1.752,1.892,1.892,0,0,0,1.784,1.468c.793.058,1.593.055,2.39.055q7.452,0,14.9-.024c.919,0,.568.648.494,1.035a17.014,17.014,0,0,1-5.463,9.788,17.762,17.762,0,0,1-28.913-7.628A17.766,17.766,0,0,1,37.231,44.974a30.305,30.305,0,0,1,3.271-.861c.562-.143.762.04.755.657-.033,2.756-.014,5.512-.016,8.268" transform="translate(-9.79 -16.729)" fill="#06d1d1"/>
      <path id="Trazado_705130" data-name="Trazado 705130" d="M73.474,59.222H58.287V44.031c6.435-.313,14.455,7.661,15.187,15.191" transform="translate(-22.127 -16.712)" fill="#ffc403"/>
      <path id="Trazado_705131" data-name="Trazado 705131" d="M127.924,123.7v18.845h-2.251q-15.489,0-30.979.015c-.741,0-.942-.2-.937-.953.038-5.694.027-11.389.03-17.083V123.7Z" transform="translate(-35.592 -46.96)" fill="#abffff"/>
      <path id="Trazado_705132" data-name="Trazado 705132" d="M30.312,204.731c-1.382,0-2.766.012-4.15-.02-.12,0-.322-.287-.334-.452-.04-.512,0-1.029,0-1.544q.006-13.4-.008-26.805c0-.756.231-.975.96-.932,1,.059,2.006.03,3.01.016.435-.006.65.1.648.6Q30.4,190,30.4,204.408a2.293,2.293,0,0,1-.085.323" transform="translate(-9.798 -66.424)" fill="#b20d0d"/>
      <path id="Trazado_705133" data-name="Trazado 705133" d="M53.355,188.491h4.511a1.906,1.906,0,0,1,.075.365c0,6.7-.01,13.395.015,20.092,0,.705-.167.935-.9.9-1.223-.067-2.452-.018-3.7-.018Z" transform="translate(-20.255 -71.555)" fill="#b20d0d"/>
      <path id="Trazado_705134" data-name="Trazado 705134" d="M81.192,216.071V204.839c1.377,0,2.729-.006,4.082,0,.547,0,.4.437.4.738,0,2.753,0,5.5,0,8.257a11.111,11.111,0,0,0,.02,1.387c.08.637-.128.88-.787.859-1.225-.039-2.452-.011-3.714-.011" transform="translate(-30.822 -77.761)" fill="#b20d0d"/>
    </g>
  </g>
</svg>
