<svg id="Grupo_974794" data-name="Grupo 974794" xmlns="http://www.w3.org/2000/svg" xmlns:xlink="http://www.w3.org/1999/xlink" width="145.393" height="161.063" viewBox="0 0 145.393 161.063">
  <defs>
    <clipPath id="clip-path">
      <rect id="Rectángulo_349124" data-name="Rectángulo 349124" width="145.393" height="161.063" fill="none"/>
    </clipPath>
  </defs>
  <g id="Grupo_974793" data-name="Grupo 974793" clip-path="url(#clip-path)">
    <path id="Trazado_705043" data-name="Trazado 705043" d="M40.516,113.116v-1.047q0-15.908,0-31.817c0-2.168.575-2.941,2.67-3.542,4.879-1.4,9.758-2.8,14.645-4.164a1,1,0,0,0,.886-1.156c-.04-4-.02-8.008-.019-12.012,0-2.358,1.055-3.405,3.435-3.406q14.813,0,29.625,0,3.3,0,3.305,3.283c0,4.059.016,8.117-.014,12.175a.914.914,0,0,0,.785,1.065c4.783,1.341,9.558,2.71,14.334,4.071.26.074.522.14.778.226a2.89,2.89,0,0,1,2.3,3.189q0,7.142,0,14.285v18.85h.985q12.094,0,24.187,0c2.351,0,3.4,1.059,3.4,3.432a61.684,61.684,0,0,1-1.252,11.348,2.576,2.576,0,0,1-2.8,2.381c-1.215.055-2.435.018-3.651.042a3.331,3.331,0,0,0-3.356,2.418c-1.178,2.928-2.381,5.846-3.629,8.745-.873,2.025-.715,3.189.832,4.769.738.754,1.5,1.481,2.233,2.243a2.558,2.558,0,0,1,.326,3.707,66.321,66.321,0,0,1-16.455,16.754c-.262.19-.537.364-.816.53a2.583,2.583,0,0,1-3.471-.354c-.844-.8-1.64-1.651-2.476-2.459a3.584,3.584,0,0,0-4.442-.8q-4.474,1.885-8.969,3.719a3.445,3.445,0,0,0-2.453,3.437c.01,1.163.042,2.326.047,3.489a2.569,2.569,0,0,1-2.223,2.844,56.293,56.293,0,0,1-16.044,1.164c-2.688-.231-5.365-.627-8.036-1.016-2.112-.308-2.82-1.172-2.871-3.322-.021-.892.026-1.785.008-2.677-.048-2.451-.644-3.2-2.911-4.087-2.711-1.066-5.385-2.227-8.074-3.348-.274-.114-.542-.245-.819-.351a3.389,3.389,0,0,0-3.761.7c-.912.846-1.757,1.762-2.657,2.621a2.558,2.558,0,0,1-3.65.332,62.238,62.238,0,0,1-15.857-15.3c-.484-.65-.956-1.312-1.4-1.987a2.454,2.454,0,0,1,.256-3.452c.729-.8,1.529-1.531,2.287-2.3,1.621-1.649,1.784-2.8.878-4.9q-1.824-4.234-3.529-8.52c-.759-1.9-1.683-2.6-3.718-2.62-1.082-.008-2.164.034-3.246.007a2.606,2.606,0,0,1-2.9-2.37A58.327,58.327,0,0,1,11.949,116.1a2.817,2.817,0,0,1,3.042-2.972c2.137-.028,4.274-.007,6.412-.008H40.516Zm95.44,12.073c.251-2.4.481-4.609.713-6.834h-18.8c-1.988,24.364-21.737,38.491-41.106,38.409-21.67-.091-39.169-16.537-40.867-38.408H17.09c.239,2.272.472,4.488.714,6.78.555,0,1.009-.027,1.46.006a14.736,14.736,0,0,1,2.491.251,8.464,8.464,0,0,1,5.955,5.476c1.23,3.023,2.466,6.043,3.746,9.045a8.436,8.436,0,0,1-1.7,9.519c-.425.445-.908.834-1.39,1.273a67.611,67.611,0,0,0,13.471,13.445c.455-.45.853-.853,1.26-1.247a8.418,8.418,0,0,1,9.56-1.834c3.042,1.325,6.116,2.573,9.182,3.843a8.52,8.52,0,0,1,5.37,6.251,15.064,15.064,0,0,1,.229,2.9c.014.5.149.739.673.781.807.064,1.609.2,2.414.282a67.11,67.11,0,0,0,14.251-.167c1.525-.173,1.529-.143,1.546-1.678a8.539,8.539,0,0,1,5.648-8.44c3.133-1.247,6.249-2.533,9.371-3.808a8.031,8.031,0,0,1,8.958,1.536,16.7,16.7,0,0,1,1.472,1.68,66.67,66.67,0,0,0,12.878-12.539c.721-.925.706-.937-.144-1.773-3.014-2.969-3.729-6.481-2.159-10.134,1.245-2.9,2.423-5.824,3.581-8.758a8.6,8.6,0,0,1,7.056-5.836,20.817,20.817,0,0,1,2.98-.021m-94.933-6.843c1.3,12.986,7.606,22.535,18.795,28.942a35.924,35.924,0,0,0,52.9-28.942Zm22.914-57.14v51.857h5.151c0-3.242,0-6.429,0-9.617,0-2.2,1.09-3.309,3.278-3.315q4.544-.013,9.088,0a2.887,2.887,0,0,1,3.218,3.206c.007,2.948,0,5.9,0,8.845v.88h5.134V61.206ZM95.124,77.548v35.529h12.857a1.252,1.252,0,0,0,.064-.259q0-15.536-.016-31.074a.891.891,0,0,0-.511-.632c-.994-.343-2.011-.618-3.023-.906-3.11-.885-6.22-1.765-9.371-2.658M58.658,113.077v-35.5c-.155.031-.283.047-.407.082C54.332,78.776,50.419,79.91,46.493,81c-.652.181-.8.488-.8,1.125q.032,15.049.016,30.1v.855Zm15.684-.025h5.094v-7.689H74.342Z" transform="translate(-4.188 -19.625)" fill="#161615"/>
    <path id="Trazado_705044" data-name="Trazado 705044" d="M25.939,104.345h-5.2v-.95c0-5.84-.006-11.68.01-17.52a1,1,0,0,0-.671-1.088c-2.122-1-4.208-2.084-6.3-3.16a.96.96,0,0,0-1.221.145A7.723,7.723,0,1,1,6.209,68.181a7.656,7.656,0,0,1,9.161,6.266,4.6,4.6,0,0,1,.155,1.361c-.115.867.321,1.234,1.027,1.572,2.361,1.13,4.676,2.355,7.047,3.464a3.736,3.736,0,0,1,2.366,3.827c-.069,6.244-.027,12.491-.027,18.737v.937M10.361,75.779a2.519,2.519,0,0,0-2.575-2.625,2.635,2.635,0,1,0,.019,5.27,2.512,2.512,0,0,0,2.557-2.646" transform="translate(0 -23.857)" fill="#161615"/>
    <path id="Trazado_705045" data-name="Trazado 705045" d="M189.132,104.317h-5.2v-.908c0-6.331.021-12.662-.014-18.992A3.392,3.392,0,0,1,186,81c2.651-1.276,5.256-2.65,7.9-3.936.522-.254.418-.618.418-1a7.767,7.767,0,0,1,5.3-7.648c4.717-1.576,9.948,1.735,10.239,6.651a7.537,7.537,0,0,1-4.093,7.549,7.15,7.15,0,0,1-8.4-.818,1.075,1.075,0,0,0-1.407-.14c-2.029,1.072-4.087,2.09-6.159,3.078a1.033,1.033,0,0,0-.679,1.105c.019,5.844.012,11.688.012,17.531v.941m15.594-28.491a2.616,2.616,0,1,0-5.23-.008,2.563,2.563,0,0,0,2.621,2.6,2.517,2.517,0,0,0,2.609-2.59" transform="translate(-64.487 -23.85)" fill="#161615"/>
    <path id="Trazado_705046" data-name="Trazado 705046" d="M55.529,60.3v-.93c0-5.191.011-10.383-.021-15.575a1.917,1.917,0,0,0-.494-1.171c-1.1-1.188-2.277-2.311-3.405-3.475a.794.794,0,0,0-1.051-.2,7.744,7.744,0,0,1-10.493-5.836,7.782,7.782,0,1,1,15.443-1.053,9.873,9.873,0,0,1-.611,2.505.85.85,0,0,0,.223,1.053c1.484,1.46,2.928,2.961,4.422,4.411a3.774,3.774,0,0,1,1.193,2.894c-.021,5.516-.009,11.032-.009,16.548v.83ZM50.343,31.8a2.529,2.529,0,0,0-2.536-2.668,2.634,2.634,0,1,0-.062,5.268,2.506,2.506,0,0,0,2.6-2.6" transform="translate(-14.006 -8.41)" fill="#161615"/>
    <path id="Trazado_705047" data-name="Trazado 705047" d="M157.134,60.3h-5.2v-.823c0-5.516.01-11.032-.009-16.548a3.783,3.783,0,0,1,1.186-2.9c1.476-1.43,2.9-2.909,4.379-4.338a.932.932,0,0,0,.25-1.2,7.656,7.656,0,0,1,6.724-10.5A8.031,8.031,0,0,1,172.7,30.95a7.766,7.766,0,0,1-10.662,7.962.716.716,0,0,0-.906.188c-1.236,1.249-2.5,2.467-3.717,3.737a1.486,1.486,0,0,0-.271.948c-.016,5.191-.011,10.383-.011,15.575Zm10.4-28.479a2.517,2.517,0,0,0-2.508-2.686,2.63,2.63,0,1,0-.112,5.259,2.5,2.5,0,0,0,2.62-2.573" transform="translate(-53.27 -8.407)" fill="#161615"/>
    <path id="Trazado_705048" data-name="Trazado 705048" d="M110.34,33.713h-5.179V15.08c-3.128-1.432-5.085-3.674-5.2-7.154a7.571,7.571,0,0,1,7.207-7.9c4.128-.335,7.309,2.3,8.174,6.331a7.406,7.406,0,0,1-4.366,8.358.93.93,0,0,0-.652,1.016c.019,5.678.012,11.356.012,17.035v.944m.007-25.878a2.516,2.516,0,0,0-2.5-2.689A2.557,2.557,0,0,0,105.12,7.8a2.543,2.543,0,0,0,2.6,2.6,2.5,2.5,0,0,0,2.623-2.57" transform="translate(-35.049 0)" fill="#161615"/>
    <rect id="Rectángulo_349114" data-name="Rectángulo 349114" width="5.118" height="5.103" transform="translate(20.789 85.739)" fill="#161615"/>
    <rect id="Rectángulo_349115" data-name="Rectángulo 349115" width="5.096" height="5.095" transform="translate(119.506 85.736)" fill="#161615"/>
    <path id="Trazado_705049" data-name="Trazado 705049" d="M138.734,158.873a20.92,20.92,0,0,0-2.981.021,8.6,8.6,0,0,0-7.055,5.837c-1.158,2.933-2.336,5.861-3.581,8.758-1.57,3.654-.855,7.165,2.16,10.135.849.836.865.848.144,1.773a66.707,66.707,0,0,1-12.878,12.538,16.845,16.845,0,0,0-1.471-1.68,8.03,8.03,0,0,0-8.958-1.536c-3.122,1.274-6.239,2.561-9.371,3.808a8.536,8.536,0,0,0-5.647,8.439c-.017,1.536-.02,1.505-1.546,1.679a67.19,67.19,0,0,1-14.251.167c-.807-.08-1.607-.219-2.414-.282-.525-.042-.66-.282-.674-.781a14.918,14.918,0,0,0-.229-2.9,8.517,8.517,0,0,0-5.369-6.25c-3.065-1.27-6.14-2.518-9.182-3.843a8.416,8.416,0,0,0-9.56,1.834c-.408.393-.806.8-1.26,1.246a67.625,67.625,0,0,1-13.471-13.444c.481-.438.964-.828,1.39-1.273a8.438,8.438,0,0,0,1.7-9.519c-1.279-3-2.516-6.023-3.746-9.045a8.462,8.462,0,0,0-5.955-5.476,14.885,14.885,0,0,0-2.492-.251c-.45-.032-.905-.006-1.46-.006-.241-2.292-.474-4.508-.714-6.78H38.672c1.7,21.87,19.2,38.316,40.866,38.408,19.368.081,39.118-14.046,41.106-38.409h18.8c-.232,2.225-.463,4.435-.713,6.833" transform="translate(-6.966 -53.308)" fill="#03a4a4"/>
    <path id="Trazado_705050" data-name="Trazado 705050" d="M56.725,152.025h71.691a35.924,35.924,0,0,1-52.9,28.942c-11.189-6.406-17.5-15.955-18.795-28.942" transform="translate(-19.889 -53.303)" fill="#06d1d1"/>
    <path id="Trazado_705051" data-name="Trazado 705051" d="M92.011,64.033h25.871v51.855h-5.134v-.88c0-2.948,0-5.9,0-8.845a2.887,2.887,0,0,0-3.218-3.206q-4.544-.01-9.088,0c-2.188.006-3.275,1.111-3.278,3.315,0,3.188,0,6.375,0,9.617H92.011Zm20.7,18.2H97.226v5.1h15.483Zm0-10.389H97.227v5.1H112.71Zm0,20.78H97.227v5.1H112.71Z" transform="translate(-32.261 -22.451)" fill="#abffff"/>
    <path id="Trazado_705052" data-name="Trazado 705052" d="M140.036,89.2c3.151.893,6.261,1.773,9.371,2.658,1.012.288,2.029.563,3.023.906a.891.891,0,0,1,.511.632q.035,15.537.016,31.074a1.253,1.253,0,0,1-.064.259H140.036Zm10.294,7.053h-7.692v5.1h7.692Zm-7.741,15.478h7.718V106.65h-7.718Z" transform="translate(-49.1 -31.275)" fill="#fff"/>
    <path id="Trazado_705053" data-name="Trazado 705053" d="M76.882,124.744H63.937v-.855q0-15.049-.016-30.1c0-.638.144-.945.8-1.125,3.927-1.088,7.84-2.222,11.758-3.338.124-.036.253-.052.407-.082Zm-10.319-23.4h7.72v-5.08h-7.72Zm7.711,5.318h-7.7v5.1h7.7Z" transform="translate(-22.412 -31.291)" fill="#fff"/>
    <rect id="Rectángulo_349116" data-name="Rectángulo 349116" width="5.094" height="7.689" transform="translate(70.154 85.738)" fill="#fff"/>
    <path id="Trazado_705054" data-name="Trazado 705054" d="M13.132,78.538a2.512,2.512,0,0,1-2.557,2.646,2.635,2.635,0,1,1-.019-5.27,2.519,2.519,0,0,1,2.575,2.625" transform="translate(-2.771 -26.617)" fill="#ffc403"/>
    <path id="Trazado_705055" data-name="Trazado 705055" d="M213.135,78.593a2.517,2.517,0,0,1-2.609,2.59,2.635,2.635,0,0,1,0-5.269,2.534,2.534,0,0,1,2.605,2.679" transform="translate(-72.896 -26.617)" fill="#ffc403"/>
    <path id="Trazado_705056" data-name="Trazado 705056" d="M53.133,34.577a2.506,2.506,0,0,1-2.6,2.6,2.635,2.635,0,1,1,2.6-2.6" transform="translate(-16.796 -11.188)" fill="#ffc403"/>
    <path id="Trazado_705057" data-name="Trazado 705057" d="M173.133,34.609a2.5,2.5,0,0,1-2.62,2.573,2.63,2.63,0,1,1,.112-5.259,2.517,2.517,0,0,1,2.508,2.686" transform="translate(-58.871 -11.193)" fill="#ffc403"/>
    <path id="Trazado_705058" data-name="Trazado 705058" d="M113.132,10.613a2.5,2.5,0,0,1-2.623,2.57,2.543,2.543,0,0,1-2.6-2.6,2.557,2.557,0,0,1,2.723-2.654,2.516,2.516,0,0,1,2.5,2.689" transform="translate(-37.834 -2.778)" fill="#ffc403"/>
    <rect id="Rectángulo_349117" data-name="Rectángulo 349117" width="15.483" height="5.099" transform="translate(64.965 59.781)" fill="#161615"/>
    <rect id="Rectángulo_349118" data-name="Rectángulo 349118" width="15.483" height="5.098" transform="translate(64.966 49.39)" fill="#161615"/>
    <rect id="Rectángulo_349119" data-name="Rectángulo 349119" width="15.483" height="5.098" transform="translate(64.966 70.171)" fill="#161615"/>
    <rect id="Rectángulo_349120" data-name="Rectángulo 349120" width="7.692" height="5.096" transform="translate(93.538 64.976)" fill="#161615"/>
    <rect id="Rectángulo_349121" data-name="Rectángulo 349121" width="7.718" height="5.079" transform="translate(93.49 75.375)" fill="#161615"/>
    <rect id="Rectángulo_349122" data-name="Rectángulo 349122" width="7.72" height="5.08" transform="translate(44.151 64.97)" fill="#161615"/>
    <rect id="Rectángulo_349123" data-name="Rectángulo 349123" width="7.702" height="5.096" transform="translate(44.16 75.369)" fill="#161615"/>
  </g>
</svg>
