<svg xmlns="http://www.w3.org/2000/svg" xmlns:xlink="http://www.w3.org/1999/xlink" width="107" height="107" viewBox="0 0 107 107">
  <defs>
    <clipPath id="clip-path">
      <rect id="Rectángulo_340250" data-name="Rectángulo 340250" width="74" height="72.209" fill="none"/>
    </clipPath>
  </defs>
  <g id="Grupo_974333" data-name="Grupo 974333" transform="translate(-394 -1336)">
    <path id="Trazado_700600" data-name="Trazado 700600" d="M52.5,0A52.584,52.584,0,0,1,97.532,25.5,52.506,52.506,0,1,1,52.5,0Z" transform="translate(395 1337)" fill="#ffc403" stroke="#8d0a0a" stroke-linejoin="round" stroke-width="2"/>
    <g id="Grupo_974337" data-name="Grupo 974337" transform="translate(408.5 1354)">
      <g id="Grupo_974336" data-name="Grupo 974336" clip-path="url(#clip-path)">
        <path id="Trazado_700631" data-name="Trazado 700631" d="M25.793,6.378c.112.144.266.058.4.067a5.182,5.182,0,0,1,.887.063.983.983,0,0,1,.829.97c.021.778.037.823.783.543a22.164,22.164,0,0,1,3.544-.906,22.507,22.507,0,0,1,3.319-.47c1.146-.053,2.292-.161,3.439-.109,1.195.055,2.387.155,3.576.325A38.027,38.027,0,0,1,48.3,8.2c.664.2,1.309.491,1.961.739.605.23,1.153.558,1.733.83.153.072.208.036.207-.132q-.006-2.145-.007-4.29c0-.649.032-1.3-.012-1.947a7.705,7.705,0,0,1,.054-1.3A1.792,1.792,0,0,1,53.684.6a3.862,3.862,0,0,1,.681-.063C60.176.538,65.988.547,71.8.528a2.024,2.024,0,0,1,1.719.723,2.306,2.306,0,0,1,.464,1.45c.02,1.984.014,3.968.005,5.952A1.205,1.205,0,0,1,72.862,10a1.251,1.251,0,0,1-.243-.05,1.2,1.2,0,0,1-.786-1.211c0-1.9-.008-3.8-.006-5.7,0-.226-.032-.348-.309-.345-1.42.014-2.84.012-4.261,0-.252,0-.322.078-.321.336q.019,2.832,0,5.665a1.843,1.843,0,0,1-1.957,1.981q-1.877.03-3.755,0a1.849,1.849,0,0,1-2-1.8l.01-.021-.014-.019c0-.253,0-.5,0-.757q-.007-2.488-.016-4.976l.014-.021-.015-.02.014-.175c.02-.045.039-.09-.031-.111a1.258,1.258,0,0,0-.522-.085c-1.312.006-2.624.014-3.935,0-.3,0-.405.051-.4.388q.019,8.244.01,16.488a1.454,1.454,0,0,0,.015.322c.051.221.14.385.432.342a7.68,7.68,0,0,1,1-.074c.614-.011,1.228,0,1.841,0l13.684.007c.516,0,.518,0,.519-.5,0-1.732,0-3.464,0-5.2,0-.829.233-1.124,1.024-1.326.958.191,1.112.6,1.125,1.483.028,1.828.015,3.656.006,5.484a2.023,2.023,0,0,1-1.4,2.157.919.919,0,0,1-.305.052q-2.581,0-5.162-.012c-.505,0-1.011,0-1.515-.008-.257-.006-.215.078-.122.248a30.814,30.814,0,0,1,1.841,3.874q.593,1.556,1.037,3.165c.314,1.136.562,2.286.765,3.443.13.741.19,1.5.257,2.256a30.669,30.669,0,0,1,.105,3.408,28.241,28.241,0,0,1-.325,3.541,21.629,21.629,0,0,1-.446,2.391.286.286,0,0,0,.064.266,9.968,9.968,0,0,1,1.621,2.865,7.036,7.036,0,0,1,.322,1.4,16.341,16.341,0,0,1,.222,2.527,10.331,10.331,0,0,1-.431,2.79,7.5,7.5,0,0,1-1.915,3.355c-.083.083-.183.135.034.235A8.175,8.175,0,0,1,70.727,59.5a7.554,7.554,0,0,1,1.838,2.53,9.442,9.442,0,0,1,.788,2.9c.177,1.75.061,3.5.091,5.25a1.84,1.84,0,0,1-2.022,2q-9.062.042-18.124.008a1.768,1.768,0,0,1-1.929-1.716c-.117-1.136-.018-2.283-.044-3.425,0-.124.062-.267-.065-.37.048.029.081.018.08-.04s-.034-.068-.081-.036c.08-.052.072-.128.057-.205.1-.065.022-.126-.022-.149-.071-.037-.107,0-.083.084a8.8,8.8,0,0,0-1.541.592c-1.1.4-2.206.761-3.328,1.082-1.042.3-2.109.492-3.169.707-.643.131-1.309.142-1.961.237a23.507,23.507,0,0,1-4.548.116,9.075,9.075,0,0,1-2.226-.22,7.035,7.035,0,0,0-1.125-.11,19.175,19.175,0,0,1-1.977-.387c-.6-.135-1.194-.326-1.793-.48-.937-.24-1.839-.587-2.755-.888-.075-.025-.19-.043-.206-.169-.021-.163-.088-.151-.242-.11-.262.07-.451-.173-.679-.262-.358-.139-.372-.139-.369.257.008,1.19.04,2.381.011,3.571a1.915,1.915,0,0,1-2.3,1.9,3.805,3.805,0,0,0-.47.026q-9.241,0-18.483,0c-.649,0-1.3.039-1.946-.012a1.867,1.867,0,0,1-1.451-.636,1.711,1.711,0,0,1-.4-1.056c0-1.527.019-3.054,0-4.58-.008-.8.212-1.248,1.079-1.439.91.318,1.08.562,1.08,1.554,0,1.215,0,2.43-.01,3.645,0,.229.091.4.271.438.085.02.24-.1.387-.1,1.108,0,2.215-.012,3.322.011.316.007.376-.089.375-.382-.011-2.742-.007-5.485-.005-8.227a3.141,3.141,0,0,1,.034-.575,1.977,1.977,0,0,1,2.12-1.62c1.986-.006,3.972,0,5.959,0,.614,0,1.228.009,1.841,0a2.068,2.068,0,0,1,2.119,2.2c-.04,2.73-.007,5.461-.02,8.191,0,.342.1.422.432.416,1.179-.021,2.359-.025,3.538,0,.316.006.376-.081.375-.374-.01-2.706-.006-5.413-.006-8.119q0-3.068,0-6.135a.5.5,0,0,0-.208-.5q-3.155-2.028-6.3-4.066c-1.2-.776-2.422-1.51-3.582-2.343a.491.491,0,0,0-.626.019c-.528.338-1.06.672-1.586,1.013q-4.082,2.651-8.166,5.3a.556.556,0,0,0-.264.541q.008,2.291,0,4.583a1.161,1.161,0,0,1-1.2,1.353A1.044,1.044,0,0,1,.253,60.22c0-1.863.019-3.727,0-5.59a1.362,1.362,0,0,1,.669-1.247c1.825-1.2,3.64-2.42,5.485-3.59.68-.432,1.376-.844,2.072-1.252a.347.347,0,0,0,.181-.5A27.022,27.022,0,0,1,7.57,44.32c-.162-.8-.251-1.621-.391-2.429a23.4,23.4,0,0,1-.273-2.5c-.058-.9.016-1.8.006-2.7a22.033,22.033,0,0,1,.138-2.328c.084-.885.256-1.764.428-2.639a29.4,29.4,0,0,1,1.082-4.036,30.282,30.282,0,0,1,2.178-4.8c.029-.052.067-.1.094-.154.179-.366.153-.417-.254-.417q-4.549,0-9.1,0c-1.042,0-1.45-.4-1.45-1.438C.028,16.662.069,12.44,0,8.22A2.11,2.11,0,0,1,1.246,6.158c1.716-1,3.411-2.036,5.12-3.048A4.718,4.718,0,0,1,7.8,2.351c.835-.153,1.408.16,1.468,1.183.039.659.007,1.322.007,2.047.339-.2.653-.383.964-.568,1.448-.863,2.888-1.74,4.346-2.587a1.14,1.14,0,0,1,1.7,1.069c.015.89,0,1.78-.012,2.67,0,.233.049.311.294.3q.974-.033,1.949-.015c.229,0,.3-.049.3-.291-.012-1.443,0-2.886-.007-4.329A1.8,1.8,0,0,1,20.13.115a3.88,3.88,0,0,1,.843-.1c.746,0,1.5-.054,2.237.018a3.616,3.616,0,0,1,1.7.271,1.884,1.884,0,0,1,.869,1.76c0,1.407.006,2.813.01,4.22a.051.051,0,0,0,0,.09M64.675,8.506c.049.032.061.009.057-.038q.007-2.777.017-5.554c0-.165-.031-.22-.218-.218-.951.01-1.9,0-2.852-.008-.222,0-.311.039-.31.3.01,1.731.067,3.462-.021,5.192-.013.253.037.364.331.357,1-.026,2-.021,3-.028M8.957,61.417l-.006,0c-.1.883-.032,1.77-.054,2.654,0,.2.162.171.29.17,2.38-.011,4.759-.028,7.139-.028.256,0,.328-.062.323-.314-.014-.708-.018-1.418,0-2.126.009-.3-.077-.384-.379-.382-2.055.012-4.111,0-6.166.007a6.972,6.972,0,0,0-1.151.02m57.238-8.5c-.042-.083-.122-.061-.19-.064a9.462,9.462,0,0,1-1.393-.211c-1.024-.2-2.029-.474-3.043-.715a27.9,27.9,0,0,0-3.322-.644,3.187,3.187,0,0,0-1.927.23.521.521,0,0,0-.315.507,6.213,6.213,0,0,0,.275,1.784,6.313,6.313,0,0,0,6.436,4.515,3.041,3.041,0,0,0,1.3-.17,6.323,6.323,0,0,0,4.69-5.034c.055-.242-.021-.3-.243-.272a16.468,16.468,0,0,1-2.268.074M20.329,22.333v0c-2.155,0-4.309,0-6.464-.006a.545.545,0,0,0-.541.31,41.234,41.234,0,0,0-2.116,4.178,27.214,27.214,0,0,0-1.782,6.035,24.055,24.055,0,0,0-.29,2.391q-.118,1.449-.1,2.907c.014,1.048.107,2.088.217,3.13.091.858.24,1.7.389,2.546.091.516.263,1.018.382,1.53a10.987,10.987,0,0,1,.414,1.5c.01.111.078.335.27.189.405-.308.882-.5,1.283-.817a1.019,1.019,0,0,1,.924-.259A7.821,7.821,0,0,1,14.8,47c.647.354,1.251.822,1.878,1.233,1.092.716,2.2,1.416,3.287,2.135.985.65,1.987,1.273,2.939,1.977a14.707,14.707,0,0,0,1.473.881,1.751,1.751,0,0,1,.93,1.719c-.031,2.886,0,5.773-.006,8.66a.44.44,0,0,0,.3.467c.443.194.872.418,1.316.609a24.526,24.526,0,0,0,3.532,1.24c1.16.3,2.329.538,3.513.733a23.257,23.257,0,0,0,2.889.251,27.435,27.435,0,0,0,5.729-.32c.962-.165,1.932-.295,2.876-.54a21.449,21.449,0,0,0,4.511-1.613,5.045,5.045,0,0,1,.909-.407c.362-.105.762-.244.853-.749a5.818,5.818,0,0,1,.523-1.395,7.676,7.676,0,0,1,1.96-2.564,7.031,7.031,0,0,1,1.823-1.2c.179-.077.262-.162.071-.347a4.509,4.509,0,0,1-.505-.636,8.789,8.789,0,0,1-1.267-2.354,7.464,7.464,0,0,1-.5-2.464,19.069,19.069,0,0,1,.087-2.823,12.05,12.05,0,0,1,.672-2.39,9.086,9.086,0,0,1,3.1-3.822,5.9,5.9,0,0,1,2.4-1.08A9.7,9.7,0,0,1,62,41.88a10.092,10.092,0,0,1,1.361.067,7.99,7.99,0,0,1,3.135,1c.281.164.385.107.422-.224.067-.606.17-1.206.229-1.815.084-.871.177-1.742.2-2.617a33.93,33.93,0,0,0-.286-4.654,13.746,13.746,0,0,0-.33-1.874c-.2-.774-.374-1.547-.648-2.305-.256-.708-.465-1.433-.734-2.142a38.024,38.024,0,0,0-2.207-4.647.606.606,0,0,0-.625-.353c-2.828.009-5.656,0-8.485,0a1.372,1.372,0,0,1-.672-.147,2.1,2.1,0,0,1-1.176-1.94c0-.457.015-.913.015-1.37,0-2.069-.01-4.138.007-6.206a.586.586,0,0,0-.39-.63A35.7,35.7,0,0,0,46.542,9.9c-.661-.187-1.321-.37-2-.5-1.124-.211-2.253-.38-3.389-.524-.826-.105-1.653-.116-2.478-.184a14.8,14.8,0,0,0-2.509.06,4.845,4.845,0,0,0-.883.041c-.708.2-1.446.139-2.163.3-.664.145-1.349.25-2,.422a27.465,27.465,0,0,0-2.9.892c-.211.081-.326.16-.324.423.019,3.115.024,6.23.031,9.345,0,.361.014.722-.006,1.082a1.055,1.055,0,0,1-.844,1.045,2.708,2.708,0,0,1-.611.031q-3.069,0-6.139,0m-18.14-8.2h.006c0,1.888.008,3.777-.008,5.665,0,.288.059.372.351.367.854-.016,1.711-.038,2.563.018.4.026.428-.1.425-.428q-.021-2.074,0-4.15A1.869,1.869,0,0,1,7.4,13.681q2.888-.043,5.778,0A1.789,1.789,0,0,1,15.02,15.2a4.584,4.584,0,0,1,.031.833c0,1.263.006,2.526,0,3.789,0,.247.035.355.33.352,2.094-.017,4.189-.013,6.283-.012,1.252,0,2.5-.01,3.755.021.283.007.33-.043.329-.308q-.013-5.413,0-10.825c0-.342-.08-.445-.433-.443-3.274.012-6.548.007-9.822,0-.962,0-1.353-.4-1.36-1.364,0-.577-.007-1.154,0-1.732,0-.209-.052-.265-.25-.146Q12.1,6.435,10.323,7.493c-.526.314-1.044.644-1.584.932a1.055,1.055,0,0,1-1.633-.964C7.1,6.824,7.1,6.186,7.094,5.549c0-.158.008-.32-.229-.18L2.4,8.016a.428.428,0,0,0-.217.417c.008,1.9,0,3.8,0,5.7M62.426,70.016V70q4.277,0,8.554,0c.229,0,.344-.034.339-.315-.019-1.142-.016-2.284-.01-3.426a7.656,7.656,0,0,0-.337-2.379,6.407,6.407,0,0,0-4.22-4.255.768.768,0,0,0-.623.033,8.421,8.421,0,0,1-7.5-.013.774.774,0,0,0-.559-.052,6.434,6.434,0,0,0-4.525,5.513c-.1,1.5-.012,3-.058,4.506-.01.332.126.4.424.4q4.259-.01,8.518,0m-49.684.007V70c1.2,0,2.406-.009,3.609.007.253,0,.3-.08.3-.307q-.011-1.515.009-3.03c0-.212-.039-.286-.275-.285-2.286.013-4.572.009-6.858.014-.213,0-.462-.081-.632.059s.045.354.013.538a.64.64,0,0,0,0,.108c0,.866.006,1.732-.016,2.6-.008.29.1.329.355.326,1.167-.013,2.334-.006,3.5-.006" transform="translate(0 0)"/>
        <path id="Trazado_700632" data-name="Trazado 700632" d="M4.171,179.982a1.161,1.161,0,0,0,1.2-1.353q.007-2.292,0-4.583a.556.556,0,0,1,.265-.541q4.088-2.642,8.166-5.3c.526-.342,1.057-.675,1.586-1.013a.491.491,0,0,1,.625-.019c1.16.833,2.385,1.567,3.582,2.343q3.148,2.04,6.3,4.066a.5.5,0,0,1,.208.5q-.006,3.068,0,6.135c0,2.707,0,5.413.006,8.119,0,.293-.059.381-.375.374-1.179-.024-2.359-.02-3.538,0-.329.006-.434-.074-.432-.416.014-2.731-.02-5.462.02-8.191a2.069,2.069,0,0,0-2.119-2.2c-.614.006-1.228,0-1.842,0-1.986,0-3.972-.008-5.959,0a1.977,1.977,0,0,0-2.119,1.62,3.137,3.137,0,0,0-.035.574c0,2.742-.006,5.485.006,8.227,0,.293-.059.389-.375.383-1.107-.023-2.215-.007-3.322-.011-.147,0-.3.118-.387.1-.18-.042-.274-.209-.271-.438.015-1.215.01-2.43.01-3.644,0-.993-.169-1.236-1.08-1.554-.062-.545.051-1.09-.043-1.643a5.192,5.192,0,0,1,.053-1.182.346.346,0,0,0-.13-.343" transform="translate(-2.963 -118.68)" fill="#b20d0d"/>
        <path id="Trazado_700633" data-name="Trazado 700633" d="M192.487,9.71q.008,2.488.016,4.976c0,.253,0,.5,0,.757l-.022.022.026.019a1.849,1.849,0,0,0,2,1.8q1.877.026,3.755,0a1.842,1.842,0,0,0,1.957-1.98q.017-2.833,0-5.665c0-.258.069-.337.321-.336,1.42.007,2.84.009,4.26,0,.277,0,.309.119.309.345,0,1.9.009,3.8.006,5.7a1.2,1.2,0,0,0,.786,1.211,1.233,1.233,0,0,0,.243.05,18.716,18.716,0,0,1,0,3.142c-.79.2-1.022.5-1.023,1.326,0,1.732,0,3.463,0,5.2,0,.506,0,.5-.519.5L190.9,26.761c-.614,0-1.228-.008-1.841,0a7.689,7.689,0,0,0-1,.073c-.291.044-.38-.12-.431-.342a1.456,1.456,0,0,1-.015-.322q0-8.244-.01-16.488c0-.337.1-.391.4-.388,1.311.015,2.623.006,3.935,0a1.257,1.257,0,0,1,.522.085l.031.111-.014.174-.018.021Z" transform="translate(-133.271 -6.603)" fill="#b20d0d"/>
        <path id="Trazado_700634" data-name="Trazado 700634" d="M176.8,228.777c-.024-.08.012-.121.083-.085.044.023.123.084.022.149-.066.028-.081-.026-.105-.065" transform="translate(-125.587 -162.447)" fill="#eb5368"/>
        <path id="Trazado_700635" data-name="Trazado 700635" d="M176.938,229.907c.047-.031.08-.021.081.036s-.032.07-.08.04a.324.324,0,0,1-.019-.055c0-.006.011-.014.018-.022" transform="translate(-125.68 -163.307)" fill="#eb5368"/>
        <path id="Trazado_700636" data-name="Trazado 700636" d="M88.985,21.8a.051.051,0,0,1,0-.09c0,.03,0,.06,0,.09" transform="translate(-63.192 -15.422)" fill="#a6e8a5"/>
        <path id="Trazado_700637" data-name="Trazado 700637" d="M42.487,43.581q3.069,0,6.139,0a2.725,2.725,0,0,0,.611-.031A1.056,1.056,0,0,0,50.08,42.5c.02-.36.007-.721.006-1.082-.008-3.115-.012-6.23-.031-9.345,0-.263.113-.342.324-.423a27.492,27.492,0,0,1,2.9-.892c.654-.172,1.338-.276,2-.422.718-.157,1.455-.092,2.164-.3A4.843,4.843,0,0,1,58.328,30a14.8,14.8,0,0,1,2.509-.06c.825.067,1.652.078,2.478.184,1.136.145,2.265.313,3.389.524.675.127,1.335.31,2,.5a35.692,35.692,0,0,1,5.269,2.125.585.585,0,0,1,.39.63c-.017,2.069-.006,4.138-.007,6.206,0,.457-.014.913-.015,1.37a2.1,2.1,0,0,0,1.176,1.94,1.372,1.372,0,0,0,.672.147c2.828,0,5.657.007,8.485,0a.606.606,0,0,1,.625.354A38,38,0,0,1,87.5,48.563c.269.709.479,1.434.734,2.142.274.758.449,1.532.648,2.305a13.7,13.7,0,0,1,.33,1.874,33.887,33.887,0,0,1,.285,4.654c-.021.875-.115,1.745-.2,2.617-.059.609-.162,1.209-.229,1.815-.036.331-.141.388-.422.224a7.99,7.99,0,0,0-3.135-1,10.092,10.092,0,0,0-1.361-.067,9.742,9.742,0,0,0-1.9.327,5.9,5.9,0,0,0-2.4,1.08,9.092,9.092,0,0,0-3.1,3.822,12.049,12.049,0,0,0-.672,2.39A19.032,19.032,0,0,0,76,73.569a7.456,7.456,0,0,0,.5,2.464,8.8,8.8,0,0,0,1.266,2.354,4.53,4.53,0,0,0,.505.636c.191.186.108.271-.071.347a7.037,7.037,0,0,0-1.823,1.2,7.676,7.676,0,0,0-1.96,2.563,5.816,5.816,0,0,0-.523,1.395c-.09.5-.491.643-.852.748a5.038,5.038,0,0,0-.909.407A21.432,21.432,0,0,1,67.616,87.3c-.944.246-1.914.375-2.876.54a27.436,27.436,0,0,1-5.729.32,23.254,23.254,0,0,1-2.889-.251c-1.184-.195-2.353-.432-3.513-.733a24.527,24.527,0,0,1-3.532-1.24c-.444-.191-.874-.415-1.316-.609a.44.44,0,0,1-.3-.467c0-2.887-.025-5.774.006-8.66a1.751,1.751,0,0,0-.93-1.719,14.759,14.759,0,0,1-1.473-.88c-.952-.7-1.953-1.327-2.939-1.977-1.091-.719-2.195-1.418-3.287-2.135-.627-.411-1.23-.879-1.878-1.233a7.828,7.828,0,0,0-1.889-1.037,1.019,1.019,0,0,0-.924.259c-.4.322-.878.509-1.282.817-.192.146-.261-.078-.271-.189a10.946,10.946,0,0,0-.414-1.5c-.119-.512-.291-1.013-.382-1.53-.149-.845-.3-1.689-.389-2.546-.11-1.043-.2-2.083-.217-3.131q-.02-1.456.1-2.907c.065-.8.146-1.6.29-2.391a27.181,27.181,0,0,1,1.782-6.035,41.235,41.235,0,0,1,2.116-4.178.544.544,0,0,1,.541-.31c2.155.01,4.309.006,6.464.006Zm17.269-.264A15.785,15.785,0,0,0,44.717,61.075,15.815,15.815,0,0,0,61.527,74.743,15.707,15.707,0,0,0,75.917,56.85c-.959-7.232-7.083-13.493-16.161-13.534" transform="translate(-22.158 -21.248)" fill="#d4fffd"/>
        <path id="Trazado_700638" data-name="Trazado 700638" d="M7.549,27.143c0-1.9,0-3.8,0-5.7a.429.429,0,0,1,.217-.417l4.463-2.647c.237-.141.228.021.229.18,0,.637,0,1.275.012,1.912a1.055,1.055,0,0,0,1.632.964c.54-.288,1.058-.618,1.584-.932q1.779-1.062,3.556-2.128c.2-.119.251-.063.25.146,0,.577,0,1.154,0,1.732.007.965.4,1.363,1.36,1.364,3.274,0,6.548.01,9.822,0,.352,0,.434.1.433.443q-.019,5.412,0,10.825c0,.265-.047.315-.329.308-1.251-.031-2.5-.021-3.755-.021-2.095,0-4.189,0-6.283.012-.3,0-.332-.105-.331-.352.009-1.263.005-2.526,0-3.789a4.61,4.61,0,0,0-.031-.833,1.789,1.789,0,0,0-1.841-1.513q-2.889-.043-5.778,0a1.869,1.869,0,0,0-1.874,1.926q-.022,2.075,0,4.149c0,.329-.025.454-.425.428-.851-.056-1.708-.034-2.563-.018-.292.006-.353-.078-.351-.367.016-1.888.008-3.777.008-5.665H7.549" transform="translate(-5.359 -13.008)" fill="#b20d0d"/>
        <path id="Trazado_700639" data-name="Trazado 700639" d="M193.606,216.116q-4.259,0-8.518,0c-.3,0-.434-.072-.424-.4.046-1.5-.044-3,.058-4.506a6.434,6.434,0,0,1,4.526-5.513.771.771,0,0,1,.559.052,8.419,8.419,0,0,0,7.5.013.768.768,0,0,1,.623-.033,6.406,6.406,0,0,1,4.22,4.255,7.658,7.658,0,0,1,.338,2.379c-.007,1.142-.01,2.285.01,3.426,0,.281-.11.315-.339.315q-4.277-.007-8.554,0Z" transform="translate(-131.179 -146.1)" fill="#b20d0d"/>
        <path id="Trazado_700640" data-name="Trazado 700640" d="M200.081,184a6.313,6.313,0,0,1-6.436-4.515,6.22,6.22,0,0,1-.275-1.784.52.52,0,0,1,.315-.506,3.187,3.187,0,0,1,1.927-.23,27.908,27.908,0,0,1,3.322.644c1.013.241,2.018.519,3.043.715a9.454,9.454,0,0,0,1.393.211c.068,0,.148-.019.19.063a6.289,6.289,0,0,1-.51,1.636,6.748,6.748,0,0,1-2.554,3.16c-.208.132-.463.278-.414.607" transform="translate(-137.364 -125.676)" fill="#f8f9fb"/>
        <path id="Trazado_700641" data-name="Trazado 700641" d="M34.388,232.827c-1.167,0-2.334-.007-3.5.006-.253,0-.362-.036-.355-.326.023-.865.013-1.731.016-2.6a.64.64,0,0,1,0-.108c.032-.184-.187-.394-.013-.538s.418-.058.632-.059c2.286-.005,4.572,0,6.858-.014.237,0,.278.072.275.285q-.019,1.515-.009,3.03c0,.227-.045.31-.3.307-1.2-.015-2.406-.007-3.609-.007v.021" transform="translate(-21.645 -162.804)" fill="#06d1d1"/>
        <path id="Trazado_700642" data-name="Trazado 700642" d="M30.77,211.971a6.973,6.973,0,0,1,1.151-.02c2.055,0,4.111.006,6.166-.007.3,0,.388.083.379.382-.022.708-.018,1.417,0,2.126,0,.251-.067.314-.324.314-2.38,0-4.759.016-7.139.027-.128,0-.3.031-.29-.17.022-.885-.049-1.771.054-2.654l.007,0" transform="translate(-21.813 -150.554)" fill="#06d1d1"/>
        <path id="Trazado_700643" data-name="Trazado 700643" d="M215.141,15.1c-1,.007-2,0-3,.028-.294.008-.344-.1-.331-.357.089-1.73.032-3.461.021-5.192,0-.26.087-.3.31-.3.951.012,1.9.018,2.852.008.187,0,.218.053.218.218q-.013,2.777-.017,5.554l-.057.039" transform="translate(-150.466 -6.59)" fill="#f8f9fb"/>
        <path id="Trazado_700644" data-name="Trazado 700644" d="M216.527,187.92c-.049-.328.206-.475.414-.607a6.748,6.748,0,0,0,2.554-3.16,6.288,6.288,0,0,0,.51-1.636,16.426,16.426,0,0,0,2.268-.073c.222-.029.3.03.243.272a6.321,6.321,0,0,1-4.69,5.033,3.037,3.037,0,0,1-1.3.17" transform="translate(-153.811 -129.598)" fill="#fdc064"/>
        <path id="Trazado_700645" data-name="Trazado 700645" d="M204.425,9.712l-.031-.111c.07.021.051.066.031.111" transform="translate(-145.196 -6.82)" fill="#eb5368"/>
        <path id="Trazado_700646" data-name="Trazado 700646" d="M204.408,10.628l-.02-.02.018-.021.016.02Z" transform="translate(-145.192 -7.521)" fill="#eb5368"/>
        <path id="Trazado_700647" data-name="Trazado 700647" d="M204.449,30.565l-.026-.019.022-.022.014.019Z" transform="translate(-145.216 -21.684)" fill="#eb5368"/>
        <path id="Trazado_700648" data-name="Trazado 700648" d="M223.306,29.274l.057-.039c0,.048-.009.07-.057.039" transform="translate(-158.63 -20.768)" fill="#a6e8a5"/>
        <path id="Trazado_700649" data-name="Trazado 700649" d="M30.911,212.051l-.007,0,.007,0" transform="translate(-21.953 -150.634)" fill="#eb5368"/>
        <path id="Trazado_700650" data-name="Trazado 700650" d="M92.637,76.2c9.078.041,15.2,6.3,16.161,13.534a15.707,15.707,0,0,1-14.39,17.892A15.815,15.815,0,0,1,77.6,93.955,15.784,15.784,0,0,1,92.637,76.2M106.791,92.73a.79.79,0,0,0,.022-.449,1.87,1.87,0,0,0-.006-.626.135.135,0,0,0-.015-.166,12.977,12.977,0,0,0-1.355-5.531,13.405,13.405,0,0,0-9.861-7.379,13.159,13.159,0,0,0-5.41.126A13.577,13.577,0,0,0,79.681,91.19a12.917,12.917,0,0,0,.677,5.094,13.5,13.5,0,0,0,7.935,8.307,12.7,12.7,0,0,0,4.227.894,13.8,13.8,0,0,0,9.515-3.18,13.782,13.782,0,0,0,3.583-4.822,13.41,13.41,0,0,0,1.174-4.753" transform="translate(-55.039 -54.128)"/>
        <path id="Trazado_700651" data-name="Trazado 700651" d="M112.153,96.956a1.869,1.869,0,0,1,.006.626.962.962,0,0,0-.022.449,13.416,13.416,0,0,1-1.174,4.753,13.782,13.782,0,0,1-3.583,4.822,13.8,13.8,0,0,1-9.515,3.18,12.7,12.7,0,0,1-4.227-.894,13.5,13.5,0,0,1-7.935-8.307,12.915,12.915,0,0,1-.677-5.094A13.577,13.577,0,0,1,95.512,84.007a13.159,13.159,0,0,1,5.41-.126,13.405,13.405,0,0,1,9.861,7.379,12.978,12.978,0,0,1,1.355,5.53l.015.167m-12.575,9.476c.008-.006.023-.015.021-.019a.256.256,0,0,0-.021-.047c.007-.049.013-.1.02-.147a.1.1,0,0,0,.106-.074c.26-.088.521-.173.779-.266a5.621,5.621,0,0,0,3.5-5.056,4.722,4.722,0,0,0-1.687-3.733,6.48,6.48,0,0,0-2.4-1.2c-.217-.065-.342-.151-.34-.418.014-1.623.013-3.247,0-4.871,0-.249.081-.287.3-.224a4.7,4.7,0,0,1,1.333.7.947.947,0,0,0,1.085.058,1.049,1.049,0,0,0,.55-1.02,1.291,1.291,0,0,0-.673-.971,5.5,5.5,0,0,0-2.273-.956c-.261-.045-.341-.152-.324-.4a6.84,6.84,0,0,0,0-.865,1.061,1.061,0,0,0-2.034-.368A2.9,2.9,0,0,0,97.4,87.9c0,.245-.068.366-.31.414a4.6,4.6,0,0,0-3.37,5.178,3.842,3.842,0,0,0,1.792,2.705,10.865,10.865,0,0,0,1.552.836.463.463,0,0,1,.333.506c-.012,2.057-.007,4.113-.007,6.17a.8.8,0,0,0,0,.108c.028.207-.053.289-.262.239-.148-.035-.3-.018-.452-.059a6.345,6.345,0,0,1-1.726-.8,1.315,1.315,0,0,0-.6-.231,1.077,1.077,0,0,0-.608,2.007,6.62,6.62,0,0,0,3.368,1.233c.255.012.292.1.282.315-.014.312-.013.626,0,.938a1.122,1.122,0,0,0,.838,1.091,1.026,1.026,0,0,0,1.06-.349,1.126,1.126,0,0,0,.277-.615c.008-.006.023-.014.023-.019a.27.27,0,0,0-.019-.049q0-.544,0-1.088" transform="translate(-60.385 -59.429)" fill="#ffc403"/>
        <path id="Trazado_700652" data-name="Trazado 700652" d="M178.646,132.18a.962.962,0,0,1,.022-.449.791.791,0,0,1-.022.449" transform="translate(-126.894 -93.578)" fill="#eb5368"/>
        <path id="Trazado_700653" data-name="Trazado 700653" d="M178.7,129.161c0-.056-.01-.111-.015-.167a.136.136,0,0,1,.015.167" transform="translate(-126.935 -91.634)" fill="#eb5368"/>
        <path id="Trazado_700654" data-name="Trazado 700654" d="M119.717,111.752l-.02.147a.058.058,0,0,0,0,.066q0,.544,0,1.088a.062.062,0,0,0,0,.068,1.128,1.128,0,0,1-.277.615,1.027,1.027,0,0,1-1.06.349,1.122,1.122,0,0,1-.838-1.091c-.014-.312-.014-.626,0-.938.01-.214-.028-.3-.282-.315a6.618,6.618,0,0,1-3.368-1.233,1.077,1.077,0,0,1,.608-2.007,1.315,1.315,0,0,1,.6.231,6.349,6.349,0,0,0,1.726.8c.155.041.3.024.452.059.209.05.29-.032.262-.239a.845.845,0,0,1,0-.108c0-2.057,0-4.113.007-6.17a.463.463,0,0,0-.333-.506,10.91,10.91,0,0,1-1.552-.836,3.842,3.842,0,0,1-1.792-2.705,4.6,4.6,0,0,1,3.37-5.178c.242-.047.308-.169.31-.414a2.9,2.9,0,0,1,.123-1.343,1.061,1.061,0,0,1,2.034.368,6.787,6.787,0,0,1,0,.865c-.018.252.063.36.324.4a5.5,5.5,0,0,1,2.273.956,1.29,1.29,0,0,1,.673.971,1.048,1.048,0,0,1-.55,1.02.947.947,0,0,1-1.085-.058,4.706,4.706,0,0,0-1.334-.7c-.219-.063-.3-.025-.3.224.008,1.624.009,3.248,0,4.871,0,.267.123.353.34.418a6.481,6.481,0,0,1,2.4,1.2,4.723,4.723,0,0,1,1.686,3.733,5.621,5.621,0,0,1-3.5,5.056c-.258.093-.519.177-.779.266-.054,0-.1,0-.106.074m-.022-7.938c0,.046,0,.092,0,.139,0,1.671-.005,3.341-.013,5.012,0,.494.037.521.487.285a3.32,3.32,0,0,0,1.735-3.336,2.637,2.637,0,0,0-1.948-2.226c-.089-.032-.282-.133-.264.126m-2.182-3.467c0-1.431,0-2.8,0-4.164,0-.23-.141-.2-.26-.12a4.672,4.672,0,0,0-.547.409,2.623,2.623,0,0,0-.647,2.632,3.161,3.161,0,0,0,1.454,1.243" transform="translate(-80.503 -64.962)"/>
        <path id="Trazado_700655" data-name="Trazado 700655" d="M135.4,161.371c0-.069.052-.076.106-.074a.1.1,0,0,1-.106.074" transform="translate(-96.181 -114.581)" fill="#f5a86b"/>
        <path id="Trazado_700656" data-name="Trazado 700656" d="M135.292,166.111a.061.061,0,0,1,0-.068.29.29,0,0,1,.019.049s-.015.012-.023.019" transform="translate(-96.101 -117.952)" fill="#f5a86b"/>
        <path id="Trazado_700657" data-name="Trazado 700657" d="M135.3,162.125a.057.057,0,0,1,0-.066.253.253,0,0,1,.021.048s-.014.012-.021.019" transform="translate(-96.105 -115.122)" fill="#f5a86b"/>
        <path id="Trazado_700658" data-name="Trazado 700658" d="M135.294,133.722c-.019-.259.175-.158.264-.126a2.637,2.637,0,0,1,1.948,2.226,3.32,3.32,0,0,1-1.735,3.336c-.45.236-.489.208-.487-.285q.011-2.506.012-5.012c.061-.048.059-.094,0-.139" transform="translate(-96.102 -94.869)" fill="#fdc064"/>
        <path id="Trazado_700659" data-name="Trazado 700659" d="M123.871,111.527a3.161,3.161,0,0,1-1.454-1.243,2.623,2.623,0,0,1,.647-2.632,4.672,4.672,0,0,1,.547-.409c.118-.076.26-.109.26.12,0,1.367,0,2.733,0,4.164" transform="translate(-86.861 -76.142)" fill="#fdc064"/>
        <path id="Trazado_700660" data-name="Trazado 700660" d="M135.318,134.145c.061.045.064.091,0,.139l0-.139" transform="translate(-96.126 -95.293)" fill="#f5a86b"/>
      </g>
    </g>
  </g>
</svg>
