<svg xmlns="http://www.w3.org/2000/svg" xmlns:xlink="http://www.w3.org/1999/xlink" width="107" height="107" viewBox="0 0 107 107">
  <defs>
    <clipPath id="clip-path">
      <rect id="Rectángulo_340248" data-name="Rectángulo 340248" width="88" height="88" transform="translate(0 0.001)" fill="none"/>
    </clipPath>
  </defs>
  <g id="Grupo_974331" data-name="Grupo 974331" transform="translate(-394 -1336)">
    <path id="Trazado_700600" data-name="Trazado 700600" d="M52.5,0A52.584,52.584,0,0,1,97.532,25.5,52.506,52.506,0,1,1,52.5,0Z" transform="translate(395 1337)" fill="#ffc403" stroke="#8d0a0a" stroke-linejoin="round" stroke-width="2"/>
    <g id="Grupo_974329" data-name="Grupo 974329" transform="translate(403 1339.812)">
      <g id="Grupo_974330" data-name="Grupo 974330" transform="translate(0 0.188)">
        <g id="Grupo_974329-2" data-name="Grupo 974329" transform="translate(0 0)" clip-path="url(#clip-path)">
          <path id="Trazado_700531" data-name="Trazado 700531" d="M150.094,46.426a25.819,25.819,0,1,1-25.819-25.819,25.819,25.819,0,0,1,25.819,25.819" transform="translate(-66.674 -13.917)" fill="#ffdeb8"/>
          <path id="Trazado_700532" data-name="Trazado 700532" d="M111.871,94.665c-.057-.191-.121-.378-.193-.562a7.63,7.63,0,0,0-7.425-4.713,7.873,7.873,0,0,0-3.889,1.165.345.345,0,0,1-.281.036.326.326,0,0,1-.206-.186,10.127,10.127,0,0,0-18.127-.832.323.323,0,0,1-.317.172c-.172-.011-.347-.016-.523-.016-.088,0-.177,0-.265,0a7.678,7.678,0,0,0-6.736,4.37c-.085.184-.164.371-.234.562a7.016,7.016,0,0,0-.429,2.658,7.135,7.135,0,0,0,.373,2.022c.065.192.139.378.219.562a7.637,7.637,0,0,0,7.067,4.505h0c.089,0,.18,0,.271,0,4.534-.151,9.016-.177,13.351-.2,3.713-.021,7.22-.042,10.254-.143a7.761,7.761,0,0,0,5.341-2.326,7.36,7.36,0,0,0,1.306-1.83q.139-.276.253-.562a7.054,7.054,0,0,0,.5-2.873,7.149,7.149,0,0,0-.307-1.808m-12.632,6.054a1.264,1.264,0,0,1-1.289,1.235H83.216a1.262,1.262,0,0,1-1.285-1.235V97.338a.331.331,0,0,1,.661,0v3.381a.613.613,0,0,0,.624.6H97.949a.615.615,0,0,0,.628-.6V97.338a.331.331,0,0,1,.662,0Zm2.318-.877s0-.007-.008-.009a.3.3,0,0,0,.054.035.3.3,0,0,1-.046-.025" transform="translate(-49.598 -57.088)" fill="#d9eaef"/>
          <path id="Trazado_700533" data-name="Trazado 700533" d="M98.919,125.285v.879a1.306,1.306,0,0,0,1.3,1.307H115.15a1.308,1.308,0,0,0,1.306-1.307v-3.578a.335.335,0,1,0-.67,0v3.578a.637.637,0,0,1-.636.636H100.221a.635.635,0,0,1-.632-.636v-3.578a.335.335,0,1,0-.67,0v2.7Z" transform="translate(-66.987 -82.749)" fill="#303030"/>
          <path id="Trazado_700534" data-name="Trazado 700534" d="M69.573,93.066a8.52,8.52,0,0,0,.351,2.118c.059.2.125.4.2.595A8.394,8.394,0,0,0,78,101.216c.1,0,.2,0,.3,0,2.885-.1,5.746-.146,8.568-.174l.595-.006q1.272-.012,2.53-.021l.595,0L91.81,101c3.767-.023,7.324-.045,10.408-.153a8.4,8.4,0,0,0,7.442-5.067c.085-.2.165-.393.235-.595a8.437,8.437,0,0,0,.466-3.064,8.531,8.531,0,0,0-.284-1.89c-.053-.2-.107-.4-.173-.595a8.448,8.448,0,0,0-12.2-4.527,10.743,10.743,0,0,0-19.334-.765c-.212-.008-.423-.008-.645,0a8.452,8.452,0,0,0-7.536,5.295c-.078.195-.146.394-.21.595a8.392,8.392,0,0,0-.4,2.836m8.166-8.056c.09,0,.18,0,.269,0,.179,0,.355.005.53.017a.325.325,0,0,0,.322-.182,10.073,10.073,0,0,1,18.366.88.335.335,0,0,0,.494.159,7.77,7.77,0,0,1,11.463,3.755c.074.195.138.393.2.595a7.847,7.847,0,0,1,.311,1.913,7.766,7.766,0,0,1-.5,3.041q-.115.3-.257.595a7.766,7.766,0,0,1-6.735,4.4c-3.074.107-6.628.129-10.389.151-4.392.027-8.934.055-13.528.215-.091,0-.183,0-.274,0h0a7.728,7.728,0,0,1-7.161-4.768c-.081-.195-.157-.392-.222-.595a7.85,7.85,0,0,1-.378-2.14,7.724,7.724,0,0,1,.434-2.814c.071-.2.15-.4.237-.595a7.773,7.773,0,0,1,6.825-4.625" transform="translate(-47.112 -53.222)" fill="#303030"/>
          <path id="Trazado_700535" data-name="Trazado 700535" d="M243.641,200.228a3.105,3.105,0,1,1,3.105-3.105,3.109,3.109,0,0,1-3.105,3.105m0-4.607a1.5,1.5,0,1,0,1.5,1.5,1.5,1.5,0,0,0-1.5-1.5" transform="translate(-162.89 -131.35)" fill="#303030"/>
          <path id="Trazado_700536" data-name="Trazado 700536" d="M29.674,86.263A2.768,2.768,0,1,1,32.442,83.5a2.771,2.771,0,0,1-2.768,2.767m0-3.933A1.165,1.165,0,1,0,30.84,83.5a1.166,1.166,0,0,0-1.165-1.165" transform="translate(-18.221 -54.63)" fill="#303030"/>
          <path id="Trazado_700537" data-name="Trazado 700537" d="M213.672,81.635a1.3,1.3,0,1,1-1.3-1.3,1.3,1.3,0,0,1,1.3,1.3" transform="translate(-142.939 -54.366)" fill="#303030"/>
          <path id="Trazado_700538" data-name="Trazado 700538" d="M12.822,196.895a1.3,1.3,0,1,1-1.3-1.3,1.3,1.3,0,0,1,1.3,1.3" transform="translate(-6.925 -132.419)" fill="#303030"/>
          <path id="Trazado_700539" data-name="Trazado 700539" d="M121.6,201.808l-3.432,4.54a.258.258,0,0,0-.025.277.254.254,0,0,0,.234.142H119.7a.335.335,0,0,1,.335.335v4.6h3.548v-4.6a.335.335,0,0,1,.335-.335h1.326a.254.254,0,0,0,.234-.143.26.26,0,0,0-.026-.278l-3.434-4.54a.272.272,0,0,0-.42,0" transform="translate(-79.985 -136.557)" fill="#d5d5d5"/>
          <path id="Trazado_700540" data-name="Trazado 700540" d="M52.806,164.882H70.363a.287.287,0,0,1,.29.284v3.221h15.4v-3.221a.287.287,0,0,1,.29-.284H103.9V136.331H98.445a8.044,8.044,0,0,1-1.525,2.287,8.24,8.24,0,0,1-5.734,2.555c-3.008.1-6.478.123-10.152.146l-1.191.008v17.347a.272.272,0,0,1-.017.081l2.481,3.214a.876.876,0,0,1,.087.937.905.905,0,0,1-.812.49h-.966v4.124a.6.6,0,0,1-.605.592H76.452a.6.6,0,0,1-.6-.592V163.4h-.966a.905.905,0,0,1-.812-.49.872.872,0,0,1,.087-.935l2.069-2.682a.271.271,0,0,1-.009-.043v-17.89c-2.753.027-5.544.071-8.357.167-.1,0-.194,0-.29,0a8.182,8.182,0,0,1-7.688-5.2H52.806Z" transform="translate(-35.76 -92.284)" fill="#9cfdff"/>
          <path id="Trazado_700541" data-name="Trazado 700541" d="M125.734,164.978a.935.935,0,0,1,1.487,0l.314.416V147.922q-1.258.008-2.53.021v18Z" transform="translate(-84.653 -100.134)" fill="#fff"/>
          <path id="Trazado_700542" data-name="Trazado 700542" d="M199.736,122.838V152.13h4.3V118.9a1.111,1.111,0,0,0-1.053-1.159h-8.336a9.057,9.057,0,0,1,.251,1.835,8.949,8.949,0,0,1-.411,2.974h4.983a.276.276,0,0,1,.262.289" transform="translate(-131.708 -79.695)" fill="#b20d0d"/>
          <path id="Trazado_700543" data-name="Trazado 700543" d="M39.9,122.838a.28.28,0,0,1,.27-.289h6.672a8.806,8.806,0,0,1-.318-2.056,8.674,8.674,0,0,1,.363-2.753H36.547A1.131,1.131,0,0,0,35.48,118.9v33.23H39.9Z" transform="translate(-24.027 -79.695)" fill="#b20d0d"/>
          <path id="Trazado_700544" data-name="Trazado 700544" d="M63.3,228.4v3.04a.282.282,0,0,1-.295.268H46.767a.282.282,0,0,1-.295-.268V228.4H18.6v3.391a3.217,3.217,0,0,0,1.1,2.392,3.887,3.887,0,0,0,2.628.99H87.437a3.882,3.882,0,0,0,2.628-.99,3.218,3.218,0,0,0,1.1-2.392V228.4H63.3Z" transform="translate(-12.594 -154.634)" fill="#b20d0d"/>
          <path id="Trazado_700545" data-name="Trazado 700545" d="M160.319,131.229a.3.3,0,0,1-.037-.055.3.3,0,0,0,.037.055" transform="translate(-108.542 -88.792)" fill="#303030"/>
          <path id="Trazado_700546" data-name="Trazado 700546" d="M160.889,131.668a.294.294,0,0,1-.108-.022.292.292,0,0,0,.108.022" transform="translate(-108.88 -89.112)" fill="#303030"/>
          <path id="Trazado_700547" data-name="Trazado 700547" d="M160.506,131.478a.283.283,0,0,0,.046.026.309.309,0,0,1-.055-.036l.008.01" transform="translate(-108.688 -88.991)" fill="#303030"/>
          <path id="Trazado_700548" data-name="Trazado 700548" d="M91.737,113.085a.269.269,0,0,0-.035-.052.27.27,0,0,1,.035.052" transform="translate(-62.1 -76.507)" fill="#303030"/>
          <path id="Trazado_700549" data-name="Trazado 700549" d="M91.106,112.7a.3.3,0,0,0-.108-.022.3.3,0,0,1,.108.022" transform="translate(-61.623 -76.27)" fill="#303030"/>
          <path id="Trazado_700550" data-name="Trazado 700550" d="M91.439,112.811a.306.306,0,0,1,.056.038.291.291,0,0,0-.056-.038" transform="translate(-61.922 -76.357)" fill="#303030"/>
          <path id="Trazado_700551" data-name="Trazado 700551" d="M100.568,224.571v-.3H82.577a.3.3,0,0,0-.3.3v3.371H66.487v-3.371a.3.3,0,0,0-.3-.3h-18v.3a.3.3,0,0,1-.3.3h18v3.371a.3.3,0,0,0,.3.3H82.577a.3.3,0,0,0,.3-.3v-3.371h17.991a.3.3,0,0,1-.3-.3" transform="translate(-32.431 -151.839)" fill="#303030"/>
          <path id="Trazado_700552" data-name="Trazado 700552" d="M88.79,224.274H84.131v.3a.3.3,0,0,1-.3.3h4.659v3.76a3.766,3.766,0,0,1-3.761,3.75H19.01a3.765,3.765,0,0,1-3.76-3.75v-3.76h4.667a.3.3,0,0,1-.3-.3v-.3H14.952a.3.3,0,0,0-.3.3v4.057a4.361,4.361,0,0,0,4.355,4.345H84.732a4.362,4.362,0,0,0,4.355-4.345v-4.057a.3.3,0,0,0-.3-.3" transform="translate(-9.924 -151.839)" fill="#303030"/>
          <path id="Trazado_700553" data-name="Trazado 700553" d="M217.175,224.571v-.3h-4.881v.3a.3.3,0,0,1-.3.3h5.476a.3.3,0,0,1-.3-.3" transform="translate(-143.563 -151.839)" fill="#303030"/>
          <path id="Trazado_700554" data-name="Trazado 700554" d="M36.125,224.571v-.3H31.253v.3a.3.3,0,0,1-.3.3h5.467a.3.3,0,0,1-.3-.3" transform="translate(-20.963 -151.839)" fill="#303030"/>
          <path id="Trazado_700555" data-name="Trazado 700555" d="M30.332,149.3a.3.3,0,0,0,.3-.3V114.472a1.2,1.2,0,0,1,1.176-1.194H43.2c.064-.2.131-.4.21-.595H31.806a1.781,1.781,0,0,0-1.771,1.788V149a.3.3,0,0,0,.3.3" transform="translate(-20.34 -76.271)" fill="#303030"/>
          <path id="Trazado_700556" data-name="Trazado 700556" d="M204.144,113.279a1.2,1.2,0,0,1,1.194,1.194V149a.3.3,0,1,0,.595,0V114.472a1.791,1.791,0,0,0-1.789-1.788h-9.627c.067.194.12.394.173.595Z" transform="translate(-131.726 -76.271)" fill="#303030"/>
          <path id="Trazado_700557" data-name="Trazado 700557" d="M199.352,160.346v.3a.3.3,0,0,0,.595,0V130.17a.3.3,0,0,0-.3-.3H194c-.07.2-.15.4-.235.595h5.589Z" transform="translate(-131.215 -87.911)" fill="#303030"/>
          <path id="Trazado_700558" data-name="Trazado 700558" d="M46.97,130.169v30.473a.3.3,0,1,0,.595,0V130.467h7.254c-.074-.195-.139-.393-.2-.595H47.267a.3.3,0,0,0-.3.3" transform="translate(-31.808 -87.91)" fill="#303030"/>
          <path id="Trazado_700559" data-name="Trazado 700559" d="M123.173,168.172l.586-.833V147.992l-.595.007v20.125a.3.3,0,0,0,.009.049" transform="translate(-83.406 -100.181)" fill="#303030"/>
          <path id="Trazado_700560" data-name="Trazado 700560" d="M133.419,167.516a.329.329,0,0,0,.017-.092V147.91l-.595,0V166.7Z" transform="translate(-89.96 -100.126)" fill="#303030"/>
          <path id="Trazado_700561" data-name="Trazado 700561" d="M119.72,209.193h1.211a.306.306,0,0,1,.306.306v4.2h3.241v-4.2a.306.306,0,0,1,.306-.306H126a.231.231,0,0,0,.214-.131.237.237,0,0,0-.024-.254l-3.137-4.147a.249.249,0,0,0-.383,0l-3.135,4.147a.235.235,0,0,0-.023.253.232.232,0,0,0,.214.13" transform="translate(-80.911 -138.497)" fill="#ffc403"/>
          <path id="Trazado_700562" data-name="Trazado 700562" d="M122.253,203a.854.854,0,0,0-1.358,0l-.665.88-.535.708-1.938,2.563a.85.85,0,0,0,.68,1.363h.9v3.942a.567.567,0,0,0,.566.566h3.333a.568.568,0,0,0,.567-.566v-3.942h.9a.851.851,0,0,0,.679-1.365l-2.324-3.072-.528-.7Zm2.673,4.771a.232.232,0,0,1-.214.131H123.5a.306.306,0,0,0-.306.306v4.2h-3.241v-4.2a.306.306,0,0,0-.306-.306h-1.211a.233.233,0,0,1-.214-.13.236.236,0,0,1,.023-.253l3.136-4.147a.249.249,0,0,1,.383,0l3.137,4.147a.237.237,0,0,1,.024.254" transform="translate(-79.628 -137.203)" fill="#303030"/>
          <path id="Trazado_700563" data-name="Trazado 700563" d="M130.074,53.693a.444.444,0,0,0,.444-.445V50.365a.444.444,0,1,0-.888,0v2.884a.444.444,0,0,0,.444.445" transform="translate(-87.785 -33.767)" fill="#303030"/>
          <path id="Trazado_700564" data-name="Trazado 700564" d="M161.847,63.023a.443.443,0,0,0,.607-.162l1.443-2.5a.444.444,0,0,0-.77-.445l-1.443,2.5a.444.444,0,0,0,.162.607" transform="translate(-109.452 -40.388)" fill="#303030"/>
          <path id="Trazado_700565" data-name="Trazado 700565" d="M185.49,88.72a.442.442,0,0,0,.221-.06l2.5-1.442a.444.444,0,1,0-.444-.769l-2.5,1.442a.444.444,0,0,0,.222.829" transform="translate(-125.311 -58.464)" fill="#303030"/>
          <path id="Trazado_700566" data-name="Trazado 700566" d="M69.617,87.891l-2.5-1.442a.444.444,0,1,0-.444.769l2.5,1.442a.436.436,0,0,0,.222.06.444.444,0,0,0,.222-.829" transform="translate(-45.002 -58.464)" fill="#303030"/>
          <path id="Trazado_700567" data-name="Trazado 700567" d="M94.663,62.861a.444.444,0,0,0,.769-.445l-1.443-2.5a.444.444,0,0,0-.77.445Z" transform="translate(-63.088 -40.388)" fill="#303030"/>
          <path id="Trazado_700568" data-name="Trazado 700568" d="M127.007,191.449l-2.067,1.8v.73a.258.258,0,0,0,.258.257h5.3l-2.871-2.788a.5.5,0,0,0-.622,0" transform="translate(-84.609 -129.537)" fill="#08def0"/>
          <path id="Trazado_700569" data-name="Trazado 700569" d="M132.822,182.442H125.2a.258.258,0,0,0-.257.258v4.022l1.811-1.578a.871.871,0,0,1,1.14.007l1.274,1.236,1.389-.934a.9.9,0,0,1,.961,0l1.564,1.053V182.7a.258.258,0,0,0-.258-.258m-3.3,2.91a.968.968,0,1,1,.968-.967.969.969,0,0,1-.968.967" transform="translate(-84.609 -123.51)" fill="#d9eaef"/>
          <path id="Trazado_700570" data-name="Trazado 700570" d="M137.9,186.629a.59.59,0,1,0,.591.591.591.591,0,0,0-.591-.591" transform="translate(-92.988 -126.346)" fill="#08def0"/>
          <path id="Trazado_700571" data-name="Trazado 700571" d="M140.21,192.584l-1.324.89,1.6,1.553h1.779a.257.257,0,0,0,.257-.257v-.991l-1.775-1.195a.521.521,0,0,0-.539,0" transform="translate(-94.053 -130.328)" fill="#08def0"/>
          <path id="Trazado_700572" data-name="Trazado 700572" d="M132.009,181.271h-7.625a.636.636,0,0,0-.635.636v4.4a.2.2,0,0,0-.009.034.186.186,0,0,0,.009.072v.749a.636.636,0,0,0,.635.635h5.692l.021.02.02-.02h1.893a.636.636,0,0,0,.635-.635v-5.253a.636.636,0,0,0-.635-.636m-7.625,6.146a.258.258,0,0,1-.258-.257v-.73l2.067-1.8a.5.5,0,0,1,.622,0l2.872,2.788Zm7.882-.257a.258.258,0,0,1-.257.257h-1.78l-1.6-1.554,1.323-.89a.52.52,0,0,1,.539,0l1.775,1.194Zm0-1.447L130.7,184.66a.9.9,0,0,0-.961,0l-1.389.934-1.274-1.236a.871.871,0,0,0-1.14-.007l-1.811,1.578v-4.022a.258.258,0,0,1,.258-.258h7.625a.258.258,0,0,1,.257.258Z" transform="translate(-83.796 -122.717)" fill="#303030"/>
          <path id="Trazado_700573" data-name="Trazado 700573" d="M137.11,185.46a.968.968,0,1,0,.968.968.969.969,0,0,0-.968-.968m0,1.558a.59.59,0,1,1,.591-.59.59.59,0,0,1-.591.59" transform="translate(-92.195 -125.554)" fill="#303030"/>
          <path id="Trazado_700574" data-name="Trazado 700574" d="M111.316,160.5h-6.91a.213.213,0,0,0-.214.211v5.323a.217.217,0,0,0,.214.214h6.91a.216.216,0,0,0,.213-.214v-5.323a.212.212,0,0,0-.213-.211m-1.947,3.009-2.655,1.329a.153.153,0,0,1-.149-.007.152.152,0,0,1-.073-.13v-2.654a.152.152,0,0,1,.073-.13.154.154,0,0,1,.149-.007l2.655,1.326a.153.153,0,0,1,0,.274" transform="translate(-70.559 -108.649)" fill="#d9eaef"/>
          <path id="Trazado_700575" data-name="Trazado 700575" d="M112.263,168.214l2.161-1.081-2.161-1.079Z" transform="translate(-76.024 -112.412)" fill="#08def0"/>
          <path id="Trazado_700576" data-name="Trazado 700576" d="M110.675,159.547h-6.909a.519.519,0,0,0-.52.518v5.323a.521.521,0,0,0,.52.52h6.909a.52.52,0,0,0,.518-.52v-5.323a.519.519,0,0,0-.518-.518m.213,5.841a.216.216,0,0,1-.213.214h-6.909a.217.217,0,0,1-.214-.214v-5.323a.213.213,0,0,1,.214-.211h6.909a.212.212,0,0,1,.213.211Z" transform="translate(-69.918 -108.006)" fill="#303030"/>
          <path id="Trazado_700577" data-name="Trazado 700577" d="M114.193,166.156l-2.655-1.326a.155.155,0,0,0-.149.007.153.153,0,0,0-.072.13v2.655a.153.153,0,0,0,.153.153.151.151,0,0,0,.068-.016l2.655-1.329a.153.153,0,0,0,0-.274m-2.571,1.218v-2.16l2.161,1.079Z" transform="translate(-75.383 -111.573)" fill="#303030"/>
          <path id="Trazado_700578" data-name="Trazado 700578" d="M154.936,152.536l-.162,1.149,1.148.162Z" transform="translate(-104.812 -103.258)" fill="#fff"/>
          <path id="Trazado_700579" data-name="Trazado 700579" d="M143.908,152.27l.188-1.329-4.065-.573-1.065,7.556,5.469.771.867-6.152-1.329-.187a.076.076,0,0,1-.064-.086" transform="translate(-94.107 -101.789)" fill="#d9eaef"/>
          <path id="Trazado_700580" data-name="Trazado 700580" d="M145.042,152.216h0l-.075-.011-.867,6.152-5.468-.771,1.065-7.556,4.064.573.011-.075a.076.076,0,0,1,.056-.063.073.073,0,0,1,.035,0l0,0-4.215-.594a.075.075,0,0,0-.086.064l-1.086,7.706a.076.076,0,0,0,.064.086l5.618.792a.076.076,0,0,0,.086-.064l.887-6.29a.075.075,0,0,1-.082.054" transform="translate(-93.769 -101.452)" fill="#303030"/>
          <path id="Trazado_700581" data-name="Trazado 700581" d="M143.974,158.429l-5.618-.792a.155.155,0,0,1-.132-.175l1.086-7.706a.155.155,0,0,1,.175-.132l4.237.6-.025.064-.019.087-.019.149-4.064-.573-1.043,7.4,5.312.749.867-6.151.155.022a0,0,0,0,0,0,0l.154.034-.887,6.29a.155.155,0,0,1-.175.132" transform="translate(-93.603 -101.286)" fill="#303030"/>
          <path id="Trazado_700582" data-name="Trazado 700582" d="M155.227,151.736l.007,0-.007,0" transform="translate(-105.119 -102.717)" fill="#303030"/>
          <path id="Trazado_700583" data-name="Trazado 700583" d="M156.508,153.394l-1.2-1.592,1.2,1.591h0" transform="translate(-105.175 -102.761)" fill="#303030"/>
          <path id="Trazado_700584" data-name="Trazado 700584" d="M156.262,153.846l-.986-1.311h0Z" transform="translate(-105.152 -103.258)" fill="#303030"/>
          <path id="Trazado_700585" data-name="Trazado 700585" d="M154.53,151.712a.076.076,0,0,0-.056.063l-.011.075-.188,1.33a.076.076,0,0,0,.065.085l1.329.188.075.011h0a.075.075,0,0,0,.082-.054s0-.007,0-.011a.075.075,0,0,0-.025-.067h0l-1.2-1.591a.073.073,0,0,0-.02-.018l-.007,0-.018-.006a.078.078,0,0,0-.035,0m.068.265h0l.986,1.31-1.148-.162Z" transform="translate(-104.474 -102.699)" fill="#303030"/>
          <path id="Trazado_700586" data-name="Trazado 700586" d="M146.426,154l-.162,1.149,1.148.162Z" transform="translate(-99.049 -104.248)" fill="#fff"/>
          <path id="Trazado_700587" data-name="Trazado 700587" d="M135.4,153.731l.188-1.329-4.065-.573-1.065,7.556,5.469.771.867-6.152-1.329-.187a.076.076,0,0,1-.064-.086" transform="translate(-88.344 -102.779)" fill="#d9eaef"/>
          <path id="Trazado_700588" data-name="Trazado 700588" d="M136.532,153.677h0l-.075-.011-.867,6.152-5.468-.771,1.065-7.556,4.064.573.011-.075a.076.076,0,0,1,.056-.063.073.073,0,0,1,.035,0l0,0-4.215-.594a.075.075,0,0,0-.086.064l-1.086,7.706a.075.075,0,0,0,.064.086l5.618.792a.076.076,0,0,0,.086-.064l.887-6.291a.075.075,0,0,1-.082.054" transform="translate(-88.007 -102.441)" fill="#303030"/>
          <path id="Trazado_700589" data-name="Trazado 700589" d="M135.464,159.89l-5.618-.792a.155.155,0,0,1-.132-.175l1.086-7.706a.155.155,0,0,1,.175-.132l4.237.6-.025.064-.019.087-.019.149-4.064-.573-1.043,7.4,5.312.749.867-6.151.155.022a0,0,0,0,0,0,0l.154.034-.887,6.29a.155.155,0,0,1-.175.132" transform="translate(-87.84 -102.275)" fill="#303030"/>
          <path id="Trazado_700590" data-name="Trazado 700590" d="M146.717,153.2l.007,0-.007,0" transform="translate(-99.356 -103.706)" fill="#303030"/>
          <path id="Trazado_700591" data-name="Trazado 700591" d="M148,154.855l-1.2-1.592,1.2,1.591h0" transform="translate(-99.412 -103.751)" fill="#303030"/>
          <path id="Trazado_700592" data-name="Trazado 700592" d="M147.752,155.307,146.766,154h0Z" transform="translate(-99.389 -104.247)" fill="#303030"/>
          <path id="Trazado_700593" data-name="Trazado 700593" d="M146.02,153.173a.076.076,0,0,0-.056.063l-.011.075-.188,1.33a.076.076,0,0,0,.065.085l1.329.188.075.011h0a.075.075,0,0,0,.082-.054s0-.007,0-.011a.075.075,0,0,0-.025-.067h0l-1.2-1.591a.074.074,0,0,0-.02-.018l-.007,0a.071.071,0,0,0-.018-.006.078.078,0,0,0-.035,0m.068.265h0l.986,1.31-1.148-.162Z" transform="translate(-98.711 -103.688)" fill="#303030"/>
          <path id="Trazado_700594" data-name="Trazado 700594" d="M119.632,180.375q.026.091-.105.15a4,4,0,0,1-.509.179,3.032,3.032,0,0,1-.494.1.46.46,0,0,1-.177-.04q-.284-.233-.861-.692-.069.153-.44,1.045a.253.253,0,0,1-.127.138,2.323,2.323,0,0,1-.446.161q-.655.184-.7.039c-.023-.08-.055-.2-.1-.368s-.077-.289-.1-.372a.249.249,0,0,1,.031-.174q.229-.426.668-1.283-.368-.2-.732-.393a2.009,2.009,0,0,1-.61-.405l-.2-.729c-.02-.072.018-.121.115-.149s.277-.073.5-.127.388-.1.5-.127a.2.2,0,0,1,.179.048q.313.238.854.587.246-.556.377-.933a.193.193,0,0,1,.13-.126q.174-.049.513-.162t.513-.162q.145-.041.176.067l.2.729a.206.206,0,0,1-.03.165q-.225.408-.66,1.232.407.239,1.213.736a.244.244,0,0,1,.114.134Z" transform="translate(-77.692 -119.535)" fill="#ffdeb8"/>
          <path id="Trazado_700595" data-name="Trazado 700595" d="M118.672,179.817c.016.058-.017.107-.1.144a3.779,3.779,0,0,1-.489.172,2.948,2.948,0,0,1-.475.1.446.446,0,0,1-.169-.038q-.273-.224-.827-.665-.066.147-.422,1a.24.24,0,0,1-.122.133,2.23,2.23,0,0,1-.429.155q-.629.177-.668.037-.032-.115-.1-.353t-.1-.357a.239.239,0,0,1,.03-.167q.22-.41.641-1.232l-.7-.378a1.915,1.915,0,0,1-.586-.389l-.2-.7c-.019-.069.017-.116.11-.142s.266-.071.479-.122.373-.092.479-.122a.2.2,0,0,1,.172.046q.3.229.82.564.236-.535.362-.9a.186.186,0,0,1,.125-.121q.167-.047.493-.156t.493-.156q.139-.039.168.064l.2.7a.2.2,0,0,1-.028.158q-.216.392-.634,1.183.391.229,1.165.707a.234.234,0,0,1,.109.128Z" transform="translate(-77.173 -119.259)" fill="#ffc403"/>
          <path id="Trazado_700596" data-name="Trazado 700596" d="M118.648,179.674c.016.058-.017.107-.1.144a3.779,3.779,0,0,1-.489.172,2.949,2.949,0,0,1-.475.1.446.446,0,0,1-.169-.038q-.273-.224-.827-.665-.066.147-.422,1a.24.24,0,0,1-.122.133,2.229,2.229,0,0,1-.429.155q-.629.177-.668.037-.032-.115-.1-.353t-.1-.357a.239.239,0,0,1,.03-.167q.22-.41.641-1.232-.353-.188-.7-.378a1.916,1.916,0,0,1-.586-.389l-.2-.7c-.019-.069.017-.116.11-.142s.266-.071.479-.122.373-.092.479-.122a.2.2,0,0,1,.172.046q.3.229.82.564.236-.535.362-.9a.186.186,0,0,1,.125-.121q.167-.047.493-.156t.493-.156q.139-.039.169.064l.2.7a.2.2,0,0,1-.028.158q-.216.392-.634,1.183.391.229,1.165.707a.234.234,0,0,1,.109.128Z" transform="translate(-77.157 -119.163)" fill="none" stroke="#303030" stroke-miterlimit="10" stroke-width="1"/>
          <path id="Trazado_700597" data-name="Trazado 700597" d="M138.7,164.438q-.018.066-.122.053a2.9,2.9,0,0,1-.382-.081,2.221,2.221,0,0,1-.345-.123.331.331,0,0,1-.094-.091q-.088-.251-.271-.753-.1.069-.667.48a.183.183,0,0,1-.13.038,1.708,1.708,0,0,1-.337-.069q-.475-.133-.445-.238.025-.087.078-.265c.036-.119.062-.208.078-.268a.182.182,0,0,1,.086-.1q.3-.177.9-.542-.153-.26-.3-.52a1.449,1.449,0,0,1-.224-.481l.148-.528q.022-.078.127-.049.12.034.357.11t.356.11a.149.149,0,0,1,.093.1q.1.266.306.686.362-.251.586-.435a.141.141,0,0,1,.128-.029q.126.036.379.094t.379.093q.105.03.083.108l-.148.529a.148.148,0,0,1-.081.091q-.293.167-.873.513.162.3.473.914a.178.178,0,0,1,.02.126Z" transform="translate(-92.031 -108.92)" fill="#ffdeb8"/>
          <path id="Trazado_700598" data-name="Trazado 700598" d="M138.412,163.676q-.018.063-.117.051a2.757,2.757,0,0,1-.367-.078,2.158,2.158,0,0,1-.331-.118.325.325,0,0,1-.09-.088q-.085-.242-.261-.724-.1.066-.64.461a.175.175,0,0,1-.126.036,1.62,1.62,0,0,1-.324-.066q-.456-.128-.427-.229.024-.084.075-.255c.034-.114.059-.2.076-.257a.173.173,0,0,1,.082-.092q.291-.171.862-.521l-.292-.5a1.406,1.406,0,0,1-.216-.462l.143-.508q.021-.075.122-.047.116.032.342.106t.342.106a.143.143,0,0,1,.089.094q.1.255.294.658.348-.242.562-.418a.134.134,0,0,1,.123-.027q.121.034.364.09c.162.037.283.067.364.09s.094.053.08.1l-.143.508a.141.141,0,0,1-.077.087q-.282.161-.839.493.155.289.454.878a.168.168,0,0,1,.019.12Z" transform="translate(-91.913 -108.499)" fill="#ffc403"/>
          <path id="Trazado_700599" data-name="Trazado 700599" d="M138.452,163.578q-.018.063-.117.051a2.757,2.757,0,0,1-.367-.078,2.156,2.156,0,0,1-.331-.118.325.325,0,0,1-.09-.088q-.085-.242-.26-.724-.1.066-.64.461a.175.175,0,0,1-.126.036,1.617,1.617,0,0,1-.324-.066q-.456-.128-.427-.229.024-.084.075-.255c.034-.114.059-.2.076-.257a.173.173,0,0,1,.082-.092q.29-.171.862-.521l-.292-.5a1.406,1.406,0,0,1-.216-.462l.143-.508q.021-.075.122-.047t.342.106q.227.073.342.106a.143.143,0,0,1,.089.094q.1.255.294.659.348-.242.562-.418a.134.134,0,0,1,.123-.027q.121.034.364.09c.162.037.283.067.364.09s.094.053.08.1l-.143.508a.141.141,0,0,1-.077.087q-.282.161-.839.493.155.289.454.878a.168.168,0,0,1,.019.12Z" transform="translate(-91.94 -108.432)" fill="none" stroke="#303030" stroke-miterlimit="10" stroke-width="1"/>
        </g>
      </g>
      <text id="_" data-name="?" transform="translate(38.184 36.951)" fill="#303030" font-size="8" font-family="BerlinSansFBDemi-Bold, Berlin Sans FB" font-weight="700"><tspan x="0" y="0">?</tspan></text>
      <text id="_2" data-name="?" transform="translate(37.616 36.758)" fill="#b20d0d" font-size="8" font-family="BerlinSansFBDemi-Bold, Berlin Sans FB" font-weight="700"><tspan x="0" y="0">?</tspan></text>
    </g>
  </g>
</svg>
