<svg xmlns="http://www.w3.org/2000/svg" xmlns:xlink="http://www.w3.org/1999/xlink" width="112" height="113" viewBox="0 0 112 113">
  <defs>
    <clipPath id="clip-path">
      <rect id="Rectángulo_340249" data-name="Rectángulo 340249" width="110" height="110" fill="none"/>
    </clipPath>
  </defs>
  <g id="Grupo_974332" data-name="Grupo 974332" transform="translate(-389 -1336)">
    <path id="Trazado_700600" data-name="Trazado 700600" d="M52.5,0A52.584,52.584,0,0,1,97.532,25.5,52.506,52.506,0,1,1,52.5,0Z" transform="translate(395 1337)" fill="#ffc403" stroke="#8d0a0a" stroke-linejoin="round" stroke-width="2"/>
    <g id="Grupo_974335" data-name="Grupo 974335" transform="translate(388.75 1338.5)">
      <g id="Grupo_974334" data-name="Grupo 974334" transform="translate(0.25 0.5)" clip-path="url(#clip-path)">
        <path id="Trazado_700601" data-name="Trazado 700601" d="M163.716,53.237a32.63,32.63,0,1,1-32.63-32.63,32.63,32.63,0,0,1,32.63,32.63" transform="translate(-58.549 -12.647)" fill="#ffdeb8"/>
        <path id="Trazado_700602" data-name="Trazado 700602" d="M138.095,61.728c0-3.238,0-6.477-.008-9.715a.73.73,0,0,1,.37-.711q3.8-2.254,7.606-4.51c.4-.24.388.036.39.306.005,1.086.006,2.173.021,3.259A1.8,1.8,0,0,0,149.255,52c.921-.49,1.8-1.053,2.7-1.587q3.032-1.81,6.059-3.627c.337-.2.428-.107.426.248,0,.984,0,1.968.008,2.951.011,1.645.678,2.322,2.317,2.324,5.579.007,11.158.017,16.737,0,.6,0,.74.173.738.755q-.031,9.223,0,18.447c0,.452-.079.537-.561.525-2.132-.053-4.266-.035-6.4-.036-3.569,0-7.139-.008-10.707.021-.5,0-.566-.179-.563-.6.016-2.152.009-4.3,0-6.456a7.8,7.8,0,0,0-.053-1.42,3.049,3.049,0,0,0-3.136-2.579q-4.922-.074-9.845,0a3.185,3.185,0,0,0-3.194,3.282q-.037,3.535,0,7.071c.006.561-.043.773-.725.729-1.45-.1-2.911-.058-4.366-.031-.5.009-.6-.133-.6-.625.028-3.218.014-6.436.014-9.654h-.01" transform="translate(-82.012 -28.082)" fill="#b20d0d"/>
        <path id="Trazado_700603" data-name="Trazado 700603" d="M135.576,59.8c0-3.238,0-6.477-.008-9.715a.73.73,0,0,1,.37-.711q3.8-2.254,7.606-4.51c.4-.24.388.036.39.306.005,1.086.006,2.173.021,3.259a1.8,1.8,0,0,0,2.782,1.642c.921-.49,1.8-1.053,2.7-1.587q3.032-1.81,6.059-3.627c.337-.2.428-.107.426.248,0,.984,0,1.968.008,2.951.011,1.645.678,2.322,2.317,2.324,5.579.007,11.158.017,16.738,0,.6,0,.74.173.738.755q-.031,9.223,0,18.447c0,.452-.079.537-.561.525-2.132-.053-4.266-.035-6.4-.036-3.569,0-7.139-.008-10.707.021-.5,0-.566-.179-.563-.6.016-2.152.009-4.3,0-6.456a7.794,7.794,0,0,0-.053-1.42,3.048,3.048,0,0,0-3.136-2.579q-4.922-.074-9.845,0a3.185,3.185,0,0,0-3.194,3.282q-.037,3.535,0,7.071c.006.561-.043.773-.725.729-1.45-.1-2.911-.058-4.366-.031-.5.009-.6-.133-.6-.625.028-3.218.014-6.436.014-9.654Z" transform="translate(-80.521 -26.942)" fill="none" stroke="#303030" stroke-miterlimit="10" stroke-width="6"/>
        <path id="Trazado_700604" data-name="Trazado 700604" d="M58.826,153.08a2.418,2.418,0,1,1-2.418-2.418,2.418,2.418,0,0,1,2.418,2.418" transform="translate(-32.224 -89.644)" fill="#ffc403"/>
        <path id="Trazado_700605" data-name="Trazado 700605" d="M72.16,190.117a2.418,2.418,0,1,1-2.418-2.418,2.418,2.418,0,0,1,2.418,2.418" transform="translate(-40.118 -111.571)" fill="#ffc403"/>
        <path id="Trazado_700606" data-name="Trazado 700606" d="M84.6,213.228a2.418,2.418,0,1,1-2.418-2.418,2.417,2.417,0,0,1,2.418,2.418" transform="translate(-47.486 -125.254)" fill="#ffc403"/>
        <path id="Trazado_700607" data-name="Trazado 700607" d="M125.2,217.376a2.418,2.418,0,1,1-2.418-2.418,2.418,2.418,0,0,1,2.418,2.418" transform="translate(-71.518 -127.71)" fill="#ffc403"/>
        <path id="Trazado_700608" data-name="Trazado 700608" d="M165.789,213.82a2.418,2.418,0,1,1-2.418-2.418,2.417,2.417,0,0,1,2.418,2.418" transform="translate(-95.55 -125.604)" fill="#ffc403"/>
        <path id="Trazado_700609" data-name="Trazado 700609" d="M177.641,190.117a2.418,2.418,0,1,1-2.418-2.418,2.418,2.418,0,0,1,2.418,2.418" transform="translate(-102.567 -111.571)" fill="#ffc403"/>
        <path id="Trazado_700610" data-name="Trazado 700610" d="M190.678,152.783a2.418,2.418,0,1,1-2.418-2.418,2.418,2.418,0,0,1,2.418,2.418" transform="translate(-110.285 -89.468)" fill="#ffc403"/>
        <path id="Trazado_700611" data-name="Trazado 700611" d="M244.46,201.866a3.924,3.924,0,1,1,3.924-3.924,3.929,3.929,0,0,1-3.924,3.924m0-5.823a1.9,1.9,0,1,0,1.9,1.9,1.9,1.9,0,0,0-1.9-1.9" transform="translate(-150.382 -119.396)" fill="#303030"/>
        <path id="Trazado_700612" data-name="Trazado 700612" d="M30.4,87.724a3.5,3.5,0,1,1,3.5-3.5,3.5,3.5,0,0,1-3.5,3.5m0-4.97a1.472,1.472,0,1,0,1.473,1.473A1.474,1.474,0,0,0,30.4,82.754" transform="translate(-16.189 -48.24)" fill="#303030"/>
        <path id="Trazado_700613" data-name="Trazado 700613" d="M214.356,81.977a1.64,1.64,0,1,1-1.64-1.64,1.64,1.64,0,0,1,1.64,1.64" transform="translate(-125.224 -48.009)" fill="#303030"/>
        <path id="Trazado_700614" data-name="Trazado 700614" d="M13.506,197.237a1.64,1.64,0,1,1-1.64-1.64,1.64,1.64,0,0,1,1.64,1.64" transform="translate(2.349 -129.864)" fill="#303030"/>
        <path id="Trazado_700615" data-name="Trazado 700615" d="M160.329,131.243a.377.377,0,0,1-.047-.069.386.386,0,0,0,.047.069" transform="translate(-95.152 -78.106)" fill="#303030"/>
        <path id="Trazado_700616" data-name="Trazado 700616" d="M160.918,131.674a.371.371,0,0,1-.137-.028.37.37,0,0,0,.137.028" transform="translate(-95.448 -78.386)" fill="#303030"/>
        <path id="Trazado_700617" data-name="Trazado 700617" d="M160.509,131.481a.36.36,0,0,0,.058.033.389.389,0,0,1-.069-.046s.007.009.011.013" transform="translate(-95.28 -78.28)" fill="#303030"/>
        <path id="Trazado_700618" data-name="Trazado 700618" d="M91.746,113.1a.341.341,0,0,0-.044-.065.341.341,0,0,1,.044.065" transform="translate(-54.55 -67.366)" fill="#303030"/>
        <path id="Trazado_700619" data-name="Trazado 700619" d="M91.135,112.711a.375.375,0,0,0-.137-.028.373.373,0,0,1,.137.028" transform="translate(-54.134 -67.159)" fill="#303030"/>
        <path id="Trazado_700620" data-name="Trazado 700620" d="M91.439,112.811a.388.388,0,0,1,.071.048.369.369,0,0,0-.071-.048" transform="translate(-54.395 -67.235)" fill="#303030"/>
        <path id="Trazado_700621" data-name="Trazado 700621" d="M130.191,48.762a.562.562,0,0,0,.561-.562V44.556a.561.561,0,1,0-1.123,0V48.2a.561.561,0,0,0,.561.562" transform="translate(-77.005 -26.493)" fill="#303030"/>
        <path id="Trazado_700622" data-name="Trazado 700622" d="M161.906,57.975a.56.56,0,0,0,.767-.2l1.824-3.158a.562.562,0,0,0-.973-.562L161.7,57.208a.561.561,0,0,0,.205.767" transform="translate(-95.948 -32.28)" fill="#303030"/>
        <path id="Trazado_700623" data-name="Trazado 700623" d="M185.607,83.409a.554.554,0,0,0,.28-.076l3.158-1.823a.561.561,0,1,0-.561-.971l-3.157,1.822a.561.561,0,0,0,.281,1.048" transform="translate(-109.813 -48.084)" fill="#303030"/>
        <path id="Trazado_700624" data-name="Trazado 700624" d="M70.452,82.361l-3.158-1.822a.561.561,0,1,0-.561.971l3.158,1.822a.551.551,0,0,0,.28.076.561.561,0,0,0,.281-1.048" transform="translate(-39.602 -48.083)" fill="#303030"/>
        <path id="Trazado_700625" data-name="Trazado 700625" d="M95.06,57.77a.561.561,0,0,0,.972-.562l-1.823-3.158a.562.562,0,0,0-.973.562Z" transform="translate(-55.414 -32.28)" fill="#303030"/>
        <path id="Trazado_700626" data-name="Trazado 700626" d="M69.053,87.326c.019-1.9-.189-3.865,1.595-5.18a4.083,4.083,0,0,1,5.115-.036c2.757-2.57,4.781-2.573,6.781-.3,1.461-.156,2.813-.632,3.961-.331s2.11,1.378,3.318,2.231c2.428-1.093,5-.319,6.163,3.667.359-.421.667-.738.922-1.092a9.279,9.279,0,0,1,14.551-.877,2.3,2.3,0,0,1,.677,2.617,2.264,2.264,0,0,1-2.413,1.418,11.8,11.8,0,0,1-1.567-.006c-1.5-.255-2.134.864-2.887,1.778a.656.656,0,0,0,0,.632c.745.853,1.32,1.957,2.778,1.755a4.588,4.588,0,0,1,2.151.067,4.355,4.355,0,0,1,1.9,1.414c.559.765.174,1.613-.4,2.314A9.274,9.274,0,0,1,97.055,97c-.293-.4-.6-.79-.884-1.173-.326,2.456-.5,4.841-.991,7.157-.5,2.336-1.317,4.6-2.058,7.11h4.1c1.972,0,3.944-.019,5.915.011a1.277,1.277,0,0,0,1.4-.794,4.029,4.029,0,0,1,4.612-2.229,4.138,4.138,0,0,1-.035,8.058,4.225,4.225,0,0,1-4.641-2.241,1.518,1.518,0,0,0-1-.747c-3.42-.053-6.84-.029-10.26-.02a1.618,1.618,0,0,0-.386.115v3.975h3.236c1.569,0,3.139-.028,4.708.009a3.178,3.178,0,0,1,3.332,3.349,7.254,7.254,0,0,1,0,.965,2.377,2.377,0,0,0,1.361,2.764,3.815,3.815,0,0,1,1.46,4.682,4.127,4.127,0,0,1-7.871-.42,3.958,3.958,0,0,1,1.935-4.53A1.6,1.6,0,0,0,102,121.3c-.037-3.167.2-2.967-2.933-2.955-2.046.008-4.093,0-6.292,0-.008,2.842.488,5.906-3.125,7.072,0,2.739-.007,5.433,0,8.126a1.116,1.116,0,0,0,1.287,1.239c.964-.012,1.928,0,2.862,0,1.367-2.57,2.941-3.476,5.056-2.948A4,4,0,0,1,102,135.74a4.1,4.1,0,0,1-2.974,4.063,4.006,4.006,0,0,1-4.65-1.927,1.629,1.629,0,0,0-1.756-1c-4.382.034-5.017-.625-5.017-5.007v-6.218H82.436c0,2.605-.033,5.206.045,7.8.009.3.6.634.982.858a4.155,4.155,0,0,1,1.462,5.764,4.117,4.117,0,1,1-6.754-4.691,2.449,2.449,0,0,1,.971-.874c1.262-.424,1.327-1.33,1.288-2.449-.074-2.119-.022-4.242-.022-6.429H75.234c0,2.174,0,4.3,0,6.42,0,.644.018,1.29-.032,1.93a2.9,2.9,0,0,1-2.525,2.8,6.81,6.81,0,0,1-1.8.094,2.336,2.336,0,0,0-2.675,1.343,3.824,3.824,0,0,1-4.568,1.523,4.072,4.072,0,0,1-2.8-4.067,4.1,4.1,0,0,1,7.569-2.035c.209.341.375.708.6,1.141.953,0,1.955,0,2.958,0a1.079,1.079,0,0,0,1.217-1.182c.019-2.535.025-5.071-.014-7.6a1.072,1.072,0,0,0-.525-.776,4.273,4.273,0,0,1-2.573-4.376c.022-.763,0-1.528,0-2.394a9.3,9.3,0,0,0-.934-.1q-3.32-.012-6.64,0c-1.5,0-1.63.144-1.641,1.689a6.2,6.2,0,0,1,0,.724,2.075,2.075,0,0,0,1.246,2.463,3.881,3.881,0,0,1,1.609,4.644,4.122,4.122,0,0,1-7.9-.289,3.9,3.9,0,0,1,1.915-4.522,1.6,1.6,0,0,0,1.016-1.852c-.315-4.2,1.373-5.185,4.964-5,2.077.106,4.162.019,6.307.019v-4.1H66.785c-2.414,0-4.829-.032-7.242.033a1.616,1.616,0,0,0-1.146.7,4.236,4.236,0,0,1-4.736,2.264,4.13,4.13,0,0,1-.029-8.017,4.191,4.191,0,0,1,4.741,2.242c.18.319.593.713.905.718,3.087.053,6.177.032,9.557.032a35.9,35.9,0,0,0-2.6-3.068,7.148,7.148,0,0,1-2.343-6.4,16.022,16.022,0,0,0,.008-1.658,9.226,9.226,0,0,1-6.376,1.778,9.439,9.439,0,0,1-6.432-3.418A2.193,2.193,0,0,1,52.6,93.654c.715-.089,1.446-.043,2.17-.066.361-.011.852.1,1.059-.084a27.735,27.735,0,0,0,1.884-2.055,10.728,10.728,0,0,0-2.294-1.925,6.433,6.433,0,0,0-2.506-.08,2.2,2.2,0,0,1-2.2-1.379,2.144,2.144,0,0,1,.476-2.438A9.2,9.2,0,0,1,65.647,86a2.914,2.914,0,0,0,3.406,1.327m.028,8.44c-2.746-.3-3.112.014-3.112,2.5a34.651,34.651,0,0,0,.038,3.859,5.009,5.009,0,0,0,.873,2.382c1.237,1.631,2.621,3.155,3.985,4.687a5.168,5.168,0,0,1,1.327,3.638q-.032,4.164,0,8.329c.013,1.563.737,2.271,2.307,2.275q6.88.018,13.761,0c1.693,0,2.374-.7,2.386-2.443.015-2.132.069-4.268-.013-6.4a19.119,19.119,0,0,1,1.036-6.984c.646-1.9,1.187-3.831,1.738-5.76a7.2,7.2,0,0,0,.323-1.888c.029-4.023.024-8.047.013-12.07,0-1.485-.859-2.52-2.028-2.522-1.194,0-2.054,1.011-2.067,2.49-.017,2.012-.005,4.023,0,6.035,0,.768.11,1.7-.982,1.72-1.183.017-1.053-.983-1.055-1.779-.009-2.655.015-5.311-.013-7.966-.017-1.631-.829-2.563-2.114-2.538-1.25.025-1.962.909-1.972,2.512-.016,2.414-.006,4.828-.006,7.242,0,.787-.154,1.556-1.118,1.515-.878-.038-.979-.765-.973-1.515.019-2.7.013-5.392,0-8.087-.005-1.664-.836-2.706-2.106-2.679s-1.994.958-2,2.627c0,2.7-.013,5.392.006,8.087.005.8-.108,1.574-1.053,1.568s-1.062-.8-1.059-1.585c.008-2.414.013-4.829,0-7.243-.01-1.587-.751-2.46-2.021-2.442-1.241.017-2.053.946-2.069,2.465-.026,2.454-.007,4.909-.009,7.363,0,1.448.075,2.9-.051,4.341-.038.441-.63.835-.968,1.25a4.819,4.819,0,0,1-.968-1.259,5.861,5.861,0,0,1-.038-1.733M69.026,89.6a2.141,2.141,0,0,0-.543-.1c-2.07.231-3.378-.707-4.6-2.382a7.054,7.054,0,0,0-10.693-.578,8.617,8.617,0,0,0-.647.895c1.28,0,2.316-.038,3.348.008,1.8.082,4.038,2.693,3.846,4.435a5.3,5.3,0,0,1-4.164,3.781c-.943.015-1.887,0-3.025,0a6.316,6.316,0,0,0,.429.674,6.969,6.969,0,0,0,10.7-.146c1.388-1.8,2.828-2.859,5.1-2.646.06.006.129-.079.244-.155Zm26.882,3.411a23.136,23.136,0,0,1,2.649,2.575,7.188,7.188,0,0,0,11.208.83,4.569,4.569,0,0,0,.447-.754,10.044,10.044,0,0,0-1.494.01,4.627,4.627,0,0,1-4.964-2.4,3.913,3.913,0,0,1-.592-2.219c.113-1.58,2.538-3.6,4.136-3.624.936-.015,1.873,0,2.934,0-2.5-3.972-8.47-3.978-11.41-.274a37.689,37.689,0,0,1-2.912,2.923ZM59.761,128.573a2.019,2.019,0,0,0,2.087-2.016,2.066,2.066,0,0,0-2.081-2.042,2.045,2.045,0,0,0-2.012,1.976,2,2,0,0,0,2.007,2.082m43.239,0a2,2,0,0,0,2.083-2.006,2.049,2.049,0,0,0-2.057-2.055,2.075,2.075,0,0,0-2.037,1.969A2.022,2.022,0,0,0,103,128.573m-36.043,7.285a1.958,1.958,0,0,0-2.013-2.057,2.072,2.072,0,0,0-2.069,2.051,2.147,2.147,0,0,0,2,2.035,2.045,2.045,0,0,0,2.081-2.029M97.862,133.8a1.955,1.955,0,0,0-1.981,2.087,2.033,2.033,0,0,0,1.99,2,2.137,2.137,0,0,0,2.089-2.065,2.07,2.07,0,0,0-2.1-2.02M54.7,109.079a2.026,2.026,0,0,0-.164,4.047,2.026,2.026,0,1,0,.164-4.047m55.505,2.056a1.985,1.985,0,0,0-2.019-2.055,2.025,2.025,0,0,0-.055,4.049,1.972,1.972,0,0,0,2.074-1.994M81.474,135.827a2.043,2.043,0,0,0-2.079,2.026,2.024,2.024,0,0,0,4.045.111,2.042,2.042,0,0,0-1.966-2.137" transform="translate(-30.163 -47.894)" fill="#303030"/>
        <path id="Trazado_700627" data-name="Trazado 700627" d="M91.462,98.933a5.861,5.861,0,0,0,.038,1.733,4.811,4.811,0,0,0,.968,1.259c.338-.415.93-.809.969-1.25.126-1.438.05-2.893.051-4.342,0-2.454-.018-4.909.008-7.363.016-1.519.828-2.449,2.069-2.465,1.271-.017,2.011.856,2.021,2.443.015,2.414.011,4.828,0,7.242,0,.784.12,1.579,1.059,1.585S99.705,97,99.7,96.206c-.018-2.7-.01-5.391-.006-8.087,0-1.669.715-2.6,2-2.627s2.1,1.015,2.106,2.679c.009,2.7.014,5.392,0,8.087-.005.749.1,1.478.973,1.515.964.042,1.119-.728,1.118-1.515,0-2.414-.01-4.828.006-7.243.01-1.6.722-2.487,1.972-2.512,1.285-.026,2.1.907,2.114,2.538.028,2.655,0,5.311.013,7.967,0,.8-.127,1.8,1.056,1.779,1.091-.015.982-.952.981-1.72,0-2.012-.013-4.024,0-6.035.013-1.479.873-2.492,2.067-2.49,1.168,0,2.023,1.037,2.028,2.522.011,4.023.017,8.047-.013,12.07a7.2,7.2,0,0,1-.323,1.888c-.55,1.928-1.092,3.862-1.738,5.76a19.119,19.119,0,0,0-1.036,6.984c.082,2.129.028,4.264.013,6.4-.012,1.74-.694,2.44-2.386,2.443q-6.88.014-13.761,0c-1.57,0-2.294-.711-2.307-2.275q-.034-4.164,0-8.329a5.168,5.168,0,0,0-1.328-3.639c-1.364-1.532-2.747-3.056-3.985-4.687a5.011,5.011,0,0,1-.873-2.382,34.654,34.654,0,0,1-.038-3.859c0-2.488.366-2.8,3.112-2.5" transform="translate(-52.544 -51.061)" fill="#f7beb7"/>
        <path id="Trazado_700628" data-name="Trazado 700628" d="M71.983,95.732v3.784c-.116.076-.184.161-.244.155-2.275-.213-3.715.843-5.1,2.646a6.969,6.969,0,0,1-10.7.147,6.294,6.294,0,0,1-.429-.674c1.138,0,2.081.013,3.025,0a5.3,5.3,0,0,0,4.164-3.78c.191-1.742-2.049-4.353-3.846-4.435-1.032-.047-2.068-.008-3.348-.008a8.617,8.617,0,0,1,.647-.895,7.054,7.054,0,0,1,10.693.578c1.217,1.674,2.526,2.613,4.6,2.382a2.141,2.141,0,0,1,.543.1" transform="translate(-33.12 -54.022)" fill="#9cfdff"/>
        <path id="Trazado_700629" data-name="Trazado 700629" d="M161.792,99.208V96.271a37.834,37.834,0,0,0,2.912-2.923c2.939-3.7,8.9-3.7,11.41.274-1.061,0-2-.012-2.934,0-1.6.025-4.022,2.043-4.135,3.624a3.909,3.909,0,0,0,.592,2.219,4.627,4.627,0,0,0,4.964,2.4,9.991,9.991,0,0,1,1.495-.011,4.62,4.62,0,0,1-.447.754,7.188,7.188,0,0,1-11.208-.83,23.132,23.132,0,0,0-2.648-2.575" transform="translate(-96.046 -54.088)" fill="#9cfdff"/>
        <path id="Trazado_700630" data-name="Trazado 700630" d="M206.365,44.568h-7.343a1.179,1.179,0,0,1-1.179-1.179V36.137a1.179,1.179,0,0,1,1.179-1.179h7.343a1.179,1.179,0,0,1,1.179,1.179v7.253a1.179,1.179,0,0,1-1.179,1.179" transform="translate(-117.39 -21.143)" fill="#303030"/>
      </g>
    </g>
  </g>
</svg>
