<svg xmlns="http://www.w3.org/2000/svg" width="505" height="475" viewBox="0 0 505 475">
  <g id="Grupo_974890" data-name="Grupo 974890" transform="translate(-4461 6023)">
    <rect id="Rectángulo_349217" data-name="Rectángulo 349217" width="505" height="475" rx="27" transform="translate(4461 -6023)" fill="#f3f3f3"/>
    <path id="Trazado_99431" data-name="Trazado 99431" d="M-7193.656-7720.246h441.517" transform="translate(11698.364 1791.192)" fill="none" stroke="#06d1d1" stroke-width="3"/>
    <path id="Trazado_705289" data-name="Trazado 705289" d="M3354.532-5895.623l-25.96-47.561H3164v47.561" transform="translate(1331.233 -33.972)" fill="#ffe8ce" stroke="#06d1d1" stroke-width="3"/>
    <path id="Trazado_705290" data-name="Trazado 705290" d="M226.628,46.521,200.509,0H24.425L0,46.521" transform="translate(4946.225 -5881.182) rotate(180)" fill="#ffe8ce" stroke="#06d1d1" stroke-width="3"/>
    <path id="Trazado_705296" data-name="Trazado 705296" d="M196.221,46.521,173.606,0H21.147L0,46.521" transform="translate(4690.295 -5775.649) rotate(180)" fill="#ffe8ce" stroke="#06d1d1" stroke-width="3"/>
    <path id="Trazado_705295" data-name="Trazado 705295" d="M3364.722-5896.662l-26.015-46.521h-175.38L3139-5896.662" transform="translate(1581.503 76.255)" fill="#ffe8ce" stroke="#06d1d1" stroke-width="3"/>
    <path id="Trazado_99075" data-name="Trazado 99075" d="M21.233,0A21.233,21.233,0,1,1,0,21.233,21.233,21.233,0,0,1,21.233,0Z" transform="translate(4474 -5953.374)" fill="#b20d0d"/>
    <path id="Trazado_705499" data-name="Trazado 705499" d="M9.8,23H5.836V10.391L1.945,11.527v-3l7.488-2.59H9.8Z" transform="translate(4482.822 -5945.388)" fill="#fff"/>
    <path id="Trazado_99075-2" data-name="Trazado 99075" d="M21.233,0A21.233,21.233,0,1,1,0,21.233,21.233,21.233,0,0,1,21.233,0Z" transform="translate(4696.24 -5953.374)" fill="#b20d0d"/>
    <path id="Trazado_705501" data-name="Trazado 705501" d="M12.949,23H1.043V20.422l5.484-5.766q2.027-2.309,2.027-3.668a2.551,2.551,0,0,0-.48-1.676A1.715,1.715,0,0,0,6.68,8.738a1.737,1.737,0,0,0-1.465.768,3.155,3.155,0,0,0-.562,1.916H.691a5.6,5.6,0,0,1,.785-2.9,5.506,5.506,0,0,1,2.18-2.08,6.475,6.475,0,0,1,3.117-.75,6.369,6.369,0,0,1,4.26,1.277,4.56,4.56,0,0,1,1.494,3.668,5.326,5.326,0,0,1-.375,1.963,8.608,8.608,0,0,1-1.166,2A29.372,29.372,0,0,1,8.438,17.41l-2.2,2.543h6.715Z" transform="translate(4706.062 -5946.388)" fill="#fff"/>
    <path id="Trazado_705500" data-name="Trazado 705500" d="M.7,0V-9.242H3.675a4.379,4.379,0,0,1,2.2.555A3.9,3.9,0,0,1,7.4-7.119,4.734,4.734,0,0,1,7.96-4.85v.425a4.761,4.761,0,0,1-.536,2.276A3.921,3.921,0,0,1,5.913-.574,4.283,4.283,0,0,1,3.739,0ZM2.926-7.522v5.808H3.7A1.733,1.733,0,0,0,5.173-2.4a3.344,3.344,0,0,0,.514-2.028v-.4a3.317,3.317,0,0,0-.514-2.019,1.763,1.763,0,0,0-1.5-.679Zm9.4,7.649A3.531,3.531,0,0,1,9.769-.816a3.255,3.255,0,0,1-.978-2.453v-.178a4.218,4.218,0,0,1,.39-1.86,2.857,2.857,0,0,1,1.139-1.247A3.44,3.44,0,0,1,12.1-7a2.973,2.973,0,0,1,2.285.9,3.53,3.53,0,0,1,.838,2.5v.832H10.969a1.542,1.542,0,0,0,.5.908,1.492,1.492,0,0,0,1,.33,1.923,1.923,0,0,0,1.587-.711l.978,1.155A2.733,2.733,0,0,1,13.9-.2,3.829,3.829,0,0,1,12.327.127Zm-.241-5.472q-.939,0-1.117,1.244h2.158v-.165a1.06,1.06,0,0,0-.26-.8A1.036,1.036,0,0,0,12.086-5.345ZM16.58,0V-5.383h-1V-6.868h1V-7.1a2.622,2.622,0,0,1,.9-2.1,3.6,3.6,0,0,1,2.342-.686,8.312,8.312,0,0,1,2.234.368l-.292,1.688-.355-.1a5.656,5.656,0,0,0-1.46-.184q-1.225,0-1.225,1.117v.121h1.346v1.485H18.726V0Zm6.462,0H20.89V-6.868h2.152Zm3.269-6.868.07.806A2.329,2.329,0,0,1,28.342-7a1.96,1.96,0,0,1,1.6.641,3.052,3.052,0,0,1,.549,1.93V0H28.349V-4.335a1.159,1.159,0,0,0-.209-.765.969.969,0,0,0-.762-.244,1.02,1.02,0,0,0-.933.5V0H24.305V-6.868ZM33.935,0H31.789V-6.868h2.146ZM31.662-8.639a.955.955,0,0,1,.33-.749,1.245,1.245,0,0,1,.857-.292,1.245,1.245,0,0,1,.857.292.955.955,0,0,1,.33.749.955.955,0,0,1-.33.749,1.245,1.245,0,0,1-.857.292,1.245,1.245,0,0,1-.857-.292A.955.955,0,0,1,31.662-8.639Zm7.744,3.707-.7-.051a1.266,1.266,0,0,0-1.295.635V0H35.268V-6.868h2.006l.07.882A1.656,1.656,0,0,1,38.848-7a2.086,2.086,0,0,1,.6.076ZM43.145-3.5a4.054,4.054,0,0,1,.4-1.831,2.86,2.86,0,0,1,1.149-1.235A3.46,3.46,0,0,1,46.452-7a3.158,3.158,0,0,1,2.431.955,3.666,3.666,0,0,1,.889,2.6v.076A3.557,3.557,0,0,1,48.88-.816a3.166,3.166,0,0,1-2.415.943A3.2,3.2,0,0,1,44.11-.752a3.439,3.439,0,0,1-.958-2.384Zm2.139.133a2.556,2.556,0,0,0,.3,1.4.994.994,0,0,0,.882.444q1.143,0,1.168-1.758V-3.5q0-1.847-1.181-1.847-1.073,0-1.162,1.593Zm11.807-.013a4.186,4.186,0,0,1-.7,2.6,2.339,2.339,0,0,1-1.968.908A2.03,2.03,0,0,1,52.736-.7l-.089.7H50.73V-9.75H52.87v3.434A1.958,1.958,0,0,1,54.412-7a2.339,2.339,0,0,1,1.98.92,4.208,4.208,0,0,1,.7,2.59Zm-2.146-.136a2.792,2.792,0,0,0-.263-1.41.888.888,0,0,0-.809-.421,1.024,1.024,0,0,0-1,.551v2.725a1.03,1.03,0,0,0,1.016.545.908.908,0,0,0,.958-.735A5.279,5.279,0,0,0,54.945-3.513Zm5.389-3.355v7.1a2.493,2.493,0,0,1-.7,1.879,2.682,2.682,0,0,1-1.93.66A4.556,4.556,0,0,1,56.7,2.666V1.047a4.093,4.093,0,0,0,.6.057.783.783,0,0,0,.889-.882v-7.09Zm-2.3-1.771a.955.955,0,0,1,.33-.749,1.245,1.245,0,0,1,.857-.292,1.245,1.245,0,0,1,.857.292.955.955,0,0,1,.33.749.955.955,0,0,1-.33.749,1.245,1.245,0,0,1-.857.292,1.245,1.245,0,0,1-.857-.292A.955.955,0,0,1,58.03-8.639ZM64.867.127a3.531,3.531,0,0,1-2.558-.943,3.255,3.255,0,0,1-.978-2.453v-.178a4.218,4.218,0,0,1,.39-1.86,2.857,2.857,0,0,1,1.139-1.247A3.44,3.44,0,0,1,64.638-7a2.973,2.973,0,0,1,2.285.9,3.53,3.53,0,0,1,.838,2.5v.832H63.508a1.542,1.542,0,0,0,.5.908,1.492,1.492,0,0,0,1,.33A1.923,1.923,0,0,0,66.6-2.234l.978,1.155A2.733,2.733,0,0,1,66.444-.2,3.829,3.829,0,0,1,64.867.127Zm-.241-5.472q-.939,0-1.117,1.244h2.158v-.165a1.06,1.06,0,0,0-.26-.8A1.036,1.036,0,0,0,64.625-5.345Zm6.487-3.231v1.708h1.13v1.485h-1.13v3.142a.8.8,0,0,0,.14.54.749.749,0,0,0,.552.152,3.138,3.138,0,0,0,.533-.038v1.53a3.948,3.948,0,0,1-1.206.184A2.241,2.241,0,0,1,69.5-.394a2.133,2.133,0,0,1-.527-1.581V-5.383H68.1V-6.868h.876V-8.576ZM75.34,0H73.195V-6.868H75.34ZM73.068-8.639a.955.955,0,0,1,.33-.749,1.245,1.245,0,0,1,.857-.292,1.245,1.245,0,0,1,.857.292.955.955,0,0,1,.33.749.955.955,0,0,1-.33.749,1.245,1.245,0,0,1-.857.292A1.245,1.245,0,0,1,73.4-7.89.955.955,0,0,1,73.068-8.639ZM79.4-2.545l1.085-4.323h2.253L80.495,0H78.311L76.07-6.868h2.26ZM83.008-3.5a4.054,4.054,0,0,1,.4-1.831,2.86,2.86,0,0,1,1.149-1.235A3.46,3.46,0,0,1,86.315-7a3.158,3.158,0,0,1,2.431.955,3.666,3.666,0,0,1,.889,2.6v.076a3.557,3.557,0,0,1-.892,2.549,3.166,3.166,0,0,1-2.415.943,3.2,3.2,0,0,1-2.355-.879,3.439,3.439,0,0,1-.958-2.384Zm2.139.133a2.556,2.556,0,0,0,.3,1.4.994.994,0,0,0,.882.444q1.143,0,1.168-1.758V-3.5q0-1.847-1.181-1.847-1.073,0-1.162,1.593ZM94.174-1.93a.494.494,0,0,0-.286-.438A4.345,4.345,0,0,0,92.8-2.71a4.95,4.95,0,0,1-1.32-.467,2.212,2.212,0,0,1-.793-.7,1.675,1.675,0,0,1-.273-.946A1.9,1.9,0,0,1,91.2-6.383,3.216,3.216,0,0,1,93.241-7a3.563,3.563,0,0,1,2.184.616,1.925,1.925,0,0,1,.825,1.619H94.1q0-.825-.87-.825a.862.862,0,0,0-.565.187.58.58,0,0,0-.229.467.532.532,0,0,0,.279.463,2.639,2.639,0,0,0,.892.292,7.707,7.707,0,0,1,1.076.273,1.955,1.955,0,0,1,1.549,1.911A1.8,1.8,0,0,1,95.4-.463a3.66,3.66,0,0,1-2.161.59A3.735,3.735,0,0,1,91.667-.19a2.632,2.632,0,0,1-1.079-.863A1.955,1.955,0,0,1,90.2-2.2h2a.827.827,0,0,0,.317.7,1.306,1.306,0,0,0,.781.219,1.027,1.027,0,0,0,.657-.178A.569.569,0,0,0,94.174-1.93Zm9.2.406a.951.951,0,0,0,.7-.244.9.9,0,0,0,.241-.682h2.006A2.375,2.375,0,0,1,105.514-.6a3.01,3.01,0,0,1-2.085.724,3.048,3.048,0,0,1-2.361-.939,3.7,3.7,0,0,1-.863-2.6V-3.5a4.183,4.183,0,0,1,.384-1.838A2.8,2.8,0,0,1,101.7-6.567,3.3,3.3,0,0,1,103.41-7a2.972,2.972,0,0,1,2.126.743,2.634,2.634,0,0,1,.787,2.012h-2.006a1.174,1.174,0,0,0-.26-.819.9.9,0,0,0-.7-.286q-.832,0-.971,1.06a7.48,7.48,0,0,0-.044.927,2.938,2.938,0,0,0,.248,1.435A.857.857,0,0,0,103.378-1.523ZM109.484,0h-2.146V-9.75h2.146Zm5.186,0a2.415,2.415,0,0,1-.2-.616,1.989,1.989,0,0,1-1.65.743,2.437,2.437,0,0,1-1.65-.587,1.869,1.869,0,0,1-.679-1.476,1.921,1.921,0,0,1,.825-1.688,4.2,4.2,0,0,1,2.4-.571h.66v-.364q0-.95-.819-.95a.669.669,0,0,0-.762.753h-2.139a1.918,1.918,0,0,1,.847-1.617A3.561,3.561,0,0,1,113.661-7a3.122,3.122,0,0,1,2.076.641,2.229,2.229,0,0,1,.781,1.758v3.041a3.114,3.114,0,0,0,.292,1.447V0Zm-1.339-1.4a1.193,1.193,0,0,0,.663-.171,1.074,1.074,0,0,0,.378-.387v-1.1h-.622q-1.117,0-1.117,1a.612.612,0,0,0,.2.473A.712.712,0,0,0,113.331-1.4Zm8.525-3.536-.7-.051a1.266,1.266,0,0,0-1.295.635V0h-2.139V-6.868h2.006l.07.882A1.656,1.656,0,0,1,121.3-7a2.086,2.086,0,0,1,.6.076Zm.273,1.435a4.054,4.054,0,0,1,.4-1.831,2.86,2.86,0,0,1,1.149-1.235A3.46,3.46,0,0,1,125.436-7a3.158,3.158,0,0,1,2.431.955,3.666,3.666,0,0,1,.889,2.6v.076a3.557,3.557,0,0,1-.892,2.549,3.166,3.166,0,0,1-2.415.943,3.2,3.2,0,0,1-2.355-.879,3.439,3.439,0,0,1-.958-2.384Zm2.139.133a2.556,2.556,0,0,0,.3,1.4.994.994,0,0,0,.882.444q1.143,0,1.168-1.758V-3.5q0-1.847-1.181-1.847-1.073,0-1.162,1.593Zm9.026,1.435a.494.494,0,0,0-.286-.438,4.345,4.345,0,0,0-1.085-.343,4.95,4.95,0,0,1-1.32-.467,2.212,2.212,0,0,1-.793-.7,1.675,1.675,0,0,1-.273-.946,1.9,1.9,0,0,1,.781-1.558A3.216,3.216,0,0,1,132.361-7a3.563,3.563,0,0,1,2.184.616,1.925,1.925,0,0,1,.825,1.619h-2.146q0-.825-.87-.825a.862.862,0,0,0-.565.187.58.58,0,0,0-.229.467.532.532,0,0,0,.279.463,2.639,2.639,0,0,0,.892.292,7.707,7.707,0,0,1,1.076.273,1.955,1.955,0,0,1,1.549,1.911,1.8,1.8,0,0,1-.835,1.53,3.66,3.66,0,0,1-2.161.59,3.735,3.735,0,0,1-1.574-.317,2.632,2.632,0,0,1-1.079-.863,1.955,1.955,0,0,1-.387-1.149h2a.827.827,0,0,0,.317.7,1.306,1.306,0,0,0,.781.219,1.027,1.027,0,0,0,.657-.178A.569.569,0,0,0,133.294-1.93Z" transform="translate(4512.878 -5946.709)" fill="#12263f"/>
    <path id="Trazado_705502" data-name="Trazado 705502" d="M3.625-9.242l2.063,6.43,2.057-6.43h2.933V0H8.442V-2.158l.216-4.418L6.424,0H4.951L2.71-6.583l.216,4.424V0H.7V-9.242ZM15.317.127a3.531,3.531,0,0,1-2.558-.943,3.255,3.255,0,0,1-.978-2.453v-.178a4.218,4.218,0,0,1,.39-1.86,2.857,2.857,0,0,1,1.139-1.247A3.44,3.44,0,0,1,15.088-7a2.973,2.973,0,0,1,2.285.9,3.53,3.53,0,0,1,.838,2.5v.832H13.958a1.542,1.542,0,0,0,.5.908,1.492,1.492,0,0,0,1,.33,1.923,1.923,0,0,0,1.587-.711l.978,1.155A2.733,2.733,0,0,1,16.894-.2,3.829,3.829,0,0,1,15.317.127Zm-.241-5.472q-.939,0-1.117,1.244h2.158v-.165a1.06,1.06,0,0,0-.26-.8A1.036,1.036,0,0,0,15.076-5.345ZM18.8-3.485a4.2,4.2,0,0,1,.7-2.571A2.319,2.319,0,0,1,21.474-7a1.972,1.972,0,0,1,1.549.724V-9.75h2.146V0H23.245l-.108-.736a2.026,2.026,0,0,1-1.676.863,2.315,2.315,0,0,1-1.942-.939A4.329,4.329,0,0,1,18.8-3.485Zm2.139.133q0,1.828,1.066,1.828a1.053,1.053,0,0,0,1.016-.6V-4.735a1.025,1.025,0,0,0-1-.609q-.99,0-1.073,1.6ZM28.641,0H26.5V-6.868h2.146ZM26.368-8.639a.955.955,0,0,1,.33-.749,1.245,1.245,0,0,1,.857-.292,1.245,1.245,0,0,1,.857.292.955.955,0,0,1,.33.749.955.955,0,0,1-.33.749,1.245,1.245,0,0,1-.857.292A1.245,1.245,0,0,1,26.7-7.89.955.955,0,0,1,26.368-8.639Zm7.744,3.707-.7-.051a1.266,1.266,0,0,0-1.295.635V0H29.974V-6.868h2.006l.07.882A1.656,1.656,0,0,1,33.554-7a2.086,2.086,0,0,1,.6.076ZM40.866-3l1.143-3.872H44.3L41.5,1.149l-.121.292a2.127,2.127,0,0,1-2.107,1.333,3.353,3.353,0,0,1-.882-.126V1.124h.279a1.463,1.463,0,0,0,.689-.13.79.79,0,0,0,.352-.467l.171-.457L37.5-6.868h2.285Zm11.1,3a2.415,2.415,0,0,1-.2-.616,1.989,1.989,0,0,1-1.65.743,2.437,2.437,0,0,1-1.65-.587,1.869,1.869,0,0,1-.679-1.476A1.921,1.921,0,0,1,48.6-3.625,4.2,4.2,0,0,1,51-4.2h.66v-.364q0-.95-.819-.95a.669.669,0,0,0-.762.753H47.944a1.918,1.918,0,0,1,.847-1.617A3.561,3.561,0,0,1,50.953-7a3.122,3.122,0,0,1,2.076.641A2.229,2.229,0,0,1,53.809-4.6v3.041A3.114,3.114,0,0,0,54.1-.108V0ZM50.623-1.4a1.193,1.193,0,0,0,.663-.171,1.074,1.074,0,0,0,.378-.387v-1.1h-.622q-1.117,0-1.117,1a.612.612,0,0,0,.2.473A.712.712,0,0,0,50.623-1.4Zm6.335-5.472.07.806A2.329,2.329,0,0,1,58.989-7a1.96,1.96,0,0,1,1.6.641,3.052,3.052,0,0,1,.549,1.93V0H59V-4.335a1.159,1.159,0,0,0-.209-.765.969.969,0,0,0-.762-.244,1.02,1.02,0,0,0-.933.5V0H54.952V-6.868ZM66.193,0a2.415,2.415,0,0,1-.2-.616,1.989,1.989,0,0,1-1.65.743,2.437,2.437,0,0,1-1.65-.587,1.869,1.869,0,0,1-.679-1.476,1.921,1.921,0,0,1,.825-1.688,4.2,4.2,0,0,1,2.4-.571h.66v-.364q0-.95-.819-.95a.669.669,0,0,0-.762.753H62.175a1.918,1.918,0,0,1,.847-1.617A3.561,3.561,0,0,1,65.184-7a3.122,3.122,0,0,1,2.076.641A2.229,2.229,0,0,1,68.041-4.6v3.041a3.114,3.114,0,0,0,.292,1.447V0ZM64.854-1.4a1.193,1.193,0,0,0,.663-.171,1.074,1.074,0,0,0,.378-.387v-1.1h-.622q-1.117,0-1.117,1a.612.612,0,0,0,.2.473A.712.712,0,0,0,64.854-1.4ZM71.481,0H69.335V-9.75h2.146Zm3.574,0H72.909V-6.868h2.146ZM72.782-8.639a.955.955,0,0,1,.33-.749,1.245,1.245,0,0,1,.857-.292,1.245,1.245,0,0,1,.857.292.955.955,0,0,1,.33.749.955.955,0,0,1-.33.749,1.245,1.245,0,0,1-.857.292,1.245,1.245,0,0,1-.857-.292A.955.955,0,0,1,72.782-8.639ZM78.9-1.65h3.129V0H76.191V-1.193l3.047-4.024H76.324v-1.65h5.63v1.155ZM86.931,0a2.415,2.415,0,0,1-.2-.616,1.989,1.989,0,0,1-1.65.743,2.437,2.437,0,0,1-1.65-.587,1.869,1.869,0,0,1-.679-1.476,1.921,1.921,0,0,1,.825-1.688,4.2,4.2,0,0,1,2.4-.571h.66v-.364q0-.95-.819-.95a.669.669,0,0,0-.762.753H82.913a1.918,1.918,0,0,1,.847-1.617A3.561,3.561,0,0,1,85.922-7,3.122,3.122,0,0,1,88-6.354,2.229,2.229,0,0,1,88.778-4.6v3.041A3.114,3.114,0,0,0,89.07-.108V0ZM85.592-1.4a1.193,1.193,0,0,0,.663-.171,1.074,1.074,0,0,0,.378-.387v-1.1h-.622q-1.117,0-1.117,1a.612.612,0,0,0,.2.473A.712.712,0,0,0,85.592-1.4Zm8.525-3.536-.7-.051a1.266,1.266,0,0,0-1.295.635V0H89.978V-6.868h2.006l.07.882A1.656,1.656,0,0,1,93.558-7a2.086,2.086,0,0,1,.6.076Zm8.163,0-.7-.051a1.266,1.266,0,0,0-1.295.635V0H98.141V-6.868h2.006l.07.882A1.656,1.656,0,0,1,101.721-7a2.086,2.086,0,0,1,.6.076ZM106.253.127A3.531,3.531,0,0,1,103.7-.816a3.255,3.255,0,0,1-.978-2.453v-.178a4.218,4.218,0,0,1,.39-1.86,2.856,2.856,0,0,1,1.139-1.247A3.44,3.44,0,0,1,106.025-7a2.973,2.973,0,0,1,2.285.9,3.53,3.53,0,0,1,.838,2.5v.832H104.9a1.542,1.542,0,0,0,.5.908,1.492,1.492,0,0,0,1,.33,1.923,1.923,0,0,0,1.587-.711l.978,1.155a2.733,2.733,0,0,1-1.133.879A3.829,3.829,0,0,1,106.253.127Zm-.241-5.472q-.939,0-1.117,1.244h2.158v-.165a1.06,1.06,0,0,0-.26-.8A1.036,1.036,0,0,0,106.012-5.345ZM113.6-1.93a.494.494,0,0,0-.286-.438,4.345,4.345,0,0,0-1.085-.343,4.95,4.95,0,0,1-1.32-.467,2.212,2.212,0,0,1-.793-.7,1.675,1.675,0,0,1-.273-.946,1.9,1.9,0,0,1,.781-1.558A3.216,3.216,0,0,1,112.671-7a3.563,3.563,0,0,1,2.184.616,1.925,1.925,0,0,1,.825,1.619h-2.146q0-.825-.87-.825a.862.862,0,0,0-.565.187.58.58,0,0,0-.229.467.532.532,0,0,0,.279.463,2.639,2.639,0,0,0,.892.292,7.707,7.707,0,0,1,1.076.273,1.955,1.955,0,0,1,1.549,1.911,1.8,1.8,0,0,1-.835,1.53,3.66,3.66,0,0,1-2.161.59A3.735,3.735,0,0,1,111.1-.19a2.632,2.632,0,0,1-1.079-.863A1.955,1.955,0,0,1,109.63-2.2h2a.827.827,0,0,0,.317.7,1.306,1.306,0,0,0,.781.219,1.027,1.027,0,0,0,.657-.178A.569.569,0,0,0,113.6-1.93Zm7.154,1.187a2.205,2.205,0,0,1-1.834.87,2.163,2.163,0,0,1-1.711-.657,2.763,2.763,0,0,1-.581-1.888v-4.45h2.139v4.462a.769.769,0,0,0,.857.882,1.118,1.118,0,0,0,1.047-.527V-6.868h2.152V0h-2.006Zm5.5.743h-2.146V-9.75h2.146Zm3.809-8.576v1.708h1.13v1.485h-1.13v3.142a.8.8,0,0,0,.14.54.749.749,0,0,0,.552.152,3.138,3.138,0,0,0,.533-.038v1.53a3.948,3.948,0,0,1-1.206.184,2.241,2.241,0,0,1-1.631-.521,2.133,2.133,0,0,1-.527-1.581V-5.383h-.876V-6.868h.876V-8.576ZM135.9,0a2.416,2.416,0,0,1-.2-.616,1.989,1.989,0,0,1-1.65.743A2.437,2.437,0,0,1,132.4-.46a1.869,1.869,0,0,1-.679-1.476,1.921,1.921,0,0,1,.825-1.688,4.2,4.2,0,0,1,2.4-.571h.66v-.364q0-.95-.819-.95a.669.669,0,0,0-.762.753h-2.139a1.918,1.918,0,0,1,.847-1.617A3.561,3.561,0,0,1,134.894-7a3.122,3.122,0,0,1,2.076.641A2.229,2.229,0,0,1,137.75-4.6v3.041a3.114,3.114,0,0,0,.292,1.447V0Zm-1.339-1.4a1.193,1.193,0,0,0,.663-.171,1.074,1.074,0,0,0,.378-.387v-1.1h-.622q-1.117,0-1.117,1a.612.612,0,0,0,.2.473A.712.712,0,0,0,134.564-1.4Zm4.1-2.088a4.2,4.2,0,0,1,.7-2.571A2.319,2.319,0,0,1,141.337-7a1.972,1.972,0,0,1,1.549.724V-9.75h2.146V0h-1.923L143-.736a2.026,2.026,0,0,1-1.676.863,2.315,2.315,0,0,1-1.942-.939A4.329,4.329,0,0,1,138.665-3.485Zm2.139.133q0,1.828,1.066,1.828a1.053,1.053,0,0,0,1.016-.6V-4.735a1.025,1.025,0,0,0-1-.609q-.99,0-1.073,1.6Zm5.173-.146a4.054,4.054,0,0,1,.4-1.831,2.86,2.86,0,0,1,1.149-1.235A3.46,3.46,0,0,1,149.284-7a3.158,3.158,0,0,1,2.431.955,3.666,3.666,0,0,1,.889,2.6v.076a3.557,3.557,0,0,1-.892,2.549A3.166,3.166,0,0,1,149.3.127a3.2,3.2,0,0,1-2.355-.879,3.439,3.439,0,0,1-.958-2.384Zm2.139.133a2.555,2.555,0,0,0,.3,1.4.994.994,0,0,0,.882.444q1.143,0,1.168-1.758V-3.5q0-1.847-1.181-1.847-1.073,0-1.162,1.593Zm9.026,1.435a.494.494,0,0,0-.286-.438,4.345,4.345,0,0,0-1.085-.343,4.95,4.95,0,0,1-1.32-.467,2.212,2.212,0,0,1-.793-.7,1.675,1.675,0,0,1-.273-.946,1.9,1.9,0,0,1,.781-1.558A3.216,3.216,0,0,1,156.209-7a3.563,3.563,0,0,1,2.184.616,1.925,1.925,0,0,1,.825,1.619h-2.146q0-.825-.87-.825a.862.862,0,0,0-.565.187.58.58,0,0,0-.229.467.532.532,0,0,0,.279.463,2.639,2.639,0,0,0,.892.292,7.707,7.707,0,0,1,1.076.273,1.955,1.955,0,0,1,1.549,1.911,1.8,1.8,0,0,1-.835,1.53,3.66,3.66,0,0,1-2.161.59,3.735,3.735,0,0,1-1.574-.317,2.632,2.632,0,0,1-1.079-.863,1.955,1.955,0,0,1-.387-1.149h2a.827.827,0,0,0,.317.7,1.306,1.306,0,0,0,.781.219,1.027,1.027,0,0,0,.657-.178A.569.569,0,0,0,157.143-1.93Z" transform="translate(4746.483 -5900.086)" fill="#12263f"/>
    <path id="Trazado_705503" data-name="Trazado 705503" d="M8.176-3.129a3.375,3.375,0,0,1-.521,1.7A3.141,3.141,0,0,1,6.319-.279,4.548,4.548,0,0,1,4.354.127,3.629,3.629,0,0,1,1.485-1.06,4.9,4.9,0,0,1,.438-4.412v-.457A5.594,5.594,0,0,1,.911-7.246,3.583,3.583,0,0,1,2.272-8.82a3.8,3.8,0,0,1,2.057-.555,3.984,3.984,0,0,1,2.7.885A3.5,3.5,0,0,1,8.195-6.049H5.973a1.655,1.655,0,0,0-.425-1.212A1.749,1.749,0,0,0,4.329-7.63a1.331,1.331,0,0,0-1.219.622A4,4,0,0,0,2.7-5.021v.654a4.424,4.424,0,0,0,.371,2.114,1.359,1.359,0,0,0,1.279.635A1.711,1.711,0,0,0,5.529-1.98,1.536,1.536,0,0,0,5.96-3.129ZM8.861-3.5a4.054,4.054,0,0,1,.4-1.831A2.86,2.86,0,0,1,10.41-6.563,3.46,3.46,0,0,1,12.168-7,3.158,3.158,0,0,1,14.6-6.04a3.666,3.666,0,0,1,.889,2.6v.076A3.557,3.557,0,0,1,14.6-.816a3.166,3.166,0,0,1-2.415.943A3.2,3.2,0,0,1,9.826-.752a3.439,3.439,0,0,1-.958-2.384ZM11-3.364a2.556,2.556,0,0,0,.3,1.4.994.994,0,0,0,.882.444q1.143,0,1.168-1.758V-3.5q0-1.847-1.181-1.847-1.073,0-1.162,1.593Zm7.452-3.5.07.806A2.362,2.362,0,0,1,20.484-7,1.739,1.739,0,0,1,22.242-5.96,2.286,2.286,0,0,1,24.261-7q2.088,0,2.146,2.526V0H24.261V-4.335a1.309,1.309,0,0,0-.178-.768.757.757,0,0,0-.647-.241,1.014,1.014,0,0,0-.946.565l.006.089V0H20.351V-4.323a1.376,1.376,0,0,0-.171-.781.754.754,0,0,0-.654-.241,1.026,1.026,0,0,0-.939.565V0H16.447V-6.868ZM34-3.383a4.142,4.142,0,0,1-.72,2.555,2.31,2.31,0,0,1-1.946.955,1.98,1.98,0,0,1-1.555-.692V2.641H27.644V-6.868h2l.063.635A1.98,1.98,0,0,1,31.326-7a2.329,2.329,0,0,1,1.974.936A4.193,4.193,0,0,1,34-3.485Zm-2.139-.133q0-1.828-1.066-1.828a1.007,1.007,0,0,0-1.016.546v2.7a1.039,1.039,0,0,0,1.028.571q1.022,0,1.054-1.765ZM38.816,0a2.415,2.415,0,0,1-.2-.616,1.989,1.989,0,0,1-1.65.743,2.437,2.437,0,0,1-1.65-.587,1.869,1.869,0,0,1-.679-1.476,1.921,1.921,0,0,1,.825-1.688,4.2,4.2,0,0,1,2.4-.571h.66v-.364q0-.95-.819-.95a.669.669,0,0,0-.762.753H34.8a1.918,1.918,0,0,1,.847-1.617A3.561,3.561,0,0,1,37.807-7a3.122,3.122,0,0,1,2.076.641A2.229,2.229,0,0,1,40.663-4.6v3.041a3.114,3.114,0,0,0,.292,1.447V0ZM37.477-1.4a1.193,1.193,0,0,0,.663-.171,1.074,1.074,0,0,0,.378-.387v-1.1H37.9q-1.117,0-1.117,1a.612.612,0,0,0,.2.473A.712.712,0,0,0,37.477-1.4ZM46-4.932l-.7-.051A1.266,1.266,0,0,0,44-4.348V0H41.863V-6.868h2.006l.07.882A1.656,1.656,0,0,1,45.443-7a2.086,2.086,0,0,1,.6.076ZM50.451,0a2.415,2.415,0,0,1-.2-.616A1.989,1.989,0,0,1,48.6.127a2.437,2.437,0,0,1-1.65-.587,1.869,1.869,0,0,1-.679-1.476,1.921,1.921,0,0,1,.825-1.688,4.2,4.2,0,0,1,2.4-.571h.66v-.364q0-.95-.819-.95a.669.669,0,0,0-.762.753H46.433a1.918,1.918,0,0,1,.847-1.617A3.561,3.561,0,0,1,49.442-7a3.122,3.122,0,0,1,2.076.641A2.229,2.229,0,0,1,52.3-4.6v3.041A3.114,3.114,0,0,0,52.59-.108V0ZM49.112-1.4a1.193,1.193,0,0,0,.663-.171,1.074,1.074,0,0,0,.378-.387v-1.1h-.622q-1.117,0-1.117,1a.612.612,0,0,0,.2.473A.712.712,0,0,0,49.112-1.4Zm8.525-3.536-.7-.051a1.266,1.266,0,0,0-1.295.635V0H53.5V-6.868H55.5l.07.882A1.656,1.656,0,0,1,57.078-7a2.086,2.086,0,0,1,.6.076Zm8.163,0-.7-.051a1.266,1.266,0,0,0-1.295.635V0H61.661V-6.868h2.006l.07.882A1.656,1.656,0,0,1,65.241-7a2.086,2.086,0,0,1,.6.076ZM69.773.127a3.531,3.531,0,0,1-2.558-.943,3.255,3.255,0,0,1-.978-2.453v-.178a4.218,4.218,0,0,1,.39-1.86,2.856,2.856,0,0,1,1.139-1.247A3.44,3.44,0,0,1,69.545-7a2.973,2.973,0,0,1,2.285.9,3.53,3.53,0,0,1,.838,2.5v.832H68.415a1.542,1.542,0,0,0,.5.908,1.492,1.492,0,0,0,1,.33,1.923,1.923,0,0,0,1.587-.711l.978,1.155A2.733,2.733,0,0,1,71.351-.2,3.829,3.829,0,0,1,69.773.127Zm-.241-5.472q-.939,0-1.117,1.244h2.158v-.165a1.06,1.06,0,0,0-.26-.8A1.036,1.036,0,0,0,69.532-5.345ZM77.124-1.93a.494.494,0,0,0-.286-.438,4.345,4.345,0,0,0-1.085-.343,4.95,4.95,0,0,1-1.32-.467,2.212,2.212,0,0,1-.793-.7,1.675,1.675,0,0,1-.273-.946,1.9,1.9,0,0,1,.781-1.558A3.216,3.216,0,0,1,76.191-7a3.563,3.563,0,0,1,2.184.616A1.925,1.925,0,0,1,79.2-4.761H77.054q0-.825-.87-.825a.862.862,0,0,0-.565.187.58.58,0,0,0-.229.467.532.532,0,0,0,.279.463,2.639,2.639,0,0,0,.892.292,7.707,7.707,0,0,1,1.076.273,1.955,1.955,0,0,1,1.549,1.911,1.8,1.8,0,0,1-.835,1.53,3.66,3.66,0,0,1-2.161.59A3.735,3.735,0,0,1,74.617-.19a2.632,2.632,0,0,1-1.079-.863A1.955,1.955,0,0,1,73.15-2.2h2a.827.827,0,0,0,.317.7,1.306,1.306,0,0,0,.781.219,1.027,1.027,0,0,0,.657-.178A.569.569,0,0,0,77.124-1.93ZM84.278-.743a2.205,2.205,0,0,1-1.834.87A2.163,2.163,0,0,1,80.733-.53a2.763,2.763,0,0,1-.581-1.888v-4.45h2.139v4.462a.769.769,0,0,0,.857.882A1.118,1.118,0,0,0,84.2-2.05V-6.868h2.152V0H84.341Zm5.5.743H87.629V-9.75h2.146Zm3.809-8.576v1.708h1.13v1.485h-1.13v3.142a.8.8,0,0,0,.14.54.749.749,0,0,0,.552.152,3.138,3.138,0,0,0,.533-.038v1.53A3.948,3.948,0,0,1,93.6.127a2.241,2.241,0,0,1-1.631-.521,2.133,2.133,0,0,1-.527-1.581V-5.383h-.876V-6.868h.876V-8.576ZM99.423,0a2.415,2.415,0,0,1-.2-.616,1.989,1.989,0,0,1-1.65.743,2.437,2.437,0,0,1-1.65-.587,1.869,1.869,0,0,1-.679-1.476,1.921,1.921,0,0,1,.825-1.688,4.2,4.2,0,0,1,2.4-.571h.66v-.364q0-.95-.819-.95a.669.669,0,0,0-.762.753H95.405a1.918,1.918,0,0,1,.847-1.617A3.561,3.561,0,0,1,98.414-7a3.122,3.122,0,0,1,2.076.641,2.229,2.229,0,0,1,.781,1.758v3.041a3.114,3.114,0,0,0,.292,1.447V0ZM98.084-1.4a1.193,1.193,0,0,0,.663-.171,1.074,1.074,0,0,0,.378-.387v-1.1H98.5q-1.117,0-1.117,1a.612.612,0,0,0,.2.473A.712.712,0,0,0,98.084-1.4Zm4.1-2.088a4.2,4.2,0,0,1,.7-2.571A2.319,2.319,0,0,1,104.857-7a1.972,1.972,0,0,1,1.549.724V-9.75h2.146V0h-1.923l-.108-.736a2.026,2.026,0,0,1-1.676.863A2.315,2.315,0,0,1,102.9-.812,4.329,4.329,0,0,1,102.185-3.485Zm2.139.133q0,1.828,1.066,1.828a1.053,1.053,0,0,0,1.016-.6V-4.735a1.025,1.025,0,0,0-1-.609q-.99,0-1.073,1.6ZM109.5-3.5a4.054,4.054,0,0,1,.4-1.831,2.86,2.86,0,0,1,1.149-1.235A3.46,3.46,0,0,1,112.8-7a3.158,3.158,0,0,1,2.431.955,3.666,3.666,0,0,1,.889,2.6v.076a3.557,3.557,0,0,1-.892,2.549,3.166,3.166,0,0,1-2.415.943,3.2,3.2,0,0,1-2.355-.879,3.439,3.439,0,0,1-.958-2.384Zm2.139.133a2.556,2.556,0,0,0,.3,1.4.994.994,0,0,0,.882.444q1.143,0,1.168-1.758V-3.5q0-1.847-1.181-1.847-1.073,0-1.162,1.593Zm9.026,1.435a.494.494,0,0,0-.286-.438,4.345,4.345,0,0,0-1.085-.343,4.95,4.95,0,0,1-1.32-.467,2.212,2.212,0,0,1-.793-.7,1.675,1.675,0,0,1-.273-.946,1.9,1.9,0,0,1,.781-1.558A3.216,3.216,0,0,1,119.729-7a3.563,3.563,0,0,1,2.184.616,1.925,1.925,0,0,1,.825,1.619h-2.146q0-.825-.87-.825a.862.862,0,0,0-.565.187.58.58,0,0,0-.229.467.532.532,0,0,0,.279.463,2.639,2.639,0,0,0,.892.292,7.707,7.707,0,0,1,1.076.273,1.955,1.955,0,0,1,1.549,1.911,1.8,1.8,0,0,1-.835,1.53,3.66,3.66,0,0,1-2.161.59,3.735,3.735,0,0,1-1.574-.317,2.632,2.632,0,0,1-1.079-.863,1.955,1.955,0,0,1-.387-1.149h2a.827.827,0,0,0,.317.7,1.306,1.306,0,0,0,.781.219,1.027,1.027,0,0,0,.657-.178A.569.569,0,0,0,120.663-1.93Zm9.2.406a.951.951,0,0,0,.7-.244.9.9,0,0,0,.241-.682h2.006A2.375,2.375,0,0,1,132-.6a3.01,3.01,0,0,1-2.085.724,3.048,3.048,0,0,1-2.361-.939,3.7,3.7,0,0,1-.863-2.6V-3.5a4.183,4.183,0,0,1,.384-1.838,2.8,2.8,0,0,1,1.108-1.225A3.3,3.3,0,0,1,129.9-7a2.972,2.972,0,0,1,2.126.743,2.634,2.634,0,0,1,.787,2.012h-2.006a1.174,1.174,0,0,0-.26-.819.9.9,0,0,0-.7-.286q-.832,0-.971,1.06a7.481,7.481,0,0,0-.044.927,2.938,2.938,0,0,0,.248,1.435A.857.857,0,0,0,129.867-1.523Zm3.58-1.974a4.054,4.054,0,0,1,.4-1.831A2.86,2.86,0,0,1,135-6.563,3.46,3.46,0,0,1,136.754-7a3.158,3.158,0,0,1,2.431.955,3.666,3.666,0,0,1,.889,2.6v.076a3.557,3.557,0,0,1-.892,2.549,3.166,3.166,0,0,1-2.415.943,3.2,3.2,0,0,1-2.355-.879,3.439,3.439,0,0,1-.958-2.384Zm2.139.133a2.555,2.555,0,0,0,.3,1.4.994.994,0,0,0,.882.444q1.143,0,1.168-1.758V-3.5q0-1.847-1.181-1.847-1.073,0-1.162,1.593Zm7.4-3.5.07.806A2.329,2.329,0,0,1,145.012-7a1.96,1.96,0,0,1,1.6.641,3.052,3.052,0,0,1,.549,1.93V0h-2.146V-4.335a1.159,1.159,0,0,0-.209-.765.969.969,0,0,0-.762-.244,1.02,1.02,0,0,0-.933.5V0h-2.139V-6.868ZM.33,12.5a4.054,4.054,0,0,1,.4-1.831A2.86,2.86,0,0,1,1.879,9.437,3.46,3.46,0,0,1,3.637,9a3.158,3.158,0,0,1,2.431.955,3.666,3.666,0,0,1,.889,2.6v.076a3.557,3.557,0,0,1-.892,2.549,3.166,3.166,0,0,1-2.415.943,3.2,3.2,0,0,1-2.355-.879,3.439,3.439,0,0,1-.958-2.384Zm2.139.133a2.556,2.556,0,0,0,.3,1.4.994.994,0,0,0,.882.444q1.143,0,1.168-1.758V12.5q0-1.847-1.181-1.847-1.073,0-1.162,1.593Zm7.922-5.211V9.132h1.13v1.485h-1.13v3.142a.8.8,0,0,0,.14.54.749.749,0,0,0,.552.152,3.138,3.138,0,0,0,.533-.038v1.53a3.948,3.948,0,0,1-1.206.184,2.241,2.241,0,0,1-1.631-.521,2.133,2.133,0,0,1-.527-1.581V10.617H7.376V9.132h.876V7.424Zm6.125,3.644-.7-.051a1.266,1.266,0,0,0-1.295.635V16H12.378V9.132h2.006l.07.882A1.656,1.656,0,0,1,15.958,9a2.086,2.086,0,0,1,.6.076ZM16.79,12.5a4.054,4.054,0,0,1,.4-1.831,2.86,2.86,0,0,1,1.149-1.235A3.46,3.46,0,0,1,20.1,9a3.158,3.158,0,0,1,2.431.955,3.666,3.666,0,0,1,.889,2.6v.076a3.557,3.557,0,0,1-.892,2.549,3.166,3.166,0,0,1-2.415.943,3.2,3.2,0,0,1-2.355-.879,3.439,3.439,0,0,1-.958-2.384Zm2.139.133a2.556,2.556,0,0,0,.3,1.4.994.994,0,0,0,.882.444q1.143,0,1.168-1.758V12.5q0-1.847-1.181-1.847-1.073,0-1.162,1.593Zm9.026,1.435a.494.494,0,0,0-.286-.438,4.345,4.345,0,0,0-1.085-.343,4.95,4.95,0,0,1-1.32-.467,2.212,2.212,0,0,1-.793-.7,1.675,1.675,0,0,1-.273-.946,1.9,1.9,0,0,1,.781-1.558A3.216,3.216,0,0,1,27.022,9a3.563,3.563,0,0,1,2.184.616,1.925,1.925,0,0,1,.825,1.619H27.885q0-.825-.87-.825a.862.862,0,0,0-.565.187.58.58,0,0,0-.229.467.532.532,0,0,0,.279.463,2.639,2.639,0,0,0,.892.292,7.707,7.707,0,0,1,1.076.273,1.955,1.955,0,0,1,1.549,1.911,1.8,1.8,0,0,1-.835,1.53,3.66,3.66,0,0,1-2.161.59,3.735,3.735,0,0,1-1.574-.317,2.632,2.632,0,0,1-1.079-.863,1.955,1.955,0,0,1-.387-1.149h2a.827.827,0,0,0,.317.7,1.306,1.306,0,0,0,.781.219,1.027,1.027,0,0,0,.657-.178A.569.569,0,0,0,27.955,14.07Zm12.676-1.454a4.142,4.142,0,0,1-.72,2.555,2.31,2.31,0,0,1-1.946.955,1.98,1.98,0,0,1-1.555-.692v3.206H34.271V9.132h2l.063.635A1.98,1.98,0,0,1,37.953,9a2.329,2.329,0,0,1,1.974.936,4.193,4.193,0,0,1,.7,2.574Zm-2.139-.133q0-1.828-1.066-1.828a1.007,1.007,0,0,0-1.016.546v2.7a1.039,1.039,0,0,0,1.028.571q1.022,0,1.054-1.765Zm7.236-1.416-.7-.051a1.266,1.266,0,0,0-1.295.635V16H41.59V9.132H43.6l.07.882A1.656,1.656,0,0,1,45.17,9a2.086,2.086,0,0,1,.6.076ZM46,12.5a4.054,4.054,0,0,1,.4-1.831A2.86,2.86,0,0,1,47.55,9.437,3.46,3.46,0,0,1,49.309,9a3.158,3.158,0,0,1,2.431.955,3.666,3.666,0,0,1,.889,2.6v.076a3.557,3.557,0,0,1-.892,2.549,3.166,3.166,0,0,1-2.415.943,3.2,3.2,0,0,1-2.355-.879,3.439,3.439,0,0,1-.958-2.384Zm2.139.133a2.556,2.556,0,0,0,.3,1.4.994.994,0,0,0,.882.444q1.143,0,1.168-1.758V12.5q0-1.847-1.181-1.847-1.073,0-1.162,1.593Zm8.334,1.841a.951.951,0,0,0,.7-.244.9.9,0,0,0,.241-.682H59.42a2.375,2.375,0,0,1-.809,1.854,3.01,3.01,0,0,1-2.085.724,3.048,3.048,0,0,1-2.361-.939,3.7,3.7,0,0,1-.863-2.6V12.5a4.183,4.183,0,0,1,.384-1.838,2.8,2.8,0,0,1,1.108-1.225A3.3,3.3,0,0,1,56.507,9a2.972,2.972,0,0,1,2.126.743,2.634,2.634,0,0,1,.787,2.012H57.415a1.174,1.174,0,0,0-.26-.819.9.9,0,0,0-.7-.286q-.832,0-.971,1.06a7.48,7.48,0,0,0-.044.927,2.938,2.938,0,0,0,.248,1.435A.857.857,0,0,0,56.475,14.477Zm7.173,1.65a3.531,3.531,0,0,1-2.558-.943,3.255,3.255,0,0,1-.978-2.453v-.178a4.218,4.218,0,0,1,.39-1.86,2.857,2.857,0,0,1,1.139-1.247A3.44,3.44,0,0,1,63.419,9a2.973,2.973,0,0,1,2.285.9,3.53,3.53,0,0,1,.838,2.5v.832H62.29a1.542,1.542,0,0,0,.5.908,1.492,1.492,0,0,0,1,.33,1.923,1.923,0,0,0,1.587-.711l.978,1.155a2.733,2.733,0,0,1-1.133.879A3.829,3.829,0,0,1,63.648,16.127Zm-.241-5.472q-.939,0-1.117,1.244h2.158v-.165a1.06,1.06,0,0,0-.26-.8A1.036,1.036,0,0,0,63.407,10.655ZM71,14.07a.494.494,0,0,0-.286-.438,4.345,4.345,0,0,0-1.085-.343,4.95,4.95,0,0,1-1.32-.467,2.212,2.212,0,0,1-.793-.7,1.675,1.675,0,0,1-.273-.946,1.9,1.9,0,0,1,.781-1.558A3.216,3.216,0,0,1,70.065,9a3.563,3.563,0,0,1,2.184.616,1.925,1.925,0,0,1,.825,1.619H70.929q0-.825-.87-.825a.862.862,0,0,0-.565.187.58.58,0,0,0-.229.467.532.532,0,0,0,.279.463,2.639,2.639,0,0,0,.892.292,7.707,7.707,0,0,1,1.076.273,1.955,1.955,0,0,1,1.549,1.911,1.8,1.8,0,0,1-.835,1.53,3.66,3.66,0,0,1-2.161.59,3.735,3.735,0,0,1-1.574-.317,2.632,2.632,0,0,1-1.079-.863,1.955,1.955,0,0,1-.387-1.149h2a.827.827,0,0,0,.317.7,1.306,1.306,0,0,0,.781.219,1.027,1.027,0,0,0,.657-.178A.569.569,0,0,0,71,14.07ZM73.792,12.5a4.054,4.054,0,0,1,.4-1.831A2.86,2.86,0,0,1,75.34,9.437,3.46,3.46,0,0,1,77.1,9a3.158,3.158,0,0,1,2.431.955,3.666,3.666,0,0,1,.889,2.6v.076a3.557,3.557,0,0,1-.892,2.549,3.166,3.166,0,0,1-2.415.943,3.2,3.2,0,0,1-2.355-.879,3.439,3.439,0,0,1-.958-2.384Zm2.139.133a2.556,2.556,0,0,0,.3,1.4.994.994,0,0,0,.882.444q1.143,0,1.168-1.758V12.5q0-1.847-1.181-1.847-1.073,0-1.162,1.593Zm9.026,1.435a.494.494,0,0,0-.286-.438,4.345,4.345,0,0,0-1.085-.343,4.95,4.95,0,0,1-1.32-.467,2.212,2.212,0,0,1-.793-.7,1.675,1.675,0,0,1-.273-.946,1.9,1.9,0,0,1,.781-1.558A3.216,3.216,0,0,1,84.024,9a3.563,3.563,0,0,1,2.184.616,1.925,1.925,0,0,1,.825,1.619H84.887q0-.825-.87-.825a.862.862,0,0,0-.565.187.58.58,0,0,0-.229.467.532.532,0,0,0,.279.463,2.639,2.639,0,0,0,.892.292,7.707,7.707,0,0,1,1.076.273,1.955,1.955,0,0,1,1.549,1.911,1.8,1.8,0,0,1-.835,1.53,3.66,3.66,0,0,1-2.161.59,3.735,3.735,0,0,1-1.574-.317,2.632,2.632,0,0,1-1.079-.863,1.955,1.955,0,0,1-.387-1.149h2a.827.827,0,0,0,.317.7,1.306,1.306,0,0,0,.781.219,1.027,1.027,0,0,0,.657-.178A.569.569,0,0,0,84.957,14.07Zm6.03-1.555a4.2,4.2,0,0,1,.7-2.571A2.319,2.319,0,0,1,93.66,9a1.972,1.972,0,0,1,1.549.724V6.25h2.146V16H95.431l-.108-.736a2.026,2.026,0,0,1-1.676.863,2.315,2.315,0,0,1-1.942-.939A4.329,4.329,0,0,1,90.987,12.515Zm2.139.133q0,1.828,1.066,1.828a1.053,1.053,0,0,0,1.016-.6V11.265a1.025,1.025,0,0,0-1-.609q-.99,0-1.073,1.6Zm8.766,3.479a3.531,3.531,0,0,1-2.558-.943,3.255,3.255,0,0,1-.978-2.453v-.178a4.218,4.218,0,0,1,.39-1.86,2.856,2.856,0,0,1,1.139-1.247A3.44,3.44,0,0,1,101.664,9a2.973,2.973,0,0,1,2.285.9,3.53,3.53,0,0,1,.838,2.5v.832h-4.253a1.542,1.542,0,0,0,.5.908,1.492,1.492,0,0,0,1,.33,1.923,1.923,0,0,0,1.587-.711l.978,1.155a2.733,2.733,0,0,1-1.133.879A3.829,3.829,0,0,1,101.893,16.127Zm-.241-5.472q-.939,0-1.117,1.244h2.158v-.165a1.06,1.06,0,0,0-.26-.8A1.036,1.036,0,0,0,101.651,10.655ZM111.141,16H109V6.25h2.146Zm5.186,0a2.415,2.415,0,0,1-.2-.616,1.989,1.989,0,0,1-1.65.743,2.437,2.437,0,0,1-1.65-.587,1.869,1.869,0,0,1-.679-1.476,1.921,1.921,0,0,1,.825-1.688,4.2,4.2,0,0,1,2.4-.571h.66v-.364q0-.95-.819-.95a.669.669,0,0,0-.762.753h-2.139a1.918,1.918,0,0,1,.847-1.617A3.561,3.561,0,0,1,115.318,9a3.122,3.122,0,0,1,2.076.641,2.229,2.229,0,0,1,.781,1.758v3.041a3.114,3.114,0,0,0,.292,1.447V16Zm-1.339-1.4a1.193,1.193,0,0,0,.663-.171,1.074,1.074,0,0,0,.378-.387v-1.1h-.622q-1.117,0-1.117,1a.612.612,0,0,0,.2.473A.712.712,0,0,0,114.988,14.6Zm10.931,1.523a3.531,3.531,0,0,1-2.558-.943,3.255,3.255,0,0,1-.978-2.453v-.178a4.218,4.218,0,0,1,.39-1.86,2.856,2.856,0,0,1,1.139-1.247A3.44,3.44,0,0,1,125.69,9a2.973,2.973,0,0,1,2.285.9,3.53,3.53,0,0,1,.838,2.5v.832H124.56a1.542,1.542,0,0,0,.5.908,1.492,1.492,0,0,0,1,.33,1.923,1.923,0,0,0,1.587-.711l.978,1.155a2.733,2.733,0,0,1-1.133.879A3.829,3.829,0,0,1,125.918,16.127Zm-.241-5.472q-.939,0-1.117,1.244h2.158v-.165a1.06,1.06,0,0,0-.26-.8A1.036,1.036,0,0,0,125.677,10.655Zm6.018-1.523.07.806A2.361,2.361,0,0,1,133.726,9a1.739,1.739,0,0,1,1.758,1.035A2.286,2.286,0,0,1,137.5,9q2.088,0,2.146,2.526V16H137.5V11.665a1.309,1.309,0,0,0-.178-.768.757.757,0,0,0-.647-.241,1.014,1.014,0,0,0-.946.565l.006.089V16h-2.146V11.677a1.376,1.376,0,0,0-.171-.781.754.754,0,0,0-.654-.241,1.026,1.026,0,0,0-.939.565V16h-2.139V9.132Zm15.552,3.485a4.142,4.142,0,0,1-.72,2.555,2.31,2.31,0,0,1-1.946.955,1.98,1.98,0,0,1-1.555-.692v3.206h-2.139V9.132h2l.063.635A1.98,1.98,0,0,1,144.568,9a2.329,2.329,0,0,1,1.974.936,4.193,4.193,0,0,1,.7,2.574Zm-2.139-.133q0-1.828-1.066-1.828a1.007,1.007,0,0,0-1.016.546v2.7a1.039,1.039,0,0,0,1.028.571q1.022,0,1.054-1.765Zm7.236-1.416-.7-.051a1.266,1.266,0,0,0-1.295.635V16h-2.139V9.132h2.006l.07.882A1.656,1.656,0,0,1,151.785,9a2.086,2.086,0,0,1,.6.076Zm3.974,5.059a3.531,3.531,0,0,1-2.558-.943,3.255,3.255,0,0,1-.978-2.453v-.178a4.218,4.218,0,0,1,.39-1.86,2.857,2.857,0,0,1,1.139-1.247A3.44,3.44,0,0,1,156.089,9a2.973,2.973,0,0,1,2.285.9,3.53,3.53,0,0,1,.838,2.5v.832h-4.253a1.542,1.542,0,0,0,.5.908,1.492,1.492,0,0,0,1,.33,1.923,1.923,0,0,0,1.587-.711l.978,1.155a2.733,2.733,0,0,1-1.133.879A3.829,3.829,0,0,1,156.317,16.127Zm-.241-5.472q-.939,0-1.117,1.244h2.158v-.165a1.06,1.06,0,0,0-.26-.8A1.036,1.036,0,0,0,156.076,10.655Zm7.592,3.415a.494.494,0,0,0-.286-.438,4.345,4.345,0,0,0-1.085-.343,4.95,4.95,0,0,1-1.32-.467,2.212,2.212,0,0,1-.793-.7,1.675,1.675,0,0,1-.273-.946,1.9,1.9,0,0,1,.781-1.558A3.216,3.216,0,0,1,162.735,9a3.563,3.563,0,0,1,2.184.616,1.925,1.925,0,0,1,.825,1.619H163.6q0-.825-.87-.825a.862.862,0,0,0-.565.187.58.58,0,0,0-.229.467.532.532,0,0,0,.279.463,2.639,2.639,0,0,0,.892.292,7.707,7.707,0,0,1,1.076.273,1.955,1.955,0,0,1,1.549,1.911,1.8,1.8,0,0,1-.835,1.53,3.66,3.66,0,0,1-2.161.59,3.735,3.735,0,0,1-1.574-.317,2.632,2.632,0,0,1-1.079-.863,1.955,1.955,0,0,1-.387-1.149h2a.827.827,0,0,0,.317.7,1.306,1.306,0,0,0,.781.219,1.027,1.027,0,0,0,.657-.178A.569.569,0,0,0,163.668,14.07ZM170.6,16a2.416,2.416,0,0,1-.2-.616,1.989,1.989,0,0,1-1.65.743,2.437,2.437,0,0,1-1.65-.587,1.869,1.869,0,0,1-.679-1.476,1.921,1.921,0,0,1,.825-1.688,4.2,4.2,0,0,1,2.4-.571h.66v-.364q0-.95-.819-.95a.669.669,0,0,0-.762.753h-2.139a1.918,1.918,0,0,1,.847-1.617A3.561,3.561,0,0,1,169.59,9a3.122,3.122,0,0,1,2.076.641,2.229,2.229,0,0,1,.781,1.758v3.041a3.114,3.114,0,0,0,.292,1.447V16Zm-1.339-1.4a1.193,1.193,0,0,0,.663-.171,1.074,1.074,0,0,0,.378-.387v-1.1h-.622q-1.117,0-1.117,1a.612.612,0,0,0,.2.473A.712.712,0,0,0,169.26,14.6Z" transform="translate(4742.082 -5846.825)" fill="#12263f"/>
    <path id="Trazado_705506" data-name="Trazado 705506" d="M-63.013-2.457a.915.915,0,0,0-.346-.762,4.3,4.3,0,0,0-1.216-.565A11.662,11.662,0,0,1-66-4.348a2.693,2.693,0,0,1-1.8-2.425,2.174,2.174,0,0,1,.448-1.355,2.894,2.894,0,0,1,1.266-.914,4.928,4.928,0,0,1,1.841-.327,4.311,4.311,0,0,1,1.787.355A2.829,2.829,0,0,1-61.223-8a2.644,2.644,0,0,1,.438,1.5h-2.222a1.117,1.117,0,0,0-.346-.876,1.348,1.348,0,0,0-.936-.311,1.521,1.521,0,0,0-.943.263.808.808,0,0,0-.346.67.814.814,0,0,0,.381.644,4.8,4.8,0,0,0,1.339.6,8.2,8.2,0,0,1,1.574.663,2.645,2.645,0,0,1,1.5,2.38,2.257,2.257,0,0,1-.914,1.9,4.066,4.066,0,0,1-2.507.692,4.974,4.974,0,0,1-2.034-.4,3.067,3.067,0,0,1-1.371-1.1A2.878,2.878,0,0,1-68.072-3h2.234A1.417,1.417,0,0,0-65.454-1.9a1.815,1.815,0,0,0,1.247.352,1.434,1.434,0,0,0,.873-.238A.786.786,0,0,0-63.013-2.457ZM-57.484,0H-59.63V-6.868h2.146Zm-2.272-8.639a.955.955,0,0,1,.33-.749,1.245,1.245,0,0,1,.857-.292,1.245,1.245,0,0,1,.857.292.955.955,0,0,1,.33.749.955.955,0,0,1-.33.749,1.245,1.245,0,0,1-.857.292,1.245,1.245,0,0,1-.857-.292A.955.955,0,0,1-59.757-8.639Zm5.611,1.771.07.806A2.362,2.362,0,0,1-52.114-7,1.739,1.739,0,0,1-50.356-5.96,2.286,2.286,0,0,1-48.337-7q2.088,0,2.146,2.526V0h-2.146V-4.335a1.309,1.309,0,0,0-.178-.768.757.757,0,0,0-.647-.241,1.014,1.014,0,0,0-.946.565l.006.089V0h-2.146V-4.323a1.376,1.376,0,0,0-.171-.781.754.754,0,0,0-.654-.241,1.026,1.026,0,0,0-.939.565V0h-2.139V-6.868Zm15.552,3.485a4.142,4.142,0,0,1-.72,2.555A2.31,2.31,0,0,1-41.26.127a1.98,1.98,0,0,1-1.555-.692V2.641h-2.139V-6.868h2l.063.635A1.98,1.98,0,0,1-41.272-7a2.329,2.329,0,0,1,1.974.936,4.193,4.193,0,0,1,.7,2.574Zm-2.139-.133q0-1.828-1.066-1.828a1.007,1.007,0,0,0-1.016.546v2.7a1.039,1.039,0,0,0,1.028.571q1.022,0,1.054-1.765ZM-35.395,0H-37.54V-9.75h2.146Zm3.574,0h-2.146V-6.868h2.146Zm-2.272-8.639a.955.955,0,0,1,.33-.749,1.245,1.245,0,0,1,.857-.292,1.245,1.245,0,0,1,.857.292.955.955,0,0,1,.33.749.955.955,0,0,1-.33.749,1.245,1.245,0,0,1-.857.292,1.245,1.245,0,0,1-.857-.292A.955.955,0,0,1-34.093-8.639ZM-30.005,0V-5.383h-1V-6.868h1V-7.1a2.622,2.622,0,0,1,.9-2.1,3.6,3.6,0,0,1,2.342-.686,8.312,8.312,0,0,1,2.234.368l-.292,1.688-.355-.1a5.656,5.656,0,0,0-1.46-.184q-1.225,0-1.225,1.117v.121h1.346v1.485H-27.86V0Zm6.462,0H-25.7V-6.868h2.152Zm4.208-1.523a.951.951,0,0,0,.7-.244A.9.9,0,0,0-18.4-2.45h2.006A2.375,2.375,0,0,1-17.2-.6a3.01,3.01,0,0,1-2.085.724,3.048,3.048,0,0,1-2.361-.939,3.7,3.7,0,0,1-.863-2.6V-3.5a4.183,4.183,0,0,1,.384-1.838,2.8,2.8,0,0,1,1.108-1.225A3.3,3.3,0,0,1-19.3-7a2.972,2.972,0,0,1,2.126.743A2.634,2.634,0,0,1-16.39-4.24H-18.4a1.174,1.174,0,0,0-.26-.819.9.9,0,0,0-.7-.286q-.832,0-.971,1.06a7.48,7.48,0,0,0-.044.927,2.938,2.938,0,0,0,.248,1.435A.857.857,0,0,0-19.335-1.523ZM-11.616,0a2.415,2.415,0,0,1-.2-.616,1.989,1.989,0,0,1-1.65.743A2.437,2.437,0,0,1-15.12-.46,1.869,1.869,0,0,1-15.8-1.936a1.921,1.921,0,0,1,.825-1.688,4.2,4.2,0,0,1,2.4-.571h.66v-.364q0-.95-.819-.95a.669.669,0,0,0-.762.753h-2.139a1.918,1.918,0,0,1,.847-1.617A3.561,3.561,0,0,1-12.625-7a3.122,3.122,0,0,1,2.076.641A2.229,2.229,0,0,1-9.769-4.6v3.041A3.114,3.114,0,0,0-9.477-.108V0Zm-1.339-1.4a1.193,1.193,0,0,0,.663-.171,1.074,1.074,0,0,0,.378-.387v-1.1h-.622q-1.117,0-1.117,1a.612.612,0,0,0,.2.473A.712.712,0,0,0-12.956-1.4Zm8.525-3.536-.7-.051a1.266,1.266,0,0,0-1.295.635V0H-8.569V-6.868h2.006l.07.882A1.656,1.656,0,0,1-4.989-7a2.086,2.086,0,0,1,.6.076ZM-.692-3.5a4.054,4.054,0,0,1,.4-1.831A2.86,2.86,0,0,1,.857-6.563,3.46,3.46,0,0,1,2.615-7a3.158,3.158,0,0,1,2.431.955,3.666,3.666,0,0,1,.889,2.6v.076A3.557,3.557,0,0,1,5.043-.816,3.166,3.166,0,0,1,2.628.127,3.2,3.2,0,0,1,.273-.752,3.439,3.439,0,0,1-.686-3.136Zm2.139.133a2.556,2.556,0,0,0,.3,1.4.994.994,0,0,0,.882.444q1.143,0,1.168-1.758V-3.5q0-1.847-1.181-1.847-1.073,0-1.162,1.593Zm10.689-3.5.07.806A2.362,2.362,0,0,1,14.168-7,1.739,1.739,0,0,1,15.926-5.96,2.286,2.286,0,0,1,17.945-7q2.088,0,2.146,2.526V0H17.945V-4.335a1.309,1.309,0,0,0-.178-.768.757.757,0,0,0-.647-.241,1.014,1.014,0,0,0-.946.565l.006.089V0H14.035V-4.323a1.376,1.376,0,0,0-.171-.781.754.754,0,0,0-.654-.241,1.026,1.026,0,0,0-.939.565V0H10.131V-6.868ZM23.569,0H21.423V-6.868h2.146ZM21.3-8.639a.955.955,0,0,1,.33-.749,1.245,1.245,0,0,1,.857-.292,1.245,1.245,0,0,1,.857.292.955.955,0,0,1,.33.749.955.955,0,0,1-.33.749,1.245,1.245,0,0,1-.857.292,1.245,1.245,0,0,1-.857-.292A.955.955,0,0,1,21.3-8.639Zm5.554,1.771.07.806A2.329,2.329,0,0,1,28.882-7a1.96,1.96,0,0,1,1.6.641,3.052,3.052,0,0,1,.549,1.93V0H28.888V-4.335a1.159,1.159,0,0,0-.209-.765.969.969,0,0,0-.762-.244,1.02,1.02,0,0,0-.933.5V0H24.845V-6.868ZM34.474,0H32.329V-6.868h2.146ZM32.2-8.639a.955.955,0,0,1,.33-.749,1.245,1.245,0,0,1,.857-.292,1.245,1.245,0,0,1,.857.292.955.955,0,0,1,.33.749.955.955,0,0,1-.33.749,1.245,1.245,0,0,1-.857.292,1.245,1.245,0,0,1-.857-.292A.955.955,0,0,1,32.2-8.639Zm5.611,1.771.07.806A2.362,2.362,0,0,1,39.844-7,1.739,1.739,0,0,1,41.6-5.96,2.286,2.286,0,0,1,43.621-7q2.088,0,2.146,2.526V0H43.621V-4.335a1.309,1.309,0,0,0-.178-.768.757.757,0,0,0-.647-.241,1.014,1.014,0,0,0-.946.565l.006.089V0H39.711V-4.323A1.376,1.376,0,0,0,39.54-5.1a.754.754,0,0,0-.654-.241,1.026,1.026,0,0,0-.939.565V0H35.807V-6.868ZM49.245,0H47.1V-6.868h2.146ZM46.973-8.639a.955.955,0,0,1,.33-.749,1.245,1.245,0,0,1,.857-.292,1.245,1.245,0,0,1,.857.292.955.955,0,0,1,.33.749.955.955,0,0,1-.33.749,1.245,1.245,0,0,1-.857.292A1.245,1.245,0,0,1,47.3-7.89.955.955,0,0,1,46.973-8.639ZM53.085-1.65h3.129V0H50.381V-1.193l3.047-4.024H50.515v-1.65h5.63v1.155ZM61.122,0a2.415,2.415,0,0,1-.2-.616,1.989,1.989,0,0,1-1.65.743,2.437,2.437,0,0,1-1.65-.587,1.869,1.869,0,0,1-.679-1.476,1.921,1.921,0,0,1,.825-1.688,4.2,4.2,0,0,1,2.4-.571h.66v-.364q0-.95-.819-.95a.669.669,0,0,0-.762.753H57.1a1.918,1.918,0,0,1,.847-1.617A3.561,3.561,0,0,1,60.112-7a3.122,3.122,0,0,1,2.076.641A2.229,2.229,0,0,1,62.969-4.6v3.041a3.114,3.114,0,0,0,.292,1.447V0ZM59.782-1.4a1.193,1.193,0,0,0,.663-.171,1.074,1.074,0,0,0,.378-.387v-1.1H60.2q-1.117,0-1.117,1a.612.612,0,0,0,.2.473A.712.712,0,0,0,59.782-1.4Zm8.525-3.536-.7-.051a1.266,1.266,0,0,0-1.295.635V0H64.168V-6.868h2.006l.07.882A1.656,1.656,0,0,1,67.749-7a2.086,2.086,0,0,1,.6.076ZM-18.288,12.617a4.142,4.142,0,0,1-.72,2.555,2.31,2.31,0,0,1-1.946.955,1.98,1.98,0,0,1-1.555-.692v3.206h-2.139V9.132h2l.063.635A1.98,1.98,0,0,1-20.966,9a2.329,2.329,0,0,1,1.974.936,4.193,4.193,0,0,1,.7,2.574Zm-2.139-.133q0-1.828-1.066-1.828a1.007,1.007,0,0,0-1.016.546v2.7a1.039,1.039,0,0,0,1.028.571q1.022,0,1.054-1.765Zm7.236-1.416-.7-.051a1.266,1.266,0,0,0-1.295.635V16h-2.139V9.132h2.006l.07.882A1.656,1.656,0,0,1-13.749,9a2.086,2.086,0,0,1,.6.076Zm.273,1.435a4.054,4.054,0,0,1,.4-1.831,2.86,2.86,0,0,1,1.149-1.235A3.46,3.46,0,0,1-9.61,9a3.158,3.158,0,0,1,2.431.955,3.666,3.666,0,0,1,.889,2.6v.076a3.557,3.557,0,0,1-.892,2.549,3.166,3.166,0,0,1-2.415.943,3.2,3.2,0,0,1-2.355-.879,3.439,3.439,0,0,1-.958-2.384Zm2.139.133a2.556,2.556,0,0,0,.3,1.4.994.994,0,0,0,.882.444q1.143,0,1.168-1.758V12.5q0-1.847-1.181-1.847-1.073,0-1.162,1.593Zm8.334,1.841a.951.951,0,0,0,.7-.244A.9.9,0,0,0-1.5,13.55H.5A2.375,2.375,0,0,1-.308,15.4a3.01,3.01,0,0,1-2.085.724,3.048,3.048,0,0,1-2.361-.939,3.7,3.7,0,0,1-.863-2.6V12.5a4.183,4.183,0,0,1,.384-1.838A2.8,2.8,0,0,1-4.126,9.433,3.3,3.3,0,0,1-2.412,9a2.972,2.972,0,0,1,2.126.743A2.634,2.634,0,0,1,.5,11.76H-1.5a1.174,1.174,0,0,0-.26-.819.9.9,0,0,0-.7-.286q-.832,0-.971,1.06a7.48,7.48,0,0,0-.044.927,2.938,2.938,0,0,0,.248,1.435A.857.857,0,0,0-2.444,14.477Zm7.173,1.65a3.531,3.531,0,0,1-2.558-.943,3.255,3.255,0,0,1-.978-2.453v-.178a4.218,4.218,0,0,1,.39-1.86A2.857,2.857,0,0,1,2.723,9.446,3.44,3.44,0,0,1,4.5,9a2.973,2.973,0,0,1,2.285.9,3.53,3.53,0,0,1,.838,2.5v.832H3.371a1.542,1.542,0,0,0,.5.908,1.492,1.492,0,0,0,1,.33,1.923,1.923,0,0,0,1.587-.711l.978,1.155a2.733,2.733,0,0,1-1.133.879A3.829,3.829,0,0,1,4.729,16.127Zm-.241-5.472q-.939,0-1.117,1.244H5.529v-.165a1.06,1.06,0,0,0-.26-.8A1.036,1.036,0,0,0,4.488,10.655ZM12.08,14.07a.494.494,0,0,0-.286-.438,4.345,4.345,0,0,0-1.085-.343,4.95,4.95,0,0,1-1.32-.467,2.212,2.212,0,0,1-.793-.7,1.675,1.675,0,0,1-.273-.946A1.9,1.9,0,0,1,9.1,9.617,3.216,3.216,0,0,1,11.146,9a3.563,3.563,0,0,1,2.184.616,1.925,1.925,0,0,1,.825,1.619H12.01q0-.825-.87-.825a.862.862,0,0,0-.565.187.58.58,0,0,0-.229.467.532.532,0,0,0,.279.463,2.639,2.639,0,0,0,.892.292,7.707,7.707,0,0,1,1.076.273,1.955,1.955,0,0,1,1.549,1.911,1.8,1.8,0,0,1-.835,1.53,3.66,3.66,0,0,1-2.161.59,3.735,3.735,0,0,1-1.574-.317,2.632,2.632,0,0,1-1.079-.863A1.955,1.955,0,0,1,8.106,13.8h2a.827.827,0,0,0,.317.7,1.306,1.306,0,0,0,.781.219,1.027,1.027,0,0,0,.657-.178A.569.569,0,0,0,12.08,14.07ZM14.873,12.5a4.054,4.054,0,0,1,.4-1.831,2.86,2.86,0,0,1,1.149-1.235A3.46,3.46,0,0,1,18.18,9a3.158,3.158,0,0,1,2.431.955,3.666,3.666,0,0,1,.889,2.6v.076a3.557,3.557,0,0,1-.892,2.549,3.166,3.166,0,0,1-2.415.943,3.2,3.2,0,0,1-2.355-.879,3.439,3.439,0,0,1-.958-2.384Zm2.139.133a2.556,2.556,0,0,0,.3,1.4.994.994,0,0,0,.882.444q1.143,0,1.168-1.758V12.5q0-1.847-1.181-1.847-1.073,0-1.162,1.593Zm9.026,1.435a.494.494,0,0,0-.286-.438,4.345,4.345,0,0,0-1.085-.343,4.95,4.95,0,0,1-1.32-.467,2.212,2.212,0,0,1-.793-.7,1.675,1.675,0,0,1-.273-.946,1.9,1.9,0,0,1,.781-1.558A3.216,3.216,0,0,1,25.1,9a3.563,3.563,0,0,1,2.184.616,1.925,1.925,0,0,1,.825,1.619H25.968q0-.825-.87-.825a.862.862,0,0,0-.565.187.58.58,0,0,0-.229.467.532.532,0,0,0,.279.463,2.639,2.639,0,0,0,.892.292,7.707,7.707,0,0,1,1.076.273A1.955,1.955,0,0,1,28.1,14.007a1.8,1.8,0,0,1-.835,1.53,3.66,3.66,0,0,1-2.161.59,3.735,3.735,0,0,1-1.574-.317,2.632,2.632,0,0,1-1.079-.863,1.955,1.955,0,0,1-.387-1.149h2a.827.827,0,0,0,.317.7,1.306,1.306,0,0,0,.781.219,1.027,1.027,0,0,0,.657-.178A.569.569,0,0,0,26.038,14.07Z" transform="translate(4598.846 -5803.567)" fill="#12263f"/>
    <path id="Polígono_167" data-name="Polígono 167" d="M9.195,0,18.39,14.032H0Z" transform="translate(4704.327 -5938.249) rotate(90)" fill="#06d1d1"/>
    <path id="Trazado_705318" data-name="Trazado 705318" d="M0,106.438V0H432.225" transform="translate(4946.225 -5822.562) rotate(180)" fill="none" stroke="#06d1d1" stroke-width="3"/>
    <path id="Trazado_705319" data-name="Trazado 705319" d="M0,15.861v99.171H446.72" transform="translate(4499.504 -5828.861)" fill="none" stroke="#06d1d1" stroke-width="3"/>
    <path id="Trazado_99075-3" data-name="Trazado 99075" d="M21.233,0A21.233,21.233,0,1,1,0,21.233,21.233,21.233,0,0,1,21.233,0Z" transform="translate(4696.496 -5843.374)" fill="#b20d0d"/>
    <path id="Trazado_705504" data-name="Trazado 705504" d="M4.652,12.816H6.516A1.937,1.937,0,0,0,8.73,10.648,1.875,1.875,0,0,0,8.2,9.271a2,2,0,0,0-1.488-.533A2.141,2.141,0,0,0,5.35,9.2a1.394,1.394,0,0,0-.58,1.137H.82a4.043,4.043,0,0,1,.75-2.4A4.953,4.953,0,0,1,3.65,6.283a7.112,7.112,0,0,1,2.924-.592,6.988,6.988,0,0,1,4.477,1.3,4.324,4.324,0,0,1,1.629,3.574,3.6,3.6,0,0,1-.674,2.08,4.8,4.8,0,0,1-1.963,1.588,4.587,4.587,0,0,1,2.133,1.494,3.935,3.935,0,0,1,.773,2.479,4.4,4.4,0,0,1-1.758,3.656,7.3,7.3,0,0,1-4.617,1.371A7.567,7.567,0,0,1,3.463,22.6a4.875,4.875,0,0,1-2.174-1.77,4.6,4.6,0,0,1-.738-2.572H4.523a1.778,1.778,0,0,0,.633,1.359,2.234,2.234,0,0,0,1.559.574,2.34,2.34,0,0,0,1.664-.58A1.939,1.939,0,0,0,9,18.125,2.267,2.267,0,0,0,8.355,16.3a2.694,2.694,0,0,0-1.781-.539H4.652Z" transform="translate(4706.318 -5836.388)" fill="#fff"/>
    <path id="Polígono_168" data-name="Polígono 168" d="M9.195,0,18.39,14.032H0Z" transform="translate(4732.925 -5811.973) rotate(-92)" fill="#06d1d1"/>
    <path id="Trazado_99075-4" data-name="Trazado 99075" d="M21.233,0A21.233,21.233,0,1,1,0,21.233,21.233,21.233,0,0,1,21.233,0Z" transform="translate(4470.718 -5847.841)" fill="#b20d0d"/>
    <path id="Trazado_705505" data-name="Trazado 705505" d="M11.473,16.332h1.734v3.047H11.473V23H7.523V19.379H.926L.691,16.965,7.523,5.973V5.938h3.949Zm-7.02,0h3.07v-5.25l-.246.4Z" transform="translate(4479.54 -5840.855)" fill="#fff"/>
    <path id="Polígono_169" data-name="Polígono 169" d="M9.195,0,18.39,14.032H0Z" transform="translate(4504.036 -5812.212) rotate(-90)" fill="#06d1d1"/>
    <path id="Trazado_705292" data-name="Trazado 705292" d="M188.99,0,167.208,47.845H20.368L0,0" transform="translate(4690.295 -5715.169) rotate(180)" fill="#f5e4d0" stroke="#06d1d1" stroke-width="3"/>
    <path id="Trazado_99075-5" data-name="Trazado 99075" d="M21.233,0A21.233,21.233,0,1,1,0,21.233,21.233,21.233,0,0,1,21.233,0Z" transform="translate(4496.983 -5737.403)" fill="#b20d0d"/>
    <path id="Trazado_705507" data-name="Trazado 705507" d="M1.277,14.665,2.32,5.938h9.973v3.07H5.531L5.145,12.4a4.658,4.658,0,0,1,1.107-.436,5.053,5.053,0,0,1,1.342-.188A5.006,5.006,0,0,1,11.5,13.279,6.066,6.066,0,0,1,12.867,17.5a6.055,6.055,0,0,1-.732,2.971,5.034,5.034,0,0,1-2.057,2.045,6.493,6.493,0,0,1-3.129.715,6.987,6.987,0,0,1-3.012-.662,5.4,5.4,0,0,1-2.2-1.815,4.41,4.41,0,0,1-.785-2.605H4.91a2.24,2.24,0,0,0,.6,1.485,1.9,1.9,0,0,0,1.418.55q1.992,0,1.992-2.947,0-2.725-2.437-2.725a2.432,2.432,0,0,0-2.062.889Z" transform="translate(4506.806 -5728.417)" fill="#fff"/>
    <path id="Trazado_705508" data-name="Trazado 705508" d="M-62.261,0h-2.222V-9.242h2.222Zm3.415-6.868.07.806A2.329,2.329,0,0,1-56.815-7a1.96,1.96,0,0,1,1.6.641,3.052,3.052,0,0,1,.549,1.93V0h-2.146V-4.335a1.159,1.159,0,0,0-.209-.765.969.969,0,0,0-.762-.244,1.02,1.02,0,0,0-.933.5V0h-2.139V-6.868Zm8.106,4.323,1.085-4.323H-47.4L-49.642,0h-2.184l-2.241-6.868h2.26Zm3.612-.952a4.054,4.054,0,0,1,.4-1.831,2.86,2.86,0,0,1,1.149-1.235A3.46,3.46,0,0,1-43.821-7a3.158,3.158,0,0,1,2.431.955,3.666,3.666,0,0,1,.889,2.6v.076a3.557,3.557,0,0,1-.892,2.549,3.166,3.166,0,0,1-2.415.943,3.2,3.2,0,0,1-2.355-.879,3.439,3.439,0,0,1-.958-2.384Zm2.139.133a2.556,2.556,0,0,0,.3,1.4.994.994,0,0,0,.882.444q1.143,0,1.168-1.758V-3.5q0-1.847-1.181-1.847-1.073,0-1.162,1.593ZM-37.3,0h-2.146V-9.75H-37.3Zm5.408-.743a2.205,2.205,0,0,1-1.834.87A2.163,2.163,0,0,1-35.439-.53a2.763,2.763,0,0,1-.581-1.888v-4.45h2.139v4.462a.769.769,0,0,0,.857.882,1.118,1.118,0,0,0,1.047-.527V-6.868h2.152V0H-31.83Zm6.145-.781a.951.951,0,0,0,.7-.244.9.9,0,0,0,.241-.682H-22.8A2.375,2.375,0,0,1-23.613-.6,3.01,3.01,0,0,1-25.7.127,3.048,3.048,0,0,1-28.06-.812a3.7,3.7,0,0,1-.863-2.6V-3.5a4.183,4.183,0,0,1,.384-1.838,2.8,2.8,0,0,1,1.108-1.225A3.3,3.3,0,0,1-25.718-7a2.972,2.972,0,0,1,2.126.743A2.634,2.634,0,0,1-22.8-4.24H-24.81a1.174,1.174,0,0,0-.26-.819.9.9,0,0,0-.7-.286q-.832,0-.971,1.06a7.48,7.48,0,0,0-.044.927,2.938,2.938,0,0,0,.248,1.435A.857.857,0,0,0-25.749-1.523Zm8-3.409-.7-.051a1.266,1.266,0,0,0-1.295.635V0h-2.139V-6.868h2.006l.07.882A1.656,1.656,0,0,1-18.3-7a2.086,2.086,0,0,1,.6.076ZM-13.3,0a2.415,2.415,0,0,1-.2-.616,1.989,1.989,0,0,1-1.65.743A2.437,2.437,0,0,1-16.8-.46a1.869,1.869,0,0,1-.679-1.476,1.921,1.921,0,0,1,.825-1.688,4.2,4.2,0,0,1,2.4-.571h.66v-.364q0-.95-.819-.95a.669.669,0,0,0-.762.753h-2.139a1.918,1.918,0,0,1,.847-1.617A3.561,3.561,0,0,1-14.3-7a3.122,3.122,0,0,1,2.076.641A2.229,2.229,0,0,1-11.448-4.6v3.041a3.114,3.114,0,0,0,.292,1.447V0Zm-1.339-1.4a1.193,1.193,0,0,0,.663-.171,1.074,1.074,0,0,0,.378-.387v-1.1h-.622q-1.117,0-1.117,1a.612.612,0,0,0,.2.473A.712.712,0,0,0-14.635-1.4ZM-6.11-4.932l-.7-.051a1.266,1.266,0,0,0-1.295.635V0h-2.139V-6.868h2.006l.07.882A1.656,1.656,0,0,1-6.668-7a2.086,2.086,0,0,1,.6.076ZM1.768,0a2.415,2.415,0,0,1-.2-.616A1.989,1.989,0,0,1-.086.127,2.437,2.437,0,0,1-1.736-.46a1.869,1.869,0,0,1-.679-1.476A1.921,1.921,0,0,1-1.59-3.625,4.2,4.2,0,0,1,.809-4.2h.66v-.364q0-.95-.819-.95a.669.669,0,0,0-.762.753H-2.25A1.918,1.918,0,0,1-1.4-6.374,3.561,3.561,0,0,1,.759-7a3.122,3.122,0,0,1,2.076.641A2.229,2.229,0,0,1,3.615-4.6v3.041A3.114,3.114,0,0,0,3.907-.108V0ZM.428-1.4a1.193,1.193,0,0,0,.663-.171,1.074,1.074,0,0,0,.378-.387v-1.1H.847q-1.117,0-1.117,1a.612.612,0,0,0,.2.473A.712.712,0,0,0,.428-1.4ZM7.055,0H4.91V-9.75H7.055ZM17.986-3.383a4.142,4.142,0,0,1-.72,2.555A2.31,2.31,0,0,1,15.32.127a1.98,1.98,0,0,1-1.555-.692V2.641H11.626V-6.868h2l.063.635A1.98,1.98,0,0,1,15.307-7a2.329,2.329,0,0,1,1.974.936,4.193,4.193,0,0,1,.7,2.574Zm-2.139-.133q0-1.828-1.066-1.828a1.007,1.007,0,0,0-1.016.546v2.7a1.039,1.039,0,0,0,1.028.571q1.022,0,1.054-1.765Zm6.4,3.644a3.531,3.531,0,0,1-2.558-.943,3.255,3.255,0,0,1-.978-2.453v-.178a4.218,4.218,0,0,1,.39-1.86,2.857,2.857,0,0,1,1.139-1.247A3.44,3.44,0,0,1,22.023-7a2.973,2.973,0,0,1,2.285.9,3.53,3.53,0,0,1,.838,2.5v.832H20.893a1.542,1.542,0,0,0,.5.908,1.492,1.492,0,0,0,1,.33,1.923,1.923,0,0,0,1.587-.711l.978,1.155A2.733,2.733,0,0,1,23.829-.2,3.829,3.829,0,0,1,22.252.127ZM22.01-5.345q-.939,0-1.117,1.244h2.158v-.165a1.06,1.06,0,0,0-.26-.8A1.036,1.036,0,0,0,22.01-5.345Zm8.15.413-.7-.051a1.266,1.266,0,0,0-1.295.635V0H26.022V-6.868h2.006l.07.882A1.656,1.656,0,0,1,29.6-7a2.086,2.086,0,0,1,.6.076Zm4.367,3a.494.494,0,0,0-.286-.438,4.345,4.345,0,0,0-1.085-.343,4.95,4.95,0,0,1-1.32-.467,2.212,2.212,0,0,1-.793-.7,1.675,1.675,0,0,1-.273-.946,1.9,1.9,0,0,1,.781-1.558A3.216,3.216,0,0,1,33.595-7a3.563,3.563,0,0,1,2.184.616A1.925,1.925,0,0,1,36.6-4.761H34.458q0-.825-.87-.825a.862.862,0,0,0-.565.187.58.58,0,0,0-.229.467.532.532,0,0,0,.279.463,2.639,2.639,0,0,0,.892.292,7.707,7.707,0,0,1,1.076.273,1.955,1.955,0,0,1,1.549,1.911,1.8,1.8,0,0,1-.835,1.53,3.66,3.66,0,0,1-2.161.59A3.735,3.735,0,0,1,32.021-.19a2.632,2.632,0,0,1-1.079-.863A1.955,1.955,0,0,1,30.554-2.2h2a.827.827,0,0,0,.317.7,1.306,1.306,0,0,0,.781.219,1.027,1.027,0,0,0,.657-.178A.569.569,0,0,0,34.528-1.93ZM37.321-3.5a4.054,4.054,0,0,1,.4-1.831A2.86,2.86,0,0,1,38.87-6.563,3.46,3.46,0,0,1,40.628-7a3.158,3.158,0,0,1,2.431.955,3.666,3.666,0,0,1,.889,2.6v.076a3.557,3.557,0,0,1-.892,2.549,3.166,3.166,0,0,1-2.415.943,3.2,3.2,0,0,1-2.355-.879,3.439,3.439,0,0,1-.958-2.384Zm2.139.133a2.556,2.556,0,0,0,.3,1.4.994.994,0,0,0,.882.444q1.143,0,1.168-1.758V-3.5q0-1.847-1.181-1.847-1.073,0-1.162,1.593Zm7.4-3.5.07.806A2.329,2.329,0,0,1,48.886-7a1.96,1.96,0,0,1,1.6.641,3.052,3.052,0,0,1,.549,1.93V0H48.893V-4.335a1.159,1.159,0,0,0-.209-.765.969.969,0,0,0-.762-.244,1.02,1.02,0,0,0-.933.5V0H44.849V-6.868ZM56.091,0a2.415,2.415,0,0,1-.2-.616,1.989,1.989,0,0,1-1.65.743,2.437,2.437,0,0,1-1.65-.587,1.869,1.869,0,0,1-.679-1.476,1.921,1.921,0,0,1,.825-1.688,4.2,4.2,0,0,1,2.4-.571h.66v-.364q0-.95-.819-.95a.669.669,0,0,0-.762.753H52.073a1.918,1.918,0,0,1,.847-1.617A3.561,3.561,0,0,1,55.082-7a3.122,3.122,0,0,1,2.076.641A2.229,2.229,0,0,1,57.938-4.6v3.041A3.114,3.114,0,0,0,58.23-.108V0ZM54.752-1.4a1.193,1.193,0,0,0,.663-.171,1.074,1.074,0,0,0,.378-.387v-1.1h-.622q-1.117,0-1.117,1a.612.612,0,0,0,.2.473A.712.712,0,0,0,54.752-1.4ZM61.379,0H59.233V-9.75h2.146ZM-40.857,12.515a4.2,4.2,0,0,1,.7-2.571A2.319,2.319,0,0,1-38.184,9a1.972,1.972,0,0,1,1.549.724V6.25h2.146V16h-1.923l-.108-.736a2.026,2.026,0,0,1-1.676.863,2.315,2.315,0,0,1-1.942-.939A4.329,4.329,0,0,1-40.857,12.515Zm2.139.133q0,1.828,1.066,1.828a1.053,1.053,0,0,0,1.016-.6V11.265a1.025,1.025,0,0,0-1-.609q-.99,0-1.073,1.6Zm8.766,3.479a3.531,3.531,0,0,1-2.558-.943,3.255,3.255,0,0,1-.978-2.453v-.178a4.218,4.218,0,0,1,.39-1.86,2.857,2.857,0,0,1,1.139-1.247A3.44,3.44,0,0,1-30.18,9a2.973,2.973,0,0,1,2.285.9,3.53,3.53,0,0,1,.838,2.5v.832H-31.31a1.542,1.542,0,0,0,.5.908,1.492,1.492,0,0,0,1,.33,1.923,1.923,0,0,0,1.587-.711l.978,1.155a2.733,2.733,0,0,1-1.133.879A3.829,3.829,0,0,1-29.951,16.127Zm-.241-5.472q-.939,0-1.117,1.244h2.158v-.165a1.06,1.06,0,0,0-.26-.8A1.036,1.036,0,0,0-30.193,10.655ZM-20.7,16h-2.146V6.25H-20.7Zm5.186,0a2.415,2.415,0,0,1-.2-.616,1.989,1.989,0,0,1-1.65.743,2.437,2.437,0,0,1-1.65-.587,1.869,1.869,0,0,1-.679-1.476,1.921,1.921,0,0,1,.825-1.688,4.2,4.2,0,0,1,2.4-.571h.66v-.364q0-.95-.819-.95a.669.669,0,0,0-.762.753h-2.139a1.918,1.918,0,0,1,.847-1.617A3.561,3.561,0,0,1-16.526,9a3.122,3.122,0,0,1,2.076.641A2.229,2.229,0,0,1-13.67,11.4v3.041a3.114,3.114,0,0,0,.292,1.447V16Zm-1.339-1.4a1.193,1.193,0,0,0,.663-.171,1.074,1.074,0,0,0,.378-.387v-1.1h-.622q-1.117,0-1.117,1a.612.612,0,0,0,.2.473A.712.712,0,0,0-16.856,14.6Zm10.931,1.523a3.531,3.531,0,0,1-2.558-.943,3.255,3.255,0,0,1-.978-2.453v-.178a4.218,4.218,0,0,1,.39-1.86A2.857,2.857,0,0,1-7.931,9.446,3.44,3.44,0,0,1-6.154,9a2.973,2.973,0,0,1,2.285.9,3.53,3.53,0,0,1,.838,2.5v.832H-7.284a1.542,1.542,0,0,0,.5.908,1.492,1.492,0,0,0,1,.33,1.923,1.923,0,0,0,1.587-.711l.978,1.155a2.733,2.733,0,0,1-1.133.879A3.829,3.829,0,0,1-5.926,16.127Zm-.241-5.472q-.939,0-1.117,1.244h2.158v-.165a1.06,1.06,0,0,0-.26-.8A1.036,1.036,0,0,0-6.167,10.655ZM-.149,9.132l.07.806A2.362,2.362,0,0,1,1.882,9,1.739,1.739,0,0,1,3.64,10.04,2.286,2.286,0,0,1,5.659,9Q7.747,9,7.8,11.531V16H5.659V11.665a1.309,1.309,0,0,0-.178-.768.757.757,0,0,0-.647-.241,1.014,1.014,0,0,0-.946.565l.006.089V16H1.749V11.677a1.376,1.376,0,0,0-.171-.781.754.754,0,0,0-.654-.241,1.026,1.026,0,0,0-.939.565V16H-2.155V9.132ZM15.4,12.617a4.142,4.142,0,0,1-.72,2.555,2.31,2.31,0,0,1-1.946.955,1.98,1.98,0,0,1-1.555-.692v3.206H9.042V9.132h2l.063.635A1.98,1.98,0,0,1,12.724,9a2.329,2.329,0,0,1,1.974.936,4.193,4.193,0,0,1,.7,2.574Zm-2.139-.133q0-1.828-1.066-1.828a1.007,1.007,0,0,0-1.016.546v2.7a1.039,1.039,0,0,0,1.028.571q1.022,0,1.054-1.765ZM20.5,11.068l-.7-.051a1.266,1.266,0,0,0-1.295.635V16H16.361V9.132h2.006l.07.882A1.656,1.656,0,0,1,19.941,9a2.086,2.086,0,0,1,.6.076Zm3.974,5.059a3.531,3.531,0,0,1-2.558-.943,3.255,3.255,0,0,1-.978-2.453v-.178a4.218,4.218,0,0,1,.39-1.86,2.857,2.857,0,0,1,1.139-1.247A3.44,3.44,0,0,1,24.245,9a2.973,2.973,0,0,1,2.285.9,3.53,3.53,0,0,1,.838,2.5v.832H23.115a1.542,1.542,0,0,0,.5.908,1.492,1.492,0,0,0,1,.33,1.923,1.923,0,0,0,1.587-.711l.978,1.155a2.733,2.733,0,0,1-1.133.879A3.829,3.829,0,0,1,24.473,16.127Zm-.241-5.472q-.939,0-1.117,1.244h2.158v-.165a1.06,1.06,0,0,0-.26-.8A1.036,1.036,0,0,0,24.232,10.655Zm7.592,3.415a.494.494,0,0,0-.286-.438,4.345,4.345,0,0,0-1.085-.343,4.95,4.95,0,0,1-1.32-.467,2.212,2.212,0,0,1-.793-.7,1.675,1.675,0,0,1-.273-.946,1.9,1.9,0,0,1,.781-1.558A3.216,3.216,0,0,1,30.891,9a3.563,3.563,0,0,1,2.184.616,1.925,1.925,0,0,1,.825,1.619H31.754q0-.825-.87-.825a.862.862,0,0,0-.565.187.58.58,0,0,0-.229.467.532.532,0,0,0,.279.463,2.639,2.639,0,0,0,.892.292,7.707,7.707,0,0,1,1.076.273,1.955,1.955,0,0,1,1.549,1.911,1.8,1.8,0,0,1-.835,1.53,3.66,3.66,0,0,1-2.161.59,3.735,3.735,0,0,1-1.574-.317,2.632,2.632,0,0,1-1.079-.863A1.955,1.955,0,0,1,27.85,13.8h2a.827.827,0,0,0,.317.7,1.306,1.306,0,0,0,.781.219,1.027,1.027,0,0,0,.657-.178A.569.569,0,0,0,31.824,14.07ZM38.756,16a2.415,2.415,0,0,1-.2-.616,1.989,1.989,0,0,1-1.65.743,2.437,2.437,0,0,1-1.65-.587,1.869,1.869,0,0,1-.679-1.476,1.921,1.921,0,0,1,.825-1.688,4.2,4.2,0,0,1,2.4-.571h.66v-.364q0-.95-.819-.95a.669.669,0,0,0-.762.753H34.738a1.918,1.918,0,0,1,.847-1.617A3.561,3.561,0,0,1,37.746,9a3.122,3.122,0,0,1,2.076.641A2.229,2.229,0,0,1,40.6,11.4v3.041a3.114,3.114,0,0,0,.292,1.447V16Zm-1.339-1.4a1.193,1.193,0,0,0,.663-.171,1.074,1.074,0,0,0,.378-.387v-1.1h-.622q-1.117,0-1.117,1a.612.612,0,0,0,.2.473A.712.712,0,0,0,37.416,14.6Z" transform="translate(4589.146 -5741.02)" fill="#12263f"/>
    <path id="Polígono_170" data-name="Polígono 170" d="M9.195,0,18.39,14.032H0Z" transform="translate(4505.983 -5725.546) rotate(90)" fill="#06d1d1"/>
    <path id="Trazado_705293" data-name="Trazado 705293" d="M213.941,50.84,189.283,0H23.057L0,50.84" transform="translate(4946.225 -5662.643) rotate(180)" fill="#f5e4d0" stroke="#06d1d1" stroke-width="3"/>
    <path id="Trazado_99075-6" data-name="Trazado 99075" d="M21.233,0A21.233,21.233,0,1,1,0,21.233,21.233,21.233,0,0,1,21.233,0Z" transform="translate(4713.559 -5735.063)" fill="#b20d0d"/>
    <path id="Trazado_705509" data-name="Trazado 705509" d="M10.582,5.691V8.8h-.176A5.929,5.929,0,0,0,6.768,9.857,4.478,4.478,0,0,0,5.016,12.8a4.618,4.618,0,0,1,3.375-1.312,4.308,4.308,0,0,1,3.527,1.617,6.523,6.523,0,0,1,1.313,4.242,5.973,5.973,0,0,1-.768,2.988,5.477,5.477,0,0,1-2.145,2.127,6.162,6.162,0,0,1-3.053.768,6.369,6.369,0,0,1-3.246-.826,5.68,5.68,0,0,1-2.227-2.361,7.776,7.776,0,0,1-.82-3.539V14.926A9.85,9.85,0,0,1,2.1,10.186a8.2,8.2,0,0,1,3.229-3.3,9.231,9.231,0,0,1,4.652-1.2ZM7.02,14.516a2.26,2.26,0,0,0-1.312.363,2.306,2.306,0,0,0-.785.891v1.184q0,3.234,2.238,3.234a1.816,1.816,0,0,0,1.506-.809,3.3,3.3,0,0,0,.6-2.027,3.235,3.235,0,0,0-.615-2.045A1.968,1.968,0,0,0,7.02,14.516Z" transform="translate(4723.381 -5726.077)" fill="#fff"/>
    <path id="Trazado_705510" data-name="Trazado 705510" d="M-65.587-3.269h-1.206V0h-2.228V-9.242h3.637a4.06,4.06,0,0,1,2.571.729,2.471,2.471,0,0,1,.927,2.061,3,3,0,0,1-.39,1.6A2.771,2.771,0,0,1-63.5-3.827L-61.569-.1V0h-2.387Zm-1.206-1.714h1.409a1.265,1.265,0,0,0,.955-.334,1.292,1.292,0,0,0,.321-.932,1.307,1.307,0,0,0-.324-.939,1.253,1.253,0,0,0-.952-.34h-1.409Zm9.477,5.11a3.531,3.531,0,0,1-2.558-.943,3.255,3.255,0,0,1-.978-2.453v-.178a4.218,4.218,0,0,1,.39-1.86,2.857,2.857,0,0,1,1.139-1.247A3.44,3.44,0,0,1-57.545-7a2.973,2.973,0,0,1,2.285.9,3.53,3.53,0,0,1,.838,2.5v.832h-4.253a1.542,1.542,0,0,0,.5.908,1.492,1.492,0,0,0,1,.33,1.923,1.923,0,0,0,1.587-.711l.978,1.155A2.733,2.733,0,0,1-55.739-.2,3.829,3.829,0,0,1-57.316.127Zm-.241-5.472q-.939,0-1.117,1.244h2.158v-.165a1.06,1.06,0,0,0-.26-.8A1.036,1.036,0,0,0-57.557-5.345ZM-49.693,0a2.415,2.415,0,0,1-.2-.616,1.989,1.989,0,0,1-1.65.743A2.437,2.437,0,0,1-53.2-.46a1.869,1.869,0,0,1-.679-1.476,1.921,1.921,0,0,1,.825-1.688,4.2,4.2,0,0,1,2.4-.571h.66v-.364q0-.95-.819-.95a.669.669,0,0,0-.762.753h-2.139a1.918,1.918,0,0,1,.847-1.617A3.561,3.561,0,0,1-50.7-7a3.122,3.122,0,0,1,2.076.641A2.229,2.229,0,0,1-47.845-4.6v3.041a3.114,3.114,0,0,0,.292,1.447V0Zm-1.339-1.4a1.193,1.193,0,0,0,.663-.171,1.074,1.074,0,0,0,.378-.387v-1.1h-.622q-1.117,0-1.117,1a.612.612,0,0,0,.2.473A.712.712,0,0,0-51.032-1.4ZM-44.405,0h-2.146V-9.75h2.146Zm3.574,0h-2.146V-6.868h2.146ZM-43.1-8.639a.955.955,0,0,1,.33-.749,1.245,1.245,0,0,1,.857-.292,1.245,1.245,0,0,1,.857.292.955.955,0,0,1,.33.749.955.955,0,0,1-.33.749,1.245,1.245,0,0,1-.857.292,1.245,1.245,0,0,1-.857-.292A.955.955,0,0,1-43.1-8.639Zm6.113,6.989h3.129V0H-39.7V-1.193l3.047-4.024h-2.914v-1.65h5.63v1.155ZM-28.955,0a2.415,2.415,0,0,1-.2-.616,1.989,1.989,0,0,1-1.65.743,2.437,2.437,0,0,1-1.65-.587,1.869,1.869,0,0,1-.679-1.476,1.921,1.921,0,0,1,.825-1.688,4.2,4.2,0,0,1,2.4-.571h.66v-.364q0-.95-.819-.95a.669.669,0,0,0-.762.753h-2.139a1.918,1.918,0,0,1,.847-1.617A3.561,3.561,0,0,1-29.964-7a3.122,3.122,0,0,1,2.076.641A2.229,2.229,0,0,1-27.108-4.6v3.041a3.114,3.114,0,0,0,.292,1.447V0Zm-1.339-1.4a1.193,1.193,0,0,0,.663-.171,1.074,1.074,0,0,0,.378-.387v-1.1h-.622q-1.117,0-1.117,1a.612.612,0,0,0,.2.473A.712.712,0,0,0-30.294-1.4Zm8.525-3.536-.7-.051a1.266,1.266,0,0,0-1.295.635V0h-2.139V-6.868H-23.9l.07.882A1.656,1.656,0,0,1-22.328-7a2.086,2.086,0,0,1,.6.076Zm8.1,4.189A2.205,2.205,0,0,1-15.5.127,2.163,2.163,0,0,1-17.215-.53,2.763,2.763,0,0,1-17.8-2.418v-4.45h2.139v4.462a.769.769,0,0,0,.857.882,1.118,1.118,0,0,0,1.047-.527V-6.868H-11.6V0h-2.006Zm5.205-6.125.07.806A2.329,2.329,0,0,1-6.433-7a1.96,1.96,0,0,1,1.6.641,3.052,3.052,0,0,1,.549,1.93V0H-6.427V-4.335A1.159,1.159,0,0,0-6.636-5.1.969.969,0,0,0-7.4-5.345a1.02,1.02,0,0,0-.933.5V0H-10.47V-6.868ZM.771,0a2.415,2.415,0,0,1-.2-.616,1.989,1.989,0,0,1-1.65.743A2.437,2.437,0,0,1-2.733-.46a1.869,1.869,0,0,1-.679-1.476,1.921,1.921,0,0,1,.825-1.688A4.2,4.2,0,0,1-.187-4.2h.66v-.364q0-.95-.819-.95a.669.669,0,0,0-.762.753H-3.247A1.918,1.918,0,0,1-2.4-6.374,3.561,3.561,0,0,1-.238-7a3.122,3.122,0,0,1,2.076.641A2.229,2.229,0,0,1,2.618-4.6v3.041A3.114,3.114,0,0,0,2.91-.108V0ZM-.568-1.4A1.193,1.193,0,0,0,.1-1.568a1.074,1.074,0,0,0,.378-.387v-1.1H-.149q-1.117,0-1.117,1a.612.612,0,0,0,.2.473A.712.712,0,0,0-.568-1.4ZM10.363.127A3.531,3.531,0,0,1,7.8-.816a3.255,3.255,0,0,1-.978-2.453v-.178a4.218,4.218,0,0,1,.39-1.86A2.857,2.857,0,0,1,8.357-6.554,3.44,3.44,0,0,1,10.134-7a2.973,2.973,0,0,1,2.285.9,3.53,3.53,0,0,1,.838,2.5v.832H9a1.542,1.542,0,0,0,.5.908,1.492,1.492,0,0,0,1,.33A1.923,1.923,0,0,0,12.1-2.234l.978,1.155A2.733,2.733,0,0,1,11.94-.2,3.829,3.829,0,0,1,10.363.127Zm-.241-5.472Q9.182-5.345,9-4.1h2.158v-.165a1.06,1.06,0,0,0-.26-.8A1.036,1.036,0,0,0,10.121-5.345Zm6.652,2.8,1.085-4.323h2.253L17.872,0H15.688L13.448-6.868h2.26ZM24.524,0a2.415,2.415,0,0,1-.2-.616,1.989,1.989,0,0,1-1.65.743A2.437,2.437,0,0,1,21.02-.46a1.869,1.869,0,0,1-.679-1.476,1.921,1.921,0,0,1,.825-1.688,4.2,4.2,0,0,1,2.4-.571h.66v-.364q0-.95-.819-.95a.669.669,0,0,0-.762.753H20.506a1.918,1.918,0,0,1,.847-1.617A3.561,3.561,0,0,1,23.515-7a3.122,3.122,0,0,1,2.076.641A2.229,2.229,0,0,1,26.371-4.6v3.041a3.114,3.114,0,0,0,.292,1.447V0ZM23.185-1.4a1.193,1.193,0,0,0,.663-.171,1.074,1.074,0,0,0,.378-.387v-1.1H23.6q-1.117,0-1.117,1a.612.612,0,0,0,.2.473A.712.712,0,0,0,23.185-1.4ZM29.812,0H27.666V-9.75h2.146ZM35.22-.743a2.205,2.205,0,0,1-1.834.87A2.163,2.163,0,0,1,31.675-.53a2.763,2.763,0,0,1-.581-1.888v-4.45h2.139v4.462a.769.769,0,0,0,.857.882,1.118,1.118,0,0,0,1.047-.527V-6.868h2.152V0H35.283ZM42.329,0a2.415,2.415,0,0,1-.2-.616,1.989,1.989,0,0,1-1.65.743,2.437,2.437,0,0,1-1.65-.587,1.869,1.869,0,0,1-.679-1.476,1.921,1.921,0,0,1,.825-1.688,4.2,4.2,0,0,1,2.4-.571h.66v-.364q0-.95-.819-.95a.669.669,0,0,0-.762.753H38.311a1.918,1.918,0,0,1,.847-1.617A3.561,3.561,0,0,1,41.32-7a3.122,3.122,0,0,1,2.076.641A2.229,2.229,0,0,1,44.177-4.6v3.041a3.114,3.114,0,0,0,.292,1.447V0ZM40.99-1.4a1.193,1.193,0,0,0,.663-.171,1.074,1.074,0,0,0,.378-.387v-1.1h-.622q-1.117,0-1.117,1a.612.612,0,0,0,.2.473A.712.712,0,0,0,40.99-1.4Zm7.274-.127a.951.951,0,0,0,.7-.244A.9.9,0,0,0,49.2-2.45H51.21A2.375,2.375,0,0,1,50.4-.6a3.01,3.01,0,0,1-2.085.724,3.048,3.048,0,0,1-2.361-.939,3.7,3.7,0,0,1-.863-2.6V-3.5a4.183,4.183,0,0,1,.384-1.838,2.8,2.8,0,0,1,1.108-1.225A3.3,3.3,0,0,1,48.3-7a2.972,2.972,0,0,1,2.126.743A2.634,2.634,0,0,1,51.21-4.24H49.2a1.174,1.174,0,0,0-.26-.819.9.9,0,0,0-.7-.286q-.832,0-.971,1.06a7.48,7.48,0,0,0-.044.927,2.938,2.938,0,0,0,.248,1.435A.857.857,0,0,0,48.264-1.523ZM54.371,0H52.225V-6.868h2.146ZM52.1-8.639a.955.955,0,0,1,.33-.749,1.245,1.245,0,0,1,.857-.292,1.245,1.245,0,0,1,.857.292.955.955,0,0,1,.33.749.955.955,0,0,1-.33.749,1.245,1.245,0,0,1-.857.292,1.245,1.245,0,0,1-.857-.292A.955.955,0,0,1,52.1-8.639ZM55.418-3.5a4.054,4.054,0,0,1,.4-1.831,2.86,2.86,0,0,1,1.149-1.235A3.46,3.46,0,0,1,58.725-7a3.158,3.158,0,0,1,2.431.955,3.666,3.666,0,0,1,.889,2.6v.076a3.557,3.557,0,0,1-.892,2.549,3.166,3.166,0,0,1-2.415.943,3.2,3.2,0,0,1-2.355-.879,3.439,3.439,0,0,1-.958-2.384Zm2.139.133a2.556,2.556,0,0,0,.3,1.4.994.994,0,0,0,.882.444q1.143,0,1.168-1.758V-3.5q0-1.847-1.181-1.847-1.073,0-1.162,1.593Zm1.46-6.386h2.26L59.512-7.757l-1.746,0Zm5.935,2.882.07.806A2.329,2.329,0,0,1,66.984-7a1.96,1.96,0,0,1,1.6.641,3.052,3.052,0,0,1,.549,1.93V0H66.99V-4.335a1.159,1.159,0,0,0-.209-.765.969.969,0,0,0-.762-.244,1.02,1.02,0,0,0-.933.5V0H62.947V-6.868ZM-18.773,12.617a4.142,4.142,0,0,1-.72,2.555,2.31,2.31,0,0,1-1.946.955,1.98,1.98,0,0,1-1.555-.692v3.206h-2.139V9.132h2l.063.635A1.98,1.98,0,0,1-21.452,9a2.329,2.329,0,0,1,1.974.936,4.193,4.193,0,0,1,.7,2.574Zm-2.139-.133q0-1.828-1.066-1.828a1.007,1.007,0,0,0-1.016.546v2.7a1.039,1.039,0,0,0,1.028.571q1.022,0,1.054-1.765Zm6.4,3.644a3.531,3.531,0,0,1-2.558-.943,3.255,3.255,0,0,1-.978-2.453v-.178a4.218,4.218,0,0,1,.39-1.86,2.857,2.857,0,0,1,1.139-1.247A3.44,3.44,0,0,1-14.736,9a2.973,2.973,0,0,1,2.285.9,3.53,3.53,0,0,1,.838,2.5v.832h-4.253a1.542,1.542,0,0,0,.5.908,1.492,1.492,0,0,0,1,.33,1.923,1.923,0,0,0,1.587-.711l.978,1.155a2.733,2.733,0,0,1-1.133.879A3.829,3.829,0,0,1-14.508,16.127Zm-.241-5.472q-.939,0-1.117,1.244h2.158v-.165a1.06,1.06,0,0,0-.26-.8A1.036,1.036,0,0,0-14.749,10.655Zm8.15.413-.7-.051a1.266,1.266,0,0,0-1.295.635V16h-2.139V9.132h2.006l.07.882A1.656,1.656,0,0,1-7.157,9a2.086,2.086,0,0,1,.6.076ZM-3.571,16H-5.716V9.132h2.146ZM-5.843,7.361a.955.955,0,0,1,.33-.749,1.245,1.245,0,0,1,.857-.292,1.245,1.245,0,0,1,.857.292.955.955,0,0,1,.33.749.955.955,0,0,1-.33.749,1.245,1.245,0,0,1-.857.292,1.245,1.245,0,0,1-.857-.292A.955.955,0,0,1-5.843,7.361Zm3.32,5.142a4.054,4.054,0,0,1,.4-1.831A2.86,2.86,0,0,1-.974,9.437,3.46,3.46,0,0,1,.784,9a3.158,3.158,0,0,1,2.431.955,3.666,3.666,0,0,1,.889,2.6v.076a3.557,3.557,0,0,1-.892,2.549A3.166,3.166,0,0,1,.8,16.127a3.2,3.2,0,0,1-2.355-.879,3.439,3.439,0,0,1-.958-2.384Zm2.139.133a2.556,2.556,0,0,0,.3,1.4.994.994,0,0,0,.882.444q1.143,0,1.168-1.758V12.5q0-1.847-1.181-1.847-1.073,0-1.162,1.593ZM1.076,6.25h2.26L1.571,8.243l-1.746,0Zm3.7,6.265a4.2,4.2,0,0,1,.7-2.571A2.319,2.319,0,0,1,7.449,9,1.972,1.972,0,0,1,9,9.729V6.25h2.146V16H9.22l-.108-.736a2.026,2.026,0,0,1-1.676.863,2.315,2.315,0,0,1-1.942-.939A4.329,4.329,0,0,1,4.777,12.515Zm2.139.133q0,1.828,1.066,1.828A1.053,1.053,0,0,0,9,13.88V11.265a1.025,1.025,0,0,0-1-.609q-.99,0-1.073,1.6ZM14.615,16H12.47V9.132h2.146ZM12.343,7.361a.955.955,0,0,1,.33-.749,1.4,1.4,0,0,1,1.714,0,1.015,1.015,0,0,1,0,1.5,1.4,1.4,0,0,1-1.714,0A.955.955,0,0,1,12.343,7.361Zm6.494,7.116a.951.951,0,0,0,.7-.244.9.9,0,0,0,.241-.682h2.006a2.375,2.375,0,0,1-.809,1.854,3.01,3.01,0,0,1-2.085.724,3.048,3.048,0,0,1-2.361-.939,3.7,3.7,0,0,1-.863-2.6V12.5a4.183,4.183,0,0,1,.384-1.838,2.8,2.8,0,0,1,1.108-1.225A3.3,3.3,0,0,1,18.868,9a2.972,2.972,0,0,1,2.126.743,2.634,2.634,0,0,1,.787,2.012H19.776a1.174,1.174,0,0,0-.26-.819.9.9,0,0,0-.7-.286q-.832,0-.971,1.06a7.48,7.48,0,0,0-.044.927,2.938,2.938,0,0,0,.248,1.435A.857.857,0,0,0,18.837,14.477ZM26.555,16a2.415,2.415,0,0,1-.2-.616,1.989,1.989,0,0,1-1.65.743,2.437,2.437,0,0,1-1.65-.587,1.869,1.869,0,0,1-.679-1.476,1.921,1.921,0,0,1,.825-1.688,4.2,4.2,0,0,1,2.4-.571h.66v-.364q0-.95-.819-.95a.669.669,0,0,0-.762.753H22.537a1.918,1.918,0,0,1,.847-1.617A3.561,3.561,0,0,1,25.546,9a3.122,3.122,0,0,1,2.076.641A2.229,2.229,0,0,1,28.4,11.4v3.041a3.114,3.114,0,0,0,.292,1.447V16Zm-1.339-1.4a1.193,1.193,0,0,0,.663-.171,1.074,1.074,0,0,0,.378-.387v-1.1h-.622q-1.117,0-1.117,1a.612.612,0,0,0,.2.473A.712.712,0,0,0,25.216,14.6Z" transform="translate(4834.079 -5691.966)" fill="#12263f"/>
    <path id="Polígono_173" data-name="Polígono 173" d="M9.195,0,18.39,14.032H0Z" transform="translate(4722.575 -5722.355) rotate(90)" fill="#06d1d1"/>
    <path id="Trazado_705294" data-name="Trazado 705294" d="M208.925,0,184.845,46.481H22.516L0,0" transform="translate(4946.225 -5604.45) rotate(180)" fill="#f5e4d0" stroke="#06d1d1" stroke-width="3"/>
    <path id="Trazado_99075-7" data-name="Trazado 99075" d="M21.233,0A21.233,21.233,0,1,1,0,21.233,21.233,21.233,0,0,1,21.233,0Z" transform="translate(4690.295 -5626.47)" fill="#b20d0d"/>
    <path id="Trazado_705512" data-name="Trazado 705512" d="M12.9,8.047,6.527,23H2.355L8.742,8.984H.609V5.938H12.9Z" transform="translate(4705.292 -5617.484)" fill="#fff"/>
    <path id="Trazado_705511" data-name="Trazado 705511" d="M-53.082-3.269h-1.206V0h-2.228V-9.242h3.637a4.06,4.06,0,0,1,2.571.729,2.471,2.471,0,0,1,.927,2.061,3,3,0,0,1-.39,1.6,2.771,2.771,0,0,1-1.222,1.027L-49.064-.1V0h-2.387Zm-1.206-1.714h1.409a1.265,1.265,0,0,0,.955-.334,1.292,1.292,0,0,0,.321-.932,1.307,1.307,0,0,0-.324-.939,1.253,1.253,0,0,0-.952-.34h-1.409Zm9.477,5.11a3.531,3.531,0,0,1-2.558-.943,3.255,3.255,0,0,1-.978-2.453v-.178a4.218,4.218,0,0,1,.39-1.86,2.857,2.857,0,0,1,1.139-1.247A3.44,3.44,0,0,1-45.04-7a2.973,2.973,0,0,1,2.285.9,3.53,3.53,0,0,1,.838,2.5v.832H-46.17a1.542,1.542,0,0,0,.5.908,1.492,1.492,0,0,0,1,.33,1.923,1.923,0,0,0,1.587-.711l.978,1.155A2.733,2.733,0,0,1-43.234-.2,3.829,3.829,0,0,1-44.811.127Zm-.241-5.472q-.939,0-1.117,1.244h2.158v-.165a1.06,1.06,0,0,0-.26-.8A1.036,1.036,0,0,0-45.052-5.345ZM-37.188,0a2.415,2.415,0,0,1-.2-.616,1.989,1.989,0,0,1-1.65.743,2.437,2.437,0,0,1-1.65-.587,1.869,1.869,0,0,1-.679-1.476,1.921,1.921,0,0,1,.825-1.688,4.2,4.2,0,0,1,2.4-.571h.66v-.364q0-.95-.819-.95a.669.669,0,0,0-.762.753h-2.139a1.918,1.918,0,0,1,.847-1.617A3.561,3.561,0,0,1-38.2-7a3.122,3.122,0,0,1,2.076.641A2.229,2.229,0,0,1-35.341-4.6v3.041a3.114,3.114,0,0,0,.292,1.447V0Zm-1.339-1.4a1.193,1.193,0,0,0,.663-.171,1.074,1.074,0,0,0,.378-.387v-1.1h-.622q-1.117,0-1.117,1a.612.612,0,0,0,.2.473A.712.712,0,0,0-38.527-1.4ZM-31.9,0h-2.146V-9.75H-31.9Zm3.574,0h-2.146V-6.868h2.146ZM-30.6-8.639a.955.955,0,0,1,.33-.749,1.245,1.245,0,0,1,.857-.292,1.245,1.245,0,0,1,.857.292.955.955,0,0,1,.33.749.955.955,0,0,1-.33.749,1.245,1.245,0,0,1-.857.292,1.245,1.245,0,0,1-.857-.292A.955.955,0,0,1-30.6-8.639Zm6.113,6.989h3.129V0H-27.19V-1.193l3.047-4.024h-2.914v-1.65h5.63v1.155ZM-16.45,0a2.415,2.415,0,0,1-.2-.616A1.989,1.989,0,0,1-18.3.127a2.437,2.437,0,0,1-1.65-.587,1.869,1.869,0,0,1-.679-1.476,1.921,1.921,0,0,1,.825-1.688,4.2,4.2,0,0,1,2.4-.571h.66v-.364q0-.95-.819-.95a.669.669,0,0,0-.762.753h-2.139a1.918,1.918,0,0,1,.847-1.617A3.561,3.561,0,0,1-17.459-7a3.122,3.122,0,0,1,2.076.641A2.229,2.229,0,0,1-14.6-4.6v3.041a3.114,3.114,0,0,0,.292,1.447V0Zm-1.339-1.4a1.193,1.193,0,0,0,.663-.171,1.074,1.074,0,0,0,.378-.387v-1.1h-.622q-1.117,0-1.117,1a.612.612,0,0,0,.2.473A.712.712,0,0,0-17.789-1.4Zm8.525-3.536-.7-.051a1.266,1.266,0,0,0-1.295.635V0H-13.4V-6.868H-11.4l.07.882A1.656,1.656,0,0,1-9.823-7a2.086,2.086,0,0,1,.6.076Zm8.1,4.189A2.205,2.205,0,0,1-3,.127,2.163,2.163,0,0,1-4.71-.53a2.763,2.763,0,0,1-.581-1.888v-4.45h2.139v4.462a.769.769,0,0,0,.857.882A1.118,1.118,0,0,0-1.247-2.05V-6.868H.9V0H-1.1ZM4.04-6.868l.07.806A2.329,2.329,0,0,1,6.072-7a1.96,1.96,0,0,1,1.6.641,3.052,3.052,0,0,1,.549,1.93V0H6.078V-4.335A1.159,1.159,0,0,0,5.868-5.1a.969.969,0,0,0-.762-.244,1.02,1.02,0,0,0-.933.5V0H2.034V-6.868ZM16.513,0a2.415,2.415,0,0,1-.2-.616,1.989,1.989,0,0,1-1.65.743A2.437,2.437,0,0,1,13.01-.46a1.869,1.869,0,0,1-.679-1.476,1.921,1.921,0,0,1,.825-1.688,4.2,4.2,0,0,1,2.4-.571h.66v-.364q0-.95-.819-.95a.669.669,0,0,0-.762.753H12.5a1.918,1.918,0,0,1,.847-1.617A3.561,3.561,0,0,1,15.5-7a3.122,3.122,0,0,1,2.076.641A2.229,2.229,0,0,1,18.361-4.6v3.041a3.114,3.114,0,0,0,.292,1.447V0ZM15.174-1.4a1.193,1.193,0,0,0,.663-.171,1.074,1.074,0,0,0,.378-.387v-1.1h-.622q-1.117,0-1.117,1a.612.612,0,0,0,.2.473A.712.712,0,0,0,15.174-1.4Zm6.335-5.472.07.806A2.329,2.329,0,0,1,23.54-7a1.96,1.96,0,0,1,1.6.641,3.052,3.052,0,0,1,.549,1.93V0H23.547V-4.335a1.159,1.159,0,0,0-.209-.765.969.969,0,0,0-.762-.244,1.02,1.02,0,0,0-.933.5V0H19.5V-6.868ZM30.745,0a2.415,2.415,0,0,1-.2-.616,1.989,1.989,0,0,1-1.65.743,2.437,2.437,0,0,1-1.65-.587,1.869,1.869,0,0,1-.679-1.476,1.921,1.921,0,0,1,.825-1.688,4.2,4.2,0,0,1,2.4-.571h.66v-.364q0-.95-.819-.95a.669.669,0,0,0-.762.753H26.727a1.918,1.918,0,0,1,.847-1.617A3.561,3.561,0,0,1,29.736-7a3.122,3.122,0,0,1,2.076.641A2.229,2.229,0,0,1,32.592-4.6v3.041a3.114,3.114,0,0,0,.292,1.447V0ZM29.406-1.4a1.193,1.193,0,0,0,.663-.171,1.074,1.074,0,0,0,.378-.387v-1.1h-.622q-1.117,0-1.117,1a.612.612,0,0,0,.2.473A.712.712,0,0,0,29.406-1.4Zm.533-8.354H32.2L30.434-7.757l-1.746,0ZM36.032,0H33.887V-9.75h2.146Zm3.574,0H37.461V-6.868h2.146ZM37.334-8.639a.955.955,0,0,1,.33-.749,1.245,1.245,0,0,1,.857-.292,1.245,1.245,0,0,1,.857.292.955.955,0,0,1,.33.749.955.955,0,0,1-.33.749,1.245,1.245,0,0,1-.857.292,1.245,1.245,0,0,1-.857-.292A.955.955,0,0,1,37.334-8.639ZM44.519-1.93a.494.494,0,0,0-.286-.438,4.345,4.345,0,0,0-1.085-.343,4.95,4.95,0,0,1-1.32-.467,2.212,2.212,0,0,1-.793-.7,1.675,1.675,0,0,1-.273-.946,1.9,1.9,0,0,1,.781-1.558A3.216,3.216,0,0,1,43.586-7a3.563,3.563,0,0,1,2.184.616,1.925,1.925,0,0,1,.825,1.619H44.449q0-.825-.87-.825a.862.862,0,0,0-.565.187.58.58,0,0,0-.229.467.532.532,0,0,0,.279.463,2.639,2.639,0,0,0,.892.292,7.707,7.707,0,0,1,1.076.273,1.955,1.955,0,0,1,1.549,1.911,1.8,1.8,0,0,1-.835,1.53,3.66,3.66,0,0,1-2.161.59A3.735,3.735,0,0,1,42.012-.19a2.632,2.632,0,0,1-1.079-.863A1.955,1.955,0,0,1,40.546-2.2h2a.827.827,0,0,0,.317.7,1.306,1.306,0,0,0,.781.219,1.027,1.027,0,0,0,.657-.178A.569.569,0,0,0,44.519-1.93ZM49.839,0H47.693V-6.868h2.146ZM47.566-8.639a.955.955,0,0,1,.33-.749,1.245,1.245,0,0,1,.857-.292,1.245,1.245,0,0,1,.857.292.955.955,0,0,1,.33.749.955.955,0,0,1-.33.749,1.245,1.245,0,0,1-.857.292A1.245,1.245,0,0,1,47.9-7.89.955.955,0,0,1,47.566-8.639ZM54.752-1.93a.494.494,0,0,0-.286-.438,4.345,4.345,0,0,0-1.085-.343,4.95,4.95,0,0,1-1.32-.467,2.212,2.212,0,0,1-.793-.7,1.675,1.675,0,0,1-.273-.946,1.9,1.9,0,0,1,.781-1.558A3.216,3.216,0,0,1,53.819-7,3.563,3.563,0,0,1,56-6.379a1.925,1.925,0,0,1,.825,1.619H54.682q0-.825-.87-.825a.862.862,0,0,0-.565.187.58.58,0,0,0-.229.467.532.532,0,0,0,.279.463,2.639,2.639,0,0,0,.892.292,7.707,7.707,0,0,1,1.076.273,1.955,1.955,0,0,1,1.549,1.911,1.8,1.8,0,0,1-.835,1.53,3.66,3.66,0,0,1-2.161.59A3.735,3.735,0,0,1,52.244-.19a2.632,2.632,0,0,1-1.079-.863A1.955,1.955,0,0,1,50.778-2.2h2a.827.827,0,0,0,.317.7,1.306,1.306,0,0,0,.781.219,1.027,1.027,0,0,0,.657-.178A.569.569,0,0,0,54.752-1.93ZM-37.905,12.515a4.2,4.2,0,0,1,.7-2.571A2.319,2.319,0,0,1-35.233,9a1.972,1.972,0,0,1,1.549.724V6.25h2.146V16h-1.923l-.108-.736a2.026,2.026,0,0,1-1.676.863,2.315,2.315,0,0,1-1.942-.939A4.329,4.329,0,0,1-37.905,12.515Zm2.139.133q0,1.828,1.066,1.828a1.053,1.053,0,0,0,1.016-.6V11.265a1.025,1.025,0,0,0-1-.609q-.99,0-1.073,1.6ZM-27,16.127a3.531,3.531,0,0,1-2.558-.943,3.255,3.255,0,0,1-.978-2.453v-.178a4.218,4.218,0,0,1,.39-1.86,2.857,2.857,0,0,1,1.139-1.247A3.44,3.44,0,0,1-27.228,9a2.973,2.973,0,0,1,2.285.9,3.53,3.53,0,0,1,.838,2.5v.832h-4.253a1.542,1.542,0,0,0,.5.908,1.492,1.492,0,0,0,1,.33,1.923,1.923,0,0,0,1.587-.711l.978,1.155a2.733,2.733,0,0,1-1.133.879A3.829,3.829,0,0,1-27,16.127Zm-.241-5.472q-.939,0-1.117,1.244H-26.2v-.165a1.06,1.06,0,0,0-.26-.8A1.036,1.036,0,0,0-27.241,10.655Zm11.388.413-.7-.051a1.266,1.266,0,0,0-1.295.635V16h-2.139V9.132h2.006l.07.882A1.656,1.656,0,0,1-16.412,9a2.086,2.086,0,0,1,.6.076Zm3.974,5.059a3.531,3.531,0,0,1-2.558-.943,3.255,3.255,0,0,1-.978-2.453v-.178a4.218,4.218,0,0,1,.39-1.86,2.857,2.857,0,0,1,1.139-1.247A3.44,3.44,0,0,1-12.108,9a2.973,2.973,0,0,1,2.285.9,3.53,3.53,0,0,1,.838,2.5v.832h-4.253a1.542,1.542,0,0,0,.5.908,1.492,1.492,0,0,0,1,.33,1.923,1.923,0,0,0,1.587-.711l.978,1.155A2.733,2.733,0,0,1-10.3,15.8,3.829,3.829,0,0,1-11.88,16.127Zm-.241-5.472q-.939,0-1.117,1.244h2.158v-.165a1.06,1.06,0,0,0-.26-.8A1.036,1.036,0,0,0-12.121,10.655Zm7.592,3.415a.494.494,0,0,0-.286-.438A4.345,4.345,0,0,0-5.9,13.29a4.95,4.95,0,0,1-1.32-.467,2.212,2.212,0,0,1-.793-.7,1.675,1.675,0,0,1-.273-.946,1.9,1.9,0,0,1,.781-1.558A3.216,3.216,0,0,1-5.462,9a3.563,3.563,0,0,1,2.184.616,1.925,1.925,0,0,1,.825,1.619H-4.6q0-.825-.87-.825a.862.862,0,0,0-.565.187.58.58,0,0,0-.229.467.532.532,0,0,0,.279.463,2.639,2.639,0,0,0,.892.292,7.707,7.707,0,0,1,1.076.273,1.955,1.955,0,0,1,1.549,1.911,1.8,1.8,0,0,1-.835,1.53,3.66,3.66,0,0,1-2.161.59,3.735,3.735,0,0,1-1.574-.317,2.632,2.632,0,0,1-1.079-.863A1.955,1.955,0,0,1-8.5,13.8h2a.827.827,0,0,0,.317.7,1.306,1.306,0,0,0,.781.219,1.027,1.027,0,0,0,.657-.178A.569.569,0,0,0-4.529,14.07Zm7.154,1.187a2.205,2.205,0,0,1-1.834.87A2.163,2.163,0,0,1-.92,15.47,2.763,2.763,0,0,1-1.5,13.582V9.132H.638v4.462a.769.769,0,0,0,.857.882,1.118,1.118,0,0,0,1.047-.527V9.132H4.694V16H2.688Zm5.5.743H5.976V6.25H8.122ZM11.93,7.424V9.132h1.13v1.485H11.93v3.142a.8.8,0,0,0,.14.54.749.749,0,0,0,.552.152,3.138,3.138,0,0,0,.533-.038v1.53a3.948,3.948,0,0,1-1.206.184,2.241,2.241,0,0,1-1.631-.521,2.133,2.133,0,0,1-.527-1.581V10.617H8.915V9.132h.876V7.424ZM17.77,16a2.415,2.415,0,0,1-.2-.616,1.989,1.989,0,0,1-1.65.743,2.437,2.437,0,0,1-1.65-.587,1.869,1.869,0,0,1-.679-1.476,1.921,1.921,0,0,1,.825-1.688,4.2,4.2,0,0,1,2.4-.571h.66v-.364q0-.95-.819-.95a.669.669,0,0,0-.762.753H13.752A1.918,1.918,0,0,1,14.6,9.626,3.561,3.561,0,0,1,16.761,9a3.122,3.122,0,0,1,2.076.641,2.229,2.229,0,0,1,.781,1.758v3.041a3.114,3.114,0,0,0,.292,1.447V16Zm-1.339-1.4a1.193,1.193,0,0,0,.663-.171,1.074,1.074,0,0,0,.378-.387v-1.1H16.85q-1.117,0-1.117,1a.612.612,0,0,0,.2.473A.712.712,0,0,0,16.431,14.6Zm4.1-2.088a4.2,4.2,0,0,1,.7-2.571A2.319,2.319,0,0,1,23.2,9a1.972,1.972,0,0,1,1.549.724V6.25H26.9V16H24.975l-.108-.736a2.026,2.026,0,0,1-1.676.863,2.315,2.315,0,0,1-1.942-.939A4.329,4.329,0,0,1,20.531,12.515Zm2.139.133q0,1.828,1.066,1.828a1.053,1.053,0,0,0,1.016-.6V11.265a1.025,1.025,0,0,0-1-.609q-.99,0-1.073,1.6Zm5.173-.146a4.054,4.054,0,0,1,.4-1.831,2.86,2.86,0,0,1,1.149-1.235A3.46,3.46,0,0,1,31.151,9a3.158,3.158,0,0,1,2.431.955,3.666,3.666,0,0,1,.889,2.6v.076a3.557,3.557,0,0,1-.892,2.549,3.166,3.166,0,0,1-2.415.943,3.2,3.2,0,0,1-2.355-.879,3.439,3.439,0,0,1-.958-2.384Zm2.139.133a2.556,2.556,0,0,0,.3,1.4.994.994,0,0,0,.882.444q1.143,0,1.168-1.758V12.5q0-1.847-1.181-1.847-1.073,0-1.162,1.593ZM39.01,14.07a.494.494,0,0,0-.286-.438,4.345,4.345,0,0,0-1.085-.343,4.95,4.95,0,0,1-1.32-.467,2.212,2.212,0,0,1-.793-.7,1.675,1.675,0,0,1-.273-.946,1.9,1.9,0,0,1,.781-1.558A3.216,3.216,0,0,1,38.076,9a3.563,3.563,0,0,1,2.184.616,1.925,1.925,0,0,1,.825,1.619H38.94q0-.825-.87-.825a.862.862,0,0,0-.565.187.58.58,0,0,0-.229.467.532.532,0,0,0,.279.463,2.639,2.639,0,0,0,.892.292,7.707,7.707,0,0,1,1.076.273,1.955,1.955,0,0,1,1.549,1.911,1.8,1.8,0,0,1-.835,1.53,3.66,3.66,0,0,1-2.161.59A3.735,3.735,0,0,1,36.5,15.81a2.632,2.632,0,0,1-1.079-.863,1.955,1.955,0,0,1-.387-1.149h2a.827.827,0,0,0,.317.7,1.306,1.306,0,0,0,.781.219,1.027,1.027,0,0,0,.657-.178A.569.569,0,0,0,39.01,14.07Z" transform="translate(4836.588 -5628.113)" fill="#12263f"/>
    <path id="Polígono_172" data-name="Polígono 172" d="M9.195,0,18.39,14.032H0Z" transform="translate(4723.268 -5596.224) rotate(-90)" fill="#06d1d1"/>
    <path id="Trazado_705320" data-name="Trazado 705320" d="M0,110.55V0H212.225" transform="translate(4946.225 -5604.45) rotate(180)" fill="none" stroke="#06d1d1" stroke-width="3"/>
  </g>
</svg>
