<svg xmlns="http://www.w3.org/2000/svg" xmlns:xlink="http://www.w3.org/1999/xlink" width="46.67" height="75.986" viewBox="0 0 46.67 75.986">
  <defs>
    <clipPath id="clip-path">
      <rect id="Rectángulo_340080" data-name="Rectángulo 340080" width="46.67" height="75.986" transform="translate(0 0)" fill="none"/>
    </clipPath>
  </defs>
  <g id="Grupo_974020" data-name="Grupo 974020" transform="translate(0 0)">
    <g id="Grupo_974019" data-name="Grupo 974019" clip-path="url(#clip-path)">
      <path id="Trazado_699726" data-name="Trazado 699726" d="M26.359,60.712l1-3.143c.537-2.539-9.715,3.442-10.252,5.981l3.3,8.984a1.419,1.419,0,0,0,.554.654c.726.451,3.4,1.973,3.629,2.116a1.426,1.426,0,0,0,2.112-.792l4.279-14.828c.265-1.253-2.1-.43-4.622,1.028" fill="#049684"/>
      <path id="Trazado_699727" data-name="Trazado 699727" d="M26.359,60.712l1-3.143c.537-2.539-9.715,3.442-10.252,5.981l3.3,8.984a1.419,1.419,0,0,0,.554.654c.726.451,3.4,1.973,3.629,2.116a1.426,1.426,0,0,0,2.112-.792l4.279-14.828c.265-1.253-2.1-.43-4.622,1.028" fill="#049684"/>
      <path id="Trazado_699728" data-name="Trazado 699728" d="M40.293.324,1.318,23.041A2.946,2.946,0,0,0,0,25.346V72.007A2.91,2.91,0,0,0,1.325,74.3l2.411,1.377a2.921,2.921,0,0,0,2.642-.013L45.354,52.947a2.948,2.948,0,0,0,1.317-2.305V3.981a2.91,2.91,0,0,0-1.325-2.293L42.935.311a2.924,2.924,0,0,0-2.642.013" fill="#05d1bd"/>
      <path id="Trazado_699729" data-name="Trazado 699729" d="M40.293.324,1.318,23.041A2.946,2.946,0,0,0,0,25.346V72.007A2.91,2.91,0,0,0,1.325,74.3l2.411,1.377a2.921,2.921,0,0,0,2.642-.013L45.354,52.947a2.948,2.948,0,0,0,1.317-2.305V3.981a2.91,2.91,0,0,0-1.325-2.293L42.935.311a2.924,2.924,0,0,0-2.642.013" fill="#049684"/>
      <path id="Trazado_699730" data-name="Trazado 699730" d="M45.353,3.212,6.377,25.929a2.949,2.949,0,0,0-1.317,2.3V74.895c0,.849.59,1.193,1.317.769L21.293,66.97l2.74,7.678a1.423,1.423,0,0,0,2.669-.136l3.641-12.817,15.01-8.748a2.947,2.947,0,0,0,1.317-2.306V3.981c0-.849-.589-1.193-1.317-.769" fill="#05d1bd"/>
      <path id="Trazado_699731" data-name="Trazado 699731" d="M45.353,3.212,6.377,25.929a2.949,2.949,0,0,0-1.317,2.3V74.895c0,.849.59,1.193,1.317.769L21.293,66.97l2.74,7.678a1.423,1.423,0,0,0,2.669-.136l3.641-12.817,15.01-8.748a2.947,2.947,0,0,0,1.317-2.306V3.981c0-.849-.589-1.193-1.317-.769" fill="#05d1bd"/>
      <path id="Trazado_699732" data-name="Trazado 699732" d="M46.653,3.74c-.1-.67-.645-.91-1.3-.529L6.38,25.929a2.721,2.721,0,0,0-.931,1L.412,23.988a2.651,2.651,0,0,1,.907-.947L40.3.322A2.919,2.919,0,0,1,42.937.31l2.408,1.376A2.94,2.94,0,0,1,46.653,3.74" fill="#02aa95"/>
      <path id="Trazado_699733" data-name="Trazado 699733" d="M36.455,18.851a3.053,3.053,0,0,0-4.006,1.65L20.889,48.294l-2.754-2.706a3.041,3.041,0,0,0-4.324.064,3.118,3.118,0,0,0,.062,4.369l5.968,5.861a3.024,3.024,0,0,0,2.131.873,3.034,3.034,0,0,0,2.819-1.891L38.088,22.9a3.107,3.107,0,0,0-1.633-4.047" fill="#fafafa"/>
    </g>
  </g>
</svg>
