<svg xmlns="http://www.w3.org/2000/svg" xmlns:xlink="http://www.w3.org/1999/xlink" width="47.154" height="75.986" viewBox="0 0 47.154 75.986">
  <defs>
    <clipPath id="clip-path">
      <rect id="Rectángulo_340079" data-name="Rectángulo 340079" width="47.154" height="75.986" transform="translate(0 0)" fill="none"/>
    </clipPath>
  </defs>
  <g id="Grupo_974018" data-name="Grupo 974018" transform="translate(0 0)">
    <g id="Grupo_974017" data-name="Grupo 974017" clip-path="url(#clip-path)">
      <path id="Trazado_699718" data-name="Trazado 699718" d="M26.633,60.712l1.007-3.143c.542-2.539-9.817,3.442-10.359,5.981l3.338,8.984a1.43,1.43,0,0,0,.56.654c.733.451,3.431,1.973,3.666,2.116a1.446,1.446,0,0,0,2.134-.792L31.3,59.684c.267-1.253-2.119-.43-4.67,1.028" fill="#634805"/>
      <path id="Trazado_699719" data-name="Trazado 699719" d="M26.633,60.712l1.007-3.143c.542-2.539-9.817,3.442-10.359,5.981l3.338,8.984a1.43,1.43,0,0,0,.56.654c.733.451,3.431,1.973,3.666,2.116a1.446,1.446,0,0,0,2.134-.792L31.3,59.684c.267-1.253-2.119-.43-4.67,1.028" fill="#634805"/>
      <path id="Trazado_699720" data-name="Trazado 699720" d="M40.71.324,1.331,23.041A2.938,2.938,0,0,0,0,25.346V72.007A2.905,2.905,0,0,0,1.338,74.3l2.435,1.377a2.982,2.982,0,0,0,2.671-.013L45.823,52.947a2.941,2.941,0,0,0,1.331-2.305V3.981a2.9,2.9,0,0,0-1.339-2.293L43.38.311a2.983,2.983,0,0,0-2.67.013" fill="#971515"/>
      <path id="Trazado_699721" data-name="Trazado 699721" d="M40.71.324,1.331,23.041A2.938,2.938,0,0,0,0,25.346V72.007A2.905,2.905,0,0,0,1.338,74.3l2.435,1.377a2.982,2.982,0,0,0,2.671-.013L45.823,52.947a2.941,2.941,0,0,0,1.331-2.305V3.981a2.9,2.9,0,0,0-1.339-2.293L43.38.311a2.983,2.983,0,0,0-2.67.013" fill="#634805"/>
      <path id="Trazado_699722" data-name="Trazado 699722" d="M45.824,3.212,6.444,25.929a2.94,2.94,0,0,0-1.331,2.3V74.895c0,.849.6,1.193,1.331.769l15.07-8.694,2.769,7.678a1.442,1.442,0,0,0,2.7-.136l3.68-12.817,15.165-8.748a2.944,2.944,0,0,0,1.33-2.306V3.981c0-.849-.6-1.193-1.33-.769" fill="#971515"/>
      <path id="Trazado_699723" data-name="Trazado 699723" d="M45.824,3.212,6.444,25.929a2.94,2.94,0,0,0-1.331,2.3V74.895c0,.849.6,1.193,1.331.769l15.07-8.694,2.769,7.678a1.442,1.442,0,0,0,2.7-.136l3.68-12.817,15.165-8.748a2.944,2.944,0,0,0,1.33-2.306V3.981c0-.849-.6-1.193-1.33-.769" fill="#efc22e"/>
      <path id="Trazado_699724" data-name="Trazado 699724" d="M47.137,3.74c-.1-.67-.652-.91-1.316-.529L6.447,25.929a2.728,2.728,0,0,0-.941,1L.417,23.988a2.656,2.656,0,0,1,.916-.947L40.714.322A2.976,2.976,0,0,1,43.382.31l2.433,1.376A2.938,2.938,0,0,1,47.137,3.74" fill="#b2860b"/>
      <path id="Trazado_699725" data-name="Trazado 699725" d="M36.833,18.851a3.1,3.1,0,0,0-4.047,1.65L21.1,48.294l-2.782-2.706a3.09,3.09,0,0,0-4.306,4.433l6.029,5.861a3.075,3.075,0,0,0,2.154.873,3.174,3.174,0,0,0,.616-.06,3.087,3.087,0,0,0,2.232-1.831L38.483,22.9a3.1,3.1,0,0,0-1.65-4.047" fill="#fafafa"/>
    </g>
  </g>
</svg>
