<svg id="Grupo_974376" data-name="Grupo 974376" xmlns="http://www.w3.org/2000/svg" xmlns:xlink="http://www.w3.org/1999/xlink" width="149.764" height="144.849" viewBox="0 0 149.764 144.849">
  <defs>
    <clipPath id="clip-path">
      <rect id="Rectángulo_340253" data-name="Rectángulo 340253" width="149.763" height="144.849" fill="none"/>
    </clipPath>
  </defs>
  <g id="Grupo_974373" data-name="Grupo 974373">
    <g id="Grupo_974372" data-name="Grupo 974372" clip-path="url(#clip-path)">
      <path id="Trazado_700680" data-name="Trazado 700680" d="M125.031,99.993A62.515,62.515,0,1,1,62.515,37.478a62.515,62.515,0,0,1,62.515,62.515" transform="translate(0 -17.66)" fill="#ffdeb8"/>
    </g>
  </g>
  <g id="Grupo_974375" data-name="Grupo 974375">
    <g id="Grupo_974374" data-name="Grupo 974374" clip-path="url(#clip-path)">
      <path id="Trazado_700681" data-name="Trazado 700681" d="M144.382,76.391q-.019-5.722-.038-11.445a2.135,2.135,0,0,1,2.065-2.107c4.51-.19,9.023-.043,13.534-.069a1.212,1.212,0,0,0,1.283-.807,74.188,74.188,0,0,1,3.8-7.277,10.774,10.774,0,0,1,6.582-4.858,11.543,11.543,0,0,1,3.929-.418c-.747-1.065-1.4-2.053-2.118-3-.381-.507-.423-1.245-1.076-1.56-.091-1.531-1.188-2.778-1.139-4.394.03-.985-.027-2-.082-3a10.913,10.913,0,0,1,.328-2.412,1.7,1.7,0,0,0,.034-.631c-.02-.1-.1-.176-.04-.293a34.486,34.486,0,0,1,2.985-5.388,16.282,16.282,0,0,1,2.436-2.535,14.04,14.04,0,0,1,4.679-2.522,15.371,15.371,0,0,1,5.742-.763,16.008,16.008,0,0,1,7.067,1.987,17.944,17.944,0,0,1,4.246,3.684,13.449,13.449,0,0,1,2.581,4.443,16.115,16.115,0,0,1,.978,5.337,15.488,15.488,0,0,1-1.421,6.318,13.138,13.138,0,0,1-2.949,4.369c-.09.085-.222.223-.2.307.038.163.219.171.38.169.419-.006.838.013,1.255-.005a10.962,10.962,0,0,1,8.77,4.7c.777,1.188,1.5,2.423,2.315,3.586,1.247,1.777,2.433,3.6,3.672,5.379,1.074,1.545,2.08,3.147,3.139,4.709a4.09,4.09,0,0,1,.489,2.026c.067.685.175,1.376.174,2.073q-.011,10.48,0,20.96a4.938,4.938,0,0,1-.329,1.822,1.966,1.966,0,0,1-1.913,1.243c-2.907.032-5.815.021-8.722.026-.484,0-.969,0-1.454,0-.944,0-.955-.006-.954.971q0,22.443.011,44.886c0,1.143-.129,2.229-1.415,2.713a4.233,4.233,0,0,1-1.548.19c-2.467-.011-4.934-.055-7.4-.053q-11.2.01-22.4.057a2.522,2.522,0,0,1-2.8-2.769q.037-30.022.017-60.044a9.576,9.576,0,0,1-.019-1.515c.094-.611-.183-.828-.767-.626a14.549,14.549,0,0,1-4.9.575c-5.132-.017-10.264-.059-15.4.021-.417.006-.834-.026-1.252-.038a2.119,2.119,0,0,1-2.149-2.324c0-.286,0-.572,0-.858a1.528,1.528,0,0,0-.006-.843m44.544,63.992c3.434,0,6.868,0,10.3.026.519,0,.759-.006.758-.656q-.031-31.011,0-62.023a3.405,3.405,0,0,0-.49-1.843c-.324-.533-.684-1.044-1-1.582q-1.947-3.327-3.868-6.67a.766.766,0,0,0-.768-.455q-7.2.02-14.405,0a.778.778,0,0,0-.785.437c-1.442,2.565-2.983,5.071-4.5,7.595a4.5,4.5,0,0,0-.838,1.588c-.086.046-.116.1-.015.161.013.944.035,1.889.035,2.833q0,29.782,0,59.565c0,.263,0,.527-.005.791s.095.311.358.31c3.3-.023,6.6-.03,9.906-.038.844,0,.85,0,.85-.869q0-18.713.005-37.426,0-.79,0-1.581l.137-.12q1.683,0,3.366.008c.888,0,.887,0,.887.875q-.006,17.844-.011,35.69c0,1.076-.009,2.151-.014,3.226-.026.086-.006.145.094.157m-2.592-90.956c5.489.328,11.729-4.149,11.42-12.016-.215-5.467-5.323-10.193-11.687-10.14a10.544,10.544,0,0,0-8.237,4.214,10.414,10.414,0,0,0-2.42,6.639,11.12,11.12,0,0,0,10.924,11.3m26.985,31.518h.049c0-3.185-.013-6.371.008-9.557a3.938,3.938,0,0,0-.608-2.305c-2.675-3.973-5.4-7.914-8.026-11.92a7.083,7.083,0,0,0-6.449-3.312c-.443,0-.6.109-.594.594.021,2.812.039,5.625-.026,8.436a4.872,4.872,0,0,0,.8,2.844c1.869,2.943,3.69,5.916,5.409,8.95a3.974,3.974,0,0,1,.527,2.008c-.006,4.768,0,9.536-.016,14.3,0,.473.094.651.612.644q3.833-.053,7.665-.026c.517,0,.668-.1.664-.642-.029-3.339-.014-6.679-.014-10.019m-55.366-4.867v0H163.7a11.823,11.823,0,0,0,2.925-.306,5.074,5.074,0,0,0,3.8-2.778,20.718,20.718,0,0,1,1.268-2.226q1.753-2.9,3.527-5.78a1.81,1.81,0,0,0,.284-.99c-.016-3.052-.018-6.1-.023-9.156,0-.994,0-.988-1.006-.973a6.777,6.777,0,0,0-3.479.87,7.839,7.839,0,0,0-3.017,3.48c-.992,2.049-1.974,4.1-3.048,6.11a4.856,4.856,0,0,1-2.682,2.49,7.313,7.313,0,0,1-2.434.361c-3.478.033-6.956.014-10.434.015-.3,0-.62-.086-.616.423.024,2.722.027,5.444.033,8.167,0,.271.094.4.387.379.568-.04,1.137-.077,1.706-.079,2.355-.008,4.711,0,7.066,0m28.624-13.29v-.031q3.1,0,6.2,0c.285,0,.552.084.558-.4.037-2.588.047-5.176.014-7.765-.007-.576-.186-.75-.76-.748q-6.039.03-12.077,0c-.475,0-.583.149-.58.6q.023,3.949-.011,7.9c0,.413.168.453.516.451,2.045-.015,4.091-.007,6.137-.007" transform="translate(-68.015 -10.779)"/>
      <path id="Trazado_700682" data-name="Trazado 700682" d="M86.412,29.631c-.013.2-.036.392-.036.589q.007,13.281.016,26.562c0,1.843-.758,2.7-2.564,2.7-4.625,0-9.25-.018-13.876-.02q-16.85,0-33.7-.005c-1.1,0-2.2.1-3.3-.005a2.2,2.2,0,0,1-2.1-2.116c-.09-.922-.057-1.844-.057-2.766q0-18.521,0-37.042c0-1.238.07-2.476-.027-3.717a5.314,5.314,0,0,1,.406-1.59A13.331,13.331,0,0,1,42.131,2.081a13.348,13.348,0,0,1,5.714.408A12.273,12.273,0,0,1,54.538,7c.223.28.429.257.729.1q2.522-1.287,5.065-2.532c1.282-.63,2.576-1.234,3.861-1.859a6.713,6.713,0,0,1,1.776-.752,2.874,2.874,0,0,1,1.7.368c2.007.934,4.024,1.855,6,2.853,1.944.984,3.863,2.032,5.827,2.973A8.963,8.963,0,0,1,82.85,11.4q4.729,6.648,9.5,13.269c1.205,1.674.709,2.754-.709,3.787a.546.546,0,0,1-.423.118,38.032,38.032,0,0,0-4.137-.092c-.763-.026-.839.1-.562.88-.1.067-.3.1-.1.273M72.448,51.766V45.057a1.523,1.523,0,0,0-.578.418c-.942.919-1.891,1.832-2.832,2.753-.1.1-.374.156-.13.387q1.737,1.642,3.468,3.289l.093-.007-.021-.132m-9.963,3.388c1.272-.014,2.544-.037,3.816-.04.745,0,1.49.021,2.234.048.185.007.412.145.526-.055s-.094-.353-.229-.492c-.9-.925-1.812-1.847-2.708-2.779-.306-.318-.521-.171-.767.077-.943.949-1.9,1.887-2.845,2.831-.092.091-.2.182-.178.334l-.071.076c.074.059.148.08.223,0m-27.094.035c1.937-.026,3.873-.065,5.81-.073,1.43-.006,2.862,0,4.292.054.613.021.9-.1.869-.8-.058-1.447-.017-2.9-.017-4.347q0-10.475.007-20.949c0-.427,0-.646-.569-.616-1.229.065-2.465,0-3.7.022a2.184,2.184,0,0,1-1.839-3.572c1.168-1.537,2.27-3.125,3.4-4.694.11-.153.332-.3.252-.5-.106-.26-.387-.136-.591-.137-2.51,0-5.019.014-7.528-.01-.436,0-.543.094-.543.524q.02,17.491.016,34.982c-.012.109.03.155.142.121m46.563-1.852q0-13.248-.006-26.5a4.6,4.6,0,0,1,.034-.525,2.188,2.188,0,0,1,2.473-2.223c.687,0,1.374,0,2.089,0a1.15,1.15,0,0,0-.065-.228q-3.968-5.536-7.935-11.072a2.087,2.087,0,0,0-.865-.683c-3.587-1.661-7.111-3.45-10.631-5.245a1.348,1.348,0,0,0-1.383.013c-3.009,1.521-6.015,3.052-9.063,4.5a7.414,7.414,0,0,0-3.484,2.9,77.188,77.188,0,0,1-5.013,7.1c-.657.86-1.274,1.75-1.978,2.721.811,0,1.508-.028,2.2.006a2.229,2.229,0,0,1,2.479,2.4c.008.109,0,.22,0,.329q0,13.676.008,27.352a1.128,1.128,0,0,1-.045.45c-.208.455.061.47.391.469.947,0,1.9-.038,2.84.015.535.03.648-.118.648-.644,0-5.051-.084-10.1.036-15.152a2.05,2.05,0,0,1,1.732-1.879,13.464,13.464,0,0,1,1.842-.108q7.632-.013,15.264,0a9.664,9.664,0,0,1,1.448.089,2.018,2.018,0,0,1,1.778,1.69c.051.822.088,1.647.091,2.471q.017,6,.006,12a3.836,3.836,0,0,1-.058.9c-.082.354-.016.695.58.66,1.164-.067,2.334-.012,3.5-.024,1.071-.011,1.07-.021,1.08-1.061.457-.179.456-.292,0-.712M41.248,15.144v-.013c1.848,0,3.7-.007,5.544.007a.776.776,0,0,0,.724-.339c1.112-1.577,2.221-3.155,3.36-4.713a.506.506,0,0,0-.043-.775,8.858,8.858,0,0,0-6.234-3,8.2,8.2,0,0,0-6.083,1.939,8.868,8.868,0,0,0-3.28,6.434c-.021.369.085.476.468.472,1.848-.022,3.7-.01,5.543-.01M59.2,44.906l-.154.1c.02.425-.241.9-.164,1.217a20.527,20.527,0,0,1,.154,3.7c.039.64.007,1.286.007,1.929l.191.1c.881-.915,1.753-1.839,2.646-2.743.712-.723.722-.712.039-1.477-.058-.065-.095-.147-.155-.208q-1.279-1.311-2.563-2.618m9.939-2.912-.07-.161H62.418c-.061.126.011.187.063.252.862,1.075,1.968,1.906,2.906,2.9.249.265.444.253.707-.011,1-1.006,2.028-1.991,3.045-2.985" transform="translate(-14.494 -0.906)"/>
      <path id="Trazado_700683" data-name="Trazado 700683" d="M78.1,156.73c0-3.252-.029-6.5.016-9.756a11.708,11.708,0,0,0-.131-3.115,6.4,6.4,0,0,0-2.769-3.8,6.459,6.459,0,0,0-3.685-1.006,6.382,6.382,0,0,0-5.6,3.607,27.089,27.089,0,0,0-1.307,4.952c-.4,1.592-.721,3.2-1.087,4.8-.295,1.288-.591,2.573-.793,3.881a2.9,2.9,0,0,1-1.343,2.455,3.228,3.228,0,0,1-1.525.258c-1.894.031-3.788.024-5.682,0a3.614,3.614,0,0,1-2.209-.8c-1.561-1.207-3.16-2.367-4.7-3.6a46.148,46.148,0,0,1-3.873-3.315c-1.352-1.349-2.78-1.144-4.3-.534a10.214,10.214,0,0,0-5.123,4.635c-.836,1.465-1.718,2.9-2.578,4.355-.151.255-.264.363-.6.15-.971-.621-1.964-1.218-2.99-1.742-.435-.222-.447-.414-.234-.754,1.252-2,2.459-4.027,3.774-5.983a12.34,12.34,0,0,1,3.786-3.487,13.309,13.309,0,0,1,4.487-1.838,7.517,7.517,0,0,1,3.4-.234,5.136,5.136,0,0,1,1.815,1.1c1.516,1.145,3,2.331,4.482,3.522,1.505,1.212,3.01,2.426,4.475,3.686a2.758,2.758,0,0,0,2.337.517,10.394,10.394,0,0,1,1.888-.091.553.553,0,0,0,.632-.5c.539-2.447,1.009-4.909,1.608-7.341a23.257,23.257,0,0,1,1.77-5.924.951.951,0,0,0,.044-.8c-1-2.907-2.027-5.8-2.976-8.726a9.917,9.917,0,0,1-.847-3.734,1.869,1.869,0,0,1,1.58-1.717,4.314,4.314,0,0,1,1.821.173c1.436.5,2.891.953,4.326,1.461a.536.536,0,0,0,.669-.167,29.354,29.354,0,0,0,2.592-2.576,3.041,3.041,0,0,1,1.259-.973,2.349,2.349,0,0,1,2.713.565c.93.938,1.876,1.858,2.793,2.807a1.026,1.026,0,0,0,1.273.253c1.69-.615,3.39-1.214,5.131-1.678.7-.186,2.343.858,2.318,1.821a11.926,11.926,0,0,1-.9,3.456q-1.333,4.041-2.7,8.068a1.6,1.6,0,0,0,.108,1.344,9.336,9.336,0,0,1,1.1,3.593,1.075,1.075,0,0,0,.463.808c1.293.926,2.6,1.838,3.849,2.821,1.285,1.012,2.6,1.992,3.865,3.027a2.241,2.241,0,0,1-.208,3.63c-.877.6-1.709,1.268-2.559,1.909-1.425,1.075-2.817,2.194-4.283,3.21a1.849,1.849,0,0,0-.9,1.772c.059,2.086,0,4.174.035,6.261a3.127,3.127,0,0,1-.976,2.388Q76.43,175,71.248,180.178a2.972,2.972,0,0,1-2.149.96c-.9,0-1.806.019-2.707-.026-.522-.026-.546.142-.372.555.384.912.7,1.854,1.121,2.749.354.753.6,1.541.9,2.313.159.42.379.513.773.387,1.093-.35,2.19-.687,3.282-1.038.8-.256.893-.215,1.151.558.31.926.587,1.863.936,2.774.184.48.061.7-.412.772a26.428,26.428,0,0,0-2.844.985c-1.226.339-2.419.8-3.652,1.108a2.227,2.227,0,0,1-2.221-1.448c-.644-1.43-1.225-2.887-1.866-4.318-.725-1.62-1.235-3.318-1.871-4.969-.111-.29-.243-.425-.565-.418-.77.017-1.542.035-2.311,0a1.232,1.232,0,0,0-1.419.976c-.616,1.756-1.359,3.468-2.072,5.19-.2.482-.219.7.43.64.765-.068,1.54-.012,2.31-.034.331-.01.472.072.465.436q-.031,1.68,0,3.361c.008.437-.152.57-.581.557-1.938-.059-3.876-.053-5.814,0a2.185,2.185,0,0,1-2.444-2.67,8.789,8.789,0,0,1,.759-2.135c.479-1.189.978-2.371,1.475-3.552.265-.631.527-1.264.821-1.882.2-.428.215-.779-.35-.775a4.223,4.223,0,0,1-3.068-1.575c-1.05-1.059-2.06-2.158-3.115-3.211-.349-.348-.245-.481.085-.772a26.517,26.517,0,0,0,2.206-2.176c.375-.417.573-.339.911.015.9.939,1.844,1.828,2.737,2.769a1.636,1.636,0,0,0,1.329.554c4.25-.118,8.5-.055,12.753-.066a11.355,11.355,0,0,1,1.65.036,1.479,1.479,0,0,0,1.365-.539q4.4-4.423,8.827-8.814a1.254,1.254,0,0,0,.406-.969c-.012-3.252-.007-6.5-.007-9.756M63.783,131.5c.466,1.318.887,2.563,1.352,3.792.154.408.018,1.087.453,1.175.356.072.814-.343,1.223-.548a9.77,9.77,0,0,1,6.646-1.011,14.854,14.854,0,0,1,3.661,1.242c.333.17.457.122.562-.206.437-1.369.884-2.735,1.323-4.1.115-.361-.094-.36-.345-.279a12.218,12.218,0,0,0-1.183.394,2.832,2.832,0,0,1-3.623-.809c-.613-.715-1.328-1.344-1.992-2.016-.271-.274-.44-.343-.766.022-.776.866-1.612,1.682-2.466,2.473a2.385,2.385,0,0,1-2.637.5,7.082,7.082,0,0,0-2.207-.621m18.848,23.031,2.726-1.962c.179-.128.133-.274,0-.378-.878-.669-1.765-1.329-2.723-2.049Z" transform="translate(-12.934 -58.227)"/>
      <path id="Trazado_700684" data-name="Trazado 700684" d="M47.782,213.261c-.5.111-.523-.3-.538-.557-.056-.91.02-1.831-.088-2.733a6.817,6.817,0,0,1,.212-2.689c.274-.932.426-1.9.784-2.808a19.573,19.573,0,0,1,2.493-4.651,15.1,15.1,0,0,1,4.189-3.936c.1-.059.2-.224.348.01.656,1.027,1.317,2.053,2.019,3.05.317.449-.031.6-.274.773a12.427,12.427,0,0,0-3.134,3.313,11.953,11.953,0,0,0-2.141,6.085,4.176,4.176,0,0,0,.094,1.944c.151.368-.15.935-.011,1.435.051.181-.186.1-.284.129a33.472,33.472,0,0,1-3.669.637" transform="translate(-22.197 -92.249)"/>
      <path id="Trazado_700685" data-name="Trazado 700685" d="M34.778,198.257a16.608,16.608,0,0,1,1.64-8.087,14.062,14.062,0,0,1,2.974-4.3,22.816,22.816,0,0,1,2.481-2.257c.454-.316.761-.437,1.1.165.509.895,1.1,1.743,1.674,2.6.216.323.172.493-.155.738a16.419,16.419,0,0,0-3.759,4.271c-1.537,2.325-1.562,4.872-1.528,7.472.005.413.17.869-.043,1.229-.257.435-.773.091-1.152.223-.875.3-1.823.209-2.706.491-.293.094-.364-.139-.444-.412a9.173,9.173,0,0,1-.086-2.134" transform="translate(-16.377 -86.396)"/>
      <path id="Trazado_700686" data-name="Trazado 700686" d="M152.874,228.389c1.34-.014,2.68-.021,4.019-.046.273-.005.326.1.325.346-.01,1.207-.012,2.413,0,3.62,0,.3-.085.441-.4.444-1.231.009-2.462.023-3.693.055-.389.01-.418-.2-.407-.5.043-1.137.073-2.274.108-3.411.016-.171.033-.341.05-.511" transform="translate(-71.96 -107.596)"/>
      <path id="Trazado_700687" data-name="Trazado 700687" d="M140.4,245.787c0,1.046-.015,2.093.011,3.139.011.436-.1.635-.581.627-1.245-.02-2.491.007-3.736.015l-.109-.121c-.008-1.36.074-2.721-.066-4.078,0-.034.043-.072.066-.108.063.014.112,0,.115-.075l3.031-.013a1.454,1.454,0,0,0,.952.029c.316-.018.353.18.329.425-.082.048-.105.1-.012.161" transform="translate(-64.045 -115.527)"/>
      <path id="Trazado_700688" data-name="Trazado 700688" d="M161.462,178.16q-.006,1.991-.013,3.982c0,.274-.134.36-.411.354-1.2-.024-2.4-.026-3.6-.036-.126-.121-.095-.375-.337-.4q-.008-1.947-.017-3.894l.218-.14,4.065.034c-.012.078.021.11.1.1" transform="translate(-74.017 -83.888)"/>
      <path id="Trazado_700689" data-name="Trazado 700689" d="M148.613,157.4c0-.228.06-.359.336-.355q1.812.025,3.625.015c.4,0,.443.21.457.545a22.476,22.476,0,0,0,.1,3.579c.054.268-.184.332-.381.334-1.274.01-2.549,0-3.823.008-.322,0-.337-.182-.334-.427.013-.9.013-1.8.018-2.694a1.732,1.732,0,0,0,0-1" transform="translate(-70.018 -73.999)"/>
      <path id="Trazado_700690" data-name="Trazado 700690" d="M159.162,207.665c-.592,0-1.185-.013-1.777.005-.276.008-.394-.062-.394-.359q0-1.874-.029-3.748c-.006-.311.139-.363.4-.36q1.813.022,3.628.026c.24,0,.346.043.35.323.016,1.225.064,2.449.093,3.674.007.328-.209.381-.488.375-.593-.012-1.187,0-1.78,0v.067" transform="translate(-73.961 -95.75)"/>
      <path id="Trazado_700691" data-name="Trazado 700691" d="M173.221,245.191c.84-.013.848-.013.851.832,0,1.009-.018,2.018,0,3.027.005.39-.116.54-.53.532-1.121-.022-2.244-.012-3.365.009-.417.008-.6-.1-.555-.562a13.357,13.357,0,0,0,.017-1.381,1.143,1.143,0,0,0,0-.709c0-.159,0-.318,0-.478a1.31,1.31,0,0,0-.02-.853c-.1-.412.177-.421.46-.42h2.9c.081.1.163.1.245,0" transform="translate(-79.915 -115.534)"/>
      <path id="Trazado_700692" data-name="Trazado 700692" d="M106.37,167.755l.013-1.188a.224.224,0,0,0,0-.393c-.009-.084-.017-.167-.026-.251l-.109-.152c-.021-.334.249-.255.411-.256,1.252-.012,2.5,0,3.754-.011.3,0,.366.112.392.4.1,1.132.028,2.263.03,3.394,0,.346-.149.639-.676.607-1.05-.063-2.107-.037-3.16,0-.5.016-.655-.154-.612-.644a12.6,12.6,0,0,0-.02-1.376v-.131" transform="translate(-50.064 -77.986)"/>
      <path id="Trazado_700693" data-name="Trazado 700693" d="M152.741,245.251a12.5,12.5,0,0,1,3.155-.039c.429.023,1.032-.21,1.245.11s.073.886.076,1.345c.005.769-.016,1.539.009,2.307.012.355-.066.48-.457.481-1.109,0-2.219.042-3.328.1-.488.025-.713-.07-.695-.64.039-1.184-.009-2.372-.021-3.558l.042-.046Z" transform="translate(-71.965 -115.506)"/>
      <path id="Trazado_700694" data-name="Trazado 700694" d="M148.416,157.715a1.732,1.732,0,0,1,0,1,.646.646,0,0,1,0-1" transform="translate(-69.821 -74.316)" fill="#656566"/>
      <path id="Trazado_700695" data-name="Trazado 700695" d="M142.945,245.01a1.455,1.455,0,0,1-.952-.029.61.61,0,0,1,.952.029" transform="translate(-66.908 -115.335)" fill="#656566"/>
      <path id="Trazado_700696" data-name="Trazado 700696" d="M169.456,245.984a1.312,1.312,0,0,1,.02.853.54.54,0,0,1-.02-.853" transform="translate(-79.754 -115.909)" fill="#656566"/>
      <path id="Trazado_700697" data-name="Trazado 700697" d="M144.21,124.079a1.532,1.532,0,0,1,.007.843.5.5,0,0,1-.007-.843" transform="translate(-67.844 -58.467)" fill="#656566"/>
      <path id="Trazado_700698" data-name="Trazado 700698" d="M169.477,248.5a1.143,1.143,0,0,1,0,.709c-.285-.235-.292-.472,0-.709" transform="translate(-79.757 -117.094)" fill="#656566"/>
      <path id="Trazado_700699" data-name="Trazado 700699" d="M232.7,0c-.084.159.06.376-.129.509C232.381.28,232.22.059,232.7,0" transform="translate(-109.501)" fill="#656566"/>
      <path id="Trazado_700700" data-name="Trazado 700700" d="M194.765,29.364a.566.566,0,0,1,0-.562c.309.186.3.373,0,.562" transform="translate(-91.738 -13.572)" fill="#656566"/>
      <path id="Trazado_700701" data-name="Trazado 700701" d="M152.813,228.43c-.016.17-.033.341-.05.511-.369-.208-.068-.351.05-.511" transform="translate(-71.899 -107.637)" fill="#656566"/>
      <path id="Trazado_700702" data-name="Trazado 700702" d="M157.064,185.656c.243.022.211.277.337.4-.224-.039-.513-.022-.337-.4" transform="translate(-73.983 -87.482)" fill="#656566"/>
      <path id="Trazado_700703" data-name="Trazado 700703" d="M106.343,166.77a.223.223,0,0,1,0,.393c-.246-.132-.237-.263,0-.393" transform="translate(-50.023 -78.583)" fill="#656566"/>
      <path id="Trazado_700704" data-name="Trazado 700704" d="M249.361,27.9a.232.232,0,0,1,.012.388c-.245-.122-.252-.251-.012-.388" transform="translate(-117.417 -13.145)" fill="#656566"/>
      <path id="Trazado_700705" data-name="Trazado 700705" d="M135.927,54.079c-.2-.178,0-.207.1-.274.034.116.07.234-.1.274" transform="translate(-64.009 -25.353)" fill="#656566"/>
      <path id="Trazado_700706" data-name="Trazado 700706" d="M176.233,245.04c-.082.1-.163.1-.245,0,0-.084.011-.171.123-.17s.118.088.122.171" transform="translate(-82.926 -115.383)" fill="#656566"/>
      <path id="Trazado_700707" data-name="Trazado 700707" d="M157.292,178.009l-.218.14c-.041-.223.106-.154.218-.14" transform="translate(-74.011 -83.868)" fill="#656566"/>
      <path id="Trazado_700708" data-name="Trazado 700708" d="M165.277,178.186c-.078.013-.111-.02-.1-.1.082-.017.114.016.1.1" transform="translate(-77.831 -83.914)" fill="#656566"/>
      <path id="Trazado_700709" data-name="Trazado 700709" d="M136.152,245.16c0,.079-.051.088-.115.074-.025-.122.011-.15.115-.074" transform="translate(-64.098 -115.501)" fill="#656566"/>
      <path id="Trazado_700710" data-name="Trazado 700710" d="M106.386,169.761v.131l-.1-.089.1-.042" transform="translate(-50.081 -79.992)" fill="#656566"/>
      <path id="Trazado_700711" data-name="Trazado 700711" d="M152.658,245.359l.026.057-.042.046c-.057-.006-.115-.017-.085-.093.006-.014.066-.007.1-.01" transform="translate(-71.881 -115.614)" fill="#656566"/>
      <path id="Trazado_700712" data-name="Trazado 700712" d="M144.339,246.191c-.094-.061-.071-.114.012-.161,0,.054-.008.107-.012.161" transform="translate(-67.984 -115.93)" fill="#656566"/>
      <path id="Trazado_700713" data-name="Trazado 700713" d="M106.241,166.008l.109.152c-.091-.012-.143-.052-.109-.152" transform="translate(-50.056 -78.224)" fill="#656566"/>
      <path id="Trazado_700714" data-name="Trazado 700714" d="M136.028,253.256l.109.122c-.109.024-.15-.012-.109-.122" transform="translate(-64.09 -119.335)" fill="#656566"/>
      <path id="Trazado_700715" data-name="Trazado 700715" d="M214.65,179.708c0-1.076.014-2.151.014-3.226q.006-17.844.011-35.689c0-.875,0-.873-.886-.874q-1.683,0-3.366-.008c-.107-.029-.153.01-.137.12,0,.527,0,1.054,0,1.581q0,18.713,0,37.426c0,.872-.006.867-.85.869-3.3.008-6.6.014-9.906.038-.263,0-.363-.059-.357-.31s.005-.527.005-.791q0-29.782,0-59.565c0-.944-.023-1.889-.035-2.833,0-.054.01-.107.015-.161a4.492,4.492,0,0,1,.838-1.588c1.512-2.523,3.053-5.03,4.495-7.595a.78.78,0,0,1,.785-.437q7.2.019,14.406,0a.766.766,0,0,1,.768.454q1.913,3.346,3.868,6.67c.315.538.676,1.049,1,1.582a3.411,3.411,0,0,1,.49,1.843q-.025,31.011,0,62.023c0,.649-.24.66-.758.656-3.434-.029-6.867-.022-10.3-.026l-.094-.157M203.54,117.22c.108,1.36.011,2.72.015,4.08a7.846,7.846,0,0,0,.741,3.771,6.466,6.466,0,0,0,5.8,3.742c1.65.049,3.3.031,4.952,0a5.623,5.623,0,0,0,2.668-.729c2.619-1.465,3.568-3.853,3.661-6.677.057-1.732,0-3.468.013-5.2.012-1.861-.87-2.878-2.874-2.877q-5.943,0-11.886.007a7.5,7.5,0,0,0-1.694.2,2.147,2.147,0,0,0-1.364,1.621c.01.6-.034,1.2-.028,1.8-.205.086-.2.175,0,.264" transform="translate(-93.834 -50.261)" fill="#b20d0d"/>
      <path id="Trazado_700716" data-name="Trazado 700716" d="M214.016,53.344a11.12,11.12,0,0,1-10.924-11.3,10.41,10.41,0,0,1,2.42-6.639,10.544,10.544,0,0,1,8.237-4.214c6.365-.053,11.472,4.672,11.687,10.14.309,7.867-5.93,12.345-11.419,12.016" transform="translate(-95.698 -14.696)" fill="#ffdeb8"/>
      <path id="Trazado_700717" data-name="Trazado 700717" d="M260.839,108.548c0,3.34-.014,6.68.014,10.019,0,.541-.147.646-.664.642q-3.832-.031-7.665.026c-.518.007-.613-.171-.612-.644.018-4.768.01-9.536.016-14.3a3.969,3.969,0,0,0-.527-2.008c-1.718-3.035-3.54-6.007-5.409-8.95a4.871,4.871,0,0,1-.8-2.844c.065-2.811.047-5.624.026-8.436,0-.484.151-.591.594-.594a7.083,7.083,0,0,1,6.449,3.312c2.626,4.005,5.351,7.946,8.026,11.92a3.934,3.934,0,0,1,.608,2.305c-.021,3.185-.009,6.371-.009,9.557Z" transform="translate(-115.535 -38.382)" fill="#9cfdff"/>
      <path id="Trazado_700718" data-name="Trazado 700718" d="M161.888,103.69c-2.355,0-4.711,0-7.066,0-.569,0-1.138.039-1.706.078-.293.02-.386-.108-.387-.379-.006-2.722-.008-5.445-.033-8.167,0-.509.317-.423.616-.424,3.478,0,6.957.019,10.435-.015a7.29,7.29,0,0,0,2.434-.361,4.856,4.856,0,0,0,2.681-2.489c1.074-2.009,2.056-4.062,3.048-6.111a7.845,7.845,0,0,1,3.017-3.48,6.789,6.789,0,0,1,3.479-.87c1.006-.015,1-.021,1.006.974,0,3.052.007,6.1.023,9.156a1.816,1.816,0,0,1-.283.99q-1.767,2.888-3.527,5.779a20.636,20.636,0,0,0-1.268,2.227,5.074,5.074,0,0,1-3.8,2.777,11.8,11.8,0,0,1-2.925.306h-5.745Z" transform="translate(-71.951 -38.391)" fill="#9cfdff"/>
      <path id="Trazado_700719" data-name="Trazado 700719" d="M218.282,90.391c-2.045,0-4.091-.007-6.137.007-.347,0-.519-.038-.516-.451q.031-3.949.011-7.9c0-.447.1-.6.58-.6q6.039.029,12.077,0c.574,0,.752.172.76.748.033,2.588.023,5.176-.014,7.765-.007.48-.274.4-.558.4q-3.1,0-6.2,0v.031" transform="translate(-99.721 -38.381)" fill="#9cfdff"/>
      <path id="Trazado_700720" data-name="Trazado 700720" d="M199.095,124.856c0,.054-.01.107-.015.161-.1-.063-.071-.115.015-.161" transform="translate(-93.777 -58.833)" fill="#656566"/>
      <path id="Trazado_700721" data-name="Trazado 700721" d="M228.465,244.8l.094.157c-.1-.011-.121-.07-.094-.157" transform="translate(-107.649 -115.349)" fill="#656566"/>
      <path id="Trazado_700722" data-name="Trazado 700722" d="M220.216,169.648c-.016-.11.031-.149.137-.12l-.137.12" transform="translate(-103.765 -79.878)" fill="#656566"/>
      <path id="Trazado_700723" data-name="Trazado 700723" d="M95.654,58.288c-.01,1.04-.01,1.05-1.08,1.061-1.167.013-2.337-.043-3.5.023-.6.035-.663-.306-.58-.66a3.836,3.836,0,0,0,.058-.9q.007-6-.007-12c0-.824-.04-1.649-.091-2.472a2.017,2.017,0,0,0-1.778-1.69,9.661,9.661,0,0,0-1.448-.089q-7.631-.007-15.264.005a13.388,13.388,0,0,0-1.842.107,2.051,2.051,0,0,0-1.731,1.879c-.12,5.05-.035,10.1-.036,15.152,0,.526-.113.674-.647.644-.944-.052-1.893-.02-2.84-.015-.33,0-.6-.014-.391-.469a1.117,1.117,0,0,0,.045-.449q0-13.677-.008-27.353c0-.111,0-.22,0-.329a2.23,2.23,0,0,0-2.48-2.4c-.694-.034-1.392-.006-2.2-.006.7-.971,1.32-1.861,1.977-2.72a77.2,77.2,0,0,0,5.013-7.1,7.4,7.4,0,0,1,3.484-2.9c3.047-1.444,6.053-2.974,9.063-4.5a1.349,1.349,0,0,1,1.383-.013c3.521,1.794,7.044,3.584,10.631,5.245a2.1,2.1,0,0,1,.865.684Q96.2,22.571,100.176,28.1a1.072,1.072,0,0,1,.065.228c-.715,0-1.4,0-2.089,0a2.188,2.188,0,0,0-2.473,2.223,4.585,4.585,0,0,0-.035.525q0,13.247.006,26.5a1.094,1.094,0,0,0,0,.712M79.47,23.855c-2.135,0-4.271-.012-6.406,0a2.254,2.254,0,0,0-2.477,2.384c.038,3.006.017,6.015.036,9.022a1.989,1.989,0,0,0,1.6,1.77,23.444,23.444,0,0,0,3.624.1c3.192.014,6.384.03,9.575,0,2.233-.023,2.956-.86,2.918-2.917-.046-2.5-.007-5.005-.031-7.508a4.361,4.361,0,0,0-.212-1.526,2.168,2.168,0,0,0-2.225-1.33c-2.135-.012-4.27,0-6.405,0" transform="translate(-28.19 -5.145)" fill="#b20d0d"/>
      <path id="Trazado_700724" data-name="Trazado 700724" d="M39.237,70.771q0-17.491-.016-34.981c0-.43.106-.528.543-.524,2.509.025,5.019.006,7.528.011.2,0,.485-.123.591.137.08.2-.142.347-.252.5-1.126,1.569-2.227,3.157-3.4,4.694a2.184,2.184,0,0,0,1.839,3.572c1.232-.026,2.468.044,3.7-.022.566-.03.57.189.569.616q-.015,10.475-.007,20.949c0,1.449-.041,2.9.017,4.347.029.709-.255.824-.869.8-1.43-.05-2.861-.06-4.292-.054-1.937.008-3.873.047-5.81.072l-.142-.121" transform="translate(-18.481 -16.608)" fill="#ffc403"/>
      <path id="Trazado_700725" data-name="Trazado 700725" d="M45.236,19.036c-1.848,0-3.7-.012-5.543.01-.383,0-.489-.1-.468-.472a8.866,8.866,0,0,1,3.28-6.433A8.2,8.2,0,0,1,48.587,10.2a8.856,8.856,0,0,1,6.234,3,.5.5,0,0,1,.043.775c-1.139,1.557-2.248,3.136-3.361,4.713a.776.776,0,0,1-.724.339c-1.848-.015-3.7-.007-5.544-.007v.014" transform="translate(-18.482 -4.798)" fill="#ffc403"/>
      <path id="Trazado_700726" data-name="Trazado 700726" d="M90.466,99.392c-.017-.152.086-.243.178-.334.948-.943,1.9-1.882,2.845-2.831.246-.247.461-.394.767-.077.9.932,1.8,1.853,2.708,2.779.136.139.348.283.229.492s-.342.062-.526.056c-.745-.027-1.489-.05-2.234-.048-1.272,0-2.544.026-3.816.04l-.152-.077" transform="translate(-42.627 -45.221)" fill="#f8f9fb"/>
      <path id="Trazado_700727" data-name="Trazado 700727" d="M84.246,83.208q1.282,1.309,2.563,2.618c.06.061.1.144.155.208.684.765.674.754-.039,1.477-.892.9-1.765,1.828-2.646,2.743l-.191-.1c0-.643.032-1.288-.007-1.929a20.527,20.527,0,0,0-.154-3.7c-.077-.318.184-.792.164-1.216l.154-.1" transform="translate(-39.54 -39.208)" fill="#f8f9fb"/>
      <path id="Trazado_700728" data-name="Trazado 700728" d="M97.328,77.558c-1.017.993-2.041,1.978-3.045,2.985-.263.264-.458.276-.707.011-.938-1-2.044-1.83-2.906-2.9-.052-.066-.125-.126-.063-.252h6.651l.07.161" transform="translate(-42.683 -36.47)" fill="#f8f9fb"/>
      <path id="Trazado_700729" data-name="Trazado 700729" d="M106.282,90.341q-1.734-1.645-3.468-3.289c-.244-.231.031-.289.13-.387.941-.921,1.889-1.834,2.832-2.753a1.525,1.525,0,0,1,.578-.418V90.2l-.071.139" transform="translate(-48.4 -39.343)" fill="#f8f9fb"/>
      <path id="Trazado_700730" data-name="Trazado 700730" d="M127.526,99.863a1.1,1.1,0,0,1,0-.712c.46.42.46.534,0,.712" transform="translate(-60.062 -46.72)" fill="#656566"/>
      <path id="Trazado_700731" data-name="Trazado 700731" d="M90.4,102.442l.152.077c-.075.079-.149.058-.223,0l.071-.076" transform="translate(-42.566 -48.271)" fill="#656566"/>
      <path id="Trazado_700732" data-name="Trazado 700732" d="M109.46,96.319l.071-.139c.007.044.014.088.021.132l-.093.007" transform="translate(-51.578 -45.32)" fill="#656566"/>
      <path id="Trazado_700733" data-name="Trazado 700733" d="M39.249,102.426l.142.121c-.112.035-.154-.011-.142-.121" transform="translate(-18.493 -48.264)" fill="#656566"/>
      <path id="Trazado_700734" data-name="Trazado 700734" d="M96.159,136.252a7.078,7.078,0,0,1,2.207.621,2.387,2.387,0,0,0,2.637-.5c.854-.791,1.691-1.607,2.466-2.474.326-.364.5-.3.766-.021.664.673,1.38,1.3,1.993,2.016a2.831,2.831,0,0,0,3.622.809c.38-.164.787-.268,1.184-.394.251-.08.46-.081.345.28-.438,1.369-.886,2.735-1.323,4.1-.1.328-.229.376-.562.206a14.822,14.822,0,0,0-3.661-1.242,9.771,9.771,0,0,0-6.646,1.011c-.409.205-.868.621-1.223.548-.435-.088-.3-.767-.453-1.175-.465-1.229-.886-2.474-1.352-3.792" transform="translate(-45.311 -62.978)" fill="#b20d0d"/>
      <path id="Trazado_700735" data-name="Trazado 700735" d="M131.8,178.21v-4.388c.959.72,1.845,1.379,2.723,2.049.136.1.181.25,0,.378L131.8,178.21" transform="translate(-62.106 -81.906)" fill="#ffc403"/>
      <path id="Trazado_700736" data-name="Trazado 700736" d="M207.467,122.9c-.006-.6.038-1.2.028-1.8a2.145,2.145,0,0,1,1.364-1.621,7.466,7.466,0,0,1,1.694-.2q5.943-.008,11.886-.008c2,0,2.886,1.016,2.873,2.878-.011,1.734.044,3.47-.013,5.2-.094,2.824-1.042,5.211-3.661,6.677a5.622,5.622,0,0,1-2.668.728c-1.65.031-3.3.049-4.952,0a6.466,6.466,0,0,1-5.8-3.742,7.831,7.831,0,0,1-.741-3.771c-.005-1.36.093-2.72-.015-4.08.145-.087.15-.175,0-.264m8.854.791c-1.3,0-2.594.005-3.891,0-.316,0-.569.01-.559.429.033,1.467.026,2.936.09,4.4a2.119,2.119,0,0,0,1.976,1.889c1.516.008,3.033.006,4.548-.048a2.178,2.178,0,0,0,2.361-2.4c.025-1.25-.016-2.5.015-3.75.012-.469-.188-.531-.582-.526-1.319.018-2.638.007-3.958.007" transform="translate(-97.758 -56.199)"/>
      <path id="Trazado_700737" data-name="Trazado 700737" d="M207.331,126.128c.148.089.143.177,0,.264-.2-.09-.2-.178,0-.264" transform="translate(-97.623 -59.432)" fill="#656566"/>
      <path id="Trazado_700738" data-name="Trazado 700738" d="M89.06,35.377c2.135,0,4.27-.007,6.405,0a2.168,2.168,0,0,1,2.225,1.33,4.362,4.362,0,0,1,.212,1.526c.024,2.5-.016,5.006.031,7.508.038,2.057-.686,2.895-2.918,2.917-3.192.032-6.384.015-9.575,0a23.442,23.442,0,0,1-3.624-.1,1.99,1.99,0,0,1-1.6-1.77c-.019-3.007,0-6.015-.035-9.022a2.253,2.253,0,0,1,2.477-2.384c2.135-.017,4.271,0,6.406-.005m-.035,4.477c-1.341,0-2.683.007-4.024-.005-.31,0-.467.025-.456.415.034,1.183.026,2.368.012,3.552,0,.337.1.471.445.467,2.682-.026,5.364-.049,8.046-.052.334,0,.4-.105.394-.407-.019-1.162-.037-2.325-.006-3.487.012-.431-.136-.5-.521-.491-1.3.023-2.594.009-3.891.008" transform="translate(-37.78 -16.668)"/>
      <path id="Trazado_700739" data-name="Trazado 700739" d="M220.246,127.618c1.319,0,2.638.011,3.958-.007.394-.005.593.057.582.526-.032,1.25.01,2.5-.015,3.75a2.178,2.178,0,0,1-2.361,2.4c-1.514.053-3.032.055-4.548.048a2.119,2.119,0,0,1-1.976-1.89c-.063-1.466-.057-2.935-.09-4.4-.01-.419.243-.431.559-.429,1.3.009,2.594,0,3.891,0" transform="translate(-101.683 -60.131)" fill="#b20d0d"/>
      <path id="Trazado_700740" data-name="Trazado 700740" d="M92.916,43.841c1.3,0,2.595.014,3.891-.009.384-.007.533.06.521.491-.031,1.161-.013,2.324.006,3.486,0,.3-.061.407-.394.408-2.682,0-5.364.025-8.046.052-.347,0-.449-.131-.445-.467.014-1.184.022-2.369-.012-3.552-.011-.389.146-.418.456-.415,1.341.012,2.683,0,4.024.005" transform="translate(-41.671 -20.653)" fill="#f8f9fb"/>
    </g>
  </g>
</svg>
