<svg id="Grupo_974401" data-name="Grupo 974401" xmlns="http://www.w3.org/2000/svg" xmlns:xlink="http://www.w3.org/1999/xlink" width="162.637" height="164" viewBox="0 0 162.637 164">
  <defs>
    <clipPath id="clip-path">
      <rect id="Rectángulo_340263" data-name="Rectángulo 340263" width="162.637" height="164" fill="none"/>
    </clipPath>
  </defs>
  <g id="Grupo_974398" data-name="Grupo 974398">
    <g id="Grupo_974397" data-name="Grupo 974397" clip-path="url(#clip-path)">
      <path id="Trazado_700806" data-name="Trazado 700806" d="M178.909,71.861A71.619,71.619,0,1,1,107.29,0a71.739,71.739,0,0,1,71.619,71.86" transform="translate(-16.272 0)" fill="#ffdeb8"/>
    </g>
  </g>
  <g id="Grupo_974400" data-name="Grupo 974400">
    <g id="Grupo_974399" data-name="Grupo 974399" clip-path="url(#clip-path)">
      <path id="Trazado_700807" data-name="Trazado 700807" d="M53.714,140.927l-7.367,7.5c.5.486,1.065,1.024,1.619,1.57a6.52,6.52,0,0,1,2.04,3.733,5.389,5.389,0,0,1-1.393,4.76c-1.661,1.723-3.361,3.411-5.073,5.085a1.838,1.838,0,0,1-2.912-.04c-1.065-1.04-2.1-2.111-3.205-3.224-.209.179-.4.32-.564.486Q26.081,171.586,15.3,182.373a8.833,8.833,0,0,1-14.472-2.5,8.269,8.269,0,0,1,1.64-9.54c3.305-3.495,6.766-6.843,10.169-10.245q5.942-5.942,11.906-11.863c.317-.315.229-.509-.04-.775q-1.4-1.382-2.766-2.792a1.915,1.915,0,0,1,.009-3.113q2.247-2.305,4.509-4.6a6.035,6.035,0,0,1,8.68-.039c.641.628,1.267,1.273,1.835,1.846l7.6-7.35c-.973-.945-1.848-1.791-2.719-2.643a7.514,7.514,0,0,1-.39-10.644q2.257-2.342,4.593-4.607a.958.958,0,0,0,.266-1.229,49.078,49.078,0,0,1-3.475-19.115,47.979,47.979,0,0,1,1.259-9.513c.048-.216.094-.432.153-.7a4.265,4.265,0,0,0-.5-.064c-11.951.007-23.9-.006-35.854.039A7.5,7.5,0,0,1,.436,77.7,9.426,9.426,0,0,1,.08,75.163C.053,68.048.069,60.931.063,53.815A7.374,7.374,0,0,1,6.7,46.433c.586-.028,1.171-.106,1.757-.106q26.266-.009,52.53,0c2.389,0,4.61.516,6.219,2.429a25.169,25.169,0,0,1,1.809,2.829c.525-.238,1.156-.518,1.781-.808a48.048,48.048,0,0,1,63.873,24.205,48.255,48.255,0,0,1,3.965,14.837,48.378,48.378,0,0,1-17.658,42,47.18,47.18,0,0,1-23.543,10.234,48.484,48.484,0,0,1-10.2.4,47.586,47.586,0,0,1-14.425-3.4.859.859,0,0,0-1.111.225c-1.4,1.47-2.819,2.93-4.267,4.356a7.448,7.448,0,0,1-10.841.046c-.928-.891-1.858-1.779-2.875-2.751M69.162,72.783H69.2c0,.9.022,1.807,0,2.71a7.33,7.33,0,0,1-4.4,6.759,9.029,9.029,0,0,1-4.506.656.849.849,0,0,0-.965.687,30.981,30.981,0,0,0-1.562,14.675,32.059,32.059,0,0,0,11.3,21.155A33.088,33.088,0,0,0,119.283,77.82a32.876,32.876,0,0,0-14.712-13.454,29.069,29.069,0,0,0-9.711-2.757,35.551,35.551,0,0,0-9.515.087,33.043,33.043,0,0,0-15.732,7.08,1.352,1.352,0,0,0-.431.892c-.053,1.036-.02,2.077-.02,3.116M55.3,82.887h-.872c-1.875,0-3.75.021-5.624-.011-.48-.008-.655.127-.774.6a45.165,45.165,0,0,0-1.217,14.24,43.366,43.366,0,0,0,3.78,14.93,43.829,43.829,0,0,0,13,16.565,42.625,42.625,0,0,0,21.335,8.916,43.813,43.813,0,0,0,40.106-15.9,42.53,42.53,0,0,0,9.538-23.255,43.605,43.605,0,0,0-2.457-19.834,42.932,42.932,0,0,0-16.17-20.861,43.835,43.835,0,0,0-30.121-7.621,42.864,42.864,0,0,0-16.163,5.061.827.827,0,0,0-.507.845c.033,2.145.036,4.291.05,6.437,0,.283,0,.567,0,1.008a37.837,37.837,0,0,1,12.8-5.767,36.08,36.08,0,0,1,13.98-.666,38.244,38.244,0,0,1,13.192,4.452,37.285,37.285,0,0,1-29.891,67.9,36.059,36.059,0,0,1-18.578-13.5C53.395,106.19,51.76,95,55.3,82.887M34.721,78.854v.013q13.383,0,26.766,0a4.824,4.824,0,0,0,1.075-.086,3.338,3.338,0,0,0,2.573-3.583c0-6.752-.061-13.506.034-20.257.036-2.619-1.076-4.656-4.642-4.63-13.732.1-27.465.051-41.2.06-3.908,0-7.815-.01-11.723.035a3.291,3.291,0,0,0-3.493,3.426c-.038,1.2-.012,2.393-.011,3.59.005,5.94-.011,11.88.032,17.819a3.421,3.421,0,0,0,3.754,3.616H34.721m-7.012,71.841c-.143.129-.279.243-.4.368Q16.711,161.649,6.122,172.239a11.846,11.846,0,0,0-1.008,1.1,4.518,4.518,0,0,0-.513,4.971,4.564,4.564,0,0,0,4.19,2.739,5.35,5.35,0,0,0,4.1-1.908Q23.309,168.708,33.745,158.3a10.085,10.085,0,0,1,.865-.7l-6.9-6.906m20.509-33.817a2.662,2.662,0,0,0-.387.257c-1.1,1.1-2.213,2.194-3.3,3.31-1.812,1.862-1.778,3.707.069,5.554q7.353,7.352,14.7,14.711a3.459,3.459,0,0,0,5.266.06c1.176-1.122,2.33-2.267,3.489-3.408a1.7,1.7,0,0,0,.205-.35,48.074,48.074,0,0,1-20.044-20.134M30.6,138.864a11.325,11.325,0,0,0-1.684,1.083c-.957.891-1.827,1.875-2.753,2.8-.307.307-.239.477.046.761q7.75,7.72,15.469,15.473c.335.337.521.318.817.017.919-.933,1.866-1.838,2.773-2.782,1.151-1.2,1.134-2.13-.018-3.343-.28-.294-.572-.577-.86-.864-1.793-1.782-3.593-3.558-5.379-5.348-2.249-2.253-4.472-4.532-6.745-6.761a9.353,9.353,0,0,0-1.665-1.037m20.424-.954-3.792-3.558-7.344,7.262,3.68,3.757,7.455-7.461" transform="translate(0 -21.13)"/>
      <path id="Trazado_700808" data-name="Trazado 700808" d="M162.832,234.269c8.854,0,17.709.013,26.564-.005,4.726-.009,7.933,2.947,7.986,7.662.08,7.068.054,14.138.008,21.207a7.149,7.149,0,0,1-4.427,7,9.123,9.123,0,0,1-3.551.7q-26.7.064-53.4.025a7.4,7.4,0,0,1-7.545-5.833,10.131,10.131,0,0,1-.176-2.087c-.009-6.865-.021-13.731.023-20.6a10.36,10.36,0,0,1,.473-3.251,7.274,7.274,0,0,1,6.938-4.814c5.127-.012,10.255,0,15.382,0q5.862,0,11.723,0Zm.072,4.059H141.22c-1.852,0-3.7-.018-5.556.007a3.237,3.237,0,0,0-3.326,3.217q-.011,10.942,0,21.885a3.277,3.277,0,0,0,2.653,3.231,11.824,11.824,0,0,0,2.156.138q25.208.011,50.416.005c.858,0,1.717.007,2.575-.022a3.249,3.249,0,0,0,3.209-3.2c.042-1.2.022-2.393.022-3.59,0-6.052-.037-12.105.018-18.158a3.721,3.721,0,0,0-3.648-3.546c-8.944.071-17.889.032-26.834.032" transform="translate(-58.519 -106.863)"/>
      <path id="Trazado_700809" data-name="Trazado 700809" d="M117.388,85.374c0-1.039-.033-2.08.02-3.116a1.352,1.352,0,0,1,.431-.892,33.043,33.043,0,0,1,15.731-7.08,35.55,35.55,0,0,1,9.515-.087,29.069,29.069,0,0,1,9.711,2.757,32.946,32.946,0,0,1,19.1,30.682,33.028,33.028,0,0,1-54.609,24.379,32.057,32.057,0,0,1-11.3-21.155,30.987,30.987,0,0,1,1.561-14.675.851.851,0,0,1,.965-.688,9.024,9.024,0,0,0,4.506-.655,7.329,7.329,0,0,0,4.4-6.759c.027-.9,0-1.807,0-2.71h-.036m16.06,24.69c-.46-.463-.816-.807-1.156-1.167-2.157-2.278-4.325-4.546-6.46-6.845a7.4,7.4,0,0,0-4.185-2.426A6.667,6.667,0,0,0,113.9,106a7.162,7.162,0,0,0,2.245,5.19c2.2,2.268,4.367,4.571,6.547,6.86,2.071,2.175,4.121,4.371,6.222,6.516a5.887,5.887,0,0,0,3.733,1.729,6.912,6.912,0,0,0,5.976-2.4q7.845-8.384,15.734-16.726c2.511-2.658,5.054-5.284,7.592-7.916a7.373,7.373,0,0,0,1.933-3.432,6.658,6.658,0,0,0-7.086-8.074,7.217,7.217,0,0,0-4.551,2.547q-8.826,9.276-17.663,18.54c-.372.39-.73.794-1.137,1.238" transform="translate(-48.225 -33.721)" fill="#9cfdff"/>
      <path id="Trazado_700810" data-name="Trazado 700810" d="M94.471,86.307c-3.539,12.109-1.905,23.3,5.413,33.533a36.051,36.051,0,0,0,18.578,13.5,37.306,37.306,0,0,0,29.891-67.9,38.248,38.248,0,0,0-13.192-4.452,36.079,36.079,0,0,0-13.98.666,37.831,37.831,0,0,0-12.8,5.766c0-.441,0-.724,0-1.008-.013-2.145-.017-4.291-.049-6.437a.826.826,0,0,1,.507-.844A42.867,42.867,0,0,1,125,54.072a43.833,43.833,0,0,1,30.121,7.62,42.932,42.932,0,0,1,16.17,20.861,43.6,43.6,0,0,1,2.457,19.834,42.532,42.532,0,0,1-9.538,23.255,43.817,43.817,0,0,1-40.106,15.9,42.63,42.63,0,0,1-21.335-8.917,43.828,43.828,0,0,1-13-16.565,43.365,43.365,0,0,1-3.78-14.93A45.162,45.162,0,0,1,87.2,86.892c.119-.469.293-.6.773-.6,1.875.033,3.75.013,5.625.012h.872" transform="translate(-39.171 -24.55)" fill="#ffc403"/>
      <path id="Trazado_700811" data-name="Trazado 700811" d="M38.155,82.2H11.321A3.421,3.421,0,0,1,7.566,78.58c-.042-5.939-.025-11.879-.03-17.819,0-1.2-.027-2.394.01-3.59a3.292,3.292,0,0,1,3.494-3.426c3.907-.046,7.815-.033,11.722-.035,13.733-.01,27.466.038,41.2-.061,3.566-.026,4.679,2.012,4.642,4.63-.095,6.752-.029,13.505-.033,20.258A3.339,3.339,0,0,1,66,82.12a4.785,4.785,0,0,1-1.075.086q-13.383.007-26.766,0ZM38,75.407v.008q11.044,0,22.087,0a7.776,7.776,0,0,0,1.479-.123,1.925,1.925,0,0,0,.359-3.657,3.986,3.986,0,0,0-1.379-.266q-22.393-.02-44.787,0a5.417,5.417,0,0,0-1.2.141,1.912,1.912,0,0,0-1.494,1.926,1.941,1.941,0,0,0,1.572,1.867,8.6,8.6,0,0,0,1.482.109q10.943.011,21.885,0m6.88-10.836q7.558,0,15.115,0a8.458,8.458,0,0,0,1.548-.12A1.942,1.942,0,0,0,63.1,62.63a2,2,0,0,0-1.339-1.92,4.3,4.3,0,0,0-1.262-.193q-15.387-.015-30.774,0a5.1,5.1,0,0,0-1.271.157,1.958,1.958,0,0,0,.034,3.792,4.83,4.83,0,0,0,1.139.1q7.625.009,15.25,0m-26.273-.1v.1c1.105,0,2.211.022,3.315-.007a2.01,2.01,0,0,0,1.941-1.223,1.862,1.862,0,0,0-.329-2.079,2.408,2.408,0,0,0-1.955-.752q-2.977-.014-5.954,0a4.254,4.254,0,0,0-1.133.153,1.826,1.826,0,0,0-1.384,1.5,1.858,1.858,0,0,0,1.583,2.269c1.3.107,2.61.025,3.916.025" transform="translate(-3.433 -24.473)" fill="#fff"/>
      <path id="Trazado_700812" data-name="Trazado 700812" d="M31.138,238.241l6.9,6.906a10.075,10.075,0,0,0-.865.7Q26.74,256.258,16.321,266.685a5.349,5.349,0,0,1-4.1,1.908,4.565,4.565,0,0,1-4.191-2.739,4.518,4.518,0,0,1,.513-4.971,11.849,11.849,0,0,1,1.008-1.1q10.589-10.593,21.185-21.178c.125-.125.26-.238.4-.368" transform="translate(-3.428 -108.677)" fill="#ffc403"/>
      <path id="Trazado_700813" data-name="Trazado 700813" d="M84.449,176.059a48.074,48.074,0,0,0,20.044,20.134,1.678,1.678,0,0,1-.205.35c-1.158,1.14-2.313,2.285-3.489,3.408a3.46,3.46,0,0,1-5.267-.061q-7.347-7.36-14.7-14.711c-1.846-1.846-1.88-3.692-.068-5.554,1.087-1.116,2.2-2.211,3.3-3.31a2.7,2.7,0,0,1,.386-.257" transform="translate(-36.231 -80.312)" fill="#ffc403"/>
      <path id="Trazado_700814" data-name="Trazado 700814" d="M52.369,216.489a9.367,9.367,0,0,1,1.664,1.037c2.273,2.229,4.5,4.508,6.745,6.761,1.786,1.789,3.586,3.565,5.379,5.348.288.287.58.569.86.864,1.153,1.213,1.17,2.144.019,3.342-.907.945-1.854,1.85-2.774,2.783-.3.3-.482.319-.817-.017q-7.713-7.757-15.468-15.473c-.284-.283-.353-.454-.046-.761.926-.925,1.8-1.909,2.753-2.8a11.361,11.361,0,0,1,1.685-1.083" transform="translate(-21.773 -98.755)" fill="#ffc403"/>
      <path id="Trazado_700815" data-name="Trazado 700815" d="M84.475,211.75l-7.455,7.461-3.68-3.757,7.344-7.262,3.792,3.558" transform="translate(-33.455 -94.97)" fill="#ffc403"/>
      <path id="Trazado_700816" data-name="Trazado 700816" d="M166.3,241.71c8.944,0,17.889.04,26.834-.032a3.723,3.723,0,0,1,3.648,3.546c-.055,6.052-.018,12.1-.019,18.158,0,1.2.02,2.394-.021,3.59a3.249,3.249,0,0,1-3.209,3.2c-.858.03-1.716.022-2.575.022q-25.208,0-50.416,0a11.923,11.923,0,0,1-2.156-.138,3.279,3.279,0,0,1-2.653-3.232q-.01-10.943,0-21.884a3.238,3.238,0,0,1,3.325-3.217c1.852-.024,3.7-.006,5.557-.007H166.3m-.146,17.628q-11.246,0-22.492,0a4.494,4.494,0,0,0-.94.081,1.943,1.943,0,0,0-1.57,1.936,1.986,1.986,0,0,0,1.6,1.919,6.2,6.2,0,0,0,1.207.116q22.289.009,44.578-.006a4.714,4.714,0,0,0,1.516-.256,1.847,1.847,0,0,0,1.219-1.847,2.04,2.04,0,0,0-1.482-1.82,5.137,5.137,0,0,0-1.139-.121q-11.247-.01-22.492,0m7.129-10.843v.006q-7.687,0-15.374,0a6.473,6.473,0,0,0-1.078.067,1.885,1.885,0,0,0-1.652,1.783,2.048,2.048,0,0,0,1.463,2.044,5,5,0,0,0,1.269.151q15.339.011,30.679-.005a4.484,4.484,0,0,0,1.512-.276,1.848,1.848,0,0,0,1.159-1.885,2.032,2.032,0,0,0-1.468-1.76,5.064,5.064,0,0,0-1.139-.123q-7.687-.011-15.374,0m-26.71.01V248.5c-1.083,0-2.166-.007-3.249,0a2.02,2.02,0,1,0,.013,4.029c2.231.075,4.467.05,6.7.009a2.074,2.074,0,0,0,2.1-1.584,2.028,2.028,0,0,0-2.115-2.439c-1.149-.046-2.3-.009-3.451-.009" transform="translate(-61.914 -110.245)" fill="#fff"/>
      <path id="Trazado_700817" data-name="Trazado 700817" d="M140.311,121.624c.407-.444.765-.848,1.137-1.238q8.83-9.27,17.663-18.54a7.221,7.221,0,0,1,4.551-2.547,6.658,6.658,0,0,1,7.086,8.074,7.387,7.387,0,0,1-1.933,3.432c-2.538,2.631-5.082,5.258-7.592,7.915q-7.886,8.346-15.734,16.726a6.911,6.911,0,0,1-5.976,2.4,5.887,5.887,0,0,1-3.733-1.729c-2.1-2.145-4.151-4.341-6.223-6.516-2.18-2.289-4.345-4.592-6.547-6.86a7.159,7.159,0,0,1-2.245-5.19,6.667,6.667,0,0,1,7.745-6.368,7.4,7.4,0,0,1,4.185,2.426c2.135,2.3,4.3,4.567,6.46,6.845.34.359.7.7,1.156,1.167M124.83,117.5a2.9,2.9,0,0,0,1.084,2.463q6.059,6.392,12.128,12.776c1.456,1.53,2.885,1.54,4.38.023,1.538-1.56,3.071-3.124,4.574-4.718,4.213-4.469,8.4-8.962,12.616-13.427,2.124-2.249,4.311-4.44,6.434-6.69a2.673,2.673,0,0,0-.017-3.879,2.6,2.6,0,0,0-3.8.262c-1.013,1.031-2.005,2.081-3,3.131q-8.536,9.039-17.068,18.081c-1.324,1.4-2.372,1.425-3.732.046-.888-.9-1.73-1.845-2.6-2.765-2.185-2.316-4.359-4.643-6.567-6.937a2.617,2.617,0,0,0-4.44,1.635" transform="translate(-55.088 -45.281)"/>
      <path id="Trazado_700818" data-name="Trazado 700818" d="M42.64,90.257q-10.942,0-21.884,0a8.71,8.71,0,0,1-1.482-.109A1.942,1.942,0,0,1,17.7,88.276,1.912,1.912,0,0,1,19.2,86.35a5.418,5.418,0,0,1,1.205-.141q22.393-.011,44.786.005a3.979,3.979,0,0,1,1.38.266,1.925,1.925,0,0,1-.36,3.656,7.778,7.778,0,0,1-1.479.123q-11.044.011-22.087.005v-.008" transform="translate(-8.075 -39.323)"/>
      <path id="Trazado_700819" data-name="Trazado 700819" d="M61.215,70.325q-7.625,0-15.25,0a4.831,4.831,0,0,1-1.139-.1,1.959,1.959,0,0,1-.034-3.792,5.129,5.129,0,0,1,1.271-.156q15.387-.012,30.774,0a4.315,4.315,0,0,1,1.262.193,2,2,0,0,1,1.339,1.92A1.942,1.942,0,0,1,77.879,70.2a8.505,8.505,0,0,1-1.548.12q-7.558.012-15.115.006" transform="translate(-19.77 -30.227)"/>
      <path id="Trazado_700820" data-name="Trazado 700820" d="M23.257,70.218c-1.306,0-2.619.082-3.916-.025a1.858,1.858,0,0,1-1.583-2.269,1.826,1.826,0,0,1,1.384-1.5,4.253,4.253,0,0,1,1.133-.153q2.977-.022,5.954,0a2.408,2.408,0,0,1,1.955.752,1.862,1.862,0,0,1,.329,2.079,2.01,2.01,0,0,1-1.941,1.223c-1.1.029-2.21.007-3.315.007v-.1" transform="translate(-8.085 -30.223)"/>
      <path id="Trazado_700821" data-name="Trazado 700821" d="M170.7,274.151q11.246,0,22.492,0a5.1,5.1,0,0,1,1.139.121,2.04,2.04,0,0,1,1.483,1.82,1.847,1.847,0,0,1-1.219,1.847,4.728,4.728,0,0,1-1.516.256q-22.289.02-44.578.006a6.244,6.244,0,0,1-1.207-.116,1.985,1.985,0,0,1-1.6-1.92,1.941,1.941,0,0,1,1.57-1.935,4.459,4.459,0,0,1,.94-.081q11.247-.007,22.492,0" transform="translate(-66.463 -125.058)"/>
      <path id="Trazado_700822" data-name="Trazado 700822" d="M189.6,254.211q7.687,0,15.374.005a5.067,5.067,0,0,1,1.139.122,2.034,2.034,0,0,1,1.468,1.76,1.848,1.848,0,0,1-1.16,1.885,4.481,4.481,0,0,1-1.511.275q-15.34.024-30.68.005a5.027,5.027,0,0,1-1.269-.151,2.049,2.049,0,0,1-1.463-2.044,1.885,1.885,0,0,1,1.651-1.782,6.428,6.428,0,0,1,1.078-.067q7.687-.007,15.374,0Z" transform="translate(-78.228 -115.962)"/>
      <path id="Trazado_700823" data-name="Trazado 700823" d="M151.113,254.218c1.151,0,2.3-.037,3.451.009a2.028,2.028,0,0,1,2.115,2.439,2.074,2.074,0,0,1-2.1,1.584c-2.233.041-4.469.066-6.7-.009a2.02,2.02,0,1,1-.013-4.029c1.083-.01,2.166,0,3.249,0v.009" transform="translate(-66.455 -115.959)"/>
      <path id="Trazado_700824" data-name="Trazado 700824" d="M128.239,120.925a2.617,2.617,0,0,1,4.44-1.635c2.208,2.294,4.382,4.621,6.567,6.937.868.92,1.71,1.865,2.6,2.765,1.361,1.38,2.408,1.357,3.732-.046q8.535-9.039,17.068-18.081c.992-1.05,1.984-2.1,3-3.131a2.6,2.6,0,0,1,3.8-.262,2.673,2.673,0,0,1,.017,3.879c-2.123,2.25-4.31,4.441-6.434,6.69-4.217,4.465-8.4,8.959-12.616,13.427-1.5,1.593-3.036,3.158-4.574,4.718-1.5,1.517-2.924,1.507-4.38-.023q-6.071-6.381-12.128-12.776a2.9,2.9,0,0,1-1.084-2.462" transform="translate(-58.497 -48.703)" fill="#b20d0d"/>
    </g>
  </g>
</svg>
