<svg xmlns="http://www.w3.org/2000/svg" xmlns:xlink="http://www.w3.org/1999/xlink" width="134.103" height="130.333" viewBox="0 0 134.103 130.333">
  <defs>
    <clipPath id="clip-path">
      <rect id="Rectángulo_349144" data-name="Rectángulo 349144" width="128.321" height="128.333" fill="none"/>
    </clipPath>
  </defs>
  <g id="Grupo_974331" data-name="Grupo 974331" transform="translate(-394 -1336)">
    <path id="Trazado_700600" data-name="Trazado 700600" d="M64.167,0a64.269,64.269,0,0,1,55.039,31.162A64.174,64.174,0,1,1,64.167,0Z" transform="translate(395 1337)" fill="#ffc403" stroke="#8d0a0a" stroke-linejoin="round" stroke-width="2"/>
    <g id="Grupo_974809" data-name="Grupo 974809" transform="translate(399.782 1337)">
      <g id="Grupo_974808" data-name="Grupo 974808" clip-path="url(#clip-path)">
        <path id="Trazado_705156" data-name="Trazado 705156" d="M0,64.908Q0,42.15,0,19.391a8.573,8.573,0,0,1,7.89-8.665c.623-.057,1.251-.088,1.876-.089q6.8-.01,13.6.007a1.321,1.321,0,0,0,1.2-.568,4.127,4.127,0,0,1,3.395-1.589q4.044-.025,8.087.006c.415,0,.6-.079.728-.531A10.34,10.34,0,0,1,46.68.01c5.159-.2,9.035,2.8,10.585,7.629a1.008,1.008,0,0,0,1.192.862c2.527-.049,5.056-.021,7.584-.019a4.356,4.356,0,0,1,3.719,1.839.881.881,0,0,0,.586.357c2.736,0,5.473-.03,8.209-.041,2.257-.01,4.514-.019,6.77,0a8.5,8.5,0,0,1,8.5,6.531,10.2,10.2,0,0,1,.3,2.415q.029,12.382,0,24.765c0,.378.011.616.509.634a69.627,69.627,0,0,1,22.2,4.628,59.075,59.075,0,0,1,8.706,4.1,5.063,5.063,0,0,1,2.755,5.18,127.354,127.354,0,0,1-9.111,39.095,80.643,80.643,0,0,1-6.849,12.715,52.418,52.418,0,0,1-9.778,11.278,44.9,44.9,0,0,1-8.162,5.677,4.869,4.869,0,0,1-5.164-.132,50.846,50.846,0,0,1-9.563-7.25,1.492,1.492,0,0,0-1.16-.452q-34.76.013-69.518.01A8.507,8.507,0,0,1,1.1,115.317,9.158,9.158,0,0,1,0,110.676Q-.005,87.792,0,64.908M12.857,23.572c-.015.184-.034.306-.034.428q0,11.44.008,22.88,0,29.274,0,58.548c0,1.517,0,1.513,1.528,1.513q27.013,0,54.026-.005c.275,0,.55-.029.911-.05-.141-.27-.225-.433-.31-.594-.939-1.768-1.954-3.5-2.8-5.311a107.428,107.428,0,0,1-7.007-20.371,135.528,135.528,0,0,1-3.493-21.92,4.707,4.707,0,0,1,2.506-4.8,62.084,62.084,0,0,1,13.769-5.9c3.036-.884,6.133-1.555,9.26-2.337V23.612c-.067-.043-.083-.063-.1-.063-3.614-.007-7.228-.016-10.842-.006a.727.727,0,0,0-.493.276,4.07,4.07,0,0,1-3.245,1.742c-1.126.034-2.255.008-3.383.008q-17.486.013-34.972.028a4.415,4.415,0,0,1-3.792-1.815.811.811,0,0,0-.579-.241c-3.51-.014-7.02-.011-10.53-.009-.122,0-.244.023-.425.04M91.742,49.044c-2.932.24-5.882.348-8.793.744a62.251,62.251,0,0,0-22.326,7.545,1.122,1.122,0,0,0-.7,1.229c.223,2.033.359,4.077.648,6.1.513,3.592,1.021,7.189,1.7,10.752a105.276,105.276,0,0,0,3.908,14.415c3.143,9.171,7.4,17.706,13.985,24.933a44.783,44.783,0,0,0,10.531,8.707,2.438,2.438,0,0,0,2.882-.178,49.4,49.4,0,0,0,15.314-14.924,76.148,76.148,0,0,0,8.172-16.358A109.571,109.571,0,0,0,122.6,70.735c.642-4.1,1-8.242,1.5-12.364a.869.869,0,0,0-.544-.95c-1.217-.643-2.413-1.329-3.652-1.928a65.243,65.243,0,0,0-28.156-6.449M23.537,15c-5.2,0-10.338-.019-15.475.025a3.817,3.817,0,0,0-1.813.564c-1.587.944-2.02,2.458-2.019,4.23q.03,45.109.023,90.217c0,.439-.007.88.032,1.316a4.254,4.254,0,0,0,2.085,3.577,6.023,6.023,0,0,0,3.159.587q14.605,0,29.211,0,17.866.008,35.731.03c.2,0,.394-.024.731-.045a27.127,27.127,0,0,1-2-2.713,2.927,2.927,0,0,0-3.008-1.537c-15.545.067-31.091.042-46.636.042-3.427,0-6.854.018-10.28-.007a4.513,4.513,0,0,1-4.753-4.517q0-41.566.006-83.132a4.693,4.693,0,0,1,.19-1.293,4.29,4.29,0,0,1,4.457-3.124c3.2-.021,6.394,0,9.591,0h.766Zm4.269-2.2c0,2.519-.007,4.9,0,7.281.005,1.273.017,1.272,1.313,1.272q14.166,0,28.332,0,4.136,0,8.274.024c.4,0,.664-.017.657-.555-.031-2.256-.018-4.513-.021-6.77,0-.406,0-.813,0-1.263h-.748c-3.134,0-6.268.018-9.4-.008a3.787,3.787,0,0,1-1.568-.31,2.179,2.179,0,0,1-1.126-2.092,6.47,6.47,0,0,0-8.283-5.918,6.576,6.576,0,0,0-4.613,6.006,2.167,2.167,0,0,1-2.216,2.3c-.4.028-.793.035-1.19.036q-3.918,0-7.835,0H27.806M85.613,45.238c1.155-.086,2.254-.174,3.354-.247.883-.058.891-.05.891-.963q0-6.579,0-13.158c0-3.78.03-7.561,0-11.341-.02-2.7-1.708-4.526-4.223-4.541-4.824-.029-9.649,0-14.474,0-.4,0-.56.114-.552.531.02,1,.027,2.006-.009,3.008-.02.556.176.7.725.7,3.133-.028,6.266-.041,9.4,0a5.929,5.929,0,0,1,2.251.393c1.968.859,2.624,2.554,2.621,4.587q-.017,10.215-.032,20.429c0,.181.029.361.05.607" transform="translate(0 0)" fill="#161615"/>
        <path id="Trazado_705157" data-name="Trazado 705157" d="M25.526,46.819c.181-.018.3-.04.425-.04,3.51,0,7.02-.006,10.53.009a.81.81,0,0,1,.579.241,4.414,4.414,0,0,0,3.792,1.815q17.486-.02,34.972-.027c1.128,0,2.257.026,3.383-.008a4.069,4.069,0,0,0,3.244-1.743.729.729,0,0,1,.493-.276c3.614-.01,7.228,0,10.842.006.017,0,.034.021.1.063V68.905c-3.127.781-6.224,1.453-9.26,2.337a62.055,62.055,0,0,0-13.769,5.9,4.708,4.708,0,0,0-2.506,4.8,135.535,135.535,0,0,0,3.493,21.921,107.476,107.476,0,0,0,7.007,20.371c.851,1.81,1.866,3.543,2.8,5.311.086.161.169.323.31.594-.362.021-.636.05-.911.05q-27.013,0-54.026.005c-1.531,0-1.528,0-1.528-1.513q0-29.274,0-58.548,0-11.44-.008-22.88c0-.122.019-.244.034-.428M70.343,66.006V66q7.142,0,14.283-.006a5.333,5.333,0,0,0,1.361-.146A2.044,2.044,0,0,0,87.512,63.8,2.106,2.106,0,0,0,85.8,61.827a7.144,7.144,0,0,0-1.307-.1q-14.189-.008-28.378,0a6.425,6.425,0,0,0-1.058.085,2.1,2.1,0,0,0-1.044,3.619A2.674,2.674,0,0,0,56.123,66q7.11.007,14.22,0M36.161,99.4a5.779,5.779,0,0,0-.451-.542,2.128,2.128,0,0,0-3.036-.088,2.021,2.021,0,0,0,0,3.006c.657.727,1.369,1.4,2.063,2.1a1.743,1.743,0,0,0,1.765.56,3.787,3.787,0,0,0,1.468-.883c2.68-2.631,5.325-5.3,7.978-7.958a4.061,4.061,0,0,0,.484-.572,2.033,2.033,0,0,0-.759-3.036,2.152,2.152,0,0,0-2.747.638c-2.227,2.226-4.449,4.456-6.766,6.778m.2,17.215c-.365-.333-.556-.519-.759-.691a2.057,2.057,0,0,0-2.976.008,2.016,2.016,0,0,0,.036,2.965c.678.736,1.392,1.442,2.129,2.119a1.99,1.99,0,0,0,2.78.077,8.854,8.854,0,0,0,.747-.665q3.564-3.563,7.118-7.136a9.287,9.287,0,0,0,.986-1.13,2.008,2.008,0,0,0-.587-2.939,2.07,2.07,0,0,0-2.768.442q-3.2,3.171-6.37,6.379a2.8,2.8,0,0,0-.337.571m-.2-51.394a7.706,7.706,0,0,0-.754-.833,2.028,2.028,0,0,0-2.729.109,1.95,1.95,0,0,0-.2,2.763A31.827,31.827,0,0,0,35,69.776a1.811,1.811,0,0,0,2.315.1,4.508,4.508,0,0,0,.667-.564q3.988-3.979,7.966-7.97a3.621,3.621,0,0,0,.617-.781,2.043,2.043,0,0,0-1.81-3.021,2.494,2.494,0,0,0-1.785.909c-2.232,2.223-4.466,4.444-6.8,6.772m.086,17.133c-.213-.238-.356-.416-.517-.574a2.069,2.069,0,0,0-3.021-.166,2.042,2.042,0,0,0-.018,3.059c.536.585,1.1,1.141,1.672,1.7,1.375,1.344,2.344,1.345,3.7,0q2.287-2.278,4.557-4.572c1.208-1.214,2.446-2.4,3.613-3.653a2.065,2.065,0,1,0-3.111-2.709c-2.27,2.28-4.533,4.566-6.872,6.923M61.941,113.1v-.009c-1.171,0-2.341,0-3.511,0-1.044,0-2.091-.028-3.133.025a2.091,2.091,0,0,0-.243,4.154,5.965,5.965,0,0,0,1.059.087q5.7.008,11.408,0a2.98,2.98,0,0,0,1.233-.134,3.152,3.152,0,0,0,1.345-1.011,2.042,2.042,0,0,0-1.766-3.1c-2.13-.051-4.262-.013-6.393-.013m-2.206-12.881v.036c.689,0,1.377,0,2.065,0,.709,0,1.42.011,2.128-.024a2.145,2.145,0,1,0-.018-4.286c-2.775-.029-5.55-.02-8.325,0a2.141,2.141,0,0,0-1.808.838,1.956,1.956,0,0,0-.33,2.055,2.013,2.013,0,0,0,1.845,1.375c1.481.027,2.962.007,4.443.007m-1.111-17.1v.011c1.043,0,2.086.018,3.128,0a2.086,2.086,0,0,0,2.213-2.3,2.156,2.156,0,0,0-2.23-1.94c-2.064-.019-4.129-.022-6.193.009a2.786,2.786,0,0,0-1.189.317,2.031,2.031,0,0,0-1.012,2.171,2.146,2.146,0,0,0,2.031,1.731c1.082.043,2.168.01,3.253.01" transform="translate(-12.669 -23.247)" fill="#ffe8ce"/>
        <path id="Trazado_705158" data-name="Trazado 705158" d="M150.936,97.5a65.24,65.24,0,0,1,28.156,6.449c1.239.6,2.435,1.285,3.652,1.928a.87.87,0,0,1,.544.951c-.5,4.122-.855,8.265-1.5,12.364a109.57,109.57,0,0,1-5.535,21.275,76.166,76.166,0,0,1-8.172,16.358,49.4,49.4,0,0,1-15.314,14.924,2.437,2.437,0,0,1-2.882.178,44.769,44.769,0,0,1-10.531-8.707c-6.584-7.227-10.842-15.762-13.985-24.933a105.313,105.313,0,0,1-3.907-14.415c-.68-3.563-1.187-7.16-1.7-10.752-.289-2.023-.425-4.067-.648-6.1a1.121,1.121,0,0,1,.7-1.229,62.245,62.245,0,0,1,22.326-7.545c2.91-.4,5.86-.505,8.792-.744m-27.086,13.73c.027.437.024.731.065,1.02.444,3.076.824,6.164,1.358,9.225a93.157,93.157,0,0,0,6.284,21.174,65.37,65.37,0,0,0,8.616,14.489,47.836,47.836,0,0,0,8.292,8.416,3.993,3.993,0,0,0,5.63-.1,54.708,54.708,0,0,0,9.953-10.621,72.931,72.931,0,0,0,9.358-18.887,113.2,113.2,0,0,0,5.076-23.632,4.618,4.618,0,0,0-3.067-5.231c-2.579-.95-5.132-1.993-7.757-2.8A54.647,54.647,0,0,0,156,102.1a59.866,59.866,0,0,0-19.2,1.63,57.089,57.089,0,0,0-10.32,3.6,4.136,4.136,0,0,0-2.628,3.907" transform="translate(-59.194 -48.455)" fill="#06d1d1"/>
        <path id="Trazado_705159" data-name="Trazado 705159" d="M27.716,29.806v4.213h-.765c-3.2,0-6.394-.017-9.591,0A4.29,4.29,0,0,0,12.9,37.147a4.693,4.693,0,0,0-.19,1.293q-.013,41.566-.006,83.132a4.514,4.514,0,0,0,4.753,4.517c3.426.025,6.853.007,10.28.007,15.545,0,31.091.025,46.636-.042a2.926,2.926,0,0,1,3.008,1.537,27.125,27.125,0,0,0,2,2.713c-.338.022-.534.045-.731.045q-17.865-.014-35.731-.03-14.605-.008-29.211,0a6.024,6.024,0,0,1-3.159-.587,4.254,4.254,0,0,1-2.085-3.577c-.039-.436-.032-.877-.032-1.316q-.007-45.108-.023-90.217c0-1.773.432-3.287,2.019-4.23a3.817,3.817,0,0,1,1.813-.564c5.138-.044,10.276-.025,15.475-.025" transform="translate(-4.179 -14.811)" fill="#bebebe"/>
        <path id="Trazado_705160" data-name="Trazado 705160" d="M55.277,16.964h1.577q3.918,0,7.836,0c.4,0,.794-.008,1.19-.036a2.166,2.166,0,0,0,2.216-2.3A6.577,6.577,0,0,1,72.708,8.63a6.47,6.47,0,0,1,8.282,5.918,2.179,2.179,0,0,0,1.126,2.092,3.8,3.8,0,0,0,1.568.31c3.134.025,6.268.01,9.4.008h.748c0,.449,0,.856,0,1.263,0,2.257-.011,4.513.02,6.77.007.538-.255.557-.657.554q-4.137-.023-8.274-.024-14.166-.005-28.332,0c-1.3,0-1.308,0-1.313-1.272-.009-2.381,0-4.762,0-7.281" transform="translate(-27.47 -4.164)" fill="#bebebe"/>
        <path id="Trazado_705161" data-name="Trazado 705161" d="M155.365,60.034c-.021-.246-.05-.427-.05-.607q.013-10.215.032-20.429c0-2.033-.652-3.728-2.621-4.587a5.929,5.929,0,0,0-2.251-.393c-3.132-.04-6.266-.027-9.4,0-.549.005-.745-.143-.725-.7.036-1,.028-2.006.009-3.008-.008-.417.149-.532.552-.531,4.825.007,9.649-.024,14.474,0,2.516.015,4.2,1.838,4.223,4.541.028,3.78,0,7.56,0,11.341q0,6.579,0,13.158c0,.912-.008.9-.891.963-1.1.073-2.2.161-3.354.247" transform="translate(-69.752 -14.796)" fill="#bebebe"/>
        <path id="Trazado_705162" data-name="Trazado 705162" d="M97.823,80.77q-7.111,0-14.221,0a2.677,2.677,0,0,1-2.109-.576,2.1,2.1,0,0,1,1.045-3.619,6.47,6.47,0,0,1,1.057-.085q14.189-.007,28.378,0a7.145,7.145,0,0,1,1.307.1,2.106,2.106,0,0,1,1.711,1.974,2.044,2.044,0,0,1-1.525,2.047,5.322,5.322,0,0,1-1.362.146q-7.142.015-14.282.007Z" transform="translate(-40.148 -38.012)" fill="#161615"/>
        <path id="Trazado_705163" data-name="Trazado 705163" d="M42.6,143.793c2.317-2.322,4.539-4.552,6.766-6.778a2.151,2.151,0,0,1,2.747-.638,2.033,2.033,0,0,1,.759,3.035,4.065,4.065,0,0,1-.484.572c-2.653,2.658-5.3,5.326-7.978,7.957a3.8,3.8,0,0,1-1.468.883,1.744,1.744,0,0,1-1.765-.56c-.694-.693-1.406-1.37-2.063-2.1a2.021,2.021,0,0,1,0-3.006,2.127,2.127,0,0,1,3.036.088,5.832,5.832,0,0,1,.451.542" transform="translate(-19.105 -67.646)" fill="#161615"/>
        <path id="Trazado_705164" data-name="Trazado 705164" d="M42.782,177.954a2.772,2.772,0,0,1,.337-.571q3.174-3.2,6.37-6.379a2.07,2.07,0,0,1,2.768-.442,2.007,2.007,0,0,1,.587,2.938,9.3,9.3,0,0,1-.986,1.13q-3.551,3.576-7.118,7.137a8.841,8.841,0,0,1-.747.665,1.99,1.99,0,0,1-2.78-.077c-.737-.676-1.451-1.382-2.129-2.118a2.016,2.016,0,0,1-.036-2.965,2.057,2.057,0,0,1,2.976-.009c.2.172.393.358.759.691" transform="translate(-19.092 -84.592)" fill="#161615"/>
        <path id="Trazado_705165" data-name="Trazado 705165" d="M42.587,75.844c2.339-2.327,4.573-4.548,6.8-6.772a2.493,2.493,0,0,1,1.785-.908,2.043,2.043,0,0,1,1.81,3.021,3.618,3.618,0,0,1-.617.78q-3.976,3.993-7.966,7.97a4.508,4.508,0,0,1-.667.564,1.811,1.811,0,0,1-2.316-.1,31.908,31.908,0,0,1-2.516-2.522,1.95,1.95,0,0,1,.2-2.763,2.028,2.028,0,0,1,2.729-.109,7.7,7.7,0,0,1,.754.833" transform="translate(-19.094 -33.876)" fill="#161615"/>
        <path id="Trazado_705166" data-name="Trazado 705166" d="M42.689,109.862c2.339-2.358,4.6-4.643,6.872-6.923a2.065,2.065,0,1,1,3.111,2.709c-1.167,1.253-2.4,2.439-3.613,3.653q-2.277,2.288-4.557,4.572c-1.354,1.348-2.323,1.346-3.7,0-.567-.555-1.136-1.111-1.672-1.7a2.043,2.043,0,0,1,.018-3.06,2.069,2.069,0,0,1,3.021.167c.161.158.3.336.517.574" transform="translate(-19.111 -50.761)" fill="#161615"/>
        <path id="Trazado_705167" data-name="Trazado 705167" d="M89.406,178.6c2.131,0,4.263-.038,6.393.013a2.042,2.042,0,0,1,1.765,3.1,3.151,3.151,0,0,1-1.344,1.011,2.981,2.981,0,0,1-1.233.134q-5.7.014-11.409,0a5.961,5.961,0,0,1-1.058-.087,2.091,2.091,0,0,1,.242-4.154c1.042-.053,2.089-.023,3.133-.025,1.171,0,2.341,0,3.511,0v.009" transform="translate(-40.135 -88.756)" fill="#161615"/>
        <path id="Trazado_705168" data-name="Trazado 705168" d="M87.193,148.771c-1.481,0-2.962.02-4.443-.007a2.013,2.013,0,0,1-1.845-1.375,1.956,1.956,0,0,1,.33-2.055,2.141,2.141,0,0,1,1.808-.838c2.775-.02,5.55-.028,8.324,0a2.145,2.145,0,1,1,.018,4.286c-.708.034-1.419.021-2.128.024-.688,0-1.377,0-2.065,0v-.036" transform="translate(-40.127 -71.803)" fill="#161615"/>
        <path id="Trazado_705169" data-name="Trazado 705169" d="M86.1,114.826c-1.085,0-2.17.033-3.253-.01a2.146,2.146,0,0,1-2.031-1.731,2.031,2.031,0,0,1,1.012-2.171,2.786,2.786,0,0,1,1.189-.317c2.064-.031,4.129-.028,6.193-.009a2.156,2.156,0,0,1,2.23,1.94,2.086,2.086,0,0,1-2.213,2.3c-1.042.022-2.085,0-3.128,0v-.011" transform="translate(-40.14 -54.954)" fill="#161615"/>
        <path id="Trazado_705170" data-name="Trazado 705170" d="M128.536,115.59a4.136,4.136,0,0,1,2.628-3.907,57.1,57.1,0,0,1,10.32-3.6,59.861,59.861,0,0,1,19.2-1.63,54.65,54.65,0,0,1,11.661,2.191c2.625.8,5.177,1.846,7.757,2.8a4.619,4.619,0,0,1,3.068,5.231,113.233,113.233,0,0,1-5.077,23.632,72.93,72.93,0,0,1-9.358,18.887,54.683,54.683,0,0,1-9.953,10.621,3.993,3.993,0,0,1-5.63.1,47.819,47.819,0,0,1-8.292-8.416,65.4,65.4,0,0,1-8.617-14.489,93.2,93.2,0,0,1-6.283-21.174c-.534-3.061-.914-6.149-1.358-9.225-.042-.289-.039-.584-.065-1.02m26.268-5.081c-1.333.1-3.527.2-5.7.443a53.964,53.964,0,0,0-15.924,4.376.544.544,0,0,0-.4.661c.173,1.3.287,2.615.465,3.917a99.745,99.745,0,0,0,4.933,20.656,62.273,62.273,0,0,0,11.957,20.76c1.641,1.824,3.569,3.39,5.362,5.078a.511.511,0,0,0,.806,0c.739-.645,1.543-1.218,2.258-1.887a56.224,56.224,0,0,0,12.165-17.1,86.211,86.211,0,0,0,6-17.542A114.107,114.107,0,0,0,179,115.984a.829.829,0,0,0-.433-.617,56.687,56.687,0,0,0-23.768-4.858" transform="translate(-63.88 -52.816)" fill="#161615"/>
        <path id="Trazado_705171" data-name="Trazado 705171" d="M158.986,114.695a56.69,56.69,0,0,1,23.768,4.858.827.827,0,0,1,.432.617,114,114,0,0,1-2.276,13.89,86.177,86.177,0,0,1-6,17.543,56.225,56.225,0,0,1-12.165,17.1c-.715.669-1.519,1.242-2.258,1.887a.512.512,0,0,1-.807,0c-1.792-1.688-3.72-3.255-5.361-5.078a62.273,62.273,0,0,1-11.957-20.76,99.745,99.745,0,0,1-4.933-20.656c-.179-1.3-.292-2.614-.465-3.918a.544.544,0,0,1,.4-.661,54,54,0,0,1,15.924-4.376c2.178-.239,4.372-.342,5.7-.442m11.929,14.97a7.078,7.078,0,0,0-.923-1.508,2.016,2.016,0,0,0-3.1.441c-1.452,1.887-2.865,3.8-4.295,5.708-2.207,2.939-4.423,5.872-6.616,8.822-.329.443-.53.458-.9.046-.614-.683-1.284-1.315-1.937-1.962a2.052,2.052,0,0,0-2.969-.188,1.989,1.989,0,0,0-.174,2.964c1.469,1.567,3.022,3.06,4.6,4.522a1.8,1.8,0,0,0,2.417-.022,4.264,4.264,0,0,0,.72-.777c1.51-2,3.008-4.01,4.512-6.015,2.569-3.425,5.15-6.842,7.7-10.28a15.089,15.089,0,0,0,.966-1.751" transform="translate(-68.062 -57.001)" fill="#ffc403"/>
        <path id="Trazado_705172" data-name="Trazado 705172" d="M183.231,142.423a15.086,15.086,0,0,1-.966,1.751c-2.552,3.438-5.132,6.855-7.7,10.28-1.5,2.005-3,4.015-4.512,6.015a4.264,4.264,0,0,1-.72.777,1.8,1.8,0,0,1-2.417.022c-1.576-1.461-3.129-2.954-4.6-4.522a1.989,1.989,0,0,1,.174-2.964,2.052,2.052,0,0,1,2.969.188c.653.647,1.323,1.279,1.937,1.962.37.411.571.4.9-.046,2.193-2.95,4.408-5.883,6.616-8.822,1.43-1.9,2.843-3.82,4.295-5.708a2.016,2.016,0,0,1,3.1-.441,7.077,7.077,0,0,1,.923,1.508" transform="translate(-80.379 -69.76)" fill="#03a4a4"/>
      </g>
    </g>
  </g>
</svg>
