<svg id="Grupo_974369" data-name="Grupo 974369" xmlns="http://www.w3.org/2000/svg" xmlns:xlink="http://www.w3.org/1999/xlink" width="149.764" height="158.065" viewBox="0 0 149.764 158.065">
  <defs>
    <clipPath id="clip-path">
      <rect id="Rectángulo_340251" data-name="Rectángulo 340251" width="149.764" height="158.065" fill="none"/>
    </clipPath>
  </defs>
  <g id="Grupo_974366" data-name="Grupo 974366">
    <g id="Grupo_974365" data-name="Grupo 974365" clip-path="url(#clip-path)">
      <path id="Trazado_700661" data-name="Trazado 700661" d="M120.528,60.264A60.264,60.264,0,1,1,60.264,0a60.264,60.264,0,0,1,60.264,60.264" fill="#ffdeb8"/>
    </g>
  </g>
  <g id="Grupo_974368" data-name="Grupo 974368">
    <g id="Grupo_974367" data-name="Grupo 974367" clip-path="url(#clip-path)">
      <path id="Trazado_700662" data-name="Trazado 700662" d="M33.565,133.924c-.275-.018-.551-.051-.827-.051-4.695,0-9.39.033-14.084-.017a2.725,2.725,0,0,1-1.8-1.032,3.61,3.61,0,0,1-.735-3.665,23.18,23.18,0,0,0,.828-3.8.759.759,0,0,1,.132-.238c.285-1.147.575-2.294.853-3.444.261-1.075.527-2.148.76-3.228.632-2.923,1.472-5.8,2.055-8.733.214-1.077.575-2.141.834-3.222.264-1.1.554-2.2.823-3.306.262-1.074.528-2.148.761-3.228.631-2.924,1.475-5.8,2.055-8.734.208-1.056.563-2.1.81-3.157.259-1.105.563-2.2.833-3.3.383-1.564.753-3.132,1.127-4.7q.836-3.5,1.669-7.006c.559-2.35,1.108-4.7,1.677-7.049.549-2.261,1.145-4.51,1.666-6.777a32.286,32.286,0,0,1,1.07-3.87,3.232,3.232,0,0,1,3.37-2.126c1.722-.021,3.445-.013,5.168,0,.3,0,.433-.014.542-.391a14.345,14.345,0,0,1,8.4-9.6,16.969,16.969,0,0,1,5.613-1.182c.058,0,.113-.062.17-.095a.316.316,0,0,0,.489-.066c.454.388,1.043.25,1.56.364a16.882,16.882,0,0,1,4.249,1.383,15.976,15.976,0,0,1,3.8,2.559,13.274,13.274,0,0,1,2.421,3.358c-.122.325.208.371.335.543.333.9.676,1.787,1,2.688.112.313.24.481.626.471,1.443-.039,2.887-.045,4.331-.034a.514.514,0,0,0,.59-.461,14.029,14.029,0,0,1,4.443-7.121,14.392,14.392,0,0,1,3.81-2.388A19.8,19.8,0,0,1,90.716,42a.8.8,0,0,0,.715.023,21.281,21.281,0,0,1,4.241.961,18.076,18.076,0,0,1,4.319,2.362,10.659,10.659,0,0,1,2.385,2.543c.378.532.682,1.116,1.019,1.677-.122.325.208.371.335.543.343.916.7,1.828,1.023,2.749.1.271.2.412.526.406,1.488-.03,2.977-.038,4.466-.038.3,0,.393-.08.488-.391a15.771,15.771,0,0,1,2.7-5.322,13.788,13.788,0,0,1,8.241-5.1c1.081-.224,2.184-.168,3.247-.441a.316.316,0,0,0,.489-.066c.482.38,1.088.273,1.629.371a14.3,14.3,0,0,1,8.806,4.862,14.674,14.674,0,0,1,2.894,5.58.664.664,0,0,0,.777.554c4.68-.03,9.36-.026,14.041-.038a3.418,3.418,0,0,1,3.19,1.609,4.619,4.619,0,0,1,.519,2.475q-.038,19.289-.065,38.578-.026,25.555-.039,51.11a25.163,25.163,0,0,1-.647,4.991,31.264,31.264,0,0,1-2.342,7.4,29.873,29.873,0,0,1-6.887,9.132,31.408,31.408,0,0,1-4.852,3.689,31.682,31.682,0,0,1-17.779,4.222,24.788,24.788,0,0,1-5.766-1.126A37.549,37.549,0,0,1,113,173.33a26.09,26.09,0,0,1-3.439-2.024,26.718,26.718,0,0,1-2.981-2.29,31.048,31.048,0,0,1-4.328-4.879,32.995,32.995,0,0,1-3.925-6.928,26.188,26.188,0,0,1-1.46-5.27,7.018,7.018,0,0,1-.27-1.874c.038-.414-.16-.534-.532-.521-.466.016-.932.013-1.4.013l-56.793,0a4.531,4.531,0,0,1-2.64-.658A4.759,4.759,0,0,1,33.85,147c-.332-.6-.059-1.183-.063-1.768-.024-3.478-.005-6.955,0-10.432a3.416,3.416,0,0,0-.034-.345c.07-.224.249-.486-.185-.536m49.824-51.6v.006H36.164c-.489,0-.978-.013-1.467-.015-.27,0-.513.044-.567.377-.352,2.2-.983,4.339-1.5,6.5-.975,4.036-1.983,8.065-2.959,12.1-.931,3.85-1.837,7.706-2.759,11.559Q25.333,119.431,23.75,126c-.289,1.2-.289,1.2.888,1.2l57.7,0q10.025,0,20.049,0a1.127,1.127,0,0,0,1.04-.4,28.223,28.223,0,0,1,5.736-5.283,25.936,25.936,0,0,1,6.939-3.686,32.388,32.388,0,0,1,7.913-1.725c.318-.026.463-.1.545-.466.547-2.443,1.095-4.886,1.741-7.309.755-2.835,1.342-5.714,2.024-8.569q1.258-5.265,2.552-10.521.782-3.195,1.6-6.382c.117-.456-.033-.58-.465-.56-.581.027-1.164.022-1.746.022H83.389m64.369,67.262v-.01c-.4,0-.792.012-1.187,0a3.494,3.494,0,0,1-3.316-3.3,3.335,3.335,0,0,1,3.3-3.427c.884-.034,1.771-.029,2.654.012.45.021.518-.138.429-.524-.189-.814-.294-1.655-.547-2.448-2.958-9.23-9.125-14.9-18.653-16.824-.5-.1-.571.021-.582.495a16.122,16.122,0,0,1-.107,3.055,3.45,3.45,0,0,1-3.095,2.808,3.516,3.516,0,0,1-3.386-2.577,13.692,13.692,0,0,1-.133-2.914c-.034-.882-.009-.883-.872-.819a2.281,2.281,0,0,0-.277.035,23.431,23.431,0,0,0-18.1,16.832c-.2.715-.3,1.451-.536,2.161-.086.261-.218.884.4.8a11.559,11.559,0,0,1,3.159.013,3.3,3.3,0,0,1,2.826,3.073,3.506,3.506,0,0,1-2.54,3.437,20.762,20.762,0,0,1-3.336.118c-.485.008-.6.171-.516.628a20.463,20.463,0,0,0,.961,3.544q4.74,12.841,18.13,15.585c.591.12.691-.1.693-.576,0-.84-.02-1.682.021-2.521a3.308,3.308,0,0,1,4.852-2.818,3.257,3.257,0,0,1,1.854,2.953,18.909,18.909,0,0,1,0,2.31c-.029.594.047.807.755.657,1.073-.227,2.112-.559,3.167-.839a18.816,18.816,0,0,0,4.05-1.793,21.489,21.489,0,0,0,7.634-6.785A23.09,23.09,0,0,0,149.61,150c.054-.375-.053-.4-.315-.407-.512-.007-1.024,0-1.537,0M117.321,59.944a7.785,7.785,0,0,0,4.936,4.221c.987.289,2,.129,2.982.5a3.279,3.279,0,0,1-.21,6.374,9.218,9.218,0,0,1-4.04-.306,14.64,14.64,0,0,1-7.957-4.979,11.53,11.53,0,0,1-2.66-5.1c-.128-.611-.464-.719-1.02-.718q-11.981.024-23.961.014c-.419,0-.839.016-1.257.012-.323,0-.352.12-.206.378a7.4,7.4,0,0,0,2.1,2.454,6.869,6.869,0,0,0,2.28,1.314,19.717,19.717,0,0,0,3.056.475A2.851,2.851,0,0,1,93,65.307a3.391,3.391,0,0,1-.123,5.081,4.717,4.717,0,0,1-3.9.706,21.529,21.529,0,0,1-3.291-.979,13.748,13.748,0,0,1-6.6-5.039,11.672,11.672,0,0,1-2.228-4.364c-.141-.627-.477-.778-1.1-.776q-11.981.035-23.962.016H50.268c1.243,3.032,4.574,4.5,7.185,4.592a3.046,3.046,0,0,1,1.889.658,3.314,3.314,0,0,1,1.079,3.648,3.444,3.444,0,0,1-3.16,2.308,13.247,13.247,0,0,1-5.954-1.285,13.455,13.455,0,0,1-4.62-3.353,14.353,14.353,0,0,1-3.462-6.177c-.091-.343-.252-.393-.531-.39-.792.008-1.584.031-2.375,0-.448-.016-.614.193-.7.589-.207.944-.452,1.881-.661,2.825-.839,3.785-1.948,7.5-2.731,11.3-.193.933-.2.932.768.94h.21q48.167.013,96.334.039c.485,0,.7-.118.8-.607.317-1.5.668-2.989,1.031-4.476.805-3.305,1.61-6.611,2.453-9.906.161-.629,0-.737-.593-.733-4.285.022-8.569.013-12.854.014h-7.056m32.717,67.329v-2.967q0-19.182,0-38.363,0-12.635.029-25.272c0-.556-.18-.738-.716-.727q-1.956.043-3.911.018a.632.632,0,0,0-.73.557c-.93,3.779-1.788,7.575-2.784,11.34-.7,2.663-1.351,5.349-1.966,8.04-.793,3.469-1.649,6.924-2.512,10.377-.565,2.263-1.142,4.526-1.672,6.795-.816,3.5-1.694,6.986-2.493,10.491-.626,2.749-1.318,5.485-2,8.222-.117.473.006.648.5.738a31.027,31.027,0,0,1,6.288,1.773c.77.318.789.317.79-.556q.006-7.631,0-15.262a11.126,11.126,0,0,1,.074-1.466,3.391,3.391,0,0,1,2.7-2.843,3.2,3.2,0,0,1,3.742,2.189,5.023,5.023,0,0,1,.239,1.792q-.005,10.012-.017,20.023a1.262,1.262,0,0,0,.5,1.079,20.984,20.984,0,0,1,2.645,2.589c.4.464.819.915,1.285,1.434m-80.277,6.6v.017q-14.288,0-28.575-.011c-.536,0-.708.128-.7.694.019,2.52.012,5.042-.049,7.561-.016.638.145.75.755.75q25.816-.024,51.631,0c1.094,0,2.188.021,3.282.04.284,0,.462-.018.5-.392a28.4,28.4,0,0,1,1.989-7.662c.388-1,.4-.994-.67-1H69.761M97.888,53.244a6.512,6.512,0,0,0-1.816-2.513,8.083,8.083,0,0,0-6.2-1.875,6.992,6.992,0,0,0-5.859,3.708c-.349.614-.306.691.385.69l11.1-.01h2.387m-33.536.018a6.494,6.494,0,0,0-1.805-2.521A8.114,8.114,0,0,0,56.1,48.87a6.978,6.978,0,0,0-5.74,3.882c-.169.314-.154.514.294.514,4.508-.007,9.016,0,13.694,0m59.98-.006c2.189,0,4.378-.01,6.567.008.449,0,.547-.117.328-.5a9.151,9.151,0,0,0-1.144-1.582,6.376,6.376,0,0,0-2.868-1.95,10.219,10.219,0,0,0-3.9-.376,7.474,7.474,0,0,0-5.82,3.808c-.322.518-.106.61.407.6,2.142-.019,4.285-.008,6.427-.007" transform="translate(-6.998 -18.424)"/>
      <path id="Trazado_700663" data-name="Trazado 700663" d="M89.411,114.032h46.876c.582,0,1.165.005,1.746-.022.432-.02.582.1.464.56q-.816,3.186-1.595,6.382-1.286,5.258-2.552,10.521c-.682,2.854-1.269,5.734-2.024,8.568-.645,2.423-1.193,4.865-1.741,7.309-.081.364-.226.44-.544.466a32.364,32.364,0,0,0-7.913,1.725,25.931,25.931,0,0,0-6.94,3.685,28.235,28.235,0,0,0-5.735,5.283,1.125,1.125,0,0,1-1.04.4q-10.025,0-20.049,0l-57.7,0c-1.177,0-1.177,0-.888-1.2q1.578-6.573,3.157-13.147c.922-3.852,1.828-7.709,2.759-11.559.976-4.036,1.983-8.064,2.959-12.1.522-2.162,1.153-4.3,1.5-6.5.053-.333.3-.379.567-.378.489,0,.978.015,1.467.015H89.411Zm-14.174,12.34v-.014c1.511,0,3.023.016,4.533-.006a3.606,3.606,0,0,0,2.558-.882,3.228,3.228,0,0,0,.853-3.52,3.1,3.1,0,0,0-3.141-2.247c-3-.063-6-.052-9-.008a3.264,3.264,0,0,0-3.083,4.235c.331,1.065,1.73,2.437,2.539,2.441,1.579.007,3.157,0,4.736,0m-22.252-.013v0c1.583,0,3.167.027,4.75-.011a3.29,3.29,0,0,0,2.259-.905,3.213,3.213,0,0,0,.819-3.533,3.1,3.1,0,0,0-3.144-2.213c-2.98-.047-5.964-.1-8.941.005a3.241,3.241,0,0,0-2.692,5.126,3,3,0,0,0,2.207,1.493c1.572.124,3.161.034,4.742.034m44.847-.02v.018c1.444,0,2.888.015,4.332-.005a3.628,3.628,0,0,0,2.552-.9,3.337,3.337,0,0,0,.8-3.606,3.144,3.144,0,0,0-3.176-2.144c-2.934-.049-5.869-.031-8.8-.011a3.15,3.15,0,0,0-2.683,1.349,3.077,3.077,0,0,0-.35,3.324,3.168,3.168,0,0,0,2.863,1.968c1.489.049,2.98.011,4.471.011M90.97,153.252h2.344c.7,0,1.4.012,2.093-.005a3.72,3.72,0,0,0,2.562-.871,3.263,3.263,0,0,0,.852-3.584,3.109,3.109,0,0,0-3.264-2.2c-2.882-.055-5.766-.02-8.649-.016a3.334,3.334,0,0,0-1.85.533,3.2,3.2,0,0,0-1.527,3.37,3.306,3.306,0,0,0,2.747,2.677c1.666.238,3.343.021,4.693.1M68.543,146.6a41.98,41.98,0,0,0-4.7.08,3.281,3.281,0,0,0-2.6,2.318,3.342,3.342,0,0,0,3.411,4.248c2.815.045,5.632.015,8.447,0A3.658,3.658,0,0,0,74.592,153a3.327,3.327,0,0,0-.979-6.386c-1.484-.082-2.977-.018-5.069-.018m24.792-6.8v.006c1.443,0,2.886.016,4.327-.006a3.605,3.605,0,0,0,2.558-.886,3.235,3.235,0,0,0,.848-3.525,3.064,3.064,0,0,0-3.1-2.236q-4.5-.095-9,0a3.328,3.328,0,0,0-3.263,3.3,3.436,3.436,0,0,0,3.372,3.354q2.129,0,4.257,0m22.543-6.673c-1.466,0-2.933-.024-4.4.006a3.33,3.33,0,0,0-3.256,4.287,3.439,3.439,0,0,0,3.461,2.39c2.862,0,5.726.084,8.585-.008a3.292,3.292,0,0,0,3.009-4.8,3.212,3.212,0,0,0-3.143-1.866c-1.418-.049-2.839-.011-4.258-.011m-44.776,0v0H69.078c-.838,0-1.677-.03-2.513.006a3.32,3.32,0,0,0-.15,6.63c3.2.037,6.412.158,9.617-.072a3.3,3.3,0,0,0-.6-6.558c-1.441-.053-2.886-.011-4.329-.011m49.2-13.446c-1.465,0-2.93-.019-4.394.006a3.163,3.163,0,0,0-2.976,1.8,3.111,3.111,0,0,0,.161,3.293,3.452,3.452,0,0,0,3.133,1.578c2.836,0,5.676.1,8.508-.016a3.3,3.3,0,0,0,3.012-4.8,3.216,3.216,0,0,0-3.119-1.859c-1.44-.044-2.883-.01-4.324-.01M48.809,139.81c1.489,0,2.978.027,4.466-.011a3.294,3.294,0,0,0,2.244-.9,3.215,3.215,0,0,0,.828-3.528,3.053,3.053,0,0,0-3.064-2.213c-3.023-.056-6.05-.087-9.071-.005a3.292,3.292,0,0,0-3.049,4.331,3.448,3.448,0,0,0,3.39,2.32c1.418.027,2.838.006,4.257.008m-2.364,13.463c1.657-.112,3.347.064,5.044-.123a3.2,3.2,0,0,0,2.664-4.212c-.445-1.558-1.685-2.351-3.539-2.362-2.746-.015-5.49-.01-8.236-.006a4.657,4.657,0,0,0-.9.089,3.29,3.29,0,0,0,.126,6.5c1.6.234,3.206.02,4.841.114" transform="translate(-13.02 -50.128)" fill="#fff"/>
      <path id="Trazado_700664" data-name="Trazado 700664" d="M216.313,213.261c.513,0,1.025-.005,1.537,0,.263,0,.369.032.315.407a23.082,23.082,0,0,1-4.138,9.933,21.49,21.49,0,0,1-7.634,6.786,18.814,18.814,0,0,1-4.05,1.793c-1.055.281-2.094.612-3.167.839-.708.15-.784-.063-.755-.658a18.9,18.9,0,0,0,0-2.309,3.257,3.257,0,0,0-1.854-2.953,3.308,3.308,0,0,0-4.852,2.818c-.041.839-.019,1.68-.021,2.52,0,.473-.1.7-.693.577q-13.414-2.724-18.13-15.585a20.483,20.483,0,0,1-.961-3.545c-.08-.456.031-.619.516-.628a20.829,20.829,0,0,0,3.336-.118,3.506,3.506,0,0,0,2.54-3.437,3.3,3.3,0,0,0-2.826-3.074,11.6,11.6,0,0,0-3.159-.013c-.623.086-.49-.537-.4-.8.234-.71.341-1.444.536-2.16a23.431,23.431,0,0,1,18.1-16.832,2.277,2.277,0,0,1,.277-.036c.863-.064.838-.063.872.819a13.686,13.686,0,0,0,.133,2.913,3.514,3.514,0,0,0,3.386,2.577,3.449,3.449,0,0,0,3.095-2.808,16.115,16.115,0,0,0,.107-3.054c.011-.473.08-.6.582-.495,9.528,1.927,15.694,7.593,18.653,16.823.254.793.358,1.634.547,2.449.09.385.021.544-.429.523-.883-.04-1.77-.046-2.654-.012a3.335,3.335,0,0,0-3.3,3.428,3.5,3.5,0,0,0,3.316,3.3c.4.015.792,0,1.187,0Zm-30.152-11.084a2.768,2.768,0,0,0-1.452.176,3.287,3.287,0,0,0-1.957,2.83A3.178,3.178,0,0,0,184.5,208.4c.671.383,1.371.686,2.06,1.023,2.23,1.093,4.442,2.222,6.665,3.329a3.491,3.491,0,0,0,4.711-1c2.649-2.688,5.3-5.375,7.977-8.034a4.606,4.606,0,0,0,1.434-2.619,3.489,3.489,0,0,0-2.816-3.463,4.263,4.263,0,0,0-3.566,1.509c-1.993,2.092-4.076,4.1-6.1,6.157a.776.776,0,0,1-1.078.185c-1.728-.9-3.476-1.765-5.226-2.623a3.636,3.636,0,0,0-2.4-.694" transform="translate(-75.554 -82.094)" fill="#ffc403"/>
      <path id="Trazado_700665" data-name="Trazado 700665" d="M133.178,74.091h7.056c4.285,0,8.569.008,12.854-.014.6,0,.754.1.593.733-.844,3.3-1.648,6.6-2.453,9.906-.363,1.488-.714,2.978-1.032,4.476-.1.489-.319.607-.8.607q-48.167-.034-96.334-.039h-.21c-.97-.009-.96-.007-.768-.94.783-3.8,1.892-7.518,2.731-11.3.21-.944.453-1.88.661-2.825.087-.4.253-.6.7-.589.791.027,1.583,0,2.375,0,.28,0,.44.047.531.391a14.346,14.346,0,0,0,3.462,6.177,13.457,13.457,0,0,0,4.621,3.353A13.245,13.245,0,0,0,73.117,85.3,3.444,3.444,0,0,0,76.276,83,3.314,3.314,0,0,0,75.2,79.348a3.043,3.043,0,0,0-1.889-.658C70.7,78.6,67.368,77.13,66.125,74.1h1.538q11.981,0,23.961-.016c.622,0,.959.149,1.1.776a11.675,11.675,0,0,0,2.229,4.364,13.746,13.746,0,0,0,6.6,5.039,21.579,21.579,0,0,0,3.292.979,4.715,4.715,0,0,0,3.9-.707,3.389,3.389,0,0,0,.123-5.08,2.848,2.848,0,0,0-1.646-.727,19.716,19.716,0,0,1-3.056-.475,6.858,6.858,0,0,1-2.28-1.314,7.4,7.4,0,0,1-2.1-2.454c-.147-.257-.117-.381.206-.378.419,0,.838-.012,1.257-.012q11.981,0,23.962-.014c.555,0,.892.106,1.02.718a11.526,11.526,0,0,0,2.66,5.1,14.639,14.639,0,0,0,7.957,4.979,9.212,9.212,0,0,0,4.041.305,3.279,3.279,0,0,0,.21-6.373c-.979-.372-2-.213-2.983-.5a7.784,7.784,0,0,1-4.935-4.221" transform="translate(-22.855 -32.571)" fill="#b20d0d"/>
      <path id="Trazado_700666" data-name="Trazado 700666" d="M240.543,141.43c-.466-.519-.884-.969-1.285-1.434a20.989,20.989,0,0,0-2.645-2.589,1.261,1.261,0,0,1-.5-1.078q.023-10.012.017-20.023a5.023,5.023,0,0,0-.239-1.792,3.2,3.2,0,0,0-3.742-2.189,3.391,3.391,0,0,0-2.7,2.843,11.224,11.224,0,0,0-.075,1.466q0,7.631,0,15.262c0,.874-.02.874-.79.556a30.994,30.994,0,0,0-6.288-1.774c-.494-.09-.617-.264-.5-.738.677-2.738,1.369-5.473,2-8.222.8-3.5,1.676-6.99,2.493-10.491.529-2.269,1.107-4.532,1.672-6.8.863-3.453,1.718-6.907,2.511-10.377.615-2.69,1.262-5.377,1.966-8.04,1-3.765,1.855-7.56,2.784-11.34a.632.632,0,0,1,.73-.557q1.955.026,3.912-.017c.536-.012.717.17.715.727q-.034,12.635-.029,25.272,0,19.182,0,38.363v2.967" transform="translate(-97.502 -32.582)" fill="#9cfdff"/>
      <path id="Trazado_700667" data-name="Trazado 700667" d="M89,206.051h28.155c1.07,0,1.058,0,.67.995a28.4,28.4,0,0,0-1.989,7.662c-.035.374-.213.4-.5.392-1.094-.019-2.188-.039-3.282-.04q-25.815-.009-51.63,0c-.61,0-.771-.112-.755-.75.061-2.519.068-5.041.049-7.561,0-.566.168-.695.7-.694q14.287.022,28.575.011Z" transform="translate(-26.238 -90.599)" fill="#9cfdff"/>
      <path id="Trazado_700668" data-name="Trazado 700668" d="M105.223,130.808c-1.578,0-3.157.005-4.736,0-.809,0-2.209-1.376-2.539-2.44a3.264,3.264,0,0,1,3.083-4.235c3-.044,6-.055,9,.007a3.1,3.1,0,0,1,3.141,2.248,3.23,3.23,0,0,1-.854,3.52,3.608,3.608,0,0,1-2.558.882c-1.51.022-3.022.006-4.533.006v.014" transform="translate(-43.005 -54.563)"/>
      <path id="Trazado_700669" data-name="Trazado 700669" d="M65.411,130.783c-1.582,0-3.171.09-4.742-.034a3,3,0,0,1-2.207-1.494,3.241,3.241,0,0,1,2.692-5.125c2.976-.109,5.961-.052,8.94-.005a3.1,3.1,0,0,1,3.145,2.213,3.213,3.213,0,0,1-.82,3.533,3.291,3.291,0,0,1-2.259.9c-1.582.038-3.166.011-4.749.011Z" transform="translate(-25.445 -54.552)"/>
      <path id="Trazado_700670" data-name="Trazado 700670" d="M145.351,130.779c-1.49,0-2.982.038-4.471-.011a3.168,3.168,0,0,1-2.863-1.968,3.077,3.077,0,0,1,.35-3.324,3.148,3.148,0,0,1,2.683-1.349c2.934-.02,5.869-.038,8.8.01a3.145,3.145,0,0,1,3.176,2.144,3.338,3.338,0,0,1-.8,3.606,3.628,3.628,0,0,1-2.552.9c-1.443.02-2.888.005-4.332.005v-.018" transform="translate(-60.538 -54.569)"/>
      <path id="Trazado_700671" data-name="Trazado 700671" d="M133.229,178.8c-1.35-.079-3.027.139-4.693-.1a3.306,3.306,0,0,1-2.747-2.676,3.2,3.2,0,0,1,1.527-3.37,3.335,3.335,0,0,1,1.85-.533c2.883,0,5.767-.039,8.649.016a3.109,3.109,0,0,1,3.264,2.2,3.264,3.264,0,0,1-.852,3.584,3.723,3.723,0,0,1-2.562.871c-.7.017-1.4,0-2.093.005h-2.344" transform="translate(-55.28 -75.672)"/>
      <path id="Trazado_700672" data-name="Trazado 700672" d="M93.307,172.139c2.092,0,3.585-.064,5.069.018a3.327,3.327,0,0,1,.979,6.386,3.648,3.648,0,0,1-1.483.245c-2.816.012-5.632.041-8.447,0a3.342,3.342,0,0,1-3.411-4.248,3.28,3.28,0,0,1,2.6-2.318,42,42,0,0,1,4.7-.08" transform="translate(-37.783 -75.672)"/>
      <path id="Trazado_700673" data-name="Trazado 700673" d="M137.356,154.782c-1.419,0-2.839,0-4.257,0a3.435,3.435,0,0,1-3.372-3.354,3.328,3.328,0,0,1,3.263-3.3q4.5-.094,9,0a3.063,3.063,0,0,1,3.1,2.236,3.236,3.236,0,0,1-.848,3.524,3.605,3.605,0,0,1-2.558.886c-1.442.022-2.885.006-4.327.006v-.006" transform="translate(-57.04 -65.113)"/>
      <path id="Trazado_700674" data-name="Trazado 700674" d="M177.449,148.117c1.419,0,2.84-.038,4.258.011a3.212,3.212,0,0,1,3.143,1.866,3.292,3.292,0,0,1-3.009,4.8c-2.859.092-5.723.005-8.585.008a3.439,3.439,0,0,1-3.461-2.39,3.33,3.33,0,0,1,3.256-4.287c1.465-.03,2.932-.006,4.4-.006" transform="translate(-74.59 -65.12)"/>
      <path id="Trazado_700675" data-name="Trazado 700675" d="M97.575,148.12c1.443,0,2.888-.042,4.329.011a3.3,3.3,0,0,1,.6,6.557c-3.2.23-6.412.109-9.617.072a3.321,3.321,0,0,1,.15-6.63c.837-.036,1.675-.006,2.514-.006h2.025Z" transform="translate(-39.492 -65.12)"/>
      <path id="Trazado_700676" data-name="Trazado 700676" d="M185.375,124.123c1.442,0,2.884-.035,4.324.01a3.216,3.216,0,0,1,3.12,1.859,3.3,3.3,0,0,1-3.012,4.8c-2.831.118-5.671.017-8.508.015a3.453,3.453,0,0,1-3.134-1.578,3.112,3.112,0,0,1-.16-3.293,3.162,3.162,0,0,1,2.976-1.8c1.464-.025,2.929-.006,4.394-.006" transform="translate(-78.094 -54.57)"/>
      <path id="Trazado_700677" data-name="Trazado 700677" d="M57.738,154.792c-1.42,0-2.839.021-4.258-.006a3.448,3.448,0,0,1-3.389-2.32,3.292,3.292,0,0,1,3.049-4.332c3.022-.082,6.049-.05,9.071.005a3.054,3.054,0,0,1,3.064,2.214,3.213,3.213,0,0,1-.829,3.527,3.287,3.287,0,0,1-2.244.9c-1.487.039-2.976.011-4.465.009" transform="translate(-21.949 -65.112)"/>
      <path id="Trazado_700678" data-name="Trazado 700678" d="M53.618,178.824c-1.636-.094-3.245.12-4.841-.114a3.29,3.29,0,0,1-.126-6.5,4.658,4.658,0,0,1,.9-.089c2.746,0,5.49-.009,8.236.006,1.854.011,3.095.8,3.539,2.362a3.2,3.2,0,0,1-2.664,4.212c-1.7.187-3.387.011-5.044.123" transform="translate(-20.194 -75.679)"/>
      <path id="Trazado_700679" data-name="Trazado 700679" d="M194.718,210.75a3.635,3.635,0,0,1,2.4.694c1.75.858,3.5,1.722,5.226,2.623a.776.776,0,0,0,1.078-.185c2.027-2.059,4.11-4.064,6.1-6.157a4.263,4.263,0,0,1,3.566-1.509,3.489,3.489,0,0,1,2.816,3.463,4.606,4.606,0,0,1-1.434,2.619c-2.678,2.659-5.328,5.346-7.977,8.034a3.491,3.491,0,0,1-4.71,1c-2.223-1.107-4.435-2.236-6.665-3.329-.689-.337-1.389-.64-2.06-1.023a3.178,3.178,0,0,1-1.753-3.221,3.287,3.287,0,0,1,1.957-2.83,2.768,2.768,0,0,1,1.452-.176" transform="translate(-84.111 -90.667)"/>
    </g>
  </g>
</svg>
