<svg id="Grupo_974094" data-name="Grupo 974094" xmlns="http://www.w3.org/2000/svg" xmlns:xlink="http://www.w3.org/1999/xlink" width="136.575" height="140" viewBox="0 0 136.575 140">
  <defs>
    <clipPath id="clip-path">
      <rect id="Rectángulo_340157" data-name="Rectángulo 340157" width="136.575" height="140" fill="none"/>
    </clipPath>
  </defs>
  <g id="Grupo_974093" data-name="Grupo 974093" clip-path="url(#clip-path)">
    <path id="Trazado_700038" data-name="Trazado 700038" d="M137.731,62.856A62.856,62.856,0,1,1,74.875,0a62.856,62.856,0,0,1,62.856,62.856" transform="translate(-1.156)" fill="#ffdeb8"/>
    <path id="Trazado_700039" data-name="Trazado 700039" d="M28.972,154.9l.223-.051a.961.961,0,0,1-.233.006Z" transform="translate(-2.786 -14.898)" fill="#fff"/>
    <path id="Trazado_700040" data-name="Trazado 700040" d="M21.136,47.672l2.428,10.6,8.565-1.962L30.982,51.3,28.22,55.014l-3.4-2.749A1.133,1.133,0,1,1,26.248,50.5l1.563,1.263,2.506-3.37L29.7,45.71Z" transform="translate(-2.033 -4.398)" fill="#ffc403"/>
    <path id="Trazado_700041" data-name="Trazado 700041" d="M26.264,70.06l2.428,10.6L37.257,78.7,36.11,73.689,33.348,77.4l-3.4-2.749a1.133,1.133,0,1,1,1.425-1.761l1.562,1.264,2.507-3.371L34.829,68.1Z" transform="translate(-2.527 -6.552)" fill="#ffc403"/>
    <path id="Trazado_700042" data-name="Trazado 700042" d="M37.042,117.119l2.428,10.6,8.565-1.962-1.147-5.01-2.762,3.713-3.4-2.748a1.133,1.133,0,0,1,1.425-1.762l1.562,1.264,2.507-3.37-.615-2.685Z" transform="translate(-3.564 -11.079)" fill="#ffc403"/>
    <path id="Trazado_700043" data-name="Trazado 700043" d="M115.677,134.987l.737-.169-.084-.366a.969.969,0,0,1-.653.535" transform="translate(-11.129 -12.935)" fill="#fff"/>
    <path id="Trazado_700044" data-name="Trazado 700044" d="M73.285,21.71a.967.967,0,0,1-1.157-.729L71.26,17.19l-8.225,1.884.869,3.791a.964.964,0,1,1-1.88.43L61.156,19.5l-8.22,1.883.869,3.791a.964.964,0,1,1-1.88.43l-.869-3.791L42.835,23.7l.869,3.791a.964.964,0,1,1-1.88.43l-.868-3.791-8.222,1.884L33.6,29.8a.964.964,0,1,1-1.88.431l-.868-3.791-8.221,1.883.868,3.791a.964.964,0,1,1-1.879.43l-.869-3.79-8.224,1.884.869,3.79a.964.964,0,1,1-1.88.431l-.869-3.791L4.595,32.46,28.979,138.921l74.611-17.089L79.207,15.371,73.14,16.76l.868,3.791a.967.967,0,0,1-.723,1.16M50.348,104,46.508,109.2l1.715,7.489a.966.966,0,0,1-.724,1.16L37.235,120.2a.967.967,0,0,1-1.156-.729l-2.823-12.326a.967.967,0,0,1,.724-1.16l10.264-2.351a.966.966,0,0,1,1.156.729l.453,1.976,2.711-3.667a1.108,1.108,0,0,1,1.553-.228,1.122,1.122,0,0,1,.23,1.562M45.41,82.449l-3.839,5.193,1.715,7.489a.966.966,0,0,1-.724,1.16L32.3,98.643a.967.967,0,0,1-1.156-.729L28.32,85.588a.967.967,0,0,1,.723-1.16l10.264-2.351a.966.966,0,0,1,1.156.729l.453,1.977,2.711-3.668a1.108,1.108,0,0,1,1.554-.228,1.122,1.122,0,0,1,.23,1.562M40.756,62.128l-3.839,5.193,1.715,7.489a.967.967,0,0,1-.724,1.16L27.643,78.32a.967.967,0,0,1-1.156-.729L23.665,65.266a.966.966,0,0,1,.723-1.16l10.264-2.352a.967.967,0,0,1,1.156.729l.453,1.977,2.711-3.668a1.107,1.107,0,0,1,1.553-.227,1.121,1.121,0,0,1,.23,1.562M36.192,42.2,32.353,47.4l1.715,7.489a.967.967,0,0,1-.724,1.16L23.08,58.4a.966.966,0,0,1-1.156-.729L19.1,45.343a.966.966,0,0,1,.723-1.16l10.264-2.351a.965.965,0,0,1,1.156.729l.453,1.977,2.711-3.668a1.107,1.107,0,0,1,1.553-.228,1.121,1.121,0,0,1,.23,1.562m50.78,64.613-31.434,7.2c-.334.076-.7-.285-.821-.806s.053-1.007.388-1.084l31.435-7.2c.334-.077.7.285.821.806s-.054,1.007-.389,1.083m-1.15-5.686-23.912,5.477c-.254.058-.557-.318-.676-.84s-.011-.991.243-1.049l23.912-5.477c.254-.059.557.317.676.839s.011.992-.243,1.05m-1.261-4.84-31.435,7.2c-.333.076-.7-.285-.821-.806s.054-1.007.388-1.083l31.435-7.2c.334-.076.7.285.821.806s-.054,1.007-.388,1.084m-2.526-11.03L50.6,92.463c-.333.076-.7-.285-.821-.806s.054-1.007.388-1.084l31.435-7.2c.333-.076.7.285.821.806s-.054,1.007-.388,1.083m-1.151-5.686L56.973,85.053c-.254.058-.557-.318-.676-.84s-.011-.991.243-1.049l23.912-5.477c.254-.059.557.317.676.839s.011.992-.243,1.05m-1.261-4.84-31.435,7.2c-.334.076-.7-.285-.82-.806s.053-1.007.388-1.083l31.434-7.2c.334-.076.7.285.821.806s-.053,1.007-.388,1.084m-2.243-9.8-31.435,7.2c-.334.077-.7-.285-.821-.806s.054-1.007.388-1.083l31.435-7.2c.333-.076.7.285.821.806s-.054,1.007-.388,1.084M76.23,59.254,52.319,64.731c-.254.058-.557-.317-.676-.84s-.011-.991.243-1.049L75.8,57.365c.254-.058.557.318.676.84s.011.991-.243,1.049m-1.261-4.84-31.435,7.2c-.333.077-.7-.285-.821-.806s.054-1.006.388-1.083l31.435-7.2c.334-.077.7.285.821.806s-.054,1.006-.388,1.083m-2.152-9.4-31.435,7.2c-.334.077-.7-.285-.821-.806s.054-1.006.388-1.083l31.435-7.2c.334-.077.7.285.821.806s-.054,1.006-.388,1.083m-1.151-5.686L47.756,44.807c-.254.059-.557-.317-.676-.839s-.011-.992.243-1.05l23.912-5.477c.254-.058.557.318.676.84s.011.991-.243,1.05m-1.261-4.841-31.435,7.2c-.334.077-.7-.285-.821-.806s.054-1.006.389-1.083l31.434-7.2c.334-.077.7.285.821.806s-.054,1.006-.388,1.083" transform="translate(-0.442 -1.479)" fill="#d4fffd"/>
    <path id="Trazado_700045" data-name="Trazado 700045" d="M31.494,92.9l2.428,10.6,8.565-1.962L41.34,96.526l-2.762,3.713-3.4-2.749a1.133,1.133,0,0,1,1.425-1.761l1.562,1.264,2.507-3.371-.615-2.685Z" transform="translate(-3.03 -8.749)" fill="#ffc403"/>
    <path id="Trazado_700046" data-name="Trazado 700046" d="M80.084,11.9a.984.984,0,0,0-1.179-.739L71.748,12.8l.439,1.918,6.2-1.419,24.765,108.124L26.93,138.882,2.166,30.756,8.352,29.34l-.439-1.919L.766,29.058a.985.985,0,0,0-.74,1.179l25.2,110.043a1.087,1.087,0,0,0,1.179.739l78.139-17.9a1.023,1.023,0,0,0,.74-1.179Z" transform="translate(0 -1.071)" fill="#303030"/>
    <rect id="Rectángulo_340151" data-name="Rectángulo 340151" width="8.615" height="1.968" transform="translate(40.79 18.819) rotate(-12.899)" fill="#303030"/>
    <rect id="Rectángulo_340152" data-name="Rectángulo 340152" width="8.615" height="1.968" transform="translate(20.153 23.546) rotate(-12.899)" fill="#303030"/>
    <rect id="Rectángulo_340153" data-name="Rectángulo 340153" width="8.614" height="1.968" transform="translate(51.108 16.456) rotate(-12.9)" fill="#303030"/>
    <rect id="Rectángulo_340154" data-name="Rectángulo 340154" width="8.615" height="1.968" transform="translate(30.472 21.183) rotate(-12.899)" fill="#303030"/>
    <rect id="Rectángulo_340155" data-name="Rectángulo 340155" width="8.618" height="1.968" transform="matrix(0.975, -0.223, 0.223, 0.975, 9.833, 25.91)" fill="#303030"/>
    <rect id="Rectángulo_340156" data-name="Rectángulo 340156" width="8.62" height="1.968" transform="translate(61.425 14.093) rotate(-12.898)" fill="#303030"/>
    <path id="Trazado_700047" data-name="Trazado 700047" d="M31.9,56.079l-8.565,1.962-2.428-10.6,8.565-1.962.615,2.686,1.545-2.077-.46-2.007a.984.984,0,0,0-1.179-.74l-10.486,2.4a.984.984,0,0,0-.74,1.179l2.867,12.518a.985.985,0,0,0,1.18.739l10.485-2.4a.983.983,0,0,0,.74-1.179L32.3,48.993l-1.545,2.078Z" transform="translate(-1.803 -4.167)" fill="#303030"/>
    <path id="Trazado_700048" data-name="Trazado 700048" d="M72.806,32.911,40.695,40.266c-.343.078-.519.57-.4,1.1s.5.9.838.818L73.245,34.83c.342-.079.519-.571.4-1.1s-.5-.9-.836-.818" transform="translate(-3.873 -3.165)" fill="#303030"/>
    <path id="Trazado_700049" data-name="Trazado 700049" d="M75.515,44.74,43.4,52.095c-.342.078-.519.571-.4,1.1s.5.9.837.818l32.112-7.355c.342-.079.519-.571.4-1.1s-.5-.9-.837-.818" transform="translate(-4.134 -4.303)" fill="#303030"/>
    <path id="Trazado_700050" data-name="Trazado 700050" d="M75.056,38.35,50.629,43.945c-.259.06-.371.538-.25,1.067s.43.911.69.851L75.5,40.269c.259-.06.371-.537.25-1.067s-.43-.911-.69-.851" transform="translate(-4.842 -3.689)" fill="#303030"/>
    <path id="Trazado_700051" data-name="Trazado 700051" d="M43.351,22.69l.882,3.849a.985.985,0,1,0,1.92-.439l-.881-3.85-.44-1.918-.882-3.851a.985.985,0,0,0-1.92.439l.882,3.851Z" transform="translate(-4.041 -1.512)" fill="#303030"/>
    <path id="Trazado_700052" data-name="Trazado 700052" d="M77.6,14.845l.882,3.849a.985.985,0,1,0,1.92-.439l-.881-3.85-.44-1.918L78.2,8.636a.985.985,0,0,0-1.92.439l.882,3.851Z" transform="translate(-7.337 -0.757)" fill="#303030"/>
    <path id="Trazado_700053" data-name="Trazado 700053" d="M66.182,17.461l.882,3.849a.985.985,0,0,0,1.92-.439l-.881-3.85-.44-1.918-.882-3.851a.985.985,0,0,0-1.92.439l.882,3.851Z" transform="translate(-6.238 -1.009)" fill="#303030"/>
    <path id="Trazado_700054" data-name="Trazado 700054" d="M54.767,20.075l.882,3.849a.985.985,0,1,0,1.92-.439l-.881-3.85-.44-1.918-.882-3.851a.985.985,0,0,0-1.92.439l.882,3.851Z" transform="translate(-5.14 -1.26)" fill="#303030"/>
    <path id="Trazado_700055" data-name="Trazado 700055" d="M9.1,30.536l.882,3.849a.985.985,0,0,0,1.92-.439l-.881-3.85-.44-1.918L9.7,24.327a.985.985,0,0,0-1.92.439l.882,3.851Z" transform="translate(-0.746 -2.267)" fill="#303030"/>
    <path id="Trazado_700056" data-name="Trazado 700056" d="M31.934,25.3l.882,3.849a.985.985,0,1,0,1.92-.439l-.882-3.85-.439-1.918L32.532,19.1a.985.985,0,0,0-1.92.439l.882,3.851Z" transform="translate(-2.943 -1.764)" fill="#303030"/>
    <path id="Trazado_700057" data-name="Trazado 700057" d="M20.517,27.92l.882,3.849a.985.985,0,0,0,1.92-.439l-.881-3.85L22,25.562l-.882-3.851a.985.985,0,0,0-1.92.439L20.077,26Z" transform="translate(-1.844 -2.015)" fill="#303030"/>
    <path id="Trazado_700058" data-name="Trazado 700058" d="M34.983,42.208l-2.774,3.729-1.545,2.078-2.506,3.369L26.6,50.121a1.134,1.134,0,0,0-1.426,1.762l3.4,2.749,2.763-3.714,1.545-2.077L36.8,43.561a1.134,1.134,0,1,0-1.819-1.353" transform="translate(-2.381 -4.017)" fill="#303030"/>
    <path id="Trazado_700059" data-name="Trazado 700059" d="M37.026,78.467,28.461,80.43l-2.428-10.6L34.6,67.869l.615,2.685,1.545-2.078L36.3,66.47a.984.984,0,0,0-1.179-.74l-10.486,2.4a.984.984,0,0,0-.74,1.179L26.76,81.829a.985.985,0,0,0,1.18.739l10.485-2.4a.983.983,0,0,0,.74-1.179l-1.742-7.605-1.545,2.077Z" transform="translate(-2.296 -6.321)" fill="#303030"/>
    <path id="Trazado_700060" data-name="Trazado 700060" d="M77.933,55.3,45.822,62.654c-.342.078-.519.571-.4,1.1s.5.9.837.818l32.112-7.355c.342-.079.519-.571.4-1.1s-.5-.9-.837-.818" transform="translate(-4.367 -5.319)" fill="#303030"/>
    <path id="Trazado_700061" data-name="Trazado 700061" d="M80.643,67.128,48.532,74.483c-.342.078-.519.571-.4,1.1s.5.9.837.818l32.112-7.355c.342-.079.519-.571.4-1.1s-.5-.9-.837-.818" transform="translate(-4.627 -6.457)" fill="#303030"/>
    <path id="Trazado_700062" data-name="Trazado 700062" d="M80.184,60.738,55.757,66.333c-.259.06-.371.537-.25,1.067s.43.911.69.851l24.427-5.594c.259-.06.371-.538.25-1.067s-.43-.911-.69-.851" transform="translate(-5.336 -5.843)" fill="#303030"/>
    <path id="Trazado_700063" data-name="Trazado 700063" d="M40.111,64.6l-2.774,3.729L35.792,70.4l-2.507,3.371L31.723,72.51A1.133,1.133,0,1,0,30.3,74.272l3.4,2.749,2.762-3.713L38,71.23l3.928-5.281A1.134,1.134,0,0,0,40.111,64.6" transform="translate(-2.874 -6.171)" fill="#303030"/>
    <path id="Trazado_700064" data-name="Trazado 700064" d="M42.257,101.3l-8.565,1.962-2.428-10.6L39.83,90.7l.615,2.685,1.545-2.077-.46-2.006a.984.984,0,0,0-1.179-.74l-10.486,2.4a.985.985,0,0,0-.74,1.179l2.867,12.518a.985.985,0,0,0,1.18.739L43.656,103a.983.983,0,0,0,.74-1.179l-1.742-7.606L41.11,96.3Z" transform="translate(-2.8 -8.518)" fill="#303030"/>
    <path id="Trazado_700065" data-name="Trazado 700065" d="M83.164,78.136,51.053,85.491c-.342.078-.519.571-.4,1.1s.5.9.837.818L83.6,80.055c.342-.079.519-.571.4-1.1s-.5-.9-.837-.818" transform="translate(-4.87 -7.516)" fill="#303030"/>
    <path id="Trazado_700066" data-name="Trazado 700066" d="M85.873,89.965,53.762,97.32c-.342.078-.519.57-.4,1.1s.5.9.837.818l32.112-7.355c.342-.079.519-.571.4-1.1s-.5-.9-.837-.818" transform="translate(-5.13 -8.654)" fill="#303030"/>
    <path id="Trazado_700067" data-name="Trazado 700067" d="M85.415,83.575,60.988,89.17c-.259.06-.371.538-.25,1.067s.43.911.69.851l24.427-5.594c.259-.06.371-.537.25-1.067s-.43-.911-.69-.851" transform="translate(-5.839 -8.04)" fill="#303030"/>
    <path id="Trazado_700068" data-name="Trazado 700068" d="M45.342,87.433l-2.774,3.729-1.545,2.077-2.507,3.371-1.562-1.264a1.133,1.133,0,1,0-1.425,1.761l3.4,2.749,2.762-3.713,1.545-2.078,3.928-5.281a1.134,1.134,0,1,0-1.819-1.353" transform="translate(-3.378 -8.368)" fill="#303030"/>
    <path id="Trazado_700069" data-name="Trazado 700069" d="M47.805,125.526l-8.565,1.962-2.428-10.6,8.565-1.961.615,2.684,1.545-2.077-.46-2.006a.984.984,0,0,0-1.179-.74l-10.486,2.4a.984.984,0,0,0-.74,1.179l2.867,12.518a.985.985,0,0,0,1.18.739l10.485-2.4a.984.984,0,0,0,.74-1.179L48.2,118.44l-1.545,2.078Z" transform="translate(-3.333 -10.849)" fill="#303030"/>
    <path id="Trazado_700070" data-name="Trazado 700070" d="M88.712,102.359,56.6,109.714c-.342.078-.519.57-.4,1.1s.5.9.837.818l32.112-7.355c.342-.079.519-.571.4-1.1s-.5-.9-.837-.818" transform="translate(-5.404 -9.847)" fill="#303030"/>
    <path id="Trazado_700071" data-name="Trazado 700071" d="M91.421,114.187,59.31,121.542c-.342.078-.519.571-.4,1.1s.5.9.837.818l32.112-7.355c.342-.079.519-.571.4-1.1s-.5-.9-.837-.818" transform="translate(-5.664 -10.985)" fill="#303030"/>
    <path id="Trazado_700072" data-name="Trazado 700072" d="M90.963,107.8l-24.427,5.594c-.259.06-.371.537-.25,1.067s.43.911.69.851L91.4,109.717c.259-.06.371-.537.25-1.067s-.43-.911-.69-.851" transform="translate(-6.373 -10.371)" fill="#303030"/>
    <path id="Trazado_700073" data-name="Trazado 700073" d="M50.89,111.655l-2.774,3.729-1.545,2.077-2.507,3.371L42.5,119.569a1.133,1.133,0,1,0-1.425,1.761l3.4,2.749,2.762-3.713,1.545-2.078,3.928-5.281a1.134,1.134,0,1,0-1.819-1.353" transform="translate(-3.911 -10.698)" fill="#303030"/>
  </g>
</svg>
