<svg xmlns="http://www.w3.org/2000/svg" width="46.236" height="47.903" viewBox="0 0 46.236 47.903">
  <g id="Grupo_974885" data-name="Grupo 974885" transform="translate(-180 -4239.857)">
    <path id="Trazado_705175" data-name="Trazado 705175" d="M158.986,114.695a65.087,65.087,0,0,1,23.768,4.149c.2.079.453.362.432.527a84.388,84.388,0,0,1-2.276,11.863,66.609,66.609,0,0,1-6,14.982,48.94,48.94,0,0,1-12.165,14.6c-.715.571-1.519,1.061-2.258,1.612a.568.568,0,0,1-.807,0c-1.792-1.442-3.72-2.78-5.361-4.337a51.924,51.924,0,0,1-11.957-17.73,75.014,75.014,0,0,1-4.933-17.642c-.179-1.113-.292-2.233-.465-3.346-.049-.313.085-.448.4-.565a61.341,61.341,0,0,1,15.924-3.737c2.178-.2,4.372-.292,5.7-.378" transform="translate(43.049 4125.162)" fill="#ffc403"/>
    <path id="Trazado_705176" data-name="Trazado 705176" d="M195.472,142.992c-.126.21.226-.127,0,.75a5.71,5.71,0,0,1-1.174,2.109c-4.048,4.952-8.14,9.873-12.216,14.806-2.386,2.888-4.762,5.782-7.156,8.663a6.418,6.418,0,0,1-1.143,1.119,3.079,3.079,0,0,1-3.833.031c-2.5-2.1-4.963-4.255-7.293-6.512a2.7,2.7,0,0,1,.275-4.269,3.484,3.484,0,0,1,4.71.271c1.036.932,2.1,1.842,3.073,2.825.586.593.906.572,1.427-.067,3.478-4.249,6.992-8.474,10.493-12.707,2.268-2.742,4.509-5.5,6.812-8.221a3.4,3.4,0,0,1,4.92-.635c.623.543,1.12.936,1.1,1.835" transform="translate(27.961 4104.633)" fill="#03a4a4"/>
  </g>
</svg>
