<svg xmlns="http://www.w3.org/2000/svg" width="1030" height="472" viewBox="0 0 1030 472">
  <g id="Grupo_974882" data-name="Grupo 974882" transform="translate(-285 -1413)">
    <rect id="Rectángulo_340168" data-name="Rectángulo 340168" width="1030" height="472" rx="25" transform="translate(285 1413)" fill="#fff1e1"/>
    <path id="Trazado_705440" data-name="Trazado 705440" d="M57.812,12.658V17H54.727V4.2h5.106a5.948,5.948,0,0,1,2.6.541,4.074,4.074,0,0,1,1.749,1.538,4.2,4.2,0,0,1,.62,2.263,3.7,3.7,0,0,1-1.34,2.993,5.561,5.561,0,0,1-3.678,1.121Zm0-2.382h2.021A1.906,1.906,0,0,0,61.2,9.828a1.665,1.665,0,0,0,.47-1.266,2.059,2.059,0,0,0-.483-1.433,1.712,1.712,0,0,0-1.318-.545H57.812Zm14.247-.105-.976-.07a1.752,1.752,0,0,0-1.793.879V17H66.328V7.49h2.777l.1,1.222a2.294,2.294,0,0,1,2.083-1.4,2.888,2.888,0,0,1,.826.105Zm5.5,7a4.889,4.889,0,0,1-3.542-1.305,4.507,4.507,0,0,1-1.354-3.4v-.246a5.84,5.84,0,0,1,.541-2.575,3.955,3.955,0,0,1,1.578-1.727,4.763,4.763,0,0,1,2.461-.611,4.117,4.117,0,0,1,3.164,1.244,4.887,4.887,0,0,1,1.16,3.467v1.151H75.68a2.135,2.135,0,0,0,.694,1.257,2.066,2.066,0,0,0,1.389.457,2.662,2.662,0,0,0,2.2-.984l1.354,1.6a3.784,3.784,0,0,1-1.569,1.217A5.3,5.3,0,0,1,77.561,17.176ZM77.227,9.6q-1.3,0-1.547,1.723h2.988v-.229a1.467,1.467,0,0,0-.36-1.1A1.434,1.434,0,0,0,77.227,9.6Zm9.554,5.291a1.317,1.317,0,0,0,.967-.338,1.241,1.241,0,0,0,.334-.945h2.777a3.288,3.288,0,0,1-1.121,2.566,4.168,4.168,0,0,1-2.887,1,4.22,4.22,0,0,1-3.27-1.3,5.125,5.125,0,0,1-1.2-3.6v-.123A5.792,5.792,0,0,1,82.918,9.6a3.872,3.872,0,0,1,1.534-1.7,4.573,4.573,0,0,1,2.373-.593,4.116,4.116,0,0,1,2.944,1.028,3.647,3.647,0,0,1,1.09,2.786H88.081A1.626,1.626,0,0,0,87.721,10a1.244,1.244,0,0,0-.967-.4q-1.151,0-1.345,1.468a10.357,10.357,0,0,0-.062,1.283,4.068,4.068,0,0,0,.343,1.986A1.187,1.187,0,0,0,86.78,14.891ZM95.235,17H92.265V7.49h2.971ZM92.089,5.038A1.322,1.322,0,0,1,92.546,4a1.943,1.943,0,0,1,2.373,0,1.322,1.322,0,0,1,.457,1.037,1.322,1.322,0,0,1-.457,1.037,1.943,1.943,0,0,1-2.373,0A1.322,1.322,0,0,1,92.089,5.038Zm4.6,7.119a5.613,5.613,0,0,1,.554-2.536A3.96,3.96,0,0,1,98.83,7.912a4.791,4.791,0,0,1,2.435-.6,4.373,4.373,0,0,1,3.366,1.323,5.076,5.076,0,0,1,1.23,3.6v.105a4.925,4.925,0,0,1-1.235,3.529,4.384,4.384,0,0,1-3.344,1.305,4.434,4.434,0,0,1-3.261-1.217,4.761,4.761,0,0,1-1.327-3.3Zm2.962.185a3.538,3.538,0,0,0,.413,1.934,1.376,1.376,0,0,0,1.222.615q1.582,0,1.617-2.435v-.3q0-2.558-1.635-2.558-1.485,0-1.608,2.206ZM68.9,31.8a13.431,13.431,0,0,1,.571-3.99,9.629,9.629,0,0,1,1.578-3.129,5.6,5.6,0,0,1,2.237-1.793l.563,1.459a5.73,5.73,0,0,0-1.9,2.826,13.782,13.782,0,0,0-.681,4.5v.387a14.051,14.051,0,0,0,.672,4.588A5.706,5.706,0,0,0,73.847,39.5l-.562,1.459a5.547,5.547,0,0,1-2.237-1.8,9.484,9.484,0,0,1-1.578-3.116,13.5,13.5,0,0,1-.571-3.85Zm9.352.861V37H75.166V24.2h5.106a5.948,5.948,0,0,1,2.6.541,4.074,4.074,0,0,1,1.749,1.538,4.2,4.2,0,0,1,.62,2.263,3.7,3.7,0,0,1-1.34,2.993,5.561,5.561,0,0,1-3.678,1.121Zm0-2.382h2.021a1.906,1.906,0,0,0,1.367-.448,1.665,1.665,0,0,0,.47-1.266,2.059,2.059,0,0,0-.483-1.433,1.712,1.712,0,0,0-1.318-.545H78.251Zm13.166,1.767a12.532,12.532,0,0,1-.606,3.92,10.008,10.008,0,0,1-1.674,3.186,5.574,5.574,0,0,1-2.307,1.806L86.266,39.5a5.787,5.787,0,0,0,1.89-2.812,13.577,13.577,0,0,0,.694-4.368v-.536a14.051,14.051,0,0,0-.672-4.588,5.706,5.706,0,0,0-1.912-2.848l.563-1.459a5.676,5.676,0,0,1,2.29,1.789,9.885,9.885,0,0,1,1.67,3.138,12.426,12.426,0,0,1,.628,3.845Z" transform="translate(495 1427)"/>
    <path id="Trazado_705445" data-name="Trazado 705445" d="M40.343,12.667a4.673,4.673,0,0,1-.721,2.36,4.35,4.35,0,0,1-1.85,1.586,6.3,6.3,0,0,1-2.72.563,5.025,5.025,0,0,1-3.973-1.644,6.786,6.786,0,0,1-1.45-4.641v-.633a7.746,7.746,0,0,1,.655-3.292,4.961,4.961,0,0,1,1.885-2.18,5.26,5.26,0,0,1,2.848-.769,5.516,5.516,0,0,1,3.744,1.226A4.844,4.844,0,0,1,40.37,8.624H37.293A2.292,2.292,0,0,0,36.7,6.945a2.422,2.422,0,0,0-1.687-.51A1.843,1.843,0,0,0,33.33,7.3a5.536,5.536,0,0,0-.562,2.751v.905a6.126,6.126,0,0,0,.514,2.927,1.882,1.882,0,0,0,1.771.879,2.369,2.369,0,0,0,1.626-.5,2.126,2.126,0,0,0,.6-1.591ZM47.023,17a3.344,3.344,0,0,1-.281-.853,2.754,2.754,0,0,1-2.285,1.028,3.374,3.374,0,0,1-2.285-.813,2.588,2.588,0,0,1-.94-2.043,2.66,2.66,0,0,1,1.143-2.338A5.821,5.821,0,0,1,45.7,11.19h.914v-.5q0-1.316-1.134-1.316a.927.927,0,0,0-1.055,1.042H41.46a2.655,2.655,0,0,1,1.173-2.239,4.931,4.931,0,0,1,2.993-.86A4.323,4.323,0,0,1,48.5,8.2a3.086,3.086,0,0,1,1.081,2.435v4.21a4.311,4.311,0,0,0,.4,2V17Zm-1.854-1.934a1.652,1.652,0,0,0,.918-.237,1.487,1.487,0,0,0,.523-.536V12.772h-.861q-1.547,0-1.547,1.389a.848.848,0,0,0,.272.655A.986.986,0,0,0,45.168,15.066ZM53.94,7.49l.1,1.116a3.225,3.225,0,0,1,2.716-1.292,2.713,2.713,0,0,1,2.219.888,4.226,4.226,0,0,1,.76,2.672V17H56.761V11a1.6,1.6,0,0,0-.29-1.059A1.342,1.342,0,0,0,55.417,9.6a1.413,1.413,0,0,0-1.292.686V17H51.163V7.49ZM64.821,5.126V7.49h1.564V9.547H64.821V13.9a1.111,1.111,0,0,0,.193.747,1.037,1.037,0,0,0,.765.211,4.345,4.345,0,0,0,.738-.053v2.118a5.466,5.466,0,0,1-1.67.255,3.1,3.1,0,0,1-2.259-.721,2.954,2.954,0,0,1-.729-2.188V9.547H60.646V7.49h1.213V5.126ZM70.674,17H67.7V7.49h2.971ZM67.528,5.038A1.322,1.322,0,0,1,67.985,4a1.943,1.943,0,0,1,2.373,0,1.322,1.322,0,0,1,.457,1.037,1.322,1.322,0,0,1-.457,1.037,1.943,1.943,0,0,1-2.373,0A1.322,1.322,0,0,1,67.528,5.038Zm4.6,7.137a5.809,5.809,0,0,1,.976-3.56,3.211,3.211,0,0,1,2.725-1.3,2.731,2.731,0,0,1,2.145,1V3.5H80.94V17H78.277l-.149-1.02a2.8,2.8,0,0,1-2.32,1.2,3.205,3.205,0,0,1-2.689-1.3A5.993,5.993,0,0,1,72.125,12.175Zm2.962.185q0,2.531,1.477,2.531a1.458,1.458,0,0,0,1.406-.826V10.443A1.419,1.419,0,0,0,76.581,9.6q-1.371,0-1.485,2.215ZM87.98,17a3.344,3.344,0,0,1-.281-.853,2.754,2.754,0,0,1-2.285,1.028,3.374,3.374,0,0,1-2.285-.813,2.588,2.588,0,0,1-.94-2.043,2.66,2.66,0,0,1,1.143-2.338,5.821,5.821,0,0,1,3.322-.791h.914v-.5q0-1.316-1.134-1.316a.927.927,0,0,0-1.055,1.042H82.417A2.655,2.655,0,0,1,83.59,8.175a4.931,4.931,0,0,1,2.993-.86,4.323,4.323,0,0,1,2.874.888,3.086,3.086,0,0,1,1.081,2.435v4.21a4.311,4.311,0,0,0,.4,2V17Zm-1.854-1.934a1.652,1.652,0,0,0,.918-.237,1.487,1.487,0,0,0,.523-.536V12.772h-.861q-1.547,0-1.547,1.389a.848.848,0,0,0,.272.655A.986.986,0,0,0,86.126,15.066ZM91.8,12.175a5.809,5.809,0,0,1,.976-3.56,3.211,3.211,0,0,1,2.725-1.3,2.731,2.731,0,0,1,2.145,1V3.5h2.971V17H97.956l-.149-1.02a2.8,2.8,0,0,1-2.32,1.2,3.205,3.205,0,0,1-2.689-1.3A5.993,5.993,0,0,1,91.8,12.175Zm2.962.185q0,2.531,1.477,2.531a1.458,1.458,0,0,0,1.406-.826V10.443A1.419,1.419,0,0,0,96.259,9.6q-1.371,0-1.485,2.215Zm12.243-.562a13.431,13.431,0,0,1,.571-3.99,9.629,9.629,0,0,1,1.578-3.129,5.6,5.6,0,0,1,2.237-1.793l.563,1.459a5.73,5.73,0,0,0-1.9,2.826,13.782,13.782,0,0,0-.681,4.5v.387a14.051,14.051,0,0,0,.672,4.588,5.706,5.706,0,0,0,1.912,2.848l-.562,1.459a5.547,5.547,0,0,1-2.237-1.8,9.484,9.484,0,0,1-1.578-3.116,13.5,13.5,0,0,1-.571-3.85Zm17.121-.932a7.562,7.562,0,0,1-.589,3.1,5.385,5.385,0,0,1-1.626,2.123l2.065,1.635-1.907,1.617-2.751-2.215a5.718,5.718,0,0,1-.773.053,5.547,5.547,0,0,1-2.9-.756,5.141,5.141,0,0,1-1.973-2.162,7.343,7.343,0,0,1-.734-3.234v-.677a7.572,7.572,0,0,1,.69-3.322A5.142,5.142,0,0,1,115.6,4.81a5.854,5.854,0,0,1,5.832-.009A5.211,5.211,0,0,1,123.413,7a7.362,7.362,0,0,1,.716,3.274Zm-3.138-.536a5.381,5.381,0,0,0-.637-2.9,2.2,2.2,0,0,0-3.661-.013,5.451,5.451,0,0,0-.624,2.856v.589a5.531,5.531,0,0,0,.624,2.9,2.043,2.043,0,0,0,1.854,1.006,2.014,2.014,0,0,0,1.806-.993,5.414,5.414,0,0,0,.637-2.856Zm9.246,1.714a12.532,12.532,0,0,1-.606,3.92,10.008,10.008,0,0,1-1.674,3.186,5.574,5.574,0,0,1-2.307,1.806l-.562-1.459a5.787,5.787,0,0,0,1.89-2.812,13.577,13.577,0,0,0,.694-4.368v-.536A14.051,14.051,0,0,0,127,7.191a5.706,5.706,0,0,0-1.912-2.848l.563-1.459a5.676,5.676,0,0,1,2.29,1.789,9.885,9.885,0,0,1,1.67,3.138,12.426,12.426,0,0,1,.628,3.845Z" transform="translate(902.546 1842.029)"/>
    <path id="Trazado_700106" data-name="Trazado 700106" d="M-1436.963-10848.066v360.21h377.586" transform="translate(2061.944 12317.884)" fill="none" stroke="#000" stroke-width="4"/>
    <g id="Grupo_974119" data-name="Grupo 974119" transform="translate(624.982 1708.415)">
      <path id="Trazado_700107" data-name="Trazado 700107" d="M-1436.963-10742.687h13.9" transform="translate(1436.963 10742.687)" fill="none" stroke="#707070" stroke-linecap="square" stroke-width="2"/>
      <path id="Trazado_700120" data-name="Trazado 700120" d="M-1436.963-10742.687h13.9" transform="translate(1523.826 10742.687)" fill="none" stroke="#707070" stroke-linecap="square" stroke-width="2"/>
      <path id="Trazado_700112" data-name="Trazado 700112" d="M-1436.963-10742.687h13.9" transform="translate(1481.314 10742.687)" fill="none" stroke="#707070" stroke-linecap="square" stroke-width="2"/>
      <path id="Trazado_700115" data-name="Trazado 700115" d="M-1436.963-10742.687h13.9" transform="translate(1561.385 10742.687)" fill="none" stroke="#707070" stroke-linecap="square" stroke-width="2"/>
      <path id="Trazado_700110" data-name="Trazado 700110" d="M-1436.963-10742.687h13.9" transform="translate(1459.022 10742.687)" fill="none" stroke="#707070" stroke-linecap="square" stroke-width="2"/>
      <path id="Trazado_700119" data-name="Trazado 700119" d="M-1436.963-10742.687h13.9" transform="translate(1542.667 10742.687)" fill="none" stroke="#707070" stroke-linecap="square" stroke-width="2"/>
      <path id="Trazado_700116" data-name="Trazado 700116" d="M-1436.963-10742.687h13.9" transform="translate(1582.793 10742.687)" fill="none" stroke="#707070" stroke-linecap="square" stroke-width="2"/>
      <path id="Trazado_700111" data-name="Trazado 700111" d="M-1436.963-10742.687h4.545" transform="translate(1467.427 10742.687)" fill="none" stroke="#707070" stroke-linecap="square" stroke-width="2"/>
      <path id="Trazado_700114" data-name="Trazado 700114" d="M-1436.963-10742.687h13.9" transform="translate(1502.721 10742.687)" fill="none" stroke="#707070" stroke-linecap="square" stroke-width="2"/>
      <path id="Trazado_700117" data-name="Trazado 700117" d="M-1436.963-10742.687h13.9" transform="translate(1603.17 10742.687)" fill="none" stroke="#707070" stroke-linecap="square" stroke-width="2"/>
    </g>
    <g id="Grupo_974120" data-name="Grupo 974120" transform="translate(807.16 1830.03) rotate(-90)">
      <path id="Trazado_700107-2" data-name="Trazado 700107" d="M0,0H13.9" transform="translate(0 0)" fill="none" stroke="#707070" stroke-linecap="square" stroke-width="2"/>
      <path id="Trazado_700120-2" data-name="Trazado 700120" d="M0,0H13.9" transform="translate(59.174 0)" fill="none" stroke="#707070" stroke-linecap="square" stroke-width="2"/>
      <path id="Trazado_700112-2" data-name="Trazado 700112" d="M0,0H13.9" transform="translate(19.686 0)" fill="none" stroke="#707070" stroke-linecap="square" stroke-width="2"/>
      <path id="Trazado_700115-2" data-name="Trazado 700115" d="M0,0H13.9" transform="translate(94.764 0)" fill="none" stroke="#707070" stroke-linecap="square" stroke-width="2"/>
      <path id="Trazado_700113" data-name="Trazado 700113" d="M0,0H13.9" transform="translate(39.486 0)" fill="none" stroke="#707070" stroke-linecap="square" stroke-width="2"/>
      <path id="Trazado_700116-2" data-name="Trazado 700116" d="M0,0H8.748" transform="translate(78.86 0)" fill="none" stroke="#707070" stroke-linecap="square" stroke-width="2"/>
      <path id="Trazado_700117-2" data-name="Trazado 700117" d="M0,0H8.346" transform="translate(113.268 0)" fill="none" stroke="#707070" stroke-linecap="square" stroke-width="2"/>
    </g>
    <path id="Trazado_700108" data-name="Trazado 700108" d="M-1420.081-10833.744s103.083,268.711,330.1,304.617" transform="translate(2083.284 12335.991)" fill="none" stroke="#b20d0d" stroke-width="4"/>
    <path id="Trazado_700109" data-name="Trazado 700109" d="M-1423.662-10528.48s214.274-84.551,299.983-305.774" transform="translate(2078.758 12335.346)" fill="none" stroke="#06d1d1" stroke-width="4"/>
    <path id="Trazado_705443" data-name="Trazado 705443" d="M-2.509-6.03V0H-6.793V-17.773H.3a8.261,8.261,0,0,1,3.607.751,5.658,5.658,0,0,1,2.429,2.136A5.834,5.834,0,0,1,7.2-11.743,5.143,5.143,0,0,1,5.334-7.587,7.724,7.724,0,0,1,.226-6.03Zm0-3.308H.3a2.648,2.648,0,0,0,1.9-.623,2.313,2.313,0,0,0,.653-1.758,2.859,2.859,0,0,0-.671-1.99,2.377,2.377,0,0,0-1.831-.757H-2.509Z" transform="translate(605.726 1715.856)"/>
    <path id="Trazado_705444" data-name="Trazado 705444" d="M7.477-8.18a10.083,10.083,0,0,1-.785,4.131,7.18,7.18,0,0,1-2.168,2.83L7.277.961,4.734,3.117,1.066.164A7.624,7.624,0,0,1,.035.234,7.4,7.4,0,0,1-3.832-.773,6.854,6.854,0,0,1-6.463-3.656a9.791,9.791,0,0,1-.979-4.312v-.9a10.1,10.1,0,0,1,.92-4.43A6.856,6.856,0,0,1-3.9-16.254,7.338,7.338,0,0,1,.012-17.3a7.3,7.3,0,0,1,3.867,1.031A6.948,6.948,0,0,1,6.521-13.33a9.816,9.816,0,0,1,.955,4.365ZM3.293-8.895a7.175,7.175,0,0,0-.85-3.861A2.725,2.725,0,0,0,.012-14.074a2.707,2.707,0,0,0-2.449,1.3A7.268,7.268,0,0,0-3.27-8.965v.785a7.374,7.374,0,0,0,.832,3.861A2.724,2.724,0,0,0,.035-2.977,2.685,2.685,0,0,0,2.443-4.3a7.219,7.219,0,0,0,.85-3.809Z" transform="translate(811.763 1857.497)"/>
    <path id="Trazado_705442" data-name="Trazado 705442" d="M-6.738,0V-17.773h5.725a8.422,8.422,0,0,1,4.236,1.068A7.508,7.508,0,0,1,6.158-13.69,9.1,9.1,0,0,1,7.227-9.326v.818A9.156,9.156,0,0,1,6.2-4.132,7.54,7.54,0,0,1,3.29-1.1,8.236,8.236,0,0,1-.891,0Zm4.285-14.465V-3.3H-.964A3.333,3.333,0,0,0,1.868-4.608a6.431,6.431,0,0,0,.989-3.9v-.769a6.378,6.378,0,0,0-.989-3.882,3.391,3.391,0,0,0-2.881-1.306Z" transform="translate(662.33 1493.97)"/>
    <path id="Trazado_705441" data-name="Trazado 705441" d="M7.453-8.18a10.062,10.062,0,0,1-.926,4.418A6.842,6.842,0,0,1,3.9-.8,7.326,7.326,0,0,1,.012.234a7.429,7.429,0,0,1-3.867-1A6.831,6.831,0,0,1-6.486-3.633a9.772,9.772,0,0,1-.99-4.277v-.961a10.106,10.106,0,0,1,.92-4.424A6.825,6.825,0,0,1-3.92-16.254,7.377,7.377,0,0,1-.012-17.3a7.3,7.3,0,0,1,3.867,1.031A6.948,6.948,0,0,1,6.5-13.33a9.816,9.816,0,0,1,.955,4.365ZM3.27-8.895a7.175,7.175,0,0,0-.85-3.861A2.725,2.725,0,0,0-.012-14.074q-3.094,0-3.27,4.641L-3.293-8.18a7.379,7.379,0,0,0,.832,3.855A2.721,2.721,0,0,0,.012-2.977,2.688,2.688,0,0,0,2.414-4.3,7.178,7.178,0,0,0,3.27-8.109Z" transform="translate(963.461 1497.499)"/>
    <g id="Polígono_155" data-name="Polígono 155" transform="translate(614.641 1458.889)">
      <path d="M 21.13277816772461 18.5 L 0.8672215938568115 18.5 L 11 0.9979282021522522 L 21.13277816772461 18.5 Z" stroke="none"/>
      <path d="M 11 1.995874404907227 L 1.734453201293945 18 L 20.26554679870605 18 L 11 1.995874404907227 M 11 0 L 22 19 L 0 19 L 11 0 Z" stroke="none" fill="#707070"/>
    </g>
    <g id="Polígono_156" data-name="Polígono 156" transform="translate(1021.567 1819.027) rotate(90)">
      <path d="M 21.13277816772461 18.5 L 0.8672215938568115 18.5 L 11 0.9979282021522522 L 21.13277816772461 18.5 Z" stroke="none"/>
      <path d="M 11 1.995874404907227 L 1.734453201293945 18 L 20.26554679870605 18 L 11 1.995874404907227 M 11 0 L 22 19 L 0 19 L 11 0 Z" stroke="none" fill="#707070"/>
    </g>
  </g>
</svg>
